<?xml version="1.0" encoding="UTF-8"?>
<svg id="Layer_1" data-name="Layer 1" xmlns="http://www.w3.org/2000/svg" xmlns:xlink="http://www.w3.org/1999/xlink" viewBox="0 0 512 512">
  <defs>
    <style>
      .cls-1 {
        fill: url(#linear-gradient-5);
      }

      .cls-2 {
        fill: url(#linear-gradient-4);
      }

      .cls-3 {
        fill: url(#linear-gradient-3);
      }

      .cls-4 {
        fill: url(#linear-gradient-2);
      }

      .cls-5 {
        fill: #785647;
      }

      .cls-6 {
        fill: url(#radial-gradient);
      }

      .cls-7 {
        fill: url(#linear-gradient);
      }
    </style>
    <radialGradient id="radial-gradient" cx="164.72" cy="604.61" fx="164.72" fy="604.61" r="113.56" gradientTransform="translate(35.7194 1129.7199) scale(1.0667 -1.737)" gradientUnits="userSpaceOnUse">
      <stop offset=".34" stop-color="#ffeac2"/>
      <stop offset=".66" stop-color="#fee8bf"/>
      <stop offset=".92" stop-color="#f9e1b5"/>
      <stop offset="1" stop-color="#f7deb0"/>
    </radialGradient>
    <linearGradient id="linear-gradient" x1="178.37" y1="190.98" x2="505.92" y2="190.98" gradientTransform="translate(0 514) scale(1 -1)" gradientUnits="userSpaceOnUse">
      <stop offset=".59" stop-color="#ffe12c"/>
      <stop offset=".77" stop-color="#fde32c"/>
      <stop offset=".86" stop-color="#f5e82c"/>
      <stop offset=".94" stop-color="#e7f22c"/>
      <stop offset="1" stop-color="#d5ff2c"/>
    </linearGradient>
    <linearGradient id="linear-gradient-2" x1="246.39" y1="177.24" x2="221.18" y2="322.24" gradientTransform="translate(0 514) scale(1 -1)" gradientUnits="userSpaceOnUse">
      <stop offset=".32" stop-color="#ffe12c"/>
      <stop offset=".46" stop-color="#fbda28"/>
      <stop offset=".66" stop-color="#f0c71c"/>
      <stop offset=".9" stop-color="#dda80a"/>
      <stop offset="1" stop-color="#d49800"/>
    </linearGradient>
    <linearGradient id="linear-gradient-3" x1="488.4" y1="52.49" x2="57.47" y2="197.55" gradientTransform="translate(0 514) scale(1 -1)" gradientUnits="userSpaceOnUse">
      <stop offset="0" stop-color="#b2d424"/>
      <stop offset=".1" stop-color="#ffcd00"/>
      <stop offset=".17" stop-color="#ffcd00"/>
      <stop offset=".63" stop-color="#ffcd00"/>
      <stop offset=".72" stop-color="#fbc800"/>
      <stop offset=".84" stop-color="#efb900"/>
      <stop offset=".96" stop-color="#dba100"/>
      <stop offset="1" stop-color="#d49800"/>
    </linearGradient>
    <linearGradient id="linear-gradient-4" x1="60.88" y1="2" x2="60.88" y2="286.92" gradientTransform="translate(0 514) scale(1 -1)" gradientUnits="userSpaceOnUse">
      <stop offset="0" stop-color="#ebd3a7"/>
      <stop offset=".34" stop-color="#ffeac2"/>
    </linearGradient>
    <linearGradient id="linear-gradient-5" x1="197.96" y1="264.77" x2="428.7" y2="264.77" gradientTransform="translate(0 514) scale(1 -1)" gradientUnits="userSpaceOnUse">
      <stop offset=".66" stop-color="#ffeac2"/>
      <stop offset="1" stop-color="#ebd3a7"/>
    </linearGradient>
  </defs>
  <path class="cls-6" d="M230.22,239.38C146.23,104.31,198.63-2,133.47.03c-56.61,1.77-108.27,113.51-24.49,284.5,91.55,52.93,121.24-45.15,121.24-45.15Z"/>
  <path class="cls-7" d="M426.29,316.67c-34.85,22.84-89.07-117.8-185.64-98.47,0,100.17,98.3,169.82,226.75,158.91,6.7-.56,14.63,4.79,28.25-.45,10.27,5.23,10.27,12.62,10.27,12.62-117.26,116.89-325.26,2.26-327.55-110.81,33.42-150.46,226.61-23.22,247.92,38.21Z"/>
  <path class="cls-4" d="M180.28,279.3s2.12-45.52,60.36-61.11c1.13,80.49,61.89,118.71,61.89,118.71-37.79,59-104.58,19.66-122.26-57.61Z"/>
  <path class="cls-3" d="M503.58,386.41c-83.21,76.03-265.62,50.17-325.24-112.21-27.07-73.74-187.68-82.94-81.09,165.85-32.84-119.92-19.14-212.34,7.89-148.85,91.91,215.78,267.59,220.62,365.03,150.04,27.06-19.6,16.73-22.44,41.63-44.72l-8.22-10.11Z"/>
  <path class="cls-2" d="M121.76,229.15c-120.65,26.21,32.59,307.61-24.46,281.09C-7.88,461.39-64.27,201.4,121.76,229.15Z"/>
  <path class="cls-1" d="M398.71,306.79c-19.23-14.77-110.81-150.73-200.74-72.67,135.28-178.29,299.13,148.3,200.74,72.67Z"/>
  <path class="cls-5" d="M495.65,376.66c10.27,6.7,13.47,25.83,16.15,19.85,1.82-4.09-9.33-18.88-16.15-19.85Z"/>
</svg>