<?xml version="1.0" encoding="UTF-8"?>
<svg id="Layer_1" data-name="Layer 1" xmlns="http://www.w3.org/2000/svg" xmlns:xlink="http://www.w3.org/1999/xlink" viewBox="0 0 477.87 512">
  <defs>
    <style>
      .cls-1 {
        fill: #7ab51d;
      }

      .cls-2 {
        fill: url(#radial-gradient-5);
      }

      .cls-3 {
        fill: url(#radial-gradient-4);
      }

      .cls-4 {
        fill: url(#radial-gradient-3);
      }

      .cls-5 {
        fill: url(#radial-gradient-2);
      }

      .cls-6 {
        fill: url(#radial-gradient);
      }

      .cls-7 {
        fill: #c5dca8;
      }

      .cls-8 {
        fill: #92c932;
      }

      .cls-9, .cls-10 {
        fill: #2b4d28;
      }

      .cls-11 {
        fill: #6cc265;
      }

      .cls-11, .cls-10 {
        isolation: isolate;
        opacity: .3;
      }
    </style>
    <radialGradient id="radial-gradient" cx="-247.77" cy="-99.78" fx="-247.77" fy="-99.78" r="123.23" gradientTransform="translate(174.18 -141.47) rotate(-53.28) scale(1.12 -.97) skewX(-.04)" gradientUnits="userSpaceOnUse">
      <stop offset="0" stop-color="#438f31"/>
      <stop offset=".3" stop-color="#408131"/>
      <stop offset=".88" stop-color="#395b2f"/>
      <stop offset="1" stop-color="#37522f"/>
    </radialGradient>
    <radialGradient id="radial-gradient-2" cx="163.87" cy="432.82" fx="163.87" fy="432.82" r="128.37" gradientTransform="translate(-13.75 502.35) scale(.98 -.97)" gradientUnits="userSpaceOnUse">
      <stop offset="0" stop-color="#438f31"/>
      <stop offset=".3" stop-color="#408131"/>
      <stop offset=".88" stop-color="#395b2f"/>
      <stop offset="1" stop-color="#37522f"/>
    </radialGradient>
    <radialGradient id="radial-gradient-3" cx="339.44" cy="421" fx="339.44" fy="421" r="163.05" gradientTransform="translate(-13.75 502.35) scale(.98 -.97)" gradientUnits="userSpaceOnUse">
      <stop offset="0" stop-color="#438f31"/>
      <stop offset=".3" stop-color="#408131"/>
      <stop offset=".88" stop-color="#395b2f"/>
      <stop offset="1" stop-color="#37522f"/>
    </radialGradient>
    <radialGradient id="radial-gradient-4" cx="54.5" cy="951.38" fx="54.5" fy="951.38" r="103.98" gradientTransform="translate(-651.14 802.47) rotate(59.35) scale(1.12 -1.22) skewX(.04)" gradientUnits="userSpaceOnUse">
      <stop offset="0" stop-color="#438f31"/>
      <stop offset=".3" stop-color="#408131"/>
      <stop offset=".88" stop-color="#395b2f"/>
      <stop offset="1" stop-color="#37522f"/>
    </radialGradient>
    <radialGradient id="radial-gradient-5" cx="164.56" cy="315.45" fx="164.56" fy="315.45" r="126.73" gradientTransform="translate(64.05 502.35) scale(1.12 -.97)" gradientUnits="userSpaceOnUse">
      <stop offset="0" stop-color="#438f31"/>
      <stop offset=".3" stop-color="#408131"/>
      <stop offset=".88" stop-color="#395b2f"/>
      <stop offset="1" stop-color="#37522f"/>
    </radialGradient>
  </defs>
  <path class="cls-9" d="M238.97,247.25c231.48,46.55,49.81,196.25-55.42,97.63-181.73-35.19-41.36-230.14,55.42-97.63Z"/>
  <path class="cls-8" d="M126.06,261.4c30.85,64.76-42.64,75.02-42.64,208.99,7.64,43.73,103.87,58.93,127.25,16.38-33.13-62.84,38.46-129.37,92.65-132.73,62.17-4.24,32.59-24.14,29.27-31.55-40.49-3.03-90.76,3.34-128.84,27.91,15.53-28.25,49.05-52.22,89.22-70.76-102.02-76.85-71.25,1.21-116.96,38.25-14.02-93.24-16.45-82.63-49.95-56.51Z"/>
  <path class="cls-1" d="M203.73,350.41c-8.22,6.7-14.93,24.9-14.93,29.18,35.96-51.35,145.29-48,143.77-57.11-33.2-8.81-112.38,6.99-128.84,27.94Z"/>
  <path class="cls-1" d="M83.42,470.39c7.61,43.73,103.86,58.93,127.25,16.38-17.9-42.46-110.81-37.32-127.25-16.38Z"/>
  <path class="cls-1" d="M96.21,473.13c-8.23,6.69,24.9,3.93,24.9,8.2-7.53-25.22-11.29-37.67-6.72-65.95-13.41,21.02-1.74,36.81-18.18,57.75Z"/>
  <path class="cls-1" d="M112.65,494.69c-8.22,6.7,24.9,3.95,24.9,8.21-7.53-25.22-9.97-47.38-5.38-75.68-13.4,20.99-3.07,46.54-19.52,67.47Z"/>
  <path class="cls-1" d="M197.46,484.24c8.21,6.71-24.9,3.96-24.9,8.21,7.52-25.23,0-41.92,26.18-75.68-14.81,35.57-17.75,46.54-1.28,67.47Z"/>
  <path class="cls-1" d="M151.04,336.76c-8.23,6.68,16.76-9.11,24.98-18.84-1.52-52.87-20.33-120.36-48.44-62.28-18.08-4.8,7.55,22.1,6.03,34.94,12.01,6.28,18.64-9.22,18.64-9.22,12.1,28.94,3.62,49.21-1.21,55.39Z"/>
  <path class="cls-7" d="M92.49,472.23c6.53,37.5,89.07,50.53,109.11,14.05-15.33-36.39-94.99-32-109.11-14.05Z"/>
  <path class="cls-6" d="M93.77,270.06c-25.92,15.39-71.81,11.35-72.3-36.14-25.11-16.58-34.69-71.52,7.65-89.69,77.82-183.38,249.22,152.62,64.65,125.83Z"/>
  <path class="cls-5" d="M115.2,208.61c-29.89,4.15-71.48-50.18-46.48-89.67-15.5-36.12-5.86-89.75,43.58-85.33C121.51.43,191.2-12.1,197.37,14.06c190.42-12.19,20.96,297.08-82.17,194.54Z"/>
  <path class="cls-4" d="M458.81,180.44c79.17,168.88-406.02,69.95-223.6-89.03,4.43-44.24,42.8-84.43,107.54-67.23,30.87-18.3,81.27,5.66,92.08,48.8,39.12,15.84,46.16,71.49,23.98,107.45Z"/>
  <path class="cls-3" d="M412.59,385.65c-7.49,40.42-95.77,26.14-92.6-17.68-93.52-78.93-9.6-183.95,57.56-157.12,30.99-16.15,75.64-1.77,76.71,42.84,21.32,6.94,32.87,51.62,14.38,75.94,10.01,20.15-28.74,61.21-56.04,56.03Z"/>
  <path class="cls-2" d="M355.41,231.81c15.48,51.19-39.3,108.14-91.12,82.09-33.7,8.93-79.2,1.19-86.8-35.79-22.15-9.49-46.05-53.62-12.11-86.45,2.95-40.81,40.87-63.48,88.98-48.25,32.42-13.46,78.22.8,74.04,26.83,28.4,3.55,45.27,38.37,27.02,61.57Z"/>
  <path class="cls-11" d="M158.93,22.76c0,11.37-17.07,11.37-17.07,0s17.07-11.38,17.07,0Z"/>
  <path class="cls-11" d="M165.5,57.21c0,11.37-17.07,11.37-17.07,0s17.07-11.37,17.07,0Z"/>
  <path class="cls-10" d="M156.96,86.72c0,11.37-17.07,11.37-17.07,0s17.07-11.37,17.07,0Z"/>
  <path class="cls-11" d="M132.38,106.21c0,11.37-17.07,11.37-17.07,0s17.07-11.37,17.07,0Z"/>
  <path class="cls-11" d="M88.18,70.44c0,11.37-17.07,11.37-17.07,0s17.07-11.37,17.07,0Z"/>
  <path class="cls-10" d="M188.8,32.75c0,11.37-17.07,11.37-17.07,0s17.07-11.37,17.07,0Z"/>
  <path class="cls-10" d="M106.67,52.89c0,11.37-17.07,11.37-17.07,0s17.07-11.37,17.07,0Z"/>
  <path class="cls-10" d="M101.06,95.25c0,11.37-17.07,11.37-17.07,0s17.07-11.37,17.07,0Z"/>
  <path class="cls-10" d="M195.05,61.42c0,11.37-17.07,11.37-17.07,0s17.07-11.37,17.07,0Z"/>
  <path class="cls-10" d="M98.13,122.44c0,11.37-17.07,11.37-17.07,0s17.07-11.37,17.07,0Z"/>
  <path class="cls-10" d="M139.81,44.36c0,11.37-17.07,11.37-17.07,0s17.07-11.37,17.07,0Z"/>
  <path class="cls-10" d="M129.05,70.44c0,11.37-17.07,11.37-17.07,0s17.07-11.37,17.07,0Z"/>
  <path class="cls-11" d="M366.34,67.52c0,11.37-17.07,11.37-17.07,0s17.07-11.37,17.07,0Z"/>
  <path class="cls-11" d="M330.59,95.25c0,11.37-17.07,11.37-17.07,0s17.07-11.37,17.07,0Z"/>
  <path class="cls-11" d="M318.82,44.36c0,11.37-17.07,11.37-17.07,0s17.07-11.37,17.07,0Z"/>
  <path class="cls-11" d="M281.69,82.45c0,11.37-17.07,11.37-17.07,0s17.07-11.37,17.07,0Z"/>
  <path class="cls-10" d="M338.65,70.44c0,11.37-17.07,11.37-17.07,0s17.07-11.37,17.07,0Z"/>
  <path class="cls-10" d="M298.76,106.21c0,11.37-17.07,11.37-17.07,0s17.07-11.37,17.07,0Z"/>
  <path class="cls-10" d="M355.71,39.82c0,11.37-17.07,11.37-17.07,0s17.07-11.38,17.07,0Z"/>
  <path class="cls-11" d="M409.13,54.89c0,11.37-17.07,11.37-17.07,0s17.07-11.37,17.07,0Z"/>
  <path class="cls-10" d="M310.29,71.95c0,11.37-17.07,11.37-17.07,0s17.07-11.37,17.07,0Z"/>
  <path class="cls-10" d="M288.25,49.82c0,11.37-17.07,11.37-17.07,0s17.07-11.37,17.07,0Z"/>
  <path class="cls-10" d="M260.69,99.52c0,11.37-17.07,11.37-17.07,0s17.07-11.37,17.07,0Z"/>
  <path class="cls-10" d="M357.81,94.18c0,11.37-17.07,11.37-17.07,0s17.07-11.37,17.07,0Z"/>
  <path class="cls-10" d="M382.92,44.36c0,11.37-17.07,11.37-17.07,0s17.07-11.37,17.07,0Z"/>
  <path class="cls-11" d="M244.25,233.28c0,11.37-17.07,11.37-17.07,0s17.07-11.37,17.07,0Z"/>
  <path class="cls-10" d="M202.41,180.58c0,11.37-17.07,11.37-17.07,0s17.07-11.37,17.07,0Z"/>
  <path class="cls-11" d="M31.98,172.05c0,11.37-17.07,11.37-17.07,0s17.07-11.37,17.07,0Z"/>
  <path class="cls-11" d="M55.71,150.44c0,11.37-17.07,11.37-17.07,0s17.07-11.37,17.07,0Z"/>
  <path class="cls-10" d="M55.71,180.58c0,11.37-17.07,11.37-17.07,0s17.07-11.37,17.07,0Z"/>
  <path class="cls-10" d="M49.32,221.51c0,11.37-17.07,11.37-17.07,0s17.07-11.37,17.07,0Z"/>
  <path class="cls-11" d="M67.98,201.65c0,11.37-17.07,11.37-17.07,0s17.07-11.37,17.07,0Z"/>
  <path class="cls-10" d="M27.72,204.44c0,11.37-17.07,11.37-17.07,0s17.07-11.37,17.07,0Z"/>
  <path class="cls-11" d="M269.23,161.96c0,11.37-17.07,11.37-17.07,0s17.07-11.37,17.07,0Z"/>
  <path class="cls-11" d="M405.28,255.29c0,11.37-17.07,11.37-17.07,0s17.07-11.37,17.07,0Z"/>
  <path class="cls-10" d="M394.09,229.47c0,11.37-17.07,11.37-17.07,0s17.07-11.37,17.07,0Z"/>
  <path class="cls-11" d="M431.75,229.47c0,11.37-17.07,11.37-17.07,0s17.07-11.37,17.07,0Z"/>
  <path class="cls-10" d="M384.37,278.09c0,11.37-17.07,11.37-17.07,0s17.07-11.37,17.07,0Z"/>
  <path class="cls-10" d="M377.02,250.55c0,11.37-17.07,11.37-17.07,0s17.07-11.37,17.07,0Z"/>
  <path class="cls-10" d="M433.67,259.08c0,11.37-17.07,11.37-17.07,0s17.07-11.37,17.07,0Z"/>
  <path class="cls-10" d="M411.15,285.82c0,11.37-17.07,11.37-17.07,0s17.07-11.37,17.07,0Z"/>
  <path class="cls-10" d="M433.67,295.16c0,11.37-17.07,11.37-17.07,0s17.07-11.37,17.07,0Z"/>
  <path class="cls-11" d="M454.17,272.37c0,11.37-17.07,11.37-17.07,0s17.07-11.38,17.07,0Z"/>
  <path class="cls-11" d="M219.48,158.98c0,11.37-17.07,11.37-17.07,0s17.07-11.37,17.07,0Z"/>
  <path class="cls-10" d="M250.39,207.68c0,11.37-17.07,11.37-17.07,0s17.07-11.37,17.07,0Z"/>
  <path class="cls-10" d="M293.61,186.49c0,11.37-17.07,11.37-17.07,0s17.07-11.37,17.07,0Z"/>
  <path class="cls-11" d="M283.05,216.22c0,11.37-17.07,11.37-17.07,0s17.07-11.37,17.07,0Z"/>
  <path class="cls-10" d="M265.98,186.49c0,11.37-17.07,11.37-17.07,0s17.07-11.37,17.07,0Z"/>
  <path class="cls-11" d="M231.84,184.71c0,11.37-17.07,11.37-17.07,0s17.07-11.37,17.07,0Z"/>
  <path class="cls-10" d="M197.95,238c0,11.37-17.07,11.37-17.07,0s17.07-11.37,17.07,0Z"/>
  <path class="cls-10" d="M248.92,163.52c0,11.37-17.07,11.37-17.07,0s17.07-11.37,17.07,0Z"/>
  <path class="cls-10" d="M219.48,212.97c0,11.37-17.07,11.37-17.07,0s17.07-11.37,17.07,0Z"/>
  <path class="cls-11" d="M197.33,206.18c0,11.37-17.07,11.37-17.07,0s17.07-11.37,17.07,0Z"/>
  <path class="cls-7" d="M91.9,402.58c-5.06-2.22-.48-8.45-1.81-13.18-1.73-6.14,7.36,4.5,17.23-2.01,11.22-7.41,7.11,9.77,26.67,5.45,19.46-4.3,49.13,10.29,34,9.74-50.94-1.88-66.04,4.4-76.08,0Z"/>
  <path class="cls-1" d="M90.29,405.65c-5.06-2.22,1.33-10.62,0-15.34-1.73-6.14,5.96,6.2,15.8,2.36,12.54-4.87,6.6,8.92,26.15,4.6,19.46-4.3,50.86,5.86,35.74,5.3-50.94-1.86-67.65,7.49-77.7,3.08Z"/>
  <path class="cls-7" d="M219.15,404.62c3.76-.18,8.6-1.83,9.88-6.04,1.75-5.73-7.33-.95-8.17-7.61-.94-7.57-9.28,4.56-16.09-3.08-6.77-7.6-29.77-5.51-22.18-2.13,25.61,11.42,29.09,19.23,36.56,18.87Z"/>
  <path class="cls-1" d="M217.71,406.84c5.6-4.8,10.27-2.66,11.32-7.2,1.3-5.58-8.33-.03-10.75-4.95-3.1-6.25-8.53,4.13-15.33-3.51-6.77-7.61-27.95-8.81-20.35-5.44,25.61,11.42,27.66,21.46,35.12,21.09Z"/>
  <path class="cls-1" d="M212.71,336.96c5.6-4.8,10.59-2.69,11.65-7.24,1.29-5.58-8.71,2.78-11.14-2.13-3.1-6.25-8.85,4.45-15.65-3.2-6.77-7.61-25.7,5.22-17.48,3.92,22.42-3.55,25.15,9.02,32.62,8.65Z"/>
  <path class="cls-7" d="M117.71,339.83c-2.56-2.76-2.22-7.44-2.81-11.81-.77-5.69,3.71,5.13,8.95.93,5.96-4.76,3.46,9.75,13.67,9.04,10.15-.72,25.16,16.85,17.37,13.96-26.29-9.7-32.08-6.64-37.18-12.12Z"/>
  <path class="cls-1" d="M114.89,342.63c-2.57-2.75.69-9.41.1-13.78-.76-5.68,2.94,6.41,8.12,4.58,6.59-2.31,3.23,8.92,13.42,8.19,10.15-.72,26.16,13.22,18.36,10.33-26.3-9.7-34.91-3.84-40-9.32Z"/>
</svg>