<?xml version="1.0" encoding="UTF-8"?>
<svg id="Layer_1" data-name="Layer 1" xmlns="http://www.w3.org/2000/svg" xmlns:xlink="http://www.w3.org/1999/xlink" viewBox="0 0 606.82 512">
  <defs>
    <style>
      .cls-1 {
        fill: #ffebc4;
      }

      .cls-2 {
        fill: url(#linear-gradient);
      }

      .cls-3 {
        fill: #ffe4b3;
      }

      .cls-4 {
        fill: #b36f3f;
      }
    </style>
    <linearGradient id="linear-gradient" x1="251.98" y1="548.62" x2="394.26" y2="75.94" gradientTransform="translate(0 508) scale(1 -1)" gradientUnits="userSpaceOnUse">
      <stop offset="0" stop-color="#b36a36"/>
      <stop offset=".38" stop-color="#cf8d5f"/>
      <stop offset=".43" stop-color="#c78557"/>
      <stop offset=".51" stop-color="#b37040"/>
      <stop offset=".59" stop-color="#995523"/>
      <stop offset=".88" stop-color="#c47b47"/>
    </linearGradient>
  </defs>
  <path class="cls-2" d="M309.41,509.9c73.61-9.33,265.47-90.78,278.41-124.52,13.98-36.45-10-167.56-10-201.07,0-27.94,28.87-39.54,28.87-75.43C611.83,34.28,467.72,0,398.18,0,308.36,0,20.3,27.52.34,164.58l309.07,345.32Z"/>
  <path class="cls-4" d="M173.45,502.54c32.46-.16,155.73,29.06,170.06-14.43,20.98-63.63-6.84-210.25-6.84-239.55,0-37.32,28.85-53.12,28.85-84.38,0-72.69-95.21-103.14-182.75-103.14S0,85.64,0,164.18c0,31.26,28.86,54.7,28.86,84.38s-26.7,145-9.44,224.18c12.98,59.54,114.92,29.96,154.03,29.8Z"/>
  <path class="cls-1" d="M174.02,493.54c30.44-.16,145.97,27.85,159.4-13.86,19.66-60.97-6.41-201.48-6.41-229.56,0-35.75,27.06-50.91,27.06-80.84,0-69.66-89.28-98.86-171.3-98.86S11.47,94.02,11.47,169.28c0,29.93,27.05,52.41,27.05,80.84s-25.03,138.98-8.84,214.85c12.15,57.07,107.69,28.72,144.34,28.57Z"/>
  <path class="cls-3" d="M304.65,233.03c0,11.81-17.11,11.81-17.11,0,0-11.84,17.11-11.84,17.11,0Z"/>
  <path class="cls-3" d="M262.57,393.18c0,11.82-17.13,11.82-17.13,0,0-11.84,17.13-11.84,17.13,0Z"/>
  <path class="cls-3" d="M101.12,365.28c0,11.84-17.11,11.84-17.11,0,0-11.82,17.11-11.82,17.11,0Z"/>
  <path class="cls-3" d="M219.07,209.64c0,11.86-17.12,11.86-17.12,0,0-11.81,17.12-11.81,17.12,0Z"/>
  <path class="cls-3" d="M148.74,148.1c0,11.82-17.11,11.82-17.11,0s17.11-11.84,17.11,0Z"/>
  <path class="cls-3" d="M78,182.14c0,11.84-17.12,11.84-17.12,0,0-11.84,17.12-11.84,17.12,0Z"/>
  <path class="cls-3" d="M179.58,175.03c0,11.84-17.12,11.84-17.12,0s17.12-11.84,17.12,0Z"/>
  <path class="cls-3" d="M157.3,103.52c0,11.84-17.12,11.84-17.12,0s17.12-11.84,17.12,0Z"/>
  <path class="cls-3" d="M72.11,235.02c0,11.83-17.12,11.83-17.12,0s17.12-11.84,17.12,0Z"/>
  <path class="cls-3" d="M50.31,162.08c0,11.84-17.12,11.84-17.12,0,0-11.84,17.12-11.84,17.12,0Z"/>
  <path class="cls-3" d="M268.76,108.57c0,11.84-17.13,11.84-17.13,0,0-11.84,17.13-11.84,17.13,0Z"/>
  <path class="cls-3" d="M231.15,153.19c0,11.84-17.12,11.84-17.12,0s17.12-11.84,17.12,0Z"/>
  <path class="cls-3" d="M125.81,200.11c0,11.84-17.12,11.84-17.12,0s17.12-11.84,17.12,0Z"/>
  <path class="cls-3" d="M171.02,362.47c0,11.83-17.12,11.83-17.12,0s17.12-11.84,17.12,0Z"/>
  <path class="cls-3" d="M179.79,313.88c0,12.09-17.54,12.09-17.54,0s17.54-12.13,17.54,0Z"/>
  <path class="cls-3" d="M106.94,442.15c0,12.09-17.52,12.09-17.52,0s17.52-12.13,17.52,0Z"/>
  <path class="cls-3" d="M241.87,280.04c0,11.84-17.11,11.84-17.11,0s17.11-11.82,17.11,0Z"/>
  <path class="cls-3" d="M254.03,224.14c0,7.84-11.33,7.84-11.33,0,0-7.82,11.33-7.82,11.33,0Z"/>
  <path class="cls-3" d="M251.11,179.13c0,7.84-11.34,7.84-11.34,0,0-7.83,11.34-7.83,11.34,0Z"/>
  <path class="cls-3" d="M185.25,139.22c0,7.84-11.34,7.84-11.34,0,0-7.83,11.34-7.83,11.34,0Z"/>
  <path class="cls-3" d="M165.25,217.16c0,7.84-11.34,7.84-11.34,0,0-7.82,11.34-7.82,11.34,0Z"/>
  <path class="cls-3" d="M109.52,254.95c0,7.84-11.34,7.84-11.34,0s11.34-7.83,11.34,0Z"/>
  <path class="cls-3" d="M201.96,245.17c0,7.84-11.34,7.84-11.34,0s11.34-7.82,11.34,0Z"/>
  <path class="cls-3" d="M216.18,112.39c0,7.84-11.33,7.84-11.33,0s11.33-7.82,11.33,0Z"/>
  <path class="cls-3" d="M284.55,148.83c0,7.84-11.33,7.84-11.33,0s11.33-7.82,11.33,0Z"/>
  <path class="cls-3" d="M333.62,148.83c0,7.84-11.33,7.84-11.33,0,0-7.82,11.33-7.82,11.33,0Z"/>
  <path class="cls-3" d="M236.08,90.4c0,7.84-11.33,7.84-11.33,0s11.33-7.82,11.33,0Z"/>
  <path class="cls-3" d="M260.19,148.84c0,7.84-11.34,7.84-11.34,0s11.34-7.82,11.34,0Z"/>
  <path class="cls-3" d="M118.78,103.51c0,7.84-11.34,7.84-11.34,0s11.34-7.82,11.34,0Z"/>
  <path class="cls-3" d="M103.85,159.06c0,7.84-11.34,7.84-11.34,0s11.34-7.82,11.34,0Z"/>
  <path class="cls-3" d="M98.22,216.84c0,7.84-11.33,7.84-11.33,0,0-7.82,11.33-7.82,11.33,0Z"/>
  <path class="cls-3" d="M69.22,277.04c0,7.84-11.34,7.84-11.34,0s11.34-7.82,11.34,0Z"/>
  <path class="cls-3" d="M124.45,300.16c0,7.83-11.33,7.83-11.33,0s11.33-7.83,11.33,0Z"/>
  <path class="cls-3" d="M57.34,365.27c0,7.85-11.34,7.85-11.34,0,0-7.81,11.34-7.81,11.34,0Z"/>
  <path class="cls-3" d="M223.65,371.15c0,7.85-11.34,7.85-11.34,0s11.34-7.82,11.34,0Z"/>
  <path class="cls-3" d="M207.62,292.38c0,7.83-11.34,7.83-11.34,0s11.34-7.83,11.34,0Z"/>
  <path class="cls-3" d="M273.9,362.47c0,7.84-11.33,7.84-11.33,0s11.33-7.83,11.33,0Z"/>
  <path class="cls-3" d="M224.97,327.5c0,7.84-11.34,7.84-11.34,0s11.34-7.82,11.34,0Z"/>
  <path class="cls-3" d="M201.96,343.79c0,7.84-11.34,7.84-11.34,0s11.34-7.82,11.34,0Z"/>
  <path class="cls-3" d="M238.97,241.88c0,7.84-11.33,7.84-11.33,0s11.33-7.82,11.33,0Z"/>
  <path class="cls-3" d="M148.48,239.29c0,7.84-11.33,7.84-11.33,0s11.33-7.82,11.33,0Z"/>
  <path class="cls-3" d="M262.96,313.87c0,7.85-11.33,7.85-11.33,0s11.33-7.82,11.33,0Z"/>
  <path class="cls-3" d="M293.21,332.04c0,7.85-11.33,7.85-11.33,0s11.33-7.82,11.33,0Z"/>
  <path class="cls-3" d="M120.85,332.04c0,7.85-11.33,7.85-11.33,0,0-7.82,11.33-7.82,11.33,0Z"/>
  <path class="cls-3" d="M176.69,399.7c0,7.83-11.34,7.83-11.34,0s11.34-7.83,11.34,0Z"/>
  <path class="cls-3" d="M138.92,465.35c0,7.83-11.33,7.83-11.33,0s11.33-7.83,11.33,0Z"/>
  <path class="cls-3" d="M289.09,444.79c0,7.85-11.34,7.85-11.34,0,0-7.81,11.34-7.81,11.34,0Z"/>
  <path class="cls-3" d="M268.24,423.42c0,7.85-11.34,7.85-11.34,0,0-7.81,11.34-7.81,11.34,0Z"/>
  <path class="cls-3" d="M313.95,306.03c0,7.84-11.34,7.84-11.34,0,0-7.82,11.34-7.82,11.34,0Z"/>
  <path class="cls-3" d="M326.97,356.58c0,7.85-11.33,7.85-11.33,0s11.33-7.81,11.33,0Z"/>
  <path class="cls-3" d="M329.54,196.89c0,7.84-11.33,7.84-11.33,0s11.33-7.83,11.33,0Z"/>
  <path class="cls-3" d="M305.69,120.87c0,7.84-11.33,7.84-11.33,0,0-7.83,11.33-7.83,11.33,0Z"/>
  <path class="cls-3" d="M188.44,84.53c0,7.84-11.33,7.84-11.33,0s11.33-7.83,11.33,0Z"/>
  <path class="cls-3" d="M140.19,420.21c0,7.84-11.34,7.84-11.34,0s11.34-7.82,11.34,0Z"/>
  <path class="cls-3" d="M66.12,393.16c0,7.85-11.33,7.85-11.33,0,0-7.81,11.33-7.81,11.33,0Z"/>
  <path class="cls-3" d="M112.61,481.47c0,7.85-11.33,7.85-11.33,0s11.33-7.81,11.33,0Z"/>
  <path class="cls-3" d="M179.57,442.13c0,7.85-11.34,7.85-11.34,0,0-7.81,11.34-7.81,11.34,0Z"/>
  <path class="cls-3" d="M176.69,471.22c0,7.85-11.34,7.85-11.34,0,0-7.81,11.34-7.81,11.34,0Z"/>
  <path class="cls-3" d="M236.45,481.47c0,7.84-11.34,7.84-11.34,0,0-7.82,11.34-7.82,11.34,0Z"/>
  <path class="cls-3" d="M245.44,439.95c0,7.85-11.33,7.85-11.33,0s11.33-7.81,11.33,0Z"/>
  <path class="cls-3" d="M311.26,477.09c0,7.84-11.33,7.84-11.33,0,0-7.82,11.33-7.82,11.33,0Z"/>
  <path class="cls-3" d="M323.87,438.92c0,7.84-11.35,7.84-11.35,0,0-7.82,11.35-7.82,11.35,0Z"/>
  <path class="cls-3" d="M296.92,405.57c0,7.85-11.34,7.85-11.34,0,0-7.81,11.34-7.81,11.34,0Z"/>
  <path class="cls-3" d="M137.15,374.16c0,7.83-11.34,7.83-11.34,0s11.34-7.83,11.34,0Z"/>
  <path class="cls-3" d="M80.77,337.91c0,7.84-11.33,7.84-11.33,0s11.33-7.83,11.33,0Z"/>
  <path class="cls-3" d="M87.31,126.76c0,12.1-17.53,12.1-17.53,0s17.53-12.1,17.53,0Z"/>
  <path class="cls-3" d="M219.3,455.34c0,12.13-17.55,12.13-17.55,0s17.55-12.1,17.55,0Z"/>
  <path class="cls-3" d="M273.22,478.25c0,12.14-17.55,12.14-17.55,0s17.55-12.09,17.55,0Z"/>
  <path class="cls-3" d="M326.97,396.47c0,12.14-17.55,12.14-17.55,0s17.55-12.09,17.55,0Z"/>
  <path class="cls-3" d="M215.98,411.12c0,12.13-17.54,12.13-17.54,0,0-12.1,17.54-12.1,17.54,0Z"/>
  <path class="cls-3" d="M109.88,396.47c0,12.14-17.54,12.14-17.54,0,0-12.09,17.54-12.09,17.54,0Z"/>
  <path class="cls-3" d="M54.78,420.2c0,12.14-17.55,12.14-17.55,0,0-12.1,17.55-12.1,17.55,0Z"/>
  <path class="cls-3" d="M72.32,462.12c0,12.14-17.54,12.14-17.54,0s17.54-12.09,17.54,0Z"/>
  <path class="cls-3" d="M81.09,309.23c0,12.14-17.54,12.14-17.54,0s17.54-12.09,17.54,0Z"/>
  <path class="cls-3" d="M159.59,271.16c0,12.14-17.55,12.14-17.55,0,0-12.1,17.55-12.1,17.55,0Z"/>
  <path class="cls-3" d="M290.76,191.01c0,12.14-17.54,12.14-17.54,0s17.54-12.1,17.54,0Z"/>
  <path class="cls-3" d="M290.76,274.37c0,12.13-17.54,12.13-17.54,0s17.54-12.11,17.54,0Z"/>
</svg>