<?xml version="1.0" encoding="UTF-8"?>
<svg id="Layer_1" data-name="Layer 1" xmlns="http://www.w3.org/2000/svg" xmlns:xlink="http://www.w3.org/1999/xlink" viewBox="0 0 567.04 512">
  <defs>
    <style>
      .cls-1 {
        fill: url(#linear-gradient-8);
      }

      .cls-2 {
        fill: url(#linear-gradient-7);
      }

      .cls-3 {
        fill: url(#linear-gradient-5);
      }

      .cls-4 {
        fill: url(#linear-gradient-6);
      }

      .cls-5 {
        fill: url(#linear-gradient-9);
      }

      .cls-6 {
        fill: url(#linear-gradient-4);
      }

      .cls-7 {
        fill: url(#linear-gradient-3);
      }

      .cls-8 {
        fill: url(#linear-gradient-2);
      }

      .cls-9 {
        fill: url(#linear-gradient);
      }

      .cls-10 {
        fill: #e67a00;
      }

      .cls-11 {
        fill: #d67100;
      }
    </style>
    <linearGradient id="linear-gradient" x1="-1688.6" y1="217.74" x2="-1688.6" y2="355.88" gradientTransform="translate(-1190.051 508.1752) rotate(-180)" gradientUnits="userSpaceOnUse">
      <stop offset="0" stop-color="#ed7016"/>
      <stop offset=".1" stop-color="#ef7a1e"/>
      <stop offset=".47" stop-color="#f69a37"/>
      <stop offset=".79" stop-color="#faae46"/>
      <stop offset="1" stop-color="#fcb54c"/>
    </linearGradient>
    <linearGradient id="linear-gradient-2" x1="-1639.87" y1="226.37" x2="-1639.87" y2="439.56" gradientTransform="translate(-1190.051 508.1752) rotate(-180)" gradientUnits="userSpaceOnUse">
      <stop offset="0" stop-color="#ed7016"/>
      <stop offset=".1" stop-color="#ef7a1e"/>
      <stop offset=".47" stop-color="#f69a37"/>
      <stop offset=".79" stop-color="#faae46"/>
      <stop offset="1" stop-color="#fcb54c"/>
    </linearGradient>
    <linearGradient id="linear-gradient-3" x1="-1413.95" y1="85.59" x2="-1413.95" y2="467.81" gradientTransform="translate(-1190.051 508.1752) rotate(-180)" gradientUnits="userSpaceOnUse">
      <stop offset="0" stop-color="#ed7016"/>
      <stop offset=".31" stop-color="#f18224"/>
      <stop offset=".94" stop-color="#fbb048"/>
      <stop offset="1" stop-color="#fcb54c"/>
    </linearGradient>
    <linearGradient id="linear-gradient-4" x1="-1439.49" y1="199.03" x2="-1204.17" y2="199.03" gradientTransform="translate(-1190.051 508.1752) rotate(-180)" gradientUnits="userSpaceOnUse">
      <stop offset="0" stop-color="#e67a00"/>
      <stop offset=".55" stop-color="#e47801"/>
      <stop offset=".75" stop-color="#dd7304"/>
      <stop offset=".89" stop-color="#d2680a"/>
      <stop offset="1" stop-color="#c25b12"/>
    </linearGradient>
    <linearGradient id="linear-gradient-5" x1="-1465.12" y1="292.85" x2="-1465.12" y2="564.58" gradientTransform="translate(-1190.051 508.1752) rotate(-180)" gradientUnits="userSpaceOnUse">
      <stop offset="0" stop-color="#ed7016"/>
      <stop offset=".19" stop-color="#f18325"/>
      <stop offset=".5" stop-color="#f79f3a"/>
      <stop offset=".79" stop-color="#fbaf47"/>
      <stop offset="1" stop-color="#fcb54c"/>
    </linearGradient>
    <linearGradient id="linear-gradient-6" x1="-1366.81" y1="219.76" x2="-1366.81" y2="476.42" gradientTransform="translate(-1190.051 508.1752) rotate(-180)" gradientUnits="userSpaceOnUse">
      <stop offset="0" stop-color="#ed7016"/>
      <stop offset="1" stop-color="#fcb54c"/>
    </linearGradient>
    <linearGradient id="linear-gradient-7" x1="-1380.97" y1="-3.82" x2="-1380.97" y2="272.95" gradientTransform="translate(-1190.051 508.1752) rotate(-180)" gradientUnits="userSpaceOnUse">
      <stop offset="0" stop-color="#ed7016"/>
      <stop offset=".1" stop-color="#ef7a1e"/>
      <stop offset=".47" stop-color="#f69a37"/>
      <stop offset=".79" stop-color="#faae46"/>
      <stop offset="1" stop-color="#fcb54c"/>
    </linearGradient>
    <linearGradient id="linear-gradient-8" x1="-1547.81" y1="339.11" x2="-1190.07" y2="339.11" gradientTransform="translate(-1190.051 508.1752) rotate(-180)" gradientUnits="userSpaceOnUse">
      <stop offset="0" stop-color="#c25b12"/>
      <stop offset=".11" stop-color="#cc640d"/>
      <stop offset=".32" stop-color="#db7006"/>
      <stop offset=".58" stop-color="#e37801"/>
      <stop offset="1" stop-color="#e67a00"/>
    </linearGradient>
    <linearGradient id="linear-gradient-9" x1="-1642.82" y1="227.16" x2="-1642.82" y2="408.22" gradientTransform="translate(-1190.051 508.1752) rotate(-180)" gradientUnits="userSpaceOnUse">
      <stop offset="0" stop-color="#c25b12"/>
      <stop offset=".11" stop-color="#cc640d"/>
      <stop offset=".32" stop-color="#db7006"/>
      <stop offset=".58" stop-color="#e37801"/>
      <stop offset="1" stop-color="#e67a00"/>
    </linearGradient>
  </defs>
  <path class="cls-9" d="M528.2,152.3s50.76,79.32,26.72,118.77c-9.59,15.74-65.48,31.85-109.82,4.92-44.34-26.92,83.11-123.7,83.11-123.7Z"/>
  <path class="cls-8" d="M421.71,68.61c52.41,29.75,58.61,17.2,70.95,30.13,12.06,12.65,21.96,27.69,35.54,53.55,9.94,48.88-24.22,107.11-62.49,127.17-18.49,9.71-31.55-14.86-74.83,1.31s-13.78-186.29,30.83-212.16Z"/>
  <path class="cls-7" d="M305.17,331.8s-10.73-19.64,85.7-51.02c54.69-17.78,94.06-228.84-13.82-240.07C317.45,34.5,27.03,115.48,9.14,191c-17.89,75.55-.35,181.27,61.39,231.58l234.64-90.78Z"/>
  <path class="cls-6" d="M14.12,331.79c0-112.42,78.59-134.42,78.59-134.42-53.94,37.54-50.18,97.07-50.18,97.07,34.29-102.96,147.65-115.97,206.91-81.83-166.79-35.3-212.14,113.18-178.9,209.98-27.03-22.04-45.59-54.69-56.42-90.79Z"/>
  <path class="cls-3" d="M146.86,40.36s41.83-62.42,171.05-28.7c38.9,10.16,108.26,74.74,77.91,190.53-6.79,25.88-45.02,39.13-67.22-13.92-22.21-53.05-117.22-118.43-181.73-147.91Z"/>
  <path class="cls-4" d="M250.07,46c145.5,71.12,100.72,242.42,82.22,242.42-14.8,0-27.01-128.59-185.62-128.59-67.01,0-129.82,42.87-144.16,105.85,0,0-37.76-233.91,179.72-233.91,30.42,0,54.9,7.91,67.84,14.24Z"/>
  <path class="cls-2" d="M302.99,410.14h-.02c16.43,12.76,34.86,33.17,34.86,60.8,0,30.81-38.94,43.53-80.02,40.66h0c-27.9,1.78-150.79-14.22-190.14-83.31-126.56-222.29,298.56-283.35,235.31-18.15Z"/>
  <path class="cls-10" d="M223.65,426.51c22.09-42.73,61.59-41.3,83.36-36.58-1.03,6.5-2.36,13.23-4.04,20.21,0,0-45.16,12.78-45.16,101.46-16.32-100.69,32.32-106.92,26.95-112.57-3.76-3.93-71.48,6.3-58.56,110.62-13.84-20.75-19.28-50.83-2.56-83.14Z"/>
  <path class="cls-10" d="M67.68,340.67c21.68-118.92,237.47-144.17,242,11.44-50.48-98.74-183.99-64.38-208.79,4.99,0,0,20.35-95.84,155.5-84.81,0,0-113.64-58.87-188.71,68.37Z"/>
  <path class="cls-10" d="M196.11,8.87c158.93-40.56,226.26,65.76,205.93,160.19C388.42,47.46,298.86,12.45,208.27,20.29c0,0,115.48-35.73,179.56,69.4,0,0-25.1-105.73-191.71-80.82Z"/>
  <path class="cls-1" d="M2.52,265.66S-24.87,95.77,101.66,45.58C10.01,103.87,11.99,200.13,11.99,200.13c80.74-93.41,201.3-45.93,201.3-45.93-36.82-34.92-112.13-24.48-112.13-24.48,124.55-42.91,204.13,72.9,204.13,72.9,0,0-20.21-41.1-55.82-65.99-99.76-69.76-208.76-4.98-208.76-4.98,30.02-34.87,73.41-53.55,122.08-46.08,138.29,21.21,178.27,178.45,178.27,178.45,17.55-27.27,6.14-81.87,2.21-115.16,31.75,82.17,3.19,143.69-8.66,143.69-14.8,0-29.33-132.72-187.92-132.72-67.01,0-129.83,42.86-144.16,105.84Z"/>
  <path class="cls-5" d="M451.25,278.55c-16.49,8.66-21.06-8.91-52.26-.44,17.76-5.71,82.13-37.35,55.2-159.4,22.8,32.5,27.53,98.74,3.8,134.01,49.5-40.8,36.7-114.27,28.43-152.75,46.47,86.53,3.1,158.53-35.17,178.59Z"/>
  <path class="cls-10" d="M554.91,271.07c-6.77,10.2-33.28,21.09-63.62,19.1,82.2-16.84,59.17-83.48,59.17-83.48-4.29,55.59-54.6,61.92-54.6,61.92,51.86-33.41,43.26-96.93,43.26-96.93,0,0,50.37,47.28,15.78,99.39Z"/>
  <path class="cls-10" d="M141.04,453.3s-37.52-58.35-9.25-102.02c34.16-52.79,128.37-48.76,153.49,5.05,0,0-35.83-39.75-97.44-21.22-81.7,24.59-46.8,118.19-46.8,118.19Z"/>
  <path class="cls-11" d="M153.14,33.26c33.36-13.61,139.3-1.51,178.23,88.36,0,0-62.56-89.87-178.23-88.36Z"/>
  <path class="cls-10" d="M416.99,58.76c23.44,18.56,55.6,96.5-13.71,178.35,0,0,61.9-90.96,13.71-178.35Z"/>
  <path class="cls-11" d="M113.76,51.89c161.3-2.66,219.35,132.94,219.35,132.94C301.36,55.43,154.66,37.27,113.76,51.89Z"/>
</svg>