<?xml version="1.0" encoding="UTF-8"?>
<svg id="Layer_1" data-name="Layer 1" xmlns="http://www.w3.org/2000/svg" xmlns:xlink="http://www.w3.org/1999/xlink" viewBox="0 0 512 512">
  <defs>
    <style>
      .cls-1 {
        fill: url(#radial-gradient-4);
      }

      .cls-2 {
        fill: url(#radial-gradient-3);
      }

      .cls-3 {
        fill: url(#radial-gradient-2);
      }

      .cls-4 {
        fill: url(#linear-gradient-2);
      }

      .cls-5 {
        fill: url(#radial-gradient);
      }

      .cls-6 {
        fill: url(#linear-gradient);
      }

      .cls-7 {
        fill: #e89927;
      }

      .cls-8 {
        fill: #faad3c;
      }

      .cls-9 {
        fill: #f44336;
      }

      .cls-10 {
        fill: #e89a29;
      }
    </style>
    <linearGradient id="linear-gradient" x1="85.99" y1="87.02" x2="190.53" y2="179.82" gradientTransform="translate(0 514) scale(1 -1)" gradientUnits="userSpaceOnUse">
      <stop offset="0" stop-color="#e01b26"/>
      <stop offset=".04" stop-color="#e3252b"/>
      <stop offset=".24" stop-color="#ed4a3c"/>
      <stop offset=".43" stop-color="#f5674a"/>
      <stop offset=".63" stop-color="#fa7b54"/>
      <stop offset=".82" stop-color="#fe885a"/>
      <stop offset="1" stop-color="#ff8c5c"/>
    </linearGradient>
    <linearGradient id="linear-gradient-2" x1="8.14" y1="303.08" x2="116.94" y2="337.21" gradientTransform="translate(0 514) scale(1 -1)" gradientUnits="userSpaceOnUse">
      <stop offset="0" stop-color="#e01b26"/>
      <stop offset=".04" stop-color="#e3252b"/>
      <stop offset=".24" stop-color="#ed4a3c"/>
      <stop offset=".43" stop-color="#f5674a"/>
      <stop offset=".63" stop-color="#fa7b54"/>
      <stop offset=".82" stop-color="#fe885a"/>
      <stop offset="1" stop-color="#ff8c5c"/>
    </linearGradient>
    <radialGradient id="radial-gradient" cx="435.54" cy="378.67" fx="435.54" fy="378.67" r="168.65" gradientTransform="translate(-39.49 507.08) scale(.94 -.97)" gradientUnits="userSpaceOnUse">
      <stop offset="0" stop-color="#ffbe5c"/>
      <stop offset=".37" stop-color="#fdbb5a"/>
      <stop offset=".6" stop-color="#f7b353"/>
      <stop offset=".79" stop-color="#eda447"/>
      <stop offset=".96" stop-color="#de9036"/>
      <stop offset="1" stop-color="#d98930"/>
    </radialGradient>
    <radialGradient id="radial-gradient-2" cx="491.21" cy="178.81" fx="491.21" fy="178.81" r="187.91" gradientTransform="translate(-39.49 507.08) scale(.94 -.97)" gradientUnits="userSpaceOnUse">
      <stop offset="0" stop-color="#ffbe5c"/>
      <stop offset=".37" stop-color="#fdbb5a"/>
      <stop offset=".6" stop-color="#f7b353"/>
      <stop offset=".79" stop-color="#eda447"/>
      <stop offset=".96" stop-color="#de9036"/>
      <stop offset="1" stop-color="#d98930"/>
    </radialGradient>
    <radialGradient id="radial-gradient-3" cx="328.99" cy="72.66" fx="328.99" fy="72.66" r="115.67" gradientTransform="translate(-39.49 507.08) scale(.94 -.97)" gradientUnits="userSpaceOnUse">
      <stop offset="0" stop-color="#ffbe5c"/>
      <stop offset=".37" stop-color="#fdbb5a"/>
      <stop offset=".6" stop-color="#f7b353"/>
      <stop offset=".79" stop-color="#eda447"/>
      <stop offset=".96" stop-color="#de9036"/>
      <stop offset="1" stop-color="#d98930"/>
    </radialGradient>
    <radialGradient id="radial-gradient-4" cx="329.13" cy="448.99" fx="329.13" fy="448.99" r="135.28" gradientTransform="translate(-39.49 507.08) scale(.94 -.97)" gradientUnits="userSpaceOnUse">
      <stop offset="0" stop-color="#ffbe5c"/>
      <stop offset=".37" stop-color="#fdbb5a"/>
      <stop offset=".6" stop-color="#f7b353"/>
      <stop offset=".79" stop-color="#eda447"/>
      <stop offset=".96" stop-color="#de9036"/>
      <stop offset="1" stop-color="#d98930"/>
    </radialGradient>
  </defs>
  <path class="cls-9" d="M23.72,83.18c-50.34,30.69-9.45,226,20.7,225.57,132.5-1.91,20.94-250.93-20.7-225.57Z"/>
  <path class="cls-6" d="M236.77,342.7c-12.2-25.11-89.04,30.28-128.17-60.6-6.02-13.99-75.72-2.13-72.1,23.79,21.18,151.66,135.84,197.86,168.04,187.39,32.19-10.46,49.74-114.53,32.24-150.58Z"/>
  <path class="cls-4" d="M48.98,82.19c-53.4,25.03-34.08,223.65-4.08,226.47,131.95,12.48,48.23-247.18,4.08-226.47Z"/>
  <path class="cls-5" d="M504.87,223.73c-37.28,1.16-116.55,3.6-173.03,52.43-94.53-147.88-.07-133.28-28.5-261.11,32.77-27.78,225.54,52.99,201.54,208.68Z"/>
  <path class="cls-3" d="M333.75,487.98c-1.14-38.37,17.14-108.39-30.31-166.53,20.97-71.39,84.52-117.49,201.43-97.72,36.25,127.67-72.52,268.39-171.12,264.26Z"/>
  <path class="cls-2" d="M333.75,487.98c-21.71,38.01-142.18,22.85-136.71,9,8.12-20.5,33.13-46.25,13-78.49-25.42-40.7,20.68-37.94,6.88-80.43-6.02-18.56,56.14-21.75,86.52-16.61,40.67,32.57,43.86,111.59,30.31,166.53Z"/>
  <path class="cls-1" d="M297.74,186.76c-31.37,40.32-122.41,5.08-138.53-44.95C128.22,45.63,169.08-23.9,299.3,7.73c53.17,12.91,32.82,134.83-1.56,179.03Z"/>
  <path class="cls-8" d="M300.49,60.93c0,20.54-12.99-12.02-56.81,0,9.45-28.3,45.13-32.19,56.81,0Z"/>
  <path class="cls-7" d="M201.01,111.79c14.71-14.4.49,17.66,39.8,40.4-26.92,13.09-54.66-9.54-39.8-40.4Z"/>
  <path class="cls-8" d="M443.14,202.65c-20.53,18.98,0-24-52.47-56.4,37.02-16.75,73.84,15.06,52.47,56.4Z"/>
  <path class="cls-8" d="M412.48,398.66c-25.87,10.68,8.37-22.5-29.56-71.05,40.57-2.89,64,39.68,29.56,71.05Z"/>
  <path class="cls-8" d="M425.2,108.27c-11.79,13.61-1.7-15.38-37.65-32.38,22.53-13.37,48.38,4.38,37.65,32.38Z"/>
  <path class="cls-10" d="M324.51,179.13c7.34-16.43,6.11,14.23,45.47,20.13-17.69,19.3-47.59,9.78-45.47-20.13Z"/>
  <path class="cls-8" d="M464.23,314.61c-17.47,4.45,7.42-13.59-12.3-48.02,26.15,1.86,37.16,31.16,12.3,48.02Z"/>
  <path class="cls-8" d="M274.81,475.67c-11.78-13.62,15.5.58,37.7-32.34,9.91,24.19-11.51,47.04-37.7,32.34Z"/>
  <path class="cls-8" d="M237.32,380.47c1.08-17.94,10.7,11.2,49.64,3.02-9.8,24.24-41.15,25.72-49.64-3.02Z"/>
  <path class="cls-9" d="M74.96,274.81c-5.35,16.94,13.83-101.05-13.06-158.88-10.9-23.38,50.79,39.52,13.06,158.88Z"/>
  <path class="cls-9" d="M131.63,328.26c11.5-.62-55.73,15.95-62.87,48.73-2.89,13.26-18.15-44.4,62.87-48.73Z"/>
  <path class="cls-9" d="M176.75,351.34c13.67-5.16-61.29,40.7-57.26,83.1,1.63,17.16-39.13-46.77,57.26-83.1Z"/>
  <path class="cls-9" d="M56.41,268.32c-4.64,14.72,12.01-87.76-11.34-137.99-9.46-20.33,44.11,34.32,11.34,137.99Z"/>
</svg>