<?xml version="1.0" encoding="UTF-8"?>
<svg id="Layer_1" data-name="Layer 1" xmlns="http://www.w3.org/2000/svg" xmlns:xlink="http://www.w3.org/1999/xlink" viewBox="0 0 512 512">
  <defs>
    <style>
      .cls-1 {
        fill: url(#radial-gradient-6);
      }

      .cls-2 {
        fill: url(#radial-gradient-5);
      }

      .cls-3 {
        fill: url(#radial-gradient-4);
      }

      .cls-4 {
        fill: url(#radial-gradient-3);
      }

      .cls-5 {
        fill: url(#radial-gradient-2);
      }

      .cls-6 {
        fill: url(#linear-gradient-8);
      }

      .cls-7 {
        fill: url(#linear-gradient-7);
      }

      .cls-8 {
        fill: url(#linear-gradient-5);
      }

      .cls-9 {
        fill: url(#linear-gradient-6);
      }

      .cls-10 {
        fill: url(#linear-gradient-9);
      }

      .cls-11 {
        fill: url(#linear-gradient-4);
      }

      .cls-12 {
        fill: url(#linear-gradient-3);
      }

      .cls-13 {
        fill: url(#linear-gradient-2);
      }

      .cls-14 {
        fill: url(#radial-gradient);
      }

      .cls-15 {
        fill: url(#linear-gradient);
      }

      .cls-16 {
        fill: url(#linear-gradient-10);
      }

      .cls-17 {
        fill: url(#linear-gradient-11);
      }

      .cls-18 {
        fill: #b50100;
      }
    </style>
    <linearGradient id="linear-gradient" x1="-385.35" y1="1584.17" x2="-385.35" y2="1331.85" gradientTransform="translate(-493.3573 -1038.4755) rotate(-45)" gradientUnits="userSpaceOnUse">
      <stop offset="0" stop-color="#b50100"/>
      <stop offset=".2" stop-color="#b90505"/>
      <stop offset=".42" stop-color="#c61213"/>
      <stop offset=".67" stop-color="#da272b"/>
      <stop offset=".93" stop-color="#f6444c"/>
      <stop offset="1" stop-color="#ff4d56"/>
    </linearGradient>
    <linearGradient id="linear-gradient-2" x1="924.66" y1="743.59" x2="693.07" y2="743.59" gradientTransform="translate(218.4 -845.82) rotate(45) scale(1.01)" gradientUnits="userSpaceOnUse">
      <stop offset=".1" stop-color="#b50100"/>
      <stop offset=".25" stop-color="#ce1a1d"/>
      <stop offset=".42" stop-color="#e33136"/>
      <stop offset=".6" stop-color="#f34048"/>
      <stop offset=".79" stop-color="#fc4a53"/>
      <stop offset="1" stop-color="#ff4d56"/>
    </linearGradient>
    <radialGradient id="radial-gradient" cx="-393.36" cy="1364.36" fx="-393.36" fy="1364.36" r="111.89" gradientTransform="translate(-497.0643 -1117.4683) rotate(-44.9818) scale(1.1133) skewX(.0364)" gradientUnits="userSpaceOnUse">
      <stop offset=".58" stop-color="#ff85fb"/>
      <stop offset="1" stop-color="#ff85fb" stop-opacity="0"/>
      <stop offset="1" stop-color="#ff85fb" stop-opacity="0"/>
    </radialGradient>
    <radialGradient id="radial-gradient-2" cx="-393.39" cy="1364.36" fx="-393.39" fy="1364.36" r="111.88" gradientTransform="translate(-497.0643 -1117.4683) rotate(-44.9818) scale(1.1133) skewX(.0364)" gradientUnits="userSpaceOnUse">
      <stop offset=".58" stop-color="#ff85fb"/>
      <stop offset="1" stop-color="#ff85fb" stop-opacity="0"/>
      <stop offset="1" stop-color="#ff85fb" stop-opacity="0"/>
    </radialGradient>
    <radialGradient id="radial-gradient-3" cx="-393.41" cy="1364.35" fx="-393.41" fy="1364.35" r="111.88" gradientTransform="translate(-497.0643 -1117.4683) rotate(-44.9818) scale(1.1133) skewX(.0364)" gradientUnits="userSpaceOnUse">
      <stop offset=".58" stop-color="#ff85fb"/>
      <stop offset="1" stop-color="#ff85fb" stop-opacity="0"/>
      <stop offset="1" stop-color="#ff85fb" stop-opacity="0"/>
    </radialGradient>
    <radialGradient id="radial-gradient-4" cx="-393.39" cy="1364.36" fx="-393.39" fy="1364.36" r="111.87" gradientTransform="translate(-497.0643 -1117.4683) rotate(-44.9818) scale(1.1133) skewX(.0364)" gradientUnits="userSpaceOnUse">
      <stop offset=".58" stop-color="#ff85fb"/>
      <stop offset="1" stop-color="#ff85fb" stop-opacity="0"/>
      <stop offset="1" stop-color="#ff85fb" stop-opacity="0"/>
    </radialGradient>
    <radialGradient id="radial-gradient-5" cx="-393.4" cy="1364.36" fx="-393.4" fy="1364.36" r="111.88" gradientTransform="translate(-497.0643 -1117.4683) rotate(-44.9818) scale(1.1133) skewX(.0364)" gradientUnits="userSpaceOnUse">
      <stop offset=".58" stop-color="#ff85fb"/>
      <stop offset="1" stop-color="#ff85fb" stop-opacity="0"/>
      <stop offset="1" stop-color="#ff85fb" stop-opacity="0"/>
    </radialGradient>
    <radialGradient id="radial-gradient-6" cx="-393.48" cy="1364.36" fx="-393.48" fy="1364.36" r="111.94" gradientTransform="translate(-497.0643 -1117.4683) rotate(-44.9818) scale(1.1133) skewX(.0364)" gradientUnits="userSpaceOnUse">
      <stop offset=".58" stop-color="#ff85fb"/>
      <stop offset="1" stop-color="#ff85fb" stop-opacity="0"/>
      <stop offset="1" stop-color="#ff85fb" stop-opacity="0"/>
    </radialGradient>
    <linearGradient id="linear-gradient-3" x1="-216.75" y1="1378.41" x2="-153.85" y2="1479.73" gradientTransform="translate(-493.3573 -1038.4755) rotate(-45)" gradientUnits="userSpaceOnUse">
      <stop offset=".1" stop-color="#b50100"/>
      <stop offset=".25" stop-color="#ce1a1d"/>
      <stop offset=".42" stop-color="#e33136"/>
      <stop offset=".6" stop-color="#f34048"/>
      <stop offset=".79" stop-color="#fc4a53"/>
      <stop offset="1" stop-color="#ff4d56"/>
    </linearGradient>
    <linearGradient id="linear-gradient-4" x1="-213" y1="1443.24" x2="-136.72" y2="1558.49" gradientTransform="translate(-493.3573 -1038.4755) rotate(-45)" gradientUnits="userSpaceOnUse">
      <stop offset=".1" stop-color="#b50100"/>
      <stop offset=".25" stop-color="#ce1a1d"/>
      <stop offset=".42" stop-color="#e33136"/>
      <stop offset=".6" stop-color="#f34048"/>
      <stop offset=".79" stop-color="#fc4a53"/>
      <stop offset="1" stop-color="#ff4d56"/>
    </linearGradient>
    <linearGradient id="linear-gradient-5" x1="-209.52" y1="1373.65" x2="-183.91" y2="1451.19" gradientTransform="translate(-493.3573 -1038.4755) rotate(-45)" gradientUnits="userSpaceOnUse">
      <stop offset=".1" stop-color="#b50100"/>
      <stop offset=".15" stop-color="#b50100"/>
      <stop offset="1" stop-color="#b50100"/>
    </linearGradient>
    <linearGradient id="linear-gradient-6" x1="-146.26" y1="1343.09" x2="-239.38" y2="1433.24" gradientTransform="translate(-493.3573 -1038.4755) rotate(-45)" gradientUnits="userSpaceOnUse">
      <stop offset="0" stop-color="#ff8585"/>
      <stop offset=".2" stop-color="#ff8383"/>
      <stop offset=".27" stop-color="#ff7c7e"/>
      <stop offset=".32" stop-color="#ff7174"/>
      <stop offset=".36" stop-color="#ff6066"/>
      <stop offset=".39" stop-color="#ff4d56"/>
    </linearGradient>
    <linearGradient id="linear-gradient-7" x1="83.75" y1="1378.28" x2="146.64" y2="1479.57" gradientTransform="translate(-825.84 -706) rotate(135) scale(1 -1)" gradientUnits="userSpaceOnUse">
      <stop offset=".1" stop-color="#b50100"/>
      <stop offset=".25" stop-color="#ce1a1d"/>
      <stop offset=".42" stop-color="#e33136"/>
      <stop offset=".6" stop-color="#f34048"/>
      <stop offset=".79" stop-color="#fc4a53"/>
      <stop offset="1" stop-color="#ff4d56"/>
    </linearGradient>
    <linearGradient id="linear-gradient-8" x1="80.18" y1="1447.41" x2="145.27" y2="1545.76" gradientTransform="translate(-825.84 -706) rotate(135) scale(1 -1)" gradientUnits="userSpaceOnUse">
      <stop offset=".1" stop-color="#b50100"/>
      <stop offset=".25" stop-color="#ce1a1d"/>
      <stop offset=".42" stop-color="#e33136"/>
      <stop offset=".6" stop-color="#f34048"/>
      <stop offset=".79" stop-color="#fc4a53"/>
      <stop offset="1" stop-color="#ff4d56"/>
    </linearGradient>
    <linearGradient id="linear-gradient-9" x1="-583.7" y1="1585.48" x2="-583.7" y2="1503.53" gradientTransform="translate(-493.3573 -1038.4755) rotate(-45)" gradientUnits="userSpaceOnUse">
      <stop offset="0" stop-color="#ff4d56"/>
      <stop offset=".18" stop-color="#f6444c"/>
      <stop offset=".47" stop-color="#df2d31"/>
      <stop offset=".85" stop-color="#ba0606"/>
      <stop offset=".9" stop-color="#b50100"/>
    </linearGradient>
    <linearGradient id="linear-gradient-10" x1="94.53" y1="1390.02" x2="115.51" y2="1453.56" gradientTransform="translate(-825.84 -706) rotate(135) scale(1 -1)" gradientUnits="userSpaceOnUse">
      <stop offset=".1" stop-color="#b50100"/>
      <stop offset=".15" stop-color="#b50100"/>
      <stop offset="1" stop-color="#b50100"/>
    </linearGradient>
    <linearGradient id="linear-gradient-11" x1="169.65" y1="1365.21" x2="57.47" y2="1430.3" gradientTransform="translate(-825.84 -706) rotate(135) scale(1 -1)" gradientUnits="userSpaceOnUse">
      <stop offset="0" stop-color="#ff8585"/>
      <stop offset=".2" stop-color="#ff8383"/>
      <stop offset=".27" stop-color="#ff7c7e"/>
      <stop offset=".32" stop-color="#ff7174"/>
      <stop offset=".36" stop-color="#ff6066"/>
      <stop offset=".39" stop-color="#ff4d56"/>
    </linearGradient>
  </defs>
  <path class="cls-15" d="M357.16,172.99c49.29,49.24,48.06,130.34-2.8,181.14-50.82,50.81-131.98,52.04-181.26,2.81-49.29-49.25-48.04-130.34,2.78-181.15,50.83-50.8,131.99-52.06,181.28-2.8Z"/>
  <path class="cls-13" d="M350.58,179.54c45.78,45.74,44.62,121.06-2.59,168.24-47.19,47.17-122.58,48.31-168.35,2.61-45.76-45.74-44.61-121.07,2.59-168.25,47.22-47.16,122.6-48.34,168.35-2.6Z"/>
  <path class="cls-14" d="M289.1,386.87c5.96-1.34,11.86-3.16,17.62-5.37l-158.25-158.13c-2.2,5.78-4.05,11.65-5.38,17.61l146.01,145.89Z"/>
  <path class="cls-5" d="M322.84,374.11c4.03-2.22,7.97-4.71,11.79-7.41l-171.33-171.21c-2.68,3.83-5.18,7.74-7.42,11.78l166.96,166.85Z"/>
  <path class="cls-4" d="M366.93,334.42c2.69-3.83,5.18-7.74,7.42-11.79l-166.97-166.85c-4.05,2.23-7.96,4.74-11.79,7.41l171.33,171.23Z"/>
  <path class="cls-3" d="M237.26,387.64l-94.92-94.85c4.46,22.83,15.37,44.47,32.89,61.99,17.53,17.5,39.18,28.38,62.03,32.86Z"/>
  <path class="cls-2" d="M381.76,306.55c2.21-5.78,4.02-11.67,5.37-17.62l-146-145.92c-5.95,1.35-11.83,3.17-17.62,5.38l158.25,158.15Z"/>
  <path class="cls-1" d="M292.97,142.26l94.95,94.89c-4.48-22.83-15.4-44.5-32.91-62.02-17.52-17.51-39.19-28.4-62.04-32.86Z"/>
  <path class="cls-18" d="M344.5,145.59c9.37,33.78,41.78,77.49,31.3,108.1,16.4-29.39-2.45-54.3-2.45-54.3-9.98-36.47-25.43-49.48-28.85-53.81Z"/>
  <path class="cls-18" d="M339.53,125.74c5.18,40.34,10.22,48.25-5.41,93.96,27.27-47.33,38.78-48.4,5.41-93.96Z"/>
  <path class="cls-12" d="M373.34,188.98c10.5-11.48,34.62,12.62,64.83,21.24,9.21,2.62,67.33-8.8,69.94-12.46-14.23-24.2-13.74-70.34-60.5-115.69-7.08-9.05-41.14-57.45-95.86-82.05-2.66-1.2-9.26,56.86-8.47,61.98.79,5.11,27.61,129.64,30.06,126.97Z"/>
  <path class="cls-11" d="M373.34,188.98c10.5-11.48,34.62,12.62,64.83,21.24,9.21,2.62,67.33-8.8,69.94-12.46-14.23-24.2-13.74-70.34-60.5-115.69-14.49,46.73-81.94,78.81-81.14,83.92.79,5.12,4.42,25.66,6.86,22.99Z"/>
  <path class="cls-18" d="M508.69,191.14c-19.32,11.34-32.28,16.02-68.82,19.37,38.45,3.91,57.06.4,72.12-11.95-1.38-2.38-3.3-7.42-3.3-7.42Z"/>
  <path class="cls-18" d="M340.56,156.39c1.09-4.17-5.46-44.13-12.73-65.17,0,0,10.89,57.06,7.08,61.54-4.87,5.74-25.79-9.22-54.22-9.9,33.82,5.5,57.66,22.04,59.86,13.53Z"/>
  <path class="cls-18" d="M344.87,163.14c2.05-8.38-6.46-43.75-13.74-64.82,0,0,10.88,57.08,7.07,61.58-4.86,5.72-28.47-6.36-63.34-1.81,38.08.62,67.92,13.58,70,5.05Z"/>
  <path class="cls-8" d="M378.83,187.82c-12.02-43.87-21.67-80.44-32.88-124.51-.63-2.46,6.08-43.03,9.59-57.47,0,0-9.4,13.97-15.3,59.23,4.98,47.34,3.04,55.17,32.98,124.61,2.04,4.76,6.57,1.63,5.62-1.86Z"/>
  <path class="cls-9" d="M377.54,196.38c-24.46-51.62-16.52-42.3-30.29-83.18-.26-.82-5.53-44.71-5.35-48.65.51-11.09,7.54-40.35,13.63-58.72l-4.86-4.74s-15.66,33.36-25.98,54.5c-1.5,22.34,6.43,64.55,8.8,71.38,2.46,7.01,27.59,51.38,39.86,72.42,0,0,5.08-1.14,4.19-3Z"/>
  <path class="cls-18" d="M145.66,344.28c33.81,9.37,77.54,41.76,108.17,31.27-29.41,16.4-54.32-2.44-54.32-2.44-36.49-9.98-49.5-25.41-53.85-28.83Z"/>
  <path class="cls-18" d="M125.81,339.33c40.37,5.17,48.29,10.22,94.02-5.43-47.35,27.26-48.44,38.78-94.02,5.43Z"/>
  <path class="cls-7" d="M189.07,373.12c-11.48,10.49,12.64,34.58,21.27,64.81,2.62,9.19-8.81,67.27-12.47,69.89-24.22-14.22-47.26-12.64-92.64-59.38-9.06-7.09-80.61-42.2-105.21-96.9-1.21-2.66,56.89-9.25,62.01-8.46,5.13.78,129.73,27.59,127.05,30.04Z"/>
  <path class="cls-6" d="M189.07,373.12c-4.09,8.33,4.53,27.76,4.53,27.76,28.22,40.5-31.78,90.74-35.45,93.36-24.21-14.22-43.74-31.7-52.91-45.81,46.76-14.47,55.73-82.97,60.86-82.18,5.12.8,24.58,3.61,22.98,6.86Z"/>
  <path class="cls-10" d="M145.04,498.45c11.34-19.3,70.48-51.95,48.55-97.58,38.65,50.55,16.93,45.95,5.06,110.82-23.5,2.7-53.62-13.24-53.62-13.24Z"/>
  <path class="cls-18" d="M156.5,340.36c-4.18,1.08-44.17-5.46-65.23-12.73,0,0,57.12,10.87,61.62,7.07,5.72-4.86-9.24-25.77-9.94-54.2,5.52,33.85,22.06,57.65,13.55,59.86Z"/>
  <path class="cls-18" d="M163.25,344.67c-8.38,2.04-43.78-6.47-64.83-13.74,0,0,57.1,10.89,61.6,7.07,5.73-4.85-6.37-28.43-1.8-63.3.59,38.05,13.56,67.88,5.03,69.97Z"/>
  <path class="cls-16" d="M187.93,378.58c-43.9-12-75.2-6.7-119.29-17.91-2.46-.62-36.12,7.34-50.57,10.85,0,0,7.02-10.65,52.34-16.54,47.38,4.95,49.91-11.91,119.41,17.99,4.75,2.06,1.61,6.58-1.89,5.61Z"/>
  <path class="cls-17" d="M196.5,377.3c-51.65-24.44-71.94-18.56-81.78-20.12-.85-.14-40.9-.7-44.83-.54-11.1.54-33.44,8.8-51.82,14.88l-16.96-21.08s33.37-15.65,54.54-25.98c22.35-1.49,64.58,6.43,71.42,8.8,6.99,2.45,51.42,27.58,72.46,39.85,0,0-1.14,5.07-3.02,4.19Z"/>
</svg>