<?xml version="1.0" encoding="UTF-8"?>
<svg id="Layer_1" data-name="Layer 1" xmlns="http://www.w3.org/2000/svg" xmlns:xlink="http://www.w3.org/1999/xlink" viewBox="0 0 512.01 512">
  <defs>
    <style>
      .cls-1 {
        fill: url(#radial-gradient-7);
      }

      .cls-2 {
        fill: url(#radial-gradient-6);
      }

      .cls-3 {
        fill: url(#radial-gradient-5);
      }

      .cls-4 {
        fill: url(#radial-gradient-4);
      }

      .cls-5 {
        fill: url(#radial-gradient-9);
      }

      .cls-6 {
        fill: url(#radial-gradient-8);
      }

      .cls-7 {
        fill: url(#radial-gradient-3);
      }

      .cls-8 {
        fill: url(#radial-gradient-2);
      }

      .cls-9 {
        fill: url(#linear-gradient-8);
      }

      .cls-10 {
        fill: url(#linear-gradient-7);
      }

      .cls-11 {
        fill: url(#linear-gradient-5);
      }

      .cls-12 {
        fill: url(#linear-gradient-6);
      }

      .cls-13 {
        fill: url(#linear-gradient-4);
      }

      .cls-14 {
        fill: url(#linear-gradient-3);
      }

      .cls-15 {
        fill: url(#linear-gradient-2);
      }

      .cls-16 {
        fill: url(#radial-gradient);
      }

      .cls-17 {
        fill: url(#linear-gradient);
      }

      .cls-18 {
        fill: #ffedd1;
      }

      .cls-19 {
        fill: #170700;
        opacity: .2;
      }

      .cls-19, .cls-20 {
        isolation: isolate;
      }

      .cls-21 {
        fill: url(#radial-gradient-12);
      }

      .cls-22 {
        fill: url(#radial-gradient-14);
      }

      .cls-23 {
        fill: url(#radial-gradient-13);
      }

      .cls-24 {
        fill: url(#radial-gradient-10);
      }

      .cls-25 {
        fill: url(#radial-gradient-11);
      }

      .cls-26 {
        fill: url(#radial-gradient-15);
      }

      .cls-27 {
        fill: #ffcf9e;
      }

      .cls-20 {
        fill: #6b3924;
        opacity: .3;
      }

      .cls-28 {
        fill: #a30088;
      }

      .cls-29 {
        fill: #a80000;
      }
    </style>
    <radialGradient id="radial-gradient" cx="170.51" cy="-885.08" fx="170.51" fy="-885.08" r="224.69" gradientTransform="translate(11.1 68.46) scale(1.07 -.41)" gradientUnits="userSpaceOnUse">
      <stop offset="0" stop-color="#ff9c42"/>
      <stop offset=".34" stop-color="#f99840"/>
      <stop offset=".8" stop-color="#e88f39"/>
      <stop offset="1" stop-color="#de8935"/>
    </radialGradient>
    <linearGradient id="linear-gradient" x1="253.87" y1="-18.99" x2="253.87" y2="108.04" gradientTransform="translate(-.76 493.37) scale(1.01 -.98)" gradientUnits="userSpaceOnUse">
      <stop offset=".22" stop-color="#ff9c42" stop-opacity="0"/>
      <stop offset=".36" stop-color="#fc993f" stop-opacity=".22"/>
      <stop offset=".47" stop-color="#f18f34" stop-opacity=".4"/>
      <stop offset=".59" stop-color="#df7e22" stop-opacity=".58"/>
      <stop offset=".69" stop-color="#c66709" stop-opacity=".75"/>
      <stop offset=".73" stop-color="#bd5e00" stop-opacity=".8"/>
    </linearGradient>
    <radialGradient id="radial-gradient-2" cx="282.17" cy="-3306.78" fx="282.17" fy="-3306.78" r="452.11" gradientTransform="translate(-12.38 -145.43) scale(.92 -.14)" gradientUnits="userSpaceOnUse">
      <stop offset=".55" stop-color="#572f1d"/>
      <stop offset=".6" stop-color="#522c1c"/>
      <stop offset=".81" stop-color="#452519"/>
      <stop offset="1" stop-color="#402218"/>
    </radialGradient>
    <radialGradient id="radial-gradient-3" cx="-1617.9" cy="2167.83" fx="-1617.9" fy="1856.57" r="393.23" gradientTransform="translate(-1362.2966 -502.0133) rotate(179.0512) scale(.9904 -.337) skewX(-.0706)" gradientUnits="userSpaceOnUse">
      <stop offset="0" stop-color="#f9b700"/>
      <stop offset=".25" stop-color="#f9b904"/>
      <stop offset=".5" stop-color="#fac110"/>
      <stop offset=".75" stop-color="#fccd24"/>
      <stop offset="1" stop-color="#ffdf3f"/>
      <stop offset="1" stop-color="#ffdf40"/>
    </radialGradient>
    <radialGradient id="radial-gradient-4" cx="92.96" cy="457.09" fx="92.96" fy="457.09" r="97.6" gradientTransform="translate(50.5895 1068.6779) rotate(-1.9784) scale(1.0341 -1.7159)" gradientUnits="userSpaceOnUse">
      <stop offset="0" stop-color="#ff3d3d"/>
      <stop offset=".24" stop-color="#fb3939"/>
      <stop offset=".49" stop-color="#ee2d2d"/>
      <stop offset=".75" stop-color="#d91a1a"/>
      <stop offset="1" stop-color="#bd0000"/>
    </radialGradient>
    <radialGradient id="radial-gradient-5" cx="427.15" cy="449.58" fx="427.15" fy="449.58" r="97.6" gradientTransform="translate(-164 938.75) rotate(6.85) scale(1.02 -1.6) skewX(.43)" gradientUnits="userSpaceOnUse">
      <stop offset="0" stop-color="#ff3d3d"/>
      <stop offset=".24" stop-color="#fb3939"/>
      <stop offset=".49" stop-color="#ee2d2d"/>
      <stop offset=".75" stop-color="#d91a1a"/>
      <stop offset="1" stop-color="#bd0000"/>
    </radialGradient>
    <radialGradient id="radial-gradient-6" cx="-614.95" cy="457.25" fx="-614.95" fy="457.25" r="94.37" gradientTransform="translate(-315.1877 1096.2955) rotate(172.1566) scale(.8676 1.7127) skewX(-3.3508)" gradientUnits="userSpaceOnUse">
      <stop offset="0" stop-color="#ffa8ec"/>
      <stop offset=".12" stop-color="#fda1e9"/>
      <stop offset=".29" stop-color="#f78de2"/>
      <stop offset=".49" stop-color="#ee6dd5"/>
      <stop offset=".72" stop-color="#e140c4"/>
      <stop offset=".97" stop-color="#d107af"/>
      <stop offset="1" stop-color="#cf00ac"/>
    </radialGradient>
    <radialGradient id="radial-gradient-7" cx="-1475.53" cy="483.35" fx="-1475.53" fy="483.35" r="94.38" gradientTransform="translate(-790.37 924.48) rotate(-173.27) scale(.69 1.68) skewX(-20.93)" gradientUnits="userSpaceOnUse">
      <stop offset="0" stop-color="#ffa8ec"/>
      <stop offset=".12" stop-color="#fda1e9"/>
      <stop offset=".29" stop-color="#f78de2"/>
      <stop offset=".49" stop-color="#ee6dd5"/>
      <stop offset=".72" stop-color="#e140c4"/>
      <stop offset=".97" stop-color="#d107af"/>
      <stop offset="1" stop-color="#cf00ac"/>
    </radialGradient>
    <radialGradient id="radial-gradient-8" cx="-825.66" cy="450.13" fx="-825.66" fy="450.13" r="94.37" gradientTransform="translate(-377.1923 1075.75) rotate(174.4845) scale(.8677 1.7125) skewX(-3.4386)" gradientUnits="userSpaceOnUse">
      <stop offset="0" stop-color="#ffa8ec"/>
      <stop offset=".12" stop-color="#fda1e9"/>
      <stop offset=".29" stop-color="#f78de2"/>
      <stop offset=".49" stop-color="#ee6dd5"/>
      <stop offset=".72" stop-color="#e140c4"/>
      <stop offset=".97" stop-color="#d107af"/>
      <stop offset="1" stop-color="#cf00ac"/>
    </radialGradient>
    <linearGradient id="linear-gradient-2" x1="-297.08" y1="1397.19" x2="-174.61" y2="1397.19" gradientTransform="translate(-356.8163 -1408.5924) rotate(172.6388) scale(.8484 -1.1861)" gradientUnits="userSpaceOnUse">
      <stop offset="0" stop-color="#96cf33"/>
      <stop offset=".09" stop-color="#90c931"/>
      <stop offset="1" stop-color="#529320"/>
    </linearGradient>
    <linearGradient id="linear-gradient-3" x1="-1081.44" y1="657.4" x2="-979.2" y2="657.4" gradientTransform="translate(789.06 -467.44) rotate(-89.98) scale(.65 -.97)" gradientUnits="userSpaceOnUse">
      <stop offset="0" stop-color="#96cf33"/>
      <stop offset=".09" stop-color="#90c931"/>
      <stop offset="1" stop-color="#529320"/>
    </linearGradient>
    <linearGradient id="linear-gradient-4" x1="-693.31" y1="311.24" x2="-603.82" y2="311.24" gradientTransform="translate(690.51 42.66) rotate(-55.95) scale(.65 -.97)" gradientUnits="userSpaceOnUse">
      <stop offset="0" stop-color="#96cf33"/>
      <stop offset=".09" stop-color="#90c931"/>
      <stop offset="1" stop-color="#529320"/>
    </linearGradient>
    <linearGradient id="linear-gradient-5" x1="-528.53" y1="1583.48" x2="-406.1" y2="1583.48" gradientTransform="translate(-336.9823 -1158.4595) rotate(173.4641) scale(.8469 -.9012) skewX(-1.8598)" gradientUnits="userSpaceOnUse">
      <stop offset="0" stop-color="#96cf33"/>
      <stop offset=".09" stop-color="#90c931"/>
      <stop offset="1" stop-color="#529320"/>
    </linearGradient>
    <linearGradient id="linear-gradient-6" x1="-1278.59" y1="575.88" x2="-1175.82" y2="575.88" gradientTransform="translate(602.39 -800.98) rotate(-111.07) scale(.72 -.85) skewX(-2.06)" gradientUnits="userSpaceOnUse">
      <stop offset="0" stop-color="#96cf33"/>
      <stop offset=".09" stop-color="#90c931"/>
      <stop offset="1" stop-color="#529320"/>
    </linearGradient>
    <linearGradient id="linear-gradient-7" x1="-1199.68" y1="427.16" x2="-1106.95" y2="427.16" gradientTransform="translate(789.06 -456.4) rotate(-89.98) scale(.58 -.97) skewX(-.01)" gradientUnits="userSpaceOnUse">
      <stop offset="0" stop-color="#96cf33"/>
      <stop offset=".09" stop-color="#90c931"/>
      <stop offset="1" stop-color="#529320"/>
    </linearGradient>
    <radialGradient id="radial-gradient-9" cx="160.62" cy="131.98" fx="160.62" fy="131.98" r="263.24" gradientTransform="translate(-17.61 154.77) scale(1.13 -.54)" gradientUnits="userSpaceOnUse">
      <stop offset=".42" stop-color="#ff9c42"/>
      <stop offset=".66" stop-color="#f5963e"/>
      <stop offset="1" stop-color="#de8935"/>
    </radialGradient>
    <linearGradient id="linear-gradient-8" x1="232.29" y1="364.37" x2="232.29" y2="544.56" gradientTransform="translate(-10.92 605.02) scale(1.15 -1.1)" gradientUnits="userSpaceOnUse">
      <stop offset="0" stop-color="#de6e00"/>
      <stop offset=".04" stop-color="#e77b13" stop-opacity=".89"/>
      <stop offset=".11" stop-color="#f28a28" stop-opacity=".73"/>
      <stop offset=".18" stop-color="#f99437" stop-opacity=".55"/>
      <stop offset=".27" stop-color="#fe9a3f" stop-opacity=".33"/>
      <stop offset=".4" stop-color="#ff9c42" stop-opacity="0"/>
      <stop offset="1" stop-color="#de6e00"/>
    </linearGradient>
    <radialGradient id="radial-gradient-10" cx="-354.1" cy="1942.02" fx="-354.1" fy="1942.02" r="36.5" gradientTransform="translate(-270.45 -867.39) rotate(177.59) scale(1 -.57) skewX(-2.91)" gradientUnits="userSpaceOnUse">
      <stop offset="0" stop-color="#5da824"/>
      <stop offset="1" stop-color="#96cf33"/>
    </radialGradient>
    <radialGradient id="radial-gradient-11" cx="554.04" cy="-139.68" fx="554.04" fy="-139.68" r="51.63" gradientTransform="translate(-37.54 127.84) rotate(1.63) scale(.66 -.55) skewX(2.91)" gradientUnits="userSpaceOnUse">
      <stop offset="0" stop-color="#5da824"/>
      <stop offset="1" stop-color="#96cf33"/>
    </radialGradient>
    <radialGradient id="radial-gradient-12" cx="768.68" cy="-152.85" fx="768.68" fy="-152.85" r="53.59" gradientTransform="translate(-37.54 127.84) rotate(1.63) scale(.66 -.55) skewX(2.91)" gradientUnits="userSpaceOnUse">
      <stop offset="0" stop-color="#5da824"/>
      <stop offset="1" stop-color="#96cf33"/>
    </radialGradient>
    <radialGradient id="radial-gradient-13" cx="-1037.8" cy="-116.97" fx="-1037.8" fy="-116.97" r="50.38" gradientTransform="translate(695.15 -136.25) rotate(-39.89) scale(.48 -.76) skewX(-41.45)" gradientUnits="userSpaceOnUse">
      <stop offset="0" stop-color="#5da824"/>
      <stop offset="1" stop-color="#96cf33"/>
    </radialGradient>
    <radialGradient id="radial-gradient-14" cx="-184.47" cy="1824.85" fx="-184.47" fy="1824.85" r="37.87" gradientTransform="translate(-270.45 -930.25) rotate(177.28) scale(1 -.64) skewX(-2.54)" gradientUnits="userSpaceOnUse">
      <stop offset="0" stop-color="#5da824"/>
      <stop offset="1" stop-color="#96cf33"/>
    </radialGradient>
    <radialGradient id="radial-gradient-15" cx="234.49" cy="-389.81" fx="234.49" fy="-389.81" r="58.26" gradientTransform="translate(-26.6 51.71) rotate(1.83) scale(.66 -.42) skewX(1.71)" gradientUnits="userSpaceOnUse">
      <stop offset="0" stop-color="#5da824"/>
      <stop offset="1" stop-color="#96cf33"/>
    </radialGradient>
  </defs>
  <path class="cls-16" d="M503.47,407.04c0,101.78-90.16,104.96-247.46,104.96s-247.46-3.18-247.46-104.96c0-26.17,494.93-26.17,494.93,0Z"/>
  <path class="cls-17" d="M503.47,407.04c0,101.78-90.16,104.96-247.46,104.96s-247.46-3.18-247.46-104.96c0-26.17,494.93-26.17,494.93,0Z"/>
  <path class="cls-8" d="M18.25,418.56c-25.97-19.84-25.6-92.85,10.07-106.15,67.88-25.34,368.55-34.21,461.8,11.25,33.92,16.53,30.68,112.57-25.73,100.98-10.83,4.11-36.24,5.82-51.05,3.75-31.29,7.04-79.29,7.76-94.35,3.75,0,0-33.98,5.58-62.44.19-44.05,5.05-71.15.62-71.15.62-45.21,5.91-82.3-5.48-82.3-5.48,0,0-27.22,2.66-48.81-2.57-16.13-.26-24.73,2.31-36.04-6.33Z"/>
  <path class="cls-20" d="M329.23,351.3c-5.93-24.98,31.53-6.06,28.73,12.4-1.34,8.84-18.82,29.29-28.73-12.4Z"/>
  <path class="cls-20" d="M421.26,363.78c-.78-30.83,42.82-27.24,45.99-12.32,4.98,23.4-45.46,33.97-45.99,12.32Z"/>
  <path class="cls-20" d="M63.58,363.94c-23.41-2.15-26.76-36.54-9.55-36.01,40.74,1.22,17.75,36.78,9.55,36.01Z"/>
  <path class="cls-20" d="M29.71,354.15c-10.65-.98-12.19-16.65-4.33-16.41,18.53.56,8.07,16.75,4.33,16.41Z"/>
  <path class="cls-20" d="M75.77,366.75c1.51-13.53,13.85-14.38,13.1-4.41-1.73,23.6-13.65,9.15-13.1,4.41Z"/>
  <path class="cls-19" d="M69.18,405.5c1.5-13.53,13.82-14.38,13.09-4.4-1.72,23.59-13.62,9.15-13.09,4.4Z"/>
  <path class="cls-20" d="M119.86,378.99c1.5-13.52,13.82-14.38,13.09-4.4-1.74,23.6-13.65,9.14-13.09,4.4Z"/>
  <path class="cls-19" d="M127.71,407.33c1.51-13.52,24.84-13.18,24.12-3.2-1.75,23.59-24.65,7.93-24.12,3.2Z"/>
  <path class="cls-19" d="M16.32,388.93c1.51-13.52,13.83-14.38,13.09-4.4-1.72,23.6-13.64,9.14-13.09,4.4Z"/>
  <path class="cls-20" d="M369.51,367.01c1.93-17.88,18.57-18.87,17.66-5.68-2.17,31.24-18.35,11.95-17.66,5.68Z"/>
  <path class="cls-19" d="M289.59,413.27c1.93-17.88,18.57-18.87,17.66-5.68-2.16,31.24-18.35,11.95-17.66,5.68Z"/>
  <path class="cls-20" d="M311.69,376.65c1.52-13.52,13.84-14.38,13.11-4.4-1.73,23.6-13.67,9.14-13.11,4.4Z"/>
  <path class="cls-20" d="M479.92,358.14c1.51-13.52,13.85-14.38,13.11-4.4-1.73,23.61-13.65,9.14-13.11,4.4Z"/>
  <path class="cls-19" d="M446.35,399.84c1.53-13.52,13.84-14.38,13.12-4.4-1.72,23.61-13.63,9.14-13.12,4.4Z"/>
  <path class="cls-20" d="M240.17,376.13c-12.12-21.94,13.06-42.49,24.14-26.82,26.17,37.08-19.9,34.5-24.14,26.82Z"/>
  <path class="cls-20" d="M116.79,350.63c5.14,17.92-18.17,28.05-21.53,12.87-11.97-53.75,19.76-19.16,21.53-12.87Z"/>
  <path class="cls-19" d="M236.22,400.78c5.13,17.91-18.17,28.05-21.54,12.86-11.97-53.73,19.75-19.16,21.54-12.86Z"/>
  <path class="cls-20" d="M302.69,365.57c9.12,26.6-26.76,13.89-27.72-8.85-1.04-24.33,12.58-35.51,27.72,8.85Z"/>
  <path class="cls-19" d="M390.49,411.59c-15.92,23.01-26.77,13.89-27.72-8.85-1.05-24.35,43.67-14.19,27.72,8.85Z"/>
  <path class="cls-20" d="M158.6,363.11c10.95,24.19-14.34,18.07-19.35-3.8-5.36-23.38,1.14-36.56,19.35,3.8Z"/>
  <path class="cls-19" d="M52.17,419.53c4.61,3.95-11.17-30.12-11.33-68.06-.1-24.02-21.87,39.5,11.33,68.06Z"/>
  <path class="cls-19" d="M106.49,420.96c4.4,1.6-11.14-18.01-11.99-44.14-.54-16.55-20,32.68,11.99,44.14Z"/>
  <path class="cls-19" d="M185.06,428c4.43,1.6-11.14-18.01-11.97-44.14-.54-16.55-19.99,32.69,11.97,44.14Z"/>
  <path class="cls-19" d="M259.54,426.64c-4.61.84,13.85-15.94,18.83-41.58,3.16-16.25,14.55,35.55-18.83,41.58Z"/>
  <path class="cls-19" d="M320.1,430.07c-4.77.8,13.78-17.99,18.01-47.63,2.65-18.77,16.43,41.91-18.01,47.63Z"/>
  <path class="cls-19" d="M411.73,425.15c-3.89,1.24,7.96-19.29,5.27-49.34-1.69-19.02,23,40.44-5.27,49.34Z"/>
  <path class="cls-19" d="M464,421.31c-5.08,1.7,11.28-23.36,9.47-58.92-1.13-22.5,27.22,46.72-9.47,58.92Z"/>
  <path class="cls-20" d="M410.46,367.02c-6.06,26.83-20.15-.72-11.26-20.47,9.5-21.15,21.42-24.28,11.26,20.47Z"/>
  <path class="cls-7" d="M119.33,325.53c33.16,13.89,75.32,75.15,82.03,65,19.75-29.93,35.33-51.46,65.97-63.5,124.25-48.86,259.35,28.62,242.56,3.92-33.09-48.65-108.65-65.44-269.04-65.44C-1.63,265.51-6.49,320.52,3.38,323.28c9.5,2.67,33.47-32.33,115.95,2.24Z"/>
  <path class="cls-4" d="M274.27,292.11c-15.15,14.58-235.78,22.1-255.47,8.85-8.2-5.52-8.93-26.74-1.14-32.81,11.82-9.21,248.16-14.98,255.5-8.85,7.31,6.14,8,26.19,1.11,32.81Z"/>
  <path class="cls-29" d="M273.15,259.3c16.16,12.4-272.72,25-255.49,8.85,19.1-17.88,228.52-29.55,255.49-8.85Z"/>
  <path class="cls-3" d="M503.98,310.08c-16.86,11.14-232-14.78-249.13-29.9-7.13-6.31-4.67-25.94,3.8-30.36,12.84-6.71,242.94,23.15,249.15,29.9,6.18,6.74,3.87,25.29-3.81,30.36Z"/>
  <path class="cls-29" d="M507.78,279.72c13.82,13.82-268.27-17.6-249.15-29.9,21.19-13.62,226.06,6.83,249.15,29.9Z"/>
  <path class="cls-2" d="M2.03,270.18c14.49,12.14,197.98-13.22,212.46-29.25,1.38-1.52,2.47-16.4-.34-18.28-11.02-7.34-207.24,22.08-212.48,29.24-1.63,2.26-1.08,17.09.35,18.29Z"/>
  <path class="cls-28" d="M1.68,251.9c-11.68,14.67,228.93-15.83,212.48-29.24-18.21-14.84-192.96,4.77-212.48,29.24Z"/>
  <path class="cls-1" d="M335.1,249.16c6.59,14.59,152.53,31.67,168.95,19.92,1.56-1.1,7.56-14.79,6.13-17.17-5.67-9.31-162.53-25.46-168.95-19.92-2,1.74-6.78,15.75-6.13,17.18Z"/>
  <path class="cls-28" d="M341.22,231.99c-13.87,11.12,176.57,36.11,168.95,19.92-8.42-17.94-145.82-38.47-168.95-19.92Z"/>
  <path class="cls-6" d="M156.77,257.83c13.97,12.72,198.36-5.18,213.51-20.6,1.44-1.47,3.13-16.28.41-18.28-10.71-7.78-207.96,13.66-213.52,20.6-1.72,2.17-1.77,17.02-.41,18.28Z"/>
  <path class="cls-28" d="M157.18,239.55c-12.29,14.19,229.39-6.55,213.52-20.6-17.58-15.56-193.01-3.06-213.52,20.6Z"/>
  <path class="cls-15" d="M5.29,211.19c-16.37-28.65,9.37-28.55,21.36-16.55,2.73-18.11,28.09-32.11,39.46,1.43,15.02-4.13,53.48-15.25,32.87,17.4,7.81,10.26,14.8,29.86-23.8,19.18,1.63,14.83-33.24,14.71-34.02-9.57-7.79,13.47-47.95,5.23-35.87-11.89Z"/>
  <path class="cls-14" d="M155.14,175.29c41.09-8.53,37.68,10.35,19.82,17.67,24.3,4.2,40.15,24.46-6.93,28.73,3.74,11.52,16.68,27.34-25.15,8.27-4.17,8.34-37.17,18.02-34.81-2.6-20.38-.59-6.77-29.58,26.36-27.23-17.36-7.33-1.03-35.76,20.71-24.84Z"/>
  <path class="cls-13" d="M213.24,201.74c27.67,7.12,40.94,26.79,27.09,25.75,11.68,9.45-14.36,15.65-43.3,4.38-3.71,7.64-12.37,23.31-26.48.32-10.75-1.79-28.33-4.18-3.61-13.87-11.26-6.28,4.29-19.47,21.93-8.48-6.15-9.21,17.55-20.63,24.37-8.09Z"/>
  <path class="cls-11" d="M213.29,211.5c-15.79-21.53,9.88-21.87,21.62-12.93,3.06-13.81,28.61-24.87,39.31.46,15.08-3.39,53.64-12.45,32.47,12.71,7.59,7.67,14.19,22.47-24.08,14.97,1.33,11.24-33.46,11.71-33.78-6.74-8.01,10.37-47.92,4.73-35.53-8.47Z"/>
  <path class="cls-12" d="M493.29,192.24c19.93-2.17,26.88,13.01,6.14,21.12,7.36,7.12,26.74,25.23-12.26,20.83-9.45,6.17-33.47,8.09-29.54-14.42-15.57,3.81-60.09-24.43-34.24-29.68-15.93-1.43,80.43-6.58,69.91,2.14Z"/>
  <path class="cls-10" d="M396.91,188.7c25.19,3.85,41.61,22.5-7.19,26.44,3.87,10.61,17.76,36.09-25.59,18.56-15.48,4.13-47.33,8.33-27.2-16.52-21.12-.55-16.38-24.06,17.96-21.89-17.97-6.73,60.52-13.34,42.02-6.59Z"/>
  <path class="cls-5" d="M503.47,173.39c0,42.49-79.74,26.48-247.46,26.48S8.54,215.87,8.54,173.39c0-110.44,110.78-169.45,247.46-169.45s247.46,59.01,247.46,169.45Z"/>
  <path class="cls-9" d="M503.47,173.39c0,42.49-79.74,26.48-247.46,26.48S8.54,215.87,8.54,173.39c0-110.44,110.78-169.45,247.46-169.45s247.46,59.01,247.46,169.45Z"/>
  <path class="cls-27" d="M267.76,3.54c.94,6.76-10.73,4.52-15.04.66,2.28-3.65,14.19-6.96,15.04-.66Z"/>
  <path class="cls-27" d="M182.62,63.14c-6,6.54-14.15-4.7-14.09-11.44,5.7-1.32,19.65,5.35,14.09,11.44Z"/>
  <path class="cls-18" d="M263.69,48.87c-4.05-7.72,10.52-9.82,17.25-6.97-1.04,5.31-13.45,14.09-17.25,6.97Z"/>
  <path class="cls-27" d="M154.66,16.46c-1.21-7.18,13.16-4.88,18.48-.81-2.8,3.89-17.36,7.47-18.48.81Z"/>
  <path class="cls-27" d="M109.09,88.12c-7.79-5.02,3.43-13.26,10.76-13.68,2.07,5.13-3.51,18.33-10.76,13.68Z"/>
  <path class="cls-27" d="M455.81,67.8c-5.71,7.33-14.05-3.11-14.19-9.93,5.58-2,19.49,3.12,14.19,9.93Z"/>
  <path class="cls-18" d="M420.72,111.47c-5.1,7.55-14-2.97-14.6-9.93,5.35-2.1,19.31,2.95,14.6,9.93Z"/>
  <path class="cls-27" d="M77.9,52.27c-5.99-7.18,7.57-11.18,14.79-9.22.4,5.45-9.23,15.85-14.79,9.22Z"/>
  <path class="cls-18" d="M307.98,102.85c-7.28,2.53-7.43-7.74-4.12-12.33,4.58.94,10.91,9.96,4.12,12.33Z"/>
  <path class="cls-18" d="M349.51,23.29c3.19-6.45,11.83,1.23,13.25,6.77-4.1,2.12-16.18-.78-13.25-6.77Z"/>
  <path class="cls-27" d="M244.07,110.82c7.46,1.76,1.29,11.07-4.2,13.37-3.12-3.37-2.71-14.99,4.2-13.37Z"/>
  <path class="cls-27" d="M369.11,67.34c-3.07,6.7-11.68-.68-13.13-6.21,4.02-2.34,15.99,0,13.13,6.21Z"/>
  <path class="cls-18" d="M151.99,115.54c-6.09-4.41,3.45-10.65,9.44-10.68,1.45,4.26-3.73,14.76-9.44,10.68Z"/>
  <path class="cls-27" d="M42.91,96.17c.87-7.28,11.35-2.66,14.49,2.21-3.15,3.37-15.28,4.51-14.49-2.21Z"/>
  <path class="cls-24" d="M207.42,232.74c5.31,11.48,30.26,2.82,25.21-5.68,16.3,10.75,33.35.04,22.85-6.18,25.76-7.07,9.54-13.82-.96-16.06-7.19-11.33-22.78-4.26-27.4,2.26-27.47-11.7-30.65,2.48-20.12,11.54-13.68-1.75-26.31,6.16.42,14.12Z"/>
  <path class="cls-25" d="M357.6,215c7.26,22.1-12.25,19.64-19.19,9.9-5.32,12.76-27.07,20.45-29.69-4.69-12.15,1.57-44.61,11.08-23.08-10.43-4.1-8.09-4.82-17.74,22.54-6.5,1.44-10.79,36.24-14.09,32.49,3.43,8.32-8.96,29.18-2.87,16.94,8.29Z"/>
  <path class="cls-21" d="M497.72,229.91c7.27,22.1-12.27,19.64-19.18,9.9-5.33,12.76-27.09,20.45-29.68-4.69-12.16,1.57-43.34,5.97-21.81-15.55-4.1-8.09-5.88-22.82,21.5-11.57,1.42-10.8,27.87-7.47,24.11,10.05,8.32-8.96,37.32.7,25.07,11.86Z"/>
  <path class="cls-23" d="M426.73,201.69c27.67,6.3,16.17,14.95,2.31,14.04,11.68,8.38,12.84,26.58-16.09,16.58-3.71,6.78-15.29,20.44-29.4.02-10.77-1.59-27.82-7.32-3.12-15.92-11.26-5.56,4.27-17.28,21.93-7.53-6.15-8.17,17.55-18.31,24.37-7.18Z"/>
  <path class="cls-22" d="M26.4,241.71c5.31,12.95,31.16,8.5,26.15-1.09,16.29,12.14,38.06.62,27.56-6.39,25.77-7.98,4.81-16.15-5.69-18.65-11.33-23.87-22.78-4.81-27.4,2.54-27.47-13.19-33.56-.66-23.01,9.55-13.69-1.98-20.76,10.8,2.4,14.04Z"/>
  <path class="cls-26" d="M160.55,216.59c7.27,24.91-23.15,24.71-30.07,13.74-5.33,14.35-27.08,23.04-29.69-5.3-12.16,1.77-49.64,11.48-28.12-12.77-4.1-9.12.5-18.43,27.86-5.76,1.43-12.16,39.73-15.46,35.97,4.27,8.33-10.08,36.29-6.75,24.04,5.82Z"/>
</svg>