<?xml version="1.0" encoding="UTF-8"?>
<svg id="Layer_1" data-name="Layer 1" xmlns="http://www.w3.org/2000/svg" xmlns:xlink="http://www.w3.org/1999/xlink" viewBox="0 0 477.87 512">
  <defs>
    <style>
      .cls-1 {
        fill: url(#linear-gradient-7);
      }

      .cls-2 {
        fill: url(#linear-gradient-5);
      }

      .cls-3 {
        fill: url(#linear-gradient-6);
      }

      .cls-4 {
        fill: url(#linear-gradient-4);
      }

      .cls-5 {
        fill: url(#linear-gradient-3);
      }

      .cls-6 {
        fill: url(#linear-gradient-2);
      }

      .cls-7 {
        opacity: .3;
      }

      .cls-7, .cls-8 {
        fill: #94e8ff;
      }

      .cls-7, .cls-9 {
        isolation: isolate;
      }

      .cls-10 {
        fill: url(#radial-gradient);
      }

      .cls-11 {
        fill: url(#linear-gradient);
      }

      .cls-9 {
        fill: #fff;
        opacity: .5;
      }
    </style>
    <linearGradient id="linear-gradient" x1="59.39" y1="124.65" x2="431.55" y2="436.93" gradientTransform="translate(0 514) scale(1 -1)" gradientUnits="userSpaceOnUse">
      <stop offset="0" stop-color="#60d0f2"/>
      <stop offset=".5" stop-color="#94e8ff"/>
      <stop offset="1" stop-color="#60d0f2"/>
    </linearGradient>
    <linearGradient id="linear-gradient-2" x1="216.75" y1="195.28" x2="477.87" y2="195.28" gradientTransform="translate(0 514) scale(1 -1)" gradientUnits="userSpaceOnUse">
      <stop offset="0" stop-color="#4ec8f0"/>
      <stop offset=".22" stop-color="#57ccf2"/>
      <stop offset=".58" stop-color="#6fd7f7"/>
      <stop offset="1" stop-color="#94e8ff"/>
    </linearGradient>
    <linearGradient id="linear-gradient-3" x1="0" y1="196.03" x2="238.69" y2="196.03" gradientTransform="translate(0 514) scale(1 -1)" gradientUnits="userSpaceOnUse">
      <stop offset="0" stop-color="#60d0f2"/>
      <stop offset=".31" stop-color="#75daf7"/>
      <stop offset=".73" stop-color="#8ce4fd"/>
      <stop offset="1" stop-color="#94e8ff"/>
    </linearGradient>
    <linearGradient id="linear-gradient-4" x1="10.09" y1="391.18" x2="415.12" y2="391.18" gradientTransform="translate(16.19 514.78) scale(1.06 -1.01)" gradientUnits="userSpaceOnUse">
      <stop offset="0" stop-color="#94e8ff"/>
      <stop offset=".27" stop-color="#8ce4fd"/>
      <stop offset=".69" stop-color="#75daf7"/>
      <stop offset="1" stop-color="#60d0f2"/>
    </linearGradient>
    <radialGradient id="radial-gradient" cx="-1025.11" cy="461.69" fx="-1025.11" fy="461.69" r="146.79" gradientTransform="translate(1629.9697 -935.607) rotate(-90) scale(1.0066 -2.9714)" gradientUnits="userSpaceOnUse">
      <stop offset="0" stop-color="#60d0f2" stop-opacity=".6"/>
      <stop offset=".26" stop-color="#5dcdf0" stop-opacity=".47"/>
      <stop offset=".45" stop-color="#54c3ec" stop-opacity=".38"/>
      <stop offset=".62" stop-color="#44b3e3" stop-opacity=".29"/>
      <stop offset=".77" stop-color="#2e9dd8" stop-opacity=".21"/>
      <stop offset=".92" stop-color="#1280c9" stop-opacity=".14"/>
      <stop offset="1" stop-color="#006dbf" stop-opacity=".1"/>
    </radialGradient>
    <linearGradient id="linear-gradient-5" x1="429.84" y1="523.17" x2="195.8" y2="346.63" gradientTransform="translate(0 514) scale(1 -1)" gradientUnits="userSpaceOnUse">
      <stop offset="0" stop-color="#006dbf" stop-opacity=".1"/>
      <stop offset="1" stop-color="#006dbf" stop-opacity=".3"/>
    </linearGradient>
    <linearGradient id="linear-gradient-6" x1="15.5" y1="188.68" x2="212.36" y2="188.68" gradientTransform="translate(0 514) scale(1 -1)" gradientUnits="userSpaceOnUse">
      <stop offset="0" stop-color="#006dbf" stop-opacity=".1"/>
      <stop offset="1" stop-color="#006dbf" stop-opacity=".3"/>
    </linearGradient>
    <linearGradient id="linear-gradient-7" x1="389.19" y1="41.2" x2="389.19" y2="354.14" gradientTransform="translate(0 514) scale(1 -1)" gradientUnits="userSpaceOnUse">
      <stop offset="0" stop-color="#006dbf" stop-opacity=".1"/>
      <stop offset="1" stop-color="#006dbf" stop-opacity=".3"/>
    </linearGradient>
  </defs>
  <path class="cls-11" d="M470.74,254.3c0-60.24,8.38-121.96,1.39-128.85-16.23-16-60.22-33.02-115.77-63.53-37.7-20.71-75.61-44.46-98.28-56.82-11.83-6.46-26.25-7.01-38.6-.36-22.65,12.21-60.72,36.1-98.57,56.94C65.39,92.29,24.81,106.19,5.23,125.46c-6.99,6.88,1.31,68.61,1.26,128.85-.03,60.29,57.28,160.73,111.81,190.89,54.52,30.14,110.28,66.8,120.38,66.8s64.03-35.65,117.68-65.16c55.55-30.57,114.38-132.3,114.38-192.54Z"/>
  <path class="cls-6" d="M474.04,359.68c-.41-24.76-3.29-65.08-3.29-105.39,0-60.24,15.04-115.41,1.41-128.85-118.2,70.83-230.35,116.4-233.52,128.85,0,0-49.28,210.91.05,257.7,24.76,0,64.03-35.65,117.68-65.16,38.87-21.38,77.51-39.86,98.98-51.94,18.94-10.65,19-16.03,18.7-35.21Z"/>
  <path class="cls-5" d="M6.5,254.3c-.03,42.92-3.31,85.85-3.31,110,0,15.23,4.81,22.31,14.72,28.06,19.92,11.57,59.83,30.4,100.4,52.84,54.51,30.15,89.53,66.81,120.37,66.81-17.04-16.18-.05-226.5-.05-257.7,0-10.09-64.54-43.79-132.22-76.2-38.56-18.46-90.39-62.88-101.18-52.64-12.51,12.31,1.31,68.61,1.26,128.85Z"/>
  <path class="cls-4" d="M454.14,121.29c-64.63-41.72-57.09-27.62-209.49-115.18-20.25-11.62-89.01,53.28-213.57,111.54-20.71,9.69,39.36,28.03,95.22,59.26,49.37,27.6,102.53,60.41,113.19,60.41,14.38,0,90.36-38.38,126.52-60.09,58.14-34.9,101.98-46.97,88.13-55.93Z"/>
  <path class="cls-10" d="M454.14,121.29c-64.63-41.72-57.09-27.62-209.49-115.18-20.25-11.62-57.07,40.64-181.63,98.89-20.71,9.69,78.48,9,136.79-17.53,59.17-26.91,16.93,114.06,41.28,97.34,86.51-59.4,30.67,30.01,100.33-5.3,60.54-30.69,126.57-49.26,112.72-58.22Z"/>
  <path class="cls-2" d="M317.24,79.96c13.93-14.14-57.12-72.27-88.71-65.11-24.34,5.51-147.92,83.15-115.22,80.5,34.97-2.84,119.76-114.59,120.3,1.37.06,12.31,5.09,16.88,8.19-50.23,1.46-31.47,43.18-2.82,47.95,53.68,4.38,51.83,154.23,25.28,154.23,25.28.29-19.26-169.4-2.17-126.75-45.5Z"/>
  <path class="cls-3" d="M111.52,393.82c16.89-33.82-108.33-1.6,36.27-68.5,43.63-20.17-47.47,8.87-68.43,18.04-62.63,27.38-39.93-202.28-58.85-173.94-6.44,9.65,10.97,144.98-4.91,201.85-4.28,15.36,130.8,71.46,196.76,112.38.59-63.89-115.06-61.37-100.84-89.83Z"/>
  <path class="cls-1" d="M460.68,215.06c5.96-151.93-.13,103.25-44.87,98.24-96.47-10.8,32.75,5.5-25.5,34.89-61.02,30.79-123.44,144.21-33.88,85.73,50.59-33.03,106.48-46.2,109.45-57.02,4.11-14.76-8.06-89.18-5.21-161.84Z"/>
  <path class="cls-7" d="M456.89,289.6c-23.94,15.19-39.49,101.72-58.39,78.81-21.87-26.52-62.58,68.21-18.82,41.51,30.52-18.62,79.65-31.79,80.79-35.9,1.56-5.61-5.98-57.3-3.58-84.42Z"/>
  <path class="cls-9" d="M147.79,219.83c2.71,27.93,65.52,52.37,51.47,78.43-19.53,36.28,16.16,138.18,17.48,87.51,1.05-40.13,13.68-108.37,4.91-123.56-10.98-19.04-50.5-27.84-73.86-42.38Z"/>
  <path class="cls-8" d="M296.25,203.42c-26.04-11.4-78.65,12.78-94.79-12.08-22.47-34.59-189.19-79.7-141.16-61.47,74.93,28.45,157.73,95.64,175.48,95.59,22.22-.07,36.13-9.16,60.47-22.04Z"/>
  <path class="cls-8" d="M249.9,487.6c25.18-13.12,8.75-221.88,38.57-219.03,41.49,3.96,161.95-112.55,117.73-86.61-69.02,40.47-154.54,74.25-152.6,91.62,6.56,58.74,1.05,187.21-3.69,214.02Z"/>
</svg>