<?xml version="1.0" encoding="UTF-8"?>
<svg id="Layer_1" data-name="Layer 1" xmlns="http://www.w3.org/2000/svg" xmlns:xlink="http://www.w3.org/1999/xlink" viewBox="0 0 460.8 512">
  <defs>
    <style>
      .cls-1 {
        fill: url(#radial-gradient-2);
      }

      .cls-2 {
        fill: #6e0000;
        isolation: isolate;
        opacity: .3;
      }

      .cls-3 {
        fill: #449c00;
      }

      .cls-4 {
        fill: url(#radial-gradient);
      }

      .cls-5 {
        fill: #ea8800;
      }

      .cls-6 {
        fill: #56ab15;
      }
    </style>
    <radialGradient id="radial-gradient" cx="174.36" cy="1862.07" fx="174.36" fy="1862.07" r="255.81" gradientTransform="translate(-1310.2949 635.2412) rotate(69.048) scale(.967 -.8938) skewX(.7993)" gradientUnits="userSpaceOnUse">
      <stop offset=".2" stop-color="#ff001e"/>
      <stop offset=".38" stop-color="#fa001c"/>
      <stop offset=".58" stop-color="#ed0016"/>
      <stop offset=".8" stop-color="#d6000c"/>
      <stop offset="1" stop-color="#ba0000"/>
    </radialGradient>
    <radialGradient id="radial-gradient-2" cx="211.8" cy="1435.66" fx="134.94" fy="1435.66" r="144.84" gradientTransform="translate(-2026.0475 912.0524) rotate(68.6826) scale(.9672 -1.6652) skewX(1.5095)" gradientUnits="userSpaceOnUse">
      <stop offset="0" stop-color="#ffc3a1" stop-opacity=".4"/>
      <stop offset="1" stop-color="#ffc3a1" stop-opacity="0"/>
    </radialGradient>
  </defs>
  <path class="cls-4" d="M197.29,120.08c-46.57,12.01-79.21,11.81-111.41,46.87-36.68,39.95-56.81,90.38-44.28,141.14,19.66,79.67,200.28,178.2,231.86,194.13,49.31,24.87,101.44-.9,124.25-41.63,27.47-49.07,77.57-192.1,59.11-271.5-19.73-84.83-74.26-112.12-143.9-111.59-31.92.25-79.27,33.53-115.63,42.58Z"/>
  <path class="cls-2" d="M273.21,229.58c4.39,18.91-15.35,22.79-19.71,3.89-4.39-18.89,15.33-22.77,19.71-3.89Z"/>
  <path class="cls-5" d="M269.12,232.33q-2.45,13.58-10.68,2.09c-11.43-15.96,14.02-20.97,10.68-2.09Z"/>
  <path class="cls-2" d="M323.94,279.51c5.4,18.82-14.22,23.71-19.62,4.9-5.44-18.85,14.2-23.72,19.62-4.9Z"/>
  <path class="cls-5" d="M319.89,282.45q-1.66,13.7-10.51,2.64c-12.24-15.4,12.86-21.67,10.51-2.64Z"/>
  <path class="cls-2" d="M366.58,333.37c5.51,19.16-14.47,24.14-19.99,4.97-5.5-19.17,14.48-24.16,19.99-4.97Z"/>
  <path class="cls-5" d="M362.37,336.34q-1.71,13.7-10.51,2.62c-12.25-15.39,12.86-21.65,10.51-2.62Z"/>
  <path class="cls-2" d="M388.32,425.92c-1.65,19.69-22.33,17.67-20.68-2.01,1.66-19.69,22.33-17.68,20.68,2.01Z"/>
  <path class="cls-5" d="M383.28,427.29q-6.53,12.2-10.91-1.06c-6.06-18.42,19.94-15.88,10.91,1.06Z"/>
  <path class="cls-2" d="M346.39,480.85c-7.85,19.56-28.5,11.49-20.65-8.09,7.85-19.54,28.51-11.45,20.65,8.09Z"/>
  <path class="cls-5" d="M340.46,480.54q-9.86,9.85-10.21-4c-.44-19.21,23.89-9.68,10.21,4Z"/>
  <path class="cls-2" d="M328.49,400.96c8.4,18.9-11.23,26.74-19.65,7.82-8.44-18.9,11.22-26.73,19.65-7.82Z"/>
  <path class="cls-5" d="M324.45,404.59q.25,13.85-10.04,4c-14.27-13.67,9.63-23.21,10.04-4Z"/>
  <path class="cls-2" d="M224.19,429.23c12.58,16.4-4.31,28.36-16.9,11.95-12.6-16.38,4.31-28.34,16.9-11.95Z"/>
  <path class="cls-5" d="M221.28,433.66q3.58,13.43-8.75,6.14c-17.14-10.11,3.71-24.84,8.75-6.14Z"/>
  <path class="cls-2" d="M245.19,383.99c12.6,16.42-4.35,28.39-16.96,11.96-12.61-16.41,4.31-28.4,16.96-11.96Z"/>
  <path class="cls-5" d="M242.24,388.43q3.59,13.45-8.75,6.15c-17.14-10.14,3.71-24.86,8.75-6.15Z"/>
  <path class="cls-2" d="M295.5,344.84c6.54,19.85-14.13,25.82-20.67,5.95-6.55-19.84,14.12-25.81,20.67-5.95Z"/>
  <path class="cls-5" d="M290.94,348.11q-1.15,13.76-10.41,3c-12.81-14.93,12.01-22.11,10.41-3Z"/>
  <path class="cls-2" d="M199.19,342.15c6.29,19.09-13.59,24.86-19.88,5.73-6.31-19.11,13.58-24.86,19.88-5.73Z"/>
  <path class="cls-5" d="M195.03,345.31q-1.16,13.75-10.4,3c-12.84-14.98,12-22.14,10.4-3Z"/>
  <path class="cls-2" d="M160.55,378.21c9.16,18.02-9.52,26.61-18.67,8.57-9.16-18.01,9.52-26.6,18.67-8.57Z"/>
  <path class="cls-5" d="M156.96,381.94q.99,13.84-9.79,4.48c-14.97-12.96,8.41-23.66,9.79-4.48Z"/>
  <path class="cls-2" d="M105.86,318.75c9.6,18.9-10.02,27.91-19.62,8.99-9.63-18.91,10-27.9,19.62-8.99Z"/>
  <path class="cls-5" d="M101.78,322.69q1,13.82-9.78,4.47c-14.98-12.99,8.39-23.68,9.78-4.47Z"/>
  <path class="cls-2" d="M247.46,293.43c1.26,20.23-19.89,21.07-21.2.82-1.31-20.21,19.87-21.05,21.2-.82Z"/>
  <path class="cls-5" d="M242.39,295.49q-4.62,12.99-10.88.44c-8.7-17.47,17.33-18.5,10.88-.44Z"/>
  <path class="cls-2" d="M142.62,230.97c1.24,19.44-19.13,20.27-20.35.8-1.25-19.45,19.11-20.27,20.35-.8Z"/>
  <path class="cls-5" d="M137.98,233.02q-4.63,13-10.87.44c-8.73-17.46,17.3-18.51,10.87-.44Z"/>
  <path class="cls-2" d="M163.05,287.63c1.33,20.53-20.16,21.38-21.5.84-1.31-20.52,20.19-21.38,21.5-.84Z"/>
  <path class="cls-5" d="M157.88,289.7q-4.62,12.98-10.91.43c-8.69-17.45,17.34-18.48,10.91-.43Z"/>
  <path class="cls-2" d="M89.16,255.78c-5.49,20.62-27.22,14.83-21.76-5.79,5.47-20.62,27.2-14.85,21.76,5.79Z"/>
  <path class="cls-5" d="M83.06,256.1q-8.55,10.92-10.58-2.81c-2.79-19.1,22.49-12.38,10.58,2.81Z"/>
  <path class="cls-2" d="M116.08,198.35c-11.73,16.98-29.82,5.16-18.06-11.86,11.72-17,29.82-5.15,18.06,11.86Z"/>
  <path class="cls-5" d="M110.54,196.95q-11.85,7.54-9.1-5.98c3.76-18.81,25.55-4.52,9.1,5.98Z"/>
  <path class="cls-2" d="M209.29,176.87c3.85,20.51-17.57,23.88-21.45,3.35-3.87-20.52,17.58-23.91,21.45-3.35Z"/>
  <path class="cls-5" d="M204.26,179.54q-2.96,13.47-10.7,1.66c-10.79-16.38,14.86-20.39,10.7-1.66Z"/>
  <path class="cls-2" d="M215.25,234.15c3.74,19.83-17.01,23.09-20.74,3.23-3.75-19.87,16.98-23.09,20.74-3.23Z"/>
  <path class="cls-5" d="M210.57,236.79q-2.97,13.46-10.73,1.66c-10.75-16.38,14.88-20.39,10.73-1.66Z"/>
  <path class="cls-2" d="M289.79,450.34c12.71,16.55-4.39,28.65-17.09,12.07-12.71-16.54,4.36-28.64,17.09-12.07Z"/>
  <path class="cls-5" d="M286.75,454.82q3.61,13.46-8.72,6.18c-17.14-10.15,3.71-24.87,8.72-6.18Z"/>
  <path class="cls-2" d="M385.54,264.43c3.85,19.28-16.25,22.66-20.12,3.39-3.87-19.29,16.26-22.66,20.12-3.39Z"/>
  <path class="cls-5" d="M381.22,267.06q-2.87,13.52-10.76,1.8c-10.96-16.24,14.64-20.55,10.76-1.8Z"/>
  <path class="cls-2" d="M438.98,222.65c5.63,19.31-14.49,24.4-20.1,5.11-5.64-19.32,14.45-24.42,20.1-5.11Z"/>
  <path class="cls-5" d="M434.7,225.68q-1.63,13.7-10.51,2.66c-12.3-15.36,12.78-21.73,10.51-2.66Z"/>
  <path class="cls-2" d="M370.12,102.99c15.8,14.44.97,29.57-14.8,15.11-15.8-14.45-.99-29.56,14.8-15.11Z"/>
  <path class="cls-5" d="M367.87,108.05q6,12.71-7.45,7.59c-18.65-7.1-.91-25.22,7.45-7.59Z"/>
  <path class="cls-2" d="M330.39,205.81c11.75,16.15-4.92,27.26-16.64,11.14-11.74-16.16,4.94-27.27,16.64-11.14Z"/>
  <path class="cls-5" d="M327.64,209.95q3.24,13.57-8.88,5.94c-16.84-10.56,4.39-24.73,8.88-5.94Z"/>
  <path class="cls-2" d="M418.55,149.91c12.53,17.17-5.24,29-17.73,11.84-12.48-17.17,5.29-29,17.73-11.84Z"/>
  <path class="cls-5" d="M415.27,154.41q3.23,13.56-8.9,5.93c-16.85-10.55,4.4-24.73,8.9-5.93Z"/>
  <path class="cls-2" d="M260.17,164.88c13.54,15.51-2.45,28.41-15.97,12.91-13.55-15.54,2.46-28.43,15.97-12.91Z"/>
  <path class="cls-5" d="M257.61,169.42q4.45,13.25-8.3,6.69c-17.73-9.09,2.08-25.07,8.3-6.69Z"/>
  <path class="cls-2" d="M318.2,141.34c13.34,15.29-2.41,28-15.74,12.7-13.34-15.26,2.43-27.96,15.74-12.7Z"/>
  <path class="cls-5" d="M315.76,145.79q4.47,13.25-8.32,6.7c-17.72-9.1,2.09-25.06,8.32-6.7Z"/>
  <path class="cls-2" d="M374.95,179.43c13.86,15.88-2.5,29.07-16.33,13.21-13.83-15.89,2.52-29.06,16.33-13.21Z"/>
  <path class="cls-5" d="M372.22,184.13q4.45,13.23-8.31,6.7c-17.74-9.1,2.08-25.08,8.31-6.7Z"/>
  <path class="cls-2" d="M435.45,300.26c-5.04,18.21-24.23,12.9-19.2-5.3,5.03-18.24,24.22-12.9,19.2,5.3Z"/>
  <path class="cls-5" d="M430.62,300.88q-8.67,10.81-10.53-2.94c-2.62-19.11,22.62-12.14,10.53,2.94Z"/>
  <path class="cls-2" d="M408.96,365.79c-1.15,19.2-21.28,17.7-20.14-1.52,1.09-19.21,21.27-17.68,20.14,1.52Z"/>
  <path class="cls-5" d="M404.22,367.33q-6.22,12.34-10.89-.84c-6.54-18.3,19.49-16.33,10.89.84Z"/>
  <path class="cls-1" d="M197.29,120.08c-46.57,12.01-79.21,11.81-111.41,46.87-36.68,39.95-56.81,90.38-44.28,141.14,19.66,79.67,200.28,178.2,231.86,194.13,49.31,24.87,101.44-.9,124.25-41.63,27.47-49.07,77.57-192.1,59.11-271.5-19.73-84.83-74.26-112.12-143.9-111.59-31.92.25-79.27,33.53-115.63,42.58Z"/>
  <path class="cls-3" d="M0,157.48c40.44,42.77,147.8,8.37,178.35-40.74C109.52,99.96,55.19,172.85,0,157.48Z"/>
  <path class="cls-3" d="M40.98,203.14c102.08-.07,101.74-69.69,137.39-86.4-64.84-4.28-135.64,45.82-137.39,86.4Z"/>
  <path class="cls-6" d="M40.98,203.14c47.07-22.32,64.24-69.11,137.39-86.4-69.43-6.74-139.03,42.97-137.39,86.4Z"/>
  <path class="cls-6" d="M348.68,19.31c3.68,57.46-93.56,105.08-149.66,90.73,34.25-58.08,123.58-42.83,149.66-90.73Z"/>
  <path class="cls-3" d="M172.27,115.41c19.87,9.8,36.03-7.82,36.03-7.82-22.85-13.09-31.01-71.56-76.73-107.13-3.31-2.57-15.52,6.46-14.22,7.75,11.72,11.54,63.16,71.36,54.93,107.2Z"/>
  <path class="cls-3" d="M149.77,228.21c39.55-13.79,66.07-84.03,44.92-115.31-59.78,10.15-59.34,76.44-44.92,115.31Z"/>
  <path class="cls-6" d="M149.77,228.21c4.39-43.21,5.15-91.07,44.92-115.31-68.16,2.44-84.15,72.23-44.92,115.31Z"/>
  <path class="cls-6" d="M358.47,77.04c-70.3,68.88-120.02,20.8-156.56,33.38,41.56-46.72,126.24-60.09,156.56-33.38Z"/>
  <path class="cls-3" d="M358.47,77.04c-48.42,16.44-93.8-4.12-156.56,33.38,42.94-51.51,126.54-64.34,156.56-33.38Z"/>
  <path class="cls-6" d="M265.04,143.6s-16.77-31.22-59.57-40.58c-50.64,31.02,39.42,69.13,59.57,40.58Z"/>
  <path class="cls-3" d="M273.99,130.91c-15.87-7.58-30.43-32.89-68.52-27.89,18.82,7.03,45.16,63.58,68.52,27.89Z"/>
  <path class="cls-6" d="M204.67,143.32c52.87,37.96,92.53-11.09,62.32-25.45,1.6,23.55-15.63,37.92-62.32,25.45Z"/>
</svg>