<?xml version="1.0" encoding="UTF-8"?>
<svg id="Layer_1" data-name="Layer 1" xmlns="http://www.w3.org/2000/svg" xmlns:xlink="http://www.w3.org/1999/xlink" viewBox="0 0 512.01 512">
  <defs>
    <style>
      .cls-1 {
        fill: #947365;
      }

      .cls-2 {
        fill: url(#radial-gradient-7);
      }

      .cls-3 {
        fill: url(#radial-gradient-6);
      }

      .cls-4 {
        fill: url(#radial-gradient-5);
      }

      .cls-5 {
        fill: url(#radial-gradient-4);
      }

      .cls-6 {
        fill: url(#radial-gradient-9);
      }

      .cls-7 {
        fill: url(#radial-gradient-8);
      }

      .cls-8 {
        fill: url(#radial-gradient-3);
      }

      .cls-9 {
        fill: url(#radial-gradient-2);
      }

      .cls-10 {
        fill: #ab735b;
      }

      .cls-11 {
        fill: #449c00;
      }

      .cls-12 {
        fill: url(#radial-gradient);
      }

      .cls-13 {
        fill: #56ab15;
      }

      .cls-14 {
        fill: #529320;
      }

      .cls-15 {
        fill: #5fbd17;
      }
    </style>
    <radialGradient id="radial-gradient" cx="53.84" cy="-40.67" fx="53.84" fy="-40.67" r="165.37" gradientTransform="translate(255.56 269.11) rotate(-20.27) scale(.97 -.99) skewX(.55)" gradientUnits="userSpaceOnUse">
      <stop offset=".4" stop-color="#e60026"/>
      <stop offset=".62" stop-color="#e30026"/>
      <stop offset=".76" stop-color="#db0024"/>
      <stop offset=".88" stop-color="#c02"/>
      <stop offset=".98" stop-color="#b7001f"/>
      <stop offset="1" stop-color="#b3001e"/>
    </radialGradient>
    <radialGradient id="radial-gradient-2" cx="32.01" cy="-1029.88" fx="32.01" fy="-1029.88" r="64.1" gradientTransform="translate(149.07 -166.97) rotate(-20.27) scale(1.06 -.44) skewX(.23)" gradientUnits="userSpaceOnUse">
      <stop offset="0" stop-color="#b30100"/>
      <stop offset="1" stop-color="#c21413" stop-opacity="0"/>
    </radialGradient>
    <radialGradient id="radial-gradient-3" cx="112.65" cy="2359.31" fx="112.65" fy="2359.31" r="38.87" gradientTransform="translate(-970.8102 -1777.3164) rotate(-28.1167) scale(1.0206 1.0436) skewX(3.9569)" gradientUnits="userSpaceOnUse">
      <stop offset="0" stop-color="#ff7a70" stop-opacity=".65"/>
      <stop offset="1" stop-color="#ff7a70" stop-opacity="0"/>
    </radialGradient>
    <radialGradient id="radial-gradient-4" cx="-156.89" cy="2886.06" fx="-156.89" fy="2886.06" r="60.14" gradientTransform="translate(-869.7054 -1405.0851) rotate(-23.9521) scale(1.0065 .7124) skewX(11.0421)" gradientUnits="userSpaceOnUse">
      <stop offset="0" stop-color="#ff7a70" stop-opacity=".65"/>
      <stop offset="1" stop-color="#ff7a70" stop-opacity="0"/>
    </radialGradient>
    <radialGradient id="radial-gradient-5" cx="147.88" cy="193.74" fx="147.88" fy="193.74" r="181.39" gradientTransform="translate(-14.56 503.17) scale(.97 -.99)" gradientUnits="userSpaceOnUse">
      <stop offset=".4" stop-color="#e60026"/>
      <stop offset=".62" stop-color="#e30026"/>
      <stop offset=".76" stop-color="#db0024"/>
      <stop offset=".88" stop-color="#c02"/>
      <stop offset=".98" stop-color="#b7001f"/>
      <stop offset="1" stop-color="#b3001e"/>
    </radialGradient>
    <radialGradient id="radial-gradient-6" cx="120.85" cy="-431.09" fx="120.85" fy="-431.09" r="70.29" gradientTransform="translate(32.37 87.06) scale(1.05 -.44)" gradientUnits="userSpaceOnUse">
      <stop offset="0" stop-color="#b30100"/>
      <stop offset="1" stop-color="#c21413" stop-opacity="0"/>
    </radialGradient>
    <radialGradient id="radial-gradient-7" cx="204.63" cy="1947.59" fx="204.63" fy="1947.59" r="44.48" gradientTransform="translate(-477.9002 -1663.6516) rotate(-5.5888) scale(1.0207 1.0436) skewX(3.9568)" gradientUnits="userSpaceOnUse">
      <stop offset="0" stop-color="#ff7a70" stop-opacity=".65"/>
      <stop offset="1" stop-color="#ff7a70" stop-opacity="0"/>
    </radialGradient>
    <radialGradient id="radial-gradient-8" cx="-441.23" cy="2195.89" fx="-441.23" fy="2195.89" r="44.44" gradientTransform="translate(-602.9811 -1848.1395) rotate(-19.3654) scale(1.6532 1.0608) skewX(12.1449)" gradientUnits="userSpaceOnUse">
      <stop offset="0" stop-color="#ff5e52" stop-opacity=".65"/>
      <stop offset="1" stop-color="#ff5e52" stop-opacity="0"/>
    </radialGradient>
    <radialGradient id="radial-gradient-9" cx="357.85" cy="472.84" fx="357.85" fy="472.84" r="56.77" gradientTransform="translate(-14.56 476.82) scale(.97 -.97)" gradientUnits="userSpaceOnUse">
      <stop offset=".11" stop-color="#56ab15"/>
      <stop offset=".11" stop-color="#56aa15"/>
      <stop offset=".32" stop-color="#645d25"/>
      <stop offset=".42" stop-color="#693f2b"/>
    </radialGradient>
  </defs>
  <path class="cls-12" d="M325.95,221.51c-10.98,4.05-140.45,7.79-109.03,130.16,54.49,212.15,375.34,82.48,276.22-102.02-60.37-112.37-156.19-32.19-167.19-28.13Z"/>
  <path class="cls-9" d="M337.12,256.9c34.14-12.61,26.35-28.06,103.86-58.67-49.42-4.77-186.34,45.92-220.83,81.55,79-27.26,82.81-10.27,116.98-22.88Z"/>
  <path class="cls-14" d="M270.13,51.6c-4.17,4.14-8.81,7.14-13.52,10.61-3.86,105.86,58.57,170.5,80.53,194.69,0,0,10-2.43,18.12-9.07-21.03-23.19-91.06-91.13-85.13-196.22Z"/>
  <path class="cls-8" d="M472.75,243.06c-11.89-19.03-37.18-26.1-56.48-15.78-19.32,10.32-25.34,34.11-13.44,53.13,11.88,19.02,37.18,26.09,56.48,15.77,19.31-10.3,25.32-34.09,13.44-53.12Z"/>
  <path class="cls-5" d="M394.19,283.15c-15.57-18.98-52.98-23.37-83.55-9.79-30.58,13.59-42.75,39.98-27.15,58.98,15.57,19,53,23.37,83.57,9.8,30.56-13.59,42.74-39.99,27.13-58.99Z"/>
  <path class="cls-4" d="M161.47,244.1c-12.83,0-147.67-45.43-160.52,92.64-22.25,239.41,356.38,227.9,322.42,0-20.67-138.79-149.07-92.64-161.89-92.64Z"/>
  <path class="cls-3" d="M159.9,284.82c39.86,0,37.52-18.9,128.73-20.94-49.16-23.72-209.04-23.61-257.76,0,91.52,1.99,89.12,20.95,129.03,20.95Z"/>
  <path class="cls-13" d="M356.23,6.95c-153.74,32.7-205.13,174.39-205.13,277.53,0,0,9.39,1.25,17.63,0,0-122.52,64.07-237.75,187.5-267.01V6.95Z"/>
  <path class="cls-2" d="M109.71,321.24c-4.22-25.34-27.86-43.92-52.81-41.46-24.96,2.43-41.76,24.96-37.55,50.29,4.23,25.35,27.88,43.91,52.83,41.47,24.95-2.44,41.76-24.96,37.53-50.31Z"/>
  <path class="cls-7" d="M287.49,307.68c-16.87-21.69-61.63-28.35-99.93-14.88-38.32,13.46-55.7,41.95-38.82,63.64,16.91,21.68,61.64,28.35,99.95,14.87,38.32-13.45,55.69-41.94,38.8-63.63Z"/>
  <path class="cls-6" d="M383.46,0c-25.89,0-38.96,6.95-55.09,14.39,3.74,3.08,4.31,7.72,5.7,9.36,8.17,3.19,26.7-5.21,47.1,0,10.63,2.72,12.19-23.75,2.29-23.75Z"/>
  <path class="cls-10" d="M366.61,19.75c-5.91,9.66-16.69,3.5-14.99-.97,4.22-1.75,9.52,3.42,14.99.97Z"/>
  <path class="cls-10" d="M367.2,11.77c-.51-11.14,11.39-11.46,12.45-6.82-1.54,3.32-9.42,1.97-12.45,6.82Z"/>
  <path class="cls-1" d="M345.75,15.68c1.05-12.14,15.78-14.27,16.39-9.34-5.91-1.14-10.44,8.47-16.39,9.34Z"/>
  <path class="cls-1" d="M382.06,23.35c-9.93,4.14-12.33-6.15-8.36-8.62,1.06,3.13,8.36,4.79,8.36,8.62Z"/>
  <path class="cls-11" d="M333.45,21.57c-29.26,196.54,176.95,234.21,176.95,234.21,0,0-101.4-181.59-176.95-234.21Z"/>
  <path class="cls-13" d="M333.45,21.57c67.08,61.55,176.95,234.21,176.95,234.21,0,0,30.71-212.43-176.95-234.21Z"/>
  <path class="cls-15" d="M352.56,40.76c15.55-2.19,31.65-.41,46.76,3.48,15.05,4.15,29.26,10.9,40.78,20.21-12.76-7.89-26.62-14.31-41.52-18.17-7.37-2.09-14.99-3.47-22.69-4.41-7.69-.9-15.52-1.45-23.33-1.1Z"/>
  <path class="cls-15" d="M378.88,71.11c17.56-2.95,36.03-1.09,52.98,4.01,8.44,2.7,16.51,6.26,23.91,10.71,7.34,4.48,13.97,9.8,19.69,15.73-12.82-10.73-27.74-19.44-44.43-24.44-8.26-2.66-16.9-4.39-25.64-5.4-8.75-.96-17.66-1.36-26.52-.61Z"/>
  <path class="cls-15" d="M405.83,105.28c17.71-.72,35.56,2.72,51.79,9.04,8.04,3.33,15.73,7.41,22.51,12.45,6.82,4.99,12.64,10.96,17.39,17.43-10.96-12.03-24.95-21.73-40.93-27.96-7.87-3.28-16.23-5.64-24.74-7.49-8.52-1.77-17.21-3.08-26.03-3.47Z"/>
  <path class="cls-15" d="M436.06,146.28c14.18,1.77,27.78,6.39,40.25,12.61,6.11,3.26,12.01,6.91,17.22,11.23,5.28,4.25,9.77,9.19,13.47,14.5-8.89-9.69-19.74-17.75-31.96-23.9-6-3.22-12.41-5.86-18.9-8.28-6.52-2.37-13.19-4.53-20.08-6.16Z"/>
  <path class="cls-15" d="M463.66,185.57c10.37,2.92,19.78,8.08,28.1,14.26,4.04,3.21,7.85,6.68,11.01,10.58,3.21,3.86,5.75,8.13,7.54,12.58-5.31-8.23-12.08-15.49-20.17-21.57-3.92-3.16-8.25-5.91-12.66-8.57-4.43-2.6-9.01-5.1-13.82-7.27Z"/>
  <path class="cls-13" d="M352.56,40.76c-9.27,11.56-14.2,25.52-16.23,39.72-1.73,14.28-.06,29.18,5.72,43.15-3.64-14.29-5.03-28.72-3.06-42.74.77-7.04,2.45-13.9,4.71-20.63,2.31-6.71,5.06-13.32,8.86-19.51Z"/>
  <path class="cls-13" d="M378.88,71.11c-11.79,13.91-18.7,30.79-21.29,47.82-1.11,8.55-1.1,17.17.25,25.61,1.36,8.4,4.03,16.55,7.81,24.21-5.64-15.98-8.02-32.87-5.46-49.64,1.07-8.37,3.41-16.64,6.51-24.68,3.18-8.05,7.06-15.96,12.18-23.32Z"/>
  <path class="cls-13" d="M405.83,105.28c-9.75,15.36-15.22,32.6-16.83,49.63-.56,8.52-.17,17.03,1.69,25.11,1.77,8.12,5.1,15.76,9.51,22.65-7.11-14.72-10.19-31.14-8.64-47.86.56-8.36,2.33-16.74,4.71-25.03,2.46-8.31,5.49-16.53,9.58-24.51Z"/>
  <path class="cls-13" d="M436.06,146.28c-6.38,12.76-9.6,26.41-10.53,39.84-.26,6.71.02,13.41,1.33,19.84,1.24,6.46,3.58,12.61,6.76,18.24-4.57-12.1-6.4-25.06-5.54-38.26.24-6.59,1.29-13.22,2.6-19.84,1.39-6.62,3.09-13.25,5.38-19.82Z"/>
  <path class="cls-13" d="M463.66,185.57c-2.79,11.06-2.67,22.13-.87,32.55,1.11,5.13,2.6,10.16,4.92,14.73,2.22,4.63,5.31,8.73,8.98,12.23-5.66-8.33-9.49-17.72-11.3-27.88-1.11-5-1.56-10.24-1.86-15.5-.26-5.3-.28-10.66.13-16.13Z"/>
</svg>