<?xml version="1.0" encoding="UTF-8"?>
<svg id="Layer_1" data-name="Layer 1" xmlns="http://www.w3.org/2000/svg" xmlns:xlink="http://www.w3.org/1999/xlink" viewBox="0 0 460.81 512">
  <defs>
    <style>
      .cls-1 {
        fill: url(#radial-gradient-6);
      }

      .cls-2 {
        fill: url(#radial-gradient-5);
      }

      .cls-3 {
        fill: url(#radial-gradient-4);
      }

      .cls-4 {
        fill: url(#radial-gradient-3);
      }

      .cls-5 {
        fill: url(#radial-gradient-2);
      }

      .cls-6 {
        fill: url(#radial-gradient);
      }

      .cls-7 {
        fill: url(#linear-gradient);
      }

      .cls-8 {
        fill: #900;
        opacity: .5;
      }

      .cls-8, .cls-9, .cls-10 {
        isolation: isolate;
      }

      .cls-11 {
        fill: #d45309;
      }

      .cls-12 {
        fill: #d12a00;
      }

      .cls-13 {
        fill: #ffc85f;
      }

      .cls-14 {
        fill: #ffc17a;
      }

      .cls-9 {
        opacity: .1;
      }

      .cls-9, .cls-10 {
        fill: #fff;
      }

      .cls-10 {
        opacity: .3;
      }
    </style>
    <linearGradient id="linear-gradient" x1="-374.73" y1="-1.73" x2="93.84" y2="-1.73" gradientTransform="translate(210.13 186.99) rotate(-44.91) scale(1 -1) skewX(-.19)" gradientUnits="userSpaceOnUse">
      <stop offset="0" stop-color="#ffdc91"/>
      <stop offset="1" stop-color="#ffd06b"/>
    </linearGradient>
    <radialGradient id="radial-gradient" cx="372.57" cy="770.97" fx="372.57" fy="770.97" r="66.58" gradientTransform="translate(-378.56 714.19) rotate(26.91) scale(1 -.93) skewX(-.07)" gradientUnits="userSpaceOnUse">
      <stop offset=".64" stop-color="#b50000"/>
      <stop offset=".71" stop-color="#b90804"/>
      <stop offset=".82" stop-color="#c31d0e"/>
      <stop offset=".95" stop-color="#d43f20"/>
      <stop offset="1" stop-color="#db4d27"/>
    </radialGradient>
    <radialGradient id="radial-gradient-2" cx="122.78" cy="397.85" fx="122.78" fy="397.85" r="69.81" gradientTransform="translate(-39.85 501.66) rotate(4.99) scale(1 -.89) skewX(-.01)" gradientUnits="userSpaceOnUse">
      <stop offset=".64" stop-color="#b50000"/>
      <stop offset=".71" stop-color="#b90804"/>
      <stop offset=".82" stop-color="#c31d0e"/>
      <stop offset=".95" stop-color="#d43f20"/>
      <stop offset="1" stop-color="#db4d27"/>
    </radialGradient>
    <radialGradient id="radial-gradient-3" cx="-261.44" cy="-222.57" fx="-261.44" fy="-222.57" r="58.68" gradientTransform="translate(280.44 20.24) rotate(-27.51) scale(1.01 -.93) skewX(.18)" gradientUnits="userSpaceOnUse">
      <stop offset=".64" stop-color="#b50000"/>
      <stop offset=".71" stop-color="#b90804"/>
      <stop offset=".82" stop-color="#c31d0e"/>
      <stop offset=".95" stop-color="#d43f20"/>
      <stop offset="1" stop-color="#db4d27"/>
    </radialGradient>
    <radialGradient id="radial-gradient-4" cx="234.33" cy="1104.5" fx="234.33" fy="1104.5" r="335.99" gradientTransform="translate(-185.17 385.23) rotate(28.65) scale(1.02 -.36) skewX(1.21)" gradientUnits="userSpaceOnUse">
      <stop offset=".4" stop-color="#b55923"/>
      <stop offset=".51" stop-color="#ce7633"/>
      <stop offset=".67" stop-color="#f29f49"/>
      <stop offset=".76" stop-color="#ffae52"/>
    </radialGradient>
    <radialGradient id="radial-gradient-5" cx="9.07" cy="283.04" fx="9.07" fy="283.04" r="36.28" gradientTransform="translate(0 693.31) scale(1 -1.24)" gradientUnits="userSpaceOnUse">
      <stop offset=".64" stop-color="#b50000"/>
      <stop offset=".71" stop-color="#b90804"/>
      <stop offset=".82" stop-color="#c31d0e"/>
      <stop offset=".95" stop-color="#d43f20"/>
      <stop offset="1" stop-color="#db4d27"/>
    </radialGradient>
    <radialGradient id="radial-gradient-6" cx="276.81" cy="1069.72" fx="276.81" fy="1069.72" r="48.63" gradientTransform="translate(-1075.1973 799.7923) rotate(60.4134) scale(1.0011 -1.1084) skewX(-.0809)" gradientUnits="userSpaceOnUse">
      <stop offset=".64" stop-color="#b50000"/>
      <stop offset=".71" stop-color="#b90804"/>
      <stop offset=".82" stop-color="#c31d0e"/>
      <stop offset=".95" stop-color="#d43f20"/>
      <stop offset="1" stop-color="#db4d27"/>
    </radialGradient>
  </defs>
  <path class="cls-11" d="M31.56,72.1c178.67,142.52,375.73,216.15,375.73,216.15C449,95.26,68.88-22.72,31.56,72.1Z"/>
  <path class="cls-7" d="M31.56,72.1c.2,32.26-15.3,82.34-13.53,118.56,2.08,42.33-1.86,100.65-1.86,100.65l-7.81,101.57c-9.53,93.62-14.6,133.42,5.56,114.53,10.73-10.05,26.95-22.22,26.95-22.22l103.77-64.04s42.81-19.23,62-29.93c14.72-8.21,35.58-24.76,66.88-37.03,25.02-9.8,40.46-20.5,61.87-29.83,43.63-19.05,56.53-30.48,71.88-36.11-9.61-12.62-15.68-44.07-27.91-51.75-12.25-7.71-25.67-33.57-35.6-38.54-16.5-8.24-16.98-35.81-34.91-42.56-17.41-6.57-24.98-27.84-53.79-33.14-16.86-3.1-29.57-26.7-61.83-29.52-16.36-1.43-5.65-5.76-49.06-11.96-14.16-2.03-21.29-16.18-44.65-11.55-12.95,2.54-23.87-4.87-43.9,2.94-11.78,4.62-20.71,1.75-24.06-.05Z"/>
  <path class="cls-12" d="M212.42,213.37c32.09-88.66,185.18-4.35,127.07,66.61-57.93,70.75-157.93,18.69-127.07-66.61Z"/>
  <path class="cls-6" d="M215.65,215.1c30.11-83.21,173.75-4.08,119.22,62.49-54.34,66.37-148.18,17.53-119.22-62.49Z"/>
  <path class="cls-12" d="M46.49,126.97c50.65-84.99,191.88-5.7,130.56,68.45C117.16,267.8.02,204.96,46.49,126.97Z"/>
  <path class="cls-5" d="M50.13,127.47c47.89-80.39,181.51-5.39,123.52,64.76-56.68,68.46-167.48,9.04-123.52-64.76Z"/>
  <path class="cls-12" d="M76.98,324.57c6.16-79.43,133.02-77.47,126.86,1.95-6.17,79.43-133.03,77.47-126.86-1.95Z"/>
  <path class="cls-4" d="M81.43,324.62c5.85-75.23,125.99-73.39,120.15,1.85-5.84,75.21-125.98,73.38-120.15-1.85Z"/>
  <path class="cls-12" d="M16.16,291.32c53.44,16.93,46.89,91.71-7.81,101.56"/>
  <path class="cls-12" d="M40.88,485.19s101.33-58.52,103.77-64.04c-48.14-56.31-142.91,4.35-103.77,64.04Z"/>
  <path class="cls-13" d="M217.77,147.29c15.08-8.93,29.85,11.59,14.75,20.51-15.1,8.97-29.83-11.57-14.75-20.51Z"/>
  <path class="cls-13" d="M271.82,147.18c13.98-8.27,27.62,10.74,13.67,19-13.95,8.26-27.61-10.75-13.67-19Z"/>
  <path class="cls-14" d="M200.1,129.79c9.89-5.85,19.58,7.61,9.69,13.5-9.9,5.86-19.58-7.63-9.69-13.5Z"/>
  <path class="cls-13" d="M370.76,249.54c11.34-6.72,22.49,8.76,11.08,15.48-11.34,6.74-22.48-8.72-11.08-15.48Z"/>
  <path class="cls-13" d="M171.57,246.6c-15.85-8.64-1.58-30.23,14.3-21.6,15.86,8.66,1.58,30.25-14.3,21.6Z"/>
  <path class="cls-13" d="M41.51,93.95c-10.41-5.67-1.02-19.87,9.39-14.18,10.41,5.67,1.02,19.86-9.39,14.18Z"/>
  <path class="cls-13" d="M201.62,191.89c-7.36-4.01-.73-14.03,6.61-10.04,7.39,4.04.78,14.07-6.61,10.04Z"/>
  <path class="cls-13" d="M57.65,276.74c6.93-10.91,24.94-1.47,17.99,9.43-6.91,10.89-24.92,1.45-17.99-9.43Z"/>
  <path class="cls-13" d="M224.76,320.22c7.86-12.38,28.27-1.68,20.42,10.67-7.86,12.37-28.26,1.67-20.42-10.67Z"/>
  <path class="cls-13" d="M36.27,246.86c7.25-11.41,26.15-1.5,18.89,9.92-7.27,11.43-26.19,1.53-18.89-9.92Z"/>
  <path class="cls-13" d="M208.56,358.34c3.65-5.75,13.12-.8,9.46,4.95-3.63,5.73-13.12.77-9.46-4.95Z"/>
  <path class="cls-13" d="M148.86,245.42c4.69-7.39,16.89-.97,12.22,6.37-4.71,7.41-16.94,1.01-12.22-6.37Z"/>
  <path class="cls-13" d="M95.94,246.36c3.34-5.22,11.98-.71,8.64,4.52-3.35,5.23-11.96.69-8.64-4.52Z"/>
  <path class="cls-13" d="M57.79,367.03c6.83-10.72,24.56-1.46,17.72,9.29-6.8,10.71-24.54,1.43-17.72-9.29Z"/>
  <path class="cls-13" d="M17.08,405.47c5.08-7.99,18.28-1.05,13.19,6.92-5.08,7.98-18.25,1.08-13.19-6.92Z"/>
  <path class="cls-3" d="M31.56,72.1c33.73-10.87,55.46-6.56,68.72-8.09,28.94-3.37,55.65,13.56,79.31,16.75,26.49,3.54,31.89,15.68,63.88,24.07,11.96,3.13,37.26,21.44,59.03,34.14,15.89,9.28,25.48,34.68,41.43,45.53,18.02,12.27,25.12,38.5,39.58,51.34,15.54,13.82,19.58,35.4,23.78,52.4,0,0,60.77-19.13,52.8-47.85-47.46-124.79-134.01-171.7-178.4-189.24C245.45,36.83,146.54-20.1,56.98,7.4-2,34.16,31.56,72.1,31.56,72.1Z"/>
  <path class="cls-2" d="M15.65,298.19c-6.98,44.55-7.3,94.7-7.3,94.7,46.16-9.92,56.8-77.65,7.3-94.7Z"/>
  <path class="cls-1" d="M42.67,482.72s51.64-37.63,99.11-60.62c-47.18-54.44-132.15,3.4-99.11,60.62Z"/>
  <path class="cls-9" d="M135.59,180.26c-15.86-8.62-1.59-30.22,14.28-21.6,15.86,8.66,1.59,30.26-14.28,21.6Z"/>
  <path class="cls-9" d="M86.2,136.95c6.93-10.89,24.91-1.45,17.99,9.47-6.92,10.88-24.91,1.43-17.99-9.47Z"/>
  <path class="cls-9" d="M71.59,167.56c7.42-11.65,26.7-1.55,19.29,10.13-7.42,11.68-26.73,1.57-19.29-10.13Z"/>
  <path class="cls-10" d="M156.2,148.98c3.34-5.23,11.97-.71,8.65,4.52-3.35,5.24-11.99.7-8.65-4.52Z"/>
  <path class="cls-10" d="M106.18,170.37c3.34-5.23,11.97-.71,8.65,4.52-3.35,5.23-11.99.69-8.65-4.52Z"/>
  <path class="cls-10" d="M76.31,129.86c1.55-2.45,5.59-.33,4.04,2.12-1.56,2.43-5.6.32-4.04-2.12Z"/>
  <path class="cls-10" d="M157.53,121.6c1.55-2.45,5.59-.33,4.04,2.11-1.56,2.44-5.6.32-4.04-2.11Z"/>
  <path class="cls-10" d="M131.32,187.96c1.55-2.45,5.59-.33,4.04,2.11-1.56,2.45-5.59.33-4.04-2.11Z"/>
  <path class="cls-10" d="M93.17,190.1c1.55-2.45,5.59-.33,4.04,2.12-1.56,2.44-5.59.32-4.04-2.12Z"/>
  <path class="cls-10" d="M59.84,178.76c1.55-2.45,5.59-.33,4.04,2.12-1.56,2.44-5.6.32-4.04-2.12Z"/>
  <path class="cls-10" d="M82.65,208.36c1.55-2.45,5.59-.33,4.04,2.11-1.56,2.44-5.6.32-4.04-2.11Z"/>
  <path class="cls-9" d="M43.86,172.98c3.34-5.23,11.97-.71,8.65,4.52-3.35,5.24-11.98.69-8.65-4.52Z"/>
  <path class="cls-10" d="M80.34,113.66c3.34-5.23,11.97-.71,8.65,4.52-3.35,5.23-11.99.69-8.65-4.52Z"/>
  <path class="cls-9" d="M119.2,103.39c3.34-5.23,11.97-.71,8.65,4.52-3.35,5.24-11.99.7-8.65-4.52Z"/>
  <path class="cls-10" d="M120.96,135.44c3.34-5.23,11.97-.71,8.65,4.52-3.35,5.23-11.99.69-8.65-4.52Z"/>
  <path class="cls-10" d="M145.03,194.86c3.34-5.23,11.97-.71,8.65,4.52-3.35,5.24-11.99.7-8.65-4.52Z"/>
  <path class="cls-10" d="M48.67,150.71c3.34-5.23,11.97-.71,8.65,4.52-3.35,5.24-11.98.69-8.65-4.52Z"/>
  <path class="cls-8" d="M56.64,138.25c3.34-5.23,11.97-.71,8.65,4.52-3.35,5.23-11.98.69-8.65-4.52Z"/>
  <path class="cls-8" d="M98.3,105.84c3.34-5.23,11.97-.71,8.65,4.52-3.35,5.24-11.99.7-8.65-4.52Z"/>
  <path class="cls-8" d="M136.8,115.01c3.34-5.23,11.97-.71,8.65,4.52-3.35,5.23-11.99.69-8.65-4.52Z"/>
  <path class="cls-8" d="M142.32,138.25c3.34-5.23,11.97-.71,8.65,4.52-3.35,5.23-11.98.69-8.65-4.52Z"/>
  <path class="cls-8" d="M169.33,139.41c3.34-5.23,11.97-.71,8.65,4.52-3.35,5.24-11.99.7-8.65-4.52Z"/>
  <path class="cls-8" d="M165.96,170.37c3.34-5.23,11.97-.71,8.65,4.52-3.35,5.23-11.98.69-8.65-4.52Z"/>
  <path class="cls-8" d="M119.19,196.84c3.34-5.23,11.97-.71,8.65,4.52-3.35,5.23-11.98.7-8.65-4.52Z"/>
  <path class="cls-8" d="M103.77,209.28c3.34-5.23,11.97-.71,8.65,4.52-3.35,5.23-11.98.69-8.65-4.52Z"/>
  <path class="cls-8" d="M66.8,195.53c3.34-5.23,11.97-.71,8.65,4.52-3.35,5.24-11.99.69-8.65-4.52Z"/>
  <path class="cls-8" d="M111.16,155.55c3.34-5.23,11.97-.71,8.65,4.52-3.35,5.23-11.98.69-8.65-4.52Z"/>
  <path class="cls-8" d="M62.61,122.27c3.34-5.23,11.97-.71,8.65,4.52-3.35,5.23-11.99.69-8.65-4.52Z"/>
  <path class="cls-9" d="M302.02,245.64c-16.84,5.5-22.96-18-6.14-23.48,16.86-5.46,23,18.02,6.14,23.48Z"/>
  <path class="cls-9" d="M230.25,241.62c-3.29-11.66,15.56-18.09,18.87-6.41,3.27,11.65-15.58,18.08-18.87,6.41Z"/>
  <path class="cls-9" d="M259.95,277.86c-3.5-12.48,16.68-19.39,20.22-6.9,3.52,12.49-16.68,19.41-20.22,6.9Z"/>
  <path class="cls-10" d="M309.8,213.09c-1.57-5.6,7.48-8.7,9.06-3.1,1.55,5.61-7.5,8.69-9.06,3.1Z"/>
  <path class="cls-10" d="M285.82,261.12c-1.58-5.61,7.47-8.71,9.05-3.11,1.56,5.61-7.49,8.7-9.05,3.11Z"/>
  <path class="cls-10" d="M262.92,227.71c-.73-2.62,3.48-4.07,4.22-1.45.73,2.61-3.5,4.06-4.22,1.45Z"/>
  <path class="cls-10" d="M248.12,214.76c-.73-2.62,3.48-4.06,4.22-1.44.73,2.62-3.5,4.05-4.22,1.44Z"/>
  <path class="cls-10" d="M269.06,187.04c-.73-2.62,3.48-4.05,4.22-1.44.73,2.63-3.5,4.06-4.22,1.44Z"/>
  <path class="cls-10" d="M321.62,225.6c-.73-2.62,3.48-4.06,4.22-1.45.73,2.61-3.5,4.05-4.22,1.45Z"/>
  <path class="cls-10" d="M276.55,289.58c-.73-2.62,3.48-4.06,4.22-1.44s-3.49,4.05-4.22,1.44Z"/>
  <path class="cls-10" d="M253.65,294.22c-.74-2.61,3.48-4.06,4.22-1.45.73,2.62-3.5,4.06-4.22,1.45Z"/>
  <path class="cls-10" d="M247.59,273.03c-.73-2.62,3.48-4.06,4.22-1.44.73,2.62-3.5,4.05-4.22,1.44Z"/>
  <path class="cls-10" d="M330.32,265.47c-.73-2.62,3.48-4.06,4.23-1.45.72,2.63-3.5,4.07-4.23,1.45Z"/>
  <path class="cls-10" d="M218.67,226.11c-.73-2.62,3.48-4.06,4.23-1.45.72,2.62-3.51,4.06-4.23,1.45Z"/>
  <path class="cls-9" d="M216.26,239.96c-1.59-5.61,7.47-8.7,9.04-3.11,1.56,5.61-7.48,8.7-9.04,3.11Z"/>
  <path class="cls-9" d="M237.94,198.87c-1.57-5.61,7.48-8.71,9.05-3.11,1.57,5.61-7.48,8.7-9.05,3.11Z"/>
  <path class="cls-10" d="M314.51,258.21c-1.59-5.61,7.47-8.71,9.05-3.11,1.56,5.61-7.49,8.69-9.05,3.11Z"/>
  <path class="cls-10" d="M278.13,196.14c-1.58-5.61,7.48-8.7,9.05-3.11,1.56,5.61-7.5,8.7-9.05,3.11Z"/>
  <path class="cls-10" d="M228.23,280.67c-1.57-5.6,7.47-8.7,9.05-3.11,1.56,5.61-7.5,8.7-9.05,3.11Z"/>
  <path class="cls-8" d="M255.02,198.68c-1.57-5.61,7.48-8.7,9.05-3.11,1.56,5.61-7.49,8.7-9.05,3.11Z"/>
  <path class="cls-8" d="M279.25,220.17c-1.57-5.6,7.48-8.7,9.05-3.1,1.56,5.61-7.49,8.7-9.05,3.1Z"/>
  <path class="cls-8" d="M294.44,198.67c-1.58-5.61,7.48-8.7,9.05-3.11,1.55,5.61-7.49,8.7-9.05,3.11Z"/>
  <path class="cls-8" d="M327.91,237.36c-1.58-5.61,7.47-8.71,9.05-3.11,1.57,5.61-7.49,8.7-9.05,3.11Z"/>
  <path class="cls-8" d="M312.31,279.39c-1.58-5.61,7.48-8.71,9.05-3.11,1.56,5.61-7.5,8.7-9.05,3.11Z"/>
  <path class="cls-8" d="M291.52,283.02c-1.57-5.6,7.47-8.71,9.05-3.11,1.56,5.61-7.49,8.7-9.05,3.11Z"/>
  <path class="cls-8" d="M278.57,297.95c-1.58-5.61,7.47-8.71,9.05-3.11,1.56,5.61-7.5,8.69-9.05,3.11Z"/>
  <path class="cls-8" d="M259.53,298.09c-1.57-5.6,7.48-8.7,9.06-3.1,1.55,5.6-7.49,8.69-9.06,3.1Z"/>
  <path class="cls-8" d="M265.53,245.73c-1.57-5.61,7.47-8.7,9.05-3.11,1.56,5.61-7.48,8.7-9.05,3.11Z"/>
  <path class="cls-8" d="M245.7,259.17c-1.57-5.6,7.47-8.7,9.05-3.1,1.56,5.61-7.48,8.7-9.05,3.1Z"/>
  <path class="cls-8" d="M230.44,217.68c-1.57-5.61,7.47-8.71,9.05-3.11,1.57,5.61-7.48,8.7-9.05,3.11Z"/>
  <path class="cls-8" d="M223.53,258.84c-1.57-5.6,7.47-8.7,9.05-3.1,1.56,5.61-7.5,8.7-9.05,3.1Z"/>
  <path class="cls-10" d="M16.19,350.42c-.73-2.62,3.48-4.07,4.22-1.45.73,2.62-3.5,4.06-4.22,1.45Z"/>
  <path class="cls-10" d="M30.75,366.24c-.73-2.62,3.48-4.07,4.22-1.45.73,2.62-3.5,4.06-4.22,1.45Z"/>
  <path class="cls-10" d="M36.25,337.14c-.73-2.62,3.48-4.05,4.22-1.43.73,2.61-3.5,4.04-4.22,1.43Z"/>
  <path class="cls-9" d="M13.79,365.93c-1.57-5.61,7.47-8.71,9.05-3.11,1.56,5.61-7.49,8.7-9.05,3.11Z"/>
  <path class="cls-9" d="M25.31,352.54c-2.88-10.27,13.69-15.96,16.58-5.69,2.87,10.27-13.73,15.94-16.58,5.69Z"/>
  <path class="cls-10" d="M20.09,310.6c-1.58-5.6,7.48-8.7,9.05-3.1,1.56,5.61-7.49,8.7-9.05,3.1Z"/>
  <path class="cls-8" d="M23.75,329.6c-1.58-5.6,7.47-8.7,9.05-3.1,1.57,5.61-7.48,8.7-9.05,3.1Z"/>
  <path class="cls-8" d="M13.79,383c-1.57-5.61,7.47-8.71,9.05-3.11,1.56,5.61-7.49,8.7-9.05,3.11Z"/>
  <path class="cls-9" d="M120.52,331.81c16.84-5.47,22.94,18.04,6.1,23.5-16.88,5.43-22.97-18.07-6.1-23.5Z"/>
  <path class="cls-9" d="M167.59,336.41c3.26,11.67-15.58,18.07-18.88,6.38-3.26-11.65,15.61-18.05,18.88-6.38Z"/>
  <path class="cls-9" d="M162.8,291.59c3.48,12.47-16.71,19.35-20.22,6.85-3.51-12.49,16.72-19.39,20.22-6.85Z"/>
  <path class="cls-9" d="M125.11,365.09c1.55,5.6-7.49,8.69-9.06,3.08-1.55-5.61,7.51-8.68,9.06-3.08Z"/>
  <path class="cls-10" d="M187.03,307.51c1.55,5.61-7.48,8.7-9.05,3.08-1.56-5.61,7.5-8.67,9.05-3.08Z"/>
  <path class="cls-10" d="M136.47,370.96c.73,2.62-3.49,4.05-4.23,1.43-.72-2.62,3.51-4.05,4.23-1.43Z"/>
  <path class="cls-10" d="M184.61,356.89c.73,2.62-3.49,4.06-4.22,1.44-.72-2.62,3.51-4.04,4.22-1.44Z"/>
  <path class="cls-10" d="M131.19,323.5c.73,2.62-3.49,4.06-4.22,1.44-.73-2.63,3.51-4.06,4.22-1.44Z"/>
  <path class="cls-10" d="M131.23,299.21c.73,2.61-3.49,4.06-4.22,1.44-.73-2.62,3.51-4.04,4.22-1.44Z"/>
  <path class="cls-10" d="M146.77,278.39c.73,2.62-3.49,4.07-4.23,1.45-.72-2.63,3.51-4.06,4.23-1.45Z"/>
  <path class="cls-10" d="M166.37,274.64c.73,2.61-3.49,4.05-4.22,1.43-.73-2.62,3.51-4.06,4.22-1.43Z"/>
  <path class="cls-10" d="M172.4,295.82c.73,2.62-3.5,4.07-4.23,1.44-.73-2.62,3.51-4.06,4.23-1.44Z"/>
  <path class="cls-10" d="M176.79,324.82c.73,2.62-3.49,4.06-4.22,1.45-.72-2.63,3.51-4.06,4.22-1.45Z"/>
  <path class="cls-10" d="M95.8,299.47c.73,2.62-3.49,4.05-4.23,1.44-.72-2.63,3.51-4.06,4.23-1.44Z"/>
  <path class="cls-10" d="M190.79,338.87c.73,2.62-3.49,4.07-4.22,1.45-.73-2.63,3.51-4.06,4.22-1.45Z"/>
  <path class="cls-10" d="M109.86,315.13c1.57,5.61-7.48,8.7-9.05,3.09-1.55-5.61,7.5-8.69,9.05-3.09Z"/>
  <path class="cls-10" d="M123.38,279.92c1.55,5.6-7.49,8.69-9.06,3.08-1.55-5.61,7.51-8.69,9.06-3.08Z"/>
  <path class="cls-10" d="M164.08,312.02c1.57,5.61-7.48,8.69-9.06,3.08-1.54-5.6,7.51-8.68,9.06-3.08Z"/>
  <path class="cls-10" d="M106.63,360.58c1.57,5.61-7.48,8.7-9.05,3.09-1.56-5.61,7.49-8.69,9.05-3.09Z"/>
  <path class="cls-9" d="M100.4,331.51c1.56,5.61-7.48,8.7-9.05,3.09-1.56-5.61,7.5-8.7,9.05-3.09Z"/>
  <path class="cls-8" d="M189.16,293.41c1.05,3.76-5.03,5.84-6.08,2.07-1.04-3.76,5.03-5.83,6.08-2.07Z"/>
  <path class="cls-8" d="M196.45,326.52c1.56,5.61-7.49,8.7-9.06,3.09-1.55-5.61,7.5-8.69,9.06-3.09Z"/>
  <path class="cls-8" d="M168.79,363.76c1.55,5.6-7.49,8.69-9.06,3.08-1.55-5.61,7.51-8.68,9.06-3.08Z"/>
  <path class="cls-8" d="M95.69,344.87c1.56,5.61-7.48,8.7-9.05,3.09-1.55-5.61,7.51-8.69,9.05-3.09Z"/>
  <path class="cls-8" d="M114.94,298.39c1.56,5.61-7.48,8.69-9.06,3.08-1.54-5.61,7.51-8.68,9.06-3.08Z"/>
  <path class="cls-8" d="M134.18,288.95c1.56,5.6-7.48,8.69-9.05,3.08-1.56-5.61,7.51-8.68,9.05-3.08Z"/>
  <path class="cls-8" d="M160.49,276.31c1.56,5.6-7.48,8.69-9.06,3.08-1.55-5.61,7.51-8.68,9.06-3.08Z"/>
  <path class="cls-8" d="M144.93,319.64c1.57,5.61-7.48,8.69-9.05,3.08-1.55-5.61,7.51-8.68,9.05-3.08Z"/>
  <path class="cls-8" d="M149.18,356.42c1.56,5.61-7.48,8.7-9.06,3.09-1.55-5.61,7.51-8.7,9.06-3.09Z"/>
  <path class="cls-8" d="M185.95,345.04c1.56,5.6-7.48,8.69-9.06,3.08-1.55-5.61,7.5-8.69,9.06-3.08Z"/>
  <path class="cls-9" d="M60.67,439.04c16.84-5.46,22.94,18.04,6.1,23.5-16.87,5.44-22.96-18.06-6.1-23.5Z"/>
  <path class="cls-9" d="M110.38,422.22c3.48,12.48-16.71,19.37-20.22,6.87-3.51-12.5,16.71-19.38,20.22-6.87Z"/>
  <path class="cls-10" d="M99.34,409.6c.73,2.62-3.49,4.06-4.23,1.44-.72-2.62,3.51-4.05,4.23-1.44Z"/>
  <path class="cls-10" d="M119.57,408.94c.73,2.62-3.49,4.05-4.22,1.44-.73-2.63,3.51-4.06,4.22-1.44Z"/>
  <path class="cls-10" d="M119.57,427.02c.73,2.63-3.5,4.07-4.23,1.45-.72-2.62,3.52-4.06,4.23-1.45Z"/>
  <path class="cls-10" d="M41.55,456.96c.73,2.62-3.49,4.06-4.22,1.44-.73-2.63,3.5-4.06,4.22-1.44Z"/>
  <path class="cls-9" d="M68.25,426.2c1.55,5.6-7.49,8.69-9.06,3.08-1.56-5.61,7.5-8.68,9.06-3.08Z"/>
  <path class="cls-10" d="M87.77,434.62c1.12,4.1-5.08,6.25-6.21,2.15-1.1-4.1,5.09-6.25,6.21-2.15Z"/>
  <path class="cls-8" d="M131.77,417.32c1.56,5.61-7.48,8.7-9.05,3.08-1.56-5.6,7.51-8.68,9.05-3.08Z"/>
  <path class="cls-8" d="M52.72,430.37c1.56,5.61-7.48,8.7-9.06,3.09-1.55-5.61,7.51-8.69,9.06-3.09Z"/>
  <path class="cls-8" d="M83.38,414.04c1.56,5.61-7.48,8.7-9.05,3.09-1.56-5.61,7.5-8.68,9.05-3.09Z"/>
  <path class="cls-8" d="M113.06,407.51c1.56,5.6-7.48,8.69-9.06,3.08-1.55-5.61,7.51-8.68,9.06-3.08Z"/>
  <path class="cls-14" d="M277.51,340.41c-12.97-2.17-10.7-21.92,2.29-19.78,13,2.2,10.73,21.96-2.29,19.78Z"/>
  <path class="cls-14" d="M157.01,405.06c-12.97-2.17-10.7-21.91,2.29-19.75,13,2.17,10.71,21.93-2.29,19.75Z"/>
  <path class="cls-14" d="M37.79,287.15c-6.28-1.07-5.18-10.65,1.12-9.6,6.29,1.06,5.19,10.64-1.12,9.6Z"/>
  <path class="cls-14" d="M12.55,456.96c-6.29-1.06-5.18-10.64,1.11-9.6,6.3,1.07,5.19,10.64-1.11,9.6Z"/>
  <path class="cls-14" d="M37.49,226.6c-9.79-1.66-8.07-16.56,1.72-14.93,9.82,1.66,8.1,16.58-1.72,14.93Z"/>
  <path class="cls-14" d="M91.2,268.69c-9.78-1.66-8.06-16.56,1.72-14.93,9.82,1.66,8.11,16.59-1.72,14.93Z"/>
  <path class="cls-14" d="M250.76,143.11c-7.08-1.19-5.84-11.99,1.25-10.83,7.1,1.22,5.86,12.01-1.25,10.83Z"/>
  <path class="cls-13" d="M197.27,121.02c-12.98-2.19-10.71-21.95,2.29-19.78,12.99,2.2,10.71,21.96-2.29,19.78Z"/>
  <path class="cls-14" d="M72.45,87.43c-8.86-1.5-7.3-15.02,1.57-13.54,8.89,1.5,7.34,15.03-1.57,13.54Z"/>
  <path class="cls-14" d="M365.22,288.18c-8.82-1.5-7.29-14.93,1.55-13.45s7.28,14.9-1.55,13.45Z"/>
  <path class="cls-14" d="M196.39,274.08c-7.01-1.18-5.79-11.84,1.24-10.68,7.02,1.17,5.78,11.85-1.24,10.68Z"/>
</svg>