<?xml version="1.0" encoding="UTF-8"?>
<svg id="Layer_1" data-name="Layer 1" xmlns="http://www.w3.org/2000/svg" xmlns:xlink="http://www.w3.org/1999/xlink" viewBox="0 0 443.73 512">
  <defs>
    <style>
      .cls-1 {
        fill: url(#radial-gradient);
      }

      .cls-1, .cls-2, .cls-3, .cls-4, .cls-5, .cls-6, .cls-7, .cls-8, .cls-9, .cls-10, .cls-11, .cls-12, .cls-13, .cls-14, .cls-15, .cls-16, .cls-17 {
        fill-rule: evenodd;
      }

      .cls-18 {
        fill: url(#linear-gradient-3);
      }

      .cls-19 {
        fill: url(#linear-gradient-2);
      }

      .cls-2 {
        fill: url(#radial-gradient-11);
      }

      .cls-3 {
        fill: url(#radial-gradient-10);
      }

      .cls-4 {
        fill: url(#radial-gradient-15);
      }

      .cls-5 {
        fill: url(#radial-gradient-12);
      }

      .cls-6 {
        fill: url(#radial-gradient-16);
      }

      .cls-7 {
        fill: url(#radial-gradient-13);
      }

      .cls-8 {
        fill: url(#radial-gradient-14);
      }

      .cls-9, .cls-20 {
        fill: #820000;
        isolation: isolate;
        opacity: .1;
      }

      .cls-21 {
        fill: #b00505;
      }

      .cls-22 {
        fill: url(#linear-gradient);
      }

      .cls-23 {
        fill: #faa19b;
      }

      .cls-10 {
        fill: url(#radial-gradient-7);
      }

      .cls-11 {
        fill: url(#radial-gradient-5);
      }

      .cls-12 {
        fill: url(#radial-gradient-6);
      }

      .cls-13 {
        fill: url(#radial-gradient-4);
      }

      .cls-14 {
        fill: url(#radial-gradient-8);
      }

      .cls-15 {
        fill: url(#radial-gradient-9);
      }

      .cls-16 {
        fill: url(#radial-gradient-3);
      }

      .cls-17 {
        fill: url(#radial-gradient-2);
      }
    </style>
    <radialGradient id="radial-gradient" cx="309.52" cy="504.95" fx="309.52" fy="504.95" r="100.65" gradientTransform="translate(-10.4686 1388.9503) scale(.9769 -2.285)" gradientUnits="userSpaceOnUse">
      <stop offset="0" stop-color="#ffd86b"/>
      <stop offset=".6" stop-color="#f5a240"/>
      <stop offset=".68" stop-color="#e58e37"/>
      <stop offset=".84" stop-color="#be591e"/>
      <stop offset=".95" stop-color="#a1340d"/>
    </radialGradient>
    <radialGradient id="radial-gradient-2" cx="-845.08" cy="-108.4" fx="-845.08" fy="-108.4" r="100.6" gradientTransform="translate(-663.7057 442.2417) scale(-.98 2.285)" gradientUnits="userSpaceOnUse">
      <stop offset=".44" stop-color="#ffd86b"/>
      <stop offset=".75" stop-color="#f5a240"/>
      <stop offset=".8" stop-color="#e58e37"/>
      <stop offset=".89" stop-color="#be591e"/>
      <stop offset=".95" stop-color="#a1340d"/>
    </radialGradient>
    <radialGradient id="radial-gradient-3" cx="367.62" cy="553.78" fx="367.62" fy="553.78" r="99.07" gradientTransform="translate(-120.7283 1708.7067) rotate(6.0713) scale(.9294 -2.7702) skewX(-7.1167)" gradientUnits="userSpaceOnUse">
      <stop offset=".44" stop-color="#ffd86b"/>
      <stop offset=".75" stop-color="#f5a240"/>
      <stop offset=".8" stop-color="#e58e37"/>
      <stop offset=".89" stop-color="#be591e"/>
      <stop offset=".95" stop-color="#a1340d"/>
    </radialGradient>
    <radialGradient id="radial-gradient-4" cx="49.97" cy="570.97" fx="49.97" fy="570.97" r="67.8" gradientTransform="translate(65.1354 1756.2857) rotate(-3.6074) scale(1.0251 -2.774) skewX(3.8605)" gradientUnits="userSpaceOnUse">
      <stop offset="0" stop-color="#ffd86b"/>
      <stop offset=".75" stop-color="#f5a240"/>
      <stop offset=".8" stop-color="#e58e37"/>
      <stop offset=".89" stop-color="#be591e"/>
      <stop offset=".95" stop-color="#a1340d"/>
    </radialGradient>
    <radialGradient id="radial-gradient-5" cx="-986.23" cy="-165.82" fx="-986.23" fy="-165.82" r="111.31" gradientTransform="translate(-582.9921 720.1994) rotate(170.3066) scale(.7174 -2.2819) skewX(9.3402)" gradientUnits="userSpaceOnUse">
      <stop offset=".44" stop-color="#ffd86b"/>
      <stop offset=".75" stop-color="#f5a240"/>
      <stop offset=".8" stop-color="#e58e37"/>
      <stop offset=".89" stop-color="#be591e"/>
      <stop offset=".95" stop-color="#a1340d"/>
    </radialGradient>
    <radialGradient id="radial-gradient-6" cx="-901.13" cy="556.71" fx="-901.13" fy="556.71" r="99.26" gradientTransform="translate(-576.0298 1747.8906) rotate(-180) scale(.9273 2.7764)" gradientUnits="userSpaceOnUse">
      <stop offset="0" stop-color="#ffd86b"/>
      <stop offset=".75" stop-color="#f5a240"/>
      <stop offset=".8" stop-color="#e58e37"/>
      <stop offset=".89" stop-color="#be591e"/>
      <stop offset=".95" stop-color="#a1340d"/>
    </radialGradient>
    <radialGradient id="radial-gradient-7" cx="363.35" cy="631.64" fx="363.35" fy="631.64" r="90.26" gradientTransform="translate(-103.8271 1696.2194) rotate(5.6178) scale(1.0134 -2.4428) skewX(-3.978)" gradientUnits="userSpaceOnUse">
      <stop offset=".44" stop-color="#ffd86b"/>
      <stop offset=".75" stop-color="#f5a240"/>
      <stop offset=".8" stop-color="#e58e37"/>
      <stop offset=".89" stop-color="#be591e"/>
      <stop offset=".95" stop-color="#a1340d"/>
    </radialGradient>
    <radialGradient id="radial-gradient-8" cx="-635.96" cy="-178.89" fx="-635.96" fy="-178.89" r="69.88" gradientTransform="translate(-802.2173 776.1442) rotate(176.8389) scale(1.4435 -3.0238) skewX(2.8498)" gradientUnits="userSpaceOnUse">
      <stop offset=".44" stop-color="#ffd86b"/>
      <stop offset=".75" stop-color="#f5a240"/>
      <stop offset=".8" stop-color="#e58e37"/>
      <stop offset=".89" stop-color="#be591e"/>
      <stop offset=".95" stop-color="#a1340d"/>
    </radialGradient>
    <radialGradient id="radial-gradient-9" cx="157.23" cy="615.21" fx="157.23" fy="615.21" r="71.61" gradientTransform="translate(37.327 2221.4124) scale(1.1226 -3.3316)" gradientUnits="userSpaceOnUse">
      <stop offset=".44" stop-color="#ffd86b"/>
      <stop offset=".75" stop-color="#f5a240"/>
      <stop offset=".8" stop-color="#e58e37"/>
      <stop offset=".89" stop-color="#be591e"/>
      <stop offset=".95" stop-color="#a1340d"/>
    </radialGradient>
    <radialGradient id="radial-gradient-10" cx="-939.96" cy="-128.41" fx="-939.96" fy="-128.41" r="71.61" gradientTransform="translate(-756.9751 704.9556) scale(-.9273 3.451)" gradientUnits="userSpaceOnUse">
      <stop offset=".04" stop-color="#ffd86b"/>
      <stop offset=".68" stop-color="#f5a240"/>
      <stop offset=".76" stop-color="#e58e37"/>
      <stop offset=".9" stop-color="#be591e"/>
      <stop offset="1" stop-color="#a1340d"/>
    </radialGradient>
    <radialGradient id="radial-gradient-11" cx="466.8" cy="-123.82" fx="466.8" fy="-123.82" r="71.61" gradientTransform="translate(-72.9455 598.0691) rotate(10.2696) scale(.9311 3.4371) skewX(10.5455)" gradientUnits="userSpaceOnUse">
      <stop offset=".44" stop-color="#ffd86b"/>
      <stop offset=".75" stop-color="#f5a240"/>
      <stop offset=".8" stop-color="#e58e37"/>
      <stop offset=".89" stop-color="#be591e"/>
      <stop offset=".95" stop-color="#a1340d"/>
    </radialGradient>
    <radialGradient id="radial-gradient-12" cx="-960.25" cy="584.11" fx="-960.25" fy="584.11" r="100.64" gradientTransform="translate(-679.3594 1355.1917) rotate(177.5362) scale(.977 1.9731) skewX(-.365)" gradientUnits="userSpaceOnUse">
      <stop offset="0" stop-color="#ffd86b"/>
      <stop offset=".6" stop-color="#f5a240"/>
      <stop offset=".68" stop-color="#e58e37"/>
      <stop offset=".84" stop-color="#be591e"/>
      <stop offset=".95" stop-color="#a1340d"/>
    </radialGradient>
    <radialGradient id="radial-gradient-13" cx="-986.71" cy="-115.21" fx="-986.71" fy="-115.21" r="76.2" gradientTransform="translate(-662.1911 350.3115) rotate(-172.5633) scale(.9279 -2.2836) skewX(-1.3367)" gradientUnits="userSpaceOnUse">
      <stop offset=".24" stop-color="#ffd86b"/>
      <stop offset=".36" stop-color="#fed468"/>
      <stop offset=".49" stop-color="#fcc75e"/>
      <stop offset=".63" stop-color="#f8b34d"/>
      <stop offset=".71" stop-color="#f5a240"/>
      <stop offset=".78" stop-color="#e58e37"/>
      <stop offset=".91" stop-color="#be591e"/>
      <stop offset="1" stop-color="#a1340d"/>
    </radialGradient>
    <radialGradient id="radial-gradient-14" cx="-834.02" cy="-141.99" fx="-834.02" fy="-141.99" r="91.03" gradientTransform="translate(-662.9938 356.9497) rotate(-172.5633) scale(.9279 -2.2836) skewX(-1.3367)" gradientUnits="userSpaceOnUse">
      <stop offset=".44" stop-color="#ffd86b"/>
      <stop offset=".75" stop-color="#f5a240"/>
      <stop offset=".8" stop-color="#e58e37"/>
      <stop offset=".89" stop-color="#be591e"/>
      <stop offset=".95" stop-color="#a1340d"/>
    </radialGradient>
    <radialGradient id="radial-gradient-15" cx="426.24" cy="-146.11" fx="426.24" fy="-146.11" r="112.85" gradientTransform="translate(-24.8522 459.1531) rotate(-7.4367) scale(.9279 2.2836) skewX(-1.3367)" gradientUnits="userSpaceOnUse">
      <stop offset=".44" stop-color="#ffd86b"/>
      <stop offset=".75" stop-color="#f5a240"/>
      <stop offset=".8" stop-color="#e58e37"/>
      <stop offset=".89" stop-color="#be591e"/>
      <stop offset=".95" stop-color="#a1340d"/>
    </radialGradient>
    <radialGradient id="radial-gradient-16" cx="137.65" cy="612.16" fx="137.65" fy="612.16" r="79.5" gradientTransform="translate(68.016 1715.8881) rotate(-1.7592) scale(1.0131 -2.4435) skewX(-2.7019)" gradientUnits="userSpaceOnUse">
      <stop offset=".44" stop-color="#ffd86b"/>
      <stop offset=".75" stop-color="#f5a240"/>
      <stop offset=".8" stop-color="#e58e37"/>
      <stop offset=".89" stop-color="#be591e"/>
      <stop offset=".95" stop-color="#a1340d"/>
    </radialGradient>
    <linearGradient id="linear-gradient" x1="221.87" y1="2" x2="221.87" y2="318.98" gradientTransform="translate(0 514) scale(1 -1)" gradientUnits="userSpaceOnUse">
      <stop offset="0" stop-color="#cf0000"/>
      <stop offset=".16" stop-color="#df0005"/>
      <stop offset=".42" stop-color="#f1000a"/>
      <stop offset=".69" stop-color="#fc000d"/>
      <stop offset="1" stop-color="#ff000e"/>
    </linearGradient>
    <linearGradient id="linear-gradient-2" x1="42.99" y1="2" x2="42.99" y2="342.87" gradientTransform="translate(0 514) scale(1 -1)" gradientUnits="userSpaceOnUse">
      <stop offset="0" stop-color="#cf0000"/>
      <stop offset=".35" stop-color="#d20001"/>
      <stop offset=".6" stop-color="#db0003"/>
      <stop offset=".81" stop-color="#ea0008"/>
      <stop offset="1" stop-color="#ff000e"/>
    </linearGradient>
    <linearGradient id="linear-gradient-3" x1="-1616.95" y1="2" x2="-1616.95" y2="342.87" gradientTransform="translate(-1216.199 514.0006) rotate(-180)" gradientUnits="userSpaceOnUse">
      <stop offset="0" stop-color="#cf0000"/>
      <stop offset=".35" stop-color="#d20001"/>
      <stop offset=".6" stop-color="#db0003"/>
      <stop offset=".81" stop-color="#ea0008"/>
      <stop offset="1" stop-color="#ff000e"/>
    </linearGradient>
  </defs>
  <polygon class="cls-21" points="403.3 138.41 40.43 138.41 0 171.13 40.56 350.53 403.19 350.53 443.73 171.13 403.3 138.41"/>
  <path class="cls-1" d="M318.14,55.19c-8.05-9.04-21.12-19.56-38.16-11.98-26.1,177.48-8.81,348.85-8.63,351.35,1.79,25.8,40.17,38.11,46.05,34.52-18.19-213.78,2.41-271.79.74-373.88Z"/>
  <path class="cls-17" d="M138.14,374.53c8.08,9.02,21.19,19.52,38.31,11.96,26.15-177.48,8.82-348.86,8.64-351.36-1.8-25.8-40.29-38.08-46.19-34.53,18.26,213.79-2.41,271.81-.76,373.93Z"/>
  <path class="cls-16" d="M358.81,28.1c-7.04-9.79-25.28-22.5-41.9-16.67-21.79,174.26,5.01,175.39-32.67,422.18-3.76,25.31,39.36,2.84,45.29-.2,33.86-209.23,30.54-313.48,29.29-405.32Z"/>
  <path class="cls-9" d="M358.81,28.1c-7.69-2.22-17.48,10.61-17.49,13.01-.06,149.6,4.6,195.7-11.8,392.3,30.86-170.53,31.5-312.73,29.29-405.31Z"/>
  <path class="cls-13" d="M73.41,39.7c-6.01-5.8-20.63-12.23-32.62-6.3-3.42,120.75,16.73,118.3,6.78,290.21-1.02,17.69,29.81-2.85,33.93-5.56,9.89-145.92-.35-216.22-8.09-278.35Z"/>
  <path class="cls-9" d="M73.41,39.7c-5.92-.59-12.32,9.26-12.15,10.89,11.06,101.49,17.96,132.16,20.23,267.45,10.5-119.31.43-215.83-8.08-278.34Z"/>
  <path class="cls-11" d="M48,455.53c7.5,7.18,24.95,14.23,37.98,4.92-10-163.12-32.76-157.63-41.16-390.3-.89-23.96-33.71,7.08-38.12,11.2,5.52,197.67,25.27,291.32,41.29,374.17Z"/>
  <path class="cls-9" d="M48,455.53c6.83.14,13-13.84,12.6-16.03C36.31,303.99,24.88,263.38,6.72,81.34c1.73,161.94,24.36,290.92,41.28,374.18Z"/>
  <path class="cls-12" d="M232.9,14.73c7.65-9.01,26.64-19.74,42.82-12.16,10.58,175.99-16.19,174.26,5.56,424.22,2.25,25.74-51.62-10.72-57.2-14.28-20.39-212.1,1.68-306.39,8.81-397.79Z"/>
  <path class="cls-10" d="M400.75,79.96c-7.82-8.23-9.55-103.56-36.46-74.45-9.59,203.55-36.68,306.8-25.41,372.53,3.66,21.25,27.41-42.87,33.66-45.23,6.77-93.2,25.57-184.76,28.21-252.84Z"/>
  <path class="cls-14" d="M74.65,296.27c9.46,6.55,21.49,96.78,47.85,64.98-11.07-194.67,7.64-296.88-11.68-357.54-6.26-19.61-25.45,44.96-32.07,48.14,2.45,89.53-8.43,179.35-4.1,244.42Z"/>
  <path class="cls-15" d="M232.29,21.06c-9.22-8.71-45.18-8.51-45.7,1.43-4.62,87.53-17.47,214.8-12.76,329.13,1.02,24.99,44.37,32.05,51.13,28.6-4.8-158.18,7.32-284.25,7.33-359.16Z"/>
  <path class="cls-20" d="M186.58,22.48c-4.62,87.53-17.47,214.8-12.76,329.13,9.44-90.63,24.72-246.83,25.3-320.75.03-4.04-12.01-10.68-12.54-8.38Z"/>
  <path class="cls-3" d="M99.41,418.33c7.63,9.03,37.32,8.81,37.76-1.48,3.8-90.67,14.41-222.51,10.52-340.92-.83-25.86-36.65-33.21-42.23-29.64,3.97,163.86-6.04,294.45-6.05,372.03Z"/>
  <path class="cls-20" d="M137.17,416.86c3.8-90.67,14.41-222.51,10.52-340.92-7.8,93.88-18.4,248.09-27.06,332.94,7.81,1.36,16.09,10.36,16.54,7.98Z"/>
  <path class="cls-2" d="M402.04,442.36c-8.68,7.55-38,2.01-37.09-8.23,7.84-90.35,14.25-222.63,33.26-339.05,4.14-25.42,40.46-26.27,45.52-21.75-24.92,161.34-31.73,292.31-41.68,369.04Z"/>
  <path class="cls-5" d="M215.05,134.45c7.73-8.12,20.43-17.77,37.71-11.98,32.2,152.01,20.81,300.62,20.74,302.79-.9,22.35-38.83,34.6-44.83,31.77,10.82-185.23-11.75-234.42-13.62-322.58Z"/>
  <path class="cls-7" d="M259.67,454.42c5.87,9,15.87,19.89,31.22,15,41.5-156.41,45.4-312.17,45.51-314.42,1.26-23.36-30.09-38.65-35.48-36.1-7.72,193.91-31.56,243.69-41.25,335.52Z"/>
  <path class="cls-8" d="M110.22,306.13c7.91-68.3,9.11-115.72,9.18-116.94,1.26-23.36-30.09-38.64-35.48-36.1-2.58,64.82-6.96,113.48-12.02,153.05h38.32Z"/>
  <path class="cls-4" d="M369.62,299.33c-10.38-89.68-.34-183.87-.44-185.5-1.66-30.66,27.9,9.84,34.99,13.17,3.38,85.1-1.95,114.33,4.7,166.28l-39.25,6.05Z"/>
  <path class="cls-6" d="M195.14,172.53c-7.7-6.3-19.23-89.43-39.69-60.94,12.98,178.98.15,272.3,16.89,328.45,5.43,18.15,19.44-40.58,24.67-43.35-3.86-82.22,2.98-164.37-1.87-224.17Z"/>
  <path class="cls-22" d="M388.7,195.02c-44.49,147.17-289.16,147.17-333.65,0,0,0-2.12,183.87,30.93,316.98,0,0,135.89-17.48,271.79,0,33.05-133.11,30.92-316.98,30.92-316.98Z"/>
  <path class="cls-19" d="M55.05,195.02L0,171.13l40.56,285.91,45.42,54.96s-15.23-175.3-30.93-316.98Z"/>
  <path class="cls-18" d="M388.7,195.02l55.03-23.89-40.54,285.91-45.41,54.96s15.22-175.3,30.92-316.98Z"/>
  <path id="Shape" class="cls-23" d="M221.86,360c24.7,0,44.8,20.1,44.8,44.8s-20.1,44.8-44.8,44.8-44.8-20.1-44.8-44.8,20.1-44.8,44.8-44.8ZM221.86,345.06c-32.98,0-59.73,26.75-59.73,59.73s26.75,59.73,59.73,59.73,59.73-26.73,59.73-59.73-26.75-59.73-59.73-59.73Z"/>
  <path id="Combined-Shape" class="cls-23" d="M233.81,410.78c-2.01,0-3-.98-3-2.99v-5.98c0-2,.98-2.99,3-2.99h19.4c2.01,0,3,.98,3,2.99v2.99c0,18.99-15.39,34.35-34.35,34.35-9.23,0-17.89-3.67-24.29-10.05-1.42-1.43-1.42-2.82-.02-4.23l6.35-6.33c1.42-1.42,2.8-1.42,4.22,0,3.64,3.62,8.52,5.68,13.73,5.68,8.64,0,15.95-5.63,18.48-13.43h-6.53Z"/>
</svg>