<?xml version="1.0" encoding="UTF-8"?>
<svg id="Layer_1" data-name="Layer 1" xmlns="http://www.w3.org/2000/svg" xmlns:xlink="http://www.w3.org/1999/xlink" viewBox="0 0 290.13 512">
  <defs>
    <style>
      .cls-1 {
        fill: #53585c;
        opacity: .5;
      }

      .cls-1, .cls-2, .cls-3, .cls-4, .cls-5 {
        isolation: isolate;
      }

      .cls-6 {
        fill: url(#linear-gradient-3);
      }

      .cls-7 {
        fill: url(#linear-gradient-2);
      }

      .cls-8 {
        fill: url(#radial-gradient);
      }

      .cls-9 {
        fill: url(#linear-gradient);
      }

      .cls-10 {
        fill: #fff;
      }

      .cls-2 {
        opacity: .05;
      }

      .cls-2, .cls-3, .cls-4, .cls-5 {
        fill: #6e8189;
      }

      .cls-3 {
        opacity: .2;
      }

      .cls-4 {
        opacity: .3;
      }

      .cls-5 {
        opacity: .1;
      }

      .cls-11 {
        fill: #dae4f0;
      }

      .cls-12 {
        fill: #c5d7e8;
      }

      .cls-13 {
        fill: #302c3b;
      }

      .cls-14 {
        fill: #f2f5f7;
      }
    </style>
    <radialGradient id="radial-gradient" cx="137.91" cy="190.48" fx="137.91" fy="190.48" r="102.35" gradientTransform="translate(6.13 232.95) scale(1.01 -.64)" gradientUnits="userSpaceOnUse">
      <stop offset="0" stop-color="#cad3de"/>
      <stop offset=".14" stop-color="#c1cad4"/>
      <stop offset=".38" stop-color="#aab1bb"/>
      <stop offset=".68" stop-color="#838a90"/>
      <stop offset="1" stop-color="#53585c"/>
    </radialGradient>
    <linearGradient id="linear-gradient" x1="45.87" y1="423.93" x2="244.25" y2="423.93" gradientTransform="translate(0 514) scale(1 -1)" gradientUnits="userSpaceOnUse">
      <stop offset="0" stop-color="#7e838a"/>
      <stop offset=".08" stop-color="#949aa2"/>
      <stop offset=".24" stop-color="#bbc3cd"/>
      <stop offset=".33" stop-color="#cad3de"/>
      <stop offset=".42" stop-color="#c1c9d4"/>
      <stop offset=".59" stop-color="#a8b0b8"/>
      <stop offset=".8" stop-color="#7f868c"/>
    </linearGradient>
    <linearGradient id="linear-gradient-2" x1="45.87" y1="475" x2="244.25" y2="475" gradientTransform="translate(0 514) scale(1 -1)" gradientUnits="userSpaceOnUse">
      <stop offset="0" stop-color="#cad3de"/>
      <stop offset=".2" stop-color="#c1c9d4"/>
      <stop offset=".55" stop-color="#a8b0b8"/>
      <stop offset="1" stop-color="#7f868c"/>
    </linearGradient>
    <linearGradient id="linear-gradient-3" x1="0" y1="185.36" x2="290.13" y2="185.36" gradientTransform="translate(0 514) scale(1 -1)" gradientUnits="userSpaceOnUse">
      <stop offset="0" stop-color="#dce7f2"/>
      <stop offset=".24" stop-color="#dae5f0"/>
      <stop offset=".37" stop-color="#d1deeb"/>
      <stop offset=".48" stop-color="#c3d3e1"/>
      <stop offset=".54" stop-color="#b8cad9"/>
    </linearGradient>
  </defs>
  <path class="cls-12" d="M269.23,145.28l-26.68-25.07H47.56l-26.68,25.07L3.46,426.58c27.27,68.7,141.6,68.7,141.6,68.7,0,0,114.31,0,141.58-68.7l-17.42-281.3Z"/>
  <path class="cls-14" d="M256.15,204.95H33.95l-13.65,208.91c24.01,60.54,225.49,60.54,249.51,0l-13.66-208.91Z"/>
  <path class="cls-10" d="M256.15,204.95c0,48.55-222.2,48.55-222.2,0s222.2-48.55,222.2,0Z"/>
  <path class="cls-8" d="M253.58,110.93c0,56.34-217.05,56.34-217.05,0,0-56.35,217.05-56.35,217.05,0Z"/>
  <path class="cls-9" d="M45.87,39v63.16c0,51.98,198.38,51.98,198.38,0v-63.16H45.87Z"/>
  <path class="cls-7" d="M244.25,39c0,52-198.38,52-198.38,0s198.38-51.99,198.38,0Z"/>
  <path class="cls-13" d="M156.02,9.85c0,5.75-21.94,5.75-21.94,0,0-5.76,21.94-5.76,21.94,0Z"/>
  <path class="cls-13" d="M156.02,32.23c0,5.75-21.94,5.75-21.94,0,0-5.76,21.94-5.76,21.94,0Z"/>
  <path class="cls-13" d="M156.02,54.61c0,5.75-21.94,5.75-21.94,0s21.94-5.74,21.94,0Z"/>
  <path class="cls-13" d="M209.03,21.04c0,5.75-21.95,5.75-21.95,0s21.95-5.75,21.95,0Z"/>
  <path class="cls-13" d="M209.03,43.44c0,5.75-21.95,5.75-21.95,0s21.95-5.77,21.95,0Z"/>
  <path class="cls-13" d="M103.03,21.04c0,5.75-21.96,5.75-21.96,0s21.96-5.75,21.96,0Z"/>
  <path class="cls-13" d="M103.03,43.44c0,5.75-21.96,5.75-21.96,0s21.96-5.77,21.96,0Z"/>
  <path class="cls-11" d="M48.67,49.07c23.15,40.38,169.72,40.23,192.78,0-36.9,27.43-155.89,27.43-192.78,0Z"/>
  <path class="cls-1" d="M244.25,58.93v16.4s-16.79,19.1-90.97,13c77.5-5.5,90.97-29.4,90.97-29.4Z"/>
  <path class="cls-1" d="M45.87,87.72v15.82s43.58,29.8,117.76,23.71c-77.49-5.5-117.76-39.53-117.76-39.53Z"/>
  <path class="cls-1" d="M244.25,87.43v14.45c-62.04,25.28-171.1,5.2-198.38-29.5v-14.46c33.65,37.95,145.94,53.02,198.38,29.52Z"/>
  <path class="cls-2" d="M48.42,448.33c6.49,10.39,68.86,18.68,75.67,15.97,6.81-2.71,16.53-278.26,12.83-278.17-25.67.68-61.29-4.74-75.65-9.98-4.04-1.46-16.32,266.62-12.85,272.19Z"/>
  <path class="cls-5" d="M21.69,433.8c1.67,2.82,29.7-261.14,26.42-262.52-11.23-4.81-23.07-24.87-23.27-21.51-14.28,240.65-17.44,259.76-3.15,284.03Z"/>
  <path class="cls-6" d="M269.23,145.28c9.2,250.12,22.79,270.39-2.6,300.8-2.41,2.9-29.58-274.7-29.58-274.7,0,0,17.02,279.48,11.75,284.45-2.8,2.62-86.17,25.08-90.22,21.27-4.16-3.92-13.51-290.75-13.51-290.75,0,0-9.35,286.83-13.52,290.75-4.05,3.81-87.43-18.65-90.23-21.27-5.27-4.97,11.75-284.45,11.75-284.45,0,0-27.17,277.6-29.59,274.7-25.4-30.41-11.8-50.68-2.6-300.8C20.88,145.28-.02,424.23,0,426.6c.02,4.35,18.3,54.1,23.19,57.55,5.6,3.95,117.09,27.85,121.88,27.85s116.26-23.9,121.86-27.85c4.88-3.45,23.19-53.2,23.2-57.55,0-2.36-20.9-281.32-20.9-281.32Z"/>
  <path class="cls-3" d="M241.7,448.33c-6.49,10.39-68.86,18.68-75.66,15.97-6.83-2.71-16.53-278.26-12.83-278.17,25.67.68,61.29-4.74,75.64-9.98,4.06-1.46,16.33,266.62,12.86,272.19Z"/>
  <path class="cls-4" d="M268.42,433.8c-1.66,2.82-29.69-261.14-26.43-262.52,11.23-4.81,23.07-24.87,23.27-21.51,14.28,240.65,17.45,259.76,3.16,284.03Z"/>
</svg>