<?xml version="1.0" encoding="UTF-8"?>
<svg id="Layer_1" data-name="Layer 1" xmlns="http://www.w3.org/2000/svg" xmlns:xlink="http://www.w3.org/1999/xlink" viewBox="0 0 512 512">
  <defs>
    <style>
      .cls-1 {
        fill: #7ab51d;
      }

      .cls-2 {
        fill: #449c00;
      }

      .cls-3 {
        fill: url(#linear-gradient-2);
      }

      .cls-4 {
        fill: url(#radial-gradient);
      }

      .cls-5 {
        fill: #d46a06;
        isolation: isolate;
        opacity: .1;
      }

      .cls-6 {
        fill: url(#linear-gradient);
      }

      .cls-7 {
        fill: #ea8800;
      }

      .cls-8 {
        fill: #56ab15;
      }

      .cls-9 {
        fill: #e6ded3;
      }

      .cls-10 {
        fill: #f5eddd;
      }

      .cls-11 {
        fill: #e60f00;
      }
    </style>
    <linearGradient id="linear-gradient" x1="0" y1="176.98" x2="482.44" y2="176.98" gradientTransform="translate(0 514) scale(1 -1)" gradientUnits="userSpaceOnUse">
      <stop offset="0" stop-color="#ffd675"/>
      <stop offset=".38" stop-color="#ffd267"/>
      <stop offset="1" stop-color="#ffc847"/>
    </linearGradient>
    <radialGradient id="radial-gradient" cx="149.45" cy="-907.86" fx="149.45" fy="-907.86" r="80.41" gradientTransform="translate(84.77 -85.67) rotate(-1.5) scale(1.07 -.25) skewX(.03)" gradientUnits="userSpaceOnUse">
      <stop offset=".28" stop-color="#696460"/>
      <stop offset="1" stop-color="#e6ded3" stop-opacity="0"/>
    </radialGradient>
    <linearGradient id="linear-gradient-2" x1="-1469.79" y1="1278.7" x2="-1373.32" y2="1373.84" gradientTransform="translate(-1670.381 -429.087) rotate(-122.0306) scale(1.0104 1.0245) skewX(-.7132)" gradientUnits="userSpaceOnUse">
      <stop offset="0" stop-color="#c21413"/>
      <stop offset=".14" stop-color="#cf0f11"/>
      <stop offset=".44" stop-color="#e4070f"/>
      <stop offset=".73" stop-color="#f1020d"/>
      <stop offset="1" stop-color="#f5000d"/>
    </linearGradient>
  </defs>
  <path class="cls-6" d="M464.16,451.69s-325.4,44.63-433.88,59.48c-20.95,2.87-30.29-.98-30.29-22.94v-251.52s166.98-58.68,477.69-74.68c16,176.65-13.52,289.66-13.52,289.66Z"/>
  <path class="cls-5" d="M165.76,255.21c-7.15-3.88-.71-13.66,6.44-9.75,7.16,3.91.72,13.67-6.44,9.75Z"/>
  <path class="cls-5" d="M280.56,244.26c-7.16-3.88-.72-13.65,6.44-9.75,7.16,3.91.73,13.67-6.44,9.75Z"/>
  <path class="cls-5" d="M237.44,264.56c-7.16-3.89-.72-13.66,6.44-9.75,7.16,3.91.73,13.67-6.44,9.75Z"/>
  <path class="cls-5" d="M293.24,216.34c-7.16-3.9-.72-13.66,6.44-9.75,7.15,3.91.73,13.67-6.44,9.75Z"/>
  <path class="cls-5" d="M351.2,285.92c-7.16-3.88-.72-13.65,6.44-9.76,7.16,3.93.74,13.68-6.44,9.76Z"/>
  <path class="cls-5" d="M370.22,207.85c-7.16-3.9-.71-13.66,6.44-9.75,7.16,3.91.74,13.67-6.44,9.75Z"/>
  <path class="cls-5" d="M405.82,269.44c-7.16-3.88-.72-13.65,6.44-9.75,7.16,3.92.73,13.67-6.44,9.75Z"/>
  <path class="cls-5" d="M439.15,207.85c-7.15-3.9-.72-13.66,6.44-9.75,7.16,3.91.74,13.67-6.44,9.75Z"/>
  <path class="cls-5" d="M451.83,276.76c-7.16-3.88-.71-13.65,6.44-9.75,7.16,3.9.73,13.67-6.44,9.75Z"/>
  <path class="cls-5" d="M363.88,258.77c-7.16-3.89-.72-13.65,6.44-9.75,7.18,3.92.73,13.68-6.44,9.75Z"/>
  <path class="cls-5" d="M428.69,252.99c-7.16-3.88-.72-13.65,6.44-9.75,7.18,3.92.74,13.67-6.44,9.75Z"/>
  <path class="cls-5" d="M400.88,227c-7.16-3.89-.71-13.64,6.43-9.75,7.17,3.91.73,13.67-6.43,9.75Z"/>
  <path class="cls-5" d="M200.65,262.16c3.55-5.58,12.75-.77,9.2,4.85-3.53,5.57-12.75.73-9.2-4.85Z"/>
  <path class="cls-5" d="M323.87,232.8c3.55-5.58,12.75-.76,9.2,4.83-3.54,5.59-12.76.74-9.2-4.83Z"/>
  <path class="cls-5" d="M295.89,281.6c3.53-5.6,12.73-.77,9.2,4.83-3.56,5.57-12.76.74-9.2-4.83Z"/>
  <path class="cls-5" d="M30.63,257.27c3.55-5.58,12.75-.75,9.2,4.85-3.54,5.57-12.75.72-9.2-4.85Z"/>
  <path class="cls-5" d="M131.78,287.2c4.56-7.19,16.42-.95,11.86,6.21-4.56,7.2-16.42.98-11.86-6.21Z"/>
  <path class="cls-5" d="M38.18,285.79c4.56-7.19,16.42-.94,11.86,6.21-4.56,7.21-16.42.98-11.86-6.21Z"/>
  <path class="cls-5" d="M72.61,300.7c3.23-5.08,11.63-.68,8.39,4.4-3.23,5.09-11.62.71-8.39-4.4Z"/>
  <path class="cls-5" d="M105.67,314.95c3.23-5.08,11.63-.68,8.39,4.4-3.23,5.08-11.62.69-8.39-4.4Z"/>
  <path class="cls-5" d="M123.03,242.36c3.23-5.08,11.63-.69,8.39,4.4-3.23,5.08-11.62.69-8.39-4.4Z"/>
  <path class="cls-5" d="M221.44,227.89c-7.15-3.89-.72-13.65,6.44-9.75,7.16,3.93.72,13.68-6.44,9.75Z"/>
  <path class="cls-5" d="M251.4,292.79c3.54-5.59,12.75-.78,9.2,4.83-3.53,5.58-12.76.74-9.2-4.83Z"/>
  <path class="cls-5" d="M91.59,267.07c3.55-5.59,12.75-.76,9.2,4.82-3.53,5.59-12.75.75-9.2-4.82Z"/>
  <path class="cls-5" d="M175.74,293.51c4.56-7.19,16.42-.95,11.86,6.21-4.55,7.21-16.42.98-11.86-6.21Z"/>
  <path class="cls-5" d="M25.64,325.45c3.24-5.08,11.63-.68,8.39,4.4-3.23,5.08-11.62.69-8.39-4.4Z"/>
  <path class="cls-5" d="M286.34,431.56c7.39,3.46,1.56,13.58-5.82,10.11-7.42-3.5-1.59-13.61,5.82-10.11Z"/>
  <path class="cls-5" d="M261.4,461.21c7.39,3.47,1.55,13.59-5.82,10.12-7.41-3.5-1.59-13.6,5.82-10.12Z"/>
  <path class="cls-5" d="M186.8,452.4c7.37,3.48,1.55,13.59-5.84,10.12-7.39-3.48-1.58-13.6,5.84-10.12Z"/>
  <path class="cls-5" d="M197.88,406.92c7.37,3.49,1.55,13.59-5.84,10.13-7.39-3.5-1.57-13.62,5.84-10.13Z"/>
  <path class="cls-5" d="M229.17,443.27c7.37,3.48,1.55,13.59-5.84,10.12-7.39-3.5-1.57-13.62,5.84-10.12Z"/>
  <path class="cls-5" d="M280.01,387.42c7.37,3.48,1.55,13.59-5.84,10.12-7.39-3.49-1.57-13.61,5.84-10.12Z"/>
  <path class="cls-5" d="M325.05,440.85c7.38,3.49,1.55,13.59-5.83,10.12-7.4-3.48-1.58-13.6,5.83-10.12Z"/>
  <path class="cls-5" d="M354.98,424.05c7.38,3.49,1.56,13.59-5.83,10.12-7.4-3.5-1.58-13.61,5.83-10.12Z"/>
  <path class="cls-5" d="M384.43,438.03c7.38,3.47,1.55,13.58-5.83,10.12-7.4-3.5-1.58-13.61,5.83-10.12Z"/>
  <path class="cls-5" d="M427.81,355.28c7.37,3.49,1.55,13.59-5.84,10.12-7.39-3.5-1.58-13.6,5.84-10.12Z"/>
  <path class="cls-5" d="M455.54,381.63c7.38,3.49,1.56,13.59-5.83,10.13-7.41-3.5-1.57-13.62,5.83-10.13Z"/>
  <path class="cls-5" d="M408.6,385.51c7.38,3.49,1.55,13.59-5.83,10.12-7.4-3.5-1.58-13.62,5.83-10.12Z"/>
  <path class="cls-5" d="M445.3,435.08c7.37,3.49,1.56,13.59-5.84,10.13-7.39-3.5-1.57-13.61,5.84-10.13Z"/>
  <path class="cls-5" d="M91.9,453c7.39,3.48,1.58,13.58-5.82,10.12-7.4-3.5-1.57-13.59,5.82-10.12Z"/>
  <path class="cls-5" d="M30.38,483.16c7.37,3.48,1.56,13.59-5.84,10.12-7.39-3.49-1.55-13.61,5.84-10.12Z"/>
  <path class="cls-5" d="M248.13,414.12c-3.2,5.78-12.69,1.52-9.48-4.28,3.18-5.76,12.68-1.48,9.48,4.28Z"/>
  <path class="cls-5" d="M152.83,475.33c-3.2,5.77-12.69,1.5-9.49-4.28,3.2-5.79,12.69-1.5,9.49,4.28Z"/>
  <path class="cls-5" d="M154.8,425.45c-3.21,5.78-12.69,1.51-9.49-4.28,3.18-5.76,12.68-1.48,9.49,4.28Z"/>
  <path class="cls-5" d="M127.34,440.85c7.37,3.49,1.55,13.59-5.84,10.12-7.4-3.48-1.58-13.6,5.84-10.12Z"/>
  <path class="cls-5" d="M30.37,434.71c7.39,3.48,1.58,13.59-5.82,10.12-7.4-3.5-1.56-13.59,5.82-10.12Z"/>
  <path class="cls-5" d="M82.77,477.38c7.37,3.49,1.56,13.6-5.84,10.13-7.39-3.5-1.55-13.61,5.84-10.13Z"/>
  <path class="cls-5" d="M63.78,447.68c-3.2,5.77-12.69,1.5-9.49-4.29,3.2-5.79,12.69-1.48,9.49,4.29Z"/>
  <path class="cls-5" d="M94.22,419c-3.22,5.78-12.69,1.51-9.49-4.28,3.18-5.77,12.69-1.48,9.49,4.28Z"/>
  <path class="cls-5" d="M419.17,425.46c-3.19,5.78-12.68,1.5-9.48-4.28,3.2-5.77,12.69-1.48,9.48,4.28Z"/>
  <path class="cls-5" d="M323.3,404.69c-4.11,7.44-16.32,1.92-12.24-5.51,4.12-7.44,16.37-1.93,12.24,5.51Z"/>
  <path class="cls-5" d="M367.65,397.59c-2.93,5.27-11.59,1.36-8.66-3.9,2.92-5.26,11.55-1.36,8.66,3.9Z"/>
  <path class="cls-11" d="M480.7,343.61s-45.65,2.27-60.87,4.29c-14.13,1.9-42.4,9.49-56.51,11.38-15.55,2.07-44.46,3.98-60.01,6.06-12.46,1.66-39.51,7.23-51.96,8.89-6.84.92-29.03,1.94-35.88,2.84-18.21,2.42-46.13,8.09-64.34,10.52-10.8,1.45-31.17,1.56-41.98,3-15.33,2.05-48.3,10.3-63.64,12.35-11.63,1.57-45.51,4.82-45.51,4.82v-24.73l480.96-84.09-.26,44.67Z"/>
  <path class="cls-10" d="M481.07,316.97s-35.2,6.6-46.93,8.17c-10.58,1.41-32.46,2.52-43.03,3.93-14.47,1.93-42.74,7.52-57.22,9.44-18.03,2.4-54.15,5.21-72.19,7.62-17.43,2.33-52.61,10.84-70.04,13.15-17.48,2.33-52.1,5.15-69.59,7.49-16.3,2.18-48.53,8.84-64.81,11.01-14.23,1.9-57.26,5.28-57.26,5.28v-31.45s40.14-3.49,54.89-5.47c16.18-2.17,50.99-9,67.16-11.18,16.35-2.2,51.11-3.68,67.46-5.88,18.05-2.42,50.91-9.78,68.97-12.21,17.84-2.4,56.47-5.31,74.32-7.72,14.31-1.92,42.8-8.06,57.09-9.99,10.51-1.4,31.52-1.29,42.04-2.71,12.35-1.65,49.42-9.58,49.42-9.58l-.27,30.12Z"/>
  <path class="cls-10" d="M500.04,164.12c-18.52-53.84-148.71-75.96-181.14-71.47C226.62,105.45,63.72,170.34,0,208.75v27.96c316.91-45.88,442-62.97,458.83-46.42,11.65,11.44,13.87,101.27,5.33,261.39,0,0,10.34-1.27,13.77-1.69,14.81-1.82,22.93-8.47,24.9-26.67,6.11-56.36,18.49-197.31-2.8-259.2Z"/>
  <path class="cls-9" d="M449.54,141.29c71.5-6.81-72.07-56.09-126.66-49.02C125.88,117.75,0,208.75,0,208.75c0,0,204.01-44.16,449.54-67.46Z"/>
  <path class="cls-4" d="M340.12,135.34c.56,29.35-178.29,32.93-178.81,3.55-.53-29.39,178.32-32.96,178.81-3.55Z"/>
  <path class="cls-3" d="M307.26,50.55c18.37,28.39,20.5,64.37-9,81.73-40,23.56-110.04,12.61-121.42-4.98-11.24-17.4,11.02-83.53,49.66-105.84,32.13-18.56,59.22-3.6,80.77,29.09Z"/>
  <path class="cls-7" d="M258.73,71.48q-2.69,3.88,2.14,2.9c6.69-1.39,1.61-8.25-2.14-2.9Z"/>
  <path class="cls-7" d="M234.03,72.49q-2.92,3.73,1.95,2.97c6.76-1.04,2.07-8.16-1.95-2.97Z"/>
  <path class="cls-7" d="M209.83,77.54q-2.91,3.73,1.96,2.97c6.76-1.06,2.07-8.16-1.96-2.97Z"/>
  <path class="cls-7" d="M184.96,96.73q-1.34,4.44,2.97,2.16c5.96-3.16-1.08-8.31-2.97-2.16Z"/>
  <path class="cls-7" d="M180.89,116.45q.05,4.6,3.5,1.29c4.78-4.6-3.56-7.66-3.5-1.29Z"/>
  <path class="cls-7" d="M204.42,103.19q-3.43,3.32,1.49,3.2c6.86-.19,3.27-7.8-1.49-3.2Z"/>
  <path class="cls-7" d="M217.02,133.63q-4.14,2.5.67,3.47c6.69,1.29,5.1-6.95-.67-3.47Z"/>
  <path class="cls-7" d="M228.05,117.4q-4.16,2.51.67,3.45c6.67,1.32,5.1-6.91-.67-3.45Z"/>
  <path class="cls-7" d="M226.84,96.31q-3.07,3.63,1.83,3.04c6.81-.82,2.41-8.07-1.83-3.04Z"/>
  <path class="cls-7" d="M249.01,114.82q-3.05,3.6,1.84,3.04c6.81-.8,2.41-8.07-1.84-3.04Z"/>
  <path class="cls-7" d="M248.45,132.23q-3.58,3.18,1.33,3.28c6.84.12,3.68-7.68-1.33-3.28Z"/>
  <path class="cls-7" d="M276.06,126.53q-3.58,3.14,1.34,3.25c6.84.15,3.68-7.65-1.34-3.25Z"/>
  <path class="cls-7" d="M250,92.89q-2.02,4.19,2.59,2.51c6.38-2.36.21-8.37-2.59-2.51Z"/>
  <path class="cls-7" d="M291.04,94.84q-2.02,4.2,2.58,2.51c6.38-2.34.2-8.37-2.58-2.51Z"/>
  <path class="cls-7" d="M272.66,108.59q-2.01,4.22,2.58,2.52c6.39-2.35.21-8.38-2.58-2.52Z"/>
  <path class="cls-7" d="M297.52,114.62q-.56,4.57,3.28,1.63c5.35-4.03-2.52-8-3.28-1.63Z"/>
  <path class="cls-7" d="M309.31,90.94q1.1,4.48,3.71.56c3.64-5.45-5.23-6.78-3.71-.56Z"/>
  <path class="cls-7" d="M290.75,73.83q-2.52,3.93,2.26,2.76c6.61-1.63,1.25-8.3-2.26-2.76Z"/>
  <path class="cls-7" d="M272.09,85.55q-2.52,3.96,2.26,2.8c6.63-1.64,1.27-8.29-2.26-2.8Z"/>
  <path class="cls-7" d="M200.39,122.07q-4.16,2.49.66,3.45c6.7,1.32,5.11-6.9-.66-3.45Z"/>
  <path class="cls-7" d="M222.6,55.15q-2.57,3.95,2.22,2.82c6.63-1.54,1.36-8.29-2.22-2.82Z"/>
  <path class="cls-7" d="M221,34.77q-2.91,3.73,1.98,2.99c6.75-1.03,2.11-8.15-1.98-2.99Z"/>
  <path class="cls-7" d="M264.16,21.95q-4.54,1.79,0,3.5c6.34,2.41,6.34-5.96,0-3.5Z"/>
  <path class="cls-7" d="M249.69,53.04q-4.08,2.6.78,3.43c6.71,1.13,4.89-7.04-.78-3.43Z"/>
  <path class="cls-7" d="M240.33,23.32q-4.05,2.6.78,3.43c6.7,1.15,4.91-7.05-.78-3.43Z"/>
  <path class="cls-7" d="M276.82,58.63q-4.31,2.25.43,3.49c6.58,1.69,5.55-6.61-.43-3.49Z"/>
  <path class="cls-7" d="M268.19,39.94q-4.32,2.25.42,3.49c6.58,1.71,5.56-6.59-.42-3.49Z"/>
  <path class="cls-7" d="M244.95,36.82q-4.31,2.26.41,3.5c6.62,1.7,5.6-6.61-.41-3.5Z"/>
  <path class="cls-7" d="M202.1,54.99q-.47,4.59,3.32,1.62c5.28-4.1-2.65-7.97-3.32-1.62Z"/>
  <path class="cls-7" d="M192.6,74.61q-1.47,4.38,2.9,2.2c6.05-3.05-.86-8.31-2.9-2.2Z"/>
  <path class="cls-1" d="M307.25,17.54c-6.19,11.59,11.19,18.02-5.58,35.81-20.11-6.8-9.19-25.45,5.58-35.81Z"/>
  <path class="cls-1" d="M338.13,65.19c-13.67.11-11.91-17.58-36.1-11.26-2.64,20.18,19.75,19.23,36.1,11.26Z"/>
  <path class="cls-8" d="M283.98,0c-3.04,8.05,6.43,14.85,6.58,29.4,0,0,10.76,11.28,16.98,20.89,6.24,9.61,11.97,23.84,11.97,23.84,13.59,6.64,15.71,17.75,24.61,18.79-14.31,11.92-37.61-8.08-32.83-21.68,0,0-10.69-8.09-9.06-17.83-9.83-2.97-12.66-15.7-12.66-15.7-14.91-2.01-23.18-30.83-5.6-37.69Z"/>
  <path class="cls-2" d="M294.2,14.54c-4.03,6.06,2.74,14.13,1.86,19.08-1.33,7.58-3.4,12.72,6.63,19.52,1.88,11.59,7.64,12.14,15.34,14.42,5.03,1.47,9.58,10.87,17.05,10.13-16.7,19.61-41.64-12.87-33.33-24-14.15,2.14-33.43-33.69-7.56-39.13Z"/>
  <path class="cls-1" d="M302.4,49.19c.38,2.54,3.02,3.94,3.02,3.94,17.02-2.24,34.73-17.84,30.19-24.73-8.71-13.17-2.84,15.16-33.21,20.79Z"/>
</svg>