<?xml version="1.0" encoding="UTF-8"?>
<svg id="Layer_1" data-name="Layer 1" xmlns="http://www.w3.org/2000/svg" xmlns:xlink="http://www.w3.org/1999/xlink" viewBox="0 0 512.01 512">
  <defs>
    <style>
      .cls-1 {
        fill: url(#radial-gradient-4);
      }

      .cls-2 {
        fill: url(#radial-gradient-3);
      }

      .cls-3 {
        fill: url(#radial-gradient-2);
      }

      .cls-4 {
        fill: url(#linear-gradient-3);
      }

      .cls-5 {
        fill: url(#linear-gradient-2);
      }

      .cls-6 {
        fill: url(#radial-gradient);
      }

      .cls-7 {
        fill: url(#linear-gradient);
      }

      .cls-8 {
        fill: #fd0;
      }

      .cls-9 {
        fill: #913013;
      }
    </style>
    <linearGradient id="linear-gradient" x1="302.51" y1="1461.3" x2="459.05" y2="1345.84" gradientTransform="translate(-56 -1160)" gradientUnits="userSpaceOnUse">
      <stop offset=".47" stop-color="#7b330d"/>
      <stop offset=".54" stop-color="#c0531d"/>
      <stop offset=".77" stop-color="#fcc17d"/>
      <stop offset=".77" stop-color="#fcc27f"/>
      <stop offset=".78" stop-color="#fdcb97"/>
      <stop offset=".8" stop-color="#fdd3aa"/>
      <stop offset=".82" stop-color="#fed8b8"/>
      <stop offset=".84" stop-color="#fedbc0"/>
      <stop offset=".89" stop-color="#fedcc2"/>
    </linearGradient>
    <linearGradient id="linear-gradient-2" x1="225.64" y1="219.4" x2="316.08" y2="291.16" gradientTransform="translate(0 514) scale(1 -1)" gradientUnits="userSpaceOnUse">
      <stop offset=".33" stop-color="#913013"/>
      <stop offset="1" stop-color="#eb661a"/>
    </linearGradient>
    <radialGradient id="radial-gradient" cx="134.94" cy="420.36" fx="134.94" fy="420.36" r="58.55" gradientTransform="translate(56.34 487.97) rotate(-1.71) scale(1.03 -1.01)" gradientUnits="userSpaceOnUse">
      <stop offset="0" stop-color="#fff494"/>
      <stop offset=".99" stop-color="#fd0"/>
    </radialGradient>
    <radialGradient id="radial-gradient-2" cx="237.86" cy="498.95" fx="237.86" fy="498.95" r="60.06" gradientTransform="translate(-44.46 646.25) rotate(6.41) scale(1.03 -1.01) skewX(.31)" gradientUnits="userSpaceOnUse">
      <stop offset="0" stop-color="#fff494"/>
      <stop offset=".99" stop-color="#fd0"/>
    </radialGradient>
    <radialGradient id="radial-gradient-3" cx="423.99" cy="254.24" fx="423.99" fy="254.24" r="58.25" gradientTransform="translate(-119.13 498.35) rotate(2.49) scale(.99 -.9) skewX(7.82)" gradientUnits="userSpaceOnUse">
      <stop offset="0" stop-color="#fff494"/>
      <stop offset=".99" stop-color="#fd0"/>
    </radialGradient>
    <radialGradient id="radial-gradient-4" cx="539.8" cy="136.46" fx="539.8" fy="136.46" r="54.74" gradientTransform="translate(-119.13 498.35) rotate(2.49) scale(.99 -.9) skewX(7.82)" gradientUnits="userSpaceOnUse">
      <stop offset="0" stop-color="#fff494"/>
      <stop offset=".99" stop-color="#fd0"/>
    </radialGradient>
    <linearGradient id="linear-gradient-3" x1="159.16" y1="1521.01" x2="316.74" y2="1392.73" gradientTransform="translate(-56 -1160)" gradientUnits="userSpaceOnUse">
      <stop offset=".13" stop-color="#c0531d"/>
      <stop offset=".44" stop-color="#e19a3d"/>
      <stop offset=".66" stop-color="#fcc17d"/>
      <stop offset=".84" stop-color="#fedcc2"/>
      <stop offset=".99" stop-color="#feead9"/>
    </linearGradient>
  </defs>
  <path class="cls-7" d="M132.67,124.05c70.9,252.14,379.34,416.75,379.34,274.66,0-58.04-94.84-82.31-200.32-264.26-118.75-180.22-197.63-77.12-179.02-10.39Z"/>
  <path class="cls-5" d="M338.3,474.09c58.5,52.86,146.24,51.12,146.24-9.52,0-18.3-8.47-36.35-24.06-58.14-43.49-60.78-142.51-150.66-268.43-356.02C144.01-29.32,49.6-8.21,61.12,69.93c15.82,107.46,153.08,293.07,277.18,404.16Z"/>
  <path class="cls-9" d="M363.96,406.74c51.4-41.85,91.67.85,91.67.85-45.4-7.69-91.67-.85-91.67-.85Z"/>
  <path class="cls-9" d="M299.71,329.87c51.4-41.85,91.67.85,91.67.85-45.4-7.69-91.67-.85-91.67-.85Z"/>
  <path class="cls-9" d="M235.45,253c51.41-41.84,91.68.86,91.68.86-45.4-7.69-91.68-.86-91.68-.86Z"/>
  <path class="cls-9" d="M180.63,176.15c51.4-41.84,91.68.86,91.68.86-46.29-7.7-91.68-.86-91.68-.86Z"/>
  <path class="cls-9" d="M134.37,107.82s46.26-6.83,91.67.85c-.02,0-40.27-42.71-91.67-.85Z"/>
  <path class="cls-8" d="M428.39,444.66c-6.89,11.32,13,20.83,18.88,9.54,16.71-28.79,13.56-65.06-21.96-78.14-18.8-6.52-37.27-1.92-55.99-6.4-41.65-10.88-8.47-41.18-5.03-64.5,3.29-28.39-17.73-39.89-45.73-43.08-24.87-2.31-57.96-3.34-49.66-36.92,3.72-14.24,15.62-30.76,11.03-45.79-7.95-24-37.07-30.19-61.09-38.58-12.54-4.67-26.08-8.3-21.37-23.6,2.82-9.18,5.68-17.34,7.47-26.49,1.72-12.17,4.34-27.39-5.26-38.22-21.32-21.59-61.17-6.25-85.49-24.73-10.56-7.75-25.62,6.84-15.06,14.61,12.7,9.72,27.3,14.34,43.88,15.86,11.42,1.69,43.32-2.31,41.78,14.92-1.35,24.28-26,63.42,7.54,79.58,12.56,5.67,25.07,9.35,37.58,13,22.98,8.41,33.52,15.16,22.85,38.72-9.69,21.5-9.76,53.85,14.46,68.27,13.69,8.69,26.08,8.32,42.63,8.82,9.3.73,24.79.26,32.26,8.12,8.57,9.85-3.38,25.36-8.3,33.6-13.72,24.66-3.62,51.62,23.59,62.93,22,9.45,73.22-5.21,79.32,25.91,1.37,11.08-2.42,22.31-8.32,32.59h0Z"/>
  <path class="cls-6" d="M197.94,52.43c-18.43-17.89-58.33-7.71-77.56-18.87-11.37-6.59-15.88.03-4.01,5.69,27.66,13.21,54.79,6.56,68.57,20.65,11.01,11.28,8.32,41.96,5.21,55.68-3.45,15.21.89,16.85,5.59,1.56,2.82-9.18,15.54-51.76,2.21-64.72Z"/>
  <path class="cls-3" d="M272.83,170.53c-17.08-19.13-51.2-24.01-70.87-34.42-11.61-6.14-15.87.66-3.77,5.85,28.18,12.13,45.94,19.71,59.06,34.38,10.66,11.9,2.3,41.86,2.67,55.91.38,15.58,5,16.15,5.82.19.46-9.57,20.76-46.62,7.09-61.92Z"/>
  <path class="cls-2" d="M356.84,280c-13.65-17.44-45.48-16.26-65.7-18.87-11.85-1.53-14.83,4.74-2.83,6.24,27.99,3.49,47.49,5.41,57.3,19.27,14.11,19.94-1.65,41.99-2.13,54.35-.55,13.7,3.9,13.95,5.63-.16,1.04-8.46,24.11-39.87,7.73-60.83Z"/>
  <path class="cls-1" d="M446.41,392.97c-18.85-22.35-45.64-18.57-66-19.31-11.95-.44-14.34,6.07-2.24,6.46,28.2.95,47.27,2.17,58.12,18.62,13.44,20.42,10.65,38.8,5.79,48.56-6.14,12.35-.3,14.21,5.99,1.41,4.24-8.65,15.48-35.39-1.67-55.74Z"/>
  <path class="cls-9" d="M462.06,482.23c.55-3.94-.55-12.66-6.65-18.98,0,0,1.54,13.91-2.01,22.74,2.01,2.88,7.88.39,8.66-3.76Z"/>
  <path class="cls-9" d="M460.75,484.69c-.13,3.97-2.68,12.45-9.75,17.95,0,0,3.83-13.56,1.81-22.75,2.47-2.59,7.85.59,7.94,4.8Z"/>
  <path class="cls-9" d="M459.46,487.76c4.29-.3,13.32-3.05,18.91-9.87,0,0-14.43,4.19-24.42,2.72-2.68,2.41.99,7.26,5.51,7.15Z"/>
  <path class="cls-9" d="M452.53,487.75c-4.29-.02-13.44-2.19-19.38-8.62,0,0,14.62,3.24,24.53,1.13,2.81,2.22-.61,7.3-5.15,7.48Z"/>
  <path class="cls-9" d="M463.05,484.58c2.83-3.02,7.2-10.86,6-19.3,0,0-7.13,12.39-15.39,17.92-.09,3.44,6.25,4.43,9.4,1.38Z"/>
  <path class="cls-9" d="M458.16,488.76c-3.45,2.41-12.2,5.86-21.16,4.15,0,0,13.83-5.69,20.39-12.95,3.69.19,4.29,6.11.78,8.8Z"/>
  <path class="cls-9" d="M455.44,487.66c3.6,2.15,12.54,4.94,21.38,2.56,0,0-14.16-4.66-21.13-11.39-3.69.45-3.92,6.41-.25,8.83Z"/>
  <path class="cls-9" d="M450.32,483.82c-3.02-2.79-7.83-10.3-7.19-18.79,0,0,7.89,11.84,16.48,16.73.3,3.42-5.96,4.88-9.29,2.07Z"/>
  <path class="cls-4" d="M1.49,117.12c-2.65,16.47-1.77,32.93,2.67,49.39,65.59,253.87,366.92,434.09,383.77,291.99,7.08-59.78-71.8-77.98-198.54-281.59C83.04,16.61,13.91,49.54,1.49,117.12Z"/>
</svg>