<?xml version="1.0" encoding="UTF-8"?>
<svg id="Layer_1" data-name="Layer 1" xmlns="http://www.w3.org/2000/svg" xmlns:xlink="http://www.w3.org/1999/xlink" viewBox="0 0 324.26 512">
  <defs>
    <style>
      .cls-1 {
        fill: url(#radial-gradient);
      }

      .cls-2 {
        fill: #93b0c0;
      }

      .cls-2, .cls-3 {
        opacity: .3;
      }

      .cls-2, .cls-3, .cls-4 {
        isolation: isolate;
      }

      .cls-3, .cls-5 {
        fill: #e6ebef;
      }

      .cls-6 {
        fill: #c5d7e8;
      }

      .cls-7 {
        fill: #f5f5f5;
      }

      .cls-8 {
        fill: #cc0100;
      }

      .cls-4 {
        fill: url(#linear-gradient);
        opacity: .7;
      }
    </style>
    <radialGradient id="radial-gradient" cx="-1979.42" cy="433.37" fx="-1979.42" fy="433.37" r="212.58" gradientTransform="translate(-1816.7677 525.6486) rotate(-180) scale(1 1.0239)" gradientUnits="userSpaceOnUse">
      <stop offset=".14" stop-color="#c40505"/>
      <stop offset=".26" stop-color="#be0505"/>
      <stop offset=".41" stop-color="#ac0505"/>
      <stop offset=".6" stop-color="#900505"/>
      <stop offset=".8" stop-color="#680404"/>
      <stop offset="1" stop-color="#380404"/>
    </radialGradient>
    <linearGradient id="linear-gradient" x1="49.07" y1="302.46" x2="49.07" y2="460.49" gradientTransform="translate(0 514) scale(1 -1)" gradientUnits="userSpaceOnUse">
      <stop offset="0" stop-color="#fff" stop-opacity="0"/>
      <stop offset="1" stop-color="#fff"/>
    </linearGradient>
  </defs>
  <path class="cls-6" d="M27.26,20.55c27.01-27.37,242.67-27.43,269.73,0,12.37,12.54,103.27,229.34-134.86,294.87C-76,249.89,14.9,33.09,27.26,20.55Z"/>
  <path class="cls-5" d="M33.54,26.67c23.68-24.01,233.53-23.99,257.3.09,3.85,4.49,15.58,31.68,21.28,66.35H11.84c5.61-35.9,17.78-61.93,21.7-66.45Z"/>
  <path class="cls-6" d="M126.63,464.55c17.47-17.65,21.6-24.17,23.33-34.47,5.47-32.28,0-122.86,0-122.86h24.32s-4.1,90.37,0,122.86c1.31,10.36,3.78,14.73,23.33,34.47,36.15,3.58,61.78,12.47,61.78,22.87,0,13.57-43.53,24.58-97.26,24.58s-97.28-11.01-97.28-24.58c0-10.4,25.63-19.29,61.78-22.87Z"/>
  <path class="cls-1" d="M11.8,93.12h300.3c2.7,12.75,4.05,29.13,4.05,37.42,0,119.36-113.48,165.91-154.02,165.91S8.1,249.89,8.1,130.54c0-12.04,1.95-27.19,3.7-37.43Z"/>
  <path class="cls-3" d="M166.19,503.81c66.3,0-92.5-8.67-56.2-26.41,29.6-14.45-33.07.9-33.07,8.51,0,8.33,34.55,17.9,89.27,17.9Z"/>
  <path class="cls-2" d="M173.32,445.79c20.65,25.74,38.12,38.16,34.92,38.49-31.19,3.27-44.34-50.24-34.92-38.49Z"/>
  <path class="cls-8" d="M11.82,92.71c0,10.73,67.29,19.43,150.3,19.43s150-8.71,150-19.43c0-7.42-67.93-15.51-150-15.51-83.97,0-150.3,8.08-150.3,15.51Z"/>
  <path class="cls-4" d="M35.63,53.51s12.59,5.82,33.59,9.65c0,0-26.84,70.52,5.96,148.39,0,0-21.95-3.62-36.1-7.85,0,0-33.86-60.76-3.46-150.19Z"/>
  <path class="cls-6" d="M25.6,28.84c0,12.04,61.13,21.85,136.53,21.85s136.52-9.8,136.52-21.85c0-8.55-61.6-21.85-136.52-21.85-75.9,0-136.53,13.29-136.53,21.85Z"/>
  <path class="cls-7" d="M33.87,24.13c0,7.77,57.23,16.6,128.08,16.6s128.45-8.81,128.45-16.6c0-7.19-57.88-18.35-128.26-18.35S33.87,16.95,33.87,24.13Z"/>
</svg>