<?xml version="1.0" encoding="UTF-8"?>
<svg id="Layer_1" data-name="Layer 1" xmlns="http://www.w3.org/2000/svg" xmlns:xlink="http://www.w3.org/1999/xlink" viewBox="0 0 493.71 512">
  <defs>
    <style>
      .cls-1 {
        fill: url(#radial-gradient-3);
      }

      .cls-2 {
        fill: url(#radial-gradient-2);
      }

      .cls-3 {
        fill: #449c00;
      }

      .cls-4 {
        fill: #785647;
      }

      .cls-5 {
        fill: url(#radial-gradient);
      }

      .cls-6 {
        fill: #56ab15;
      }

      .cls-7 {
        fill: #5fbd17;
      }
    </style>
    <radialGradient id="radial-gradient" cx="84.22" cy="400.86" fx="84.22" fy="400.86" r="241.91" gradientTransform="translate(100.19 653.21) scale(1.12 -1.13)" gradientUnits="userSpaceOnUse">
      <stop offset=".4" stop-color="#f5000d"/>
      <stop offset=".62" stop-color="#f2010d"/>
      <stop offset=".76" stop-color="#ea040e"/>
      <stop offset=".88" stop-color="#db0a10"/>
      <stop offset=".98" stop-color="#c61213"/>
      <stop offset="1" stop-color="#c21413"/>
    </radialGradient>
    <radialGradient id="radial-gradient-2" cx="130.5" cy="41.72" fx="130.5" fy="41.72" r="92.69" gradientTransform="translate(100.19 149.1) scale(1.12 -.51)" gradientUnits="userSpaceOnUse">
      <stop offset="0" stop-color="#b30100"/>
      <stop offset="1" stop-color="#c21413" stop-opacity="0"/>
    </radialGradient>
    <radialGradient id="radial-gradient-3" cx="186.06" cy="1732.72" fx="186.06" fy="1732.72" r="103.41" gradientTransform="translate(-436.5133 -1837.4824) rotate(-5.5985) scale(1.185 1.2145) skewX(3.9346)" gradientUnits="userSpaceOnUse">
      <stop offset="0" stop-color="#ff4f42"/>
      <stop offset="1" stop-color="#ff4f42" stop-opacity="0"/>
    </radialGradient>
  </defs>
  <path class="cls-5" d="M245.78,99.47C226.12,99.47,0,24.37,0,238.25c0,129.82,133.72,273.75,192.11,273.75,26.48,0,38.3-17.03,53.67-17.03s18.37,17.03,52.28,17.03c58.37,0,195.66-158.84,195.66-273.75,0-214.12-228.29-138.78-247.94-138.78Z"/>
  <path class="cls-2" d="M246.86,135.41c55.95,0,52.69-28.53,180.76-31.61-69.04-35.8-169.12-4.33-181.85-4.33s-111.71-31.31-180.11,4.32c128.49,3.01,125.17,31.62,181.2,31.62Z"/>
  <path class="cls-1" d="M250.72,209.7c-11.39-68.58-75.24-118.82-142.56-112.2C40.78,104.1-4.58,165.03,6.8,233.62c11.41,68.58,75.25,118.81,142.59,112.2,67.36-6.58,112.73-67.53,101.32-136.12Z"/>
  <path class="cls-3" d="M246.77,125.22C366.08,126.1,371.14,0,371.14,0,371.14,0,271.7,75.76,246.77,125.22Z"/>
  <path class="cls-6" d="M246.77,125.22C277.71,80.05,371.14,0,371.14,0,371.14,0,242.25-.38,246.77,125.22Z"/>
  <path class="cls-7" d="M256.58,112.22c-2.61-9.1-2.93-18.83-1.87-28.17,1.2-9.32,4.01-18.35,8.58-26.01-3.62,8.27-6.27,17.08-7.31,26.29-.62,4.57-.81,9.23-.72,13.9.12,4.65.45,9.36,1.33,14Z"/>
  <path class="cls-7" d="M272.39,93.97c-3.24-10.22-3.68-21.39-2.08-31.92.9-5.25,2.33-10.37,4.36-15.14,2.04-4.76,4.64-9.16,7.7-13.07-5.3,8.55-9.23,18.18-10.81,28.54-.89,5.15-1.18,10.46-1.04,15.73.16,5.29.68,10.64,1.87,15.85Z"/>
  <path class="cls-7" d="M290.45,75.03c-1.92-10.49-1.37-21.42,1.01-31.63,1.31-5.07,3.09-9.99,5.5-14.46,2.4-4.49,5.47-8.45,8.91-11.83-6.23,7.55-10.81,16.71-13.17,26.74-1.29,4.97-1.99,10.15-2.38,15.38-.36,5.2-.4,10.51.12,15.8Z"/>
  <path class="cls-7" d="M312.27,53.54c-.16-8.59,1.45-17.1,4.1-25.04,1.44-3.91,3.12-7.75,5.25-11.22,2.08-3.5,4.63-6.6,7.47-9.25-5.01,6.11-8.89,13.27-11.51,21.07-1.41,3.85-2.43,7.88-3.35,11.97-.85,4.09-1.57,8.24-1.96,12.48Z"/>
  <path class="cls-7" d="M333.32,33.78c.86-6.43,3.15-12.47,6.11-17.93,1.57-2.69,3.31-5.25,5.36-7.45,2.02-2.25,4.36-4.13,6.86-5.56-4.44,3.85-8.19,8.5-11.14,13.84-1.55,2.61-2.83,5.41-4.02,8.26-1.18,2.86-2.29,5.81-3.16,8.84Z"/>
  <path class="cls-6" d="M256.58,112.22c7.64,4.54,16.36,6.31,24.96,6.31,8.64-.16,17.35-2.41,25.18-7.04-8.19,3.37-16.66,5.42-25.14,5.43-4.26.14-8.48-.29-12.67-1.07-4.19-.81-8.35-1.89-12.32-3.63Z"/>
  <path class="cls-6" d="M272.39,93.97c9.27,5.86,19.88,8.55,30.22,8.66,5.17-.05,10.3-.77,15.21-2.29,4.86-1.52,9.5-3.8,13.73-6.71-9.01,4.71-18.87,7.56-29.06,7.45-5.07.07-10.18-.61-15.23-1.8-5.06-1.23-10.08-2.87-14.88-5.3Z"/>
  <path class="cls-6" d="M290.45,75.03c9.96,4.51,20.66,6.32,30.92,5.86,5.12-.37,10.13-1.34,14.79-3.13,4.68-1.74,8.93-4.38,12.66-7.59-8.16,5.48-17.66,8.7-27.71,9.2-5.03.37-10.16,0-15.29-.69-5.15-.78-10.3-1.89-15.38-3.65Z"/>
  <path class="cls-6" d="M312.27,53.54c8.12,2.73,16.51,3.5,24.58,2.93,4-.42,7.96-1.14,11.68-2.48,3.73-1.28,7.19-3.2,10.27-5.57-6.8,3.75-14.35,5.93-22.28,6.54-3.94.41-7.97.36-12.01.14-4.03-.27-8.12-.72-12.22-1.55Z"/>
  <path class="cls-6" d="M333.32,33.78c6.8.73,13.39-.27,19.42-2.21,2.94-1.12,5.81-2.42,8.35-4.19,2.56-1.71,4.74-3.89,6.52-6.37-4.48,4.08-9.75,7.15-15.63,9.09-2.88,1.08-5.95,1.79-9.07,2.41-3.12.6-6.3,1.07-9.58,1.27Z"/>
  <path class="cls-4" d="M252.57,135.41c-21.71-21.71-14.24-103.37,2.37-103.37,27.47,0-20.33,28.26-2.37,103.37Z"/>
</svg>