<?xml version="1.0" encoding="UTF-8"?>
<svg id="Layer_1" data-name="Layer 1" xmlns="http://www.w3.org/2000/svg" xmlns:xlink="http://www.w3.org/1999/xlink" viewBox="0 0 443.73 512">
  <defs>
    <style>
      .cls-1 {
        fill: #ffe8c9;
      }

      .cls-2 {
        fill: #b2c1d1;
      }

      .cls-3 {
        fill: #d47706;
      }

      .cls-4 {
        fill: url(#linear-gradient-3);
      }

      .cls-5 {
        fill: url(#linear-gradient-2);
      }

      .cls-6 {
        fill: url(#linear-gradient);
      }

      .cls-7 {
        fill: #fff3e3;
      }

      .cls-8 {
        fill: #fff;
      }

      .cls-9 {
        fill: url(#linear-gradient-4);
        isolation: isolate;
        opacity: .5;
      }

      .cls-10 {
        fill: #c5d7e8;
      }
    </style>
    <linearGradient id="linear-gradient" x1="344.48" y1="-32.27" x2="344.48" y2="285.77" gradientTransform="translate(31.07 422.74) rotate(-4.29) scale(1 -1)" gradientUnits="userSpaceOnUse">
      <stop offset="0" stop-color="#b8cad9"/>
      <stop offset=".08" stop-color="#baccdc"/>
      <stop offset=".46" stop-color="#c2d4e5"/>
      <stop offset="1" stop-color="#c5d7e8"/>
    </linearGradient>
    <linearGradient id="linear-gradient-2" x1="343.25" y1="-50.23" x2="343.25" y2="294.97" gradientTransform="translate(31.07 422.74) rotate(-4.29) scale(1 -1)" gradientUnits="userSpaceOnUse">
      <stop offset="0" stop-color="#b8cad9"/>
      <stop offset=".24" stop-color="#c3d5e6"/>
      <stop offset=".56" stop-color="#cbddef"/>
      <stop offset="1" stop-color="#cee0f2"/>
    </linearGradient>
    <linearGradient id="linear-gradient-3" x1="156.42" y1="61.32" x2="156.42" y2="402.2" gradientTransform="translate(0 514) scale(1 -1)" gradientUnits="userSpaceOnUse">
      <stop offset="0" stop-color="#f59e01"/>
      <stop offset=".37" stop-color="#f39b01"/>
      <stop offset=".64" stop-color="#eb9203"/>
      <stop offset=".88" stop-color="#dd8205"/>
      <stop offset="1" stop-color="#d47706"/>
    </linearGradient>
    <linearGradient id="linear-gradient-4" x1="53.54" y1="110.66" x2="53.54" y2="462.22" gradientTransform="translate(0 514) scale(1 -1)" gradientUnits="userSpaceOnUse">
      <stop offset="0" stop-color="#fff" stop-opacity="0"/>
      <stop offset=".11" stop-color="#fff" stop-opacity=".11"/>
      <stop offset="1" stop-color="#fff"/>
    </linearGradient>
  </defs>
  <path class="cls-6" d="M302.35,115.82l2.31,64.08s5.39-12.63,11.49-16.54c13.05-8.35,63.44-16.05,77.86-3.89,28.2,23.76,11.53,175.02-74.73,199.96-13.82,4.01-17.24-23.74-17.24-23.74l-6.58,99.57s8.29-27.16,17.48-30.48c146.16-52.88,138.23-234.38,116.46-260.43-18.67-22.34-38.27-20.56-112.81-17.42-8.12.33-14.25-11.11-14.25-11.11Z"/>
  <path class="cls-5" d="M292.1,453.54l7.81-117.98,4.29-.1c.73,5.98,4.7,22.98,12.88,22.4.5-.03,1.02-.14,1.56-.28,52.59-15.2,73.01-75.68,79.34-100.97,10.39-41.5,7.96-84.43-5.43-95.72-5.52-4.65-18.24-6.64-34.91-5.47-16.26,1.14-33.57,5.24-40.25,9.51-4.57,2.94-9.29,12.3-10.73,15.64l-3.79,8.93-3.01-82.72,4.42,8.19c1.54,2.86,6.74,10.24,12.22,10l8.57-.38c67.18-2.82,87.45-3.7,106.07,18.57,12.89,15.44,19.75,76,1.2,135.84-13.48,43.5-45.01,100.95-118.59,127.57-5.96,2.17-13.1,19.06-16.2,29.2l-5.45,17.77ZM302.05,359.19l-3.48,61.76c3.41-7.69,8.23-16.05,13.6-17.97,71.95-26.05,102.2-79.43,115.43-122.08,19.28-62.21,7.59-113.46-2.7-125.8-17.25-20.62-35.31-19.88-102.47-17.02l-8.55.37c-4.92.21-9.07-2.99-11.95-6.16l3.27,40.75c2.2-3.72,6.49-9.2,9.73-11.26,7.36-4.74,25.19-9.03,42.43-10.24,10.49-.73,29.38-.87,38.15,6.51,14.62,12.3,18.13,67.31,7.26,110.73-6.51,25.96-27.18,89.07-82.24,103.85-9.41,2.52-15.93-6.89-18.48-13.42Z"/>
  <path class="cls-10" d="M307.47,439.13V43.41c0-11.17-302.11-11.17-302.11,0v395.72s-2.82,5.03-2.82,34.78c0,50.78,307.76,50.78,307.76,0,0-29.75-2.82-34.78-2.82-34.78Z"/>
  <path class="cls-4" d="M15.21,120.76s5.32,246.78,5.32,306.04c0,34.5,271.79,34.5,271.79,0,0-56.34,5.31-306.04,5.31-306.04-1.48-11.95-280.94-11.95-282.41,0Z"/>
  <path class="cls-1" d="M15.21,46.92v73.85c104.19-2.93,178.21-2.93,282.4,0V46.92c0-8.46-282.4-8.46-282.4,0Z"/>
  <path class="cls-3" d="M151.18,360c0,29.17-45.55,29.17-45.55,0s45.55-29.19,45.55,0Z"/>
  <path class="cls-3" d="M117.02,291.29c0,17.52-27.33,17.52-27.33,0,0-17.51,27.33-17.51,27.33,0Z"/>
  <path class="cls-3" d="M158.02,265.03c0,23.33-36.44,23.33-36.44,0s36.44-23.36,36.44,0Z"/>
  <path class="cls-3" d="M112.47,215.78c0,11.66-18.22,11.66-18.22,0,0-11.68,18.22-11.68,18.22,0Z"/>
  <path class="cls-2" d="M18.94,459.78c110.61,31.69,132.24,37.94,258.74-1.67-95.65,8.86-169.67,13.4-258.74,1.67Z"/>
  <path class="cls-2" d="M59.31,480.69c72.04,20.86,153.11,15.53,228.39-8.98-76.82,2.57-151.16,12.69-228.39,8.98Z"/>
  <path class="cls-9" d="M34.98,94.53c1.89,105.8,8.25,214.27,1.16,297.12-1,11.46,34.74,18.75,35.17,1.08,2.05-80.9-.44-200.4-1.25-298.21h-35.09Z"/>
  <path class="cls-7" d="M.03,61.18C1.76,28,19.77,30.02,38.55,26.02c19.27-4.1,24.63-14.48,54.06-22.92,40.32-11.55,74.41,13.49,107.04,5.1,62.68-16.12,129.2,31.42,107.82,54.51-7.49-10.94-29.52-25.68-49.99,5.48-13.67,20.8,1.07,53.37,1.07,76.05,0,30.66-24.98,27.12-24.98,0,0-24.12,11.29-56.89-7.74-68.05-45.78-26.88-70.93,32.81-97.42,2.42-37.32-42.82-49.13,23.76-76.76-17C35.73,38.09-1.29,86.41.03,61.18Z"/>
  <path class="cls-8" d="M45.78,33.91s-32.43-2.3-37.83,14.59c-5.39,16.88,27.78-5.85,37.83-14.59Z"/>
  <path class="cls-8" d="M242.23,126.39s-11.78,16.11-1.46,30.48c6.26,8.7,1.46-30.48,1.46-30.48Z"/>
  <path class="cls-8" d="M82.91,34.91c22.99-2.09,21,4.53,45.17,4.53,30.69,0,37.55-16.25,69.93-13.58,0,0-33.14-13.22-77.64,3.93,0,0-.19-4.46,10.19-12.13-24.26,1.42-28.88,12.66-47.64,17.25Z"/>
</svg>