<?xml version="1.0" encoding="UTF-8"?>
<svg id="Layer_1" data-name="Layer 1" xmlns="http://www.w3.org/2000/svg" xmlns:xlink="http://www.w3.org/1999/xlink" viewBox="0 0 512 512">
  <defs>
    <style>
      .cls-1 {
        fill: #d69600;
      }

      .cls-2 {
        fill: #1a1626;
      }

      .cls-3 {
        fill: url(#linear-gradient);
      }
    </style>
    <linearGradient id="linear-gradient" x1="256" y1="2" x2="256" y2="514" gradientTransform="translate(0 514) scale(1 -1)" gradientUnits="userSpaceOnUse">
      <stop offset="0" stop-color="#ff9500"/>
      <stop offset=".19" stop-color="#ffad00"/>
      <stop offset=".55" stop-color="#ffd500"/>
      <stop offset=".83" stop-color="#ffed00"/>
      <stop offset="1" stop-color="#fff600"/>
    </linearGradient>
  </defs>
  <circle class="cls-3" cx="256" cy="256" r="256"/>
  <path class="cls-2" d="M193.37,409.6c66.13,17.15,147.37-8.7,181.67-62.29,2.82-4.44-1.54-9.05-5.97-5.55-35.84,28.33-111.96,49.41-167.68,33.11-21.33-6.31-30.55,28.93-8.02,34.73Z"/>
  <path class="cls-2" d="M307.88,267.61c26.37-13.99,64-14.93,92.5,0,6.57,3.41,14.51-2.73,11.52-7.59-27.39-44.97-88.23-44.8-115.54,0-2.99,4.86,4.95,11.09,11.52,7.59Z"/>
  <ellipse class="cls-2" cx="170.67" cy="247.47" rx="34.13" ry="42.67"/>
  <path class="cls-1" d="M120.15,127.4c-83.54,49.41-30.29,60.07,45.4,26.97,42.67-18.69,9.56-59.48-45.4-26.97Z"/>
  <path class="cls-1" d="M356.18,154.79c-63.91-.68-72.11,51.2-25.77,46.08,82.01-9.13,122.79-45.06,25.77-46.08Z"/>
</svg>