<?xml version="1.0" encoding="UTF-8"?>
<svg id="Layer_1" data-name="Layer 1" xmlns="http://www.w3.org/2000/svg" xmlns:xlink="http://www.w3.org/1999/xlink" viewBox="0 0 512.01 512">
  <defs>
    <style>
      .cls-1 {
        fill: #297124;
      }

      .cls-2 {
        fill: #7ab51d;
      }

      .cls-3, .cls-4 {
        fill: #0fb4d4;
      }

      .cls-5 {
        fill: url(#radial-gradient-2);
      }

      .cls-6 {
        fill: url(#linear-gradient-5);
      }

      .cls-7 {
        fill: url(#linear-gradient-4);
      }

      .cls-8 {
        fill: url(#linear-gradient-3);
      }

      .cls-9 {
        fill: url(#linear-gradient-2);
      }

      .cls-10 {
        fill: #1a1626;
      }

      .cls-11 {
        fill: url(#radial-gradient);
      }

      .cls-12 {
        fill: url(#linear-gradient);
      }

      .cls-13 {
        fill: #529320;
      }

      .cls-14 {
        fill: #75d6ff;
      }

      .cls-4 {
        isolation: isolate;
        opacity: .5;
      }

      .cls-15 {
        fill: #a6e639;
      }

      .cls-16 {
        fill: #e81c27;
      }

      .cls-17 {
        fill: #e635de;
      }
    </style>
    <linearGradient id="linear-gradient" x1="282.94" y1="1.81" x2="282.94" y2="449.81" gradientTransform="translate(-26.94 513.81) scale(1 -1)" gradientUnits="userSpaceOnUse">
      <stop offset="0" stop-color="#ff9500"/>
      <stop offset=".19" stop-color="#ffad00"/>
      <stop offset=".55" stop-color="#ffd500"/>
      <stop offset=".83" stop-color="#ffed00"/>
      <stop offset="1" stop-color="#fff600"/>
    </linearGradient>
    <radialGradient id="radial-gradient" cx="-2250.96" cy="154.51" fx="-2250.96" fy="154.51" r="80.48" gradientTransform="translate(-1870.8793 513.8668) rotate(-180)" gradientUnits="userSpaceOnUse">
      <stop offset="0" stop-color="#ff6399" stop-opacity=".55"/>
      <stop offset=".2" stop-color="#ff6596" stop-opacity=".44"/>
      <stop offset=".36" stop-color="#ff6c8c" stop-opacity=".35"/>
      <stop offset=".51" stop-color="#ff767b" stop-opacity=".27"/>
      <stop offset=".65" stop-color="#ff8663" stop-opacity=".19"/>
      <stop offset=".79" stop-color="#ff9a44" stop-opacity=".12"/>
      <stop offset=".92" stop-color="#ffb21f" stop-opacity=".05"/>
      <stop offset="1" stop-color="#ffc403" stop-opacity="0"/>
    </radialGradient>
    <radialGradient id="radial-gradient-2" cx="-2004.88" cy="154.51" fx="-2004.88" fy="154.51" r="80.48" gradientTransform="translate(-1870.8793 513.8668) rotate(-180)" gradientUnits="userSpaceOnUse">
      <stop offset="0" stop-color="#ff6399" stop-opacity=".55"/>
      <stop offset=".2" stop-color="#ff6596" stop-opacity=".44"/>
      <stop offset=".36" stop-color="#ff6c8c" stop-opacity=".35"/>
      <stop offset=".51" stop-color="#ff767b" stop-opacity=".27"/>
      <stop offset=".65" stop-color="#ff8663" stop-opacity=".19"/>
      <stop offset=".79" stop-color="#ff9a44" stop-opacity=".12"/>
      <stop offset=".92" stop-color="#ffb21f" stop-opacity=".05"/>
      <stop offset="1" stop-color="#ffc403" stop-opacity="0"/>
    </radialGradient>
    <linearGradient id="linear-gradient-2" x1="-1917.4" y1="1026.77" x2="-1780.98" y2="1163.19" gradientTransform="translate(-1613.5807 -1302.1216) rotate(-171.6457) scale(1.1349 -1.0089) skewX(8.4295)" gradientUnits="userSpaceOnUse">
      <stop offset=".12" stop-color="#75d6ff"/>
      <stop offset=".28" stop-color="#71d2fb"/>
      <stop offset=".46" stop-color="#64c5ee"/>
      <stop offset=".65" stop-color="#4eb0da"/>
      <stop offset=".84" stop-color="#3093bd"/>
      <stop offset="1" stop-color="#10749e"/>
    </linearGradient>
    <linearGradient id="linear-gradient-3" x1="-1815.93" y1="1035.39" x2="-1788.71" y2="1062.62" gradientTransform="translate(-1613.5807 -1302.1216) rotate(-171.6457) scale(1.1349 -1.0089) skewX(8.4295)" gradientUnits="userSpaceOnUse">
      <stop offset=".18" stop-color="#e84d88"/>
      <stop offset=".36" stop-color="#e34883"/>
      <stop offset=".59" stop-color="#d53874"/>
      <stop offset=".84" stop-color="#bf1f5b"/>
      <stop offset="1" stop-color="#ad0b48"/>
    </linearGradient>
    <linearGradient id="linear-gradient-4" x1="-1943.73" y1="1072.38" x2="-1816.95" y2="1199.16" gradientTransform="translate(-1613.5807 -1302.1216) rotate(-171.6457) scale(1.1349 -1.0089) skewX(8.4295)" gradientUnits="userSpaceOnUse">
      <stop offset=".18" stop-color="#e84d88"/>
      <stop offset=".36" stop-color="#e34883"/>
      <stop offset=".59" stop-color="#d53874"/>
      <stop offset=".84" stop-color="#bf1f5b"/>
      <stop offset="1" stop-color="#ad0b48"/>
    </linearGradient>
    <linearGradient id="linear-gradient-5" x1="-1882.81" y1="1057.04" x2="-1798.8" y2="1141.04" gradientTransform="translate(-1613.5807 -1302.1216) rotate(-171.6457) scale(1.1349 -1.0089) skewX(8.4295)" gradientUnits="userSpaceOnUse">
      <stop offset=".18" stop-color="#e84d88"/>
      <stop offset=".36" stop-color="#e34883"/>
      <stop offset=".59" stop-color="#d53874"/>
      <stop offset=".84" stop-color="#bf1f5b"/>
      <stop offset="1" stop-color="#ad0b48"/>
    </linearGradient>
  </defs>
  <path class="cls-12" d="M256,64c123.68,0,224,100.24,224,224s-100.32,224-224,224S32,411.68,32,288s100.32-224,224-224Z"/>
  <path class="cls-10" d="M134.56,274.96c31.92-41.2,54.16-41.2,86.08,0,4.8,6.24,14.72,1.6,12.64-4.48-27.04-79.68-84.32-79.68-111.44,0-2,6.08,7.84,10.72,12.72,4.48Z"/>
  <path class="cls-10" d="M291.36,274.96c31.92-41.2,54.16-41.2,86.08,0,4.88,6.24,14.72,1.6,12.64-4.48-27.04-79.68-84.32-79.68-111.44,0-2,6.08,7.84,10.72,12.72,4.48Z"/>
  <path class="cls-11" d="M380.08,278.88c-44.48,0-80.48,36.08-80.48,80.48s36.08,80.48,80.48,80.48,80.48-36,80.48-80.48c.08-44.4-36-80.48-80.48-80.48Z"/>
  <path class="cls-5" d="M134,278.88c-44.48,0-80.48,36.08-80.48,80.48s36.08,80.48,80.48,80.48,80.48-36,80.48-80.48c0-44.4-36-80.48-80.48-80.48Z"/>
  <path class="cls-15" d="M439.92,436.32s13.76-21.12,30.08-43.6c12.32-16.96,50.64,8.24,40.24,39.6-5.92,17.92-22.32,63.68-58.72,47.04-7.36-13.92.64-19.84-11.6-43.04Z"/>
  <path class="cls-14" d="M428.08,467.28c-54.48-20.88-125.28-48.08-133.2-50.96-4.72-1.68.8-32.8,8.16-30.32,9.44,3.12,79.52,27.6,133.28,46.48l-8.24,34.8Z"/>
  <path class="cls-4" d="M314.24,423.6c-7.92-2.96-13.92-5.28-17.2-6.48,10.08-7.6,20.08-15.2,30.16-22.8,5.28,1.84,11.2,3.92,17.68,6.16-10.32,7.68-20.48,15.44-30.64,23.12Z"/>
  <path class="cls-4" d="M354.24,438.96c-6.4-2.48-12.48-4.8-18.24-6.96l31.2-23.52c6.08,2.08,12.4,4.4,18.8,6.56l-31.76,23.92Z"/>
  <path class="cls-4" d="M393.84,454.08c-3.6-1.36-14.56-5.52-18.08-6.88l32.48-24.56c3.68,1.28,13.92,4.88,17.52,6.16l-31.92,25.28Z"/>
  <path class="cls-2" d="M423.04,466.56c-3.92-1.6,3.76-38.8,7.92-37.52,2.8.88,22.72,7.28,22.72,7.28l-1.52,42.56c.08,0-26.96-11.44-29.12-12.32Z"/>
  <path class="cls-2" d="M483.92,472.48c21.12-15.2-20.16-61.6-40.88-40.96-16.08,16.08,17.68,57.68,40.88,40.96Z"/>
  <path class="cls-13" d="M474.88,467.76c15.68-11.28-15.04-45.76-30.4-30.4-11.92,11.92,13.12,42.88,30.4,30.4Z"/>
  <path class="cls-1" d="M466,463.84c9.84-7.04-9.36-28.64-18.96-19.04-7.52,7.44,8.16,26.8,18.96,19.04Z"/>
  <path class="cls-10" d="M302.48,417.76c-7.44-10.48-1.04-25.2,7.84-27.12,6.72-1.52,12.24-13.76,4.24-26.08-9.04-13.84-34.4-7.76-49.12-34.16-4.08,30.72,30.88,35.68,32.56,44.4,1.76,9.2-10.56,11.92-13.84,21.36-2.4,6.8,6.72,22.96-1.92,27.04-8.08,3.84-37.52-10.88-52.24,16.4,27.36-12.8,44.08,5.28,59.84.96,20.08-5.36,15.04-19.44,12.64-22.8Z"/>
  <path class="cls-9" d="M75.44,0l-12.8,181.12c10.4,15.92,204.48-96.96,194.08-112.88L75.44,0Z"/>
  <path class="cls-8" d="M75.44,0l-2.96,41.92s20.96-8.88,32.96-30.64L75.44,0Z"/>
  <path class="cls-7" d="M198.88,46.48c-58.8,75.28-135.68,126.72-135.68,126.72l-.56,7.92c3.36,5.12,25.6-3.04,53.92-17.04,0,0,67.12-34.8,113.6-105.92l-31.28-11.68Z"/>
  <path class="cls-6" d="M136.32,22.88c-33.68,45.36-66.96,62.88-66.96,62.88l-3.12,43.92s60.72-34.8,101.36-95.04l-31.28-11.76Z"/>
  <path class="cls-16" d="M36.4,361.12l8.32-13.92s-19.04-8.16-26.96-14.96c27.92-11.52,45.92-13.2,19.68-42.16,54.08,9.12,29.28-17.84,10.16-44.08,13.2-.72,11.44-2.4,12.72-15.6-45.12-3.12-27.04,24.4-8.48,46-41.44-6.72-36.96,7.52-18,35.44C17.52,315.44-.16,324.08,0,333.92c.24,11.2,36.4,27.2,36.4,27.2Z"/>
  <polygon class="cls-17" points="374.64 58.72 426.72 67.84 405.84 16 374.64 58.72"/>
  <polygon class="cls-15" points="68.4 369.6 108.56 371.84 88.16 334.64 68.4 369.6"/>
  <polygon class="cls-16" points="434.56 123.2 453.92 156.56 486.64 136.16 467.28 102.8 434.56 123.2"/>
  <polygon class="cls-3" points="294.4 124.96 322.72 150.8 336 114.8 307.68 88.88 294.4 124.96"/>
  <polygon class="cls-17" points="57.12 440.96 73.44 478.88 108.56 457.12 92.16 419.2 57.12 440.96"/>
  <path class="cls-15" d="M10.56,119.84c0,28.56,42.8,28.56,42.8,0,.08-28.56-42.8-28.56-42.8,0Z"/>
  <path class="cls-3" d="M438.88,242.32c0,28.56,42.8,28.56,42.8,0,.08-28.56-42.8-28.56-42.8,0Z"/>
</svg>