<?xml version="1.0" encoding="UTF-8"?>
<svg id="Layer_1" data-name="Layer 1" xmlns="http://www.w3.org/2000/svg" xmlns:xlink="http://www.w3.org/1999/xlink" viewBox="0 0 495.46 512">
  <defs>
    <style>
      .cls-1 {
        fill: #fd7383;
      }

      .cls-2 {
        fill: #d69600;
      }

      .cls-3 {
        fill: url(#linear-gradient-2);
      }

      .cls-4 {
        fill: #1a1626;
      }

      .cls-5 {
        fill: #99a8ae;
      }

      .cls-6 {
        fill: url(#linear-gradient);
      }

      .cls-7 {
        fill: #fff;
      }
    </style>
    <linearGradient id="linear-gradient" x1="-907.73" y1="532.04" x2="-907.73" y2="523.78" gradientTransform="translate(54711.6864 -31426.8596) scale(60)" gradientUnits="userSpaceOnUse">
      <stop offset="0" stop-color="#ff9500"/>
      <stop offset=".19" stop-color="#ffad00"/>
      <stop offset=".55" stop-color="#ffd500"/>
      <stop offset=".83" stop-color="#ffed00"/>
      <stop offset="1" stop-color="#fff600"/>
    </linearGradient>
    <linearGradient id="linear-gradient-2" x1="189.93" y1="198.2" x2="305.54" y2="198.2" gradientTransform="translate(0 512) scale(1 -1)" gradientUnits="userSpaceOnUse">
      <stop offset="0" stop-color="#cfd7e6"/>
      <stop offset=".04" stop-color="#dae0ec"/>
      <stop offset=".13" stop-color="#eef1f6"/>
      <stop offset=".21" stop-color="#fbfcfd"/>
      <stop offset=".3" stop-color="#fff"/>
      <stop offset=".7" stop-color="#fff"/>
      <stop offset=".79" stop-color="#fbfcfd"/>
      <stop offset=".87" stop-color="#eef1f6"/>
      <stop offset=".96" stop-color="#dae0ec"/>
      <stop offset="1" stop-color="#cfd7e6"/>
    </linearGradient>
  </defs>
  <path id="Oval" class="cls-6" d="M247.73,0c136.83,0,247.73,110.9,247.73,247.73s-110.9,247.73-247.73,247.73S0,384.56,0,247.73,110.9,0,247.73,0Z"/>
  <path class="cls-4" d="M204.3,190.34c-20.97,22.13-64.33,30.97-93.73,16.52-6.85-3.3-16.27,1.49-13.13,6.19,32.04,48.23,107.85,34.77,121.39-21.39,1.32-5.53-9.33-6.85-14.53-1.32Z"/>
  <path class="cls-4" d="M291.17,190.34c20.97,22.13,64.33,30.97,93.81,16.52,6.77-3.3,16.27,1.49,13.13,6.19-32.04,48.23-107.76,34.77-121.39-21.39-1.4-5.53,9.25-6.85,14.45-1.32Z"/>
  <path class="cls-4" d="M330.31,369.86c0,101.49-165.15,101.49-165.15,0v-12.96c0-101.49,165.15-101.49,165.15,0v12.96Z"/>
  <path class="cls-3" d="M189.93,330.31c11.56-19.74,33.11-33.03,57.8-33.03s46.24,13.29,57.8,33.03h-115.61Z"/>
  <path class="cls-1" d="M247.73,406.86c-31.71-8.09-45.42,8.84-45.42,8.84,13.13,8.67,28.24,13.71,45.42,13.71s32.29-5.04,45.42-13.71c0,0-13.71-17.01-45.42-8.84Z"/>
  <path class="cls-5" d="M256.4,317.43h0c-4.62-4.62-11.15-7.18-17.75-6.77-1.82.08-3.63.41-5.37.91-1.16-2.56-2.81-4.95-4.95-7.1-4.95-4.95-11.89-7.6-18.99-7.1-8.34.5-16.27,5.12-22.3,12.96-13.13,17.09-27.33,32.37-38.98,44.01-1.73-7.18-5.04-14.29-10.82-20.07-2.56-2.56-5.45-4.71-8.67-6.44-9.5-5.12-16.6-3.3-20.81-.99-10.16,5.7-10.82,17.09-11.56,30.22-.74,12.39-1.65,27.75-8.84,41.95-14.86,29.31-8.42,64.25,16.35,89.02,26.42,26.42,64.16,31.54,91.83,12.63,26.67-18.25,53.43-44.26,79.69-77.21,13.13-16.52,9.91-33.28,1.32-41.87-.83-.83-1.73-1.57-2.56-2.23,7.18-14.04,3.96-26.84-3.3-34.1-2.15-2.15-4.62-3.8-7.43-4.95,1.49-9.5-1.65-17.67-6.85-22.87h0Z"/>
  <path class="cls-7" d="M244.02,348.48c-17.84,24.53-50.21,60.86-50.21,60.86,0,0,29.23-23.04,49.88-49.88,11.81-15.28,27.99-.91,14.45,17.67-16.68,22.79-42.94,53.59-42.94,53.59,0,0,18-13.46,37.41-37.41,9.41-11.56,25.35,3.06,11.15,20.97-16.68,20.89-43.52,51.61-76.55,74.24-46.82,32.12-114.53-28.57-86.95-83.07,18-35.51,2.73-74.98,21.39-65.07,21.14,11.48,11.31,47.73,11.31,47.73,0,0,35.34-29.73,65.57-69.03,12.63-16.35,29.98-2.31,19.16,12.96-15.85,22.38-45.25,55.9-45.25,55.9,0,0,30.14-23.78,57.39-57.39,10.82-13.29,27.75-.66,14.2,17.92Z"/>
  <path class="cls-2" d="M107.76,99.18c-80.84,47.81-29.32,58.13,43.93,26.09,41.29-18.08,9.25-57.56-43.93-26.09Z"/>
  <path class="cls-2" d="M387.7,99.26c-53.18-31.46-85.22,8.01-43.93,26.09,73.25,32.12,124.77,21.72,43.93-26.09Z"/>
</svg>