<?xml version="1.0" encoding="UTF-8"?>
<svg id="Layer_1" data-name="Layer 1" xmlns="http://www.w3.org/2000/svg" xmlns:xlink="http://www.w3.org/1999/xlink" viewBox="0 0 480 512">
  <defs>
    <style>
      .cls-1 {
        fill: #ff8801;
      }

      .cls-2 {
        fill: #fd7383;
      }

      .cls-3 {
        fill: #cfd8dd;
      }

      .cls-4 {
        fill: url(#radial-gradient-7);
      }

      .cls-5 {
        fill: url(#radial-gradient-6);
      }

      .cls-6 {
        fill: url(#radial-gradient-5);
      }

      .cls-7 {
        fill: url(#radial-gradient-4);
      }

      .cls-8 {
        fill: url(#radial-gradient-9);
      }

      .cls-9 {
        fill: url(#radial-gradient-8);
      }

      .cls-10 {
        fill: url(#radial-gradient-3);
      }

      .cls-11 {
        fill: url(#radial-gradient-2);
      }

      .cls-12 {
        fill: url(#linear-gradient-2);
      }

      .cls-13 {
        fill: #ffe12c;
      }

      .cls-14 {
        fill: #1a1626;
      }

      .cls-15 {
        fill: url(#radial-gradient);
      }

      .cls-16 {
        fill: url(#linear-gradient);
      }

      .cls-17 {
        fill: url(#radial-gradient-10);
      }

      .cls-18 {
        fill: #fff;
      }

      .cls-19 {
        fill: #e8a329;
      }

      .cls-20 {
        fill: #ff4d00;
      }
    </style>
    <linearGradient id="linear-gradient" x1="240" y1="2" x2="240" y2="503.77" gradientTransform="translate(0 514) scale(1 -1)" gradientUnits="userSpaceOnUse">
      <stop offset="0" stop-color="#ff9500"/>
      <stop offset=".19" stop-color="#ffad00"/>
      <stop offset=".55" stop-color="#ffd500"/>
      <stop offset=".83" stop-color="#ffed00"/>
      <stop offset="1" stop-color="#fff600"/>
    </linearGradient>
    <linearGradient id="linear-gradient-2" x1="202.64" y1="125.6" x2="277.36" y2="125.6" gradientTransform="translate(0 514) scale(1 -1)" gradientUnits="userSpaceOnUse">
      <stop offset="0" stop-color="#cfd7e6"/>
      <stop offset=".04" stop-color="#dae0ec"/>
      <stop offset=".13" stop-color="#eef1f6"/>
      <stop offset=".21" stop-color="#fbfcfd"/>
      <stop offset=".3" stop-color="#fff"/>
      <stop offset=".7" stop-color="#fff"/>
      <stop offset=".79" stop-color="#fbfcfd"/>
      <stop offset=".87" stop-color="#eef1f6"/>
      <stop offset=".96" stop-color="#dae0ec"/>
      <stop offset="1" stop-color="#cfd7e6"/>
    </linearGradient>
    <radialGradient id="radial-gradient" cx="147.41" cy="463.6" fx="147.41" fy="463.6" r="50.4" gradientTransform="translate(44.35 514) scale(1.33 -1)" gradientUnits="userSpaceOnUse">
      <stop offset=".42" stop-color="#fff"/>
      <stop offset="1" stop-color="#fff" stop-opacity="0"/>
    </radialGradient>
    <radialGradient id="radial-gradient-2" cx="162.51" cy="396.4" fx="162.51" fy="396.4" r="50.4" gradientTransform="translate(35.95 514) scale(1.26 -1)" gradientUnits="userSpaceOnUse">
      <stop offset=".42" stop-color="#fff"/>
      <stop offset="1" stop-color="#fff" stop-opacity="0"/>
    </radialGradient>
    <radialGradient id="radial-gradient-3" cx="69.07" cy="388.32" fx="69.07" fy="388.32" r="50.41" gradientTransform="translate(4.54 514) scale(1 -1)" gradientUnits="userSpaceOnUse">
      <stop offset=".42" stop-color="#fff"/>
      <stop offset="1" stop-color="#fff" stop-opacity="0"/>
    </radialGradient>
    <radialGradient id="radial-gradient-4" cx="103.56" cy="426.64" fx="103.56" fy="426.64" r="50.41" gradientTransform="translate(4.54 514) scale(1 -1)" gradientUnits="userSpaceOnUse">
      <stop offset=".42" stop-color="#fff"/>
      <stop offset="1" stop-color="#fff" stop-opacity="0"/>
    </radialGradient>
    <radialGradient id="radial-gradient-5" cx="160.1" cy="454" fx="160.1" fy="454" r="50.41" gradientTransform="translate(4.54 514) scale(1 -1)" gradientUnits="userSpaceOnUse">
      <stop offset=".42" stop-color="#fff"/>
      <stop offset="1" stop-color="#fff" stop-opacity="0"/>
    </radialGradient>
    <radialGradient id="radial-gradient-6" cx="149.59" cy="398.24" fx="149.59" fy="398.24" r="50.41" gradientTransform="translate(4.54 514) scale(1 -1)" gradientUnits="userSpaceOnUse">
      <stop offset=".42" stop-color="#fff"/>
      <stop offset="1" stop-color="#fff" stop-opacity="0"/>
    </radialGradient>
    <radialGradient id="radial-gradient-7" cx="-639.56" cy="388.32" fx="-639.56" fy="388.32" r="50.41" gradientTransform="translate(-236.36 514) rotate(-180)" gradientUnits="userSpaceOnUse">
      <stop offset=".42" stop-color="#fff"/>
      <stop offset="1" stop-color="#fff" stop-opacity="0"/>
    </radialGradient>
    <radialGradient id="radial-gradient-8" cx="-605.15" cy="426.64" fx="-605.15" fy="426.64" r="50.41" gradientTransform="translate(-236.36 514) rotate(-180)" gradientUnits="userSpaceOnUse">
      <stop offset=".42" stop-color="#fff"/>
      <stop offset="1" stop-color="#fff" stop-opacity="0"/>
    </radialGradient>
    <radialGradient id="radial-gradient-9" cx="-548.53" cy="454" fx="-548.53" fy="454" r="50.41" gradientTransform="translate(-236.36 514) rotate(-180)" gradientUnits="userSpaceOnUse">
      <stop offset=".42" stop-color="#fff"/>
      <stop offset="1" stop-color="#fff" stop-opacity="0"/>
    </radialGradient>
    <radialGradient id="radial-gradient-10" cx="-559.04" cy="398.24" fx="-559.04" fy="398.24" r="50.41" gradientTransform="translate(-236.36 514) rotate(-180)" gradientUnits="userSpaceOnUse">
      <stop offset=".42" stop-color="#fff"/>
      <stop offset="1" stop-color="#fff" stop-opacity="0"/>
    </radialGradient>
  </defs>
  <path class="cls-3" d="M96.16,146.32c0,67.2,101.28,67.2,101.28,0-.08-67.12-101.28-67.12-101.28,0Z"/>
  <path class="cls-3" d="M282.64,146.32c0,67.2,101.28,67.2,101.28,0s-101.28-67.12-101.28,0Z"/>
  <path class="cls-19" d="M475.68,227.84c2.8,19.84-1.12,30-1.12,51.04H5.52c0-21.04-1.12-51.04-1.12-51.04l49.84-16,38.32,36.8,34.16-44.64,105.68,30.24,113.2-27.68,20.88,33.68,24.64-22,26.64,52.88,26.48-56.96,31.44,13.68Z"/>
  <path class="cls-20" d="M356.56,133.12H123.44s42.16,35.76,42.16,73.44-42.16,73.44-42.16,73.44h233.12s-39.76-27.52-39.76-73.44,39.76-73.44,39.76-73.44Z"/>
  <path class="cls-1" d="M329.68,133.12h-179.36s29.36,36.32,29.36,73.44-29.36,73.44-29.36,73.44h179.36s-27.44-28.24-27.44-73.44,27.44-73.44,27.44-73.44Z"/>
  <path class="cls-13" d="M306,133.12h-132s25.04,36.88,25.04,73.44-25.04,73.44-25.04,73.44h132s-23.68-26-23.68-73.44,23.68-73.44,23.68-73.44Z"/>
  <path class="cls-1" d="M217.68,155.2c11.84,10,17.2,67.36,11.28,86.96-6.24,20.8-23.04-96.96-11.28-86.96Z"/>
  <path class="cls-1" d="M259.52,141.92c9.84,16.88,4.8,101.84-4.56,129.44-9.92,29.36-5.28-146.32,4.56-129.44Z"/>
  <path class="cls-16" d="M4.32,227.84c-2.8,14.64-4.32,29.76-4.32,45.2,0,132,107.44,238.96,240,238.96s240-106.96,240-238.96c0-15.44-1.52-30.56-4.32-45.2l-37.36,42.48-22-30.4-19.84,16-31.04-42.32-43.04,21.36-22.4-12.8-38.4,41.28-23.92-18.88-18.88,30.08-50.16-61.04-58.16,30.96-25.2-16.16-27.28,38.96-27.12-42-26.56,2.48Z"/>
  <path class="cls-14" d="M296,433.28c0,77.04-112,77.04-112,0v-9.84c0-77.04,112-77.04,112,0v9.84Z"/>
  <path class="cls-12" d="M202.64,400.48c7.44-14.4,21.36-24.16,37.36-24.16s29.92,9.68,37.36,24.16h-74.72Z"/>
  <path class="cls-2" d="M210.64,468.96c8.48,6.4,18.24,10.08,29.36,10.08s20.88-3.68,29.36-10.08c0,0-14.64-18.64-29.36-6.56-14.72-12.08-29.36,6.56-29.36,6.56Z"/>
  <ellipse class="cls-18" cx="150" cy="304.32" rx="60" ry="59.76"/>
  <path class="cls-14" d="M180,304.32c0,16.48-13.44,29.84-30,29.84s-30-13.36-30-29.84,13.44-29.84,30-29.84,30,13.36,30,29.84Z"/>
  <ellipse class="cls-18" cx="330" cy="304.32" rx="60" ry="59.76"/>
  <path class="cls-14" d="M360,304.32c0,16.48-13.44,29.84-30,29.84s-30-13.36-30-29.84,13.44-29.84,30-29.84,30,13.36,30,29.84Z"/>
  <path class="cls-3" d="M306.88,50.4c0,67.2-133.76,67.2-133.76,0s133.76-67.2,133.76,0Z"/>
  <path class="cls-3" d="M303.28,117.6c0,67.2-126.56,67.2-126.56,0s126.56-67.2,126.56,0Z"/>
  <path class="cls-3" d="M124.56,125.68c0,67.2-101.28,67.2-101.28,0s101.28-67.2,101.28,0Z"/>
  <path class="cls-3" d="M159.2,87.36c0,67.2-101.28,67.2-101.28,0s101.28-67.2,101.28,0Z"/>
  <path class="cls-3" d="M216,60c0,67.2-101.28,67.2-101.28,0s101.28-67.2,101.28,0Z"/>
  <path class="cls-3" d="M205.44,115.76c0,67.2-101.28,67.2-101.28,0s101.28-67.2,101.28,0Z"/>
  <path class="cls-3" d="M355.44,125.68c0,67.2,101.28,67.2,101.28,0s-101.28-67.2-101.28,0Z"/>
  <path class="cls-3" d="M320.88,87.36c0,67.2,101.28,67.2,101.28,0-.08-67.2-101.28-67.2-101.28,0Z"/>
  <path class="cls-3" d="M264,60c0,67.2,101.28,67.2,101.28,0s-101.28-67.2-101.28,0Z"/>
  <path class="cls-3" d="M274.56,115.76c0,67.2,101.28,67.2,101.28,0s-101.28-67.2-101.28,0Z"/>
  <path class="cls-15" d="M306.88,50.4c0,67.2-133.76,67.2-133.76,0s133.76-67.2,133.76,0Z"/>
  <path class="cls-11" d="M303.28,117.6c0,67.2-126.56,67.2-126.56,0s126.56-67.2,126.56,0Z"/>
  <path class="cls-10" d="M124.56,125.68c0,67.2-101.28,67.2-101.28,0s101.28-67.2,101.28,0Z"/>
  <path class="cls-7" d="M159.2,87.36c0,67.2-101.28,67.2-101.28,0s101.28-67.2,101.28,0Z"/>
  <path class="cls-6" d="M216,60c0,67.2-101.28,67.2-101.28,0s101.28-67.2,101.28,0Z"/>
  <path class="cls-5" d="M205.44,115.76c0,67.2-101.28,67.2-101.28,0s101.28-67.2,101.28,0Z"/>
  <path class="cls-4" d="M355.44,125.68c0,67.2,101.28,67.2,101.28,0s-101.28-67.2-101.28,0Z"/>
  <path class="cls-9" d="M320.88,87.36c0,67.2,101.28,67.2,101.28,0-.08-67.2-101.28-67.2-101.28,0Z"/>
  <path class="cls-8" d="M264,60c0,67.2,101.28,67.2,101.28,0s-101.28-67.2-101.28,0Z"/>
  <path class="cls-17" d="M274.56,115.76c0,67.2,101.28,67.2,101.28,0s-101.28-67.2-101.28,0Z"/>
</svg>