<?xml version="1.0" encoding="UTF-8"?>
<svg id="Layer_1" data-name="Layer 1" xmlns="http://www.w3.org/2000/svg" xmlns:xlink="http://www.w3.org/1999/xlink" viewBox="0 0 528.7 512">
  <defs>
    <style>
      .cls-1 {
        fill: #0fb4d4;
      }

      .cls-2 {
        fill: url(#radial-gradient-2);
      }

      .cls-3 {
        fill: url(#radial-gradient);
      }

      .cls-4 {
        fill: #ffae2c;
      }

      .cls-5, .cls-6 {
        fill: #db942d;
      }

      .cls-6 {
        isolation: isolate;
        opacity: .3;
      }
    </style>
    <radialGradient id="radial-gradient" cx="22.27" cy="2065.83" fx="22.27" fy="2065.83" r="225.5" gradientTransform="translate(-2354.1436 216.3106) rotate(90.3449) scale(.9966 -1.1859) skewX(-.8246)" gradientUnits="userSpaceOnUse">
      <stop offset=".69" stop-color="#ffc940"/>
      <stop offset=".97" stop-color="#ffb12e"/>
      <stop offset="1" stop-color="#ffae2c"/>
    </radialGradient>
    <radialGradient id="radial-gradient-2" cx="476.46" cy="499.74" fx="476.46" fy="499.74" r="225.5" gradientTransform="translate(1022.7218 -247.6185) rotate(89.6551) scale(.9966 1.1859) skewX(-.8246)" gradientUnits="userSpaceOnUse">
      <stop offset=".69" stop-color="#ffc940"/>
      <stop offset=".97" stop-color="#ffb12e"/>
      <stop offset="1" stop-color="#ffae2c"/>
    </radialGradient>
  </defs>
  <path class="cls-4" d="M30.48,430.51c9.41,9.5,3.3,64.66,3.3,70.28,0,14.95,129.49,14.95,129.49,0,0-5.12-3.88-62.51,7.27-70.28,0,0-140.06,0-140.06,0Z"/>
  <path class="cls-5" d="M165.75,430.51c-9.99,27.75-2.56,64-2.56,70.28,2.97-6.36-.25-44.02,11.15-70.28,0,0-8.59,0-8.59,0Z"/>
  <path class="cls-5" d="M34.61,430.51h-8.67c11.89,27.99,5.45,64.58,7.85,70.28-.33-5.7,8.92-42.2.83-70.28Z"/>
  <path class="cls-3" d="M222.89,285.75c-32.87,29.23-38.07,65.24-43.11,10.07-2.64-28.49-2.64-67.55-2.97-118.17-.17-26.43-37.49-22.54-38.23-3.72-1.32,36.01-2.06,114.21-2.06,114.21,0,0-3.14-128.33-3.22-135.68-.25-19.9-40.13-24.28-41.21,2.06-1.4,35.92-2.39,131.22-2.39,131.22,0,0-1.49-91.91-3.06-118.42-1.07-18.33-34.19-18.58-36.01,3.39-1.73,21.06-3.22,115.2-3.22,115.2,0,0-1.32-57.48-1.07-69.7.5-21.88-29.98-18.66-32.95,1.07-4.21,27.58-4.29,57.97-6.52,82.91-8.67,97.61,2.81,159.13,91.25,150.87,117.1,14.2,99.26-65.57,164.58-153.35,10.41-14.04-15.36-33.69-39.8-11.97Z"/>
  <path class="cls-5" d="M230.57,275.1c-11.56,5.7-25.19,22.21-34.02,35.18-8.26,12.14-10.74,6.85-11.56-3.06-1.98-23.95-3.72-86.63-3.96-119.74l-.08-9.91c-.08-15.53-11.48-22.71-22.71-22.87h-.41c-7.76,0-15.86,3.39-20.23,9.33-.17-6.28-.25-10.49-.25-11.64-.17-12.97-12.97-20.15-24.94-20.31-12.06-.08-24.11,6.69-24.69,22.3-.08,1.16-.08,2.39-.17,3.72-3.55-5.04-9.91-8.18-17.51-8.26h-.25c-10.57,0-22.38,6.44-23.54,20.56-.5,5.95-.99,17.67-1.4,31.38-3.14-2.89-7.18-4.29-10.98-4.62-10.65-.83-22.87,6.28-24.86,19.57-2.73,17.84-3.72,36.58-4.71,54.67-.58,10.07-1.07,19.57-1.82,28.49-6.28,70.44-5.7,144.93,64.17,152.69-54.83-18.42-63.83-60.2-55.74-152.03.83-9,1.32-18.58,1.9-28.74.99-17.92,1.98-36.42,4.62-53.93,1.32-8.51,9.17-13.21,15.86-12.72,5.7.41,8.84,4.46,8.75,10.9-.25,12.3,2.64,75.48,2.64,75.48l6.36-1.4s2.06-98.35,3.8-119.08c.74-9.08,8.09-13.13,15.11-13.13h.17c5.86.08,11.89,3.06,12.3,9.66,1.57,26.18,4.21,120.07,4.21,120.07h6.19s2.15-97.53,3.47-132.95c.41-10.74,8.42-14.53,15.86-14.53h.25c8.09.08,16.52,4.71,16.6,12.3.08,7.27,4.54,136.75,4.54,136.75l6.19-.08s1.73-79.61,3.06-115.2c.25-7.18,7.93-11.23,15.36-11.23,3.39.08,14.29,1.24,14.37,14.78l.08,9.91c.17,34.77,2.64,94.14,5.04,122.96,1.73,21.64,14.53,20.4,22.79,8.26,7.76-11.31,19.32-28.82,35.1-37.24,18-9.58,29.15,7.85,22.21,15.61-49.22,55.16-33.45,118.34-117.1,155.42,81.75-12.8,80.76-105.95,123.38-150.21,13.96-14.2-4.62-41.29-33.45-27.09Z"/>
  <path class="cls-5" d="M145.02,291.94c-11.73-2.15-17.75-.5-17.75-.5,0,0,7.76-2.81,9.41-9.91,3.14,7.1,8.34,10.41,8.34,10.41Z"/>
  <path class="cls-5" d="M98.03,291.53c-7.85-3.14-18.25,0-18.25,0,0,0,7.76-5.37,10.07-11.48,3.14,7.02,8.18,11.48,8.18,11.48Z"/>
  <path class="cls-5" d="M47.24,283.52c-.66,8.18-8.18,12.22-8.18,12.22,0,0,6.69-1.9,19.24-4.13,0,0-7.93-1.82-11.07-8.09Z"/>
  <path class="cls-6" d="M161.37,333.15c-64.58,20.56-65.98,74.65-62.18,96.45.83,4.71,2.39,2.97,2.73-.08,2.15-22.96,9.5-69.29,60.7-94.14,4.95-2.39,4.05-3.88-1.24-2.23Z"/>
  <path class="cls-4" d="M498.22,430.51c-9.41,9.5-3.3,64.66-3.3,70.28,0,14.95-129.49,14.95-129.49,0,0-5.12,3.88-62.51-7.27-70.28,0,0,140.06,0,140.06,0Z"/>
  <path class="cls-5" d="M362.95,430.51c9.99,27.75,2.56,64,2.56,70.28-2.97-6.36.25-44.02-11.15-70.28,0,0,8.59,0,8.59,0Z"/>
  <path class="cls-5" d="M494.09,430.51h8.67c-11.89,27.99-5.45,64.58-7.85,70.28.33-5.7-8.92-42.2-.83-70.28Z"/>
  <path class="cls-2" d="M305.8,285.75c32.87,29.23,38.07,65.24,43.11,10.07,2.64-28.49,2.64-67.55,2.97-118.17.17-26.43,37.49-22.54,38.23-3.72,1.32,36.01,2.06,114.21,2.06,114.21,0,0,3.14-128.33,3.22-135.68.25-19.9,40.13-24.28,41.21,2.06,1.4,35.92,2.39,131.22,2.39,131.22,0,0,1.49-91.91,3.06-118.42,1.07-18.33,34.19-18.58,36.01,3.39,1.73,21.06,3.22,115.2,3.22,115.2,0,0,1.32-57.48,1.07-69.7-.5-21.88,29.98-18.66,32.95,1.07,4.21,27.58,4.29,57.97,6.52,82.91,8.67,97.61-2.81,159.13-91.25,150.87-117.1,14.2-99.26-65.57-164.58-153.35-10.41-14.04,15.36-33.69,39.8-11.97Z"/>
  <path class="cls-5" d="M298.12,275.1c11.56,5.7,25.19,22.21,34.02,35.18,8.26,12.14,10.74,6.85,11.56-3.06,1.98-23.95,3.72-86.63,3.96-119.74l.08-9.91c.08-15.53,11.48-22.71,22.71-22.87h.41c7.76,0,15.86,3.39,20.23,9.33.17-6.28.25-10.49.25-11.64.17-12.97,12.97-20.15,24.94-20.31,12.06-.08,24.11,6.69,24.69,22.3.08,1.16.08,2.39.17,3.72,3.55-5.04,9.91-8.18,17.51-8.26h.25c10.57,0,22.38,6.44,23.54,20.56.5,5.95.99,17.67,1.4,31.38,3.14-2.89,7.18-4.29,10.98-4.62,10.65-.83,22.87,6.28,24.86,19.57,2.73,17.84,3.72,36.58,4.71,54.67.58,10.07,1.07,19.57,1.82,28.49,6.28,70.44,5.7,144.93-64.17,152.69,54.83-18.42,63.83-60.2,55.74-152.03-.83-9-1.32-18.58-1.9-28.74-.99-17.92-1.98-36.42-4.62-53.93-1.32-8.51-9.17-13.21-15.86-12.72-5.7.41-8.84,4.46-8.75,10.9.25,12.22-2.64,75.4-2.64,75.4l-6.36-1.4s-2.06-98.35-3.8-119.08c-.74-9.08-8.09-13.13-15.11-13.13h-.17c-5.86.08-11.89,3.06-12.3,9.66-1.57,26.18-4.21,120.07-4.21,120.07h-6.19s-2.15-97.53-3.47-132.95c-.41-10.74-8.42-14.53-15.86-14.53h-.25c-8.09.08-16.52,4.71-16.6,12.3-.08,7.27-4.54,136.75-4.54,136.75l-6.19-.08s-1.73-79.61-3.06-115.2c-.25-7.18-7.93-11.23-15.36-11.23-3.39.08-14.29,1.24-14.37,14.78l-.08,9.91c-.17,34.77-2.64,94.14-5.04,122.96-1.73,21.64-14.53,20.4-22.79,8.26-7.76-11.31-19.32-28.82-35.1-37.24-18-9.58-29.15,7.85-22.21,15.61,49.22,55.16,33.45,118.34,117.1,155.42-81.75-12.8-80.76-105.95-123.38-150.21-13.96-14.12,4.62-41.21,33.45-27Z"/>
  <path class="cls-5" d="M383.68,291.94c11.73-2.15,17.75-.5,17.75-.5,0,0-7.76-2.81-9.41-9.91-3.14,7.1-8.34,10.41-8.34,10.41Z"/>
  <path class="cls-5" d="M430.66,291.53c7.85-3.14,18.25,0,18.25,0,0,0-7.76-5.37-10.07-11.48-3.14,7.02-8.18,11.48-8.18,11.48Z"/>
  <path class="cls-5" d="M481.45,283.52c.66,8.18,8.18,12.22,8.18,12.22,0,0-6.69-1.9-19.24-4.13,0,0,7.93-1.82,11.07-8.09Z"/>
  <path class="cls-6" d="M367.33,333.15c64.58,20.56,65.98,74.65,62.18,96.45-.83,4.71-2.39,2.97-2.73-.08-2.15-22.96-9.5-69.29-60.7-94.14-4.95-2.39-4.05-3.88,1.24-2.23Z"/>
  <path class="cls-1" d="M248.08,41.81c0,34.44,16.52,73.83,16.52,73.83,0,0,16.52-39.39,16.52-73.83,0-55.74-33.03-55.74-33.03,0Z"/>
  <path class="cls-1" d="M163.6,59.97c17.26,29.81,51.2,55.66,51.2,55.66,0,0-5.37-42.36-22.54-72.18-27.91-48.31-56.57-31.79-28.66,16.52Z"/>
  <path class="cls-1" d="M336.44,43.46c-17.18,29.81-22.54,72.18-22.54,72.18,0,0,33.94-25.85,51.2-55.66,27.91-48.23-.74-64.83-28.66-16.52Z"/>
</svg>