<?xml version="1.0" encoding="UTF-8"?>
<svg id="Layer_1" data-name="Layer 1" xmlns="http://www.w3.org/2000/svg" xmlns:xlink="http://www.w3.org/1999/xlink" viewBox="0 0 495.45 512">
  <defs>
    <style>
      .cls-1 {
        fill: url(#radial-gradient-2);
      }

      .cls-2 {
        fill: #1a1626;
      }

      .cls-3 {
        fill: url(#radial-gradient);
      }

      .cls-4 {
        fill: #99a8ae;
      }

      .cls-5 {
        fill: url(#linear-gradient);
      }

      .cls-6 {
        fill: #fff;
      }
    </style>
    <linearGradient id="linear-gradient" x1="-156.05" y1="1527.14" x2="-156.05" y2="1031.64" gradientTransform="translate(179.3209 -1039.3295) rotate(-9.9974)" gradientUnits="userSpaceOnUse">
      <stop offset="0" stop-color="#ff9500"/>
      <stop offset=".19" stop-color="#ffad00"/>
      <stop offset=".55" stop-color="#ffd500"/>
      <stop offset=".83" stop-color="#ffed00"/>
      <stop offset="1" stop-color="#fff600"/>
    </linearGradient>
    <radialGradient id="radial-gradient" cx="96.84" cy="274.57" fx="96.84" fy="274.57" r="89.67" gradientTransform="translate(-.27 511.55) scale(1 -1)" gradientUnits="userSpaceOnUse">
      <stop offset="0" stop-color="#ff6399" stop-opacity=".55"/>
      <stop offset=".2" stop-color="#ff6596" stop-opacity=".44"/>
      <stop offset=".36" stop-color="#ff6c8c" stop-opacity=".35"/>
      <stop offset=".51" stop-color="#ff767b" stop-opacity=".27"/>
      <stop offset=".65" stop-color="#ff8663" stop-opacity=".19"/>
      <stop offset=".79" stop-color="#ff9a44" stop-opacity=".12"/>
      <stop offset=".92" stop-color="#ffb21f" stop-opacity=".05"/>
      <stop offset="1" stop-color="#ffc403" stop-opacity="0"/>
    </radialGradient>
    <radialGradient id="radial-gradient-2" cx="386.07" cy="327.75" fx="386.07" fy="327.75" r="89.67" gradientTransform="translate(-.27 511.55) scale(1 -1)" gradientUnits="userSpaceOnUse">
      <stop offset="0" stop-color="#ff6399" stop-opacity=".55"/>
      <stop offset=".2" stop-color="#ff6596" stop-opacity=".44"/>
      <stop offset=".36" stop-color="#ff6c8c" stop-opacity=".35"/>
      <stop offset=".51" stop-color="#ff767b" stop-opacity=".27"/>
      <stop offset=".65" stop-color="#ff8663" stop-opacity=".19"/>
      <stop offset=".79" stop-color="#ff9a44" stop-opacity=".12"/>
      <stop offset=".92" stop-color="#ffb21f" stop-opacity=".05"/>
      <stop offset="1" stop-color="#ffc403" stop-opacity="0"/>
    </radialGradient>
  </defs>
  <path class="cls-5" d="M247.75,0c136.82,0,247.7,110.89,247.7,247.7s-110.89,247.7-247.7,247.7S.04,384.52.04,247.7,110.93,0,247.75,0Z"/>
  <path class="cls-3" d="M96.56,147.3c49.54,0,89.67,40.13,89.67,89.67s-40.13,89.67-89.67,89.67S6.9,286.51,6.9,236.97s40.13-89.67,89.67-89.67Z"/>
  <path class="cls-1" d="M385.8,94.13c49.54,0,89.67,40.13,89.67,89.67s-40.13,89.67-89.67,89.67-89.67-40.13-89.67-89.67,40.13-89.67,89.67-89.67Z"/>
  <path class="cls-2" d="M319.83,231.19c-37.65,45.66-94.46,55.73-145.49,25.68-7.18-4.21-9.91,2.23-7.1,6.44,47.64,71.26,141.11,54.74,161.5-28.49,1.24-4.95-3.55-10.07-8.92-3.63Z"/>
  <path class="cls-4" d="M292.09,357.6c-6.94,7.02-9.83,18.17-7.35,28.4-1.65.99-3.22,2.23-4.71,3.63-6.69,6.77-9.17,17.67-6.44,27.83,1.73,6.36,5.37,11.81,10.32,15.69-1.4,4.87-1.4,10.32-.08,15.69,2.81,10.98,10.98,19.49,21.96,22.79-.08,3.22.33,6.52,1.24,9.91,3.22,11.64,12.05,20.39,23.78,23.28,25.93,6.44,61.6,12.3,106.93-.08,12.55-3.47,23.61-9.91,32.78-19.24,21.22-21.55,29.89-56.72,22.05-89.59-7.18-30.22-26.92-52.68-54.08-61.43-48.14-15.61-73.24-16.43-86.53-2.89-3.39,3.47-8.26,10.4-7.76,21.72-9.17-.58-19.4-1.57-30.47-3.06-8.17-1.07-15.94,1.49-21.63,7.35h0Z"/>
  <path class="cls-6" d="M296.79,398.89c44.67,7.18,71.34,0,71.34,0,0,0-39.47-1.73-61.02-8.26-11.97-3.55-9.58-26.59,4.71-24.69,52.68,7.02,86.37,2.64,86.37,2.64,0,0-32.37-3.96-37.49-10.9-7.02-28.32,31.05-21.88,73.24-8.26,62.34,20.23,60.61,123.36-.08,139.95-41.78,11.39-74.81,6.03-99.16,0-16.43-4.05-15.61-26.34-7.51-24.69,26.26,5.28,41.04,0,41.04,0,0,0-39.8-3.22-57.47-8.26-16.43-4.71-15.19-27.66-2.48-24.69,31.29,7.35,59.94,0,59.94,0,0,0-39.63-.91-68.53-8.26-16.6-4.13-13.38-26.34-2.89-24.61Z"/>
  <path class="cls-4" d="M203.41,357.6c-5.7-5.86-13.46-8.42-21.72-7.35-11.06,1.49-21.3,2.39-30.47,3.06.5-11.31-4.29-18.33-7.76-21.72-13.38-13.54-38.39-12.72-86.53,2.89-27.16,8.83-46.82,31.21-54.08,61.43-7.84,32.78.83,67.95,22.05,89.59,9.17,9.33,20.23,15.77,32.86,19.24,45.33,12.39,80.92,6.52,106.93.08,11.64-2.89,20.48-11.64,23.7-23.28.91-3.39,1.32-6.69,1.24-9.91,10.9-3.3,19.07-11.81,21.96-22.79,1.4-5.37,1.32-10.82,0-15.69,4.95-3.88,8.59-9.33,10.32-15.69,2.72-10.07.25-20.97-6.44-27.83-1.4-1.49-2.97-2.64-4.71-3.63,2.39-10.32-.41-21.39-7.35-28.4h0Z"/>
  <path class="cls-6" d="M195.89,423.58c-28.9,7.35-68.53,8.26-68.53,8.26,0,0,28.65,7.35,59.94,0,12.72-2.97,13.95,19.98-2.48,24.69-17.67,5.04-57.47,8.26-57.47,8.26,0,0,14.86,5.28,41.12,0,8.09-1.65,8.92,20.64-7.51,24.69-24.36,6.03-57.38,11.39-99.16,0-60.69-16.51-62.42-119.72-.08-139.95,42.19-13.71,80.26-20.06,73.24,8.26-5.12,6.94-37.49,10.9-37.49,10.9,0,0,33.69,4.29,86.37-2.64,14.28-1.9,16.68,21.05,4.71,24.69-21.55,6.44-61.02,8.26-61.02,8.26,0,0,26.59,7.18,71.34,0,10.32-1.82,13.54,20.39-2.97,24.61Z"/>
  <path class="cls-2" d="M101.19,189.82c26.83-51.03,51.11-55.32,93.8-16.51,6.44,5.86,16.35-1.07,12.96-7.27-44.83-81.58-107.17-70.6-121.38,21.39-1.16,7.02,10.49,10.16,14.61,2.39Z"/>
  <path class="cls-2" d="M271.94,159.77c26.83-51.03,51.11-55.32,93.8-16.51,6.44,5.86,16.35-1.07,12.96-7.27-44.83-81.58-107.17-70.6-121.38,21.39-1.16,6.94,10.49,10.07,14.61,2.39Z"/>
</svg>