<?xml version="1.0" encoding="UTF-8"?>
<svg id="Layer_1" data-name="Layer 1" xmlns="http://www.w3.org/2000/svg" xmlns:xlink="http://www.w3.org/1999/xlink" viewBox="0 0 512 512">
  <defs>
    <style>
      .cls-1 {
        fill: #d69600;
      }

      .cls-2 {
        fill: #1a1626;
      }

      .cls-3 {
        fill: url(#linear-gradient);
      }
    </style>
    <linearGradient id="linear-gradient" x1="-899.47" y1="533.3" x2="-899.47" y2="524.77" gradientTransform="translate(54223.9004 -31485.9297) scale(60)" gradientUnits="userSpaceOnUse">
      <stop offset="0" stop-color="#ff9500"/>
      <stop offset=".19" stop-color="#ffad00"/>
      <stop offset=".55" stop-color="#ffd500"/>
      <stop offset=".83" stop-color="#ffed00"/>
      <stop offset="1" stop-color="#fff600"/>
    </linearGradient>
  </defs>
  <circle id="Oval" class="cls-3" cx="256" cy="256" r="256"/>
  <path class="cls-2" d="M346.79,352.26c-45.91,35.33-135.59,35.5-181.67,0-7.85-5.97-13.48,4.78-10.92,9.9,42.84,86.87,160.77,86.87,203.61,0,2.47-5.12-3.16-15.96-11.01-9.9Z"/>
  <path class="cls-2" d="M211.11,216.58c-21.67,22.78-66.47,32-96.85,17.07-7.08-3.41-16.81,1.54-13.57,6.4,33.11,49.83,111.45,35.93,125.44-22.1,1.37-5.72-9.64-7.08-15.02-1.37Z"/>
  <path class="cls-2" d="M300.89,216.58c21.67,22.78,66.47,32,96.94,17.07,7-3.41,16.81,1.54,13.57,6.4-33.11,49.83-111.36,35.93-125.44-22.1-1.45-5.72,9.56-7.08,14.93-1.37Z"/>
  <path class="cls-1" d="M101.21,126.38c-78.93,56.49-24.92,62.46,47.53,22.95,40.96-22.36,4.44-60.16-47.53-22.95Z"/>
  <path class="cls-1" d="M410.71,126.55c-51.97-37.21-88.49.6-47.53,22.95,72.53,39.51,126.46,33.54,47.53-22.95Z"/>
</svg>