<?xml version="1.0" encoding="UTF-8"?>
<svg id="Layer_1" data-name="Layer 1" xmlns="http://www.w3.org/2000/svg" xmlns:xlink="http://www.w3.org/1999/xlink" viewBox="0 0 512 512">
  <defs>
    <style>
      .cls-1 {
        fill: #1a1626;
      }

      .cls-2 {
        fill: url(#linear-gradient);
      }
    </style>
    <linearGradient id="linear-gradient" x1="-899.47" y1="533.3" x2="-899.47" y2="524.77" gradientTransform="translate(54223.9004 -31485.9297) scale(60)" gradientUnits="userSpaceOnUse">
      <stop offset="0" stop-color="#ff9500"/>
      <stop offset=".19" stop-color="#ffad00"/>
      <stop offset=".55" stop-color="#ffd500"/>
      <stop offset=".83" stop-color="#ffed00"/>
      <stop offset="1" stop-color="#fff600"/>
    </linearGradient>
  </defs>
  <path id="Oval" class="cls-2" d="M256,0c141.4,0,256,114.6,256,256s-114.6,256-256,256S0,397.4,0,256,114.6,0,256,0Z"/>
  <path class="cls-1" d="M232.11,221.18c-28.59-33.19-115.8-23.3-145.41,26.54-1.96,3.33.68,7.42,5.21,4.61,28.59-17.58,64.6-16.73,64.6-16.73.09,23.98,19.03,43.35,42.41,43.35,33.79,0,49.92-38.31,33.19-57.77Z"/>
  <path class="cls-1" d="M448.26,221.18c-28.59-33.19-115.8-23.3-145.41,26.54-1.96,3.33.68,7.42,5.21,4.61,28.59-17.58,64.6-16.73,64.6-16.73.09,23.98,19.03,43.35,42.41,43.35,33.79,0,49.92-38.31,33.19-57.77Z"/>
  <path class="cls-1" d="M356.61,367.87c-53.33-17.32-121.17-.26-151.98,42.07-2.47,3.5.85,7.51,4.61,4.86,30.81-21.42,94.21-34.9,139.01-18.77,17.24,6.14,26.54-22.27,8.36-28.16Z"/>
</svg>