<?xml version="1.0" encoding="UTF-8"?>
<svg id="Layer_1" data-name="Layer 1" xmlns="http://www.w3.org/2000/svg" xmlns:xlink="http://www.w3.org/1999/xlink" viewBox="0 0 512.55 512">
  <defs>
    <style>
      .cls-1 {
        fill: url(#radial-gradient-2);
      }

      .cls-2 {
        fill: #d69600;
      }

      .cls-3 {
        fill: #1a1626;
      }

      .cls-4 {
        fill: url(#radial-gradient);
      }

      .cls-5 {
        fill: url(#linear-gradient);
      }

      .cls-6 {
        fill: #fff;
      }
    </style>
    <linearGradient id="linear-gradient" x1="256.27" y1=".96" x2="256.27" y2="512.96" gradientTransform="translate(0 512.96) scale(1 -1)" gradientUnits="userSpaceOnUse">
      <stop offset="0" stop-color="#ff9500"/>
      <stop offset=".19" stop-color="#ffad00"/>
      <stop offset=".54" stop-color="#ffd500"/>
      <stop offset=".83" stop-color="#ffed00"/>
      <stop offset="1" stop-color="#fff600"/>
    </linearGradient>
    <radialGradient id="radial-gradient" cx="154.28" cy="283.55" fx="154.28" fy="252.22" r="82.25" gradientTransform="translate(0 512.96) scale(1 -1)" gradientUnits="userSpaceOnUse">
      <stop offset="0" stop-color="#bdebff" stop-opacity=".7"/>
      <stop offset=".22" stop-color="#baeafe" stop-opacity=".77"/>
      <stop offset=".38" stop-color="#b1e7fc" stop-opacity=".81"/>
      <stop offset=".51" stop-color="#a2e2f8" stop-opacity=".85"/>
      <stop offset=".63" stop-color="#8cdbf3" stop-opacity=".89"/>
      <stop offset=".74" stop-color="#70d3ec" stop-opacity=".92"/>
      <stop offset=".85" stop-color="#4dc8e3" stop-opacity=".96"/>
      <stop offset=".95" stop-color="#25bbd9" stop-opacity=".99"/>
      <stop offset="1" stop-color="#0fb4d4"/>
    </radialGradient>
    <radialGradient id="radial-gradient-2" cx="154.28" cy="283.55" fx="154.28" fy="252.22" r="82.25" gradientTransform="translate(0 512.96) scale(1 -1)" gradientUnits="userSpaceOnUse">
      <stop offset="0" stop-color="#bdebff" stop-opacity=".7"/>
      <stop offset=".22" stop-color="#baeafe" stop-opacity=".77"/>
      <stop offset=".38" stop-color="#b1e7fc" stop-opacity=".81"/>
      <stop offset=".51" stop-color="#a2e2f8" stop-opacity=".85"/>
      <stop offset=".63" stop-color="#8cdbf3" stop-opacity=".89"/>
      <stop offset=".74" stop-color="#70d3ec" stop-opacity=".92"/>
      <stop offset=".85" stop-color="#4dc8e3" stop-opacity=".96"/>
      <stop offset=".95" stop-color="#25bbd9" stop-opacity=".99"/>
      <stop offset="1" stop-color="#0fb4d4"/>
    </radialGradient>
  </defs>
  <path class="cls-5" d="M256.27,0c-35.34,0-68.48,6.56-99.45,19.67-30.96,13.11-58.19,31.42-81.69,54.92-23.5,23.5-41.89,50.73-55.19,81.69C6.65,187.24,0,220.39,0,255.73s6.65,68.49,19.94,99.45c13.3,30.96,31.69,58.19,55.19,81.69,23.5,23.5,50.73,41.89,81.69,55.19,30.96,13.3,64.11,19.94,99.45,19.94s68.49-6.65,99.45-19.94c30.96-13.3,58.19-31.69,81.69-55.19s41.89-50.73,55.19-81.69c13.3-30.96,19.94-64.11,19.94-99.45s-6.65-68.49-19.94-99.45c-13.3-30.96-31.69-58.19-55.19-81.69-23.5-23.5-50.73-41.8-81.69-54.92C324.76,6.56,291.61,0,256.27,0" vector-effect="none"/>
  <path class="cls-6" d="M231.4,238.32c0-21.76-7.95-40.6-23.86-56.51-15.91-15.91-35.58-23.86-59.02-23.86-21.76,0-40.6,7.95-56.51,23.86-15.91,15.91-23.86,34.74-23.86,56.51s7.95,40.6,23.86,56.51c15.91,15.9,34.74,23.86,56.51,23.86,23.44,0,43.11-7.95,59.02-23.86,15.9-15.91,23.86-34.74,23.86-56.51" vector-effect="none"/>
  <path class="cls-3" d="M153.66,178.76c-8.24,0-15.98,1.53-23.2,4.59-7.23,3.06-13.58,7.33-19.06,12.81-5.48,5.48-9.78,11.83-12.88,19.06-3.11,7.22-4.66,14.96-4.66,23.2,0,8.24,1.54,15.98,4.64,23.2,3.1,7.22,7.39,13.58,12.87,19.06,5.48,5.48,11.83,9.77,19.05,12.88,7.22,3.1,14.96,4.65,23.2,4.65s15.98-1.55,23.2-4.65c7.23-3.1,13.58-7.39,19.07-12.88,5.48-5.48,9.78-11.83,12.88-19.06,3.11-7.22,4.66-14.96,4.66-23.2,0-8.24-1.54-15.98-4.64-23.2-3.1-7.22-7.39-13.58-12.87-19.06s-11.83-9.75-19.05-12.81c-7.22-3.06-14.96-4.59-23.2-4.59" vector-effect="none"/>
  <path class="cls-6" d="M155.19,254.82c-6.56,0-12.11,2.64-16.67,7.92s-6.83,11.57-6.83,18.85c0,7.65,2.28,14.12,6.83,19.4,4.55,5.28,10.11,7.92,16.67,7.92,6.19,0,11.66-2.64,16.39-7.92,4.74-5.28,7.1-11.75,7.1-19.4s-2.37-13.57-7.1-18.85c-4.74-5.28-10.2-7.92-16.39-7.92M117.48,218.21c-4.74,0-8.74,1.91-12.02,5.74s-4.92,8.47-4.92,13.93,1.64,10.11,4.92,13.93,7.29,5.74,12.02,5.74,8.83-1.91,12.29-5.74,5.19-8.47,5.19-13.93-1.73-10.11-5.19-13.93-7.56-5.74-12.29-5.74" vector-effect="none"/>
  <path class="cls-6" d="M444.85,238.32c0-21.76-7.95-40.6-23.86-56.51-15.9-15.91-35.58-23.86-59.02-23.86-21.76,0-40.6,7.95-56.51,23.86-15.91,15.91-23.86,34.74-23.86,56.51s7.95,40.6,23.86,56.51c15.91,15.9,34.74,23.86,56.51,23.86,23.44,0,43.11-7.95,59.02-23.86,15.91-15.91,23.86-34.74,23.86-56.51" vector-effect="none"/>
  <path class="cls-3" d="M358.99,178.76c-8.24,0-15.98,1.53-23.2,4.59-7.23,3.06-13.58,7.33-19.07,12.81-5.48,5.48-9.78,11.83-12.88,19.06-3.11,7.22-4.66,14.96-4.66,23.2,0,8.24,1.54,15.98,4.64,23.2,3.1,7.22,7.39,13.58,12.87,19.06,5.48,5.48,11.83,9.77,19.05,12.88,7.22,3.1,14.96,4.65,23.2,4.65s15.98-1.55,23.2-4.65c7.23-3.1,13.58-7.39,19.06-12.88,5.48-5.48,9.78-11.83,12.89-19.06,3.11-7.22,4.66-14.96,4.66-23.2,0-8.24-1.54-15.98-4.64-23.2-3.1-7.22-7.39-13.58-12.87-19.06-5.48-5.48-11.83-9.75-19.05-12.81-7.22-3.06-14.96-4.59-23.2-4.59" vector-effect="none"/>
  <path class="cls-6" d="M368.64,254.82c-6.56,0-12.11,2.64-16.67,7.92s-6.83,11.57-6.83,18.85c0,7.65,2.28,14.12,6.83,19.4,4.55,5.28,10.11,7.92,16.67,7.92,6.19,0,11.66-2.64,16.39-7.92,4.74-5.28,7.1-11.75,7.1-19.4s-2.37-13.57-7.1-18.85c-4.74-5.28-10.2-7.92-16.39-7.92M330.93,218.21c-4.74,0-8.74,1.91-12.02,5.74-3.28,3.83-4.92,8.47-4.92,13.93s1.64,10.11,4.92,13.93c3.28,3.83,7.29,5.74,12.02,5.74s8.83-1.91,12.29-5.74,5.19-8.47,5.19-13.93-1.73-10.11-5.19-13.93-7.56-5.74-12.29-5.74" vector-effect="none"/>
  <path class="cls-3" d="M346.98,360.83c-11.29,8.74-24.86,15.3-40.71,19.67-15.85,4.37-32.42,6.56-49.72,6.56s-33.97-2.19-50-6.56c-16.03-4.37-29.69-10.93-40.98-19.67-4.01-2.91-7.19-2.64-9.56.82s-2.82,6.47-1.37,9.02c10.56,21.86,24.95,38.16,43.17,48.91,18.21,10.75,37.7,16.12,58.47,16.12s40.25-5.37,58.47-16.12c18.21-10.75,32.6-27.05,43.17-48.91,1.46-2.55,1-5.56-1.37-9.02-2.37-3.46-5.56-3.73-9.56-.82" vector-effect="none"/>
  <path class="cls-2" d="M348.62,127.51c16.39,8.01,31.24,12.02,44.53,12.02s24.41-1.82,33.33-5.46c8.93-3.64,14.84-7.38,17.76-11.2,2.91-3.83,2-5.74-2.73-5.74-17.85,0-35.06-3.37-51.64-10.11-16.58-6.74-30.69-15.03-42.35-24.86-6.92-5.83-13.3-8.1-19.12-6.83-5.83,1.28-9.74,4.83-11.75,10.66-2,5.83-.64,12.57,4.1,20.22,4.74,7.65,14.02,14.75,27.87,21.31M163.93,127.51c-16.39,7.65-31.24,11.57-44.53,11.75-13.3.18-24.41-1.55-33.33-5.19-8.92-3.64-14.84-7.38-17.76-11.2-2.91-3.83-2-5.74,2.73-5.74,17.85,0,35.06-3.37,51.64-10.11,16.57-6.74,30.69-15.03,42.35-24.86,6.92-5.83,13.3-8.1,19.13-6.83,5.83,1.28,9.74,4.74,11.75,10.38,2,5.65.64,12.29-4.1,19.94-4.74,7.65-14.02,14.94-27.87,21.86" vector-effect="none"/>
  <path class="cls-4" d="M221.31,261.93c-6.19.73-12.02,2.37-17.49,4.92-5.46,2.55-12.29,4.92-20.49,7.1-8.2,2.19-19.4,3.28-33.6,3.28s-25.96-1.09-34.15-3.28c-8.2-2.19-15.03-4.55-20.49-7.1-5.46-2.55-11.29-4.19-17.49-4.92-.73,0-2.09.36-4.1,1.09-2,.73-2.64,2-1.91,3.83,6.19,16.03,16.3,29.23,30.33,39.62,14.02,10.38,29.96,15.57,47.81,15.57s33.24-5.19,47.27-15.57c14.02-10.38,24.13-23.59,30.33-39.62.73-1.82.18-3.1-1.64-3.83-1.82-.73-3.28-1.09-4.37-1.09" vector-effect="none"/>
  <path class="cls-1" d="M434.75,261.93c-6.19.73-12.02,2.37-17.49,4.92-5.46,2.55-12.29,4.92-20.49,7.1-8.2,2.19-19.4,3.28-33.61,3.28s-25.95-1.09-34.15-3.28c-8.2-2.19-15.03-4.55-20.49-7.1-5.46-2.55-11.29-4.19-17.49-4.92-.73,0-2.09.36-4.1,1.09-2,.73-2.64,2-1.91,3.83,6.19,16.03,16.3,29.23,30.33,39.62,14.02,10.38,29.96,15.57,47.81,15.57s33.24-5.19,47.27-15.57c14.02-10.38,24.13-23.59,30.33-39.62.73-1.82.18-3.1-1.64-3.83-1.82-.73-3.28-1.09-4.37-1.09" vector-effect="none"/>
</svg>