<?xml version="1.0" encoding="UTF-8"?>
<svg id="Layer_1" data-name="Layer 1" xmlns="http://www.w3.org/2000/svg" xmlns:xlink="http://www.w3.org/1999/xlink" viewBox="0 0 512 512">
  <defs>
    <style>
      .cls-1 {
        fill: #d69600;
      }

      .cls-2 {
        fill: #1a1626;
      }

      .cls-3 {
        fill: url(#linear-gradient);
      }
    </style>
    <linearGradient id="linear-gradient" x1="256" y1="2" x2="256" y2="514" gradientTransform="translate(0 514) scale(1 -1)" gradientUnits="userSpaceOnUse">
      <stop offset="0" stop-color="#ff9500"/>
      <stop offset=".19" stop-color="#ffad00"/>
      <stop offset=".55" stop-color="#ffd500"/>
      <stop offset=".83" stop-color="#ffed00"/>
      <stop offset="1" stop-color="#fff600"/>
    </linearGradient>
  </defs>
  <circle class="cls-3" cx="256" cy="256" r="256"/>
  <path class="cls-2" d="M299.61,392.53h-87.21c-21.5,0-21.5-34.13,0-34.13h87.13c21.59,0,21.59,34.13.09,34.13Z"/>
  <ellipse class="cls-2" cx="170.67" cy="234.67" rx="34.13" ry="38.4"/>
  <ellipse class="cls-2" cx="341.33" cy="226.13" rx="34.13" ry="46.93"/>
  <path class="cls-1" d="M321.19,93.27c-65.96,22.53-37.63,82.52-11.26,51.03,18.6-22.27,58.11-37.46,102.31-18.43,20.14,8.62-15.19-58.45-91.05-32.6Z"/>
  <path class="cls-1" d="M180.05,147.54c61.7,6.31,50.94,54.7,16.64,42.24-28.84-10.5-66.73-13.06-100.01-.85-18.26,6.66,11.69-48.73,83.37-41.39Z"/>
</svg>