<?xml version="1.0" encoding="UTF-8"?>
<svg id="Layer_1" data-name="Layer 1" xmlns="http://www.w3.org/2000/svg" xmlns:xlink="http://www.w3.org/1999/xlink" viewBox="0 0 529.08 512">
  <defs>
    <style>
      .cls-1 {
        fill: #fd7383;
      }

      .cls-2 {
        fill: url(#radial-gradient-2);
      }

      .cls-3 {
        fill: url(#linear-gradient-4);
      }

      .cls-4 {
        fill: url(#linear-gradient-3);
      }

      .cls-5 {
        fill: url(#linear-gradient-2);
      }

      .cls-6 {
        fill: #1a1626;
      }

      .cls-7 {
        fill: url(#radial-gradient);
      }

      .cls-8 {
        fill: url(#linear-gradient);
      }
    </style>
    <linearGradient id="linear-gradient" x1="264.54" y1="2" x2="264.54" y2="514" gradientTransform="translate(0 514) scale(1 -1)" gradientUnits="userSpaceOnUse">
      <stop offset="0" stop-color="#ff9500"/>
      <stop offset=".19" stop-color="#ffad00"/>
      <stop offset=".55" stop-color="#ffd500"/>
      <stop offset=".83" stop-color="#ffed00"/>
      <stop offset="1" stop-color="#fff600"/>
    </linearGradient>
    <linearGradient id="linear-gradient-2" x1="128.07" y1="236.67" x2="401.01" y2="236.67" gradientTransform="translate(0 514) scale(1 -1)" gradientUnits="userSpaceOnUse">
      <stop offset="0" stop-color="#cfd7e6"/>
      <stop offset=".04" stop-color="#dae0ec"/>
      <stop offset=".13" stop-color="#eef1f6"/>
      <stop offset=".21" stop-color="#fbfcfd"/>
      <stop offset=".3" stop-color="#fff"/>
      <stop offset=".7" stop-color="#fff"/>
      <stop offset=".79" stop-color="#fbfcfd"/>
      <stop offset=".87" stop-color="#eef1f6"/>
      <stop offset=".96" stop-color="#dae0ec"/>
      <stop offset="1" stop-color="#cfd7e6"/>
    </linearGradient>
    <radialGradient id="radial-gradient" cx="643.69" cy="1376.87" fx="667.45" fy="1410.7" r="66.74" gradientTransform="translate(286.3315 2531.5236) rotate(-11.914) scale(1.0008 -1.5697) skewX(-.1551)" gradientUnits="userSpaceOnUse">
      <stop offset=".06" stop-color="#73efff"/>
      <stop offset=".28" stop-color="#70edff"/>
      <stop offset=".45" stop-color="#67e5ff"/>
      <stop offset=".59" stop-color="#57d8ff"/>
      <stop offset=".72" stop-color="#42c7ff"/>
      <stop offset=".84" stop-color="#25afff"/>
      <stop offset=".95" stop-color="#0393ff"/>
      <stop offset=".96" stop-color="#0091ff"/>
    </radialGradient>
    <linearGradient id="linear-gradient-3" x1="789.68" y1="1177.06" x2="789.68" y2="1249.07" gradientTransform="translate(-1032.5976 634.6216) rotate(39.3765) scale(1.1849 -1.0001)" gradientUnits="userSpaceOnUse">
      <stop offset=".05" stop-color="#c4eeff" stop-opacity="0"/>
      <stop offset=".45" stop-color="#cdf0ff" stop-opacity=".42"/>
      <stop offset="1" stop-color="#d4f2ff"/>
    </linearGradient>
    <radialGradient id="radial-gradient-2" cx="-1597.29" cy="1690.34" fx="-1573.54" fy="1724.18" r="66.74" gradientTransform="translate(-2054.0593 2549.773) rotate(-168.086) scale(1.0008 1.5697) skewX(-.1551)" gradientUnits="userSpaceOnUse">
      <stop offset=".06" stop-color="#73efff"/>
      <stop offset=".28" stop-color="#70edff"/>
      <stop offset=".45" stop-color="#67e5ff"/>
      <stop offset=".59" stop-color="#57d8ff"/>
      <stop offset=".72" stop-color="#42c7ff"/>
      <stop offset=".84" stop-color="#25afff"/>
      <stop offset=".95" stop-color="#0393ff"/>
      <stop offset=".96" stop-color="#0091ff"/>
    </radialGradient>
    <linearGradient id="linear-gradient-4" x1="-703.61" y1="-275.08" x2="-703.61" y2="-203.06" gradientTransform="translate(-727.41 634.62) rotate(140.62) scale(1.18 1)" gradientUnits="userSpaceOnUse">
      <stop offset=".05" stop-color="#c4eeff" stop-opacity="0"/>
      <stop offset=".45" stop-color="#cdf0ff" stop-opacity=".42"/>
      <stop offset="1" stop-color="#d4f2ff"/>
    </linearGradient>
  </defs>
  <path class="cls-8" d="M264.54,0c141.4,0,256,114.6,256,256s-114.6,256-256,256S8.54,397.4,8.54,256,123.14,0,264.54,0Z"/>
  <path class="cls-6" d="M125.79,197.12c36.44-47.1,61.95-47.1,98.39,0,5.55,7.08,16.81,1.79,14.51-5.12-30.98-91.14-96.43-91.14-127.4,0-2.39,7,8.96,12.29,14.51,5.12Z"/>
  <path class="cls-6" d="M304.9,197.12c36.44-47.1,61.95-47.1,98.39,0,5.55,7.08,16.81,1.79,14.51-5.12-30.98-91.14-96.43-91.14-127.4,0-2.3,7,9.05,12.29,14.51,5.12Z"/>
  <path class="cls-6" d="M394.67,250.28c-31.15-5.8-74.92-11.35-130.13-11.35s-99.07,5.55-130.13,11.35c-15.7,2.9-24.23,15.96-23.47,29.1,3.84,66.13,54.61,121.69,153.6,121.69s149.76-55.55,153.6-121.77c.68-13.14-7.85-26.11-23.47-29.01Z"/>
  <path class="cls-1" d="M191.75,366.93s32.34,17.07,72.7,17.07,72.79-17.07,72.79-17.07c0,0-24.23-25.6-72.7-17.07-48.47-8.53-72.79,17.07-72.79,17.07Z"/>
  <path class="cls-5" d="M388.36,266.58c-21.42-3.84-66.73-10.58-123.82-10.58s-102.4,6.74-123.82,10.58c-13.4,2.39-13.65,8.28-11.86,19.46,1.54,9.81,2.65,12.37,12.97,12.54,9.56.17,122.71,0,122.71,0,0,0,113.15.17,122.71,0,10.41-.17,11.43-2.73,12.97-12.54,1.79-11.18,1.54-16.98-11.86-19.46Z"/>
  <path class="cls-7" d="M518.66,293.97c-20.14-41.98-84.14-68.78-91.31-68.69-2.9.09-4.44,1.79-2.3,6.4,12.12,26.62,13.57,44.29,5.03,84.14-23.55,109.99,141.14,87.55,88.58-21.85Z"/>
  <path class="cls-4" d="M502.62,286.12c-16.98-30.04-63.15-53.67-68.27-54.1-2.05-.17-3.16.85-1.37,4.27,9.81,19.2,13.82,33.54,9.56,58.71-11.18,65.62,97.28,56.92,60.07-8.87Z"/>
  <path class="cls-2" d="M10.42,293.97c20.14-41.98,84.14-68.78,91.31-68.69,2.9.09,4.44,1.79,2.3,6.4-12.12,26.62-13.57,44.29-5.03,84.14,23.55,109.99-141.14,87.55-88.58-21.85Z"/>
  <path class="cls-3" d="M26.46,286.12c16.98-30.04,63.15-53.67,68.27-54.1,2.05-.17,3.16.85,1.37,4.27-9.81,19.2-13.82,33.54-9.56,58.71,11.18,65.62-97.28,56.92-60.07-8.87Z"/>
</svg>