<?xml version="1.0" encoding="UTF-8"?>
<svg id="Layer_1" data-name="Layer 1" xmlns="http://www.w3.org/2000/svg" xmlns:xlink="http://www.w3.org/1999/xlink" viewBox="0 0 529.15 512">
  <defs>
    <style>
      .cls-1 {
        fill: #d69600;
      }

      .cls-2 {
        fill: url(#linear-gradient-2);
      }

      .cls-3 {
        fill: #1a1626;
      }

      .cls-4 {
        fill: url(#linear-gradient);
      }
    </style>
    <linearGradient id="linear-gradient" x1="255.97" y1="1.64" x2="255.97" y2="513.64" gradientTransform="translate(.03 513.64) scale(1 -1)" gradientUnits="userSpaceOnUse">
      <stop offset="0" stop-color="#ff9500"/>
      <stop offset=".19" stop-color="#ffad00"/>
      <stop offset=".55" stop-color="#ffd500"/>
      <stop offset=".83" stop-color="#ffed00"/>
      <stop offset="1" stop-color="#fff600"/>
    </linearGradient>
    <linearGradient id="linear-gradient-2" x1="396.16" y1="216.27" x2="369.84" y2="75.84" gradientTransform="translate(64.51 495.46) scale(1 -1)" gradientUnits="userSpaceOnUse">
      <stop offset="0" stop-color="#ff1c23"/>
      <stop offset=".42" stop-color="#f31317"/>
      <stop offset="1" stop-color="#db0100"/>
    </linearGradient>
  </defs>
  <path class="cls-4" d="M256,0c141.4,0,256,114.6,256,256s-114.6,256-256,256S0,397.4,0,256,114.6,0,256,0Z"/>
  <path class="cls-3" d="M310.44,422.83l-12.71,2.22c-6.66,1.19-12.97-3.24-14.17-9.9-1.19-6.66,3.24-12.97,9.9-14.17l12.8-2.22c8.87-1.54,15.62-4.52,18.86-8.28,1.96-2.22,2.65-4.78,2.13-7.77-2.82-15.79-23.98-20.57-23.98-20.57,0,0,18.26-11.35,15.45-27.56-.51-2.99-2.05-5.12-4.61-6.57-4.35-2.39-11.61-2.9-20.48-1.28l-12.71,2.22c-6.66,1.19-12.97-3.24-14.17-9.9-1.19-6.66,3.24-12.97,9.9-14.17l12.8-2.22c14.76-2.65,27.14-1.28,36.61,4.01,9.05,5.03,14.93,13.4,16.81,23.64,1.62,9.05-.17,18.18-4.27,25.6,6.4,5.55,11.26,13.48,12.8,22.61,1.79,10.24-.94,20.14-7.68,27.99-7.25,8.19-18.43,13.74-33.28,16.3Z"/>
  <path class="cls-3" d="M306.43,243.03c23.55-18.43,60.5-25.77,91.14-16.04,7.08,2.22,13.82-5.21,9.98-9.47-34.73-39.51-94.72-28.84-113.75,20.05-2.13,5.38,6.74,10.07,12.63,5.46Z"/>
  <path class="cls-3" d="M160.34,205.06c18.52-3.24,36.95,12.89,41.05,36.1,4.1,23.21-7.68,44.71-26.2,47.96-18.6,3.24-36.95-12.89-41.05-36.1-4.1-23.21,7.68-44.71,26.2-47.96Z"/>
  <path class="cls-1" d="M97.19,137.64c-73.73,63.15-19.37,64.43,49.32,18.69,38.83-25.86-.85-60.33-49.32-18.69Z"/>
  <path class="cls-1" d="M334.34,123.56c-63.06,10.41-62.12,62.98-17.41,49.83,79.27-23.21,113.15-65.62,17.41-49.83Z"/>
  <path class="cls-2" d="M450.05,313.69c-20.99-34.13-79.02-20.82-79.02,22.02,0,25.77,21.59,43.95,63.74,77.99,14.25,11.52,16.3,11.52,30.63,0,42.07-34.05,63.74-52.22,63.74-77.99-.09-42.75-58.11-56.06-79.1-22.02Z"/>
</svg>