<?xml version="1.0" encoding="UTF-8"?>
<svg id="Layer_1" data-name="Layer 1" xmlns="http://www.w3.org/2000/svg" xmlns:xlink="http://www.w3.org/1999/xlink" viewBox="0 0 512 512">
  <defs>
    <style>
      .cls-1 {
        fill: #d69600;
      }

      .cls-2 {
        fill: #1a1626;
      }

      .cls-3 {
        fill: url(#linear-gradient);
      }
    </style>
    <linearGradient id="linear-gradient" x1="-899.47" y1="533.3" x2="-899.47" y2="524.77" gradientTransform="translate(54223.9004 -31485.9297) scale(60)" gradientUnits="userSpaceOnUse">
      <stop offset="0" stop-color="#ff9500"/>
      <stop offset=".19" stop-color="#ffad00"/>
      <stop offset=".55" stop-color="#ffd500"/>
      <stop offset=".83" stop-color="#ffed00"/>
      <stop offset="1" stop-color="#fff600"/>
    </linearGradient>
  </defs>
  <circle id="Oval" class="cls-3" cx="256" cy="256" r="256"/>
  <path id="Shape" class="cls-2" d="M201.9,409.6c66.13,17.15,147.37-8.7,181.67-62.29,2.82-4.44-1.54-9.05-5.97-5.55-35.84,28.33-111.96,49.41-167.68,33.11-21.33-6.31-30.55,28.93-8.02,34.73Z"/>
  <path class="cls-2" d="M217.6,238.25c-28.59-33.19-115.8-23.3-145.41,26.54-1.96,3.33.68,7.42,5.21,4.61,28.59-17.58,64.6-16.73,64.6-16.73.09,23.98,19.03,43.35,42.41,43.35,33.88,0,50.01-38.31,33.19-57.77Z"/>
  <path class="cls-2" d="M433.83,238.25c-28.59-33.19-115.8-23.3-145.41,26.54-1.96,3.33.68,7.42,5.21,4.61,28.59-17.58,64.6-16.73,64.6-16.73.09,23.98,19.03,43.35,42.41,43.35,33.79,0,49.92-38.31,33.19-57.77Z"/>
  <path class="cls-1" d="M111.19,143.87c-83.54,49.41-30.29,60.07,45.4,26.97,42.67-18.69,9.56-59.56-45.4-26.97Z"/>
  <path class="cls-1" d="M400.81,118.36c-54.95-32.51-88.06,8.28-45.4,26.97,75.69,33.19,128.94,22.44,45.4-26.97Z"/>
</svg>