<?xml version="1.0" encoding="UTF-8"?>
<svg id="Layer_1" data-name="Layer 1" xmlns="http://www.w3.org/2000/svg" xmlns:xlink="http://www.w3.org/1999/xlink" viewBox="0 0 512 512">
  <defs>
    <style>
      .cls-1 {
        fill: url(#radial-gradient-7);
      }

      .cls-2 {
        fill: url(#radial-gradient-6);
      }

      .cls-3 {
        fill: url(#radial-gradient-5);
      }

      .cls-4 {
        fill: url(#radial-gradient-4);
      }

      .cls-5 {
        fill: url(#radial-gradient-8);
      }

      .cls-6 {
        fill: url(#radial-gradient-3);
      }

      .cls-7 {
        fill: url(#radial-gradient-2);
      }

      .cls-8 {
        fill: url(#linear-gradient-2);
      }

      .cls-9 {
        fill: #1a1626;
      }

      .cls-10 {
        fill: url(#radial-gradient);
      }

      .cls-11 {
        fill: url(#linear-gradient);
      }
    </style>
    <linearGradient id="linear-gradient" x1="256" y1="1.44" x2="256" y2="452" gradientTransform="translate(0 513.44) scale(1 -1)" gradientUnits="userSpaceOnUse">
      <stop offset="0" stop-color="#ff9500"/>
      <stop offset=".19" stop-color="#ffad00"/>
      <stop offset=".54" stop-color="#ffd500"/>
      <stop offset=".83" stop-color="#ffed00"/>
      <stop offset="1" stop-color="#fff600"/>
    </linearGradient>
    <radialGradient id="radial-gradient" cx="505.94" cy="494.04" fx="518" fy="501.38" r="17.83" gradientTransform="translate(0 513.44) scale(1 -1)" gradientUnits="userSpaceOnUse">
      <stop offset="0" stop-color="#fb0" stop-opacity=".8"/>
      <stop offset="1" stop-color="#fb0" stop-opacity="0"/>
    </radialGradient>
    <radialGradient id="radial-gradient-2" cx="-28.31" cy="555.9" fx="-9.96" fy="555.9" r="25.17" gradientTransform="translate(0 513.44) scale(1 -1)" gradientUnits="userSpaceOnUse">
      <stop offset="0" stop-color="#fb0" stop-opacity=".8"/>
      <stop offset="1" stop-color="#fb0" stop-opacity="0"/>
    </radialGradient>
    <radialGradient id="radial-gradient-3" cx="-81.79" cy="662.33" fx="-63.44" fy="662.33" r="25.17" gradientTransform="translate(0 513.44) scale(1 -1)" gradientUnits="userSpaceOnUse">
      <stop offset="0" stop-color="#fb0" stop-opacity=".8"/>
      <stop offset="1" stop-color="#fb0" stop-opacity="0"/>
    </radialGradient>
    <radialGradient id="radial-gradient-4" cx="439.88" cy="356.67" fx="458.23" fy="356.67" r="25.17" gradientTransform="translate(0 513.44) scale(1 -1)" gradientUnits="userSpaceOnUse">
      <stop offset="0" stop-color="#fb0" stop-opacity=".8"/>
      <stop offset="1" stop-color="#fb0" stop-opacity="0"/>
    </radialGradient>
    <linearGradient id="linear-gradient-2" x1="258.63" y1="29.32" x2="258.63" y2="513.44" gradientTransform="translate(0 513.44) scale(1 -1)" gradientUnits="userSpaceOnUse">
      <stop offset="0" stop-color="#ff9500"/>
      <stop offset=".19" stop-color="#ffad00"/>
      <stop offset=".54" stop-color="#ffd500"/>
      <stop offset=".83" stop-color="#ffed00"/>
      <stop offset="1" stop-color="#fff600"/>
    </linearGradient>
    <radialGradient id="radial-gradient-5" cx="-34.6" cy="498.76" fx="-23.07" fy="505.57" r="17.3" gradientTransform="translate(0 513.44) scale(1 -1)" gradientUnits="userSpaceOnUse">
      <stop offset="0" stop-color="#fb0" stop-opacity=".8"/>
      <stop offset="1" stop-color="#fb0" stop-opacity="0"/>
    </radialGradient>
    <radialGradient id="radial-gradient-6" cx="108" cy="835.87" fx="148.9" fy="846.88" r="57.15" gradientTransform="translate(0 513.44) scale(1 -1)" gradientUnits="userSpaceOnUse">
      <stop offset="0" stop-color="#fb0" stop-opacity=".8"/>
      <stop offset="1" stop-color="#fb0" stop-opacity="0"/>
    </radialGradient>
    <radialGradient id="radial-gradient-7" cx="369.62" cy="445.28" fx="394.79" fy="438.46" r="34.6" gradientTransform="translate(0 513.44) scale(1 -1)" gradientUnits="userSpaceOnUse">
      <stop offset="0" stop-color="#fb0" stop-opacity=".8"/>
      <stop offset="1" stop-color="#fb0" stop-opacity="0"/>
    </radialGradient>
    <radialGradient id="radial-gradient-8" cx="-104.86" cy="620.39" fx="-79.17" fy="627.21" r="35.13" gradientTransform="translate(0 513.44) scale(1 -1)" gradientUnits="userSpaceOnUse">
      <stop offset="0" stop-color="#fb0" stop-opacity=".8"/>
      <stop offset="1" stop-color="#fb0" stop-opacity="0"/>
    </radialGradient>
  </defs>
  <path class="cls-11" d="M0,458.24c0,4.78,2.73,8.45,8.19,11.01,5.46,2.56,12.03,4.44,19.71,5.63,7.68,1.19,15.27,2.13,22.78,2.82,9.22,1.02,16.47,2.13,21.76,3.33,5.29,1.19,5.72,3.5,1.28,6.91-7.85,5.8-10.75,10.5-8.7,14.08,2.05,3.58,7.25,6.14,15.62,7.68,8.36,1.54,18.01,2.3,28.93,2.3h2.05c10.24,0,20.39-.6,30.46-1.79,10.07-1.19,18.52-2.65,25.34-4.35,12.29-3.75,25.43-6.14,39.42-7.17,13.99-1.02,27.56-1.28,40.7-.77,13.14.51,24.66,1.62,34.56,3.33,31.74,4.78,61.01,7.94,87.81,9.47,26.79,1.54,49.15,1.45,67.07-.26,17.92-1.71,29.18-5.12,33.79-10.24,4.61-5.12.6-11.78-12.03-19.97-6.49-4.1-9.73-7-9.73-8.7s2.13-2.56,6.4-2.56,9.47.17,15.62.51c6.14.68,12.37,1.02,18.69,1.02s11.61-.6,15.87-1.79c4.27-1.19,6.4-3.67,6.4-7.42,0-4.78-3.07-9.47-9.22-14.08-6.14-4.61-13.74-9.39-22.78-14.34-9.04-4.95-18.01-10.5-26.88-16.64-8.87-6.14-16.38-12.97-22.53-20.48-6.14-7.51-9.22-16.21-9.22-26.11,0-5.12-7.68-8.7-23.04-10.75-15.36-2.05-34.65-3.07-57.86-3.07-19.46,0-40.28.6-62.46,1.79-22.19,1.19-44.03,2.82-65.54,4.86-21.5,2.05-41.13,4.27-58.88,6.66-17.75,2.39-31.91,4.86-42.5,7.42-10.58,2.56-15.87,5.03-15.87,7.42,0,8.53-3.16,15.79-9.47,21.76-6.31,5.97-14.25,11.26-23.81,15.87-9.56,4.61-19.03,8.87-28.42,12.8-9.39,3.93-17.32,7.77-23.81,11.52-6.49,3.75-9.73,7.85-9.73,12.29" vector-effect="none"/>
  <path class="cls-10" d="M493.06,469.5c4.78.34,8.96-.26,12.54-1.79,3.58-1.54,5.38-3.67,5.38-6.4.34-2.39-1.11-4.61-4.35-6.66-3.24-2.05-7.25-3.24-12.03-3.58-4.44-.34-8.45.26-12.03,1.79-3.58,1.54-5.55,3.67-5.89,6.4,0,2.39,1.54,4.61,4.61,6.66,3.07,2.05,7,3.24,11.78,3.58" vector-effect="none"/>
  <path class="cls-7" d="M27.14,443.9c-6.83,0-12.63,1.28-17.41,3.84-4.78,2.56-7.34,5.72-7.68,9.47,0,3.41,2.3,6.49,6.91,9.22,4.61,2.73,10.33,4.1,17.15,4.1s12.63-1.28,17.41-3.84c4.78-2.56,7.34-5.72,7.68-9.47,0-3.75-2.3-6.91-6.91-9.47-4.61-2.56-10.33-3.84-17.15-3.84" vector-effect="none"/>
  <path class="cls-6" d="M90.11,483.33c-6.49,1.02-11.86,3.16-16.13,6.4-4.27,3.24-6.06,6.57-5.38,9.98.68,3.75,3.67,6.49,8.96,8.19,5.29,1.71,11.18,2.05,17.66,1.02,6.83-1.02,12.29-3.16,16.38-6.4,4.1-3.24,5.8-6.74,5.12-10.5-.68-3.41-3.58-5.97-8.7-7.68-5.12-1.71-11.09-2.05-17.92-1.02" vector-effect="none"/>
  <path class="cls-4" d="M438.27,505.34c6.48,2.39,12.54,2.99,18.18,1.79,5.63-1.19,9.3-3.84,11.01-7.94,1.71-3.75,1.02-7.85-2.05-12.29-3.07-4.44-7.85-7.85-14.34-10.24-6.14-2.05-12.03-2.47-17.66-1.28-5.63,1.19-9.3,3.67-11.01,7.42-2.05,4.1-1.45,8.28,1.79,12.54,3.24,4.27,7.94,7.59,14.08,9.98" vector-effect="none"/>
  <path class="cls-8" d="M486.4,415.74c-3.75-.68-8.28-1.96-13.57-3.84-5.29-1.88-9.98-4.69-14.08-8.45-4.1-3.75-6.31-8.7-6.66-14.85-.34-6.14,2.56-13.99,8.7-23.55,6.14-9.22,11.86-19.37,17.15-30.46,5.29-11.09,9.64-24.15,13.06-39.17,3.41-15.02,5.12-33.45,5.12-55.3,0-33.11-6.23-64.17-18.69-93.18-12.46-29.01-29.7-54.53-51.71-76.54-22.02-22.02-47.53-39.25-76.54-51.71C320.17,6.23,289.11,0,256,0s-64.17,6.23-93.18,18.69c-29.01,12.46-54.53,29.7-76.54,51.71-22.02,22.02-39.25,47.53-51.71,76.54-12.46,29.01-18.69,60.07-18.69,93.18,0,25.26,3.33,47.1,9.98,65.54,6.66,18.43,14.08,34.13,22.27,47.1,8.53,12.97,12.97,23.3,13.31,30.98.34,7.68-1.79,13.31-6.4,16.9-4.61,3.58-9.98,5.89-16.13,6.91-9.9,2.05-16.73,4.86-20.48,8.45-3.75,3.58-4.95,7.17-3.58,10.75,1.37,3.58,4.61,5.89,9.73,6.91,7.17,1.71,15.87,2.65,26.11,2.82,10.24.17,19.88.43,28.93.77,9.05.34,15.45,1.45,19.2,3.33,3.75,1.88,2.9,5.38-2.56,10.5-8.87,7.85-12.2,14.25-9.98,19.2,2.22,4.95,8.19,8.53,17.92,10.75,9.73,2.22,21.68,3.24,35.84,3.07,14.17-.17,29.18-1.37,45.06-3.58,15.87-2.22,30.81-5.38,44.8-9.47,14.68-4.1,28.84-5.12,42.5-3.07,13.65,2.05,29.87,5.29,48.64,9.73,8.53,2.05,18.26,3.58,29.18,4.61,10.92,1.02,20.65.94,29.18-.26,8.53-1.19,14.17-4.01,16.9-8.45,2.73-4.44.34-10.92-7.17-19.46-6.83-8.19-9.64-13.57-8.45-16.13,1.19-2.56,5.21-3.58,12.03-3.07,6.83.51,15.36,1.79,25.6,3.84,10.24,2.05,21.16,3.84,32.77,5.38,11.61,1.54,22.7,1.79,33.28.77,7.17-.68,12.37-3.07,15.62-7.17,3.24-4.1,3.84-8.28,1.79-12.54-2.05-4.27-7.17-7.42-15.36-9.47" vector-effect="none"/>
  <path class="cls-3" d="M33.28,434.18c4.78-.68,8.7-2.3,11.78-4.86,3.07-2.56,4.61-5.38,4.61-8.45-.34-3.41-2.22-6.06-5.63-7.94-3.41-1.88-7.51-2.65-12.29-2.3-4.44.34-8.28,1.79-11.52,4.35-3.24,2.56-4.69,5.55-4.35,8.96,0,3.07,1.79,5.63,5.38,7.68,3.58,2.05,7.59,2.9,12.03,2.56" vector-effect="none"/>
  <path class="cls-2" d="M476.25,415.67c-6.74.06-12.47,1.46-17.2,4.19-4.73,2.73-6.99,6.03-6.8,9.92.12,4.01,2.64,7.41,7.56,10.19,4.93,2.79,10.83,4.19,17.7,4.2,6.8.14,12.52-1.17,17.18-3.94s6.93-6.16,6.82-10.16c-.19-3.88-2.75-7.22-7.68-10-4.93-2.79-10.79-4.25-17.59-4.39" vector-effect="none"/>
  <path class="cls-1" d="M365.57,441.34c-8.87-1.71-16.9-1.19-24.06,1.54-7.17,2.73-11.09,6.83-11.78,12.29-1.02,5.46,1.28,10.75,6.91,15.87,5.63,5.12,13.06,8.53,22.27,10.24,9.22,1.71,17.32,1.19,24.32-1.54,7-2.73,11.01-6.83,12.03-12.29,1.02-5.46-1.37-10.75-7.17-15.87-5.8-5.12-13.31-8.53-22.53-10.24" vector-effect="none"/>
  <path class="cls-5" d="M131.58,479.74c8.87-3.07,15.53-7.59,19.97-13.57,4.44-5.97,5.46-11.69,3.07-17.15-2.39-5.46-7.59-8.96-15.62-10.5-8.02-1.54-16.47-.77-25.34,2.3-8.53,3.07-15.1,7.59-19.71,13.57-4.61,5.97-5.55,11.69-2.82,17.15,2.39,5.46,7.51,8.96,15.36,10.5,7.85,1.54,16.21.77,25.09-2.3" vector-effect="none"/>
  <path class="cls-9" d="M305.15,414.21c-4.1-1.71-4.86-4.01-2.3-6.91,2.56-2.9,6.74-6.14,12.54-9.73,5.8-3.58,11.86-7.25,18.18-11.01,6.32-3.75,11.26-7.51,14.85-11.26,3.58-3.75,4.52-7.34,2.82-10.75-1.71-3.41-7.68-6.32-17.92-8.7-10.24-2.39-26.11-4.1-47.62-5.12-27.31-1.37-53.42-7.51-78.34-18.43s-46.42-27.48-64.51-49.66c-3.41-4.44-5.8-5.72-7.17-3.84-1.37,1.88-1.71,4.35-1.02,7.42,4.44,23.21,14.42,41.47,29.95,54.78,15.53,13.31,33.96,22.53,55.3,27.65,21.33,5.12,42.92,7.17,64.77,6.14,16.38-1.02,27.9-1.28,34.56-.77,6.66.51,9.9,1.62,9.73,3.33-.17,1.71-2.22,3.84-6.14,6.4-3.93,2.56-8.45,5.38-13.57,8.45-5.12,3.07-9.22,6.31-12.29,9.73-3.07,3.41-3.93,6.83-2.56,10.24,1.37,3.41,6.66,6.66,15.87,9.73,3.07,1.02,4.18.6,3.33-1.28-.85-1.88-3.67-4.01-8.45-6.4M184.83,152.58c8.87,1.37,15.79,6.4,20.74,15.1,4.95,8.7,6.57,18.52,4.86,29.44-1.71,10.92-6.23,19.71-13.57,26.37-7.34,6.66-15.45,9.3-24.32,7.94-8.53-1.37-15.36-6.31-20.48-14.85s-6.83-18.26-5.12-29.18c1.71-10.92,6.23-19.8,13.57-26.62,7.34-6.83,15.45-9.56,24.32-8.19" vector-effect="none"/>
  <path class="cls-9" d="M339.46,200.19c-8.87-1.02-16.98,1.79-24.32,8.45-7.34,6.66-11.86,15.45-13.57,26.37-1.71,10.92,0,20.74,5.12,29.44,5.12,8.7,11.95,13.74,20.48,15.1,8.88,1.37,16.98-1.37,24.32-8.19,7.34-6.83,11.86-15.7,13.57-26.62,1.71-10.92,0-20.74-5.12-29.44-5.12-8.7-11.95-13.74-20.48-15.1" vector-effect="none"/>
</svg>