<?xml version="1.0" encoding="UTF-8"?>
<svg id="Layer_1" data-name="Layer 1" xmlns="http://www.w3.org/2000/svg" xmlns:xlink="http://www.w3.org/1999/xlink" viewBox="0 0 512.09 512">
  <defs>
    <style>
      .cls-1 {
        fill: url(#linear-gradient-4);
      }

      .cls-2 {
        fill: url(#linear-gradient-3);
      }

      .cls-3 {
        fill: url(#linear-gradient-2);
      }

      .cls-4 {
        fill: #1a1626;
      }

      .cls-5 {
        fill: url(#linear-gradient);
      }
    </style>
    <linearGradient id="linear-gradient" x1="255.98" y1="2" x2="255.98" y2="513.97" gradientTransform="translate(0 514) scale(1 -1)" gradientUnits="userSpaceOnUse">
      <stop offset="0" stop-color="#ff9500"/>
      <stop offset=".19" stop-color="#ffad00"/>
      <stop offset=".55" stop-color="#ffd500"/>
      <stop offset=".83" stop-color="#ffed00"/>
      <stop offset="1" stop-color="#fff600"/>
    </linearGradient>
    <linearGradient id="linear-gradient-2" x1="175.78" y1="303.6" x2="175.78" y2="403.93" gradientTransform="translate(0 514) scale(1 -1)" gradientUnits="userSpaceOnUse">
      <stop offset="0" stop-color="#005b91"/>
      <stop offset="1" stop-color="#007ec9"/>
    </linearGradient>
    <linearGradient id="linear-gradient-3" x1="280.98" y1="357.8" x2="280.98" y2="482.77" gradientTransform="translate(0 514) scale(1 -1)" gradientUnits="userSpaceOnUse">
      <stop offset="0" stop-color="#005b91"/>
      <stop offset="1" stop-color="#007ec9"/>
    </linearGradient>
    <linearGradient id="linear-gradient-4" x1="431.7" y1="339.4" x2="431.7" y2="514" gradientTransform="translate(0 514) scale(1 -1)" gradientUnits="userSpaceOnUse">
      <stop offset="0" stop-color="#005b91"/>
      <stop offset="1" stop-color="#007ec9"/>
    </linearGradient>
  </defs>
  <circle class="cls-5" cx="255.98" cy="256.02" r="255.98"/>
  <path class="cls-3" d="M213.06,164.2c-1.79-3.41-5.89-4.78-9.04-2.99l-17.07,9.9,5.72-42.41c.26-1.54-.09-3.16-.85-4.61l-5.46-10.32c-.85-1.62-2.3-2.9-4.01-3.5-1.71-.6-3.5-.34-5.03.51l-42.15,24.49c-1.54.85-2.65,2.39-3.07,4.18-.43,1.79-.17,3.75.68,5.46l5.72,10.84c1.79,3.5,5.89,4.78,9.04,2.99l15.96-9.22-5.63,41.64c-.17,1.54.09,3.16.85,4.61l5.72,10.84c1.54,2.9,4.69,4.35,7.51,3.58.51-.17,1.02-.34,1.45-.6l43.01-24.83c1.54-.94,2.56-2.39,3.07-4.18.43-1.79.26-3.75-.68-5.38l-5.72-11.01Z"/>
  <path class="cls-2" d="M329.79,51.49c-.94-1.62-2.47-2.73-4.18-3.16l-67.15-16.89c-3.58-.94-7,1.45-7.76,5.2l-3.24,16.64c-.34,1.79,0,3.67.94,5.29s2.47,2.73,4.18,3.16l30.8,7.76-46.67,40.36c-1.11,1.02-1.88,2.39-2.22,3.84l-3.24,16.64c-.34,1.79,0,3.67.94,5.29s2.47,2.73,4.18,3.16l68.43,17.24c.94.26,1.88.26,2.82,0,.77-.17,1.45-.43,2.13-.94,1.45-.94,2.47-2.56,2.82-4.35l3.24-16.55c.68-3.75-1.62-7.59-5.12-8.45l-32.68-8.19,47.44-41.13c1.11-.94,1.88-2.39,2.22-3.84l3.07-15.7c.34-1.88,0-3.84-.94-5.38Z"/>
  <path class="cls-1" d="M452.07,174.27c1.62-.6,2.9-1.79,3.67-3.33l9.81-20.99c1.54-3.24.17-7.08-3.16-8.62l-49.75-23.55,86.44-42.92c1.28-.6,2.39-1.71,2.99-2.99l9.39-19.97c1.54-3.24.17-7.08-3.07-8.62L418.11.63c-3.24-1.54-7.08-.17-8.62,3.07l-9.98,21.08c-1.54,3.24-.17,7.08,3.07,8.62l47.27,22.36-85.07,42.24c-1.28.68-2.39,1.71-2.99,2.99l-9.9,20.99c-.68,1.54-.77,3.33-.17,4.95.34.94.85,1.71,1.54,2.39.51.51,1.11.94,1.79,1.28l91.98,43.43c1.62.68,3.41.77,5.03.26Z"/>
  <path class="cls-4" d="M215.54,285.8c-25.34,18.69-70.99,19.97-98.38,0-6.31-4.61-16.81-1.45-14.51,3.93,23.89,54.78,103.5,54.7,127.39,0,2.39-5.29-8.19-8.53-14.51-3.93Z"/>
  <path class="cls-4" d="M296.43,285.8c25.34,18.69,70.99,19.97,98.38,0,6.31-4.61,16.81-1.45,14.51,3.93-23.89,54.78-103.5,54.7-127.39,0-2.39-5.29,8.19-8.53,14.51-3.93Z"/>
  <path class="cls-4" d="M298.65,431.37c0,50.17-85.33,50.17-85.33,0,0-26.37,19.11-47.7,42.66-47.7s42.66,21.33,42.66,47.7Z"/>
</svg>