<?xml version="1.0" encoding="UTF-8"?>
<svg id="Layer_1" data-name="Layer 1" xmlns="http://www.w3.org/2000/svg" xmlns:xlink="http://www.w3.org/1999/xlink" viewBox="0 0 464.08 512">
  <defs>
    <style>
      .cls-1 {
        fill: #0fb4d4;
      }

      .cls-2 {
        fill: url(#radial-gradient);
      }

      .cls-3 {
        fill: #ffae2c;
      }

      .cls-4, .cls-5 {
        fill: #db942d;
      }

      .cls-5 {
        isolation: isolate;
        opacity: .3;
      }
    </style>
    <radialGradient id="radial-gradient" cx="591.72" cy="2021.65" fx="591.72" fy="2021.65" r="346.79" gradientTransform="translate(-1472.2707 986.3851) rotate(45.3404) scale(1.0117 -.8601) skewX(-.5937)" gradientUnits="userSpaceOnUse">
      <stop offset=".69" stop-color="#ffc940"/>
      <stop offset=".97" stop-color="#ffb12e"/>
      <stop offset="1" stop-color="#ffae2c"/>
    </radialGradient>
  </defs>
  <path class="cls-3" d="M288.62,481.94c29.69,9.6,38.81,17.2,50.65,28.49,17.68,16.8,140.43-105.87,123.15-123.15-10.72-10.72-19.92-26.89-24.25-54.89l-149.56,149.56Z"/>
  <path class="cls-4" d="M433.13,337.42c5.04,22.57,16.24,36.89,29.29,49.85-10.32-16-16.88-33.77-20.08-59.05l-9.2,9.2Z"/>
  <path class="cls-4" d="M293.02,477.54l-7.36,7.36c32.01,9.84,39.61,16,53.61,25.53-12.08-11.52-19.04-22.33-46.25-32.89Z"/>
  <path class="cls-2" d="M377.84,122.97c-42.73,46.89-2.16,130.11-77.22,67.54-32.25-26.89-72.82-67.38-125.71-119.63-27.61-27.21-61.77,14.96-42.89,35.21,36.01,38.73,116.43,120.67,116.43,120.67,0,0-136.43-129.95-144.11-137.47-20.89-20.4-66.26,15.84-39.93,44.25,35.85,38.65,133.71,138.59,133.71,138.59,0,0-96.9-93.78-126.03-119.71-20.16-17.92-54.25,15.68-33.29,40.33,20.08,23.61,116.19,122.83,116.19,122.83,0,0-60.97-58.25-73.46-71.22-22.17-23.13-49.93,11.28-32.57,34.81,24.33,32.97,55.77,64.66,79.3,92.74,92.42,110.11,167.96,162.28,249.82,63.3,134.51-104.99,15.04-162.6,55.85-315.52,6.64-24.57-32.17-23.13-56.09,3.28Z"/>
  <path class="cls-4" d="M386.72,107.77c-44.97,36.41-31.37,72.66-47.61,99.38-8.4,13.84-102.02-83.38-149.56-130.35l-10.32-10.24c-16.24-16.08-35.21-11.84-46.89-.48-.16.16-.24.24-.4.4-8,8-12.72,19.68-10.96,30.41-6.64-6.4-11.12-10.64-12.32-11.84-13.68-13.36-34.17-7.68-46.57,4.4-12.4,12.24-17.68,31.61-2.16,48.33,1.2,1.28,2.4,2.56,3.68,4-8.88-1.6-18.56,1.6-26.49,9.36-.08.08-.16.16-.24.24-10.8,10.8-16.16,29.53-2.72,45.37,5.68,6.72,17.36,19.28,31.13,33.93-6.24.24-11.84,2.88-16,6.4-11.76,10.08-16.88,29.85-5.12,45.77,15.76,21.29,34.17,41.77,51.93,61.53,9.92,11.04,19.2,21.45,27.69,31.45,66.74,79.46,144.59,156.2,224.05,92.9-75.14,36.97-127.79,2.8-214.69-100.74-8.56-10.16-17.92-20.64-27.93-31.69-17.6-19.6-35.77-39.85-51.21-60.73-7.52-10.16-4.4-23.05,3.04-29.37,6.24-5.36,13.68-4.48,20.24,2.4,12.4,12.96,80.9,75.46,80.9,75.46l5.04-7.92s-99.94-104.19-119.71-127.39c-8.64-10.16-5.36-21.93,1.76-29.05l.16-.16c6-5.92,15.36-8.96,22.57-2.56,28.73,25.53,128.91,120.35,128.91,120.35l6.32-6.4s-98.98-103.3-134.35-141.47c-10.64-11.52-6.4-23.69,1.2-31.29l.24-.24c8.32-8.16,21.77-11.92,29.77-4.16,7.6,7.44,146.6,137.23,146.6,137.23l6.24-6.4s-80.9-84.42-116.43-122.67c-7.2-7.68-3.6-19.76,4.08-27.37,3.44-3.44,15.84-13.36,30.01.64l10.4,10.24c47.69,47.21,139.87,151.08,163.56,134.59,23.37-16.24.32-62.25,49.05-102.42,16.16-13.28,38.81-10.4,33.61,3.6-36.81,100.34,41.93,146.6-5.04,270.55,66.34-99.46-17.28-184.52,16.48-266.62,10.96-26.73-27.13-37.45-51.93-17.36Z"/>
  <path class="cls-4" d="M261.01,221.95c-14.16,9.76-18.64,17.6-18.64,17.6,0,0,5.04-10.88-.64-19.84,10.56,4.08,19.28,2.24,19.28,2.24Z"/>
  <path class="cls-4" d="M212.52,269.57c-11.28,4.72-18.64,18.64-18.64,18.64,0,0,2.4-13.44-1.6-22.17,10.56,4.08,20.24,3.52,20.24,3.52Z"/>
  <path class="cls-4" d="M152.34,313.18c7.84,9.2,4.4,21.05,4.4,21.05,0,0,4.8-8.88,15.36-23.93,0,0-10,6.16-19.76,2.88Z"/>
  <path class="cls-5" d="M320.63,247.96c-44.65,87.38,10,144.91,36.49,163.72,5.68,4,5.6.64,2.64-2.88-21.61-26.09-62.17-81.62-35.69-159.8,2.56-7.44.16-8.16-3.44-1.04Z"/>
  <path class="cls-1" d="M331.43,120.17c-49.37-67.7-116.91-75.94-117.63-76.02-13.36-1.52-11.84-16.16,1.6-14.64,3.04.32,74.66,9.12,127.87,81.94,7.6,10.48-3.76,19.84-11.84,8.72Z"/>
  <path class="cls-1" d="M342.07,67.84c-25.61-41.93-74.02-52.97-74.5-53.05-13.28-2.96-10.24-17.28,3.12-14.4,2.24.48,54.97,12.4,83.86,59.85,6.64,10.72-5.36,19.2-12.48,7.6Z"/>
  <path class="cls-1" d="M35.6,349.1c34.81,76.26,99.38,97.86,100.02,98.02,12.8,4.16,8.32,18.24-4.48,14.08-2.88-.96-71.38-23.85-108.91-105.95-5.36-11.76,7.6-18.64,13.36-6.16Z"/>
  <path class="cls-1" d="M14.63,398.24c16.64,46.17,61.85,66.74,62.33,66.9,12.48,5.52,6.56,19.04-5.92,13.52-2.08-.88-51.37-23.13-70.18-75.38-4.4-11.92,9.12-17.84,13.76-5.04Z"/>
</svg>