<?xml version="1.0" encoding="UTF-8"?>
<svg id="Layer_1" data-name="Layer 1" xmlns="http://www.w3.org/2000/svg" xmlns:xlink="http://www.w3.org/1999/xlink" viewBox="0 0 512 512">
  <defs>
    <style>
      .cls-1 {
        fill: #ffe463;
      }

      .cls-2 {
        fill: #f9c802;
      }

      .cls-3 {
        fill: url(#linear-gradient-8);
      }

      .cls-4 {
        fill: url(#linear-gradient-7);
      }

      .cls-5 {
        fill: url(#linear-gradient-5);
      }

      .cls-6 {
        fill: url(#linear-gradient-6);
      }

      .cls-7 {
        fill: url(#linear-gradient-4);
      }

      .cls-8 {
        fill: url(#linear-gradient-3);
      }

      .cls-9 {
        fill: url(#linear-gradient-2);
      }

      .cls-10 {
        fill: url(#radial-gradient);
      }

      .cls-11 {
        fill: #99a8ae;
      }

      .cls-12 {
        fill: url(#linear-gradient);
      }

      .cls-13 {
        fill: #ea8800;
      }

      .cls-14 {
        fill: #e6ebef;
      }
    </style>
    <linearGradient id="linear-gradient" x1="390.66" y1="433.09" x2="263.64" y2="348.19" gradientTransform="translate(0 514) scale(1 -1)" gradientUnits="userSpaceOnUse">
      <stop offset="0" stop-color="#4e5e67"/>
      <stop offset=".04" stop-color="#5b6a72"/>
      <stop offset=".19" stop-color="#859198"/>
      <stop offset=".35" stop-color="#a8b1b7"/>
      <stop offset=".51" stop-color="#c3cbd0"/>
      <stop offset=".67" stop-color="#d7dde1"/>
      <stop offset=".83" stop-color="#e2e7ec"/>
      <stop offset="1" stop-color="#e6ebef"/>
    </linearGradient>
    <linearGradient id="linear-gradient-2" x1="-499.25" y1="-339.52" x2="-563.59" y2="-275.18" gradientTransform="translate(19.06 -428.68) rotate(-90) scale(1 -1)" gradientUnits="userSpaceOnUse">
      <stop offset="0" stop-color="#d3d7db"/>
      <stop offset=".02" stop-color="#d6dade"/>
      <stop offset=".16" stop-color="#e9ebed"/>
      <stop offset=".32" stop-color="#f5f6f7"/>
      <stop offset=".54" stop-color="#fdfdfd"/>
      <stop offset="1" stop-color="#fff"/>
    </linearGradient>
    <radialGradient id="radial-gradient" cx="523.98" cy="205.21" fx="523.98" fy="205.21" r="29.65" gradientTransform="translate(-47.4 473.45) rotate(-5.13) scale(.98 -.97) skewX(10.1)" gradientUnits="userSpaceOnUse">
      <stop offset="0" stop-color="#ff709b"/>
      <stop offset=".26" stop-color="#f96d97"/>
      <stop offset=".61" stop-color="#e8638b"/>
      <stop offset="1" stop-color="#cc5478"/>
    </radialGradient>
    <linearGradient id="linear-gradient-3" x1="508" y1="219.62" x2="473.57" y2="254.98" gradientTransform="translate(-28.02 500.38) scale(1 -1)" gradientUnits="userSpaceOnUse">
      <stop offset="0" stop-color="#6e787a"/>
      <stop offset=".61" stop-color="#d6dbde"/>
      <stop offset=".69" stop-color="#d2d8da"/>
      <stop offset=".77" stop-color="#c7cdd0"/>
      <stop offset=".84" stop-color="#b4bbbe"/>
      <stop offset=".91" stop-color="#9aa2a4"/>
      <stop offset=".98" stop-color="#788284"/>
      <stop offset="1" stop-color="#6e787a"/>
    </linearGradient>
    <linearGradient id="linear-gradient-4" x1="312.06" y1="982.5" x2="284.85" y2="1010.44" gradientTransform="translate(-445.31 748.84) rotate(45) scale(1 -1)" gradientUnits="userSpaceOnUse">
      <stop offset="0" stop-color="#6e787a"/>
      <stop offset=".61" stop-color="#d6dbde"/>
      <stop offset=".69" stop-color="#d2d8da"/>
      <stop offset=".77" stop-color="#c7cdd0"/>
      <stop offset=".84" stop-color="#b4bbbe"/>
      <stop offset=".91" stop-color="#9aa2a4"/>
      <stop offset=".98" stop-color="#788284"/>
      <stop offset="1" stop-color="#6e787a"/>
    </linearGradient>
    <linearGradient id="linear-gradient-5" x1="312.06" y1="976.52" x2="284.86" y2="1004.47" gradientTransform="translate(-445.31 748.84) rotate(45) scale(1 -1)" gradientUnits="userSpaceOnUse">
      <stop offset="0" stop-color="#6e787a"/>
      <stop offset=".61" stop-color="#d6dbde"/>
      <stop offset=".69" stop-color="#d2d8da"/>
      <stop offset=".77" stop-color="#c7cdd0"/>
      <stop offset=".84" stop-color="#b4bbbe"/>
      <stop offset=".91" stop-color="#9aa2a4"/>
      <stop offset=".98" stop-color="#788284"/>
      <stop offset="1" stop-color="#6e787a"/>
    </linearGradient>
    <linearGradient id="linear-gradient-6" x1="312.06" y1="970.55" x2="284.86" y2="998.49" gradientTransform="translate(-445.31 748.84) rotate(45) scale(1 -1)" gradientUnits="userSpaceOnUse">
      <stop offset="0" stop-color="#6e787a"/>
      <stop offset=".61" stop-color="#d6dbde"/>
      <stop offset=".69" stop-color="#d2d8da"/>
      <stop offset=".77" stop-color="#c7cdd0"/>
      <stop offset=".84" stop-color="#b4bbbe"/>
      <stop offset=".91" stop-color="#9aa2a4"/>
      <stop offset=".98" stop-color="#788284"/>
      <stop offset="1" stop-color="#6e787a"/>
    </linearGradient>
    <linearGradient id="linear-gradient-7" x1="300.58" y1="72.78" x2="324.06" y2="46.61" gradientTransform="translate(-28.02 500.38) scale(1 -1)" gradientUnits="userSpaceOnUse">
      <stop offset="0" stop-color="#fed0ac"/>
      <stop offset=".25" stop-color="#fccda8"/>
      <stop offset=".5" stop-color="#f5c39b"/>
      <stop offset=".77" stop-color="#ebb286"/>
      <stop offset="1" stop-color="#de9e6d"/>
    </linearGradient>
    <linearGradient id="linear-gradient-8" x1="287.82" y1="48.13" x2="301.53" y2="34.73" gradientTransform="translate(-28.02 500.38) scale(1 -1)" gradientUnits="userSpaceOnUse">
      <stop offset="0" stop-color="#4e5e67"/>
      <stop offset=".37" stop-color="#3f4450"/>
      <stop offset=".74" stop-color="#343241"/>
      <stop offset="1" stop-color="#302c3b"/>
    </linearGradient>
  </defs>
  <path class="cls-14" d="M409.58,512V185.19C409.58,130.09,294.76,0,263.39,0H0v512h409.58Z"/>
  <path class="cls-12" d="M263.39.13c29.39,0,146.19,116.1,146.19,185.06v186.01S-46.75,312.57,58.5,0l204.9.13Z"/>
  <rect class="cls-11" x="40" y="56" width="96" height="8"/>
  <rect class="cls-11" x="40" y="128" width="320" height="8"/>
  <rect class="cls-11" x="40" y="160" width="320" height="8"/>
  <rect class="cls-11" x="40" y="192" width="320" height="8"/>
  <rect class="cls-11" x="40" y="224" width="320" height="8"/>
  <rect class="cls-11" x="40" y="256" width="288" height="8"/>
  <rect class="cls-11" x="40" y="328" width="176" height="8"/>
  <rect class="cls-11" x="40" y="360" width="320" height="8"/>
  <rect class="cls-11" x="40" y="392" width="320" height="8"/>
  <rect class="cls-11" x="40" y="424" width="112" height="8"/>
  <rect class="cls-11" x="40" y="456" width="48" height="8"/>
  <path class="cls-9" d="M263.39.13c39.18,0,146.19,110.42,146.19,185.06,0,0-11.74-71.09-121.22-56.16C301.85,43.7,276.79,2.09,263.39.13Z"/>
  <rect class="cls-2" x="266.24" y="323.45" width="221.8" height="49.52" transform="translate(-135.76 368.67) rotate(-45)"/>
  <path class="cls-10" d="M504.97,224.8l-4.45-4.44c-8.46-8.44-20.36-10.22-30.44-.14l-15.14,15.15,35,35.02,15.15-15.15c10.09-10.08,8.3-21.99-.13-30.44Z"/>
  <polygon class="cls-8" points="489.95 270.39 454.94 235.37 435.07 255.22 470.1 290.25 489.95 270.39"/>
  <path class="cls-7" d="M489.95,270.39c-6-6.01-28.4-28.42-35.02-35.02-1.5-1.5-5.72,2.72-4.22,4.22,5.93,5.95,26.74,26.74,35.02,35.02,1.5,1.51,5.72-2.72,4.22-4.22Z"/>
  <path class="cls-5" d="M485.74,274.61c-5.99-6-28.42-28.41-35.02-35.02-1.5-1.5-5.73,2.73-4.22,4.22,5.94,5.95,26.75,26.74,35.02,35.02,1.51,1.5,5.72-2.71,4.22-4.22Z"/>
  <path class="cls-6" d="M481.5,278.83c-6-6-28.41-28.41-35.02-35.02-1.5-1.5-5.72,2.71-4.22,4.22,5.94,5.95,26.74,26.74,35.02,35.02,1.5,1.5,5.74-2.72,4.22-4.22Z"/>
  <rect class="cls-1" x="254.3" y="330.12" width="217.59" height="14.01" transform="translate(-132.04 355.28) rotate(-44.98)"/>
  <rect class="cls-13" x="279.43" y="355.21" width="217.6" height="14.02" transform="translate(-142.41 380.84) rotate(-45.02)"/>
  <path class="cls-4" d="M281.22,409.1l-20.51,45.04,10.42,10.51,45.1-20.54c.98-11.01-8.41-5.42-7.8-12.02.53-5.9-9.29-15.73-15.2-15.2-7.53.67-.95-8.79-12.02-7.8Z"/>
  <path class="cls-3" d="M257.11,462.02c-2.83,6.26-.04,9.04,6.19,6.21l21.87-9.96-18.1-18.11-9.97,21.86Z"/>
</svg>