<?xml version="1.0" encoding="UTF-8"?>
<svg id="Layer_1" data-name="Layer 1" xmlns="http://www.w3.org/2000/svg" xmlns:xlink="http://www.w3.org/1999/xlink" viewBox="0 0 667.83 512">
  <defs>
    <style>
      .cls-1 {
        fill: #b3c2c6;
      }

      .cls-2 {
        fill: #cfd8dd;
      }

      .cls-3 {
        fill: url(#linear-gradient-2);
      }

      .cls-4 {
        fill: #006dae;
      }

      .cls-5 {
        fill: #99a8ae;
      }

      .cls-6 {
        fill: url(#linear-gradient);
      }

      .cls-7 {
        fill: #014d87;
      }

      .cls-8 {
        fill: #e81c27;
      }

      .cls-9 {
        fill: #013366;
      }

      .cls-10 {
        fill: #e6ebef;
      }
    </style>
    <linearGradient id="linear-gradient" x1="66.78" y1="297.72" x2="333.91" y2="297.72" gradientTransform="translate(0 514) scale(1 -1)" gradientUnits="userSpaceOnUse">
      <stop offset="0" stop-color="#cfd8dd"/>
      <stop offset=".22" stop-color="#e1e7eb"/>
      <stop offset=".47" stop-color="#eef2f4"/>
      <stop offset=".7" stop-color="#f2f5f7"/>
      <stop offset=".76" stop-color="#eef1f4"/>
      <stop offset=".83" stop-color="#e1e7e9"/>
      <stop offset=".89" stop-color="#cdd5d8"/>
      <stop offset=".96" stop-color="#b0bcc1"/>
      <stop offset="1" stop-color="#99a8ae"/>
    </linearGradient>
    <linearGradient id="linear-gradient-2" x1="333.91" y1="297.72" x2="601.04" y2="297.72" gradientTransform="translate(0 514) scale(1 -1)" gradientUnits="userSpaceOnUse">
      <stop offset="0" stop-color="#99a8ae"/>
      <stop offset=".04" stop-color="#b0bcc1"/>
      <stop offset=".11" stop-color="#cdd5d8"/>
      <stop offset=".17" stop-color="#e1e7e9"/>
      <stop offset=".24" stop-color="#eef1f4"/>
      <stop offset=".3" stop-color="#f2f5f7"/>
      <stop offset=".53" stop-color="#eef2f4"/>
      <stop offset=".78" stop-color="#e1e7eb"/>
      <stop offset="1" stop-color="#cfd8dd"/>
    </linearGradient>
  </defs>
  <path class="cls-4" d="M333.91,33.39C281.27-32.39,102.85,23.66,10.45,27.99c-5.89.27-10.45,5.18-10.45,11.09v452.71c0,5.57,4.11,10.15,9.61,11.05,92.14,14.95,271.48-56.81,324.31,9.16,52.78-65.91,231.85,5.8,324.3-9.17,5.51-.89,9.62-5.49,9.62-11.05V39.08c0-5.9-4.56-10.82-10.47-11.09-92.71-4.31-270.83-60.33-323.44,5.4Z"/>
  <path class="cls-4" d="M289.39,422.96v58.02c0,41.36,89.04,41.36,89.04,0v-58.02h-89.04Z"/>
  <path class="cls-7" d="M311.65,445.22v35.77c0,4.5,10.83,8.75,22.26,8.75s22.26-4.25,22.26-8.75v-35.77h-44.52Z"/>
  <path class="cls-10" d="M66.78,5.62s-14.96,18-44.52,36.39v434.96c44.52-23.8,55.65-44.31,55.65-44.31L66.78,5.62Z"/>
  <path class="cls-2" d="M52.87,32.78c1.19,69.62.89,83.59,1.39,153.2-.5,69.62-.2,139.24-1.39,208.86-1.19-69.62-.89-139.24-1.39-208.86.5-69.61.2-83.58,1.39-153.2Z"/>
  <path class="cls-2" d="M27.83,55.04c1.19,77.05.89,98.43,1.39,175.46-.5,77.05-.2,154.08-1.39,231.12-1.19-77.05-.89-154.08-1.39-231.12.5-77.03.2-98.42,1.39-175.46Z"/>
  <path class="cls-2" d="M44.52,21.65c1.19,54.78.89,87.3,1.39,142.07-.5,54.78-.2,109.56-1.39,164.34-1.19-54.78-.91-109.56-1.39-164.34.5-54.77.2-87.29,1.39-142.07Z"/>
  <path class="cls-10" d="M601.04,5.62s14.96,18,44.52,36.39v434.96c-44.52-23.8-55.65-44.31-55.65-44.31l11.13-427.03Z"/>
  <path class="cls-2" d="M636.65,439.36c-1.19-69.62-.89-139.24-1.39-208.86.5-69.61.2-116.97,1.39-186.59,1.19,69.62.91,116.98,1.39,186.59-.5,69.62-.19,139.24-1.39,208.86Z"/>
  <path class="cls-2" d="M606.61,405.97c-1.19-71.48-.89-142.95-1.39-214.43.5-71.47.2-87.29,1.39-158.76,1.19,71.48.89,87.3,1.39,158.76-.5,71.48-.2,142.95-1.39,214.43Z"/>
  <path class="cls-2" d="M626.09,420.33c-1.19-54.77-.89-109.56-1.39-164.33.5-54.77.2-109.56,1.39-164.33,1.19,54.77.89,109.56,1.39,164.33-.5,54.77-.2,109.56-1.39,164.33Z"/>
  <path class="cls-9" d="M601.04,421.48c-189.22-64.26-345.04-64.26-534.26,0l-44.52,55.47c97.07,16.01,225.16-39.4,311.65,2.86,86.45-42.26,214.58,13.15,311.65-2.86l-44.52-55.47Z"/>
  <path class="cls-1" d="M601.04,421.48c-189.22-64.26-345.04-64.26-534.26,0l-44.52,55.47c75.33,12.41,207.66-50.82,311.65,0,103.97-50.82,236.32,12.41,311.65,0l-44.52-55.47Z"/>
  <path class="cls-5" d="M66.78,461.91c22.49-2.83,44.72-7.41,67.05-11.4,22.28-4.12,44.68-8.07,67.31-10.38,22.63-2,45.55-2.36,68.13.61,22.58,2.83,44.78,9.51,64.66,20.56-20.37-10.07-42.47-16.02-64.87-18.72-22.46-2.64-45.18-1.96-67.65.32-22.52,1.98-44.91,5.61-67.24,9.43-22.36,3.87-44.76,7.82-67.38,9.58Z"/>
  <path class="cls-5" d="M133.57,445.53c33.32-7.18,67.26-12.34,101.52-12.82,17.13.18,34.28,1.78,51.02,5.51,16.74,3.6,32.98,9.64,47.81,18.13-15.33-7.51-31.59-12.86-48.19-16.33-16.65-3.38-33.65-4.65-50.63-4.53-34.04-.52-67.77,5.22-101.52,10.04Z"/>
  <path class="cls-5" d="M178.09,428.17c26.23-4.11,52.85-7.8,79.65-6.04,13.35,1.06,26.64,3.43,39.41,7.41,12.79,3.94,25.05,9.38,36.76,15.68-24.33-10.76-49.91-18.79-76.37-20.32-13.18-1.08-26.43-.63-39.67.19-13.27.85-26.52,2.06-39.79,3.08Z"/>
  <path class="cls-5" d="M601.04,464.7c-22.74-2.09-45.16-6.68-67.5-11.12-22.37-4.39-44.78-8.56-67.39-10.84-22.56-2.57-45.43-3.29-67.94-.18-22.44,3.16-44.43,10.16-64.3,21.43,19.3-12.21,41.38-19.97,64.03-23.25,22.67-3.47,45.76-3.06,68.47-.76,22.74,2.6,45.16,7.11,67.48,11.8,22.36,4.55,44.56,9.76,67.14,12.92Z"/>
  <path class="cls-5" d="M534.26,445.97c-33.8-5.69-67.67-12.25-101.91-11.68-17.06-.09-34.17,1.46-50.8,5.4-16.58,4.01-32.68,10.21-47.63,18.63,14.4-9.36,30.45-16.27,47.19-20.44,16.72-4.29,33.98-6.18,51.22-6.37,34.5.42,68.6,6.43,101.92,14.45Z"/>
  <path class="cls-5" d="M489.74,426.13c-13.35-1.26-26.67-2.7-40-3.71-13.32-.97-26.69-1.45-39.94-.19-26.61,1.87-52.07,11.23-75.89,23.39,11.43-6.98,23.47-13.09,36.19-17.59,12.7-4.55,26.02-7.33,39.48-8.57,27.04-2.13,53.82,2.11,80.16,6.67Z"/>
  <path class="cls-6" d="M66.78,5.62v415.86c133.26,0,178.63-40.01,267.13,11.09V28.62C275.86-28.52,150.07,20.08,66.78,5.62Z"/>
  <path class="cls-3" d="M333.91,28.62v403.95c88.5-51.1,133.84-11.09,267.13-11.09V5.62c-83.28,14.46-209.09-34.14-267.13,23Z"/>
  <path class="cls-5" d="M578.78,30.15c-71.94,3.94-164.93-23.06-222.61,5.28v5.57c57.68-28.34,150.67-1.32,222.61-5.28v-5.57Z"/>
  <path class="cls-5" d="M578.78,58c-71.94,3.94-164.93-23.06-222.61,5.28v5.57c57.68-28.34,150.67-1.32,222.61-5.28v-5.57Z"/>
  <path class="cls-5" d="M578.78,85.85c-71.94,3.94-164.93-23.06-222.61,5.28v5.57c57.68-28.34,150.67-1.32,222.61-5.28v-5.57Z"/>
  <path class="cls-5" d="M578.78,113.7c-71.94,3.94-164.93-23.06-222.61,5.28v5.57c57.68-28.34,150.67-1.32,222.61-5.28v-5.57Z"/>
  <path class="cls-5" d="M578.78,141.55c-71.94,3.94-164.93-23.06-222.61,5.28v5.57c57.68-28.34,150.67-1.32,222.61-5.28v-5.57Z"/>
  <path class="cls-5" d="M578.78,169.39c-71.94,3.94-164.93-23.06-222.61,5.28v5.57c57.68-28.34,150.67-1.32,222.61-5.28v-5.57Z"/>
  <path class="cls-5" d="M578.78,197.24c-71.94,3.94-164.93-23.06-222.61,5.28v5.57c57.68-28.34,150.67-1.32,222.61-5.28v-5.57Z"/>
  <path class="cls-5" d="M578.78,225.09c-71.94,3.94-164.93-23.06-222.61,5.28v5.57c57.68-28.34,150.67-1.32,222.61-5.28v-5.57Z"/>
  <path class="cls-5" d="M578.78,252.94c-71.94,3.94-164.93-23.06-222.61,5.28v5.57c57.68-28.34,150.67-1.32,222.61-5.28v-5.57Z"/>
  <path class="cls-5" d="M578.78,280.79c-71.94,3.94-164.93-23.06-222.61,5.28v5.57c57.68-28.34,150.67-1.32,222.61-5.28v-5.57Z"/>
  <path class="cls-5" d="M578.78,308.64c-71.94,3.94-164.93-23.06-222.61,5.28v5.57c57.68-28.34,150.67-1.32,222.61-5.28v-5.57Z"/>
  <path class="cls-5" d="M578.78,336.47c-71.94,3.94-164.93-23.06-222.61,5.28v5.57c57.68-28.34,150.67-1.32,222.61-5.28v-5.57Z"/>
  <path class="cls-5" d="M578.78,364.32c-71.94,3.94-164.93-23.06-222.61,5.28v5.57c57.68-28.34,150.67-1.32,222.61-5.28v-5.57Z"/>
  <path class="cls-5" d="M578.78,392.17c-71.94,3.94-164.93-23.06-222.61,5.28v5.57c57.68-28.34,150.67-1.32,222.61-5.28v-5.57Z"/>
  <path class="cls-5" d="M89.04,30.15c71.91,3.94,164.92-23.06,222.61,5.28v5.57c-57.7-28.34-150.7-1.32-222.61-5.28v-5.57Z"/>
  <path class="cls-5" d="M89.04,58c71.91,3.94,164.92-23.06,222.61,5.28v5.57c-57.7-28.34-150.7-1.32-222.61-5.28v-5.57Z"/>
  <path class="cls-5" d="M89.04,85.85c71.91,3.94,164.92-23.06,222.61,5.28v5.57c-57.7-28.34-150.7-1.32-222.61-5.28v-5.57Z"/>
  <path class="cls-5" d="M89.04,113.7c71.91,3.94,164.92-23.06,222.61,5.28v5.57c-57.7-28.34-150.7-1.32-222.61-5.28v-5.57Z"/>
  <path class="cls-5" d="M89.04,141.55c71.91,3.94,164.92-23.06,222.61,5.28v5.57c-57.7-28.34-150.7-1.32-222.61-5.28v-5.57Z"/>
  <path class="cls-5" d="M89.04,169.39c71.91,3.94,164.92-23.06,222.61,5.28v5.57c-57.7-28.34-150.7-1.32-222.61-5.28v-5.57Z"/>
  <path class="cls-5" d="M89.04,197.24c71.91,3.94,164.92-23.06,222.61,5.28v5.57c-57.7-28.34-150.7-1.32-222.61-5.28v-5.57Z"/>
  <path class="cls-5" d="M89.04,225.09c71.91,3.94,164.92-23.06,222.61,5.28v5.57c-57.7-28.34-150.7-1.32-222.61-5.28v-5.57Z"/>
  <path class="cls-5" d="M89.04,252.94c71.91,3.94,164.92-23.06,222.61,5.28v5.57c-57.7-28.34-150.7-1.32-222.61-5.28v-5.57Z"/>
  <path class="cls-5" d="M89.04,280.79c71.91,3.94,164.92-23.06,222.61,5.28v5.57c-57.7-28.34-150.7-1.32-222.61-5.28v-5.57Z"/>
  <path class="cls-5" d="M89.04,308.64c71.91,3.94,164.92-23.06,222.61,5.28v5.57c-57.7-28.34-150.7-1.32-222.61-5.28v-5.57Z"/>
  <path class="cls-5" d="M89.04,336.47c71.91,3.94,164.92-23.06,222.61,5.28v5.57c-57.7-28.34-150.7-1.32-222.61-5.28v-5.57Z"/>
  <path class="cls-5" d="M89.04,364.32c71.91,3.94,164.92-23.06,222.61,5.28v5.57c-57.7-28.34-150.7-1.32-222.61-5.28v-5.57Z"/>
  <path class="cls-5" d="M89.04,392.17c71.91,3.94,164.92-23.06,222.61,5.28v5.57c-57.7-28.34-150.7-1.32-222.61-5.28v-5.57Z"/>
  <path class="cls-8" d="M355.72,488.56c-23.27-38.78-32.58-151.45-27.65-444.67.18-9.83.28-16.52.28-19.3,0-3.08,11.13-3.08,11.13,0,0,2.82-.11,9.56-.28,19.5-6.11,362.59,10.8,413.34,26.06,438.75,1.59,2.64-6.39-.62-6.39-.62,0,0-2.1,8.08-3.15,6.34Z"/>
</svg>