<?xml version="1.0" encoding="UTF-8"?>
<svg id="Layer_1" data-name="Layer 1" xmlns="http://www.w3.org/2000/svg" xmlns:xlink="http://www.w3.org/1999/xlink" viewBox="0 0 512 512">
  <defs>
    <style>
      .cls-1 {
        fill: url(#radial-gradient-2);
      }

      .cls-2 {
        fill: url(#linear-gradient-5);
      }

      .cls-3 {
        fill: url(#linear-gradient-6);
      }

      .cls-4 {
        fill: url(#linear-gradient-4);
      }

      .cls-5 {
        fill: url(#linear-gradient-3);
      }

      .cls-6 {
        fill: url(#linear-gradient-2);
      }

      .cls-7 {
        fill: url(#radial-gradient);
      }

      .cls-8 {
        fill: url(#linear-gradient);
      }

      .cls-9 {
        fill: url(#linear-gradient-7);
        isolation: isolate;
        opacity: .5;
      }

      .cls-10 {
        fill: #737e80;
      }
    </style>
    <linearGradient id="linear-gradient" x1="-1318.36" y1="-449.17" x2="-1282.44" y2="-449.17" gradientTransform="translate(-933.7 905.33) rotate(135)" gradientUnits="userSpaceOnUse">
      <stop offset=".24" stop-color="#b3c2c6"/>
      <stop offset=".81" stop-color="#737e80"/>
    </linearGradient>
    <linearGradient id="linear-gradient-2" x1="-1322.7" y1="-477.52" x2="-1278.1" y2="-477.52" gradientTransform="translate(-933.7 905.33) rotate(135)" gradientUnits="userSpaceOnUse">
      <stop offset="0" stop-color="#b3c2c6"/>
      <stop offset=".18" stop-color="#9ca9ac"/>
      <stop offset=".39" stop-color="#859194"/>
      <stop offset=".59" stop-color="#788385"/>
      <stop offset=".75" stop-color="#737e80"/>
    </linearGradient>
    <linearGradient id="linear-gradient-3" x1="-724.1" y1="-639.23" x2="-658.49" y2="-639.23" gradientTransform="translate(370.37 -607.24) rotate(-45) scale(1 -1)" gradientUnits="userSpaceOnUse">
      <stop offset=".12" stop-color="#302c3b"/>
      <stop offset=".62" stop-color="#45505b"/>
      <stop offset=".89" stop-color="#4e5e67"/>
    </linearGradient>
    <linearGradient id="linear-gradient-4" x1="-724.1" y1="-759.39" x2="-658.48" y2="-759.39" gradientTransform="translate(370.37 -607.24) rotate(-45) scale(1 -1)" gradientUnits="userSpaceOnUse">
      <stop offset=".33" stop-color="#302c3b"/>
      <stop offset=".55" stop-color="#383946"/>
      <stop offset=".96" stop-color="#4c5a64"/>
      <stop offset="1" stop-color="#4e5e67"/>
    </linearGradient>
    <linearGradient id="linear-gradient-5" x1="-1300.4" y1="-426.06" x2="-1300.4" y2="-400.56" gradientTransform="translate(-933.7 905.33) rotate(135)" gradientUnits="userSpaceOnUse">
      <stop offset="0" stop-color="#b3c2c6"/>
      <stop offset=".18" stop-color="#9ca9ac"/>
      <stop offset=".39" stop-color="#859194"/>
      <stop offset=".59" stop-color="#788385"/>
      <stop offset=".75" stop-color="#737e80"/>
    </linearGradient>
    <linearGradient id="linear-gradient-6" x1="-1500.91" y1="239.99" x2="-1273.99" y2="466.9" gradientTransform="translate(-1227.0026 513.9003) rotate(-180)" gradientUnits="userSpaceOnUse">
      <stop offset="0" stop-color="#737e80"/>
      <stop offset="1" stop-color="#b3c2c6"/>
    </linearGradient>
    <linearGradient id="linear-gradient-7" x1="-1498.71" y1="242.2" x2="-1276.19" y2="464.72" gradientTransform="translate(-1227.0026 513.9003) rotate(-180)" gradientUnits="userSpaceOnUse">
      <stop offset="0" stop-color="#cfd8dd"/>
      <stop offset="1" stop-color="#e6ebed"/>
    </linearGradient>
    <radialGradient id="radial-gradient" cx="-1387.45" cy="353.46" fx="-1387.45" fy="353.46" r="143.6" gradientTransform="translate(-1227.0026 513.9003) rotate(-180)" gradientUnits="userSpaceOnUse">
      <stop offset="0" stop-color="#f7eff0"/>
      <stop offset=".3" stop-color="#f4edef"/>
      <stop offset=".57" stop-color="#e9e8ee"/>
      <stop offset=".82" stop-color="#d7e0eb"/>
      <stop offset="1" stop-color="#c5d7e8"/>
    </radialGradient>
    <radialGradient id="radial-gradient-2" cx="1226.03" cy="-122" fx="1226.03" fy="-122" r="300.15" gradientTransform="translate(-428.84 -468.69) rotate(52.88) scale(.59 .71)" gradientUnits="userSpaceOnUse">
      <stop offset="0" stop-color="#fff"/>
      <stop offset="1" stop-color="#fff" stop-opacity="0"/>
    </radialGradient>
  </defs>
  <polygon class="cls-8" points="294.37 268.98 337.84 312.46 312.49 337.85 268.98 294.39 294.37 268.98"/>
  <path class="cls-6" d="M304.67,336.21c-3.75-3.77,27.77-35.3,31.53-31.53l6.06,6.06c3.78,3.75-27.77,35.3-31.53,31.53l-6.06-6.06Z"/>
  <path class="cls-5" d="M366.83,320.45l-46.39,46.4s-3.14-3.14-10.26-23.34c-2.32-6.62,26.65-35.62,33.27-33.3,20.25,7.1,23.38,10.25,23.38,10.25Z"/>
  <path class="cls-4" d="M509.05,462.67c15,14.98-31.4,61.37-46.4,46.39-30.62-30.62-115.49-115.48-141.93-141.94-5.26-5.26,41.1-51.69,46.36-46.42,26.23,26.22,109.24,109.22,141.97,141.97Z"/>
  <path class="cls-2" d="M287.64,256.12s9.3,9.29,12.38,12.37c3.77,3.78-27.75,35.32-31.53,31.54l-12.38-12.38c-3.78-3.77,27.76-35.3,31.53-31.54Z"/>
  <rect class="cls-10" x="289.55" y="256.63" width="2.46" height="17.5" transform="translate(-102.48 283.45) rotate(-45.02)"/>
  <rect class="cls-10" x="285.84" y="261.7" width="2.46" height="17.5" transform="translate(-107.15 282.2) rotate(-45)"/>
  <rect class="cls-10" x="282.06" y="266.63" width="2.46" height="17.51" transform="translate(-111.75 280.72) rotate(-44.96)"/>
  <rect class="cls-10" x="277.7" y="271.03" width="2.46" height="17.5" transform="translate(-116.14 278.79) rotate(-44.94)"/>
  <rect class="cls-10" x="273.33" y="275.42" width="2.44" height="17.5" transform="translate(-120.52 276.98) rotate(-44.94)"/>
  <rect class="cls-10" x="268.32" y="279.2" width="2.47" height="17.5" transform="translate(-124.66 274.83) rotate(-44.98)"/>
  <rect class="cls-10" x="263.28" y="282.89" width="2.45" height="17.5" transform="translate(-128.75 272.51) rotate(-45.01)"/>
  <path class="cls-3" d="M46.99,273.92c62.67,62.63,164.24,62.66,226.92,0,62.66-62.66,62.66-164.26,0-226.91-62.67-62.67-164.28-62.66-226.93,0-62.66,62.67-62.65,164.25,0,226.93Z"/>
  <path class="cls-9" d="M271.72,49.19c-61.46-61.46-161.09-61.44-222.53,0-61.45,61.48-61.44,161.09.02,222.53,61.46,61.44,161.04,61.46,222.5,0,61.44-61.46,61.44-161.05.02-222.53ZM264.11,264.13c-57.27,57.28-150.09,57.26-207.34.02C-.45,206.88-.47,114.06,56.77,56.77,114.01-.44,206.88-.46,264.11,56.77c57.26,57.25,57.24,150.11,0,207.36Z"/>
  <path class="cls-7" d="M261.98,261.99c56.08-56.09,56.1-147.02.02-203.09-56.1-56.1-147.03-56.08-203.11-.03-56.07,56.11-56.06,147.02.04,203.12,56.07,56.08,147,56.07,203.05,0Z"/>
  <path class="cls-1" d="M192.96,206.83c48.39-36.58,62.98-98.78,32.58-138.84-30.36-40.18-94.18-43.05-142.5-6.44-48.39,36.56-62.99,98.77-32.6,138.91,30.38,40.17,94.23,43,142.53,6.37Z"/>
</svg>