<?xml version="1.0" encoding="UTF-8"?>
<svg id="Layer_1" data-name="Layer 1" xmlns="http://www.w3.org/2000/svg" xmlns:xlink="http://www.w3.org/1999/xlink" viewBox="0 0 511.98 512">
  <defs>
    <style>
      .cls-1 {
        fill: url(#linear-gradient);
      }
    </style>
    <linearGradient id="linear-gradient" x1="-438.45" y1="-687.59" x2="-76.41" y2="-325.55" gradientTransform="translate(79.83 -284.23) rotate(-45) scale(1 -1)" gradientUnits="userSpaceOnUse">
      <stop offset="0" stop-color="#99a8ae"/>
      <stop offset=".03" stop-color="#9baab0"/>
      <stop offset=".41" stop-color="#b8c3c9"/>
      <stop offset=".75" stop-color="#c9d3d8"/>
      <stop offset="1" stop-color="#cfd8dd"/>
    </linearGradient>
  </defs>
  <path class="cls-1" d="M246.53,99.05c19.73,22.65,214.53,247.33,223.29,258.5,65.86,83.96-51.2,177.89-119.58,103.83C222.42,322.97,44.48,138.62,44.48,138.62-19.44,72.18,76.17-28.99,145.82,51.39c16.16,18.66,214.79,227.28,222.85,236.3,48.76,54.75-23.91,118.87-67.49,71-29.5-32.42-48.88-67.56-143.68-163.3-5.43,2.48-14.15,10.36-15.93,16.23,94.5,95.46,113.68,130.31,143.36,162.97,66.38,73,170.87-23.27,100.18-102.56-8.31-9.37-206.84-217.88-222.63-236.1C77.13-62.58-59.87,62.96,28.68,154.98c0,0,177.78,184.17,305.42,322.42,88.81,96.2,236.88-27.69,153.05-134.47-9.22-11.76-204.37-236.84-224-259.36-12.25,8.07-16.59,15.42-16.63,15.47Z"/>
</svg>