<?xml version="1.0" encoding="UTF-8"?>
<svg id="Layer_1" data-name="Layer 1" xmlns="http://www.w3.org/2000/svg" xmlns:xlink="http://www.w3.org/1999/xlink" viewBox="0 0 477.81 512">
  <defs>
    <style>
      .cls-1 {
        fill: #778991;
      }

      .cls-2 {
        fill: url(#linear-gradient-8);
      }

      .cls-3 {
        fill: url(#linear-gradient-7);
      }

      .cls-4 {
        fill: url(#linear-gradient-5);
      }

      .cls-5 {
        fill: url(#linear-gradient-6);
      }

      .cls-6 {
        fill: url(#linear-gradient-9);
      }

      .cls-7 {
        fill: url(#linear-gradient-4);
      }

      .cls-8 {
        fill: url(#linear-gradient-3);
      }

      .cls-9 {
        fill: url(#linear-gradient-2);
      }

      .cls-10 {
        fill: #390;
      }

      .cls-11 {
        fill: #6d7d85;
      }

      .cls-12 {
        fill: url(#linear-gradient);
      }

      .cls-13 {
        fill: #555f69;
      }

      .cls-14 {
        fill: url(#linear-gradient-10);
      }

      .cls-15 {
        fill: url(#linear-gradient-11);
      }

      .cls-16 {
        fill: url(#linear-gradient-12);
      }

      .cls-17 {
        fill: url(#linear-gradient-13);
      }

      .cls-18 {
        fill: url(#linear-gradient-19);
      }

      .cls-19 {
        fill: url(#linear-gradient-14);
      }

      .cls-20 {
        fill: url(#linear-gradient-21);
      }

      .cls-21 {
        fill: url(#linear-gradient-20);
      }

      .cls-22 {
        fill: url(#linear-gradient-22);
      }

      .cls-23 {
        fill: url(#linear-gradient-23);
      }

      .cls-24 {
        fill: url(#linear-gradient-15);
      }

      .cls-25 {
        fill: url(#linear-gradient-16);
      }

      .cls-26 {
        fill: url(#linear-gradient-17);
      }

      .cls-27 {
        fill: url(#linear-gradient-18);
      }

      .cls-28 {
        fill: #fff778;
      }

      .cls-29 {
        fill: #88de00;
      }

      .cls-30 {
        fill: #86c400;
      }
    </style>
    <linearGradient id="linear-gradient" x1="238.94" y1="80.58" x2="238.94" y2="495.15" gradientTransform="translate(0 514) scale(1 -1)" gradientUnits="userSpaceOnUse">
      <stop offset="0" stop-color="#8d9ca3"/>
      <stop offset=".28" stop-color="#9cabb1"/>
      <stop offset=".67" stop-color="#abb9bf"/>
      <stop offset="1" stop-color="#b0bec4"/>
    </linearGradient>
    <linearGradient id="linear-gradient-2" x1="238.94" y1="78.8" x2="238.94" y2="514" gradientTransform="translate(0 514) scale(1 -1)" gradientUnits="userSpaceOnUse">
      <stop offset="0" stop-color="#64737a"/>
      <stop offset=".82" stop-color="#a2b0b6"/>
      <stop offset="1" stop-color="#b0bec4"/>
    </linearGradient>
    <linearGradient id="linear-gradient-3" x1="238.94" y1="36.13" x2="238.94" y2="104.4" gradientTransform="translate(0 514) scale(1 -1)" gradientUnits="userSpaceOnUse">
      <stop offset="0" stop-color="#64737a"/>
      <stop offset=".22" stop-color="#6a7980"/>
      <stop offset=".51" stop-color="#7c8a91"/>
      <stop offset=".86" stop-color="#99a6ac"/>
      <stop offset="1" stop-color="#a7b4ba"/>
    </linearGradient>
    <linearGradient id="linear-gradient-4" x1="-1546.97" y1="-165.83" x2="-1564.07" y2="-194.23" gradientTransform="translate(-1096.2943 669.3414) rotate(163.8468)" gradientUnits="userSpaceOnUse">
      <stop offset="0" stop-color="#f25252"/>
      <stop offset=".19" stop-color="#f35c5c"/>
      <stop offset=".52" stop-color="#f87979"/>
      <stop offset=".94" stop-color="#fea6a6"/>
      <stop offset="1" stop-color="#ffadad"/>
    </linearGradient>
    <linearGradient id="linear-gradient-5" x1="-1546.36" y1="-164.5" x2="-1579" y2="-163.94" gradientTransform="translate(-1096.2943 669.3414) rotate(163.8468)" gradientUnits="userSpaceOnUse">
      <stop offset="0" stop-color="#f25252"/>
      <stop offset=".25" stop-color="#f67171"/>
      <stop offset=".56" stop-color="#fb9292"/>
      <stop offset=".82" stop-color="#fea6a6"/>
      <stop offset="1" stop-color="#ffadad"/>
    </linearGradient>
    <linearGradient id="linear-gradient-6" x1="-1545.8" y1="-165.83" x2="-1545.57" y2="-131.96" gradientTransform="translate(-1096.2943 669.3414) rotate(163.8468)" gradientUnits="userSpaceOnUse">
      <stop offset="0" stop-color="#f25252"/>
      <stop offset=".49" stop-color="#f87d7d"/>
      <stop offset="1" stop-color="#ffadad"/>
    </linearGradient>
    <linearGradient id="linear-gradient-7" x1="-1546.97" y1="-165.55" x2="-1514.33" y2="-159.29" gradientTransform="translate(-1096.2943 669.3414) rotate(163.8468)" gradientUnits="userSpaceOnUse">
      <stop offset="0" stop-color="#f25252"/>
      <stop offset=".18" stop-color="#f35a5a"/>
      <stop offset=".45" stop-color="#f66f6f"/>
      <stop offset=".79" stop-color="#fb9393"/>
      <stop offset="1" stop-color="#ffadad"/>
    </linearGradient>
    <linearGradient id="linear-gradient-8" x1="-1546.38" y1="-165.97" x2="-1527.04" y2="-194.7" gradientTransform="translate(-1096.2943 669.3414) rotate(163.8468)" gradientUnits="userSpaceOnUse">
      <stop offset="0" stop-color="#f25252"/>
      <stop offset=".27" stop-color="#f77474"/>
      <stop offset=".57" stop-color="#fb9393"/>
      <stop offset=".82" stop-color="#fea6a6"/>
      <stop offset="1" stop-color="#ffadad"/>
    </linearGradient>
    <linearGradient id="linear-gradient-9" x1="149.54" y1="-35.82" x2="136.33" y2="-57.74" gradientTransform="translate(20.3 429.55) rotate(-6.98) scale(1 -1)" gradientUnits="userSpaceOnUse">
      <stop offset="0" stop-color="#ab57ff"/>
      <stop offset=".13" stop-color="#ae61ff"/>
      <stop offset=".35" stop-color="#b47eff"/>
      <stop offset=".64" stop-color="#bfabff"/>
      <stop offset=".99" stop-color="#ceeaff"/>
      <stop offset="1" stop-color="#cfedff"/>
    </linearGradient>
    <linearGradient id="linear-gradient-10" x1="150.03" y1="-34.79" x2="124.82" y2="-34.36" gradientTransform="translate(20.3 429.55) rotate(-6.98) scale(1 -1)" gradientUnits="userSpaceOnUse">
      <stop offset="0" stop-color="#ab57ff"/>
      <stop offset=".22" stop-color="#b684ff"/>
      <stop offset=".47" stop-color="#c1b1ff"/>
      <stop offset=".69" stop-color="#c8d2ff"/>
      <stop offset=".87" stop-color="#cde6ff"/>
      <stop offset="1" stop-color="#cfedff"/>
    </linearGradient>
    <linearGradient id="linear-gradient-11" x1="150.45" y1="-35.81" x2="150.62" y2="-9.66" gradientTransform="translate(20.3 429.55) rotate(-6.98) scale(1 -1)" gradientUnits="userSpaceOnUse">
      <stop offset="0" stop-color="#ab57ff"/>
      <stop offset=".31" stop-color="#b582ff"/>
      <stop offset="1" stop-color="#cfedff"/>
    </linearGradient>
    <linearGradient id="linear-gradient-12" x1="149.53" y1="-35.62" x2="174.74" y2="-30.79" gradientTransform="translate(20.3 429.55) rotate(-6.98) scale(1 -1)" gradientUnits="userSpaceOnUse">
      <stop offset="0" stop-color="#ab57ff"/>
      <stop offset=".12" stop-color="#ad5fff"/>
      <stop offset=".32" stop-color="#b275ff"/>
      <stop offset=".55" stop-color="#bb98ff"/>
      <stop offset=".82" stop-color="#c6c9ff"/>
      <stop offset="1" stop-color="#cfedff"/>
    </linearGradient>
    <linearGradient id="linear-gradient-13" x1="149.96" y1="-35.91" x2="164.89" y2="-58.09" gradientTransform="translate(20.3 429.55) rotate(-6.98) scale(1 -1)" gradientUnits="userSpaceOnUse">
      <stop offset="0" stop-color="#ab57ff"/>
      <stop offset=".23" stop-color="#b788ff"/>
      <stop offset=".47" stop-color="#c1b3ff"/>
      <stop offset=".69" stop-color="#c9d3ff"/>
      <stop offset=".87" stop-color="#cde6ff"/>
      <stop offset="1" stop-color="#cfedff"/>
    </linearGradient>
    <linearGradient id="linear-gradient-14" x1="276.09" y1="-148.76" x2="262.88" y2="-170.69" gradientTransform="translate(30 375.75) rotate(-11.75) scale(1 -1)" gradientUnits="userSpaceOnUse">
      <stop offset="0" stop-color="#ffbc70"/>
      <stop offset=".18" stop-color="#ffc37a"/>
      <stop offset=".5" stop-color="#ffd597"/>
      <stop offset=".91" stop-color="#fff3c4"/>
      <stop offset="1" stop-color="#fffacf"/>
    </linearGradient>
    <linearGradient id="linear-gradient-15" x1="276.59" y1="-147.72" x2="251.38" y2="-147.29" gradientTransform="translate(30 375.75) rotate(-11.75) scale(1 -1)" gradientUnits="userSpaceOnUse">
      <stop offset="0" stop-color="#ffbc70"/>
      <stop offset=".27" stop-color="#ffd393"/>
      <stop offset=".57" stop-color="#ffe8b4"/>
      <stop offset=".83" stop-color="#fff5c8"/>
      <stop offset="1" stop-color="#fffacf"/>
    </linearGradient>
    <linearGradient id="linear-gradient-16" x1="276.98" y1="-148.76" x2="277.15" y2="-122.6" gradientTransform="translate(30 375.75) rotate(-11.75) scale(1 -1)" gradientUnits="userSpaceOnUse">
      <stop offset="0" stop-color="#ffbc70"/>
      <stop offset=".47" stop-color="#ffd89b"/>
      <stop offset="1" stop-color="#fffacf"/>
    </linearGradient>
    <linearGradient id="linear-gradient-17" x1="276.09" y1="-148.56" x2="301.3" y2="-143.72" gradientTransform="translate(30 375.75) rotate(-11.75) scale(1 -1)" gradientUnits="userSpaceOnUse">
      <stop offset="0" stop-color="#ffbc70"/>
      <stop offset=".17" stop-color="#ffc178"/>
      <stop offset=".44" stop-color="#ffcf8e"/>
      <stop offset=".76" stop-color="#ffe6b1"/>
      <stop offset="1" stop-color="#fffacf"/>
    </linearGradient>
    <linearGradient id="linear-gradient-18" x1="276.57" y1="-148.85" x2="291.5" y2="-171.03" gradientTransform="translate(30 375.75) rotate(-11.75) scale(1 -1)" gradientUnits="userSpaceOnUse">
      <stop offset="0" stop-color="#ffbc70"/>
      <stop offset=".29" stop-color="#ffd596"/>
      <stop offset=".58" stop-color="#ffe9b5"/>
      <stop offset=".83" stop-color="#fff6c8"/>
      <stop offset="1" stop-color="#fffacf"/>
    </linearGradient>
    <linearGradient id="linear-gradient-19" x1="57.58" y1="253.56" x2="40.48" y2="225.17" gradientTransform="translate(-71.78 648.83) rotate(13.32) scale(1 -1)" gradientUnits="userSpaceOnUse">
      <stop offset="0" stop-color="#ff70a6"/>
      <stop offset=".18" stop-color="#ff7aac"/>
      <stop offset=".5" stop-color="#ff97be"/>
      <stop offset=".91" stop-color="#ffc4d9"/>
      <stop offset="1" stop-color="#ffcfe0"/>
    </linearGradient>
    <linearGradient id="linear-gradient-20" x1="58.19" y1="254.91" x2="25.55" y2="255.47" gradientTransform="translate(-71.78 648.83) rotate(13.32) scale(1 -1)" gradientUnits="userSpaceOnUse">
      <stop offset="0" stop-color="#ff70a6"/>
      <stop offset=".27" stop-color="#ff93bc"/>
      <stop offset=".57" stop-color="#ffb4cf"/>
      <stop offset=".83" stop-color="#ffc8dc"/>
      <stop offset="1" stop-color="#ffcfe0"/>
    </linearGradient>
    <linearGradient id="linear-gradient-21" x1="58.79" y1="253.57" x2="59.01" y2="287.44" gradientTransform="translate(-71.78 648.83) rotate(13.32) scale(1 -1)" gradientUnits="userSpaceOnUse">
      <stop offset="0" stop-color="#ff70a6"/>
      <stop offset=".47" stop-color="#ff9bc0"/>
      <stop offset="1" stop-color="#ffcfe0"/>
    </linearGradient>
    <linearGradient id="linear-gradient-22" x1="57.57" y1="253.86" x2="90.21" y2="260.12" gradientTransform="translate(-71.78 648.83) rotate(13.32) scale(1 -1)" gradientUnits="userSpaceOnUse">
      <stop offset="0" stop-color="#ff70a6"/>
      <stop offset=".17" stop-color="#ff78ab"/>
      <stop offset=".44" stop-color="#ff8eb8"/>
      <stop offset=".76" stop-color="#ffb1cd"/>
      <stop offset="1" stop-color="#ffcfe0"/>
    </linearGradient>
    <linearGradient id="linear-gradient-23" x1="58.19" y1="253.45" x2="77.53" y2="224.73" gradientTransform="translate(-71.78 648.83) rotate(13.32) scale(1 -1)" gradientUnits="userSpaceOnUse">
      <stop offset="0" stop-color="#ff70a6"/>
      <stop offset=".29" stop-color="#ff96bd"/>
      <stop offset=".58" stop-color="#ffb5d0"/>
      <stop offset=".83" stop-color="#ffc8dc"/>
      <stop offset="1" stop-color="#ffcfe0"/>
    </linearGradient>
  </defs>
  <path class="cls-12" d="M403.21,411.22v-235.09c0-209.75-328.53-209.75-328.53,0v235.09h328.53Z"/>
  <path class="cls-1" d="M145.08,251.73v128h187.73v-128h-187.73ZM328.54,375.47h-179.2v-119.47h179.2v119.47Z"/>
  <path class="cls-9" d="M93.88,411.22v-239.62c0-94.98,72.87-137.47,145.07-137.47s145.07,42.5,145.07,137.47v239.62h34.13v-239.62C418.14,57.17,328.54,0,238.94,0S59.74,57.17,59.74,171.61v239.62s34.13,0,34.13,0Z"/>
  <path class="cls-1" d="M104.54,411.22v-239.62c0-87.55,67.5-126.81,134.4-126.81s134.4,39.17,134.4,126.81v239.62h4.27v-239.62c0-90.54-69.63-131.07-138.67-131.07S100.28,81.07,100.28,171.61v239.62s4.27,0,4.27,0Z"/>
  <path class="cls-8" d="M444,409.6H33.89c-4.61,0-8.28,4.27-8.28,9.56v58.71h426.67v-58.71c0-5.29-3.67-9.56-8.28-9.56Z"/>
  <path class="cls-11" d="M460.73,469.33H17.16c-4.78,0-8.62,3.07-8.62,6.74v35.93h460.8v-35.93c0-3.67-3.84-6.74-8.62-6.74Z"/>
  <path class="cls-10" d="M43.28,417.37s-18.86,30.04.85,94.63c4.35,0-8.62-48.47-.85-94.63Z"/>
  <path class="cls-10" d="M437.52,409s11.35,45.57,14.76,103c4.44,0,2.3-72.96-14.76-103Z"/>
  <path class="cls-29" d="M370.7,512c5.97-9.3,9.47-43.35-.77-75.09.68,27.9-17.15,64.94-12.8,75.09h13.57Z"/>
  <path class="cls-29" d="M264.54,512c6.49-9.3,8.87-47.96-2.22-79.7.68,27.9-17.15,69.55-12.54,79.7h14.76Z"/>
  <path class="cls-30" d="M212.58,512c4.61-10.15-13.23-37.97-12.54-65.88-11.09,31.74-8.62,56.49-2.13,65.88h14.68Z"/>
  <path class="cls-30" d="M329.48,512c4.61-10.15-18.35-32.68-17.58-60.59-11.09,31.74-3.5,51.29,2.9,60.59h14.68Z"/>
  <path class="cls-30" d="M359.86,512c4.35-10.15-12.29-37.97-11.61-65.88-10.24,31.74-7.94,56.49-1.96,65.88h13.57Z"/>
  <path class="cls-29" d="M338.1,512c7.59-10.5,10.75-40.7-1.88-79.7.77,34.13-19.97,68.27-13.57,79.7h15.45Z"/>
  <path class="cls-29" d="M471.22,512c7.51-10.5,10.67-40.7-1.88-79.7.77,34.13-20.05,68.27-13.57,79.7h15.45Z"/>
  <path class="cls-29" d="M408.08,512c9.05-11.61,12.97-46.93-1.79-92.67.94,40.11-23.89,80.13-15.1,92.67h16.9Z"/>
  <path class="cls-30" d="M272.22,512c-6.49-9.3-8.96-34.05,2.13-65.88-.68,27.9,17.15,55.72,12.54,65.88h-14.68Z"/>
  <path class="cls-30" d="M245.94,512c6.49-9.3,8.53-24.75-2.56-56.49.68,27.9-16.81,46.34-12.12,56.49h14.68Z"/>
  <path class="cls-30" d="M441.95,512c-5.97-9.3,4.01-27.14,14.25-58.97-.68,27.9,3.67,48.81-.6,58.97h-13.65Z"/>
  <path class="cls-29" d="M431.46,512c-5.97-9.3-6.91-49.66,3.33-81.41-.68,27.9,14.59,71.25,10.24,81.41h-13.57Z"/>
  <path class="cls-30" d="M410.12,512c-4.27-10.15,12.29-37.97,11.61-65.88,10.24,31.74,7.94,56.49,1.96,65.88h-13.57Z"/>
  <path class="cls-30" d="M371.98,512c-4.27-10.15,12.29-37.97,11.61-65.88,10.24,31.74,7.94,56.49,1.96,65.88h-13.57Z"/>
  <path class="cls-29" d="M214.28,512c-8.11-10.5-1.28-32.68,12.29-71.68-.85,34.13,11.35,60.16,4.44,71.68h-16.73Z"/>
  <path class="cls-29" d="M289.46,512c-9.73-11.61-14.08-46.93,1.88-92.67-1.02,40.11,25.77,80.13,16.38,92.67h-18.26Z"/>
  <path class="cls-29" d="M89.95,512c5.97-9.3,9.47-43.35-.77-75.09.68,27.9-17.15,64.94-12.8,75.09h13.57Z"/>
  <path class="cls-30" d="M48.65,512c4.61-10.15-18.35-32.68-17.58-60.59-11.09,31.74-3.5,51.29,2.9,60.59h14.68Z"/>
  <path class="cls-30" d="M79.12,512c4.35-10.15-12.29-37.97-11.61-65.88-10.24,31.74-7.94,56.49-1.96,65.88h13.57Z"/>
  <path class="cls-29" d="M57.36,512c7.59-10.5,10.75-40.7-1.88-79.7.77,34.13-19.97,68.27-13.57,79.7h15.45Z"/>
  <path class="cls-29" d="M190.48,512c7.51-10.5,10.67-40.7-1.88-79.7.77,34.13-20.05,68.27-13.57,79.7h15.45Z"/>
  <path class="cls-29" d="M127.24,512c9.05-11.61,12.97-46.93-1.79-92.67.94,40.11-23.89,80.13-15.1,92.67h16.9Z"/>
  <path class="cls-30" d="M161.21,512c-5.97-9.3,4.01-27.14,14.25-58.97-.68,27.9,3.75,48.81-.6,58.97h-13.65Z"/>
  <path class="cls-29" d="M150.71,512c-5.97-9.3-6.91-49.66,3.33-81.41-.68,27.9,14.59,71.25,10.24,81.41h-13.57Z"/>
  <path class="cls-30" d="M129.38,512c-4.27-10.15,12.29-37.97,11.61-65.88,10.24,31.74,7.94,56.49,1.96,65.88h-13.57Z"/>
  <path class="cls-30" d="M91.15,512c-4.27-10.15,12.29-37.97,11.61-65.88,10.24,31.74,7.94,56.49,1.96,65.88h-13.57Z"/>
  <path class="cls-29" d="M8.72,512c-9.73-11.61-14.08-46.93,1.88-92.67-1.02,40.11,25.77,80.13,16.38,92.67H8.72Z"/>
  <path class="cls-7" d="M435.3,398.59c15.02-3.67,43.01,11.43,24.58,23.13-10.07,15.87-25.09-7.25-24.58-23.13Z"/>
  <path class="cls-4" d="M435.13,398.68c7.17-20.99,31.66-33.71,31.66-9.3,7.17,17.66-19.29,18.43-31.66,9.3Z"/>
  <path class="cls-5" d="M435.38,398.59c9.56-12.8,10.07-41.47-9.22-33.45-27.05,5.12-4.61,27.14,9.22,33.45Z"/>
  <path class="cls-3" d="M435.3,398.59c-9.9-12.46-43.69-16.55-32.77,2.82-1.02,19.2,24.15,10.24,32.77-2.82Z"/>
  <path class="cls-2" d="M435.21,398.51c-14.76,4.61-33.79,33.54-10.67,32.94,20.14,8.28,19.71-18.52,10.67-32.94Z"/>
  <path class="cls-28" d="M426.76,400.55c1.37,4.78,6.4,7.51,11.18,6.14s7.51-6.4,6.14-11.18-6.4-7.51-11.18-6.14c-4.78,1.37-7.59,6.31-6.14,11.18Z"/>
  <path class="cls-6" d="M173.49,446.98c-11.78,1.96-27.05,21.16-10.5,23.89,12.03,8.28,15.7-12.71,10.5-23.89Z"/>
  <path class="cls-14" d="M173.58,447.06c-11.43-12.71-32.68-14.34-25.34,2.99.34,14.68,19.37,7.25,25.34-2.99Z"/>
  <path class="cls-15" d="M173.41,447.06c-10.67-6.23-19.71-26.45-3.58-26.54,20.74-4.61,11.52,17.83,3.58,26.54Z"/>
  <path class="cls-16" d="M173.49,447.06c3.24-11.86,26.03-25,24.15-7.94,6.49,13.23-14.08,14.59-24.15,7.94Z"/>
  <path class="cls-17" d="M173.49,446.98c11.86-1.19,34.22,13.57,17.58,20.14-11.78,11.95-19.63-7.17-17.58-20.14Z"/>
  <path class="cls-28" d="M180.15,445.78c.43,3.84-2.22,7.25-6.06,7.77-3.84.43-7.25-2.22-7.77-6.06s2.22-7.25,6.06-7.77c3.84-.43,7.25,2.22,7.77,6.06Z"/>
  <path class="cls-19" d="M331.02,465.24c-11.61,2.9-25.26,23.38-8.45,24.66,12.63,7.17,14.51-13.99,8.45-24.66Z"/>
  <path class="cls-24" d="M331.1,465.24c-12.46-11.69-33.79-11.61-25,5.12,1.54,14.59,19.88,5.55,25-5.12Z"/>
  <path class="cls-25" d="M330.93,465.32c-11.18-5.29-21.85-24.66-5.8-26.11,20.31-6.4,12.97,16.73,5.8,26.11Z"/>
  <path class="cls-26" d="M331.02,465.24c2.22-12.12,23.81-27.05,23.38-9.9,7.59,12.71-12.8,15.7-23.38,9.9Z"/>
  <path class="cls-27" d="M331.02,465.15c11.78-2.22,35.24,10.67,19.2,18.6-10.75,12.89-20.14-5.55-19.2-18.6Z"/>
  <path class="cls-28" d="M337.5,463.45c.77,3.75-1.62,7.42-5.38,8.19-3.75.77-7.42-1.62-8.19-5.38-.77-3.75,1.62-7.42,5.38-8.19,3.75-.77,7.42,1.62,8.19,5.38Z"/>
  <path class="cls-18" d="M43.1,415.66c-15.19-2.9-42.41,13.57-23.47,24.32,10.92,15.36,24.75-8.45,23.47-24.32Z"/>
  <path class="cls-21" d="M43.28,415.74c-8.19-20.57-33.28-32.17-32.09-7.68-6.31,17.92,20.14,17.41,32.09,7.68Z"/>
  <path class="cls-20" d="M43.02,415.66c-10.15-12.29-12.03-40.96,7.59-33.79,27.22,3.75,5.89,26.88-7.59,33.79Z"/>
  <path class="cls-22" d="M43.1,415.66c9.3-12.97,42.84-18.69,32.85,1.19,1.96,19.11-23.55,11.43-32.85-1.19Z"/>
  <path class="cls-23" d="M43.19,415.57c15.02,3.93,35.41,31.83,12.29,32.34-19.71,9.3-20.57-17.49-12.29-32.34Z"/>
  <path class="cls-28" d="M51.72,417.19c-1.11,4.86-5.97,7.85-10.84,6.66-4.86-1.11-7.85-5.97-6.66-10.84,1.11-4.86,5.97-7.85,10.84-6.66,4.86,1.11,7.85,5.97,6.66,10.84Z"/>
  <path class="cls-13" d="M281.27,190.29s-2.22-.51-5.63-1.54c1.37-.43,5.46-.51,5.46-.51l-1.19-2.56s-2.82-.6-7.08-1.71c.68-.34,4.61-.43,4.61-.43l-1.19-2.56s-20.31-.68-33.11-14.76c16.04,5.97,31.23-7.34,31.23-7.34l-1.28-2.3,6.31-9.13-1.28-2.22,4.01-8.87-1.62-2.56,1.45-8.79-1.54-2.47-.34-8.96-2.3-2.05s-.51-4.61-3.75-9.39c0,0-.34,1.19-2.65,4.78,0,0-1.45-7-6.57-11.35,0,0-.85,4.01-4.61,10.84,0,0-1.37-5.46-5.89-8.45,0,0-1.96,15.19-16.9,31.23-10.92,9.39-17.41,18.18-19.63,23.64-4.61-1.11-7.85-1.62-8.45-2.82-5.38-11.86-17.83-7.77-16.73.26-1.37,1.02-3.93,3.24-3.93,4.86l1.19,2.56,14.25-5.29s64.51,56.06,67.41,52.57l-.94-2.22s5.46.17,6.83-1.37l-1.54-2.39s2.99.09,4.27-1.28l-1.11-2.47,3.58-2.3-1.37-2.65Z"/>
  <path class="cls-1" d="M282.46,192.94s-2.22-.51-5.63-1.54c1.88-.68,3.33-1.71,4.18-3.07,0,0-2.82-.6-7.08-1.71,1.45-.68,2.65-1.71,3.33-2.99,0,0-20.31-.68-33.11-14.76,16.04,5.97,28.84-3.41,30.04-9.98,0,0-1.54.68-4.35,1.54,5.12-3.41,8.62-8.19,9.39-12.89,0,0-1.71,1.02-4.69,2.47,4.35-4.18,7-9.3,7.51-13.57,0,0-1.37,1.02-3.84,2.56,3.58-4.61,5.12-9.81,3.67-13.82,0,0-.77.85-2.13,2.22,1.96-4.35,2.13-9.13.26-13.65,0,0-.77,1.19-2.39,3.24.6-4.18-.09-8.45-2.56-12.12,0,0-1.02,2.22-3.41,5.8-.17-4.61-2.05-8.96-5.89-12.37,0,0-1.19,4.52-4.86,11.43-.6-3.5-2.39-6.66-5.63-8.96,0,0-1.96,15.19-16.9,31.23-10.92,9.39-17.41,18.09-19.63,23.64-4.61-1.11-7.85-1.62-8.45-2.82-5.38-11.86-17.83-7.77-16.73.26-1.37,1.02-3.93,3.24-3.93,4.86.17-.09.34-.17.51-.17,2.05-.6,3.93-.26,5.29-.17,1.11,1.62,2.82,3.24,5.12,4.86,5.63,3.93,2.47,29.35,34.99,33.45,4.18.51,7.51.68,10.24.51,8.7,10.33,22.61,12.29,25.51,8.7,0,0-1.54-.6-3.93-1.62,4.61.43,8.45-.43,9.81-2.05,0,0-1.37-.51-3.5-1.45,2.73-.09,4.95-.85,6.14-2.22,0,0-1.02-.34-2.82-1.02,2.56-.85,4.44-2.13,5.46-3.84Z"/>
  <rect class="cls-1" x="187.74" y="285.87" width="102.4" height="8.53"/>
  <rect class="cls-1" x="170.68" y="311.47" width="51.2" height="8.53"/>
  <rect class="cls-1" x="170.68" y="337.07" width="34.13" height="8.53"/>
  <rect class="cls-1" x="221.88" y="337.07" width="85.33" height="8.53"/>
  <rect class="cls-1" x="238.94" y="311.47" width="68.27" height="8.53"/>
</svg>