<?xml version="1.0" encoding="UTF-8"?>
<svg id="Layer_1" data-name="Layer 1" xmlns="http://www.w3.org/2000/svg" xmlns:xlink="http://www.w3.org/1999/xlink" viewBox="0 0 512 512">
  <defs>
    <style>
      .cls-1 {
        fill: url(#linear-gradient);
      }

      .cls-2 {
        fill: #fff;
      }

      .cls-3 {
        fill: #302c3b;
      }

      .cls-4 {
        fill: #e6ebef;
      }
    </style>
    <linearGradient id="linear-gradient" x1="256" y1="309.2" x2="256" y2="514" gradientTransform="translate(0 514) scale(1 -1)" gradientUnits="userSpaceOnUse">
      <stop offset="0" stop-color="#f33"/>
      <stop offset=".41" stop-color="#ee2125"/>
      <stop offset="1" stop-color="#cf000a"/>
    </linearGradient>
  </defs>
  <path class="cls-1" d="M512,12.8c0-7.08-5.72-12.8-12.8-12.8H12.8C5.72,0,0,5.72,0,12.8v192h512V12.8Z"/>
  <path class="cls-4" d="M0,204.8v294.4c0,7,5.72,12.8,12.8,12.8h486.4c7.08,0,12.8-5.8,12.8-12.8V204.8H0Z"/>
  <rect class="cls-2" x="435.2" y="46.93" width="25.6" height="25.6"/>
  <rect class="cls-2" x="392.53" y="46.93" width="25.6" height="25.6"/>
  <rect class="cls-2" x="349.87" y="46.93" width="25.6" height="25.6"/>
  <rect class="cls-2" x="435.2" y="89.6" width="25.6" height="25.6"/>
  <rect class="cls-2" x="392.53" y="89.6" width="25.6" height="25.6"/>
  <rect class="cls-2" x="349.87" y="89.6" width="25.6" height="25.6"/>
  <rect class="cls-2" x="435.2" y="132.27" width="25.6" height="25.6"/>
  <rect class="cls-2" x="392.53" y="132.27" width="25.6" height="25.6"/>
  <rect class="cls-2" x="349.87" y="132.27" width="25.6" height="25.6"/>
  <polygon class="cls-3" points="193.71 256 167.51 256 107.43 291.07 107.43 330.5 148.82 306.01 148.82 424.87 104.53 424.87 104.53 460.8 238.34 460.8 238.34 424.87 193.71 424.87 193.71 256"/>
  <polygon class="cls-3" points="260.44 256 260.44 291.93 359.08 291.93 268.2 460.8 316.25 460.8 407.47 289.37 407.47 256 260.44 256"/>
  <path class="cls-2" d="M73.47,127.06c0,3.67-.51,6.4-1.45,8.11s-2.65,2.73-5.21,3.07c-2.47.34-6.14.09-11.01-.6v14.59c9.05,1.37,16.13,1.37,21.33-.09s8.87-4.27,11.01-8.45,3.24-9.9,3.24-16.9V49.66h-17.92s0,77.4,0,77.4Z"/>
  <path class="cls-2" d="M144.98,105.47c0,4.1-1.11,7.34-3.33,9.81s-5.12,3.67-8.62,3.67c-3.16,0-5.46-.85-7-2.56s-2.22-4.35-2.22-8.02v-35.07h-17.41v34.73c0,8.19,1.79,14.34,5.38,18.43s9.05,6.06,16.38,6.06c4.35,0,8.19-1.02,11.43-3.16,2.47-1.62,4.35-3.93,5.89-6.66v8.96h16.9v-58.37h-17.49v32.17h.09Z"/>
  <rect class="cls-2" x="176.47" y="46.93" width="17.41" height="84.74"/>
  <path class="cls-2" d="M248.41,73.3l-15.36,38.06-15.1-38.06h-18.09l24.06,55.3-1.71,3.84c-1.02,2.22-2.3,4.1-3.84,5.63s-3.5,2.82-5.8,3.84-5.29,1.88-8.96,2.56l4.01,13.31c4.52-.6,8.7-1.71,12.54-3.33,3.84-1.62,7.25-4.01,10.33-7.17s5.8-7.42,8.19-12.8l26.79-61.35h-17.07v.17Z"/>
</svg>