<?xml version="1.0" encoding="UTF-8"?>
<svg id="Layer_1" data-name="Layer 1" xmlns="http://www.w3.org/2000/svg" xmlns:xlink="http://www.w3.org/1999/xlink" viewBox="0 0 273.07 512">
  <defs>
    <style>
      .cls-1 {
        fill: url(#linear-gradient-5);
      }

      .cls-2 {
        fill: url(#linear-gradient-4);
      }

      .cls-3 {
        fill: url(#linear-gradient-3);
      }

      .cls-4 {
        fill: url(#linear-gradient-2);
      }

      .cls-5 {
        fill: #1a1626;
      }

      .cls-6 {
        fill: url(#linear-gradient);
      }
    </style>
    <linearGradient id="linear-gradient" x1="102.4" y1="48.87" x2="170.67" y2="48.87" gradientTransform="translate(0 514) scale(1 -1)" gradientUnits="userSpaceOnUse">
      <stop offset="0" stop-color="#5b666e"/>
      <stop offset=".04" stop-color="#57616a"/>
      <stop offset=".3" stop-color="#424450"/>
      <stop offset=".54" stop-color="#353241"/>
      <stop offset=".7" stop-color="#302c3b"/>
    </linearGradient>
    <linearGradient id="linear-gradient-2" x1="187.73" y1="450" x2="221.87" y2="450" gradientTransform="translate(0 514) scale(1 -1)" gradientUnits="userSpaceOnUse">
      <stop offset=".23" stop-color="#cfd8dd"/>
      <stop offset=".38" stop-color="#c7d1d6"/>
      <stop offset=".61" stop-color="#b1bcc2"/>
      <stop offset=".84" stop-color="#93a1a8"/>
    </linearGradient>
    <linearGradient id="linear-gradient-3" x1="51.2" y1="450" x2="85.33" y2="450" gradientTransform="translate(0 514) scale(1 -1)" gradientUnits="userSpaceOnUse">
      <stop offset=".23" stop-color="#cfd8dd"/>
      <stop offset=".38" stop-color="#c7d1d6"/>
      <stop offset=".61" stop-color="#b1bcc2"/>
      <stop offset=".84" stop-color="#93a1a8"/>
    </linearGradient>
    <linearGradient id="linear-gradient-4" x1="17.07" y1="219.58" x2="256" y2="219.58" gradientTransform="translate(0 514) scale(1 -1)" gradientUnits="userSpaceOnUse">
      <stop offset="0" stop-color="#5b666e"/>
      <stop offset=".23" stop-color="#484d58"/>
      <stop offset=".47" stop-color="#3b3b48"/>
      <stop offset=".72" stop-color="#33303e"/>
      <stop offset="1" stop-color="#302c3b"/>
    </linearGradient>
    <linearGradient id="linear-gradient-5" x1="136.53" y1="343.32" x2="136.53" y2="394.52" gradientTransform="translate(0 514) scale(1 -1)" gradientUnits="userSpaceOnUse">
      <stop offset="0" stop-color="#302c3b"/>
      <stop offset=".28" stop-color="#33303e"/>
      <stop offset=".53" stop-color="#3b3b48"/>
      <stop offset=".77" stop-color="#484d58"/>
      <stop offset="1" stop-color="#5b666e"/>
    </linearGradient>
  </defs>
  <rect class="cls-6" x="102.4" y="418.26" width="68.27" height="93.74"/>
  <path class="cls-4" d="M221.87,128h-34.13V14.57c0-19.42,34.13-19.42,34.13,0v113.43Z"/>
  <path class="cls-3" d="M85.33,128h-34.13V14.57c0-19.42,34.13-19.42,34.13,0v113.43Z"/>
  <path class="cls-2" d="M17.07,162.14v76.81c0,33.28,23.99,51.98,51.2,68.28l8.53,113.06c0,5.07,3.32,6.42,8.53,6.42h102.4c5.23,0,8.53-1.35,8.53-6.42l8.53-113.06c27.21-16.3,51.2-35,51.2-68.28v-76.81H17.07Z"/>
  <path class="cls-1" d="M273.07,153.61c0,9.39-7.68,17.07-17.07,17.07H17.07c-9.39,0-17.07-7.68-17.07-17.07v-17.07c0-9.39,7.68-17.07,17.07-17.07h238.93c9.39,0,17.07,7.68,17.07,17.07v17.07Z"/>
  <path class="cls-5" d="M178.1,324.29h25.42l-1.28,17.07h-24.13c-9.61,0-9.61-17.07,0-17.07Z"/>
  <path class="cls-5" d="M198.94,204.81h-124.78c-7.83,0-7.83,8.53,0,8.53h124.78c7.83,0,7.83-8.53,0-8.53Z"/>
  <path class="cls-5" d="M198.94,230.41h-124.78c-7.83,0-7.83,8.53,0,8.53h124.78c7.83,0,7.83-8.53,0-8.53Z"/>
  <path class="cls-5" d="M198.94,256.02h-124.78c-7.83,0-7.83,8.53,0,8.53h124.78c7.83,0,7.83-8.53,0-8.53Z"/>
  <path class="cls-5" d="M178.1,358.43h22.84l-1.28,17.07h-21.55c-9.61,0-9.61-17.07,0-17.07Z"/>
  <path class="cls-5" d="M178.1,392.56h20.27l-1.3,17.07h-18.97c-9.6,0-9.6-17.07,0-17.07Z"/>
  <path class="cls-5" d="M94.96,341.36h-24.12l-1.3-17.07h25.41c9.6,0,9.6,17.07,0,17.07Z"/>
  <path class="cls-5" d="M94.96,375.49h-21.55l-1.28-17.07h22.83c9.6,0,9.6,17.07,0,17.07Z"/>
  <path class="cls-5" d="M94.96,409.63h-18.96l-1.28-17.07h20.25c9.59,0,9.59,17.07,0,17.07Z"/>
</svg>