<?xml version="1.0" encoding="UTF-8"?>
<svg id="Layer_1" data-name="Layer 1" xmlns="http://www.w3.org/2000/svg" xmlns:xlink="http://www.w3.org/1999/xlink" viewBox="0 0 808.42 512">
  <defs>
    <style>
      .cls-1 {
        fill: #b3c2c6;
      }

      .cls-2 {
        fill: url(#linear-gradient-2);
      }

      .cls-3 {
        fill: url(#linear-gradient);
      }

      .cls-4 {
        fill: #fff;
      }

      .cls-5 {
        fill: #1a1626;
        isolation: isolate;
        opacity: .1;
      }

      .cls-6 {
        fill: #4e5e67;
      }

      .cls-7 {
        fill: #302c3b;
      }

      .cls-8 {
        fill: #e6ebef;
      }
    </style>
    <linearGradient id="linear-gradient" x1="0" y1="258" x2="808.42" y2="258" gradientTransform="translate(0 514) scale(1 -1)" gradientUnits="userSpaceOnUse">
      <stop offset=".23" stop-color="#cfd8dd"/>
      <stop offset=".55" stop-color="#c7d2d6"/>
      <stop offset="1" stop-color="#b3c2c6"/>
    </linearGradient>
    <linearGradient id="linear-gradient-2" x1="0" y1="399.47" x2="808.42" y2="399.47" gradientTransform="translate(0 514) scale(1 -1)" gradientUnits="userSpaceOnUse">
      <stop offset="0" stop-color="#5b666e"/>
      <stop offset=".09" stop-color="#576069"/>
      <stop offset=".68" stop-color="#3b3a48"/>
      <stop offset="1" stop-color="#302c3b"/>
    </linearGradient>
  </defs>
  <path class="cls-3" d="M808.42,478.32c0,18.53-15.16,33.68-33.68,33.68H33.68c-18.53,0-33.68-15.16-33.68-33.68V33.68C0,15.16,15.16,0,33.68,0h741.05c18.53,0,33.68,15.16,33.68,33.68v444.63Z"/>
  <rect class="cls-2" y="53.89" width="808.42" height="121.26"/>
  <rect class="cls-4" x="40.42" y="202.11" width="727.58" height="80.84"/>
  <rect class="cls-8" x="714.11" y="293.05" width="53.89" height="6.74"/>
  <rect class="cls-8" x="646.74" y="293.05" width="53.89" height="6.74"/>
  <rect class="cls-8" x="606.32" y="293.05" width="26.95" height="6.74"/>
  <rect class="cls-8" x="40.42" y="210.88" width="612.65" height="4.22"/>
  <rect class="cls-8" x="40.42" y="222.67" width="612.65" height="4.22"/>
  <rect class="cls-8" x="40.42" y="234.47" width="612.65" height="4.22"/>
  <rect class="cls-8" x="40.42" y="246.26" width="612.65" height="4.22"/>
  <rect class="cls-8" x="40.42" y="258.06" width="612.65" height="4.22"/>
  <rect class="cls-8" x="40.42" y="269.86" width="612.65" height="4.22"/>
  <path class="cls-6" d="M672.58,231.57c1.72-9.77,6.91-15.99,14.98-15.99,7.61,0,11.12,7.01,9.4,16.77-1.72,9.77-6.9,16.01-14.97,16.01-7.61,0-11.13-7.01-9.42-16.79ZM692.78,231.96c1.4-7.87-.7-12.31-5.82-12.31s-8.8,4.45-10.19,12.31c-1.4,7.87.7,12.31,5.82,12.31s8.8-4.45,10.19-12.31Z"/>
  <path class="cls-6" d="M701.16,231.57c1.71-9.77,6.91-15.99,14.97-15.99,7.61,0,11.13,7.01,9.4,16.77s-6.9,16.01-14.96,16.01c-7.63,0-11.14-7.01-9.42-16.79ZM721.35,231.96c1.39-7.87-.71-12.31-5.83-12.31s-8.8,4.45-10.19,12.31c-1.4,7.87.71,12.31,5.83,12.31s8.8-4.45,10.19-12.31Z"/>
  <path class="cls-6" d="M729.71,231.57c1.72-9.77,6.91-15.99,14.98-15.99,7.63,0,11.13,7.01,9.4,16.77-1.71,9.77-6.9,16.01-14.96,16.01-7.63,0-11.14-7.01-9.43-16.79ZM749.9,231.96c1.4-7.87-.71-12.31-5.82-12.31s-8.8,4.45-10.2,12.31c-1.39,7.87.71,12.31,5.83,12.31s8.81-4.45,10.19-12.31Z"/>
  <path class="cls-1" d="M687.14,360.42c-11.6,0-19.05-8.97-21.53-23.03-2.48-14.05,2.56-24.13,13.54-24.13,11.6,0,19.07,8.97,21.54,23.03,2.47,14.05-2.59,24.13-13.55,24.13ZM686.3,354.55c7.37,0,10.39-6.4,8.38-17.7s-7.28-17.73-14.65-17.73-10.39,6.41-8.39,17.73c2.01,11.32,7.29,17.7,14.66,17.7Z"/>
  <path class="cls-1" d="M647.41,314.48l10.4,5.16c.66.34.98.79,1.1,1.52l.65,3.56c.2,1.16-.5,1.66-1.54,1.13l-10.28-5.13,6.58,37.39c.16.94-.3,1.5-1.25,1.5h-3.23c-.85,0-1.35-.42-1.48-1.27l-7.52-42.79c-.18-.92.28-1.47,1.25-1.47h3.6c.66.01,1.12.11,1.72.4h0Z"/>
  <path class="cls-1" d="M639.6,359.6h-26.66c-.85,0-1.36-.42-1.5-1.27l-.53-3.06c-.18-.94.28-1.5,1.24-1.5h18.89l-13.84-11.68c-5.17-4.34-9.38-8.81-10.37-14.39-1.63-9.22,5.05-14.44,11.96-14.44s14.08,3.92,16.28,12.5c.23.97-.27,1.55-1.24,1.55h-3.21c-.85,0-1.29-.42-1.54-1.24-1.31-4.92-5.32-6.98-9.66-6.98s-7.5,2.74-6.58,8.14c.7,3.89,4.34,7.59,8.43,11.1l18.23,15.58c.51.44.78.89.89,1.58l.46,2.6c.13.96-.32,1.51-1.27,1.51Z"/>
  <path class="cls-1" d="M573.01,314.09h24.54c.85,0,1.36.42,1.5,1.24l.47,2.92c.19.94-.3,1.5-1.25,1.5h-18.41l11.86,13.29c.44.5.66.94.78,1.6l.28,1.55c.15.94-.31,1.5-1.28,1.5h-2.26c-5.51,0-9.01,3-8.07,8.45.96,5.42,5.54,8.42,11.06,8.42,4.94,0,8.38-2.43,8.21-6.98,0-.92.39-1.44,1.32-1.44h3.29c.85,0,1.39.42,1.47,1.29.82,8.45-5.82,13-13.64,13s-16.07-4.55-17.73-13.84c-1.29-7.45,3.22-12.26,9.28-13.69l-11.41-12.79c-.46-.5-.69-.94-.78-1.6l-.5-2.95c-.12-.92.35-1.47,1.28-1.47h0Z"/>
  <path class="cls-1" d="M521.27,345.34h4l-1.99-11.4c-.18-.94.28-1.5,1.27-1.5h3.25c.85,0,1.35.42,1.48,1.24l2.05,11.65h16.56l-20.52-29.57c-.65-.94-.26-1.68.88-1.68h3.73c.74,0,1.24.27,1.67.86l20.56,29.66c.36.53.54.97.65,1.6l.57,3.26c.16.92-.3,1.47-1.28,1.47h-21.84l1.28,7.15c.16.94-.31,1.5-1.27,1.5h-3.26c-.85,0-1.35-.42-1.48-1.27l-1.32-7.4h-4.27c-.85,0-1.33-.42-1.47-1.24l-.5-2.9c-.16-.92.31-1.44,1.27-1.44h0Z"/>
  <path class="cls-1" d="M483.1,314.09h22.77c.84,0,1.35.39,1.54,1.19l5.13,20.9c.23.94-.23,1.52-1.21,1.52h-11.83c-5.5,0-9,3-8.06,8.45.96,5.42,5.54,8.42,11.05,8.42,4.96,0,8.39-2.43,8.23-6.98,0-.94.36-1.44,1.32-1.44h3.27c.85,0,1.39.42,1.47,1.29.82,8.45-5.9,13-13.64,13-8.39,0-16.07-4.55-17.74-13.84-1.59-9.28,5.44-14.77,12.91-14.77h7.11l-3-12.07h-18.65c-.84,0-1.35-.42-1.47-1.27l-.5-2.92c-.12-.93.34-1.48,1.29-1.48Z"/>
  <path class="cls-1" d="M462.87,329.86c.57,0,1.13,0,1.67.03l-12.01-14.13c-.78-.89-.4-1.68.79-1.68h4c.73,0,1.24.24,1.7.79l17.23,20.35c2.4,2.45,4.06,5.69,4.72,9.47,1.64,9.03-4,15.74-13.07,15.74s-16.53-5.79-18.15-14.85c-1.59-9.03,4.23-15.74,13.11-15.74,0,0,0,.03,0,.03ZM455.77,345.13c1.05,5.77,5.48,9.53,11.3,9.53s8.95-3.73,7.88-9.53c-1-5.79-5.42-9.53-11.22-9.53s-8.96,3.75-7.96,9.53Z"/>
  <path class="cls-1" d="M443.46,315.31l.5,2.98c.18.97-.28,1.5-1.25,1.5h-20.17l22.2,38.16c.54.94.13,1.66-.97,1.66h-3.62c-.78,0-1.28-.28-1.64-.94l-22.38-38.43c-.31-.55-.46-1-.57-1.63l-.51-3.06c-.18-.92.3-1.47,1.27-1.47h25.67c.85.01,1.33.43,1.48,1.24Z"/>
  <path class="cls-1" d="M366.28,326.49c-1.55-8.7,5.05-13.23,11.87-13.23,7.28,0,14.74,3.76,16.3,12.45.79,4.5-1,7.98-3.95,10.13,4.8,2.05,8.23,5.85,9.11,10.82,1.52,8.53-4.92,13.76-13.35,13.76-9.01,0-16.25-4.31-17.8-12.84-.84-4.86,1.33-8.97,5.2-11.32-3.72-1.94-6.59-5.19-7.38-9.77ZM372.32,326.27c.85,4.78,4.9,7.26,9.35,7.26,4.06,0,7.61-2.48,6.79-7.26-.89-5.08-5.25-7.24-9.38-7.24s-7.67,2.16-6.76,7.24ZM374.39,346.76c.94,5.24,5.43,7.9,10.97,7.9s9.11-2.65,8.15-7.9c-.86-5.27-5.58-7.92-10.94-7.92s-9.07,2.67-8.18,7.92Z"/>
  <path class="cls-1" d="M342.58,313.26c9.43,0,16.63,5.69,18.22,14.74,1.58,9.03-4.23,15.85-13.12,15.85-.59,0-1.17-.03-1.74-.08l11.92,14.13c.78.92.42,1.71-.78,1.71h-4.03c-.73,0-1.23-.24-1.68-.79l-17.23-20.4c-2.37-2.43-4.02-5.58-4.66-9.31-1.58-9.05,4.06-15.85,13.11-15.85ZM354.76,328.56c-1-5.79-5.55-9.53-11.33-9.53s-8.97,3.73-7.96,9.53,5.52,9.53,11.34,9.53,8.95-3.76,7.95-9.53Z"/>
  <path class="cls-1" d="M312.43,360.42c-11.6,0-19.05-8.97-21.53-23.03-2.48-14.05,2.56-24.13,13.54-24.13,11.6,0,19.07,8.97,21.54,23.03,2.47,14.05-2.59,24.13-13.55,24.13ZM311.59,354.55c7.36,0,10.37-6.4,8.38-17.7-2.01-11.32-7.28-17.73-14.66-17.73s-10.39,6.43-8.38,17.73,7.28,17.7,14.66,17.7Z"/>
  <path class="cls-1" d="M272.69,314.48l10.4,5.16c.66.34.98.79,1.12,1.52l.63,3.56c.2,1.16-.5,1.66-1.54,1.13l-10.28-5.13,6.59,37.39c.15.94-.31,1.5-1.27,1.5h-3.23c-.85,0-1.35-.42-1.47-1.27l-7.53-42.79c-.18-.92.28-1.47,1.27-1.47h3.58c.66.01,1.12.11,1.72.4h0Z"/>
  <path class="cls-1" d="M248.63,359.6h-26.66c-.85,0-1.35-.42-1.48-1.27l-.53-3.06c-.19-.94.28-1.5,1.24-1.5h18.89l-13.85-11.68c-5.17-4.34-9.38-8.81-10.37-14.39-1.63-9.22,5.07-14.44,11.98-14.44s14.07,3.92,16.25,12.5c.26.97-.26,1.55-1.21,1.55h-3.22c-.84,0-1.28-.42-1.52-1.24-1.32-4.92-5.32-6.98-9.67-6.98s-7.49,2.74-6.56,8.14c.7,3.89,4.33,7.59,8.43,11.1l18.22,15.58c.53.44.79.89.89,1.58l.47,2.6c.13.96-.34,1.51-1.28,1.51Z"/>
  <path class="cls-1" d="M182.06,314.09h24.54c.85,0,1.35.42,1.48,1.24l.49,2.92c.15.94-.3,1.5-1.25,1.5h-18.41l11.86,13.29c.44.5.66.94.77,1.6l.28,1.55c.15.94-.31,1.5-1.29,1.5h-2.25c-5.51,0-9.01,3-8.07,8.45.94,5.42,5.52,8.42,11.05,8.42,4.96,0,8.37-2.43,8.22-6.98,0-.92.39-1.44,1.32-1.44h3.27c.86,0,1.39.42,1.47,1.29.82,8.45-5.82,13-13.62,13-8.21,0-16.07-4.55-17.73-13.84-1.29-7.45,3.22-12.26,9.28-13.69l-11.43-12.79c-.46-.5-.67-.94-.78-1.6l-.49-2.95c-.12-.92.34-1.47,1.29-1.47h0Z"/>
  <path class="cls-1" d="M146.55,345.34h4l-1.98-11.4c-.18-.94.28-1.5,1.25-1.5h3.26c.85,0,1.33.42,1.47,1.24l2.06,11.65h16.56l-20.52-29.57c-.65-.94-.26-1.68.89-1.68h3.72c.74,0,1.25.27,1.67.86l20.56,29.66c.36.53.55.97.66,1.6l.55,3.26c.16.92-.3,1.47-1.28,1.47h-21.83l1.27,7.15c.16.94-.3,1.5-1.27,1.5h-3.26c-.85,0-1.35-.42-1.5-1.27l-1.31-7.4h-4.26c-.85,0-1.35-.42-1.47-1.24l-.51-2.9c-.16-.92.31-1.44,1.25-1.44h0Z"/>
  <path class="cls-1" d="M108.41,314.09h22.77c.82,0,1.33.39,1.52,1.19l5.13,20.9c.24.94-.23,1.52-1.21,1.52h-11.82c-5.51,0-9.01,3-8.07,8.45.96,5.42,5.55,8.42,11.05,8.42,4.96,0,8.39-2.43,8.25-6.98,0-.94.36-1.44,1.29-1.44h3.3c.85,0,1.39.42,1.46,1.29.82,8.45-5.9,13-13.64,13-8.38,0-16.07-4.55-17.74-13.84-1.59-9.28,5.44-14.77,12.91-14.77h7.11l-2.99-12.07h-18.59c-.85,0-1.37-.42-1.5-1.27l-.51-2.94c-.16-.92.32-1.47,1.28-1.47Z"/>
  <path class="cls-1" d="M671.31,456.11c-6.52,0-12.96-3.15-14.48-11.82l-4.66-26.64c-.15-.82.27-1.29,1.08-1.29h2.76c.74,0,1.16.36,1.29,1.08l4.63,26.48c.88,5.03,4.5,7.15,8.66,7.15s6.53-2.13,6.2-6.29c-.05-.82.28-1.29,1.09-1.29h2.79c.75,0,1.19.36,1.28,1.13.84,7.67-4.55,11.49-10.64,11.49Z"/>
  <path class="cls-1" d="M632.75,456.11c-11.74,0-21.56-8.21-23.57-19.44-1.97-11.24,5.56-20.98,16.87-20.98s21.56,8.42,23.51,19.66c2.02,11.24-5.54,20.76-16.82,20.76ZM632.01,451.09c8.66,0,13.9-6.63,12.4-15.18-1.47-8.56-8.77-15.18-17.52-15.18s-14.03,6.84-12.57,15.4c1.54,8.54,8.88,14.97,17.69,14.97Z"/>
  <path class="cls-1" d="M577.29,416.36h3.34c.63,0,1.05.22,1.44.71l12.4,15.66,6.86-15.44c.27-.63.7-.92,1.39-.92h2.91c.9,0,1.27.58.89,1.4l-8.92,19.71,2.92,16.65c.15.82-.26,1.29-1.08,1.29h-2.76c-.73,0-1.15-.36-1.28-1.08l-2.95-16.82-15.86-19.71c-.63-.78-.31-1.47.7-1.47Z"/>
  <path class="cls-1" d="M542.8,416.36h13c.73,0,1.15.36,1.28,1.08l6.45,36.69c.15.82-.27,1.29-1.08,1.29h-2.76c-.74,0-1.16-.36-1.29-1.08l-2.41-13.72h-8.92c-7.19,0-13.14-4.77-14.32-11.57-1.2-6.68,3.65-12.69,10.05-12.69ZM537.82,428.5c.73,4.03,4.35,7.29,8.39,7.29h8.93l-2.56-14.55h-8.95c-3.89,0-6.56,3.21-5.82,7.26Z"/>
  <path class="cls-1" d="M524.6,417.44l6.45,36.69c.15.82-.27,1.29-1.08,1.29h-2.76c-.74,0-1.16-.36-1.29-1.08l-6.44-36.69c-.15-.82.26-1.29,1.08-1.29h2.76c.73,0,1.15.38,1.28,1.08Z"/>
  <path class="cls-1" d="M486.28,416.36h3.3c.63,0,1.06.22,1.44.71l10.55,13.53,5.91-13.34c.28-.61.71-.89,1.39-.89h2.9c.9,0,1.28.58.9,1.4l-7.67,17.23,14.78,18.97c.63.79.3,1.44-.7,1.44h-3.31c-.62,0-1.05-.22-1.43-.71l-11.52-14.79-6.49,14.61c-.27.61-.69.89-1.37.89h-2.9c-.9,0-1.27-.58-.9-1.4l8.23-18.5-13.81-17.7c-.62-.78-.31-1.44.7-1.44Z"/>
  <path class="cls-1" d="M457.53,416.36h19.93c.73,0,1.15.36,1.27,1.08l6.44,36.66c.12.79-.28,1.32-1.06,1.32h-20.21c-.73,0-1.13-.36-1.25-1.08l-.47-2.55c-.12-.82.28-1.29,1.06-1.29h16.14l-2.17-12.37h-14.67c-.71,0-1.13-.34-1.25-1.08l-.47-2.48c-.12-.82.3-1.29,1.08-1.29h14.46l-2.12-12.01h-16.03c-.73,0-1.17-.31-1.31-1.08l-.42-2.52c-.12-.79.28-1.32,1.06-1.32Z"/>
  <path class="cls-1" d="M435.05,450.51h15.44l-5.78-32.85c-.15-.82.26-1.29,1.08-1.29h2.76c.74,0,1.15.36,1.28,1.08l6.45,36.69c.15.82-.26,1.29-1.08,1.29h-19.48c-.74,0-1.16-.36-1.29-1.08l-.44-2.55c-.15-.82.26-1.29,1.06-1.29Z"/>
  <path class="cls-1" d="M418.21,456.11c-7.06,0-13.45-3.42-14.63-10.27-1.35-7.48,5.19-10.21,10.63-12.42,4.02-1.63,7.26-3.23,6.56-7.15-.62-3.5-4-5.55-7.92-5.55s-6.41,1.85-6.31,5.34c0,.82-.32,1.27-1.12,1.27h-2.82c-.73,0-1.19-.39-1.25-1.13-.62-6.9,5.16-10.5,10.78-10.5,6.47,0,12.57,3.21,13.78,10.02,1.39,7.81-4.9,10.42-10.35,12.58-4.02,1.58-7.56,3.23-6.87,6.98.63,3.56,4.2,5.82,8.7,5.82s7.69-2.05,7.55-5.97c-.01-.82.31-1.27,1.12-1.27h2.8c.74,0,1.2.39,1.27,1.13.71,7.29-5.3,11.12-11.92,11.12Z"/>
  <path class="cls-1" d="M268.92,452.19c-8.03,0-13.16-6.21-14.87-15.9-1.71-9.71,1.78-16.68,9.34-16.68,8.02,0,13.18,6.21,14.87,15.9,1.71,9.7-1.77,16.68-9.34,16.68ZM268.31,448.13c5.09,0,7.18-4.42,5.79-12.23-1.37-7.81-5.03-12.23-10.11-12.23s-7.15,4.42-5.79,12.23c1.39,7.81,5.03,12.23,10.11,12.23Z"/>
  <path class="cls-1" d="M240.55,452.19c-8.02,0-13.16-6.21-14.86-15.9-1.71-9.71,1.77-16.68,9.34-16.68,8.02,0,13.16,6.21,14.87,15.9,1.71,9.7-1.78,16.68-9.35,16.68ZM239.95,448.13c5.09,0,7.17-4.42,5.79-12.23s-5.03-12.23-10.11-12.23-7.17,4.42-5.79,12.23,5.03,12.23,10.11,12.23Z"/>
  <path class="cls-1" d="M222.71,455.65l-24.16-39.15c-.28-.47-.11-.82.44-.82h1.02c.36,0,.62.13.82.44l24.16,39.15c.28.47.09.82-.44.82h-1.02c-.36.01-.62-.12-.82-.44h0Z"/>
  <path class="cls-1" d="M188.47,452.19c-8.03,0-13.16-6.21-14.87-15.9-1.71-9.71,1.78-16.68,9.34-16.68,8.03,0,13.18,6.21,14.87,15.9,1.72,9.7-1.77,16.68-9.34,16.68ZM187.86,448.13c5.09,0,7.17-4.42,5.79-12.23s-5.03-12.23-10.11-12.23-7.17,4.42-5.79,12.23,5.03,12.23,10.11,12.23Z"/>
  <path class="cls-1" d="M160.09,452.19c-8.02,0-13.16-6.21-14.87-15.9-1.7-9.71,1.78-16.68,9.35-16.68,8.02,0,13.16,6.21,14.87,15.9,1.71,9.7-1.78,16.68-9.35,16.68ZM159.5,448.13c5.09,0,7.15-4.42,5.79-12.23-1.39-7.81-5.03-12.23-10.11-12.23s-7.18,4.42-5.81,12.23,5.04,12.23,10.12,12.23Z"/>
  <path class="cls-5" d="M774.74,0h-6.74c18.53,0,33.68,15.16,33.68,33.68v437.89c0,18.53-15.16,33.68-33.68,33.68H40.42c-18.53,0-33.68-15.16-33.68-33.68V33.68C6.74,15.16,21.89,0,40.42,0h-6.74C15.16,0,0,15.16,0,33.68v444.63c0,18.53,15.16,33.68,33.68,33.68h741.05c18.53,0,33.68-15.16,33.68-33.68V33.68c0-18.53-15.16-33.68-33.68-33.68Z"/>
  <path class="cls-7" d="M239.51,233.11c-8.18,1-36.86,8.72-37.71,9.78-1.25.77-23.79,38.68-63,40.11-22.72,0-7.96-24,57.03-42.19,7.02-9.39,13.86-25.71,14.3-28.13,1.97-2.03,8.06-1.09,8.7.89.15.38-12.88,23.79-13.18,24.27,3.58-.65,17.41-5.44,37.27-7.4,2.52-.27,2.16.2,3.64.57-3.81.73-4.74,1.83-7.05,2.1ZM137.92,280.02c17.76.77,41.85-17.27,54.31-34.45.08-.04.08-.07,0-.07-53.46,15.94-64.2,34.52-54.31,34.52ZM252.6,206.28c-1.5,3.49-31.39,2.56-51.4,6.02-1.4.24-24.98,4.68-26.23,5.3-1.01.51-3.06.4-4.16-.22-1.13-.65-.88-2.48.27-2.57,1.25-.11,46.04-11.64,78.59-10.23,2.61.61,2.87,1.66,2.94,1.7Z"/>
  <path class="cls-7" d="M242.67,247.73c-2.55.58-5.15.42-7.17-.26-9.7-3.21,1.72-14.03,8.37-17.31.69-.34,1.41-.57,2.18-.66.77-.11,4.53.82,4.53.82.53-.46,4.06-.05,6.27,1.78,2.33-.32,10.77-1.23,17.77-1.13,5.79.07,7.83,2.49,2.61,2.74-2.16.11-6.59-.27-17.29,1.68-3.53,8.27-13.53,12.75-17.27,12.34ZM248.51,232.18c-3.3,1.99-9.27,8.23-9.96,11.56-.39,2.13,3.1.89,5.08.04,6.37-2.79,9.66-8.06,9.55-10.01-.11-1.67-3.42-.85-4.68-1.59Z"/>
  <path class="cls-7" d="M294.14,237.77c-.85.74-10.91,5.47-13.38,5.83-.85.12-1.75.03-2.65-.26-2.16-.05-6.21-.51-6.41-2.4-.15-1.48,6.32-9.74,9.7-10.62,3.14-.81,6.8,1.7,4.18,2.65-.82.66-3.1,3.22-5.73,6.76,1.15.66,15.93-6.99,17.14-7.36,0-.63.23-.98.63-1.58,1.51-.46,3.76-.51,5.7,0,1.68,1,1.87,2.21-4.49,13.62,0,0,23.92-8.84,29.93-10.82,1.6-.55,7.33-2.3,8.99-1.82,0,0-40.57,15.18-45.12,19.86-4.15,6.1-27.73,31.72-46.5,31.22-13.96-.39,9.07-22.1,41.42-34.86,1.33-1.75,2.53-3.41,3.65-5.03,1.15-1.6,2.13-3.36,2.95-5.23ZM248.44,276.52c-1.27,1.9-.81,3.21-.28,3.34,7.29,1.79,32.55-22.53,35.14-26.85-2.55,1.27-26.48,11.64-34.86,23.51Z"/>
  <path class="cls-7" d="M340.98,239.02c16.01-7.15,71.26-19.09,75.17-30.28-9.51-5.3-44.92-1.59-57.14,3.26-1.62,1.29-20.16,23.58-30.57,51.28-2.01.58-3.95,1.51-7.45.82,3.83-15.51,27.63-53.63,32.39-56.55,4-2.38,66.32-12.52,68.49,2.53,1.4,11.37-63.84,26.8-76.56,30.59l-.13.15v-.15c-1.23-.27-4.19.22-4.19-1.66Z"/>
  <path class="cls-7" d="M411.78,243.56c1.27.74,26.66-7.36,27.7-6.76,0,.55-.92.98-1.46,1.25-2.92,1.56-25.98,10.21-28.95,10.21s-4.58-.31-5.86-1.35c-1.15-2.8,7.96-13.11,10.44-15.27,1.89-.7,3.85-.36,3.85-.36,4.39,3.62-2.95,6.01-5.73,11.3-.24.5-.24.82,0,.97ZM421.24,222.73c1.24-.3,3.46.4,2.94,1.82-.42,1.12-5.19,4.26-6.78,3.76-2.64-.51-.57-4.61,3.84-5.58Z"/>
  <path class="cls-7" d="M461.74,250.7c-2.55,2.17-13.89-8.1-15.14-8.85-22.62,11.51-21.06,12.15-22.69,11.21-3.02-1.77,16.26-12.37,19.43-14.04-4.99-6.55-7.57-8.15-7.57-10.11-.34-1.17,2.48-2.41,3.69-1.28v-.07c2.17,2.1,4.81,3.85,9.7,8.93,2.28-1.25,15.74-8.19,18.53-8.19.85.04,1.56.3,2.18.74.62.46.65,1.02.07,1.71-1.28.54-15.63,6.82-17.76,8.34,0,0,7.36,7.76,9.05,9.08,0-.01,1.68,1.54.51,2.52Z"/>
  <path class="cls-7" d="M473.36,246.96c-1.68-.42-3.58-1.51-3.77-3.02-.69-6.05,16.26-15.63,22.74-15.63,2.65,0,7.21.26,7.21,2.76-.47,1.06-12.95,8.87-21.23,8.25-2.2,1.29-4.47,4.22-1.99,5.51,4.92.3,16.21-2.91,20.88-4.31,11.51-3.46,16.88-5.43,16.53-5.32,2.02-.59,4.47-.84,2.78.36-5,3.56-33.01,13.86-43.14,11.4ZM479.51,238.13c3.1,0,14.31-6.22,14.31-6.93-4.16.9-8.29,2.44-14.31,6.93Z"/>
  <path class="cls-7" d="M538.77,204.72s-21.06,30.14-26.22,42.11c-.74,1.71-.38,3.14-2.1,3.14-.9,0-3.41-1.47-3.61-2.17,1.4-11.26,23.05-38.76,24.5-44.95.38-.74,4.3-1.37,5.78-.43.73.54,1.98,1.54,1.66,2.3Z"/>
  <path class="cls-7" d="M563.13,237.18c1.33.5,1.81.92,1.43,1.31-.84.84-14.55,3.52-15.7,3.52-5.11,6.14-24.63,13.93-29.17,10.91-.59-.43-.92-.96-.92-1.62,0-.94.74-1.89,2.18-2.83,5.71-3.71,14.16-5.62,21.61-7.71,2.45-.69-10.16.43-12.72.67-1.9.19-4.55.03-5.61-1.46-.24-.35-.35-.67-.35-.97,0-1.74,8.08-6.84,20.12-8.93.97,0,2.12.28,3.11.53,1.9,2.06-12.22,4.26-17.39,7.96,1.25-.08,15.93-1.83,18.26.82.12-.05,11.22-2.21,15.14-2.21ZM524.01,250.56c-.26.26-.12.36.38.34,2.41-.12,12.45-3,17.14-7.1-3.96.78-14.44,3.81-17.52,6.76Z"/>
</svg>