<?xml version="1.0" encoding="UTF-8"?>
<svg id="Layer_1" data-name="Layer 1" xmlns="http://www.w3.org/2000/svg" xmlns:xlink="http://www.w3.org/1999/xlink" viewBox="0 0 512 512">
  <defs>
    <style>
      .cls-1 {
        fill: url(#linear-gradient-3);
      }

      .cls-2 {
        fill: url(#linear-gradient-2);
      }

      .cls-3 {
        fill: url(#linear-gradient);
      }
    </style>
    <linearGradient id="linear-gradient" x1="-111.06" y1="945.3" x2="84.93" y2="1141.29" gradientTransform="translate(-355.07 885.54) rotate(45) scale(1 -1)" gradientUnits="userSpaceOnUse">
      <stop offset="0" stop-color="#707b7d"/>
      <stop offset=".1" stop-color="#939c9f"/>
      <stop offset=".2" stop-color="#b2b9bc"/>
      <stop offset=".29" stop-color="#c5cbce"/>
      <stop offset=".36" stop-color="#ccd1d4"/>
      <stop offset="1" stop-color="#707b7d"/>
    </linearGradient>
    <linearGradient id="linear-gradient-2" x1="-123.45" y1="711.2" x2="97.32" y2="711.2" gradientTransform="translate(-355.07 885.54) rotate(45) scale(1 -1)" gradientUnits="userSpaceOnUse">
      <stop offset="0" stop-color="#707b7d"/>
      <stop offset=".1" stop-color="#939c9f"/>
      <stop offset=".2" stop-color="#b2b9bc"/>
      <stop offset=".29" stop-color="#c5cbce"/>
      <stop offset=".36" stop-color="#ccd1d4"/>
      <stop offset="1" stop-color="#707b7d"/>
    </linearGradient>
    <linearGradient id="linear-gradient-3" x1="-44.6" y1="877.24" x2="18.49" y2="877.24" gradientTransform="translate(-355.07 885.54) rotate(45) scale(1 -1)" gradientUnits="userSpaceOnUse">
      <stop offset="0" stop-color="#707b7d"/>
      <stop offset=".08" stop-color="#939c9f"/>
      <stop offset=".17" stop-color="#b2b9bc"/>
      <stop offset=".24" stop-color="#c5cbce"/>
      <stop offset=".29" stop-color="#ccd1d4"/>
      <stop offset=".75" stop-color="#707b7d"/>
    </linearGradient>
  </defs>
  <path class="cls-3" d="M269.99,242.03c-38.8-38.8-52.67-103.46-4.16-151.98l59.04-59.04c48.53-48.53,113.17-34.65,151.98,4.14,38.78,38.77,52.66,103.44,4.13,151.97l-59.04,59.04c-48.52,48.52-113.17,34.64-151.95-4.13ZM437.81,74.2c-14.49-14.49-46.39-31.67-73.91-4.14l-59.03,59.03c-27.54,27.54-10.35,59.42,4.14,73.91,14.49,14.49,46.38,31.66,73.9,4.13l59.03-59.05c27.54-27.51,10.36-59.38-4.13-73.89Z"/>
  <path class="cls-2" d="M35.17,476.85c-38.8-38.79-52.69-103.44-4.16-151.98l59.02-59.02c48.54-48.54,113.19-34.65,151.98,4.14,38.78,38.77,52.67,103.43,4.13,151.97l-59.02,59.02c-48.54,48.54-113.18,34.64-151.95-4.13ZM202.98,309.04c-14.49-14.49-46.39-31.68-73.91-4.15l-59.02,59.02c-27.54,27.54-10.35,59.41,4.15,73.91,14.49,14.49,46.37,31.67,73.89,4.14l59.02-59.02c27.54-27.54,10.37-59.4-4.13-73.9Z"/>
  <path class="cls-1" d="M166.23,345.78c-12.34-12.34-13.56-31.05-2.78-41.82l140.5-140.5c10.79-10.79,29.48-9.54,41.81,2.78,12.3,12.31,13.58,31.04,2.79,41.82l-140.5,140.52c-10.78,10.76-29.51,9.52-41.82-2.8Z"/>
</svg>