<?xml version="1.0" encoding="UTF-8"?>
<svg id="Layer_1" data-name="Layer 1" xmlns="http://www.w3.org/2000/svg" viewBox="0 0 392.54 512">
  <defs>
    <style>
      .cls-1 {
        fill: #b3c2c6;
      }

      .cls-2 {
        fill: #cfd8dd;
      }

      .cls-3 {
        fill: #af0505;
      }

      .cls-4 {
        fill: #98a7ad;
      }

      .cls-5 {
        fill: #e5eaee;
      }

      .cls-6 {
        fill: #c11413;
      }

      .cls-7 {
        fill: #e81c27;
      }

      .cls-8 {
        fill: #f36c60;
      }
    </style>
  </defs>
  <path class="cls-3" d="M196.29,67.15c-37.09,0-217.25,42.47-81.2,334.07l8.12-14.52s-7.28-64.44-19.74-172.16c-5.28-56.02,35.4-107.1,92.82-107.1s98.04,51.07,92.76,107.1c-12.45,107.72-19.73,172.16-19.73,172.16l8.12,14.52c109.91-253.07,28.67-334.07-81.13-334.07Z"/>
  <path class="cls-4" d="M123.21,386.71l-8.12,14.52-92.33,8.23,97.87,95.05,3.8-4.57,7.19-24.39c-4.45-48.02-8.41-88.84-8.41-88.84Z"/>
  <path class="cls-4" d="M277.45,401.23l-8.12-14.52s-3.96,40.81-8.4,88.83l7.19,24.39,3.8,4.57,97.87-95.05-92.34-8.23Z"/>
  <path class="cls-8" d="M196.29,0C76.38,0-9.95,103.8.92,219.17c13.71,118.48,18.57,159.28,21.84,190.29h0l8.32-.74c-3.24-30.78-8.06-71.33-21.84-190.43C-1.19,107.71,81.57,8.39,196.29,8.39s197.43,99.32,187.01,209.89c-13.78,119.1-18.6,159.65-21.85,190.43l8.33.74h0c3.28-31.01,8.12-71.82,21.84-190.29C402.49,103.8,316.23,0,196.29,0Z"/>
  <path class="cls-5" d="M36.61,512l84.02-7.49,3.8-4.57c-4.93-53.35-6.6-72.75-9.34-98.71l-92.33,8.23c2.76,26.24,4.4,45.47,9.33,98.76l4.52,3.78Z"/>
  <path class="cls-5" d="M355.92,512l-84.01-7.49-3.8-4.57c4.94-53.35,6.6-72.75,9.34-98.71l92.33,8.23c-2.76,26.24-4.41,45.47-9.33,98.76l-4.53,3.78Z"/>
  <polygon class="cls-1" points="32.09 508.22 124.43 499.93 120.63 504.51 36.61 512 32.09 508.22"/>
  <polygon class="cls-1" points="268.11 499.93 271.91 504.51 355.92 512 360.45 508.22 268.11 499.93"/>
  <path class="cls-6" d="M196.29,82.55c-68.72,0-117.79,60.95-111.44,128.26,13.85,119.71,18.67,160.47,21.91,191.16l8.33-.75c-3.28-31.1-8.08-71.6-21.91-191.28-5.87-62.24,39.31-118.99,103.12-118.99s108.95,56.75,103.07,118.99c-13.84,119.68-18.65,160.19-21.92,191.28l8.33.75c3.23-30.69,8.06-71.45,21.91-191.16,6.35-67.33-42.65-128.26-111.39-128.26Z"/>
  <polygon class="cls-2" points="356.29 507.82 365.48 409.07 281.47 401.6 272.27 500.33 356.29 507.82"/>
  <path class="cls-7" d="M335.83,64.67C299.49,25.68,249.92,4.2,196.27,4.2S93.04,25.68,56.7,64.67C18.53,105.63-.31,161.48,5.08,218.68l21.96,190.4,84.02-7.48-22.05-191.26c-3.15-33.37,7.8-66.19,30.02-90.04,20.17-21.64,47.6-33.55,77.24-33.55s57.07,11.91,77.24,33.55c22.22,23.84,33.17,56.67,30.02,90.04l-22.06,191.26,84.02,7.48,21.97-190.4c5.38-57.2-13.47-113.05-51.64-154Z"/>
  <polygon class="cls-2" points="36.24 507.82 27.04 409.07 111.06 401.6 120.26 500.33 36.24 507.82"/>
</svg>