<?xml version="1.0" encoding="UTF-8"?>
<svg id="Layer_1" data-name="Layer 1" xmlns="http://www.w3.org/2000/svg" xmlns:xlink="http://www.w3.org/1999/xlink" viewBox="0 0 264.83 512">
  <defs>
    <style>
      .cls-1 {
        fill: #b3c2c6;
      }

      .cls-2 {
        fill: #cfd8dd;
      }

      .cls-3 {
        fill: #6e8189;
      }

      .cls-4 {
        fill: url(#linear-gradient-2);
      }

      .cls-5 {
        fill: #57cdff;
      }

      .cls-6 {
        fill: #1a1626;
      }

      .cls-7 {
        fill: url(#radial-gradient);
      }

      .cls-8 {
        fill: url(#linear-gradient);
      }

      .cls-9, .cls-10 {
        fill: #fff;
      }

      .cls-11 {
        fill: #ffe600;
      }

      .cls-12 {
        fill: url(#linear-gradient-3);
        opacity: .35;
      }

      .cls-12, .cls-10 {
        isolation: isolate;
      }

      .cls-13 {
        fill: #b7ff3b;
      }

      .cls-14 {
        fill: #ff38f6;
      }

      .cls-10 {
        opacity: .2;
      }
    </style>
    <linearGradient id="linear-gradient" x1="132.41" y1="2" x2="132.41" y2="514" gradientTransform="translate(0 514) scale(1 -1)" gradientUnits="userSpaceOnUse">
      <stop offset="0" stop-color="#58636b"/>
      <stop offset=".02" stop-color="#525964"/>
      <stop offset=".07" stop-color="#494858"/>
      <stop offset=".13" stop-color="#433e51"/>
      <stop offset=".2" stop-color="#413b4f"/>
      <stop offset=".9" stop-color="#413b4f"/>
      <stop offset=".94" stop-color="#433e51"/>
      <stop offset=".96" stop-color="#494858"/>
      <stop offset=".99" stop-color="#525964"/>
      <stop offset="1" stop-color="#58636b"/>
    </linearGradient>
    <radialGradient id="radial-gradient" cx="136.83" cy="-334.6" fx="136.83" fy="-334.6" r="937.75" gradientTransform="translate(0 281.9) scale(1 -.68)" gradientUnits="userSpaceOnUse">
      <stop offset=".11" stop-color="#ffea80"/>
      <stop offset=".38" stop-color="#190bb0"/>
      <stop offset=".4" stop-color="#180aa2"/>
      <stop offset=".49" stop-color="#150674"/>
      <stop offset=".57" stop-color="#120450"/>
      <stop offset=".65" stop-color="#100236"/>
      <stop offset=".72" stop-color="#0f0026"/>
      <stop offset=".77" stop-color="#0f0021"/>
    </radialGradient>
    <linearGradient id="linear-gradient-2" x1="-125.76" y1="-.18" x2="390.59" y2="516.18" gradientTransform="translate(0 514) scale(1 -1)" gradientUnits="userSpaceOnUse">
      <stop offset=".2" stop-color="#ff00b7" stop-opacity="0"/>
      <stop offset=".47" stop-color="#57dcff" stop-opacity=".5"/>
      <stop offset=".52" stop-color="#57dcff" stop-opacity=".5"/>
      <stop offset=".8" stop-color="#ff00b7" stop-opacity="0"/>
    </linearGradient>
    <linearGradient id="linear-gradient-3" x1="-360.18" y1="-248.83" x2="-157.81" y2="-248.83" gradientTransform="translate(139.91 -142.54) rotate(-45) scale(1 -1)" gradientUnits="userSpaceOnUse">
      <stop offset=".25" stop-color="#02005e" stop-opacity="0"/>
      <stop offset=".5" stop-color="#02005e"/>
      <stop offset="1" stop-color="#02005e" stop-opacity="0"/>
    </linearGradient>
  </defs>
  <path class="cls-8" d="M264.83,485.52c0,14.57-11.92,26.48-26.48,26.48H26.48c-14.57,0-26.48-11.92-26.48-26.48V26.48C0,11.92,11.92,0,26.48,0h211.86c14.57,0,26.48,11.92,26.48,26.48v459.03Z"/>
  <path class="cls-6" d="M155.1,17.66h-45.46c-5.03,0-5.03-8.83,0-8.83h45.46c5.03,0,5.03,8.83,0,8.83Z"/>
  <path class="cls-3" d="M46.79,13.24c0,8.83-13.24,8.83-13.24,0s13.24-8.83,13.24,0Z"/>
  <path class="cls-7" d="M238.34,26.48H26.48c-9.71,0-17.66,7.94-17.66,17.66v423.72c0,9.71,7.94,17.66,17.66,17.66h211.86c9.71,0,17.66-7.94,17.66-17.66V44.14c0-9.71-7.94-17.66-17.66-17.66Z"/>
  <path class="cls-4" d="M238.34,26.48H26.48c-9.71,0-17.66,7.94-17.66,17.66v423.72c0,9.71,7.94,17.66,17.66,17.66h211.86c9.71,0,17.66-7.94,17.66-17.66V44.14c0-9.71-7.94-17.66-17.66-17.66Z"/>
  <path class="cls-12" d="M238.61,236.23c-9.09-8.74-29.93,10.95-35.66-3.44-10.59-26.84-24.98,14.04-39.37-14.04-8.12-15.89-18.98,13.95-35.31-1.32-9.09-8.56,37.87-28.42-8.56-23.3-15.45,1.68-10.42-12.71-19.24-17.13-10.77-5.38-9.18-30.63-20.04-20.48-11.74,11.03-19.6-39.64-26.48-15.98-7.68,26.13-22.86-10.95-31.69-7.68-26.75,9.98,21.36-34.07-2.56-36.63-4.5-.53-7.94-.71-10.77-.88v94.46c5.74,9.09,12.36,14.83,22.69,6.8,21.19-16.6-20.74,70.8,5.03,60.56,11.74-4.68,60.2-12.09,56.06,3.35-15.45,56.94,21.1,9.27,42.02,8.21,36.55-1.85-28.6,71.5,9.53,50.67,12.09-6.62,31.69-39.02,39.55-32.93,28.95,22.33,27.37,46.34,25.95,57.82-2.91,24.19,46.43-6.18,46.43-6.18v-93.93c-6.8-.88-12.8-3.35-17.57-7.94Z"/>
  <path class="cls-6" d="M26.48,485.52h211.86c9.71,0,17.66-7.94,17.66-17.66v-34.96c-19.51-.97-46.34-33.1-65.68-32.84-14.92.18-35.05,23.83-49.7,26.31-12.27,2.12-37.16-8.12-49.7-6.62-18.27,2.21-47.76,24.89-66.21,26.39-4.68.35-10.06-.26-15.98-1.5v23.22c.09,9.71,8.03,17.66,17.74,17.66Z"/>
  <path class="cls-10" d="M70.62,198.62c7.77,0,7.77-11.56,0-11.56-7.77-.09-7.77,11.56,0,11.56Z"/>
  <path class="cls-10" d="M51.91,214.07c7.77,0,7.77-11.65,0-11.65-7.68.09-7.68,11.65,0,11.65Z"/>
  <path class="cls-10" d="M125.53,307.02c7.77,0,7.77-11.56,0-11.56-7.77-.09-7.77,11.56,0,11.56Z"/>
  <path class="cls-10" d="M232.17,320.35c7.77,0,7.77-11.65,0-11.65s-7.77,11.65,0,11.65Z"/>
  <path class="cls-10" d="M99.05,222.1c7.77-.09,7.59-11.74-.18-11.65-7.68.09-7.5,11.74.18,11.65Z"/>
  <path class="cls-10" d="M168.08,206.39c5.12,0,5.12-7.77,0-7.77s-5.12,7.77,0,7.77Z"/>
  <path class="cls-10" d="M24.89,161.81c5.21,0,5.21-7.77,0-7.77s-5.21,7.77,0,7.77Z"/>
  <path class="cls-10" d="M126.5,229.61c5.21,0,5.21-7.77,0-7.77-5.12,0-5.12,7.77,0,7.77Z"/>
  <path class="cls-10" d="M214.51,281.86c5.12,0,5.12-7.77,0-7.77s-5.12,7.77,0,7.77Z"/>
  <path class="cls-10" d="M242.32,254.76c5.12,0,5.12-7.77,0-7.77-5.21,0-5.21,7.77,0,7.77Z"/>
  <path class="cls-10" d="M40.34,239.32c5.12,0,5.12-7.77,0-7.77-5.21,0-5.21,7.77,0,7.77Z"/>
  <path class="cls-10" d="M248.14,283.81c7.77,0,7.77-11.56,0-11.56-7.77-.09-7.77,11.56,0,11.56Z"/>
  <path class="cls-10" d="M195.18,328.03c7.77,0,7.77-11.65,0-11.65-7.77.09-7.77,11.65,0,11.65Z"/>
  <path class="cls-10" d="M202.95,217.95c5.21,0,5.21-7.77,0-7.77-5.21,0-5.21,7.77,0,7.77Z"/>
  <path class="cls-10" d="M46.17,171.52c5.12,0,5.12-7.77,0-7.77-5.21,0-5.21,7.77,0,7.77Z"/>
  <path class="cls-10" d="M189.35,272.68c7.77,0,7.77-11.65,0-11.65-7.68.09-7.68,11.65,0,11.65Z"/>
  <path class="cls-10" d="M59.59,245.05c5.21,0,5.21-7.77,0-7.77-5.21,0-5.21,7.77,0,7.77Z"/>
  <path class="cls-10" d="M24.89,188.91c5.21,0,5.21-7.77,0-7.77s-5.21,7.77,0,7.77Z"/>
  <path class="cls-10" d="M129.41,253c7.77,0,7.77-11.65,0-11.65s-7.77,11.65,0,11.65Z"/>
  <path class="cls-10" d="M214.51,247c5.12,0,5.12-7.77,0-7.77s-5.12,7.77,0,7.77Z"/>
  <path class="cls-10" d="M232.17,221.84c5.12,0,5.12-7.77,0-7.77s-5.12,7.77,0,7.77Z"/>
  <path class="cls-10" d="M22.07,220.16c5.12,0,5.12-7.77,0-7.77-5.12,0-5.12,7.77,0,7.77Z"/>
  <path class="cls-10" d="M84.83,270.74c5.21,0,5.21-7.77,0-7.77-5.12,0-5.12,7.77,0,7.77Z"/>
  <path class="cls-10" d="M57.73,289.54c5.21,0,5.21-7.77,0-7.77-5.12.09-5.12,7.77,0,7.77Z"/>
  <path class="cls-10" d="M177.79,303.14c5.12,0,5.21-7.77,0-7.77s-5.21,7.77,0,7.77Z"/>
  <path class="cls-13" d="M65.85,415.16c-6.71,5.56-27.81,5.56-34.52,0-6.71-5.56-6.09-29.04,0-35.31s28.42-6.27,34.52,0c6.09,6.27,6.62,29.75,0,35.31Z"/>
  <path class="cls-11" d="M233.58,415.16c-6.71,5.56-27.81,5.56-34.52,0-6.71-5.56-6.09-29.04,0-35.31,6.09-6.27,28.42-6.27,34.52,0,6.09,6.27,6.62,29.75,0,35.31Z"/>
  <path class="cls-14" d="M177.61,415.16c-6.71,5.56-27.81,5.56-34.52,0s-6.09-29.04,0-35.31c6.09-6.27,28.42-6.27,34.52,0,6.09,6.27,6.71,29.75,0,35.31Z"/>
  <path class="cls-5" d="M121.73,415.16c-6.71,5.56-27.81,5.56-34.52,0-6.71-5.56-6.09-29.04,0-35.31s28.42-6.27,34.52,0c6.09,6.27,6.71,29.75,0,35.31Z"/>
  <path class="cls-5" d="M198.97,317.53c6.71-5.56,27.81-5.56,34.52,0s6.09,29.04,0,35.31c-6.09,6.27-28.42,6.27-34.52,0-6.09-6.27-6.71-29.75,0-35.31Z"/>
  <path class="cls-14" d="M31.25,317.53c6.71-5.56,27.81-5.56,34.52,0s6.09,29.04,0,35.31-28.42,6.27-34.52,0c-6.09-6.27-6.71-29.75,0-35.31Z"/>
  <path class="cls-11" d="M87.22,317.53c6.71-5.56,27.81-5.56,34.52,0s6.09,29.04,0,35.31-28.42,6.27-34.52,0c-6.09-6.27-6.71-29.75,0-35.31Z"/>
  <path class="cls-13" d="M143.1,317.53c6.71-5.56,27.81-5.56,34.52,0s6.09,29.04,0,35.31-28.42,6.27-34.52,0c-6.09-6.27-6.71-29.75,0-35.31Z"/>
  <path class="cls-1" d="M205.24,456.47c0,8.83-13.24,8.83-13.24,0s13.24-8.83,13.24,0Z"/>
  <path class="cls-1" d="M72.83,456.47c0,8.83-13.24,8.83-13.24,0s13.24-8.83,13.24,0Z"/>
  <path class="cls-1" d="M139.03,456.47c0,8.83-13.24,8.83-13.24,0s13.24-8.83,13.24,0Z"/>
  <polygon class="cls-2" points="215.13 36.55 215.13 35.31 212.74 35.31 212.74 36.55 211.07 36.55 211.07 44.05 216.81 44.05 216.81 36.55 215.13 36.55"/>
  <polygon class="cls-2" points="205.06 44.05 197.03 44.05 205.06 35.31 205.06 44.05"/>
  <path class="cls-2" d="M184.41,36.37l4.94,7.68,4.86-7.68c-1.68-1.41-8.03-1.41-9.8,0Z"/>
  <path class="cls-2" d="M222.19,35.58h.44c.18,0,.26.09.26.26v7.94c0,.18-.09.26-.26.26h-.35c-.18,0-.26-.09-.26-.26v-7.33l-1.85.97c-.18.09-.26,0-.26-.18v-.35c0-.18.09-.26.18-.26l1.77-.97c.18-.09.26-.09.35-.09Z"/>
  <path class="cls-2" d="M224.49,39.81c0-2.65,1.15-4.41,3.18-4.41s3.18,1.77,3.18,4.41-1.15,4.33-3.18,4.33-3.18-1.77-3.18-4.33ZM230.05,39.81c0-2.3-.88-3.53-2.38-3.53s-2.38,1.32-2.38,3.53.88,3.53,2.38,3.53,2.38-1.32,2.38-3.53Z"/>
  <path class="cls-2" d="M232.08,39.81c0-2.65,1.15-4.41,3.18-4.41s3.18,1.77,3.18,4.41-1.15,4.33-3.18,4.33-3.18-1.77-3.18-4.33ZM237.64,39.81c0-2.3-.88-3.53-2.38-3.53s-2.38,1.32-2.38,3.53.88,3.53,2.38,3.53c1.5,0,2.38-1.32,2.38-3.53Z"/>
  <path class="cls-2" d="M239.58,37.16c0-.97.79-1.77,1.85-1.77s1.85.79,1.85,1.77-.79,1.77-1.85,1.77c-1.06.09-1.85-.71-1.85-1.77ZM240.11,43.7l5.56-8.03c.09-.09.18-.18.35-.18h.35c.18,0,.26.18.18.26l-5.56,8.12c-.09.09-.18.18-.26.18h-.35c-.26-.09-.35-.18-.26-.35ZM242.49,37.16c0-.62-.44-1.06-1.06-1.06s-1.06.53-1.06,1.06c0,.62.44,1.06,1.06,1.06.62.09,1.06-.44,1.06-1.06ZM243.46,42.28c0-.97.79-1.85,1.85-1.85s1.85.79,1.85,1.85-.79,1.85-1.85,1.85-1.85-.79-1.85-1.85ZM246.38,42.28c0-.62-.44-1.06-1.06-1.06s-1.06.44-1.06,1.06.44,1.06,1.06,1.06c.62.09,1.06-.44,1.06-1.06Z"/>
  <polygon class="cls-9" points="45.9 150.16 75.65 150.16 48.29 201.09 62.76 201.09 90.22 149.36 90.22 139.3 45.9 139.3 45.9 150.16"/>
  <rect class="cls-9" x="98.34" y="158.01" width="14.21" height="13.95"/>
  <rect class="cls-9" x="98.34" y="187.06" width="14.21" height="13.95"/>
  <polygon class="cls-9" points="152.72 139.3 144.86 139.3 126.68 149.89 126.68 161.72 139.21 154.39 139.21 190.23 125.88 190.23 125.88 201.09 166.22 201.09 166.22 190.23 152.72 190.23 152.72 139.3"/>
  <polygon class="cls-9" points="172.84 139.3 172.84 150.16 202.59 150.16 175.23 201.09 189.7 201.09 217.25 149.36 217.25 139.3 172.84 139.3"/>
  <path class="cls-9" d="M84.92,243.55c0,1.06-.18,1.77-.44,2.3-.26.44-.71.79-1.41.88s-1.68,0-3.09-.18v4.06c2.47.35,4.5.35,5.91,0s2.47-1.15,3.09-2.38c.62-1.15.88-2.74.88-4.68v-21.45h-5.03v21.45h.09Z"/>
  <path class="cls-9" d="M104.87,237.64c0,1.15-.35,2.03-.97,2.74s-1.41,1.06-2.38,1.06c-.88,0-1.5-.26-1.94-.71s-.62-1.24-.62-2.21v-9.89h-4.86v9.71c0,2.3.53,3.97,1.5,5.12s2.56,1.68,4.59,1.68c1.24,0,2.3-.26,3.18-.88.71-.44,1.24-1.06,1.68-1.85v2.47h4.68v-16.24h-4.86s0,9,0,9Z"/>
  <rect class="cls-9" x="113.61" y="221.31" width="4.86" height="23.57"/>
  <path class="cls-9" d="M129.32,239.23l-4.24-10.59h-5.03l6.71,15.36-.44,1.06c-.26.62-.62,1.15-1.06,1.59s-.97.79-1.59,1.06-1.5.53-2.47.71l1.15,3.71c1.24-.18,2.38-.44,3.53-.97s2.03-1.15,2.91-2.03,1.59-2.03,2.3-3.53l7.5-17.04h-4.77l-4.5,10.68Z"/>
  <polygon class="cls-9" points="160.31 222.01 157.4 222.01 150.78 225.99 150.78 230.31 155.37 227.66 155.37 240.9 150.42 240.9 150.42 244.88 165.34 244.88 165.34 240.9 160.31 240.9 160.31 222.01"/>
  <polygon class="cls-9" points="167.81 222.01 167.81 226.07 178.76 226.07 168.7 244.88 173.99 244.88 184.14 225.81 184.14 222.01 167.81 222.01"/>
</svg>