<?xml version="1.0" encoding="UTF-8"?>
<svg id="Layer_1" data-name="Layer 1" xmlns="http://www.w3.org/2000/svg" xmlns:xlink="http://www.w3.org/1999/xlink" viewBox="0 0 443.73 512">
  <defs>
    <style>
      .cls-1 {
        fill: #b3c2c6;
      }

      .cls-2 {
        fill: url(#linear-gradient-8);
      }

      .cls-3 {
        fill: url(#linear-gradient-7);
      }

      .cls-4 {
        fill: url(#linear-gradient-5);
      }

      .cls-5 {
        fill: url(#linear-gradient-6);
      }

      .cls-6 {
        fill: url(#linear-gradient-9);
      }

      .cls-7 {
        fill: url(#linear-gradient-4);
      }

      .cls-8 {
        fill: url(#linear-gradient-3);
      }

      .cls-9 {
        fill: url(#linear-gradient-2);
      }

      .cls-10 {
        fill: #717b80;
      }

      .cls-11 {
        fill: url(#radial-gradient);
      }

      .cls-12 {
        fill: url(#linear-gradient);
      }

      .cls-13 {
        fill: url(#linear-gradient-10);
      }

      .cls-14 {
        fill: url(#linear-gradient-11);
      }

      .cls-15 {
        fill: url(#linear-gradient-12);
      }

      .cls-16 {
        fill: url(#linear-gradient-13);
      }

      .cls-17 {
        fill: url(#linear-gradient-14);
      }

      .cls-18 {
        fill: #768489;
      }
    </style>
    <linearGradient id="linear-gradient" x1="67.08" y1="68.62" x2="376.66" y2="68.62" gradientTransform="translate(0 514) scale(1 -1)" gradientUnits="userSpaceOnUse">
      <stop offset="0" stop-color="#717b80"/>
      <stop offset=".23" stop-color="#889499"/>
      <stop offset=".52" stop-color="#a0adb2"/>
      <stop offset=".79" stop-color="#aebdc1"/>
      <stop offset="1" stop-color="#b3c2c6"/>
    </linearGradient>
    <linearGradient id="linear-gradient-2" x1="49.25" y1="277.31" x2="379.57" y2="277.31" gradientTransform="translate(0 514) scale(1 -1)" gradientUnits="userSpaceOnUse">
      <stop offset="0" stop-color="#b3c2c6"/>
      <stop offset=".21" stop-color="#aebdc1"/>
      <stop offset=".48" stop-color="#a0adb2"/>
      <stop offset=".77" stop-color="#889499"/>
      <stop offset="1" stop-color="#717b80"/>
    </linearGradient>
    <linearGradient id="linear-gradient-3" x1="17.31" y1="246.39" x2="347.67" y2="246.39" gradientTransform="translate(0 514) scale(1 -1)" gradientUnits="userSpaceOnUse">
      <stop offset="0" stop-color="#b3c2c6"/>
      <stop offset=".21" stop-color="#aebdc1"/>
      <stop offset=".48" stop-color="#a0adb2"/>
      <stop offset=".77" stop-color="#889499"/>
      <stop offset="1" stop-color="#717b80"/>
    </linearGradient>
    <linearGradient id="linear-gradient-4" x1="64.16" y1="277.31" x2="394.51" y2="277.31" gradientTransform="translate(0 514) scale(1 -1)" gradientUnits="userSpaceOnUse">
      <stop offset="0" stop-color="#b3c2c6"/>
      <stop offset=".21" stop-color="#aebdc1"/>
      <stop offset=".48" stop-color="#a0adb2"/>
      <stop offset=".77" stop-color="#889499"/>
      <stop offset="1" stop-color="#717b80"/>
    </linearGradient>
    <linearGradient id="linear-gradient-5" x1="96.07" y1="246.38" x2="426.43" y2="246.38" gradientTransform="translate(0 514) scale(1 -1)" gradientUnits="userSpaceOnUse">
      <stop offset="0" stop-color="#b3c2c6"/>
      <stop offset=".21" stop-color="#aebdc1"/>
      <stop offset=".48" stop-color="#a0adb2"/>
      <stop offset=".77" stop-color="#889499"/>
      <stop offset="1" stop-color="#717b80"/>
    </linearGradient>
    <linearGradient id="linear-gradient-6" x1="139.35" y1="258.79" x2="414.07" y2="258.79" gradientTransform="translate(0 514) scale(1 -1)" gradientUnits="userSpaceOnUse">
      <stop offset="0" stop-color="#b3c2c6"/>
      <stop offset=".21" stop-color="#aebdc1"/>
      <stop offset=".48" stop-color="#a0adb2"/>
      <stop offset=".77" stop-color="#889499"/>
      <stop offset="1" stop-color="#717b80"/>
    </linearGradient>
    <linearGradient id="linear-gradient-7" x1="192.66" y1="254.27" x2="402.69" y2="254.27" gradientTransform="translate(0 514) scale(1 -1)" gradientUnits="userSpaceOnUse">
      <stop offset="0" stop-color="#b3c2c6"/>
      <stop offset=".21" stop-color="#aebdc1"/>
      <stop offset=".48" stop-color="#a0adb2"/>
      <stop offset=".77" stop-color="#889499"/>
      <stop offset="1" stop-color="#717b80"/>
    </linearGradient>
    <linearGradient id="linear-gradient-8" x1="176.81" y1="254.31" x2="392.31" y2="254.31" gradientTransform="translate(0 514) scale(1 -1)" gradientUnits="userSpaceOnUse">
      <stop offset="0" stop-color="#b3c2c6"/>
      <stop offset=".21" stop-color="#aebdc1"/>
      <stop offset=".48" stop-color="#a0adb2"/>
      <stop offset=".77" stop-color="#889499"/>
      <stop offset="1" stop-color="#717b80"/>
    </linearGradient>
    <linearGradient id="linear-gradient-9" x1="104.78" y1="255.82" x2="382.45" y2="255.82" gradientTransform="translate(0 514) scale(1 -1)" gradientUnits="userSpaceOnUse">
      <stop offset="0" stop-color="#b3c2c6"/>
      <stop offset=".21" stop-color="#aebdc1"/>
      <stop offset=".48" stop-color="#a0adb2"/>
      <stop offset=".77" stop-color="#889499"/>
      <stop offset="1" stop-color="#717b80"/>
    </linearGradient>
    <linearGradient id="linear-gradient-10" x1="61.29" y1="255.81" x2="338.97" y2="255.81" gradientTransform="translate(0 514) scale(1 -1)" gradientUnits="userSpaceOnUse">
      <stop offset="0" stop-color="#b3c2c6"/>
      <stop offset=".21" stop-color="#aebdc1"/>
      <stop offset=".48" stop-color="#a0adb2"/>
      <stop offset=".77" stop-color="#889499"/>
      <stop offset="1" stop-color="#717b80"/>
    </linearGradient>
    <linearGradient id="linear-gradient-11" x1="51.43" y1="254.31" x2="266.94" y2="254.31" gradientTransform="translate(0 514) scale(1 -1)" gradientUnits="userSpaceOnUse">
      <stop offset="0" stop-color="#b3c2c6"/>
      <stop offset=".21" stop-color="#aebdc1"/>
      <stop offset=".48" stop-color="#a0adb2"/>
      <stop offset=".77" stop-color="#889499"/>
      <stop offset="1" stop-color="#717b80"/>
    </linearGradient>
    <linearGradient id="linear-gradient-12" x1="41.07" y1="254.27" x2="251.09" y2="254.27" gradientTransform="translate(0 514) scale(1 -1)" gradientUnits="userSpaceOnUse">
      <stop offset="0" stop-color="#b3c2c6"/>
      <stop offset=".21" stop-color="#aebdc1"/>
      <stop offset=".48" stop-color="#a0adb2"/>
      <stop offset=".77" stop-color="#889499"/>
      <stop offset="1" stop-color="#717b80"/>
    </linearGradient>
    <linearGradient id="linear-gradient-13" x1="29.66" y1="258.79" x2="304.37" y2="258.79" gradientTransform="translate(0 514) scale(1 -1)" gradientUnits="userSpaceOnUse">
      <stop offset="0" stop-color="#b3c2c6"/>
      <stop offset=".21" stop-color="#aebdc1"/>
      <stop offset=".48" stop-color="#a0adb2"/>
      <stop offset=".77" stop-color="#889499"/>
      <stop offset="1" stop-color="#717b80"/>
    </linearGradient>
    <linearGradient id="linear-gradient-14" x1="65.05" y1="40.81" x2="378.68" y2="40.81" gradientTransform="translate(0 514) scale(1 -1)" gradientUnits="userSpaceOnUse">
      <stop offset="0" stop-color="#b3c2c6"/>
      <stop offset=".21" stop-color="#aebdc1"/>
      <stop offset=".48" stop-color="#a0adb2"/>
      <stop offset=".77" stop-color="#889499"/>
      <stop offset="1" stop-color="#717b80"/>
    </linearGradient>
    <radialGradient id="radial-gradient" cx="258.54" cy="-540.71" fx="258.54" fy="-540.71" r="279.62" gradientTransform="translate(-22.45 -77.83) scale(.95 -.25)" gradientUnits="userSpaceOnUse">
      <stop offset=".53" stop-color="#717b80"/>
      <stop offset=".58" stop-color="#7a858a"/>
      <stop offset=".67" stop-color="#94a0a5"/>
      <stop offset=".76" stop-color="#b3c2c6"/>
      <stop offset=".81" stop-color="#aebdc1"/>
      <stop offset=".87" stop-color="#a0adb2"/>
      <stop offset=".94" stop-color="#889499"/>
      <stop offset="1" stop-color="#717b80"/>
    </radialGradient>
  </defs>
  <path class="cls-1" d="M66.98,445.75c-14.23-120.44-29.43-240.89-45.59-361.33,4.38-.25,8.75-.5,13.12-.75,15.06,116.34,29.22,232.69,42.45,349.02-3.35,4.35-6.68,8.71-9.98,13.06Z"/>
  <path class="cls-10" d="M376.43,445.75c14.21-120.44,29.39-240.89,45.53-361.34-4.38-.25-8.75-.5-13.12-.75-15.04,116.34-29.18,232.69-42.4,349.02,3.35,4.36,6.68,8.72,9.99,13.06Z"/>
  <path class="cls-12" d="M221.87,509.67c-74.45,0-151.48-22.08-154.69-64.29-3.23-42.21,75.39-64.31,154.69-64.3,79.31,0,157.92,22.09,154.7,64.3s-80.25,64.29-154.7,64.29ZM221.87,405.8c-87.59,0-133.59,26.14-132.65,39.58.95,13.44,48.56,39.56,132.65,39.56,84.09-.02,131.72-26.12,132.66-39.56.93-13.44-45.06-39.58-132.66-39.58Z"/>
  <path class="cls-18" d="M225.6,399.49c-94.75,0-144.26,34.12-143.07,51.69,1.19,17.52,52.68,51.69,143.07,51.68,90.39,0,141.88-34.14,143.08-51.68,1.17-17.56-48.32-51.7-143.08-51.69Z"/>
  <path class="cls-9" d="M378.02,439.54c-8.15-71.99-90.09-168.57-172.15-248.62C136.94,122.66,64.66,58.2,62.48,23.01h-13.24c2.61,40.47,73.96,103.69,147.99,176.9,84.25,82.1,168.15,182.07,170.23,250.46,0,0,8.35-7.45,10.55-10.83Z"/>
  <path class="cls-8" d="M336.61,478.81c-3.07-48.88-62.44-121.07-134.14-197.51C133.38,206.94,53.97,130.02,17.31,61.48l11.6-5.07c35.35,66.47,113.83,142.55,182.16,216.12,73.13,77.98,133.52,151.6,136.61,204.62-3.68.56-7.36,1.12-11.06,1.66Z"/>
  <path class="cls-7" d="M381.28,23.01c-2.18,35.17-74.47,99.66-143.39,167.92-82.01,80.01-163.93,176.51-172.14,248.52,2.18,3.37,10.54,10.92,10.53,10.93,2.07-68.4,85.96-168.33,170.24-250.46C320.53,126.72,391.88,63.48,394.5,23.01h-13.23Z"/>
  <path class="cls-4" d="M107.13,478.81c-3.69-.55-7.36-1.1-11.06-1.65,3.09-53.02,63.47-126.65,136.59-204.6,68.34-73.57,146.84-149.67,182.17-216.14,3.87,1.69,7.74,3.38,11.6,5.07-36.66,68.55-116.09,145.47-185.18,219.84-71.7,76.42-131.05,148.6-134.12,197.48Z"/>
  <path class="cls-5" d="M150,494.22c-3.54-1.24-7.09-2.47-10.65-3.71,11.32-49.35,65.28-111.13,122.91-170.87,62.58-65.63,134.56-133.51,138.7-179.57,6.14-65.3-71.07-112.61-72.26-113.1,2.42-3.58,4.87-7.17,7.3-10.75,3.96,2.07,84.77,51.62,77.62,124.04-4.75,51.19-75.84,117.78-143.19,188.3-56.57,58.63-109.6,119.31-120.43,165.67Z"/>
  <path class="cls-3" d="M202.81,499.3c-3.38-1.64-6.77-3.29-10.15-4.93,16.09-44.89,50.8-83.93,86.25-121.69,46.64-49.98,98.71-101.68,110.33-167.66,9.03-50.29-45.85-98.17-88.58-133.12-30.57-25.17-47.13-38.9-46.96-51.74h13.25c-.09,7.54,22.72,25.87,42.33,42.07,45.06,36.78,102.68,87.16,92.17,144.17-12.7,70.37-66.47,123.64-114.55,175.16-36.23,38.6-68.58,75.08-84.07,117.74Z"/>
  <path class="cls-2" d="M251.08,499.23c-3.37-1.6-6.75-3.18-10.14-4.78,12.78-35.05,37.48-60.89,62.17-85.85,36.21-36.74,72.45-71.44,76.88-133.96,4.59-59.76-64.24-120.86-124.5-169.92-42.73-35.14-78.32-62.88-78.68-84.56h13.25c.21,15.76,36.83,44.47,73.78,74.86,62.42,50.77,133.54,113.95,128.18,179.7-5.17,67.88-45.05,106.09-81.4,143.02-24.86,25.16-47.56,48.92-59.55,81.48Z"/>
  <path class="cls-6" d="M304.04,494.79c-3.33-1.62-6.65-3.24-9.99-4.86,9.44-23.75,24.17-42.12,38.74-59.87,19.11-23.35,36.26-43.51,37.75-70.74,5.01-76.31-82.82-159.67-162.24-226.65-55.43-47.35-102.42-84.74-103.53-111.09h13.24c.84,20.6,49.88,59.92,98.59,101.56,81.46,68.64,171.35,154.07,165.57,236.08-1.93,31.93-21.4,54.81-41.24,79.04-13.99,17.02-28.12,34.62-36.91,56.52Z"/>
  <path class="cls-13" d="M139.69,494.79c-8.79-21.92-22.94-39.53-36.9-56.53-19.84-24.21-39.31-47.08-41.24-79.02-5.77-82.01,84.1-167.45,165.58-236.08,48.71-41.64,97.75-80.97,98.59-101.56h13.24c-1.12,26.34-48.09,63.74-103.53,111.09-79.4,66.98-167.24,150.32-162.24,226.65,1.5,27.22,18.63,47.39,37.74,70.72,14.57,17.77,29.3,36.15,38.74,59.89-3.35,1.62-6.66,3.23-9.99,4.86Z"/>
  <path class="cls-14" d="M192.67,499.23c-12-32.55-34.69-56.34-59.55-81.48-36.35-36.94-76.25-75.14-81.4-143.02-5.39-65.71,65.74-128.92,128.18-179.71,36.96-30.4,73.57-59.11,73.79-74.85h13.25c-.36,21.65-35.96,49.43-78.69,84.55-60.27,49.1-129.12,110.17-124.51,169.93,4.45,62.51,40.68,97.21,76.89,133.96,24.7,24.98,49.38,50.78,62.17,85.85-3.39,1.6-6.77,3.18-10.14,4.78Z"/>
  <path class="cls-15" d="M240.93,499.3c-15.48-42.68-47.83-79.12-84.06-117.74-48.07-51.52-101.85-104.81-114.54-175.16-10.51-57.02,47.1-107.39,92.17-144.17,19.6-16.18,42.42-34.53,42.33-42.07h13.25c.18,12.84-16.39,26.59-46.96,51.74-42.73,34.96-97.6,82.82-88.58,133.12,11.61,65.99,63.68,117.67,110.33,167.66,35.45,37.75,70.14,76.8,86.24,121.69-3.39,1.65-6.78,3.29-10.16,4.94Z"/>
  <path class="cls-16" d="M293.73,494.22c-10.83-46.35-63.85-107.02-120.43-165.67C105.94,258.02,34.85,191.43,30.11,140.26,22.95,67.81,103.79,18.28,107.74,16.21c2.44,3.58,4.88,7.16,7.3,10.74-1.18.47-78.4,47.91-72.28,113.11,4.14,46.04,76.11,113.95,138.7,179.56,57.63,59.75,111.59,121.53,122.9,170.88-3.54,1.24-7.09,2.47-10.63,3.71Z"/>
  <path class="cls-17" d="M221.87,487.71c-68.75,0-139.26-18.27-155.26-53.32-1.23,3.87-1.77,7.88-1.48,12.15,3.32,42.97,81.37,65.47,156.74,65.46,75.37,0,153.42-22.49,156.74-65.46.28-4.27-.25-8.29-1.48-12.15-16,35.05-86.5,53.32-155.26,53.32Z"/>
  <path class="cls-11" d="M221.87,0C143.14,0-4.61,13.29.11,63.45c4.73,50.18,147.08,63.45,221.76,63.44,74.68,0,217.04-13.26,221.76-63.44C448.35,13.27,300.6,0,221.87,0ZM221.87,101.71c-126.88,0-194.64-26.83-195.67-38.25-1.05-11.44,64.37-38.27,195.67-38.27,131.31,0,196.73,26.82,195.67,38.26-1.04,11.45-68.77,38.25-195.67,38.26Z"/>
</svg>