<?xml version="1.0" encoding="UTF-8"?>
<svg id="Layer_1" data-name="Layer 1" xmlns="http://www.w3.org/2000/svg" xmlns:xlink="http://www.w3.org/1999/xlink" viewBox="0 0 590.78 512">
  <defs>
    <style>
      .cls-1 {
        fill: url(#linear-gradient-7);
      }

      .cls-2 {
        fill: url(#linear-gradient-5);
      }

      .cls-3 {
        fill: url(#linear-gradient-6);
      }

      .cls-4 {
        fill: url(#linear-gradient-4);
      }

      .cls-5 {
        fill: url(#linear-gradient-3);
      }

      .cls-6 {
        fill: url(#linear-gradient-2);
      }

      .cls-7 {
        fill: url(#linear-gradient);
      }
    </style>
    <linearGradient id="linear-gradient" x1="306.66" y1="368.17" x2="90.21" y2="51.94" gradientTransform="translate(0 514) scale(1 -1)" gradientUnits="userSpaceOnUse">
      <stop offset="0" stop-color="#9e003e"/>
      <stop offset=".07" stop-color="#b00749"/>
      <stop offset=".21" stop-color="#cc125b"/>
      <stop offset=".37" stop-color="#e21b69"/>
      <stop offset=".53" stop-color="#f12172"/>
      <stop offset=".72" stop-color="#fa2578"/>
      <stop offset="1" stop-color="#fd267a"/>
    </linearGradient>
    <linearGradient id="linear-gradient-2" x1="-1611.88" y1="368.17" x2="-1828.33" y2="51.94" gradientTransform="translate(-1327.7646 513.9997) rotate(-180)" gradientUnits="userSpaceOnUse">
      <stop offset="0" stop-color="#590023"/>
      <stop offset=".04" stop-color="#6d052d"/>
      <stop offset=".14" stop-color="#930d42"/>
      <stop offset=".24" stop-color="#b41553"/>
      <stop offset=".34" stop-color="#cf1b61"/>
      <stop offset=".46" stop-color="#e3206c"/>
      <stop offset=".59" stop-color="#f22374"/>
      <stop offset=".75" stop-color="#fa2579"/>
      <stop offset="1" stop-color="#fd267a"/>
    </linearGradient>
    <linearGradient id="linear-gradient-3" x1="0" y1="362.12" x2="263.51" y2="362.12" gradientTransform="translate(0 514) scale(1 -1)" gradientUnits="userSpaceOnUse">
      <stop offset="0" stop-color="#fd267a"/>
      <stop offset=".28" stop-color="#fa2578"/>
      <stop offset=".47" stop-color="#f12172"/>
      <stop offset=".63" stop-color="#e21b69"/>
      <stop offset=".79" stop-color="#cc125b"/>
      <stop offset=".93" stop-color="#b00749"/>
      <stop offset="1" stop-color="#9e003e"/>
    </linearGradient>
    <linearGradient id="linear-gradient-4" x1="137.37" y1="198.93" x2="137.37" y2="320.03" gradientTransform="translate(0 514) scale(1 -1)" gradientUnits="userSpaceOnUse">
      <stop offset="0" stop-color="#a80042"/>
      <stop offset=".2" stop-color="#a40040"/>
      <stop offset=".41" stop-color="#97003b"/>
      <stop offset=".62" stop-color="#830033"/>
      <stop offset=".83" stop-color="#660028"/>
      <stop offset="1" stop-color="#4a001d"/>
    </linearGradient>
    <linearGradient id="linear-gradient-5" x1="327.27" y1="362.12" x2="590.77" y2="362.12" gradientTransform="translate(0 514) scale(1 -1)" gradientUnits="userSpaceOnUse">
      <stop offset="0" stop-color="#9e003e"/>
      <stop offset=".07" stop-color="#b00749"/>
      <stop offset=".21" stop-color="#cc125b"/>
      <stop offset=".37" stop-color="#e21b69"/>
      <stop offset=".53" stop-color="#f12172"/>
      <stop offset=".72" stop-color="#fa2578"/>
      <stop offset="1" stop-color="#fd267a"/>
    </linearGradient>
    <linearGradient id="linear-gradient-6" x1="453.4" y1="198.93" x2="453.4" y2="320.03" gradientTransform="translate(0 514) scale(1 -1)" gradientUnits="userSpaceOnUse">
      <stop offset="0" stop-color="#a80042"/>
      <stop offset=".2" stop-color="#a40040"/>
      <stop offset=".41" stop-color="#97003b"/>
      <stop offset=".62" stop-color="#830033"/>
      <stop offset=".83" stop-color="#660028"/>
      <stop offset="1" stop-color="#4a001d"/>
    </linearGradient>
    <linearGradient id="linear-gradient-7" x1="295.38" y1="292.97" x2="295.38" y2="441.21" gradientTransform="translate(0 514) scale(1 -1)" gradientUnits="userSpaceOnUse">
      <stop offset="0" stop-color="#cc0050"/>
      <stop offset=".27" stop-color="#ef4184"/>
      <stop offset=".41" stop-color="#ff5e9c"/>
      <stop offset=".53" stop-color="#fe4a90"/>
      <stop offset=".69" stop-color="#fe3684"/>
      <stop offset=".84" stop-color="#fd2a7c"/>
      <stop offset="1" stop-color="#fd267a"/>
    </linearGradient>
  </defs>
  <path class="cls-7" d="M307.1,127.51c-3.28,132.89-113.93,240.8-121.11,384.49-34.38-64.67-61.75-125.44-61.75-125.44,0,0-83.92,22.45-124.24,56.86C40.32,264.44,198.09,232.86,226.46,124c24.43-12.74,79.24-1.43,80.64,3.51Z"/>
  <path class="cls-6" d="M283.67,127.51c3.28,132.89,113.93,240.8,121.12,384.49,34.38-64.67,61.74-125.44,61.74-125.44,0,0,83.93,22.45,124.25,56.86-40.32-178.98-198.1-210.56-226.46-319.42-24.42-12.74-79.24-1.43-80.64,3.51Z"/>
  <path class="cls-5" d="M258.52,87.97c-26.49.97-131.97-125.65-213.17-76.73C1.21,37.84-17.83,179.95,20.98,287.73c22.83,63.4,149.28-82.37,234.59-73.24,15.93,1.7,2.95-126.52,2.95-126.52Z"/>
  <path class="cls-4" d="M22.14,289.49c24.77,77.79,164.45-43.71,233.43-74.99-123.12-49.82-258.2-2.81-233.43,74.99Z"/>
  <path class="cls-2" d="M332.25,87.97c26.48.97,131.97-125.65,213.16-76.73,44.14,26.6,63.18,168.7,24.38,276.49-22.84,63.4-149.27-82.38-234.6-73.24-15.92,1.7-2.94-126.52-2.94-126.52Z"/>
  <path class="cls-3" d="M568.64,289.49c-24.77,77.79-164.46-43.71-233.44-74.99,123.13-49.82,258.21-2.81,233.44,74.99Z"/>
  <path class="cls-1" d="M339.16,216.67c-8.34,10.05-25.4-1.67-42.67-1.46-17.98.23-36.18,11.94-44.87,1.46-18.07-21.82-16.42-114.31,0-138.87,7.87-11.74,26.33.8,44.62.99,17.72.18,35.3-12.37,42.91-.99,16.43,24.56,18.08,117.05,0,138.87Z"/>
</svg>