<?xml version="1.0" encoding="UTF-8"?>
<svg id="Layer_1" data-name="Layer 1" xmlns="http://www.w3.org/2000/svg" xmlns:xlink="http://www.w3.org/1999/xlink" viewBox="0 0 358.38 512">
  <defs>
    <style>
      .cls-1 {
        fill: #6e8189;
      }

      .cls-2 {
        fill: url(#radial-gradient-3);
      }

      .cls-3 {
        fill: url(#radial-gradient-2);
      }

      .cls-4 {
        fill: url(#linear-gradient-5);
      }

      .cls-5 {
        fill: url(#linear-gradient-6);
      }

      .cls-6 {
        fill: url(#linear-gradient-4);
      }

      .cls-7 {
        fill: url(#linear-gradient-3);
      }

      .cls-8 {
        fill: url(#linear-gradient-2);
      }

      .cls-9 {
        fill: url(#radial-gradient);
      }

      .cls-10 {
        fill: #99a8ae;
      }

      .cls-11 {
        fill: url(#linear-gradient);
      }

      .cls-12 {
        fill: #302c3b;
      }

      .cls-13 {
        fill: #e6ebef;
      }
    </style>
    <linearGradient id="linear-gradient" x1="32.39" y1="27.6" x2="358.38" y2="27.6" gradientTransform="translate(0 514) scale(1 -1)" gradientUnits="userSpaceOnUse">
      <stop offset="0" stop-color="#717b80"/>
      <stop offset=".23" stop-color="#889499"/>
      <stop offset=".52" stop-color="#a0adb2"/>
      <stop offset=".79" stop-color="#aebdc1"/>
      <stop offset="1" stop-color="#b3c2c6"/>
    </linearGradient>
    <radialGradient id="radial-gradient" cx="181.41" cy="-4143.5" fx="181.41" fy="-4143.5" r="158.24" gradientTransform="translate(10.62 -123.44) scale(1.02 -.14)" gradientUnits="userSpaceOnUse">
      <stop offset=".16" stop-color="#949a9e"/>
      <stop offset=".26" stop-color="#a7adb1"/>
      <stop offset=".43" stop-color="#c1c6ca"/>
      <stop offset=".61" stop-color="#d3d9dd"/>
      <stop offset=".8" stop-color="#dee3e7"/>
      <stop offset="1" stop-color="#e2e7eb"/>
    </radialGradient>
    <linearGradient id="linear-gradient-2" x1="161.59" y1="55.93" x2="229.18" y2="55.93" gradientTransform="translate(0 514) scale(1 -1)" gradientUnits="userSpaceOnUse">
      <stop offset="0" stop-color="#717b80"/>
      <stop offset=".23" stop-color="#889499"/>
      <stop offset=".52" stop-color="#a0adb2"/>
      <stop offset=".79" stop-color="#aebdc1"/>
      <stop offset="1" stop-color="#b3c2c6"/>
    </linearGradient>
    <linearGradient id="linear-gradient-3" x1="204.39" y1="62.84" x2="204.39" y2="173.95" gradientTransform="translate(0 514) scale(1 -1)" gradientUnits="userSpaceOnUse">
      <stop offset="0" stop-color="#ecf1f5"/>
      <stop offset=".4" stop-color="#e9eef2"/>
      <stop offset=".72" stop-color="#dfe5ea"/>
      <stop offset="1" stop-color="#cfd8dd"/>
    </linearGradient>
    <linearGradient id="linear-gradient-4" x1="186.94" y1="62.61" x2="186.94" y2="118.33" gradientTransform="translate(0 514) scale(1 -1)" gradientUnits="userSpaceOnUse">
      <stop offset="0" stop-color="#b3c2c6"/>
      <stop offset=".21" stop-color="#aebdc1"/>
      <stop offset=".48" stop-color="#a0adb2"/>
      <stop offset=".77" stop-color="#889499"/>
      <stop offset="1" stop-color="#717b80"/>
    </linearGradient>
    <linearGradient id="linear-gradient-5" x1="164.45" y1="93.38" x2="164.45" y2="173.95" gradientTransform="translate(0 514) scale(1 -1)" gradientUnits="userSpaceOnUse">
      <stop offset="0" stop-color="#b3c2c6"/>
      <stop offset=".21" stop-color="#aebdc1"/>
      <stop offset=".48" stop-color="#a0adb2"/>
      <stop offset=".77" stop-color="#889499"/>
      <stop offset="1" stop-color="#717b80"/>
    </linearGradient>
    <radialGradient id="radial-gradient-2" cx="86.83" cy="473.96" fx="86.83" fy="473.96" r="165.78" gradientTransform="translate(428.3041 1133.3444) rotate(-14.2429) scale(1.0153 -2.1244) skewX(-2.9333)" gradientUnits="userSpaceOnUse">
      <stop offset=".37" stop-color="#b3c2c6"/>
      <stop offset=".5" stop-color="#aebdc1"/>
      <stop offset=".67" stop-color="#a0adb2"/>
      <stop offset=".86" stop-color="#889499"/>
      <stop offset="1" stop-color="#717b80"/>
    </radialGradient>
    <linearGradient id="linear-gradient-6" x1="133.21" y1="342.77" x2="308.2" y2="342.77" gradientTransform="translate(0 514) scale(1 -1)" gradientUnits="userSpaceOnUse">
      <stop offset="0" stop-color="#ecf1f5"/>
      <stop offset=".4" stop-color="#e9eef2"/>
      <stop offset=".72" stop-color="#dfe5ea"/>
      <stop offset="1" stop-color="#cfd8dd"/>
    </linearGradient>
    <radialGradient id="radial-gradient-3" cx="-116.58" cy="505.96" fx="-116.58" fy="505.96" r="87.89" gradientTransform="translate(436.5626 1357.2229) rotate(-12.79) scale(1.0159 -2.4039) skewX(-2.9945)" gradientUnits="userSpaceOnUse">
      <stop offset="0" stop-color="#b3c2c6"/>
      <stop offset=".21" stop-color="#aebdc1"/>
      <stop offset=".48" stop-color="#a0adb2"/>
      <stop offset=".77" stop-color="#889499"/>
      <stop offset="1" stop-color="#717b80"/>
    </radialGradient>
  </defs>
  <path class="cls-11" d="M358.38,460.8v27.91c0,12.89-72.96,23.3-163,23.3s-163-10.41-163-23.3v-27.91h325.99Z"/>
  <ellipse class="cls-9" cx="195.39" cy="460.8" rx="163" ry="23.3"/>
  <path class="cls-8" d="M229.18,445.52v17.07c0,4.44-15.1,8.02-33.79,8.02s-33.79-3.58-33.79-8.02v-17.07h67.59Z"/>
  <path class="cls-1" d="M161.59,445.52c0,4.44,15.1,8.02,33.79,8.02s33.79-3.58,33.79-8.02-15.1-8.02-33.79-8.02-33.79,3.58-33.79,8.02Z"/>
  <path class="cls-1" d="M232.85,411.81c-15.19,0-15.19-33.37,0-33.37s15.28,33.37,0,33.37Z"/>
  <path class="cls-7" d="M238.82,397.82c.17-17.84-4.86-50.95-4.86-50.95l-53.08-6.83-10.92,80.56,36.87,30.55c8.88-.85,17.67-2.73,17.67-6.4,0-6.91,0-16.73-.34-23.21,7.85-1.96,14.51-11.52,14.68-23.72Z"/>
  <path class="cls-1" d="M207.59,371.45c6.06,0,14.59,7.51,15.28,23.72.17,4.44.43,9.98.77,15.79,1.96-4.1,3.5-9.81,3.5-17.75,0-7-5.63-27.48-5.63-27.48l-20.14-1.11,1.45,6.83c1.19,0,2.9,0,4.78,0Z"/>
  <path class="cls-6" d="M206.82,451.07c-18.01,1.02-39.77-.26-39.77-6.4l1.54-25.77c13.74,5.55,38.23,7.25,38.23-23.3v55.47Z"/>
  <path class="cls-4" d="M137.53,355.49s15.02,37.8,22.02,52.57c11.26,23.89,31.58,10.16,31.83-11.86.17-17.84-10.5-56.15-10.5-56.15l-43.35,15.45Z"/>
  <path class="cls-13" d="M169.96,417.02c-20.05,0-20.05-43.78,0-43.78,20.05.09,20.05,43.78,0,43.78Z"/>
  <path class="cls-10" d="M165.6,414.97c-15.19,0-15.19-39.68,0-39.68s15.19,39.68,0,39.68Z"/>
  <path class="cls-3" d="M66.01,22.24c186.72-66.22,211.64,36.52,211.64,36.52l-12.89,4.18,33.28,178.44,16.21,4.1s41.22,114.95-167.6,114.95C58.25,307.7-25.21,84.88,66.01,22.24Z"/>
  <path class="cls-5" d="M133.77,47.5c-9.9-29.36,113.33-66.82,134.49,9.73l-4.1,20.05,15.62.09,4.35,23.3-6.66-.43.6,20.74,8.96.17,4.95,22.19-6.4-.43,1.79,19.8,7.94.77,4.1,21.76-5.8-.85,1.54,22.1,8.62.17,4.44,19.03-6.83-.68,3.33,24.41c23.04,102.24-110.77,90.46-114.18,57.86-6.83-65.11-29.1-177.59-56.75-259.77Z"/>
  <path class="cls-2" d="M66.01,22.24S-16.42,68.41,2.95,134.46l4.18-3.58,7,18.35-5.97,5.29,5.03,21.68,4.78-4.52,6.49,16.9-7.51,5.46,6.06,21.76,5.46-4.1,5.89,17.49-5.89,5.63,5.29,20.57,5.03-4.27,5.97,17.15-7.25,5.8,5.72,20.48,5.89-4.61,5.63,17.58-6.4,6.49s4.27,46.42,102.24,46.42c-39.34-26.54-45.4-46.77-51.12-66.31-14.85-50.52-41.56-140.98-59.22-202.08-12.46-42.5,25.77-69.81,25.77-69.81Z"/>
  <path class="cls-12" d="M191.2,351.31c47.7-20.4,44.89-24.41,44.03-57.18-.6-23.04-16.81-8.79-17.92,2.99-1.11,11.86,1.11,20.05-2.82,28.93-7.17,16.64-28.25,27.39-23.3,25.26Z"/>
  <path class="cls-12" d="M224.66,344.48c26.45-6.57,36.78-21.16,35.84-53.93-.6-23.04-14.42-13.06-13.31.77.94,11.86,1.37,21.85-2.47,30.72-7.17,16.64-25.35,23.81-20.05,22.44Z"/>
  <path class="cls-12" d="M251.62,339.7c28.67-16.13,35.84-23.04,32-51.46-3.16-22.87-13.06-13.31-11.95.51.94,11.86.51,22.27-3.07,30.12-3.58,7.94-21.76,23.47-16.98,20.82Z"/>
  <path class="cls-12" d="M275.18,330.66c22.36-15.7,28.84-20.99,26.71-46.17-1.96-22.96-11.35-14.42-10.24-.51.94,11.86.85,19.12-1.88,25.94-2.56,6.74-19.03,23.81-14.59,20.74Z"/>
  <path class="cls-12" d="M130.36,13.79c18.95,0,28.93,7.85,36.44,21.08,8.96,15.79-7.85,16.21-14.08,4.35-10.41-19.46-27.91-25.43-22.36-25.43Z"/>
  <path class="cls-12" d="M161.42,7.65c13.06,0,25.77,9.98,33.28,23.21,8.96,15.7-8.7,16.56-14.08,4.35-9.98-22.44-24.75-27.56-19.2-27.56Z"/>
  <path class="cls-12" d="M187.71,7.65c11.44,0,22.87,11.01,29.44,22.61,7.85,13.74-8.19,14.68-12.29,3.84-8.88-23.81-22.02-26.45-17.15-26.45Z"/>
  <path class="cls-12" d="M210.58,8.42c6.14,0,21.25,10.92,27.14,21.33,7,12.37-7.6,13.23-11.09,3.41-7.34-20.82-20.4-24.75-16.04-24.75Z"/>
  <path class="cls-12" d="M28.98,113.73c-5.46,2.3-18.01,13.57-21.93,17.07l5.89,22.19c4.69-3.5,21.25-15.87,27.91-19.8,8.11-4.86,3.41-25.94-11.86-19.46Z"/>
  <path class="cls-12" d="M38.79,155.2c-4.95,2.13-16.13,11.95-20.99,16.47l5.63,21.33c5.46-3.75,20.82-14.51,27.22-18.35,8.11-4.86,3.41-25.94-11.86-19.46Z"/>
  <path class="cls-12" d="M48.52,196.16c-4.78,2.05-15.02,10.92-20.14,15.53l5.55,21.08c4.86-3.24,19.97-13.23,26.45-17.15,8.11-4.95,3.33-25.94-11.86-19.46Z"/>
  <path class="cls-12" d="M56.28,237.04c-5.12,2.13-14,10.58-17.58,14l5.63,21.25c4.69-3.24,17.49-12.03,23.81-15.87,8.11-4.78,3.41-25.86-11.86-19.37Z"/>
  <path class="cls-12" d="M67.12,275.95c-5.38,2.3-14.93,11.01-18.18,14l5.63,21.33c4.27-2.9,17.84-12.03,24.41-15.96,8.11-4.86,3.41-25.86-11.86-19.37Z"/>
  <path class="cls-12" d="M271.59,81.55s2.05-12.63-3.33-24.32c0,0-16.73-1.96-43.18-.43,2.47,8.79,4.78,17.49,7,25.94,23.89-1.79,39.51-1.19,39.51-1.19Z"/>
  <path class="cls-12" d="M77.79,97.51c-20.23,10.84-13.4,36.52,8.28,24.58,42.75-23.55,91.91-33.54,128.86-37.72-2.3-8.45-4.86-17.15-7.42-26.11-35.42,3.75-82.35,13.91-129.71,39.26Z"/>
  <path class="cls-12" d="M89.57,141.03c-20.23,10.84-16.04,36.01,5.72,24.07,43.52-24.07,93.7-33.96,130.82-37.98-2.05-8.28-4.18-16.9-6.57-25.77-34.99,3.75-81.92,13.91-129.97,39.68Z"/>
  <path class="cls-12" d="M280.81,124.56s2.05-12.63-3.33-24.41c0,0-15.7-1.79-40.88-.34,2.3,8.79,4.44,17.41,6.4,25.69,22.87-1.54,37.8-.94,37.8-.94Z"/>
  <path class="cls-12" d="M288.83,167.32s2.05-12.63-3.33-24.41c0,0-14.68-2.13-38.57-1.11,2.22,9.22,4.18,18.01,6.06,26.37,21.76-1.45,35.84-.85,35.84-.85Z"/>
  <path class="cls-12" d="M100.75,181.74c-20.23,10.84-19.2,38.06,2.47,26.03,44.21-24.41,95.15-34.22,132.53-38.06-1.79-8.36-3.75-17.32-5.89-26.71-34.22,3.16-80.64,12.8-129.12,38.74Z"/>
  <path class="cls-12" d="M296.85,208.79s2.05-12.63-3.33-24.41c0,0-14.08-1.45-36.95-.17,1.96,9.13,3.75,17.67,5.38,25.35,21.25-1.45,34.9-.77,34.9-.77Z"/>
  <path class="cls-12" d="M107.06,226.29c-20.23,10.84-12.46,34.48,9.22,22.53,43.27-23.89,91.74-33.62,127.5-37.55-1.28-7.6-2.9-16.13-4.69-25.43-34.9,3.67-82.69,14-132.02,40.45Z"/>
  <path class="cls-12" d="M118.84,263.07c-20.31,10.67-13.31,34.48,8.45,22.53,41.9-23.13,87.81-32,122.38-35.24-.6-5.03-1.62-13.06-3.33-23.72-35.33,3.67-82.86,12.97-127.5,36.44Z"/>
  <path class="cls-12" d="M301.29,225.01s-14.08-1.02-36.18.17c2.13,10.67,3.67,18.77,4.52,23.81,21.33-.85,34.99.34,34.99.34,0,0,2.05-12.54-3.33-24.32Z"/>
</svg>