<?xml version="1.0" encoding="UTF-8"?>
<svg id="Layer_1" data-name="Layer 1" xmlns="http://www.w3.org/2000/svg" xmlns:xlink="http://www.w3.org/1999/xlink" viewBox="0 0 667.82 512">
  <defs>
    <style>
      .cls-1 {
        fill: #b3c2c6;
      }

      .cls-2 {
        fill: #cfd8dd;
      }

      .cls-3 {
        fill: #6e8189;
      }

      .cls-4 {
        fill: url(#radial-gradient-4);
      }

      .cls-5 {
        fill: url(#radial-gradient-3);
      }

      .cls-6 {
        fill: url(#radial-gradient-2);
      }

      .cls-7 {
        fill: url(#linear-gradient-3);
      }

      .cls-8 {
        fill: url(#linear-gradient-2);
      }

      .cls-9 {
        fill: #1a1626;
      }

      .cls-10 {
        fill: url(#radial-gradient);
      }

      .cls-11 {
        fill: #b00505;
      }

      .cls-12 {
        fill: url(#linear-gradient);
      }

      .cls-13 {
        fill: #800303;
      }

      .cls-14 {
        fill: #fff;
      }

      .cls-15 {
        fill: #c21413;
      }
    </style>
    <radialGradient id="radial-gradient" cx="201.06" cy="307.32" fx="201.06" fy="307.32" r="75.04" gradientTransform="translate(-91.46 496.52) scale(.9 -1)" gradientUnits="userSpaceOnUse">
      <stop offset=".04" stop-color="#ff000e"/>
      <stop offset="1" stop-color="#e30000"/>
    </radialGradient>
    <radialGradient id="radial-gradient-2" cx="743.16" cy="307.3" fx="743.16" fy="307.3" r="75.04" gradientTransform="translate(-91.46 496.52) scale(.9 -1)" gradientUnits="userSpaceOnUse">
      <stop offset=".04" stop-color="#ff000e"/>
      <stop offset="1" stop-color="#e30000"/>
    </radialGradient>
    <radialGradient id="radial-gradient-3" cx="476.2" cy="-547.67" fx="476.2" fy="-547.67" r="360.91" gradientTransform="translate(-91.46 -33.45) scale(.9 -.3)" gradientUnits="userSpaceOnUse">
      <stop offset=".57" stop-color="#e30000"/>
      <stop offset=".8" stop-color="#ff000e"/>
    </radialGradient>
    <linearGradient id="linear-gradient" x1="333.92" y1="256.81" x2="333.92" y2="341" gradientTransform="translate(0 500) scale(1 -1)" gradientUnits="userSpaceOnUse">
      <stop offset="0" stop-color="#cf0000"/>
      <stop offset=".24" stop-color="#de0004"/>
      <stop offset=".71" stop-color="#f6000b"/>
      <stop offset="1" stop-color="#ff000e"/>
    </linearGradient>
    <linearGradient id="linear-gradient-2" x1="333.91" y1="-12" x2="333.91" y2="264.02" gradientTransform="translate(0 500) scale(1 -1)" gradientUnits="userSpaceOnUse">
      <stop offset="0" stop-color="#cf0000"/>
      <stop offset=".24" stop-color="#de0004"/>
      <stop offset=".71" stop-color="#f6000b"/>
      <stop offset="1" stop-color="#ff000e"/>
    </linearGradient>
    <linearGradient id="linear-gradient-3" x1="333.91" y1="66.35" x2="333.91" y2="278.86" gradientTransform="translate(0 500) scale(1 -1)" gradientUnits="userSpaceOnUse">
      <stop offset="0" stop-color="#ff543d"/>
      <stop offset=".19" stop-color="#ff4c39"/>
      <stop offset=".48" stop-color="#ff362c"/>
      <stop offset=".83" stop-color="#ff1319"/>
      <stop offset="1" stop-color="#ff000e"/>
    </linearGradient>
    <radialGradient id="radial-gradient-4" cx="335.94" cy="241.61" fx="335.94" fy="241.61" r="83.21" gradientTransform="translate(-1.31 539.04) scale(.99 -1.03)" gradientUnits="userSpaceOnUse">
      <stop offset=".2" stop-color="#e6ebef"/>
      <stop offset=".85" stop-color="#a8b5bb"/>
      <stop offset="1" stop-color="#99a8ae"/>
    </radialGradient>
  </defs>
  <path class="cls-15" d="M221.44,202.42c-1.67,1.89-4.19,11.85-5.41,18.73,7.65.71,44.82-.7,41.88-49.17-10.43,16.96-33.31,26.87-36.47,30.44Z"/>
  <path class="cls-15" d="M446.39,202.42c-3.17-3.56-26.07-13.48-36.49-30.44-2.94,48.47,34.25,49.89,41.91,49.17-1.25-6.88-3.74-16.85-5.42-18.73Z"/>
  <path class="cls-13" d="M320.61,96.68h26.64s.11-8.93-.3-11.14c-.98-4.93-25.09-4.79-26,0-.46,2.21-.33,11.14-.33,11.14Z"/>
  <path class="cls-10" d="M3.05,181.63s.67,22.28,18.48,43.13c20.93,24.46,152.36,3.18,154.53-40.53,1.38-27.9-3.01-38.61-3.01-38.61L3.05,181.63Z"/>
  <path class="cls-6" d="M494.76,145.63s-4.37,10.71-3.01,38.61c2.17,43.71,133.61,64.99,154.52,40.53,17.82-20.85,18.49-43.13,18.49-43.13l-170.01-36.01Z"/>
  <path class="cls-5" d="M333.92,0C205.27,0-29.45,28.35,3.05,181.63c9.04,42.59,170.87,7.76,170.01-36-.63-33.54,12.71-38.14,19.76-41.66,27.66-13.76,103.9-16.44,141.09-16.44s113.42,2.67,141.08,16.44c7.09,3.52,20.42,8.13,19.77,41.66-.82,43.76,160.98,78.59,170.01,36C697.27,28.35,462.55,0,333.92,0Z"/>
  <path class="cls-11" d="M309.43,108.45h48.96s.23-8.94-.56-11.15c-1.76-4.93-46.15-4.79-47.87,0-.76,2.21-.53,11.15-.53,11.15Z"/>
  <path class="cls-13" d="M333.91,106.15c-73.69,0-100.72-8.66-100.72-8.66,8.48,62.63,192.97,62.63,201.45,0,0,0-27.01,8.66-100.73,8.66Z"/>
  <path class="cls-11" d="M238.23,117.54c32.96,53.29,158.4,53.29,191.35,0h-191.35Z"/>
  <path class="cls-15" d="M433.02,70.51c0,60.12-36.16,65.93-99.12,65.93s-99.11-5.8-99.11-65.93c0-16.94-36.52-16.94-36.52,0v51.81c0,10.94,10.48,21.4,22.67,21.4h20.48c8.25,0,13.73,4.1,13.73,15.26,41.44,12.07,116.07,12.07,157.48,0,0-11.16,5.5-15.26,13.73-15.26h20.48c12.2,0,22.67-10.45,22.67-21.4v-51.81c.01-16.94-36.52-16.94-36.52,0Z"/>
  <path class="cls-12" d="M418.83,193.16c-4.76-7.95-6.18-34.16-6.18-34.16h-157.48s-1.41,26.21-6.18,34.16c-5.68,9.47-32.97,21.38-32.97,27.99,0,29.38,235.79,29.38,235.79,0,0-6.62-27.29-18.53-32.98-27.99Z"/>
  <path class="cls-8" d="M627.16,449.83c-2.74-9.64-28.07-66.75-42.24-86.08-6.24-8.51-84.81-20.5-137.69-127.77h-226.62c-52.89,107.26-131.46,119.25-137.71,127.77-14.16,19.33-39.5,76.44-42.23,86.08-4.49,15.83-6.32,33.36-7.07,45.76-.58,9.82,5.69,16.42,27.67,16.42h545.27c21.98,0,28.26-6.6,27.66-16.42-.73-12.4-2.57-29.93-7.05-45.76Z"/>
  <path class="cls-7" d="M451.81,221.14h-235.79c-26.56,157.61-161.16,212.51-161.16,212.51h558.09s-134.6-54.91-161.15-212.51Z"/>
  <path class="cls-3" d="M443.43,332.31c0,124.69-220.22,124.69-220.22,0s220.22-124.66,220.22,0Z"/>
  <path class="cls-1" d="M443.43,322.46c0,124.68-220.22,124.68-220.22,0s220.22-124.66,220.22,0Z"/>
  <polygon class="cls-2" points="429.82 388.26 429.82 371.19 444.62 352.97 444.62 369.62 429.82 388.26"/>
  <polygon class="cls-14" points="402.97 338.64 396.38 346.92 429.82 373.31 444.62 352.97 402.97 338.64"/>
  <path class="cls-4" d="M395.54,313.11c0,76.12-124.42,76.12-124.42,0,0-69.19,124.42-69.19,124.42,0Z"/>
  <path class="cls-3" d="M410.54,377.73c0,23.85-37.08,23.85-37.08,0,0-23.83,37.08-23.83,37.08,0Z"/>
  <path class="cls-9" d="M410.16,374.16c-3.48-20.11-32.9-20.11-36.39,0,6.04-14.43,30.38-14.43,36.39,0Z"/>
  <path class="cls-3" d="M374.96,394.53c0,23.85-37.06,23.85-37.06,0-.01-23.82,37.06-23.82,37.06,0Z"/>
  <path class="cls-9" d="M374.56,390.97c-3.47-20.11-32.9-20.11-36.37,0,6.04-14.43,30.36-14.43,36.37,0Z"/>
  <path class="cls-3" d="M334.23,394.92c0,23.83-37.09,23.83-37.09,0s37.09-23.84,37.09,0Z"/>
  <path class="cls-9" d="M333.85,391.36c-3.48-20.11-32.91-20.11-36.4,0,6.05-14.43,30.37-14.43,36.4,0Z"/>
  <path class="cls-3" d="M297.47,380.77c0,23.11-37.08,23.11-37.08,0,0-23.08,37.08-23.08,37.08,0Z"/>
  <path class="cls-9" d="M297.08,377.31c-3.48-19.48-32.91-19.48-36.4,0,6.05-13.96,30.39-13.96,36.4,0Z"/>
  <path class="cls-3" d="M271.67,353.7c0,21.74-37.06,21.74-37.06,0s37.06-21.74,37.06,0Z"/>
  <path class="cls-9" d="M271.29,350.44c-3.47-18.33-32.89-18.33-36.37,0,6.04-13.13,30.36-13.13,36.37,0Z"/>
  <path class="cls-3" d="M262.74,320.48c0,20.44-35.77,20.44-35.77,0,.01-20.42,35.77-20.42,35.77,0Z"/>
  <path class="cls-9" d="M262.37,317.42c-3.35-17.23-31.74-17.23-35.09,0,5.82-12.37,29.31-12.37,35.09,0Z"/>
  <path class="cls-3" d="M270.3,287.4c0,20.11-34.58,20.11-34.58,0s34.58-20.09,34.58,0Z"/>
  <path class="cls-9" d="M269.94,284.4c-3.24-16.95-30.7-16.95-33.93,0,5.63-12.18,28.33-12.18,33.93,0Z"/>
  <path class="cls-3" d="M294.02,261.75c0,18.87-34.56,18.87-34.56,0s34.56-18.88,34.56,0Z"/>
  <path class="cls-9" d="M293.67,258.92c-3.24-15.92-30.69-15.92-33.94,0,5.64-11.41,28.33-11.41,33.94,0Z"/>
  <path class="cls-3" d="M329.09,247.51c0,18.29-35.07,18.29-35.07,0s35.07-18.29,35.07,0Z"/>
  <path class="cls-9" d="M328.74,244.77c-3.29-15.43-31.14-15.43-34.43,0,5.72-11.06,28.73-11.06,34.43,0Z"/>
  <path class="cls-3" d="M367.51,247.28c0,18.28-35.07,18.28-35.07,0-.01-18.3,35.07-18.3,35.07,0Z"/>
  <path class="cls-9" d="M367.15,244.55c-3.29-15.44-31.15-15.44-34.44,0,5.71-11.06,28.75-11.06,34.44,0Z"/>
  <path class="cls-3" d="M404.01,261.75c0,18.89-35.78,18.89-35.78,0s35.78-18.89,35.78,0Z"/>
  <path class="cls-9" d="M403.64,258.93c-3.35-15.93-31.76-15.93-35.12,0,5.83-11.43,29.31-11.43,35.12,0Z"/>
  <path class="cls-3" d="M429.55,288.03c0,19.98-36.9,19.98-36.9,0-.01-20,36.9-20,36.9,0Z"/>
  <path class="cls-9" d="M429.17,285.03c-3.46-16.86-32.73-16.86-36.21,0,6.01-12.09,30.22-12.09,36.21,0Z"/>
</svg>