<?xml version="1.0" encoding="UTF-8"?>
<svg id="Layer_1" data-name="Layer 1" xmlns="http://www.w3.org/2000/svg" xmlns:xlink="http://www.w3.org/1999/xlink" viewBox="0 0 568.89 512">
  <defs>
    <style>
      .cls-1 {
        fill: #b3c2c6;
      }

      .cls-2 {
        fill: #cfd8dd;
      }

      .cls-3 {
        fill: #6e8189;
      }

      .cls-4 {
        fill: url(#linear-gradient);
      }

      .cls-5 {
        fill: #4e5e67;
      }
    </style>
    <linearGradient id="linear-gradient" x1="284.4" y1="2" x2="284.4" y2="495.04" gradientTransform="translate(0 514) scale(1 -1)" gradientUnits="userSpaceOnUse">
      <stop offset="0" stop-color="#6e8088"/>
      <stop offset=".03" stop-color="#88979e"/>
      <stop offset=".06" stop-color="#a2afb5"/>
      <stop offset=".1" stop-color="#b6c1c7"/>
      <stop offset=".14" stop-color="#c4ced3"/>
      <stop offset=".19" stop-color="#ccd6db"/>
      <stop offset=".28" stop-color="#cfd8dd"/>
      <stop offset=".31" stop-color="#d2dbdf"/>
      <stop offset=".5" stop-color="#e1e7e9"/>
      <stop offset=".65" stop-color="#e6ebed"/>
      <stop offset="1" stop-color="#b3c2c6"/>
    </linearGradient>
  </defs>
  <path class="cls-4" d="M0,18.96s9.48,36.5,9.48,161.19C9.48,259.22,0,384.66,0,436.62c0,75.38,18.2,75.38,18.2,75.38h532.39s18.2,0,18.2-75.38c0-51.86-9.48-177.4-9.48-256.47,0-124.68,9.48-161.19,9.48-161.19H0Z"/>
  <rect class="cls-3" x="78.6" y="114.44" width="435.58" height="4.74"/>
  <rect class="cls-3" x="54.71" y="126.67" width="459.47" height="4.74"/>
  <path class="cls-5" d="M298.86,173.51v227.65h4.46c.28-86.95,26.64-143.27,26.55-143.27,0,0-10.52,30.34-16.21,73.2,2.28-13.37,5.4-21.05,7.96-24.56,1.33-2.56,3.41-4.84,4.55-5.03.38-3.32,2.47-7.21,3.89-7.87-.19-4.08,1.99-9.67,3.41-8.34.85-4.46,4.36-9.77,5.03-6.35.47-.19.85-.19,1.14-.09,1.23-3.98,5.5-8.72,6.16-6.54,1.52-4.27,6.83-9.2,6.73-5.5h.76c2.09-3.98,7.68-7.96,7.11-4.36.19,0,.28.09.38.09,2.18-3.98,8.34-7.87,7.59-4.17.19,0,.28.09.47.09,1.8-3.98,6.35-7.96,6.26-4.55.85-.09,1.33.19,1.52.66,3.22-2.56,7.87-3.89,6.64-1.04.28,0,.38.19.57.19,2.84-2.18,6.16-3.22,5.31-.57.57.19.95.38,1.14.66,2.47-3.7,10.05-6.73,8.63-3.13,1.42.47,1.42,1.33.76,2.28,4.08-1.23,9.86-.38,7.49,1.9,2.75,2.65-3.13,3.7-7.3,2.56h0c3.03,2.75-3.7,3.98-7.87,2.65-1.61,1.9-8.06,3.32-10.43,1.33-1.14,1.14-3.79,2.18-6.26,2.47-.28,1.9-6.07,3.7-9.48,2.75.47,1.9-4.55,5.31-8.15,5.5,1.8,1.42-2.56,4.55-6.35,5.21.19,1.61-3.41,4.36-6.73,5.12,1.14.47.66,1.9-.57,3.41,1.33-1.23,2.47-1.42,2.47.28.57-.09.85,0,1.14.09,1.52-2.56,4.46-5.12,5.97-5.4,1.9-3.79,5.4-7.02,5.5-3.89.47-.09.76,0,1.04.09,2.37-2.28,4.84-3.41,4.55-.95.28,0,.47.09.76.09,2.65-3.41,7.3-6.07,6.73-2.84.38,0,.66.09.85.28,2.37-2.37,6.54-4.08,7.77-3.32,2.94-3.32,9.48-5.78,8.15-2.37.09,0,.19.09.28.09,3.03-3.13,11.85-4.27,9.58-1.04,1.14.76,1.14,1.42.57,2.09,3.32-.57,6.54,0,4.84,1.9,3.32,2.65-4.17,4.36-8.34,2.94-.85,1.33-4.74,1.99-7.77,1.52q-.09.09-.28.19c3.13,3.32-5.88,3.7-9.48,1.14,0,.19-.09.38-.28.66,3.7,2.09-3.79,5.12-8.06,4.27,1.23,1.8-4.46,4.65-8.34,4.46-.09,1.8-4.55,4.46-7.96,4.74-.95,1.9-3.89,4.36-6.35,5.12,3.32,1.23-2.18,5.21-6.45,5.78.57,2.18-5.78,7.77-9.1,6.83-1.42,1.52-3.51,3.13-5.4,3.7.38,1.61-3.13,5.21-6.26,6.45-1.8,9.96-3.79,26.45-4.55,52.81,2.84-11.19,5.78-18.87,8.25-23.8-.95-2.94,2.84-8.53,5.12-9.77.66-3.13,2.56-6.64,3.98-7.21-.09-4.17,2.18-9.67,3.6-8.34.85-4.46,4.46-9.67,5.12-6.26.47-.19.85-.19,1.14-.09,1.23-4.08,5.59-8.72,6.35-6.45,1.61-4.27,7.11-9.2,6.83-5.4h.85c2.18-3.98,7.87-7.87,7.3-4.36.19,0,.28.09.38.09,2.28-3.89,8.44-7.77,7.68-4.08.19,0,.28.09.47.09,1.99-3.98,6.54-7.87,6.45-4.46.85-.09,1.33.19,1.52.66,3.22-2.47,7.96-3.79,6.73-.95.19.09.38.19.47.28,2.84-2.18,6.26-3.13,5.4-.57.57.19.95.38,1.14.66,2.56-3.7,10.33-6.64,8.72-3.03,1.42.47,1.42,1.42.76,2.28,4.08-1.14,9.96-.28,7.49,1.9,2.75,2.65-3.22,3.7-7.4,2.47h0c3.03,2.75-3.79,3.98-7.96,2.56-1.61,1.9-8.15,3.22-10.62,1.23-1.14,1.14-3.79,2.18-6.26,2.37-.28,1.9-6.16,3.6-9.58,2.65.47,1.8-4.74,5.31-8.25,5.4,1.71,1.52-2.65,4.46-6.45,5.21.19,1.61-3.51,4.27-6.83,5.03,1.14.47.66,1.99-.66,3.41,1.33-1.23,2.47-1.52,2.47.28.57-.09.95,0,1.23.19,1.61-2.65,4.55-5.12,6.07-5.31,1.9-3.7,5.59-7.02,5.59-3.89.47-.09.76,0,1.04.09,2.37-2.28,4.93-3.32,4.55-.85.28,0,.47.09.66.19,2.75-3.41,7.49-5.97,6.73-2.75.38.09.66.19.85.28,2.47-2.37,6.73-3.98,7.87-3.32,3.03-3.32,9.67-5.59,8.25-2.28.09,0,.19.09.28.09,3.13-3.03,12.04-4.08,9.58-.95,1.14.76,1.14,1.42.57,2.09,3.41-.47,6.64.09,4.84,1.99,3.22,2.65-4.27,4.27-8.44,2.84-.85,1.33-4.74,1.99-7.87,1.33-.09,0-.09.09-.28.28,3.03,3.32-5.97,3.6-9.58.95,0,.19-.19.38-.38.66,3.7,2.09-3.89,5.12-8.15,4.17,1.23,1.9-4.55,4.65-8.44,4.36-.09,1.8-4.65,4.46-8.06,4.65-1.04,1.9-3.98,4.36-6.45,5.12,3.32,1.23-2.28,5.21-6.54,5.78.57,2.18-5.78,7.68-9.1,6.73-2.09,2.28-5.88,4.55-7.96,3.7-1.23,2.65-2.65,6.26-3.98,11.85,16.12-26.07,51.77,5.78,51.77,5.78,0,0-56.79-42.19-51.86,33.75h111.88c.19-13.18.28-26.45.28-39.73h-11.19v-16.4h8.91c-3.98-4.84-5.03-11.95.85-17.54,4.27-4.17,9.2-4.93,13.46-3.7-4.36-4.84-5.69-12.23.28-18.11,4.27-4.17,9.1-5.03,13.37-3.79-4.46-4.74-5.88-12.23,0-18.11,12.8-12.71,31.67,5.97,20.67,18.11,11.76-3.6,23.99,11.38,14.51,21.81,11.66-3.6,23.51,10.9,14.79,21.24h8.72c0,5.5.09,10.9.09,16.4h-11.28c0,13.27-.19,26.45-.47,39.73h25.98c.19-73.39-9.58-157.58-9.58-227.65-74.81.28-225,.28-225,.28ZM307.96,216.46c-3.32,0-3.41-5.03,0-5.03,3.32.09,3.32,5.03,0,5.03ZM313.27,257.9c-3.41,0-3.41-5.03,0-5.03,3.41.09,3.41,5.03,0,5.03ZM331.28,180.53c-2.18,0-2.28-3.32-.09-3.32s2.28,3.32.09,3.32ZM336.02,213.14c-2.18,0-2.28-3.32-.09-3.32s2.37,3.32.09,3.32ZM355.46,242.25c-2.28,0-2.37-3.32-.09-3.32,2.28,0,2.37,3.32.09,3.32ZM372.53,201.96c-2.28,0-2.37-3.32-.09-3.32,2.28,0,2.37,3.32.09,3.32ZM378.12,219.69c-3.32,0-3.51-5.03-.19-5.03s3.6,5.03.19,5.03ZM391.11,353c-2.28,0-2.28-3.32,0-3.32s2.28,3.32,0,3.32ZM402.2,383.81c-3.41,0-3.41-5.03,0-5.03,3.41.09,3.41,5.03,0,5.03ZM409.32,203.57c-2.37,0-2.56-3.32-.19-3.32,2.37,0,2.56,3.32.19,3.32ZM417.47,236.28c-2.28,0-2.37-3.32-.09-3.32s2.28,3.32.09,3.32ZM424.3,295.82c-3.41,0-3.51-5.03-.09-5.03,3.41,0,3.51,5.03.09,5.03ZM430.46,180.53c2.18,0,2.37,3.32.19,3.32-2.18,0-2.37-3.32-.19-3.32ZM432.83,263.87c2.28,0,2.37,3.32.09,3.32s-2.37-3.32-.09-3.32ZM436.62,311.37c-2.28,0-2.37-3.32-.09-3.32s2.37,3.32.09,3.32ZM511.05,183.85c3.32,0,3.79,4.93.47,4.93-3.32.09-3.79-4.93-.47-4.93ZM491.33,284.16c-3.41,0-3.6-5.03-.19-5.03,3.41,0,3.6,5.03.19,5.03ZM484.69,253.16c-19.25,0-35.37-15.27-36.41-34.13-.95-18.87,13.08-34.13,31.86-34.13s35.46,15.27,36.98,34.13c1.42,18.77-13.27,34.13-32.43,34.13ZM524.42,294.68c-2.28,0-2.37-3.32-.09-3.32,2.28,0,2.37,3.32.09,3.32Z"/>
  <path class="cls-5" d="M482.89,382.1c0-3.6-2.37-5.03-5.59-5.4.09-8.44-11.19-8.44-11.19,0-3.22.38-5.59,1.9-5.59,5.4-.28,14.22,22.19,14.22,22.38,0Z"/>
  <rect class="cls-3" x="40.96" y="173.51" width="156.07" height="16.78"/>
  <rect class="cls-3" x="40.87" y="213.24" width="228.88" height="5.69"/>
  <rect class="cls-3" x="38.49" y="243.58" width="231.25" height="5.69"/>
  <rect class="cls-3" x="36.69" y="273.92" width="233.05" height="5.69"/>
  <rect class="cls-3" x="34.32" y="334.7" width="235.52" height="5.69"/>
  <polygon class="cls-3" points="269.75 401.16 32.14 401.16 31.95 395.47 269.75 395.47 269.75 401.16"/>
  <rect class="cls-3" x="33.19" y="365.13" width="236.56" height="5.69"/>
  <rect class="cls-3" x="35.46" y="304.36" width="234.29" height="5.69"/>
  <polygon class="cls-3" points="269.75 461.84 33.37 461.84 33 456.15 269.75 456.15 269.75 461.84"/>
  <polygon class="cls-3" points="269.75 492.18 39.92 492.18 39.44 486.49 269.75 486.49 269.75 492.18"/>
  <rect class="cls-3" x="298.86" y="425.81" width="234.1" height="5.69"/>
  <rect class="cls-3" x="298.86" y="486.49" width="230.59" height="5.69"/>
  <rect class="cls-3" x="298.86" y="456.15" width="234.29" height="5.69"/>
  <polygon class="cls-3" points="269.75 431.5 32.05 431.5 31.86 425.81 269.75 425.81 269.75 431.5"/>
  <path class="cls-2" d="M0,18.96C18.96,9.48,18.96,0,18.96,0h530.96s0,9.48,18.96,18.96H0Z"/>
  <path class="cls-1" d="M15.55,7.21l524.89-2.47L18.2,2.94c-.47,1.14-1.33,2.65-2.65,4.27Z"/>
  <path class="cls-1" d="M7.49,14.6l542.44-.38L12.61,10.43c-1.33,1.33-3.03,2.65-5.12,4.17Z"/>
  <path class="cls-3" d="M64,106.67c0,1.99-.28,3.51-.76,4.46-.47.95-1.33,1.52-2.65,1.71-1.33.19-3.13.09-5.5-.28v6.07c4.08.66,7.21.66,9.58,0s4.08-1.99,5.03-3.98c1.04-1.99,1.52-4.74,1.52-8.15v-39.54h-7.21v39.73Z"/>
  <path class="cls-3" d="M108.18,69.12c-2.84-1.71-6.26-2.56-10.24-2.56s-7.3.85-10.15,2.56c-2.84,1.71-5.03,4.17-6.64,7.3-1.52,3.13-2.28,6.92-2.28,11.28s.76,8.06,2.28,11.28c1.52,3.13,3.79,5.59,6.64,7.3s6.26,2.56,10.15,2.56,7.4-.85,10.24-2.56,5.03-4.17,6.64-7.3c1.52-3.13,2.37-6.92,2.37-11.28s-.76-8.06-2.28-11.19c-1.71-3.22-3.89-5.69-6.73-7.4ZM106.67,98.99c-2.09,2.65-5.03,3.89-8.72,3.89s-6.54-1.33-8.63-3.89c-2.09-2.65-3.13-6.35-3.13-11.38s1.04-8.72,3.13-11.28,5.03-3.89,8.63-3.89,6.64,1.33,8.72,3.89c2.09,2.56,3.13,6.35,3.13,11.28s-1.04,8.82-3.13,11.38Z"/>
  <polygon class="cls-3" points="147.25 67.03 135.59 85.71 123.92 67.03 115.58 67.03 131.98 91.97 131.98 108.37 139.28 108.37 139.28 92.07 155.59 67.03 147.25 67.03"/>
  <path class="cls-3" d="M175.22,67.03h-17.45v41.34h7.3v-17.26h10.15c4.27,0,7.68-1.04,10.05-3.22,2.47-2.18,3.6-5.12,3.6-8.72s-1.23-6.64-3.6-8.82c-2.28-2.18-5.69-3.32-10.05-3.32ZM180.05,83.72c-1.23,1.04-3.13,1.61-5.69,1.61h-9.29v-12.42h9.29c2.56,0,4.55.57,5.78,1.61,1.23,1.04,1.9,2.56,1.9,4.65-.09,1.99-.66,3.51-1.99,4.55Z"/>
  <rect class="cls-3" x="195.41" y="67.03" width="7.3" height="41.34"/>
  <polygon class="cls-3" points="245 67.03 236.47 67.03 226.04 81.83 215.61 67.03 207.08 67.03 221.87 87.32 206.51 108.37 215.04 108.37 226.04 92.92 237.04 108.37 245.48 108.37 230.12 87.42 245 67.03"/>
  <polygon class="cls-3" points="249.36 108.37 276.2 108.37 276.2 102.49 256.47 102.49 256.47 90.36 275.06 90.36 275.06 84.39 256.47 84.39 256.47 72.91 276.2 72.91 276.2 67.03 249.36 67.03 249.36 108.37"/>
  <polygon class="cls-3" points="290.23 67.03 282.93 67.03 282.93 108.37 309 108.37 309 102.21 290.23 102.21 290.23 67.03"/>
  <path class="cls-3" d="M342.57,92.16c-.66-1.23-1.61-2.37-2.94-3.22-1.33-.95-2.84-1.71-4.65-2.37-1.8-.66-3.89-1.23-6.26-1.71-1.99-.47-3.7-1.04-5.03-1.52s-2.28-1.14-2.84-1.9c-.66-.76-.95-1.71-.95-2.75,0-1.9.76-3.41,2.28-4.55,1.52-1.04,3.6-1.61,6.16-1.61,2.18,0,4.17.38,6.16,1.04,1.99.76,3.89,1.8,5.69,3.32l2.47-5.5c-1.14-1.04-2.37-1.9-3.89-2.65s-3.13-1.23-4.93-1.61-3.6-.57-5.5-.57c-3.13,0-5.88.57-8.15,1.61s-4.08,2.56-5.4,4.46-1.9,4.08-1.9,6.54c0,1.8.28,3.32.95,4.65.66,1.33,1.52,2.37,2.75,3.32s2.75,1.71,4.55,2.37,3.89,1.23,6.26,1.71c1.99.47,3.7.95,5.03,1.42,1.33.47,2.37,1.14,3.03,1.8.66.76,1.04,1.61,1.04,2.65,0,1.8-.76,3.22-2.28,4.27s-3.7,1.52-6.45,1.52c-2.56,0-4.84-.38-6.92-1.04s-4.17-1.8-6.26-3.32l-2.47,5.4c1.23,1.04,2.65,1.9,4.36,2.65,1.61.76,3.41,1.33,5.31,1.61,1.9.38,3.89.57,5.97.57,3.32,0,6.16-.47,8.53-1.52,2.37-.95,4.27-2.37,5.5-4.27,1.33-1.8,1.9-3.98,1.9-6.45-.19-1.61-.47-3.13-1.14-4.36Z"/>
  <path class="cls-3" d="M387.22,69.03c-3.03-1.61-6.64-2.37-11-2.37h-13.46v41.34h13.46c4.27,0,7.87-.85,10.9-2.47s5.31-3.98,6.92-7.02,2.37-6.83,2.37-11.19-.76-8.06-2.37-11.19-3.79-5.5-6.83-7.11ZM387.7,99.65c-2.65,2.75-6.54,4.17-11.76,4.17h-8.63v-33.19h8.63c10.43,0,15.64,5.5,15.64,16.5,0,5.59-1.23,9.77-3.89,12.52Z"/>
  <path class="cls-3" d="M417.66,66.65l-17.73,41.34h4.84l4.46-10.62h21.05l4.46,10.62h4.74l-17.73-41.34s-4.08,0-4.08,0ZM410.83,93.39l8.91-21.24,8.82,21.24h-17.73Z"/>
  <rect class="cls-3" x="445.44" y="66.65" width="4.65" height="41.34"/>
  <polygon class="cls-3" points="464.69 66.65 460.04 66.65 460.04 107.9 484.88 107.9 484.88 103.82 464.69 103.82 464.69 66.65"/>
  <polygon class="cls-3" points="514.18 66.65 508.87 66.65 496.07 86.95 483.27 66.65 477.87 66.65 493.7 91.12 493.7 107.9 498.35 107.9 498.35 91.21 514.18 66.65"/>
</svg>