<?xml version="1.0" encoding="UTF-8"?>
<svg id="Layer_1" data-name="Layer 1" xmlns="http://www.w3.org/2000/svg" xmlns:xlink="http://www.w3.org/1999/xlink" viewBox="0 0 476.33 512">
  <defs>
    <style>
      .cls-1 {
        fill: url(#linear-gradient-5);
      }

      .cls-2 {
        fill: url(#linear-gradient-6);
      }

      .cls-3 {
        fill: url(#linear-gradient-4);
      }

      .cls-4 {
        fill: url(#linear-gradient-3);
      }

      .cls-5 {
        fill: url(#linear-gradient-2);
      }

      .cls-6 {
        fill: url(#radial-gradient);
      }

      .cls-7 {
        fill: url(#linear-gradient);
      }

      .cls-8 {
        fill: #a7adb3;
      }

      .cls-9 {
        fill: #e81c27;
      }

      .cls-10 {
        fill: #302c3b;
      }
    </style>
    <linearGradient id="linear-gradient" x1="238.17" y1="3.23" x2="238.17" y2="515.23" gradientTransform="translate(0 515.23) scale(1 -1)" gradientUnits="userSpaceOnUse">
      <stop offset="0" stop-color="#3ab0a2"/>
      <stop offset="1" stop-color="#28edd5"/>
    </linearGradient>
    <linearGradient id="linear-gradient-2" x1="238.74" y1="71.66" x2="238.74" y2="482.86" gradientTransform="translate(0 515.23) scale(1 -1)" gradientUnits="userSpaceOnUse">
      <stop offset="0" stop-color="#cfd8dd"/>
      <stop offset="1" stop-color="#fff"/>
    </linearGradient>
    <linearGradient id="linear-gradient-3" x1="238.72" y1="88.11" x2="238.72" y2="466.41" gradientTransform="translate(0 515.23) scale(1 -1)" gradientUnits="userSpaceOnUse">
      <stop offset="0" stop-color="#fff"/>
      <stop offset="1" stop-color="#cfd8dd"/>
    </linearGradient>
    <linearGradient id="linear-gradient-4" x1="238.58" y1="136.66" x2="238.58" y2="417.67" gradientTransform="translate(0 515.23) scale(1 -1)" gradientUnits="userSpaceOnUse">
      <stop offset="0" stop-color="#cfd8dd"/>
      <stop offset="1" stop-color="#fff"/>
    </linearGradient>
    <radialGradient id="radial-gradient" cx="167.98" cy="-1121.86" fx="-277.6" fy="-1121.86" r="476.84" gradientTransform="translate(0 515.23) scale(1 -1)" gradientUnits="userSpaceOnUse">
      <stop offset=".07" stop-color="#302c3b" stop-opacity=".4"/>
      <stop offset="1" stop-color="#302c3b" stop-opacity="0"/>
    </radialGradient>
    <linearGradient id="linear-gradient-5" x1="238.17" y1="152.43" x2="238.17" y2="401.5" gradientTransform="translate(0 515.23) scale(1 -1)" gradientUnits="userSpaceOnUse">
      <stop offset="0" stop-color="#666b6e"/>
      <stop offset="0" stop-color="#676c6f"/>
      <stop offset=".2" stop-color="#878e91"/>
      <stop offset=".39" stop-color="#a0a9ac"/>
      <stop offset=".59" stop-color="#b3bcc0"/>
      <stop offset=".79" stop-color="#bdc7cb"/>
      <stop offset="1" stop-color="#c1cbcf"/>
    </linearGradient>
    <linearGradient id="linear-gradient-6" x1="238.13" y1="152.43" x2="238.13" y2="401.5" gradientTransform="translate(0 515.23) scale(1 -1)" gradientUnits="userSpaceOnUse">
      <stop offset="0" stop-color="#8f9699"/>
      <stop offset=".04" stop-color="#9aa1a4"/>
      <stop offset=".1" stop-color="#b8bec1"/>
      <stop offset=".18" stop-color="#e6ebed"/>
      <stop offset=".19" stop-color="#e6ebed"/>
      <stop offset=".82" stop-color="#e6ebed"/>
      <stop offset=".82" stop-color="#e3e9eb"/>
      <stop offset=".85" stop-color="#d8dfe3"/>
      <stop offset=".89" stop-color="#d1dade"/>
      <stop offset="1" stop-color="#cfd8dd"/>
    </linearGradient>
  </defs>
  <path class="cls-7" d="M476.08,238.48c1.51-33.15-3.77-64.05-15.82-92.68-12.06-28.63-29.2-53.97-51.43-76.01-22.23-22.04-48.04-39.18-77.42-51.43C302.03,6.12,270.94,0,238.17,0s-63.86,6.12-93.25,18.37c-29.39,12.24-55.19,29.39-77.42,51.43-22.23,22.04-39.37,47.38-51.43,76.01C4.02,174.43-1.26,205.33.25,238.48c.38,12.43,1.41,28.35,3.11,47.75,1.7,19.4,3.67,39.84,5.93,61.32,2.26,21.47,4.43,41.63,6.5,60.47,2.07,18.84,3.77,34.19,5.09,46.06,1.32,11.87,1.98,17.8,1.98,17.8,1.13,11.3,5.84,20.82,14.13,28.54,8.29,7.72,18.27,11.59,29.95,11.59h342.46c11.68,0,21.66-3.86,29.95-11.59,8.29-7.72,13-17.24,14.13-28.54,0,0,.66-5.93,1.98-17.8,1.32-11.87,3.01-27.22,5.09-46.06,2.07-18.84,4.24-38.99,6.5-60.47,2.26-21.47,4.24-41.91,5.93-61.32,1.7-19.4,2.73-35.32,3.11-47.75" vector-effect="none"/>
  <path class="cls-5" d="M447.55,237.97c0-55.68-20.35-103.87-61.04-144.56-40.69-40.69-91.02-61.04-150.98-61.04-55.68,0-103.87,20.35-144.56,61.04-40.69,40.69-61.04,88.88-61.04,144.56s20.35,103.87,61.04,144.56c40.69,40.69,88.88,61.04,144.56,61.04,59.97,0,110.29-20.35,150.98-61.04,40.69-40.69,61.04-88.88,61.04-144.56" vector-effect="none"/>
  <path class="cls-4" d="M430.82,237.97c0-51.23-18.72-95.56-56.15-133-37.44-37.44-83.74-56.15-138.91-56.15-51.23,0-95.56,18.72-133,56.15-37.44,37.44-56.15,81.77-56.15,133s18.72,95.56,56.15,133c37.44,37.44,81.77,56.15,133,56.15,55.17,0,101.47-18.72,138.91-56.15,37.44-37.44,56.15-81.77,56.15-133" vector-effect="none"/>
  <path class="cls-8" d="M384.76,238.06c0-38.98-14.24-72.71-42.73-101.19-28.48-28.48-63.71-42.73-105.69-42.73-38.98,0-72.71,14.24-101.19,42.73-28.48,28.48-42.73,62.21-42.73,101.19s14.24,72.71,42.73,101.19c28.48,28.48,62.21,42.73,101.19,42.73,41.98,0,77.21-14.24,105.69-42.73,28.48-28.48,42.73-62.21,42.73-101.19" vector-effect="none"/>
  <path class="cls-3" d="M381.28,238.07c0-38.05-13.9-70.98-41.71-98.79-27.81-27.81-62.2-41.71-103.18-41.71-38.05,0-70.98,13.9-98.79,41.71-27.81,27.81-41.71,60.74-41.71,98.79s13.9,70.99,41.71,98.79c27.81,27.81,60.74,41.71,98.79,41.71,40.98,0,75.38-13.9,103.18-41.71,27.81-27.81,41.71-60.74,41.71-98.79" vector-effect="none"/>
  <path class="cls-9" d="M255.69,55.95h-35.04l17.52,29.39,17.52-29.39" vector-effect="none"/>
  <path class="cls-10" d="M146.62,396.72c3.01,1.51,6.03,1.79,9.04.85,3.01-.94,5.27-2.73,6.78-5.37,1.88-3.01,2.35-6.03,1.41-9.04-.94-3.01-2.73-5.27-5.37-6.78-2.64-1.51-5.56-1.88-8.76-1.13-3.2.75-5.56,2.45-7.06,5.09-1.51,3.01-1.88,6.03-1.13,9.04.75,3.01,2.45,5.46,5.09,7.35M317.85,100.59c2.64,1.51,5.56,1.79,8.76.85s5.56-2.73,7.06-5.37c1.51-3.01,1.88-6.03,1.13-9.04-.75-3.01-2.45-5.27-5.09-6.78-3.01-1.51-6.03-1.88-9.04-1.13-3.01.75-5.27,2.64-6.78,5.65-1.88,2.64-2.35,5.46-1.41,8.48.94,3.01,2.73,5.46,5.37,7.35M84.45,313.64c-3.01,1.88-4.9,4.33-5.65,7.35-.75,3.01-.38,5.84,1.13,8.48,1.51,3.01,3.86,4.9,7.06,5.65,3.2.75,6.12.38,8.76-1.13,3.01-1.88,4.9-4.33,5.65-7.35s.38-5.84-1.13-8.48c-1.51-3.01-3.86-4.9-7.06-5.65s-6.12-.38-8.76,1.13M380.58,142.98c-3.01,1.51-4.9,3.86-5.65,7.06-.75,3.2-.38,6.12,1.13,8.76,1.51,2.64,3.86,4.33,7.06,5.09,3.2.75,6.12.38,8.76-1.13,2.64-1.51,4.43-3.86,5.37-7.06.94-3.2.66-6.12-.85-8.76-1.51-2.64-3.86-4.33-7.06-5.09s-6.12-.38-8.76,1.13M67.5,226.61c-3.39,0-6.22,1.13-8.48,3.39s-3.39,5.09-3.39,8.48c0,3.01,1.13,5.65,3.39,7.91,2.26,2.26,5.09,3.39,8.48,3.39,3.01,0,5.65-1.13,7.91-3.39,2.26-2.26,3.39-4.9,3.39-7.91,0-3.39-1.13-6.22-3.39-8.48-2.26-2.26-4.9-3.39-7.91-3.39M409.4,226.61c-3.39,0-6.22,1.13-8.48,3.39-2.26,2.26-3.39,5.09-3.39,8.48,0,3.01,1.13,5.65,3.39,7.91s5.09,3.39,8.48,3.39c3.01,0,5.65-1.13,7.91-3.39s3.39-4.9,3.39-7.91c0-3.39-1.13-6.22-3.39-8.48-2.26-2.26-4.9-3.39-7.91-3.39M95.76,142.98c-2.64-1.51-5.56-1.88-8.76-1.13-3.2.75-5.56,2.45-7.06,5.09-1.51,3.01-1.88,6.03-1.13,9.04.75,3.01,2.64,5.27,5.65,6.78,2.64,1.51,5.56,1.88,8.76,1.13s5.56-2.45,7.06-5.09c1.51-3.01,1.88-6.03,1.13-9.04s-2.64-5.27-5.65-6.78M391.88,313.64c-2.64-1.51-5.56-1.88-8.76-1.13-3.2.75-5.56,2.64-7.06,5.65-1.51,2.64-1.88,5.46-1.13,8.48s2.64,5.46,5.65,7.35c2.64,1.51,5.56,1.88,8.76,1.13,3.2-.75,5.56-2.64,7.06-5.65,1.51-2.64,1.88-5.46,1.13-8.48-.75-3.01-2.64-5.46-5.65-7.35M146.62,80.25c-2.64,1.51-4.33,3.86-5.09,7.06s-.38,6.12,1.13,8.76c1.88,2.64,4.33,4.43,7.35,5.37,3.01.94,5.84.66,8.48-.85,2.64-1.88,4.43-4.33,5.37-7.35.94-3.01.47-5.84-1.41-8.48-1.51-3.01-3.77-4.9-6.78-5.65-3.01-.75-6.03-.38-9.04,1.13M333.67,380.89c-1.51-3.01-3.86-4.9-7.06-5.65-3.2-.75-6.12-.38-8.76,1.13-2.64,1.51-4.43,3.86-5.37,7.06-.94,3.2-.47,6.12,1.41,8.76,1.51,2.64,3.77,4.43,6.78,5.37,3.01.94,6.03.66,9.04-.85,2.64-1.88,4.33-4.33,5.09-7.35.75-3.01.38-5.84-1.13-8.48M238.17,397.85c-3.01,0-5.65,1.13-7.91,3.39-2.26,2.26-3.39,4.9-3.39,7.91,0,3.39,1.13,6.22,3.39,8.48,2.26,2.26,4.9,3.39,7.91,3.39s5.65-1.13,7.91-3.39c2.26-2.26,3.39-5.09,3.39-8.48,0-3.01-1.13-5.65-3.39-7.91-2.26-2.26-4.9-3.39-7.91-3.39" vector-effect="none"/>
  <path class="cls-6" d="M476.08,238.48s-2.64-4.24-7.91-12.71c-5.27-8.48-13.66-18.84-25.15-31.08-11.49-12.24-26.47-24.58-44.93-37.02-18.46-12.43-40.97-22.89-67.53-31.36-26.56-8.48-57.36-12.72-92.4-12.72l-41.25,215.31-129.98,183.1h342.46c11.68,0,21.66-3.86,29.95-11.59,8.29-7.72,13-17.24,14.13-28.54,0,0,.66-5.93,1.98-17.8,1.32-11.87,3.01-27.22,5.09-46.06,2.07-18.84,4.24-38.99,6.5-60.47,2.26-21.47,4.24-41.91,5.93-61.32,1.7-19.4,2.73-35.32,3.11-47.75" vector-effect="none"/>
  <path class="cls-1" d="M279.42,152.58c0-10.55-2.73-18.84-8.19-24.87-5.46-6.03-12.34-10.08-20.63-12.15s-16.58-2.07-24.87,0-15.16,6.12-20.63,12.15c-5.46,6.03-8.19,14.32-8.19,24.87v176.32c0,9.04,2.73,16.29,8.19,21.76,5.46,5.46,12.34,9.14,20.63,11.02,8.29,1.88,16.58,1.88,24.87,0,8.29-1.88,15.16-5.56,20.63-11.02,5.46-5.46,8.19-12.72,8.19-21.76v-176.32" vector-effect="none"/>
  <path class="cls-2" d="M270.91,152.58c0-10.55-2.17-18.84-6.51-24.87-4.34-6.03-9.81-10.08-16.39-12.15-6.59-2.07-13.17-2.07-19.76,0-6.59,2.07-12.05,6.12-16.39,12.15-4.34,6.03-6.51,14.32-6.51,24.87v176.32c0,9.04,2.17,16.29,6.51,21.76,4.34,5.46,9.81,9.14,16.39,11.02,6.59,1.88,13.17,1.88,19.76,0,6.59-1.88,12.05-5.56,16.39-11.02,4.34-5.46,6.51-12.72,6.51-21.76v-176.32" vector-effect="none"/>
  <path class="cls-9" d="M220.65,155.97h35.04l-17.52-29.39-17.52,29.39" vector-effect="none"/>
</svg>