<?xml version="1.0" encoding="UTF-8"?>
<svg id="Layer_1" data-name="Layer 1" xmlns="http://www.w3.org/2000/svg" xmlns:xlink="http://www.w3.org/1999/xlink" viewBox="0 0 512 512">
  <defs>
    <style>
      .cls-1 {
        fill: #6e8189;
      }

      .cls-2 {
        fill: url(#radial-gradient-3);
      }

      .cls-3 {
        fill: url(#radial-gradient-2);
      }

      .cls-4 {
        fill: url(#linear-gradient-4);
      }

      .cls-5 {
        fill: url(#linear-gradient-3);
      }

      .cls-6 {
        fill: url(#linear-gradient-2);
      }

      .cls-7 {
        fill: url(#radial-gradient);
      }

      .cls-8 {
        fill: #99a8ae;
      }

      .cls-9 {
        fill: url(#linear-gradient);
      }

      .cls-10 {
        fill: #4e5e67;
      }

      .cls-11 {
        fill: #302c3b;
      }
    </style>
    <linearGradient id="linear-gradient" x1="230.41" y1="467.33" x2="281.61" y2="467.33" gradientTransform="translate(0 510) scale(1 -1)" gradientUnits="userSpaceOnUse">
      <stop offset="0" stop-color="#cfd8dd"/>
      <stop offset="1" stop-color="#717b80"/>
    </linearGradient>
    <linearGradient id="linear-gradient-2" x1="92.19" y1="75.04" x2="136.54" y2="49.44" gradientTransform="translate(0 510) scale(1 -1)" gradientUnits="userSpaceOnUse">
      <stop offset="0" stop-color="#cfd8dd"/>
      <stop offset=".18" stop-color="#cad3d8"/>
      <stop offset=".4" stop-color="#bac3c8"/>
      <stop offset=".65" stop-color="#a1aaaf"/>
      <stop offset=".92" stop-color="#7e888d"/>
      <stop offset="1" stop-color="#717b80"/>
    </linearGradient>
    <linearGradient id="linear-gradient-3" x1="375.47" y1="49.43" x2="419.81" y2="75.03" gradientTransform="translate(0 510) scale(1 -1)" gradientUnits="userSpaceOnUse">
      <stop offset="0" stop-color="#cfd8dd"/>
      <stop offset=".18" stop-color="#cad3d8"/>
      <stop offset=".4" stop-color="#bac3c8"/>
      <stop offset=".65" stop-color="#a1aaaf"/>
      <stop offset=".92" stop-color="#7e888d"/>
      <stop offset="1" stop-color="#717b80"/>
    </linearGradient>
    <radialGradient id="radial-gradient" cx="256" cy="250.27" fx="256" fy="250.27" r="24.27" gradientTransform="translate(-2084.6307 2578.3497) scale(9.143 -9.143)" gradientUnits="userSpaceOnUse">
      <stop offset=".52" stop-color="#ff000e"/>
      <stop offset=".66" stop-color="#fb000d"/>
      <stop offset=".8" stop-color="#f0000a"/>
      <stop offset=".93" stop-color="#dc0004"/>
      <stop offset="1" stop-color="#cf0000"/>
    </radialGradient>
    <radialGradient id="radial-gradient-2" cx="272.57" cy="275.12" fx="272.57" fy="275.12" r="9.33" gradientTransform="translate(-2084.6307 2578.3497) scale(9.143 -9.143)" gradientUnits="userSpaceOnUse">
      <stop offset="0" stop-color="#ff000e"/>
      <stop offset=".29" stop-color="#fb000d"/>
      <stop offset=".58" stop-color="#f0000a"/>
      <stop offset=".85" stop-color="#dc0004"/>
      <stop offset="1" stop-color="#cf0000"/>
    </radialGradient>
    <radialGradient id="radial-gradient-3" cx="232.44" cy="275.93" fx="232.44" fy="275.93" r="10.65" gradientTransform="translate(-2084.6307 2578.3497) scale(9.143 -9.143)" gradientUnits="userSpaceOnUse">
      <stop offset="0" stop-color="#ff000e"/>
      <stop offset=".29" stop-color="#fb000d"/>
      <stop offset=".58" stop-color="#f0000a"/>
      <stop offset=".85" stop-color="#dc0004"/>
      <stop offset="1" stop-color="#cf0000"/>
    </radialGradient>
    <linearGradient id="linear-gradient-4" x1="256" y1="49.19" x2="256" y2="390.55" gradientTransform="translate(0 510) scale(1 -1)" gradientUnits="userSpaceOnUse">
      <stop offset="0" stop-color="#cdd6db"/>
      <stop offset=".26" stop-color="#dee4e7"/>
      <stop offset=".72" stop-color="#f6f8f9"/>
      <stop offset="1" stop-color="#fff"/>
    </linearGradient>
  </defs>
  <rect class="cls-1" x="238.94" y="42.67" width="34.13" height="51.2"/>
  <path class="cls-9" d="M281.61,59.73h-51.19v-24.13c0-13.34,51.19-13.34,51.19,0v24.13Z"/>
  <path class="cls-8" d="M465.92,22.47l-141.74,141.84,23.64,23.63L489.56,46.1c15.74-15.76-7.87-39.41-23.64-23.63Z"/>
  <path class="cls-8" d="M22.46,46.09l141.84,141.74,23.63-23.63L46.09,22.47c-15.77-15.75-39.41,7.87-23.63,23.63Z"/>
  <path class="cls-6" d="M66.59,479.3l59.73-103.44,44.35,25.59-59.74,103.44c-11.37,19.71-55.73-5.88-44.34-25.59Z"/>
  <path class="cls-5" d="M401.08,504.91l-59.74-103.46,44.33-25.59,59.73,103.46c11.39,19.71-32.95,45.3-44.33,25.59Z"/>
  <circle class="cls-7" cx="256.01" cy="290.13" r="221.87"/>
  <circle class="cls-11" cx="256.01" cy="290.13" r="187.73"/>
  <circle class="cls-8" cx="256.01" cy="290.13" r="179.2"/>
  <path class="cls-3" d="M342.31,30.34c-13.84,13.84,125.52,153.22,139.36,139.36,92.34-92.34-47.02-231.7-139.36-139.36Z"/>
  <path class="cls-2" d="M169.71,30.34C77.37-62.01-62.01,77.35,30.34,169.7c13.85,13.84,153.21-125.52,139.38-139.36Z"/>
  <path class="cls-4" d="M426.67,290.13c0,94.26-76.45,170.68-170.66,170.68s-170.67-76.43-170.67-170.68,76.4-170.67,170.67-170.67c94.22,0,170.66,76.42,170.66,170.67Z"/>
  <rect class="cls-11" x="383.45" y="288.14" width="31.84" height="3.99"/>
  <rect class="cls-11" x="96.72" y="288.14" width="31.86" height="3.99"/>
  <rect class="cls-11" x="254.03" y="417.57" width="3.99" height="31.85"/>
  <path id="diamond" class="cls-8" d="M214.56,197.36l2.31,2.32s.08.09.08.16c0,.05-.04.11-.08.16l-2.31,2.34s-.13.05-.19.05c-.05,0-.09-.02-.15-.05l-2.35-2.34c-.08-.1-.08-.22,0-.31l2.35-2.32c.1-.1.24-.1.34,0Z"/>
  <path id="pixels" class="cls-8" d="M250.38,203.88c3.45,0,6.31,2.92,6.31,6.67s-2.86,6.67-6.31,6.67c-2,0-3.47-.83-4.44-2.15v6.3c.02.19-.04.33-.13.46-.13.07-.28.15-.45.13h-1.57c-.19.02-.34-.05-.43-.13-.11-.13-.18-.27-.16-.46v-16.57c-.02-.17.05-.31.16-.43.09-.11.24-.18.43-.16h1.57c.16-.03.32.05.45.16.09.12.15.25.15.43v1.24c.96-1.34,2.45-2.17,4.43-2.17h0ZM249.95,214.63c2.25,0,3.99-1.7,3.99-4.04s-1.73-4.07-3.99-4.07-4,1.69-4,4.05c0,2.34,1.73,4.06,4,4.06ZM258.83,216.9c-.16.03-.3-.03-.42-.15-.12-.13-.16-.27-.14-.42v-11.53c-.02-.18.02-.31.14-.44s.27-.17.42-.15h1.61c.13-.03.3.02.41.15s.16.26.16.44v11.51c0,.16-.05.32-.16.45-.11.09-.28.15-.41.13h-1.61ZM272.76,216.23c.25.38.09.68-.35.68h-1.67c-.28,0-.56-.15-.68-.37l-2.48-3.88-2.48,3.88c-.15.22-.42.37-.69.37h-1.65c-.47,0-.64-.29-.37-.68l3.73-5.85-3.5-5.45c-.24-.39-.08-.69.38-.69h1.66c.28-.02.53.14.69.38l2.22,3.49,2.25-3.49c.13-.25.39-.4.68-.38h1.65c.47,0,.61.29.38.69l-3.5,5.45,3.72,5.85ZM279.47,203.9c3.79,0,6.27,3.05,6.27,6.7,0,.22,0,.42-.02.61,0,.16-.07.28-.18.4-.11.08-.27.16-.43.14h-9.44c.42,2.08,1.96,3.13,3.89,3.13,1.04.05,2.09-.39,2.76-1.2.17-.22.42-.32.69-.35h1.63c.44,0,.66.27.48.61-.93,2.08-2.97,3.31-5.57,3.31-4.07,0-6.69-2.87-6.69-6.67s2.68-6.72,6.63-6.72v.03h-.02ZM275.64,209.5h7.34c-.36-2.15-1.89-3.1-3.54-3.1-2.04,0-3.43,1.22-3.8,3.1h0ZM287.76,216.9c-.18.03-.32-.03-.44-.15-.12-.13-.16-.27-.16-.42v-17.11c0-.16.04-.32.16-.42.12-.12.26-.17.44-.15h1.58c.16-.03.31.03.42.15.12.1.18.27.15.42v17.12c.04.16-.03.29-.15.42-.11.12-.27.17-.42.15h-1.58ZM294.52,207.78c0,2.56,7.02.71,7.02,5.56,0,2.49-2.18,3.89-4.98,3.89-2.57,0-4.64-1.25-4.93-3.64-.05-.19.02-.34.13-.47.09-.12.27-.19.43-.15h1.57c.36,0,.47.18.6.52.21.89,1.09,1.27,2.19,1.27,1.33,0,2.25-.47,2.25-1.42,0-2.53-7.02-.73-7.02-5.56,0-2.47,2.16-3.89,4.76-3.89,2.36,0,4.39,1.25,4.7,3.65.04.16,0,.34-.15.44-.11.15-.27.18-.42.16h-1.58c-.32,0-.48-.18-.59-.51-.2-.92-1.05-1.26-1.97-1.26-1.11,0-2.03.47-2.03,1.41Z"/>
  <path id="joy" class="cls-8" d="M215.1,204.22c.16-.03.31.02.43.16.11.12.17.25.13.43v12.59c0,3.31-1.54,4.95-4.59,4.92-.16.03-.34-.05-.46-.16-.08-.11-.14-.27-.14-.42v-1.51c0-.16.05-.32.14-.42.12-.12.29-.17.46-.17,1.26-.03,1.86-.68,1.86-2.24v-12.58c-.02-.18.04-.31.16-.43.11-.14.26-.18.41-.16,0,0,1.6,0,1.6,0ZM223.92,217.22c-3.69-.03-6.65-3-6.63-6.68,0-3.66,3-6.66,6.67-6.66s6.66,3,6.66,6.67c.03,1.77-.69,3.48-1.96,4.74-1.24,1.24-2.96,1.95-4.74,1.93ZM223.92,214.56c1.65.02,3.11-.94,3.73-2.43.64-1.51.3-3.25-.82-4.4-1.15-1.15-2.87-1.49-4.38-.86-1.5.59-2.47,2.06-2.47,3.68-.05,1.06.35,2.08,1.09,2.83.78.76,1.8,1.19,2.85,1.17ZM239.26,204.69c.04-.29.32-.49.64-.47h1.73c.39,0,.59.24.47.65l-5.73,16.61c-.07.31-.34.48-.64.47h-1.73c-.41,0-.6-.25-.47-.64l1.57-4.58-4.69-11.86c-.16-.38.05-.65.44-.65h1.73c.29-.05.57.16.64.44l3.24,8.27,2.81-8.24Z"/>
  <circle class="cls-11" cx="256.01" cy="290.11" r="22.75"/>
  <polygon class="cls-11" points="146.67 290.15 155.82 302.92 256.01 296.57 256.01 283.74 155.82 277.33 146.67 290.15"/>
  <polygon class="cls-11" points="256.01 124.51 243.21 135.96 249.61 288.14 262.44 288.14 268.81 135.96 256.01 124.51"/>
  <circle class="cls-10" cx="256.01" cy="290.13" r="11.37"/>
</svg>