<?xml version="1.0" encoding="UTF-8"?>
<svg id="Layer_1" data-name="Layer 1" xmlns="http://www.w3.org/2000/svg" xmlns:xlink="http://www.w3.org/1999/xlink" viewBox="0 0 512 512">
  <defs>
    <style>
      .cls-1 {
        fill: url(#linear-gradient-8);
      }

      .cls-2 {
        fill: url(#linear-gradient-7);
      }

      .cls-3 {
        fill: url(#linear-gradient-5);
      }

      .cls-4 {
        fill: url(#linear-gradient-6);
      }

      .cls-5 {
        fill: url(#linear-gradient-9);
      }

      .cls-6 {
        fill: url(#linear-gradient-4);
      }

      .cls-7 {
        fill: url(#linear-gradient-3);
      }

      .cls-8 {
        fill: url(#linear-gradient-2);
      }

      .cls-9 {
        fill: #99a8ae;
      }

      .cls-10 {
        fill: url(#linear-gradient);
      }

      .cls-11 {
        fill: url(#linear-gradient-10);
      }

      .cls-12 {
        fill: url(#linear-gradient-11);
      }
    </style>
    <linearGradient id="linear-gradient" x1="237.9" y1="506.5" x2="274.1" y2="470.3" gradientTransform="translate(0 514) scale(1 -1)" gradientUnits="userSpaceOnUse">
      <stop offset="0" stop-color="#4e5e67"/>
      <stop offset=".36" stop-color="#45505a"/>
      <stop offset="1" stop-color="#302c3b"/>
    </linearGradient>
    <linearGradient id="linear-gradient-2" x1="256.01" y1="365.63" x2="256.01" y2="459.48" gradientTransform="translate(0 514) scale(1 -1)" gradientUnits="userSpaceOnUse">
      <stop offset="0" stop-color="#717b80"/>
      <stop offset=".23" stop-color="#889499"/>
      <stop offset=".52" stop-color="#a0adb2"/>
      <stop offset=".79" stop-color="#aebdc1"/>
      <stop offset="1" stop-color="#b3c2c6"/>
    </linearGradient>
    <linearGradient id="linear-gradient-3" x1="238.93" y1="309.2" x2="273.07" y2="309.2" gradientTransform="translate(0 514) scale(1 -1)" gradientUnits="userSpaceOnUse">
      <stop offset="0" stop-color="#4e5e67"/>
      <stop offset=".37" stop-color="#3f4450"/>
      <stop offset=".74" stop-color="#343241"/>
      <stop offset="1" stop-color="#302c3b"/>
    </linearGradient>
    <linearGradient id="linear-gradient-4" x1="213.33" y1="101.34" x2="298.67" y2="101.34" gradientTransform="translate(0 514) scale(1 -1)" gradientUnits="userSpaceOnUse">
      <stop offset="0" stop-color="#4e5e67"/>
      <stop offset=".37" stop-color="#3f4450"/>
      <stop offset=".74" stop-color="#343241"/>
      <stop offset="1" stop-color="#302c3b"/>
    </linearGradient>
    <linearGradient id="linear-gradient-5" x1="119.47" y1="44.86" x2="392.53" y2="44.86" gradientTransform="translate(0 514) scale(1 -1)" gradientUnits="userSpaceOnUse">
      <stop offset="0" stop-color="#4e5e67"/>
      <stop offset=".37" stop-color="#3f4450"/>
      <stop offset=".74" stop-color="#343241"/>
      <stop offset="1" stop-color="#302c3b"/>
    </linearGradient>
    <linearGradient id="linear-gradient-6" x1="219.8" y1="183.27" x2="292.2" y2="110.86" gradientTransform="translate(0 514) scale(1 -1)" gradientUnits="userSpaceOnUse">
      <stop offset="0" stop-color="#4e5e67"/>
      <stop offset=".36" stop-color="#45505a"/>
      <stop offset="1" stop-color="#302c3b"/>
    </linearGradient>
    <linearGradient id="linear-gradient-7" x1="219.8" y1="456.34" x2="292.2" y2="383.93" gradientTransform="translate(0 514) scale(1 -1)" gradientUnits="userSpaceOnUse">
      <stop offset="0" stop-color="#4e5e67"/>
      <stop offset=".36" stop-color="#45505a"/>
      <stop offset="1" stop-color="#302c3b"/>
    </linearGradient>
    <linearGradient id="linear-gradient-8" x1="392.53" y1="357.2" x2="443.73" y2="357.2" gradientTransform="translate(0 514) scale(1 -1)" gradientUnits="userSpaceOnUse">
      <stop offset="0" stop-color="#4e5e67"/>
      <stop offset=".37" stop-color="#3f4450"/>
      <stop offset=".74" stop-color="#343241"/>
      <stop offset="1" stop-color="#302c3b"/>
    </linearGradient>
    <linearGradient id="linear-gradient-9" x1="68.27" y1="357.2" x2="119.47" y2="357.2" gradientTransform="translate(0 514) scale(1 -1)" gradientUnits="userSpaceOnUse">
      <stop offset="0" stop-color="#4e5e67"/>
      <stop offset=".37" stop-color="#3f4450"/>
      <stop offset=".74" stop-color="#343241"/>
      <stop offset="1" stop-color="#302c3b"/>
    </linearGradient>
    <linearGradient id="linear-gradient-10" x1="0" y1="135.33" x2="187.73" y2="135.33" gradientTransform="translate(0 514) scale(1 -1)" gradientUnits="userSpaceOnUse">
      <stop offset="0" stop-color="#d2dbe0"/>
      <stop offset="1" stop-color="#b3c2c6"/>
    </linearGradient>
    <linearGradient id="linear-gradient-11" x1="324.27" y1="135.33" x2="512" y2="135.33" gradientTransform="translate(0 514) scale(1 -1)" gradientUnits="userSpaceOnUse">
      <stop offset="0" stop-color="#d2dbe0"/>
      <stop offset="1" stop-color="#b3c2c6"/>
    </linearGradient>
  </defs>
  <circle class="cls-10" cx="256" cy="25.6" r="25.6"/>
  <path class="cls-8" d="M483.6,101.45c-56.1,51.88-120.41-46.93-227.6-46.93S84.52,153.34,28.41,101.45c-7.57-7.01-1.57,39.47,40.43,46.15,52.25,8.32,112.89-53.23,187.16-53.23s134.94,61.55,187.17,53.23c41.99-6.68,48.02-53.17,40.43-46.15Z"/>
  <rect class="cls-7" x="238.93" y="76.8" width="34.13" height="256"/>
  <polygon class="cls-6" points="256 392.53 213.33 392.53 213.33 432.79 256 432.79 298.67 432.79 298.67 392.53 256 392.53"/>
  <path class="cls-3" d="M362.18,466.88c0-22.6-47.55-40.6-106.19-40.6-53.46,0-97.58,14.98-104.96,34.75h0s0,.03-.02.05c-.3.82-.57,1.64-.74,2.47-.4,1.78-.45,3.06-.45,3.24-18.96,4.74-30.35,11.1-30.35,17.65v27.55h273.07v-27.55c0-6.53-11.49-12.84-30.35-17.56Z"/>
  <circle class="cls-4" cx="256" cy="366.93" r="51.2"/>
  <circle class="cls-2" cx="256" cy="93.87" r="51.2"/>
  <path class="cls-9" d="M170.67,370.13H17.07l76.8-238.93,76.8,238.93ZM36.83,353.48h114.07l-57.03-177.45-57.04,177.45Z"/>
  <path class="cls-9" d="M494.93,370.13h-153.6l76.8-238.93,76.8,238.93ZM361.08,353.48h114.07l-57.01-177.45-57.05,177.45Z"/>
  <circle class="cls-1" cx="418.13" cy="156.8" r="25.6"/>
  <circle class="cls-5" cx="93.87" cy="156.8" r="25.6"/>
  <path class="cls-11" d="M93.87,404.27c-51.83,0-93.87-22.92-93.87-51.2h187.73c0,28.28-42.04,51.2-93.87,51.2Z"/>
  <path class="cls-12" d="M418.13,404.27c-51.83,0-93.87-22.92-93.87-51.2h187.73c0,28.28-42.04,51.2-93.87,51.2Z"/>
</svg>