<?xml version="1.0" encoding="UTF-8"?>
<svg id="Layer_1" data-name="Layer 1" xmlns="http://www.w3.org/2000/svg" xmlns:xlink="http://www.w3.org/1999/xlink" viewBox="0 0 614.4 512">
  <defs>
    <style>
      .cls-1 {
        fill: url(#linear-gradient-8);
      }

      .cls-2 {
        fill: url(#linear-gradient-7);
      }

      .cls-3 {
        fill: url(#linear-gradient-5);
      }

      .cls-4 {
        fill: url(#linear-gradient-6);
      }

      .cls-5 {
        fill: url(#linear-gradient-9);
      }

      .cls-6 {
        fill: url(#linear-gradient-4);
      }

      .cls-7 {
        fill: url(#linear-gradient-3);
      }

      .cls-8 {
        fill: url(#linear-gradient-2);
      }

      .cls-9 {
        fill: #bff3ff;
      }

      .cls-10 {
        fill: url(#linear-gradient);
      }
    </style>
    <linearGradient id="linear-gradient" x1="307.2" y1="153.35" x2="456.91" y2="153.35" gradientTransform="translate(0 514) scale(1 -1)" gradientUnits="userSpaceOnUse">
      <stop offset="0" stop-color="#56e4ff"/>
      <stop offset=".07" stop-color="#47d3ff"/>
      <stop offset=".18" stop-color="#38c2ff"/>
      <stop offset=".31" stop-color="#2eb7ff"/>
      <stop offset=".49" stop-color="#28b0ff"/>
      <stop offset="1" stop-color="#26aeff"/>
    </linearGradient>
    <linearGradient id="linear-gradient-2" x1="307.2" y1="363.95" x2="456.91" y2="363.95" gradientTransform="translate(0 514) scale(1 -1)" gradientUnits="userSpaceOnUse">
      <stop offset="0" stop-color="#26aeff"/>
      <stop offset="1" stop-color="#56e4ff"/>
    </linearGradient>
    <linearGradient id="linear-gradient-3" x1="460.8" y1="2" x2="460.8" y2="381.68" gradientTransform="translate(0 514) scale(1 -1)" gradientUnits="userSpaceOnUse">
      <stop offset="0" stop-color="#57e5ff"/>
      <stop offset=".19" stop-color="#52e0fd"/>
      <stop offset=".42" stop-color="#45d2f8"/>
      <stop offset=".67" stop-color="#2fbaef"/>
      <stop offset=".92" stop-color="#1199e2"/>
      <stop offset="1" stop-color="#078ede"/>
    </linearGradient>
    <linearGradient id="linear-gradient-4" x1="436.14" y1="387.3" x2="614.4" y2="387.3" gradientTransform="translate(0 514) scale(1 -1)" gradientUnits="userSpaceOnUse">
      <stop offset="0" stop-color="#26aeff"/>
      <stop offset="1" stop-color="#56e4ff"/>
    </linearGradient>
    <linearGradient id="linear-gradient-5" x1="-267.74" y1="153.35" x2="-118.03" y2="153.35" gradientTransform="translate(39.46 514) rotate(-180)" gradientUnits="userSpaceOnUse">
      <stop offset="0" stop-color="#26aeff"/>
      <stop offset=".29" stop-color="#29b2ff"/>
      <stop offset=".55" stop-color="#33bdff"/>
      <stop offset=".8" stop-color="#43cfff"/>
      <stop offset="1" stop-color="#56e4ff"/>
    </linearGradient>
    <linearGradient id="linear-gradient-6" x1="-267.74" y1="363.95" x2="-118.03" y2="363.95" gradientTransform="translate(39.46 514) rotate(-180)" gradientUnits="userSpaceOnUse">
      <stop offset="0" stop-color="#26aeff"/>
      <stop offset="1" stop-color="#56e4ff"/>
    </linearGradient>
    <linearGradient id="linear-gradient-7" x1="39.46" y1="191.84" x2="-267.74" y2="191.84" gradientTransform="translate(39.46 514) rotate(-180)" gradientUnits="userSpaceOnUse">
      <stop offset="0" stop-color="#57e5ff"/>
      <stop offset=".19" stop-color="#52e0fd"/>
      <stop offset=".42" stop-color="#45d2f8"/>
      <stop offset=".67" stop-color="#2fbaef"/>
      <stop offset=".92" stop-color="#1199e2"/>
      <stop offset="1" stop-color="#078ede"/>
    </linearGradient>
    <linearGradient id="linear-gradient-8" x1="-138.8" y1="387.3" x2="39.46" y2="387.3" gradientTransform="translate(39.46 514) rotate(-180)" gradientUnits="userSpaceOnUse">
      <stop offset="0" stop-color="#26aeff"/>
      <stop offset="1" stop-color="#56e4ff"/>
    </linearGradient>
    <linearGradient id="linear-gradient-9" x1="307.2" y1="423.19" x2="307.2" y2="514" gradientTransform="translate(0 514) scale(1 -1)" gradientUnits="userSpaceOnUse">
      <stop offset="0" stop-color="#26aeff"/>
      <stop offset="1" stop-color="#56e4ff"/>
    </linearGradient>
  </defs>
  <polygon class="cls-10" points="307.2 512 307.2 209.3 456.91 209.3 307.2 512"/>
  <polygon class="cls-8" points="436.14 90.81 307.2 209.3 456.91 209.3 436.14 90.81"/>
  <polygon class="cls-7" points="307.2 512 614.4 132.32 456.91 209.3 307.2 512"/>
  <polygon class="cls-6" points="614.4 132.32 546.04 44.11 436.14 90.81 456.91 209.3 614.4 132.32"/>
  <polygon class="cls-9" points="436.14 90.81 546.04 44.11 546.04 165.74 436.14 90.81"/>
  <polygon class="cls-3" points="307.2 512 307.2 209.3 157.49 209.3 307.2 512"/>
  <polygon class="cls-4" points="178.26 90.81 307.2 209.3 157.49 209.3 178.26 90.81"/>
  <polygon class="cls-2" points="307.2 512 0 132.32 157.49 209.3 307.2 512"/>
  <polygon class="cls-1" points="0 132.32 68.36 44.11 178.26 90.81 157.49 209.3 0 132.32"/>
  <polygon class="cls-9" points="178.26 90.81 68.36 44.11 68.36 165.74 178.26 90.81"/>
  <polygon class="cls-9" points="178.26 90.81 307.2 209.3 436.14 90.81 178.26 90.81"/>
  <polygon class="cls-5" points="68.36 44.11 178.26 90.81 436.14 90.81 546.04 44.11 436.14 0 178.26 0 68.36 44.11"/>
</svg>