<?xml version="1.0" encoding="UTF-8"?>
<svg id="Layer_1" data-name="Layer 1" xmlns="http://www.w3.org/2000/svg" xmlns:xlink="http://www.w3.org/1999/xlink" viewBox="0 0 546.14 512">
  <defs>
    <style>
      .cls-1 {
        fill: url(#linear-gradient-8);
      }

      .cls-2 {
        fill: url(#linear-gradient-7);
      }

      .cls-3 {
        fill: url(#linear-gradient-5);
      }

      .cls-4 {
        fill: url(#linear-gradient-6);
      }

      .cls-5 {
        fill: url(#linear-gradient-4);
      }

      .cls-6 {
        fill: url(#linear-gradient-3);
      }

      .cls-7 {
        fill: url(#linear-gradient-2);
      }

      .cls-8 {
        fill: #1a1626;
      }

      .cls-9 {
        fill: #fff;
      }

      .cls-10 {
        fill: #3b322e;
      }

      .cls-11 {
        fill: url(#linear-gradient-9);
      }

      .cls-11, .cls-12 {
        isolation: isolate;
        opacity: .5;
      }

      .cls-13 {
        fill: url(#linear-gradient-10);
      }

      .cls-14 {
        fill: url(#linear-gradient-11);
      }

      .cls-15 {
        fill: #45332c;
      }

      .cls-16 {
        fill: #473d38;
      }

      .cls-12 {
        fill: url(#linear-gradient);
      }

      .cls-17 {
        fill: #574944;
      }
    </style>
    <linearGradient id="linear-gradient" x1="-324.13" y1="-350.12" x2="-343.44" y2="-241.15" gradientTransform="translate(206.93 -310.28) rotate(-56.31) scale(1 -1.13)" gradientUnits="userSpaceOnUse">
      <stop offset="0" stop-color="#224559" stop-opacity=".5"/>
      <stop offset=".1" stop-color="#34596f" stop-opacity=".55"/>
      <stop offset=".41" stop-color="#6893ac" stop-opacity=".71"/>
      <stop offset=".68" stop-color="#8dbdd9" stop-opacity=".84"/>
      <stop offset=".88" stop-color="#a4d7f5" stop-opacity=".94"/>
      <stop offset="1" stop-color="#ade1ff"/>
    </linearGradient>
    <linearGradient id="linear-gradient-2" x1="446.11" y1="132.33" x2="478.55" y2="221.45" gradientTransform="translate(-13.1 543.84) rotate(1.85) scale(1 -1)" gradientUnits="userSpaceOnUse">
      <stop offset="0" stop-color="#1a1626"/>
      <stop offset=".61" stop-color="#564949"/>
      <stop offset=".95" stop-color="#73615a"/>
    </linearGradient>
    <linearGradient id="linear-gradient-3" x1="966.81" y1="1996.23" x2="1005.42" y2="2102.32" gradientTransform="translate(-218.57 585.3) rotate(51.26) scale(.95 -.32) skewX(-18.13)" gradientUnits="userSpaceOnUse">
      <stop offset="0" stop-color="#1a1626"/>
      <stop offset=".61" stop-color="#564949"/>
      <stop offset=".95" stop-color="#73615a"/>
    </linearGradient>
    <linearGradient id="linear-gradient-4" x1="453.74" y1="273.98" x2="400.99" y2="117.42" gradientTransform="translate(-13.1 543.84) rotate(1.85) scale(1 -1)" gradientUnits="userSpaceOnUse">
      <stop offset="0" stop-color="#ffe600"/>
      <stop offset=".33" stop-color="#ffe300"/>
      <stop offset=".59" stop-color="#ffd900"/>
      <stop offset=".83" stop-color="#ffc800"/>
      <stop offset="1" stop-color="#ffb700"/>
    </linearGradient>
    <linearGradient id="linear-gradient-5" x1="357.2" y1="131.8" x2="412.74" y2="284.37" gradientTransform="translate(-13.1 543.84) rotate(1.85) scale(1 -1)" gradientUnits="userSpaceOnUse">
      <stop offset="0" stop-color="#1a1626"/>
      <stop offset=".61" stop-color="#564949"/>
      <stop offset=".95" stop-color="#73615a"/>
    </linearGradient>
    <linearGradient id="linear-gradient-6" x1="365.53" y1="303.2" x2="312.31" y2="145.22" gradientTransform="translate(-13.1 543.84) rotate(1.85) scale(1 -1)" gradientUnits="userSpaceOnUse">
      <stop offset="0" stop-color="#ffe600"/>
      <stop offset=".33" stop-color="#ffe300"/>
      <stop offset=".59" stop-color="#ffd900"/>
      <stop offset=".83" stop-color="#ffc800"/>
      <stop offset="1" stop-color="#ffb700"/>
    </linearGradient>
    <linearGradient id="linear-gradient-7" x1="268.83" y1="159.62" x2="326.49" y2="318.04" gradientTransform="translate(-13.1 543.84) rotate(1.85) scale(1 -1)" gradientUnits="userSpaceOnUse">
      <stop offset="0" stop-color="#1a1626"/>
      <stop offset=".61" stop-color="#564949"/>
      <stop offset=".95" stop-color="#73615a"/>
    </linearGradient>
    <linearGradient id="linear-gradient-8" x1="277.33" y1="331.9" x2="224.09" y2="173.87" gradientTransform="translate(-13.1 543.84) rotate(1.85) scale(1 -1)" gradientUnits="userSpaceOnUse">
      <stop offset="0" stop-color="#ffe600"/>
      <stop offset=".33" stop-color="#ffe300"/>
      <stop offset=".59" stop-color="#ffd900"/>
      <stop offset=".83" stop-color="#ffc800"/>
      <stop offset="1" stop-color="#ffb700"/>
    </linearGradient>
    <linearGradient id="linear-gradient-9" x1="140.55" y1="-162.75" x2="119.81" y2="-45.73" gradientTransform="translate(221.35 145.58) rotate(-29.33) scale(1 -1.13)" gradientUnits="userSpaceOnUse">
      <stop offset="0" stop-color="#224559" stop-opacity=".5"/>
      <stop offset=".1" stop-color="#34596f" stop-opacity=".55"/>
      <stop offset=".41" stop-color="#6893ac" stop-opacity=".71"/>
      <stop offset=".68" stop-color="#8dbdd9" stop-opacity=".84"/>
      <stop offset=".88" stop-color="#a4d7f5" stop-opacity=".94"/>
      <stop offset="1" stop-color="#ade1ff"/>
    </linearGradient>
    <linearGradient id="linear-gradient-10" x1="204.07" y1="156.33" x2="204.07" y2="328.26" gradientTransform="translate(0 514) scale(1 -1)" gradientUnits="userSpaceOnUse">
      <stop offset="0" stop-color="#e37900"/>
      <stop offset=".23" stop-color="#e88900"/>
      <stop offset=".67" stop-color="#f4b200"/>
      <stop offset="1" stop-color="#ffd500"/>
    </linearGradient>
    <linearGradient id="linear-gradient-11" x1="117.43" y1="220.23" x2="117.43" y2="359.56" gradientTransform="translate(0 514) scale(1 -1)" gradientUnits="userSpaceOnUse">
      <stop offset="0" stop-color="#1a1626"/>
      <stop offset=".61" stop-color="#564949"/>
      <stop offset=".95" stop-color="#73615a"/>
    </linearGradient>
  </defs>
  <path class="cls-12" d="M365.64,5.09c-83.03,39.09-121.01,165.42-190,283.77,20.82-5.78,45.51-37.15,85.88-72.21,0,0,41.38-29.61,107.77-78.06,20.42-28.75,66.57-166.58-3.64-133.51Z"/>
  <path class="cls-8" d="M253.97,455.24c-5.1-5.64-24.13-1.65-20.07,3.01,21.07,24.22,54.64,35.17,20.07-3.01Z"/>
  <path class="cls-8" d="M232.52,418.68c-14.3,4.06-12.54,15.36,1.41,40.71,1.13,2.11,24-1.66,22.09-5.14-11.87-22.02-9.87-39.43-23.5-35.58Z"/>
  <path class="cls-8" d="M221.69,427.1c-1.34,6.08,24.12,2.65,26.01-3.51,10.33-33.32,21.99-92.59,6.36-89.93-12.11,2.05-24.16,55.36-32.37,93.44Z"/>
  <path class="cls-7" d="M459.22,332.65l-40.48,85.96c19.97-7.68,34.73-8.69,34.73-8.69l22.39-27.78s-.72-20.58-16.64-49.49Z"/>
  <path class="cls-6" d="M475.87,382.13s-16.13,7.49-22.39,27.78c15.88,5.75,27.89,25.29,27.89,25.29,0,0,6.45-17.26-5.5-53.08Z"/>
  <path class="cls-5" d="M418.73,418.6c15.14-19.44,39.51-63.27,40.48-85.95,0,0-8.34-18-35.89-43.37l-55.71,131.19c19.97,1.65,36.9.62,51.12-1.88Z"/>
  <path class="cls-3" d="M367.62,420.48c26.57-24.39,56.25-94.02,55.71-131.2,0,0-13.42-13.17-39.5-26.31l-63.16,149.62c17.22,4.23,32.85,6.75,46.95,7.89Z"/>
  <path class="cls-4" d="M320.67,412.59c20.92-26.07,60.38-112.17,63.16-149.61-12.44-6.58-26.46-13.02-42.21-19.2l-65.49,155.11c15.91,5.81,30.75,10.31,44.54,13.7Z"/>
  <path class="cls-2" d="M270.66,396.9c1.86.71,3.64,1.29,5.46,1.98,27.93-26.85,66.95-117.72,65.49-155.11-1.77-.73-3.52-1.45-5.38-2.16-15.39-5.83-28.48-8.84-39.89-9.79l-61.68,146.05c8.95,6.79,20.63,13.17,36.01,19.03Z"/>
  <path class="cls-1" d="M234.66,377.87c32.21-41.78,58.91-108.43,61.68-146.05-73.46-6.03-116.31,104.59-61.68,146.05Z"/>
  <path class="cls-17" d="M305.82,486.1c-7.34-5.47-25.77,1.83-19.92,6.37,30.5,23.6,69.44,30.58,19.92-6.37Z"/>
  <path class="cls-16" d="M270.58,448.9c-13.53,6.68-7.7,18.92,15.78,44.87,1.92,2.14,24.42-5.51,21.24-9.07-20.12-22.55-24.15-42.14-37.02-35.8Z"/>
  <path class="cls-10" d="M262.21,459.88c.79,6.95,26.13-.75,25.94-7.86-.93-38.45-9.58-105.82-24.97-100.51-11.95,4.11-5.78,64.98-.97,108.37Z"/>
  <path class="cls-11" d="M517.08,78.8c-92-2.24-184.02,93.36-300.02,168.01,34.07,20.63,109.55-10.55,176.12-16.64,110.6-10.12,201.7-149.47,123.9-151.37Z"/>
  <path class="cls-8" d="M81.43,351.06c.92-5.22-7.37-11.95-8.19-7.71-4.28,22.06,1.92,43.11,8.19,7.71Z"/>
  <path class="cls-8" d="M91.38,322.53c-6.75-4.51-11.47,2.06-18.69,21.43-.59,1.6,8.91,10.19,9.9,7.55,6.33-16.7,15.2-24.68,8.79-28.98Z"/>
  <path class="cls-8" d="M83.75,321.83c-3.31,2.5,6.91,12.45,10.45,10.19,19.17-12.25,50.98-37.14,44.45-42.97-5.06-4.53-34.21,17.14-54.9,32.79Z"/>
  <path class="cls-8" d="M147.34,382.42c-1.23-5.16-11.55-8.12-10.62-3.91,4.9,21.94,18.99,38.89,10.62,3.91Z"/>
  <path class="cls-8" d="M145.09,352.35c-8.01-1.55-9.72,6.33-8.62,26.93.09,1.7,12.24,5.91,12.1,3.11-.82-17.81,4.13-28.57-3.48-30.04Z"/>
  <path class="cls-8" d="M137.81,354.66c-2.05,3.58,11.33,8.76,13.67,5.32,12.74-18.69,32.04-53.89,23.71-56.73-6.45-2.22-24.61,29.01-37.38,51.41Z"/>
  <path class="cls-13" d="M283.02,297.91c-7.48-1.72-12.01-4.7-12.01-4.7,3.84-8.09,9.8-12.88,14.81-15.63,10.24-5.64,9.85-4.09,4.37-12.5-10.82-16.53-29.01-23.72-29.01-23.72,4.09-.69,8.14-2.07,11.5-3.43,9.6-3.9,6.39-6.02,1.83-10.83-17.95-18.88-36.78-17.7-47.12-18.76,1.41-2.36,2.41-7.65,3.04-11.59.95-6.12.77-5.93-9.11-5.31-5.79.37-13.78,1.87-22.9,6.37,1.61-2.18,2.47-5.31,2.95-7.91.99-5.58-3.46-4.33-8.75-3.06-64.89,15.6-98.15,99.91-66.16,143.57,7.44,10.15,5.9,11.63,15.58,4.19,2.05-1.58,4.02-3.39,5.16-5.21,4.73,13.19,12.37,20.24,18.27,23.92,8.26,5.14,8.9,4.25,10.87-2.08,1.31-4.21,1.68-7.94,1.68-7.94,8.8,5.24,21.15,16.15,41.36,14.17,9.5-.92,10.05-.96,7.8-6.79-1.1-2.83-2.61-6.14-4.18-7.73,0,0,17.1,7.75,36.48-.7,10.33-4.48,12.34-4.36,4.89-10.57-2.43-2.01-5.32-3.99-7.64-4.39,14.98-2.59,24.13-10.04,29.5-16.64,8.45-10.44,7.79-10.15-3.22-12.69Z"/>
  <path class="cls-17" d="M159.86,393.65c-2.15-6.2-13.42-7.89-11.75-2.82,8.76,26.36,26.34,44.73,11.75,2.82Z"/>
  <path class="cls-16" d="M152.48,356.63c-8.63-.37-9.09,9.77-4.5,35.2.37,2.1,13.78,5.01,13.17,1.54-3.87-22.02-.46-36.39-8.67-36.74Z"/>
  <path class="cls-10" d="M145.25,360.92c-1.54,4.86,13.3,8.73,15.18,3.99,4.45-11.28,9.72-26.78,13.42-40.77-5.11-8.32-15.81-13.01-15.81-13.01,0,0-7.62,33.41-12.79,49.8Z"/>
  <path class="cls-17" d="M87.6,365.35c1.24-6.43-7.71-13.41-8.79-8.18-5.67,27.18.38,51.72,8.79,8.18Z"/>
  <path class="cls-16" d="M99.82,329.61c-7.31-4.53-12.83,4.04-21.64,28.37-.73,2.01,9.45,11.08,10.67,7.76,7.74-21.01,17.91-31.82,10.97-36.13Z"/>
  <path class="cls-10" d="M91.38,329.79c-3.79,3.47,7.17,14.09,11.2,10.88,9.55-7.64,21.91-18.52,32.18-28.87-.25-9.71-7.19-19.02-7.19-19.02,0,0-23.43,25.32-36.18,37.01Z"/>
  <path class="cls-15" d="M111.5,185.2c-29.25-38.25-62.08-45.41-63.39-42.37C33.66,176.52,1.71,195.45,3.44,200.39c2.89,8.2,48.35-26,48.33-47.33.02-3.86,30.23,10.39,47.95,35.63,1.77,2.49,13.61-1.03,11.78-3.48Z"/>
  <path class="cls-14" d="M155.13,270.1c-100.97,55.08-119.67,6.03-88.95-65.14,55.23-127.92,167.51,22.29,88.95,65.14Z"/>
  <path class="cls-15" d="M121.77,168.52c-17.81-51.38-50.65-70.6-53.12-67.81C41.09,131.85-.12,140.93,0,146.86c.17,9.8,61.34-10.93,68.92-33.88,1.37-4.13,28.92,21.81,38.98,55.14,1,3.3,15.04,3.69,13.88.4Z"/>
  <path class="cls-8" d="M94.7,202.29c-19.76,0-27.49,16.49-25.77,29.35,1.29,9.55,50.3,9.55,51.56,0,1.84-13.92-7.74-29.35-25.79-29.35Z"/>
  <path class="cls-9" d="M94.7,206.86c-14.23,0-25.77,10.45-25.77,23.31,0,11.13,11.55,23.32,25.77,23.32s25.79-14.22,25.79-23.32c0-12.86-11.53-23.31-25.79-23.31Z"/>
  <ellipse class="cls-8" cx="92.23" cy="229.95" rx="19.25" ry="18.57"/>
  <path class="cls-9" d="M90.71,220.67c0,6.74-10.51,6.74-10.51,0s10.51-6.76,10.51,0Z"/>
</svg>