<?xml version="1.0" encoding="UTF-8"?>
<svg id="Layer_1" data-name="Layer 1" xmlns="http://www.w3.org/2000/svg" xmlns:xlink="http://www.w3.org/1999/xlink" viewBox="0 0 512.01 512">
  <defs>
    <style>
      .cls-1 {
        fill: #e34d6f;
      }

      .cls-2 {
        fill: #61001d;
      }

      .cls-3 {
        fill: url(#linear-gradient-8);
      }

      .cls-4 {
        fill: url(#linear-gradient-7);
      }

      .cls-5 {
        fill: url(#linear-gradient-5);
      }

      .cls-6 {
        fill: url(#linear-gradient-6);
      }

      .cls-7 {
        fill: url(#linear-gradient-9);
      }

      .cls-8 {
        fill: url(#linear-gradient-4);
      }

      .cls-9 {
        fill: url(#linear-gradient-3);
      }

      .cls-10 {
        fill: url(#linear-gradient-2);
      }

      .cls-11 {
        fill: #1a1626;
      }

      .cls-12 {
        fill: url(#linear-gradient);
      }

      .cls-13 {
        fill: #ff8aa4;
      }

      .cls-14 {
        fill: #4f0303;
        isolation: isolate;
        opacity: .3;
      }

      .cls-15 {
        fill: #ffb5c6;
      }

      .cls-16 {
        fill: #fff;
      }

      .cls-17 {
        fill: url(#linear-gradient-10);
      }

      .cls-18 {
        fill: url(#linear-gradient-11);
      }

      .cls-19 {
        fill: url(#linear-gradient-12);
      }

      .cls-20 {
        fill: url(#linear-gradient-13);
      }

      .cls-21 {
        fill: url(#linear-gradient-14);
      }

      .cls-22 {
        fill: url(#linear-gradient-15);
      }

      .cls-23 {
        fill: url(#linear-gradient-16);
      }

      .cls-24 {
        fill: url(#linear-gradient-17);
      }

      .cls-25 {
        fill: #ffcfda;
      }
    </style>
    <linearGradient id="linear-gradient" x1="-1534.69" y1="-409.72" x2="-1534.69" y2="-325.42" gradientTransform="translate(-1060.0998 913.7529) rotate(142.627)" gradientUnits="userSpaceOnUse">
      <stop offset="0" stop-color="#8a0029"/>
      <stop offset=".18" stop-color="#aa193e"/>
      <stop offset=".37" stop-color="#c32d4e"/>
      <stop offset=".56" stop-color="#d53b5a"/>
      <stop offset=".77" stop-color="#e04361"/>
      <stop offset="1" stop-color="#e34663"/>
    </linearGradient>
    <linearGradient id="linear-gradient-2" x1="27.45" y1="-372.24" x2="247.87" y2="-372.24" gradientTransform="translate(51.31 64.18) rotate(-37.37) scale(1 -1)" gradientUnits="userSpaceOnUse">
      <stop offset="0" stop-color="#d94a69"/>
      <stop offset=".01" stop-color="#da4c6b"/>
      <stop offset=".21" stop-color="#e7728b"/>
      <stop offset=".42" stop-color="#f28fa5"/>
      <stop offset=".62" stop-color="#f9a4b7"/>
      <stop offset=".81" stop-color="#fdb1c2"/>
      <stop offset="1" stop-color="#ffb5c6"/>
    </linearGradient>
    <linearGradient id="linear-gradient-3" x1="390.43" y1=".06" x2="390.43" y2="215.72" gradientTransform="translate(0 514) scale(1 -1)" gradientUnits="userSpaceOnUse">
      <stop offset="0" stop-color="#8a0029"/>
      <stop offset=".18" stop-color="#aa193e"/>
      <stop offset=".37" stop-color="#c32d4e"/>
      <stop offset=".56" stop-color="#d53b5a"/>
      <stop offset=".77" stop-color="#e04361"/>
      <stop offset="1" stop-color="#e34663"/>
    </linearGradient>
    <linearGradient id="linear-gradient-4" x1="314.04" y1="21.22" x2="542.81" y2="21.22" gradientTransform="translate(-33.32 387.05) rotate(-5.46) scale(1 -1)" gradientUnits="userSpaceOnUse">
      <stop offset="0" stop-color="#d94a69"/>
      <stop offset=".01" stop-color="#da4c6b"/>
      <stop offset=".21" stop-color="#e7728b"/>
      <stop offset=".42" stop-color="#f28fa5"/>
      <stop offset=".62" stop-color="#f9a4b7"/>
      <stop offset=".81" stop-color="#fdb1c2"/>
      <stop offset="1" stop-color="#ffb5c6"/>
    </linearGradient>
    <linearGradient id="linear-gradient-5" x1="388.47" y1=".05" x2="388.47" y2="215.72" gradientTransform="translate(0 514) scale(1 -1)" gradientUnits="userSpaceOnUse">
      <stop offset="0" stop-color="#8a0029"/>
      <stop offset=".18" stop-color="#aa193e"/>
      <stop offset=".37" stop-color="#c32d4e"/>
      <stop offset=".56" stop-color="#d53b5a"/>
      <stop offset=".77" stop-color="#e04361"/>
      <stop offset="1" stop-color="#e34663"/>
    </linearGradient>
    <linearGradient id="linear-gradient-6" x1="368.08" y1="340.56" x2="615.05" y2="340.56" gradientTransform="translate(-188.16 561.25) rotate(16.8) scale(1 -1)" gradientUnits="userSpaceOnUse">
      <stop offset="0" stop-color="#d94a69"/>
      <stop offset=".01" stop-color="#da4c6b"/>
      <stop offset=".21" stop-color="#e7728b"/>
      <stop offset=".42" stop-color="#f28fa5"/>
      <stop offset=".62" stop-color="#f9a4b7"/>
      <stop offset=".81" stop-color="#fdb1c2"/>
      <stop offset="1" stop-color="#ffb5c6"/>
    </linearGradient>
    <linearGradient id="linear-gradient-7" x1="-62" y1="715.14" x2="-62" y2="799.44" gradientTransform="translate(-281.03 913.75) rotate(37.37) scale(1 -1)" gradientUnits="userSpaceOnUse">
      <stop offset="0" stop-color="#8a0029"/>
      <stop offset=".18" stop-color="#aa193e"/>
      <stop offset=".37" stop-color="#c32d4e"/>
      <stop offset=".56" stop-color="#d53b5a"/>
      <stop offset=".77" stop-color="#e04361"/>
      <stop offset="1" stop-color="#e34663"/>
    </linearGradient>
    <linearGradient id="linear-gradient-8" x1="-1445.23" y1="752.61" x2="-1224.82" y2="752.61" gradientTransform="translate(-1392.4386 64.1805) rotate(-142.627)" gradientUnits="userSpaceOnUse">
      <stop offset="0" stop-color="#d94a69"/>
      <stop offset=".01" stop-color="#da4c6b"/>
      <stop offset=".21" stop-color="#e7728b"/>
      <stop offset=".42" stop-color="#f28fa5"/>
      <stop offset=".62" stop-color="#f9a4b7"/>
      <stop offset=".81" stop-color="#fdb1c2"/>
      <stop offset="1" stop-color="#ffb5c6"/>
    </linearGradient>
    <linearGradient id="linear-gradient-9" x1="-1462.7" y1=".06" x2="-1462.7" y2="215.72" gradientTransform="translate(-1341.1315 514.0002) rotate(-180)" gradientUnits="userSpaceOnUse">
      <stop offset="0" stop-color="#8a0029"/>
      <stop offset=".18" stop-color="#aa193e"/>
      <stop offset=".37" stop-color="#c32d4e"/>
      <stop offset=".56" stop-color="#d53b5a"/>
      <stop offset=".77" stop-color="#e04361"/>
      <stop offset="1" stop-color="#e34663"/>
    </linearGradient>
    <linearGradient id="linear-gradient-10" x1="-1530.6" y1="197.63" x2="-1301.84" y2="197.63" gradientTransform="translate(-1307.8166 387.0492) rotate(-174.5374)" gradientUnits="userSpaceOnUse">
      <stop offset="0" stop-color="#d94a69"/>
      <stop offset=".01" stop-color="#da4c6b"/>
      <stop offset=".21" stop-color="#e7728b"/>
      <stop offset=".42" stop-color="#f28fa5"/>
      <stop offset=".62" stop-color="#f9a4b7"/>
      <stop offset=".81" stop-color="#fdb1c2"/>
      <stop offset="1" stop-color="#ffb5c6"/>
    </linearGradient>
    <linearGradient id="linear-gradient-11" x1="-1464.67" y1=".05" x2="-1464.67" y2="215.72" gradientTransform="translate(-1341.1315 514.0002) rotate(-180)" gradientUnits="userSpaceOnUse">
      <stop offset="0" stop-color="#8a0029"/>
      <stop offset=".18" stop-color="#aa193e"/>
      <stop offset=".37" stop-color="#c32d4e"/>
      <stop offset=".56" stop-color="#d53b5a"/>
      <stop offset=".77" stop-color="#e04361"/>
      <stop offset="1" stop-color="#e34663"/>
    </linearGradient>
    <linearGradient id="linear-gradient-12" x1="-1406.02" y1="-195.03" x2="-1159.05" y2="-195.03" gradientTransform="translate(-1152.969 561.2503) rotate(163.2014)" gradientUnits="userSpaceOnUse">
      <stop offset="0" stop-color="#d94a69"/>
      <stop offset=".01" stop-color="#da4c6b"/>
      <stop offset=".21" stop-color="#e7728b"/>
      <stop offset=".42" stop-color="#f28fa5"/>
      <stop offset=".62" stop-color="#f9a4b7"/>
      <stop offset=".81" stop-color="#fdb1c2"/>
      <stop offset="1" stop-color="#ffb5c6"/>
    </linearGradient>
    <linearGradient id="linear-gradient-13" x1="256.01" y1=".05" x2="256.01" y2="215.71" gradientTransform="translate(0 514) scale(1 -1)" gradientUnits="userSpaceOnUse">
      <stop offset="0" stop-color="#8a0029"/>
      <stop offset=".18" stop-color="#aa193e"/>
      <stop offset=".37" stop-color="#c32d4e"/>
      <stop offset=".56" stop-color="#d53b5a"/>
      <stop offset=".77" stop-color="#e04361"/>
      <stop offset="1" stop-color="#e34663"/>
    </linearGradient>
    <linearGradient id="linear-gradient-14" x1="91.71" y1="77.35" x2="420.29" y2="77.35" gradientTransform="translate(0 514) scale(1 -1)" gradientUnits="userSpaceOnUse">
      <stop offset="0" stop-color="#ffb5c6"/>
      <stop offset=".19" stop-color="#fdb1c2"/>
      <stop offset=".38" stop-color="#f9a4b7"/>
      <stop offset=".58" stop-color="#f28fa5"/>
      <stop offset=".79" stop-color="#e7728b"/>
      <stop offset=".99" stop-color="#da4c6b"/>
      <stop offset="1" stop-color="#d94a69"/>
    </linearGradient>
    <linearGradient id="linear-gradient-15" x1="256" y1="514.76" x2="256" y2="187.94" gradientTransform="translate(0 514) scale(1 -1)" gradientUnits="userSpaceOnUse">
      <stop offset="0" stop-color="#8a0029"/>
      <stop offset=".18" stop-color="#aa193e"/>
      <stop offset=".37" stop-color="#c32d4e"/>
      <stop offset=".56" stop-color="#d53b5a"/>
      <stop offset=".77" stop-color="#e04361"/>
      <stop offset="1" stop-color="#e34663"/>
    </linearGradient>
    <linearGradient id="linear-gradient-16" x1="330.12" y1="514.76" x2="330.12" y2="187.94" gradientTransform="translate(0 514) scale(1 -1)" gradientUnits="userSpaceOnUse">
      <stop offset="0" stop-color="#8a0029"/>
      <stop offset=".18" stop-color="#aa193e"/>
      <stop offset=".37" stop-color="#c32d4e"/>
      <stop offset=".56" stop-color="#d53b5a"/>
      <stop offset=".77" stop-color="#e04361"/>
      <stop offset="1" stop-color="#e34663"/>
    </linearGradient>
    <linearGradient id="linear-gradient-17" x1="181.89" y1="514.76" x2="181.89" y2="187.96" gradientTransform="translate(0 514) scale(1 -1)" gradientUnits="userSpaceOnUse">
      <stop offset="0" stop-color="#8a0029"/>
      <stop offset=".18" stop-color="#aa193e"/>
      <stop offset=".37" stop-color="#c32d4e"/>
      <stop offset=".56" stop-color="#d53b5a"/>
      <stop offset=".77" stop-color="#e04361"/>
      <stop offset="1" stop-color="#e34663"/>
    </linearGradient>
  </defs>
  <path class="cls-12" d="M320.74,301.64c69.77-8.15,93.67-57.77,101.41-90.27,7.98-33.44,25.66-43.82,29.25-29.67,21.89,86.17-72.89,171.59-141.07,169.36-18.8-.62-47.92-42.64,10.41-49.42Z"/>
  <path class="cls-10" d="M441.21,192.54c-1.14,60.34-43.05,125.12-109.87,132.31-21.89,2.36-37.5,23.05-24.58,25.58,39.8,7.93,81.2-18.7,106.08-41.64,45.16-41.61,53.82-90.31,39.69-126.58-4.65-11.88-11.06-1.74-11.32,10.33Z"/>
  <path class="cls-13" d="M359.05,330.51c-3.53-8.17,19.9-19.77,23.42-11.63,3.58,8.11-19.85,19.75-23.42,11.63Z"/>
  <path class="cls-1" d="M364.84,328.89c-1.62-3.74,11.18-10.06,12.82-6.39,1.6,3.74-11.22,10.1-12.82,6.39Z"/>
  <path class="cls-15" d="M390.15,319.81c-3.41-4.9,14.11-18.5,17.53-13.58,3.41,4.94-14.14,18.53-17.53,13.58Z"/>
  <path class="cls-1" d="M394.52,317.38c-1.53-2.28,8.06-9.7,9.59-7.46,1.55,2.27-8.02,9.71-9.59,7.46Z"/>
  <path class="cls-15" d="M408.76,296.57c-6.46-5.53,9.98-26.63,16.46-21.06,6.46,5.51-10.01,26.64-16.46,21.06Z"/>
  <path class="cls-1" d="M413.29,292.51c-2.97-2.56,6.03-14.08,8.98-11.54,2.94,2.57-6.02,14.09-8.98,11.54Z"/>
  <path class="cls-25" d="M435.73,277.7c-6.18-4.19,8.13-26.98,14.28-22.72,6.16,4.23-8.14,26.98-14.28,22.72Z"/>
  <path class="cls-1" d="M439.73,273.11c-2.82-1.93,5-14.35,7.83-12.45,2.78,1.95-5.02,14.39-7.83,12.45Z"/>
  <path class="cls-25" d="M442.19,248.35c-7.28-1.38-2.41-28.07,4.87-26.73,7.27,1.39,2.43,28.08-4.87,26.73Z"/>
  <path class="cls-1" d="M444.24,242.47c-3.34-.63-.66-15.23,2.61-14.58,3.32.61.7,15.2-2.61,14.58Z"/>
  <path class="cls-25" d="M456.45,213.5c-7.41.58-8.83-26.45-1.44-27.06,7.39-.51,8.86,26.51,1.44,27.06Z"/>
  <path class="cls-1" d="M457.07,207.3c-3.41.24-4.16-14.51-.84-14.77,3.4-.22,4.18,14.54.84,14.77Z"/>
  <path class="cls-9" d="M334.89,279.21c9.5,82.7,99.08,32.29,123.31,8.86,24.92-24.1,46.49-22.93,42.25-8.74-25.75,86.27-157,105.45-217.72,64.69-16.71-11.24,44.98-127.24,52.16-64.81Z"/>
  <path class="cls-8" d="M485.48,282.82c-32.97,51.02-105.31,82.65-169.82,50.72-21.1-10.46-46.22-1.64-35.84,7.9,31.94,29.5,83.63,30.26,118.36,24.8,63.02-9.93,96.66-46.7,103.03-85.84,2.09-12.82-9.13-7.79-15.74,2.42Z"/>
  <path class="cls-15" d="M371.74,362.72c-.5-6.14,22.61-7.81,23.13-1.63.46,6.17-22.65,7.82-23.13,1.63Z"/>
  <path class="cls-1" d="M377.02,363.16c-.2-2.85,12.44-3.74,12.66-.92.2,2.81-12.44,3.73-12.66.92Z"/>
  <path class="cls-15" d="M400.91,353.44c-2.89-8.43,23.18-17.14,26.13-8.67,2.97,8.4-23.19,17.13-26.13,8.67Z"/>
  <path class="cls-1" d="M407.21,352.53c-1.34-3.89,12.9-8.62,14.28-4.77,1.3,3.89-12.94,8.64-14.28,4.77Z"/>
  <path class="cls-25" d="M435.41,352.63c-3.38-7.12,21.67-18.48,25-11.32,3.36,7.14-21.67,18.47-25,11.32Z"/>
  <path class="cls-1" d="M441.48,350.99c-1.53-3.27,12.14-9.47,13.72-6.22,1.46,3.25-12.21,9.48-13.72,6.22Z"/>
  <path class="cls-25" d="M456.84,331.18c-5.87-5.33,12.67-25.43,18.56-20.12,5.86,5.34-12.67,25.44-18.56,20.12Z"/>
  <path class="cls-1" d="M461.81,327.3c-2.7-2.45,7.44-13.42,10.1-11,2.7,2.41-7.39,13.42-10.1,11Z"/>
  <path class="cls-25" d="M488.22,309.44c-7.02-3.74,5.97-27.69,12.98-23.99,7.02,3.77-5.97,27.75-12.98,23.99Z"/>
  <path class="cls-1" d="M492.07,304.48c-3.23-1.72,3.9-14.82,7.06-13.13,3.18,1.74-3.91,14.82-7.06,13.13Z"/>
  <path class="cls-5" d="M323.02,295.15c25.3,91.82,107.56,84.39,141.05,68.81,34.46-16.02,55.38-4.35,45.47,10.09-60.33,87.82-198.36,47.21-242.19-29.17-12.06-21.07,23.27-167.3,55.66-49.73Z"/>
  <path class="cls-6" d="M493.27,370.89c-53.31,43.44-137.86,45.5-189.02-22.43-16.72-22.23-45.22-24.02-38.77-7.99,19.84,49.5,70.82,75.17,107.51,85.44,66.56,18.7,114.75-7.9,136.87-50.26,7.24-13.87-5.94-13.42-16.59-4.76Z"/>
  <path class="cls-13" d="M317.99,383.07c4.7-9.94,30.53,7.17,25.84,17.04-4.68,9.94-30.56-7.14-25.84-17.04Z"/>
  <path class="cls-1" d="M323.24,388.18c2.17-4.55,16.28,4.82,14.17,9.32-2.17,4.51-16.29-4.8-14.17-9.32Z"/>
  <path class="cls-15" d="M348.15,409.22c1.98-7.4,25.59,1.74,23.62,9.14-2.03,7.4-25.62-1.78-23.62-9.14Z"/>
  <path class="cls-1" d="M353.22,412.2c.94-3.38,13.84,1.62,12.94,4.99-.95,3.38-13.86-1.61-12.94-4.99Z"/>
  <path class="cls-15" d="M380.85,412.38c.51-11.17,29.92-8.78,29.42,2.46-.43,11.18-29.9,8.76-29.42-2.46Z"/>
  <path class="cls-1" d="M387.49,414.36c.22-5.16,16.28-3.83,16.08,1.29-.29,5.13-16.34,3.84-16.08-1.29Z"/>
  <path class="cls-25" d="M415.43,427.96c-.49-9.87,28.95-11.07,29.39-1.17.43,9.88-28.98,11.06-29.39,1.17Z"/>
  <path class="cls-1" d="M422.12,428.96c-.2-4.51,15.86-5.17,16.1-.63.17,4.46-15.93,5.15-16.1.63Z"/>
  <path class="cls-25" d="M445.33,413.32c-3.69-8.99,22.83-23.43,26.54-14.46,3.66,8.98-22.82,23.46-26.54,14.46Z"/>
  <path class="cls-1" d="M451.82,411.2c-1.69-4.15,12.83-12.01,14.47-7.94,1.7,4.09-12.78,12.06-14.47,7.94Z"/>
  <path class="cls-25" d="M485.26,403.14c-5.49-7.71,17.1-29.29,22.58-21.64,5.42,7.74-17.14,29.36-22.58,21.64Z"/>
  <path class="cls-1" d="M491.07,399.22c-2.53-3.55,9.84-15.33,12.3-11.86,2.47,3.55-9.86,15.34-12.3,11.86Z"/>
  <path class="cls-4" d="M191.27,301.64c-69.77-8.15-93.67-57.77-101.41-90.27-7.98-33.44-25.66-43.82-29.25-29.67-21.89,86.17,72.89,171.59,141.07,169.36,18.79-.62,47.92-42.64-10.41-49.42Z"/>
  <path class="cls-3" d="M70.79,192.54c1.14,60.34,43.05,125.12,109.87,132.31,21.89,2.36,37.5,23.05,24.58,25.58-39.8,7.93-81.2-18.7-106.08-41.64-45.16-41.61-53.82-90.31-39.69-126.58,4.65-11.88,11.07-1.74,11.32,10.33Z"/>
  <path class="cls-13" d="M152.95,330.51c3.53-8.17-19.9-19.77-23.42-11.63-3.58,8.11,19.84,19.75,23.42,11.63Z"/>
  <path class="cls-1" d="M147.17,328.89c1.62-3.74-11.18-10.06-12.82-6.39-1.61,3.74,11.22,10.1,12.82,6.39Z"/>
  <path class="cls-15" d="M121.86,319.81c3.41-4.9-14.11-18.5-17.53-13.58-3.41,4.94,14.14,18.53,17.53,13.58Z"/>
  <path class="cls-1" d="M117.48,317.38c1.53-2.28-8.06-9.7-9.59-7.46-1.55,2.27,8.03,9.71,9.59,7.46Z"/>
  <path class="cls-15" d="M103.25,296.57c6.46-5.53-9.98-26.63-16.46-21.06-6.46,5.51,10,26.64,16.46,21.06Z"/>
  <path class="cls-1" d="M98.71,292.51c2.97-2.56-6.03-14.08-8.98-11.54-2.94,2.57,6.02,14.09,8.98,11.54Z"/>
  <path class="cls-25" d="M76.28,277.7c6.18-4.19-8.13-26.98-14.28-22.72-6.16,4.23,8.14,26.98,14.28,22.72Z"/>
  <path class="cls-1" d="M72.28,273.11c2.82-1.93-5-14.35-7.83-12.45-2.78,1.95,5.02,14.39,7.83,12.45Z"/>
  <path class="cls-25" d="M69.81,248.35c7.28-1.38,2.41-28.07-4.87-26.73-7.27,1.39-2.42,28.08,4.87,26.73Z"/>
  <path class="cls-1" d="M67.76,242.47c3.34-.63.66-15.23-2.61-14.58-3.31.61-.7,15.2,2.61,14.58Z"/>
  <path class="cls-25" d="M55.56,213.5c7.41.58,8.83-26.45,1.44-27.06-7.39-.51-8.86,26.51-1.44,27.06Z"/>
  <path class="cls-1" d="M54.94,207.3c3.41.24,4.16-14.51.84-14.77-3.41-.22-4.18,14.54-.84,14.77Z"/>
  <path class="cls-7" d="M177.11,279.21c-9.5,82.7-99.09,32.3-123.32,8.87-24.92-24.1-46.49-22.93-42.25-8.74,25.75,86.27,157,105.45,217.72,64.69,16.72-11.25-44.97-127.25-52.15-64.82Z"/>
  <path class="cls-17" d="M26.53,282.82c32.97,51.02,105.31,82.65,169.82,50.72,21.1-10.46,46.22-1.64,35.84,7.9-31.94,29.5-83.63,30.26-118.36,24.8-63.02-9.93-96.66-46.7-103.03-85.84-2.1-12.82,9.13-7.79,15.74,2.42Z"/>
  <path class="cls-15" d="M140.27,362.72c.5-6.14-22.61-7.81-23.13-1.63-.47,6.17,22.64,7.82,23.13,1.63Z"/>
  <path class="cls-1" d="M134.99,363.16c.2-2.85-12.44-3.74-12.66-.92-.21,2.81,12.43,3.73,12.66.92Z"/>
  <path class="cls-15" d="M111.09,353.44c2.89-8.43-23.18-17.14-26.13-8.67-2.96,8.4,23.19,17.13,26.13,8.67Z"/>
  <path class="cls-1" d="M104.79,352.53c1.34-3.89-12.9-8.62-14.28-4.77-1.3,3.89,12.94,8.64,14.28,4.77Z"/>
  <path class="cls-25" d="M76.59,352.63c3.38-7.12-21.67-18.48-25-11.32-3.36,7.14,21.67,18.47,25,11.32Z"/>
  <path class="cls-1" d="M70.53,350.99c1.53-3.27-12.14-9.47-13.72-6.22-1.47,3.25,12.2,9.48,13.72,6.22Z"/>
  <path class="cls-25" d="M55.17,331.18c5.87-5.33-12.67-25.43-18.56-20.12-5.86,5.34,12.67,25.44,18.56,20.12Z"/>
  <path class="cls-1" d="M50.2,327.3c2.7-2.45-7.44-13.42-10.1-11-2.7,2.41,7.39,13.42,10.1,11Z"/>
  <path class="cls-25" d="M23.78,309.44c7.02-3.74-5.97-27.69-12.98-23.99-7.02,3.77,5.97,27.75,12.98,23.99Z"/>
  <path class="cls-1" d="M19.94,304.48c3.23-1.72-3.9-14.82-7.06-13.13-3.19,1.74,3.9,14.82,7.06,13.13Z"/>
  <path class="cls-18" d="M188.99,295.15c-25.3,91.81-107.57,84.38-141.05,68.8-34.46-16.02-55.38-4.35-45.47,10.09,60.33,87.82,198.36,47.21,242.19-29.17,12.06-21.06-23.27-167.29-55.66-49.72Z"/>
  <path class="cls-19" d="M18.73,370.89c53.31,43.44,137.86,45.5,189.02-22.43,16.72-22.23,45.22-24.02,38.77-7.99-19.84,49.5-70.82,75.17-107.51,85.44-66.56,18.7-114.75-7.9-136.87-50.26-7.23-13.87,5.94-13.42,16.59-4.76Z"/>
  <path class="cls-13" d="M194.01,383.07c-4.7-9.94-30.53,7.17-25.84,17.04,4.69,9.94,30.56-7.14,25.84-17.04Z"/>
  <path class="cls-1" d="M188.76,388.18c-2.17-4.55-16.28,4.82-14.17,9.32,2.17,4.51,16.3-4.8,14.17-9.32Z"/>
  <path class="cls-15" d="M163.86,409.22c-1.98-7.4-25.59,1.74-23.62,9.14,2.03,7.4,25.62-1.78,23.62-9.14Z"/>
  <path class="cls-1" d="M158.78,412.2c-.94-3.38-13.84,1.62-12.94,4.99.95,3.38,13.86-1.61,12.94-4.99Z"/>
  <path class="cls-15" d="M131.15,412.38c-.51-11.17-29.92-8.78-29.42,2.46.44,11.18,29.91,8.76,29.42-2.46Z"/>
  <path class="cls-1" d="M124.51,414.36c-.22-5.16-16.28-3.83-16.08,1.29.28,5.13,16.33,3.84,16.08-1.29Z"/>
  <path class="cls-25" d="M96.58,427.96c.49-9.87-28.95-11.07-29.39-1.17-.44,9.88,28.97,11.06,29.39,1.17Z"/>
  <path class="cls-1" d="M89.89,428.96c.2-4.51-15.86-5.17-16.1-.63-.17,4.46,15.92,5.15,16.1.63Z"/>
  <path class="cls-25" d="M66.66,413.32c3.69-8.99-22.83-23.43-26.54-14.46-3.66,8.98,22.83,23.46,26.54,14.46Z"/>
  <path class="cls-1" d="M60.18,411.2c1.69-4.15-12.83-12.01-14.47-7.94-1.7,4.09,12.77,12.06,14.47,7.94Z"/>
  <path class="cls-25" d="M26.74,403.14c5.49-7.71-17.1-29.29-22.58-21.64-5.42,7.74,17.14,29.36,22.58,21.64Z"/>
  <path class="cls-1" d="M20.94,399.22c2.53-3.55-9.84-15.33-12.3-11.86-2.47,3.55,9.86,15.34,12.3,11.86Z"/>
  <path class="cls-20" d="M387.51,462.71c-33.46-12.5-74.69-46.48-72.55-133.17,3.1-123.02-121.01-123.02-117.92,0,2.14,86.69-39.1,120.66-72.53,133.17-34.41,12.89-42.75,35.61-27.1,38.75,68.39,13.69,127.05-46.65,149.91-112.77,4.08-11.77,13.3-11.77,17.35,0,22.87,66.12,81.51,126.46,149.91,112.77,15.67-3.14,7.33-25.86-27.07-38.75Z"/>
  <path class="cls-21" d="M404.63,487.91c-54.69-5.9-108.83-50.83-114.77-97.41-4.25-33.18-63.46-33.18-67.71,0-5.94,46.58-60.08,91.51-114.77,97.41-12.83,1.41-22.66,10.26-9.28,14.88,40.92,14.08,91.49-1.02,128.84-60.47,11.42-18.16,15.62-43.54,29.06-43.54s17.62,25.38,29.04,43.54c37.38,59.46,87.94,74.55,128.84,60.47,13.38-4.62,3.58-13.47-9.26-14.88Z"/>
  <path class="cls-15" d="M276.8,404.83c5.77-3.75,17.56,19.06,11.8,22.83-5.82,3.74-17.57-19.1-11.8-22.83Z"/>
  <path class="cls-1" d="M278.72,410.45c2.67-1.69,9.11,10.8,6.47,12.49-2.66,1.71-9.13-10.78-6.47-12.49Z"/>
  <path class="cls-15" d="M298.71,438.4c6.9-7.42,26.86,14.75,19.89,22.22-6.86,7.47-26.84-14.77-19.89-22.22Z"/>
  <path class="cls-1" d="M302.33,444.39c3.2-3.43,14.08,8.7,10.92,12.12-3.18,3.39-14.09-8.72-10.92-12.12Z"/>
  <path class="cls-25" d="M314.66,473.36c5.44-7.22,27.51,12.48,22.02,19.69-5.47,7.19-27.53-12.51-22.02-19.69Z"/>
  <path class="cls-1" d="M318.92,478.72c2.51-3.29,14.56,7.47,12.08,10.79-2.5,3.22-14.59-7.51-12.08-10.79Z"/>
  <path class="cls-25" d="M344.94,484.03c2.61-8.85,30.33-.4,27.75,8.44-2.59,8.82-30.31.41-27.75-8.44Z"/>
  <path class="cls-1" d="M350.89,487.06c1.22-4.06,16.36.59,15.17,4.57-1.17,4.02-16.34-.5-15.17-4.57Z"/>
  <path class="cls-25" d="M379.93,504.78c.54-9.18,29.56-8.48,29.06.68-.61,9.15-29.66,8.49-29.06-.68Z"/>
  <path class="cls-1" d="M386.43,506.1c.25-4.23,16.14-3.81,15.87.33-.3,4.19-16.15,3.78-15.87-.33Z"/>
  <path class="cls-15" d="M235.2,404.83c-5.77-3.75-17.54,19.06-11.78,22.83,5.8,3.74,17.57-19.1,11.78-22.83Z"/>
  <path class="cls-1" d="M233.29,410.45c-2.69-1.69-9.11,10.8-6.49,12.49,2.67,1.71,9.13-10.78,6.49-12.49Z"/>
  <path class="cls-15" d="M213.29,438.4c-6.89-7.42-26.84,14.75-19.89,22.22,6.86,7.47,26.86-14.77,19.89-22.22Z"/>
  <path class="cls-1" d="M209.67,444.39c-3.18-3.43-14.08,8.7-10.92,12.12,3.2,3.39,14.09-8.72,10.92-12.12Z"/>
  <path class="cls-25" d="M197.34,473.36c-5.44-7.22-27.5,12.48-22.02,19.69,5.48,7.19,27.53-12.51,22.02-19.69Z"/>
  <path class="cls-1" d="M193.07,478.72c-2.5-3.29-14.54,7.47-12.06,10.79,2.5,3.22,14.58-7.51,12.06-10.79Z"/>
  <path class="cls-25" d="M167.05,484.03c-2.61-8.85-30.31-.4-27.75,8.44,2.6,8.82,30.34.41,27.75-8.44Z"/>
  <path class="cls-1" d="M161.1,487.06c-1.22-4.06-16.36.59-15.17,4.57,1.17,4.02,16.34-.5,15.17-4.57Z"/>
  <path class="cls-25" d="M132.08,504.78c-.54-9.18-29.58-8.48-29.06.68.6,9.15,29.65,8.49,29.06-.68Z"/>
  <path class="cls-1" d="M125.59,506.1c-.26-4.23-16.14-3.81-15.89.33.3,4.19,16.15,3.78,15.89-.33Z"/>
  <path class="cls-13" d="M243.02,386.16c-.1-7.7,25.87-8.09,25.95-.38.13,7.71-25.84,8.08-25.95.38Z"/>
  <path class="cls-1" d="M248.92,387.07c-.03-3.55,14.16-3.76,14.18-.26.05,3.53-14.14,3.73-14.18.26Z"/>
  <path class="cls-22" d="M376.3,107.16c-8.84-142.87-231.73-142.89-240.61,0-5.83,94.7,31.31,215.56,120.31,215.56s126.16-120.86,120.3-215.56Z"/>
  <path class="cls-23" d="M330.1,160.44c33.39,0,60.47,26.5,60.47,59.17s-27.08,59.21-60.47,59.21-60.44-26.48-60.44-59.21,27.06-59.17,60.44-59.17Z"/>
  <path class="cls-24" d="M181.88,160.42c33.39,0,60.46,26.52,60.46,59.18s-27.06,59.21-60.46,59.21-60.44-26.48-60.44-59.21,27.07-59.18,60.44-59.18Z"/>
  <path class="cls-2" d="M333.82,180.5c-29.72,0-41.38,25.17-38.78,44.83,1.95,14.6,75.69,14.6,77.58,0,2.75-21.25-11.62-44.83-38.79-44.83Z"/>
  <path class="cls-16" d="M333.82,187.51c-21.42,0-38.78,15.94-38.78,35.62,0,17,17.36,35.62,38.78,35.62s38.8-21.7,38.8-35.62c0-19.69-17.37-35.62-38.8-35.62Z"/>
  <ellipse class="cls-11" cx="330.1" cy="222.77" rx="28.97" ry="28.36"/>
  <path class="cls-16" d="M327.8,208.6c0,10.3-15.8,10.3-15.8,0s15.8-10.32,15.8,0Z"/>
  <path class="cls-2" d="M178.16,180.5c29.74,0,41.38,25.17,38.78,44.83-1.94,14.6-75.68,14.6-77.57,0-2.78-21.25,11.62-44.83,38.78-44.83Z"/>
  <path class="cls-16" d="M178.15,187.51c21.43,0,38.8,15.94,38.8,35.62,0,17-17.37,35.62-38.8,35.62s-38.78-21.7-38.78-35.62c0-19.69,17.34-35.62,38.78-35.62Z"/>
  <ellipse class="cls-11" cx="181.88" cy="222.77" rx="28.95" ry="28.36"/>
  <path class="cls-16" d="M184.19,208.6c0,10.3,15.79,10.3,15.79,0,0-10.32-15.79-10.32-15.79,0Z"/>
  <path class="cls-2" d="M175.51,147.59c-46.38,13.02-22.23,25.03,18.28,18.85,22.88-3.48,12.26-27.42-18.28-18.85Z"/>
  <path class="cls-2" d="M336.46,147.59c-30.51-8.56-41.13,15.37-18.26,18.85,40.51,6.18,64.66-5.82,18.26-18.85Z"/>
  <path class="cls-14" d="M241.24,90.79c-11.02,11.01-27.73-5.68-16.68-16.73,10.98-10.99,27.7,5.71,16.68,16.73Z"/>
  <path class="cls-14" d="M204.72,74.45c-7.59,7.58-19.1-3.93-11.5-11.51,7.58-7.61,19.09,3.92,11.5,11.51Z"/>
  <path class="cls-14" d="M246.9,46.94c-7.59,7.62-19.13-3.89-11.51-11.52,7.59-7.58,19.1,3.95,11.51,11.52Z"/>
  <path class="cls-14" d="M169.11,76.75c-3.81,3.8-9.56-1.98-5.76-5.77,3.82-3.82,9.56,1.95,5.76,5.77Z"/>
  <path class="cls-14" d="M207.51,40.53c-5.24,5.24-13.22-2.7-7.96-7.96,5.25-5.25,13.2,2.74,7.96,7.96Z"/>
  <path class="cls-14" d="M184.19,109.64c-5.26,5.29-13.22-2.69-7.95-7.94,5.23-5.26,13.19,2.71,7.95,7.94Z"/>
  <path class="cls-14" d="M319.96,128.37c-8.33-8.33,3.82-20.46,12.14-12.14,8.3,8.3-3.85,20.44-12.14,12.14Z"/>
  <path class="cls-14" d="M331.53,101.56c-5.72-5.74,2.62-14.11,8.38-8.37,5.74,5.72-2.66,14.09-8.38,8.37Z"/>
  <path class="cls-14" d="M352.51,133.17c-5.75-5.74,2.62-14.1,8.38-8.36,5.7,5.72-2.66,14.08-8.38,8.36Z"/>
  <path class="cls-14" d="M329.35,75.13c-2.86-2.86,1.33-7.02,4.17-4.17,2.9,2.88-1.31,7.05-4.17,4.17Z"/>
  <path class="cls-14" d="M356.69,104.09c-3.97-3.97,1.84-9.74,5.8-5.78s-1.85,9.73-5.8,5.78Z"/>
  <path class="cls-14" d="M305.19,85.86c-3.98-3.96,1.82-9.78,5.78-5.82,3.95,3.96-1.82,9.74-5.78,5.82Z"/>
  <path class="cls-2" d="M256,307.09c-14.61,0-28.25-6.78-38.46-19.09-1.89-2.27-1.57-5.66.71-7.55,2.29-1.89,5.66-1.57,7.55.7,8.12,9.83,18.83,15.22,30.18,15.22h0c11.35,0,22.07-5.39,30.2-15.22,1.89-2.27,5.25-2.59,7.54-.7,2.28,1.89,2.59,5.28.7,7.55-10.17,12.31-23.82,19.09-38.44,19.09h0Z"/>
</svg>