<?xml version="1.0" encoding="UTF-8"?>
<svg id="Layer_1" data-name="Layer 1" xmlns="http://www.w3.org/2000/svg" xmlns:xlink="http://www.w3.org/1999/xlink" viewBox="0 0 548.57 512">
  <defs>
    <style>
      .cls-1 {
        fill: url(#linear-gradient-8);
      }

      .cls-2 {
        fill: url(#linear-gradient-7);
      }

      .cls-3 {
        fill: url(#linear-gradient-5);
      }

      .cls-4 {
        fill: url(#linear-gradient-6);
      }

      .cls-5 {
        fill: url(#linear-gradient-9);
      }

      .cls-6 {
        fill: url(#linear-gradient-4);
      }

      .cls-7 {
        fill: url(#linear-gradient-3);
      }

      .cls-8 {
        fill: url(#linear-gradient-2);
      }

      .cls-9 {
        fill: #1a1626;
      }

      .cls-10 {
        fill: #f5dec2;
      }

      .cls-11 {
        fill: url(#linear-gradient);
      }

      .cls-12 {
        fill: #fff;
      }

      .cls-13 {
        fill: #f0d4be;
      }

      .cls-14 {
        fill: #b47d56;
      }

      .cls-15 {
        fill: #87532f;
      }

      .cls-16 {
        fill: url(#linear-gradient-10);
      }

      .cls-17 {
        fill: url(#linear-gradient-11);
      }

      .cls-18 {
        fill: url(#linear-gradient-12);
      }

      .cls-19 {
        fill: url(#linear-gradient-13);
      }

      .cls-20 {
        fill: url(#linear-gradient-19);
      }

      .cls-21 {
        fill: url(#linear-gradient-14);
      }

      .cls-22 {
        fill: url(#linear-gradient-20);
      }

      .cls-23 {
        fill: url(#linear-gradient-15);
      }

      .cls-24 {
        fill: url(#linear-gradient-16);
      }

      .cls-25 {
        fill: url(#linear-gradient-17);
      }

      .cls-26 {
        fill: url(#linear-gradient-18);
      }

      .cls-27 {
        fill: #80502d;
      }
    </style>
    <linearGradient id="linear-gradient" x1="462.06" y1="253.69" x2="547.75" y2="253.95" gradientTransform="translate(0 514) scale(1 -1)" gradientUnits="userSpaceOnUse">
      <stop offset="0" stop-color="#80502d"/>
      <stop offset=".13" stop-color="#895a33"/>
      <stop offset=".35" stop-color="#a07344"/>
      <stop offset=".62" stop-color="#c69d60"/>
      <stop offset=".84" stop-color="#e8c379"/>
    </linearGradient>
    <linearGradient id="linear-gradient-2" x1="238.95" y1="246.71" x2="322.42" y2="198.61" gradientTransform="translate(325.53 471.73) rotate(-30.29) scale(1 -1)" gradientUnits="userSpaceOnUse">
      <stop offset=".07" stop-color="#b47b53"/>
      <stop offset=".23" stop-color="#b88056"/>
      <stop offset=".43" stop-color="#c38f5e"/>
      <stop offset=".65" stop-color="#d5a86b"/>
      <stop offset=".84" stop-color="#e8c379"/>
    </linearGradient>
    <linearGradient id="linear-gradient-3" x1="682.53" y1="605.43" x2="765.43" y2="557.66" gradientTransform="translate(-462.03 459.77) rotate(32.89) scale(1 -1)" gradientUnits="userSpaceOnUse">
      <stop offset=".07" stop-color="#b47b53"/>
      <stop offset=".23" stop-color="#b88056"/>
      <stop offset=".43" stop-color="#c38f5e"/>
      <stop offset=".65" stop-color="#d5a86b"/>
      <stop offset=".84" stop-color="#e8c379"/>
    </linearGradient>
    <linearGradient id="linear-gradient-4" x1="228.42" y1="33.18" x2="228.42" y2="474.63" gradientTransform="translate(0 514) scale(1 -1)" gradientUnits="userSpaceOnUse">
      <stop offset="0" stop-color="#f5dec2"/>
      <stop offset=".08" stop-color="#f0d6b9"/>
      <stop offset=".21" stop-color="#e1c0a1"/>
      <stop offset=".37" stop-color="#c99d79"/>
      <stop offset=".5" stop-color="#b47d56"/>
      <stop offset="1" stop-color="#80502d"/>
    </linearGradient>
    <linearGradient id="linear-gradient-5" x1="415.75" y1="165.21" x2="360.11" y2="201.28" gradientTransform="translate(0 514) scale(1 -1)" gradientUnits="userSpaceOnUse">
      <stop offset="0" stop-color="#edd8be"/>
      <stop offset=".85" stop-color="#edd8be" stop-opacity="0"/>
    </linearGradient>
    <linearGradient id="linear-gradient-6" x1="375.1" y1="247.07" x2="443.56" y2="247.07" gradientTransform="translate(0 514) scale(1 -1)" gradientUnits="userSpaceOnUse">
      <stop offset=".15" stop-color="#edd8be" stop-opacity="0"/>
      <stop offset=".31" stop-color="#e9d0b2" stop-opacity=".19"/>
      <stop offset=".75" stop-color="#e1bf96" stop-opacity=".7"/>
      <stop offset="1" stop-color="#deb88b"/>
    </linearGradient>
    <linearGradient id="linear-gradient-7" x1="352.08" y1="306.65" x2="420.53" y2="306.65" gradientTransform="translate(0 514) scale(1 -1)" gradientUnits="userSpaceOnUse">
      <stop offset=".16" stop-color="#b47d56" stop-opacity="0"/>
      <stop offset="1" stop-color="#b47d56"/>
    </linearGradient>
    <linearGradient id="linear-gradient-8" x1="439.37" y1="379.24" x2="374.79" y2="357.33" gradientTransform="translate(0 514) scale(1 -1)" gradientUnits="userSpaceOnUse">
      <stop offset="0" stop-color="#b47d56"/>
      <stop offset=".84" stop-color="#b47d56" stop-opacity="0"/>
    </linearGradient>
    <linearGradient id="linear-gradient-9" x1="367.56" y1="105.93" x2="323.55" y2="156.06" gradientTransform="translate(0 514) scale(1 -1)" gradientUnits="userSpaceOnUse">
      <stop offset="0" stop-color="#fff2e3"/>
      <stop offset=".85" stop-color="#fff2e3" stop-opacity="0"/>
    </linearGradient>
    <linearGradient id="linear-gradient-10" x1="350.57" y1="167.12" x2="298.14" y2="223.76" gradientTransform="translate(0 514) scale(1 -1)" gradientUnits="userSpaceOnUse">
      <stop offset="0" stop-color="#edd8be"/>
      <stop offset=".85" stop-color="#edd8be" stop-opacity="0"/>
    </linearGradient>
    <linearGradient id="linear-gradient-11" x1="240.82" y1="120.43" x2="225.95" y2="195.13" gradientTransform="translate(0 514) scale(1 -1)" gradientUnits="userSpaceOnUse">
      <stop offset="0" stop-color="#edd8be"/>
      <stop offset=".85" stop-color="#edd8be" stop-opacity="0"/>
    </linearGradient>
    <linearGradient id="linear-gradient-12" x1="123.87" y1="142.03" x2="150.95" y2="213.73" gradientTransform="translate(0 514) scale(1 -1)" gradientUnits="userSpaceOnUse">
      <stop offset="0" stop-color="#edd8be"/>
      <stop offset=".85" stop-color="#edd8be" stop-opacity="0"/>
    </linearGradient>
    <linearGradient id="linear-gradient-13" x1="143.97" y1="430" x2="174.31" y2="360.17" gradientTransform="translate(0 514) scale(1 -1)" gradientUnits="userSpaceOnUse">
      <stop offset="0" stop-color="#b47d56"/>
      <stop offset=".84" stop-color="#b47d56" stop-opacity="0"/>
    </linearGradient>
    <linearGradient id="linear-gradient-14" x1="260.03" y1="446.7" x2="245.17" y2="368.97" gradientTransform="translate(0 514) scale(1 -1)" gradientUnits="userSpaceOnUse">
      <stop offset="0" stop-color="#b47d56"/>
      <stop offset=".84" stop-color="#b47d56" stop-opacity="0"/>
    </linearGradient>
    <linearGradient id="linear-gradient-15" x1="353.99" y1="404.03" x2="304.66" y2="340.94" gradientTransform="translate(0 514) scale(1 -1)" gradientUnits="userSpaceOnUse">
      <stop offset="0" stop-color="#b47d56"/>
      <stop offset=".84" stop-color="#b47d56" stop-opacity="0"/>
    </linearGradient>
    <linearGradient id="linear-gradient-16" x1="302.97" y1="62.51" x2="279.71" y2="124.68" gradientTransform="translate(0 514) scale(1 -1)" gradientUnits="userSpaceOnUse">
      <stop offset="0" stop-color="#fff2e3"/>
      <stop offset=".85" stop-color="#fff2e3" stop-opacity="0"/>
    </linearGradient>
    <linearGradient id="linear-gradient-17" x1="219.32" y1="53.12" x2="223.13" y2="120.55" gradientTransform="translate(0 514) scale(1 -1)" gradientUnits="userSpaceOnUse">
      <stop offset="0" stop-color="#fff2e3"/>
      <stop offset=".85" stop-color="#fff2e3" stop-opacity="0"/>
    </linearGradient>
    <linearGradient id="linear-gradient-18" x1="201.92" y1="149.09" x2="175.97" y2="87.26" gradientTransform="translate(-44.55 513.47) rotate(3.8) scale(1 -1)" gradientUnits="userSpaceOnUse">
      <stop offset=".15" stop-color="#fff2e3" stop-opacity="0"/>
      <stop offset="1" stop-color="#fff2e3"/>
    </linearGradient>
    <linearGradient id="linear-gradient-19" x1="63.36" y1="139.29" x2="105.24" y2="191.78" gradientTransform="translate(-14.16 514.64) rotate(1.2) scale(1 -1)" gradientUnits="userSpaceOnUse">
      <stop offset="0" stop-color="#fff2e3"/>
      <stop offset=".85" stop-color="#fff2e3" stop-opacity="0"/>
    </linearGradient>
    <linearGradient id="linear-gradient-20" x1="195.57" y1="291.2" x2="311.57" y2="224.37" gradientTransform="translate(0 514) scale(1 -1)" gradientUnits="userSpaceOnUse">
      <stop offset=".07" stop-color="#b47b53"/>
      <stop offset=".23" stop-color="#b88056"/>
      <stop offset=".43" stop-color="#c38f5e"/>
      <stop offset=".65" stop-color="#d5a86b"/>
      <stop offset=".84" stop-color="#e8c379"/>
    </linearGradient>
  </defs>
  <path class="cls-11" d="M524.76,186.39c-11.08-5.59-35.65,19.84-48.87,22.41-18.04,3.51-71.11-18.29-71.11-18.29v143.05s52.94-20.97,71.11-18.29c12.95,1.92,38.8,23.63,48.87,18.56,31.74-15.95,31.74-131.47,0-147.45Z"/>
  <path class="cls-8" d="M406.65,146.48c-51,49.33,142.65,49.57,87.05-29.89-35.04-50.05-56.24.08-87.05,29.89Z"/>
  <path class="cls-14" d="M465.38,100.84s-48.45,38.79-45.59,40.58c7.58,4.79,45.59-40.58,45.59-40.58Z"/>
  <path class="cls-14" d="M476.05,107.13s-54.02,41.49-50.13,42c10.24,1.4,50.13-42,50.13-42Z"/>
  <path class="cls-14" d="M482.59,118.38s-59.24,37.24-56.58,39.31c6.99,5.57,56.58-39.31,56.58-39.31Z"/>
  <path class="cls-14" d="M492.52,125.77s-66.87,38.01-63.06,38.93c10.03,2.48,63.06-38.93,63.06-38.93Z"/>
  <path class="cls-14" d="M499.56,140.55s-68.99,26.21-66.93,28.85c5.45,7.09,66.93-28.85,66.93-28.85Z"/>
  <path class="cls-14" d="M495.38,156.09s-61.45,17.74-57.98,19.54c9.14,4.79,57.98-19.54,57.98-19.54Z"/>
  <path class="cls-7" d="M431.96,325.29c-67.47-22.83,19.67,148.44,66.19,63.46,29.28-53.55-25.44-49.66-66.19-63.46Z"/>
  <path class="cls-14" d="M499.57,356.62s-56.81-25.32-57.12-21.98c-.91,8.85,57.12,21.98,57.12,21.98Z"/>
  <path class="cls-14" d="M498.71,368.89s-61.75-29.03-60.46-25.37c3.36,9.69,60.46,25.37,60.46,25.37Z"/>
  <path class="cls-14" d="M491.53,379.75s-60.29-35.57-60.96-32.29c-1.86,8.7,60.96,32.29,60.96,32.29Z"/>
  <path class="cls-14" d="M489.35,391.85s-64.42-41.96-63.52-38.18c2.28,9.99,63.52,38.18,63.52,38.18Z"/>
  <path class="cls-14" d="M479.2,404.75s-54.74-49.16-56.19-46.14c-3.92,8.02,56.19,46.14,56.19,46.14Z"/>
  <path class="cls-14" d="M463.32,408.06s-43.71-46.32-43.77-42.45c-.2,10.25,43.77,42.45,43.77,42.45Z"/>
  <path class="cls-15" d="M521.31,212.84s-81.69,9.36-79.84,13.95c4.85,12.29,79.84-13.95,79.84-13.95Z"/>
  <path class="cls-15" d="M528.49,229.55s-89.81,8.18-85.91,12.01c10.29,10.19,85.91-12.01,85.91-12.01Z"/>
  <path class="cls-15" d="M527.5,249.15s-92.48-1.45-91.05,3.32c3.66,12.81,91.05-3.32,91.05-3.32Z"/>
  <path class="cls-15" d="M533.07,266.65s-101.45-6.75-97.92-2.48c9.25,11.39,97.92,2.48,97.92,2.48Z"/>
  <path class="cls-15" d="M530.06,291.12s-95.2-23.41-94.84-18.37c.85,13.42,94.84,18.37,94.84,18.37Z"/>
  <path class="cls-15" d="M514.13,307.34s-80.71-27.95-78.22-22.84c6.6,13.59,78.22,22.84,78.22,22.84Z"/>
  <path class="cls-10" d="M256.06,445.21c27.96,0,4.48,66.79,4.48,66.79,0,0-42.33-66.79-4.48-66.79Z"/>
  <path class="cls-10" d="M328.64,426.77c26.31-9.23,27.27,61.39,27.27,61.39,0,0-62.88-48.88-27.27-61.39Z"/>
  <path class="cls-10" d="M387.39,386.81c22.02-16.85,45.55,49.89,45.55,49.89,0,0-75.36-27.07-45.55-49.89Z"/>
  <path class="cls-10" d="M64.74,366.42c-18.29-20.7-43.31,32.06-43.31,32.06,0,0,68.03-4.03,43.31-32.06Z"/>
  <path class="cls-10" d="M173.95,443.56c-27.46-5.11-17.14,64.8-17.14,64.8,0,0,54.35-57.88,17.14-64.8Z"/>
  <path class="cls-10" d="M116.48,407.02c-24.41-13.3-37.05,56.25-37.05,56.25,0,0,70.13-38.25,37.05-56.25Z"/>
  <path class="cls-27" d="M237.37,66.8c-27.96,0-4.49-66.8-4.49-66.8,0,0,42.33,66.8,4.49,66.8Z"/>
  <path class="cls-27" d="M72.27,175.48c-16.99,21.73-56.93-37.08-56.93-37.08,0,0,79.91,7.66,56.93,37.08Z"/>
  <path class="cls-27" d="M164.76,85.23c-26.3,9.24-27.25-61.39-27.25-61.39,0,0,62.88,48.88,27.25,61.39Z"/>
  <path class="cls-27" d="M106.02,125.2c-22,16.85-45.55-49.91-45.55-49.91,0,0,75.36,27.09,45.55,49.91Z"/>
  <path class="cls-27" d="M307.44,78.59c26.29,9.24,27.25-61.39,27.25-61.39,0,0-62.88,48.89-27.25,61.39Z"/>
  <path class="cls-27" d="M366.19,118.56c22,16.86,45.55-49.89,45.55-49.89,0,0-75.38,27.07-45.55,49.89Z"/>
  <path class="cls-6" d="M237.37,39.37c-116.47,0-186.3,70.03-210.32,154.15-9.02,31.62-33.02,60.84-25.67,65.5,10.82,6.86,44.63-9.33,42.82-6.67-15.9,23.43-41.21,17.71-42.46,21.73-3.34,10.79,17.72,25.79,25.8,54.35,23.67,83.58,94.16,152.39,209.83,152.39,292.64,0,292.64-441.45,0-441.45Z"/>
  <path class="cls-3" d="M359.97,309.98c17-21.71,56.85,37.16,56.85,37.16,0,0-79.88-7.76-56.85-37.16Z"/>
  <path class="cls-4" d="M375.36,263.55c3.84-27.09,68.21,4.8,68.21,4.8,0,0-73.38,31.92-68.21-4.8Z"/>
  <path class="cls-2" d="M352.34,203.99c3.83-27.11,68.2,4.78,68.2,4.78,0,0-73.37,31.91-68.2-4.78Z"/>
  <path class="cls-1" d="M374.19,154.08c-6.63-26.58,65.23-20.06,65.23-20.06,0,0-56.29,56.05-65.23,20.06Z"/>
  <path class="cls-5" d="M324.69,356.48c22-16.88,45.61,49.86,45.61,49.86,0,0-75.41-27-45.61-49.86Z"/>
  <path class="cls-16" d="M300.24,289.18c22-16.88,51.6,56.24,51.6,56.24,0,0-81.41-33.38-51.6-56.24Z"/>
  <path class="cls-17" d="M228.28,317.64c27.82-2.79,13.79,75.95,13.79,75.95,0,0-51.43-72.15-13.79-75.95Z"/>
  <path class="cls-18" d="M153.02,300.73c25.42,11.43-27,72.35-27,72.35,0,0-7.39-87.8,27-72.35Z"/>
  <path class="cls-19" d="M171.25,152.94c-26.62,8.34-28.59-68.37-28.59-68.37,0,0,64.63,57.04,28.59,68.37Z"/>
  <path class="cls-21" d="M243.21,145c-27.09-6.83,13.6-76.33,13.6-76.33,0,0,23.05,85.57-13.6,76.33Z"/>
  <path class="cls-23" d="M302.89,170.66c-19.78-19.34,50.1-59.65,50.1-59.65,0,0-23.31,85.82-50.1,59.65Z"/>
  <path class="cls-24" d="M281.53,387.69c26.87-7.57,23.21,62.97,23.21,62.97,0,0-59.58-52.72-23.21-62.97Z"/>
  <path class="cls-25" d="M225.41,393.8c27.75,3.47-4.19,66.83-4.19,66.83,0,0-33.35-71.5,4.19-66.83Z"/>
  <path class="cls-26" d="M168.61,379.47c24.22,13.71-30.18,60.01-30.18,60.01,0,0-2.62-78.55,30.18-60.01Z"/>
  <path class="cls-20" d="M96.69,326.64c20.41,18.74-43.39,51.74-43.39,51.74,0,0,15.76-77.07,43.39-51.74Z"/>
  <path class="cls-22" d="M188.75,232.54c-96.28,23.82,136.29,158.77,125.79,24.6-6.64-84.52-67.64-39-125.79-24.6Z"/>
  <path class="cls-14" d="M196,234.55c33.5,14.67,70.21,15.56,67.57,11.46-7-10.86-67.57-11.46-67.57-11.46Z"/>
  <path class="cls-14" d="M181.61,257.84c19.89,24.8,51.03,38.02,51.23,33.35.59-12.36-51.23-33.35-51.23-33.35Z"/>
  <path class="cls-14" d="M180.61,243.57c33.94,24.27,85.07,36.9,83.04,31.91-5.41-13.22-83.04-31.91-83.04-31.91Z"/>
  <path class="cls-9" d="M105.64,152.61c-36.66,0-51.01,31.22-47.81,55.56,2.39,18.09,93.28,18.09,95.63,0,3.38-26.32-14.37-55.56-47.83-55.56Z"/>
  <path class="cls-13" d="M105.64,161.32c-26.46,0-47.81,19.72-47.81,44.14,0,21.04,21.35,44.15,47.81,44.15s47.83-26.94,47.83-44.15c0-24.42-21.45-44.14-47.83-44.14Z"/>
  <path class="cls-9" d="M101.04,169.89c19.71,0,35.68,15.73,35.68,35.12s-15.97,35.13-35.68,35.13-35.7-15.73-35.7-35.13c0-19.39,15.95-35.12,35.7-35.12Z"/>
  <path class="cls-12" d="M98.19,187.44c0,12.76-19.51,12.76-19.51,0s19.51-12.78,19.51,0Z"/>
</svg>