<?xml version="1.0" encoding="UTF-8"?>
<svg id="Layer_1" data-name="Layer 1" xmlns="http://www.w3.org/2000/svg" xmlns:xlink="http://www.w3.org/1999/xlink" viewBox="0 0 512.01 512">
  <defs>
    <style>
      .cls-1 {
        fill: #7a107a;
      }

      .cls-2 {
        fill: #d47706;
      }

      .cls-3 {
        fill: #449c00;
      }

      .cls-4 {
        fill: url(#linear-gradient-8);
      }

      .cls-5 {
        fill: url(#linear-gradient-7);
      }

      .cls-6 {
        fill: url(#linear-gradient-5);
      }

      .cls-7 {
        fill: url(#linear-gradient-6);
      }

      .cls-8 {
        fill: url(#linear-gradient-9);
      }

      .cls-9 {
        fill: url(#linear-gradient-4);
      }

      .cls-10 {
        fill: url(#linear-gradient-3);
      }

      .cls-11 {
        fill: url(#linear-gradient-2);
      }

      .cls-12 {
        fill: url(#linear-gradient);
      }

      .cls-13 {
        fill: #ab11a7;
      }

      .cls-14 {
        fill: #ea8800;
      }

      .cls-15 {
        fill: #56ab15;
      }

      .cls-16 {
        fill: url(#linear-gradient-10);
      }

      .cls-17 {
        fill: #b81d4b;
      }
    </style>
    <linearGradient id="linear-gradient" x1="-1368.83" y1="-226.86" x2="-1368.83" y2="-57.83" gradientTransform="translate(-1057.5229 881.6972) rotate(143.8795)" gradientUnits="userSpaceOnUse">
      <stop offset="0" stop-color="#ffe600"/>
      <stop offset=".33" stop-color="#ffda00"/>
      <stop offset=".91" stop-color="#ffba00"/>
      <stop offset="1" stop-color="#ffb500"/>
    </linearGradient>
    <linearGradient id="linear-gradient-2" x1="153.8" y1="-226.25" x2="153.8" y2="-61.36" gradientTransform="translate(-26.13 129.81) rotate(-36.12) scale(1 -1)" gradientUnits="userSpaceOnUse">
      <stop offset="0" stop-color="#ffb500"/>
      <stop offset=".09" stop-color="#ffba00"/>
      <stop offset=".67" stop-color="#ffda00"/>
      <stop offset="1" stop-color="#ffe600"/>
    </linearGradient>
    <linearGradient id="linear-gradient-3" x1="-901.86" y1="-531.23" x2="-901.86" y2="-357.53" gradientTransform="translate(-527.6621 1119.7172) rotate(103.315)" gradientUnits="userSpaceOnUse">
      <stop offset="0" stop-color="#ab11a7"/>
      <stop offset=".09" stop-color="#b512b1"/>
      <stop offset=".29" stop-color="#c613c2"/>
      <stop offset=".52" stop-color="#d114cc"/>
      <stop offset=".78" stop-color="#d414cf"/>
    </linearGradient>
    <linearGradient id="linear-gradient-4" x1="-314.5" y1="-531.21" x2="-314.5" y2="-359.26" gradientTransform="translate(-233.84 -121.55) rotate(-76.69) scale(1 -1)" gradientUnits="userSpaceOnUse">
      <stop offset=".22" stop-color="#d414cf"/>
      <stop offset=".48" stop-color="#d114cc"/>
      <stop offset=".71" stop-color="#c613c2"/>
      <stop offset=".91" stop-color="#b512b1"/>
      <stop offset="1" stop-color="#ab11a7"/>
    </linearGradient>
    <linearGradient id="linear-gradient-5" x1="-1604.87" y1="137.01" x2="-1604.87" y2="271.97" gradientTransform="translate(-1199.6227 734.8793) rotate(165.5761)" gradientUnits="userSpaceOnUse">
      <stop offset="0" stop-color="#7a0032"/>
      <stop offset=".14" stop-color="#8b0539"/>
      <stop offset="1" stop-color="#f22462"/>
    </linearGradient>
    <linearGradient id="linear-gradient-6" x1="-1585.63" y1="98.25" x2="-1585.63" y2="257.4" gradientTransform="translate(-1212.0426 738.0727) rotate(165.5761)" gradientUnits="userSpaceOnUse">
      <stop offset="0" stop-color="#ff70ab"/>
      <stop offset="1" stop-color="#ff3672"/>
    </linearGradient>
    <linearGradient id="linear-gradient-7" x1="369.22" y1="98.9" x2="369.22" y2="255.74" gradientTransform="translate(24.17 420.73) rotate(-14.42) scale(1 -1)" gradientUnits="userSpaceOnUse">
      <stop offset="0" stop-color="#ff99c3"/>
      <stop offset="1" stop-color="#ff3672"/>
    </linearGradient>
    <linearGradient id="linear-gradient-8" x1="-393.65" y1="27.6" x2="-329.75" y2="27.6" gradientTransform="translate(702.94 198.12) rotate(-45) scale(1 -1)" gradientUnits="userSpaceOnUse">
      <stop offset=".22" stop-color="#d414cf"/>
      <stop offset=".48" stop-color="#d114cc"/>
      <stop offset=".71" stop-color="#c613c2"/>
      <stop offset=".91" stop-color="#b512b1"/>
      <stop offset="1" stop-color="#ab11a7"/>
    </linearGradient>
    <linearGradient id="linear-gradient-9" x1="-1034.4" y1="-181.42" x2="-1034.4" y2="-26.08" gradientTransform="translate(-353.0125 1186.0034) rotate(118.1514)" gradientUnits="userSpaceOnUse">
      <stop offset="0" stop-color="#ffe600"/>
      <stop offset=".33" stop-color="#ffda00"/>
      <stop offset=".91" stop-color="#ffba00"/>
      <stop offset="1" stop-color="#ffb500"/>
    </linearGradient>
    <linearGradient id="linear-gradient-10" x1="-185.24" y1="-180.52" x2="-185.24" y2="-28.94" gradientTransform="translate(249.75 61.55) rotate(-61.85) scale(1 -1)" gradientUnits="userSpaceOnUse">
      <stop offset="0" stop-color="#ffb500"/>
      <stop offset=".09" stop-color="#ffba00"/>
      <stop offset=".67" stop-color="#ffda00"/>
      <stop offset="1" stop-color="#ffe600"/>
    </linearGradient>
  </defs>
  <path class="cls-3" d="M285.29,258.1c64.27-86.41,149.39,11.72,149.39,11.72-97.56,67.49-149.39-11.72-149.39-11.72Z"/>
  <path class="cls-15" d="M434.69,269.82h0c-98.26,76.85-149.4-11.72-149.4-11.72,0,0,70.09-18.34,149.4,11.72Z"/>
  <path class="cls-3" d="M484.92,495.81c1.42,8.16-11.2,13.49-20.86,15.12-35.45-47.08-123.43-156.47-319.97-158.64-68.53-.76,204.47-255.3,199.78-187.15-11.92,172.95,102.95,262.83,161.31,298.15,2.76,12.26-13.26,18.24-20.27,32.53Z"/>
  <path class="cls-3" d="M277.32,354.14c-107.91-77.19-218.31,52.55-218.31,52.55,154.04,47.69,218.31-52.55,218.31-52.55Z"/>
  <path class="cls-15" d="M59.01,406.69h0c156.48,57.71,218.31-52.55,218.31-52.55,0,0-106.08-1.35-218.31,52.55Z"/>
  <path class="cls-3" d="M264.24,288.08C203.55,141.96,0,210.53,0,210.53c129.02,143.26,264.24,77.54,264.24,77.54Z"/>
  <path class="cls-15" d="M0,210.53h0c124.79,155.26,264.24,77.54,264.24,77.54,0,0-110.22-65.82-264.24-77.54Z"/>
  <path class="cls-3" d="M268.13,244.41c-124.22-50.1-60.8-205.83-60.8-205.83,120.26,102.81,60.8,205.83,60.8,205.83Z"/>
  <path class="cls-15" d="M207.33,38.58h0c130.7,99.82,60.8,205.83,60.8,205.83,0,0-54.12-86.56-60.8-205.83Z"/>
  <path class="cls-2" d="M139.99,97.32c-11.46-1.29-23.66-2.71-37.51-8.46-2.07,7.93-10.1,24.58-12.99,44.83-26.05,2.16-42.21,13.62-49.37,18.6,91.33,35.19,148.24,5.56,135.71-93.88-6.91,4.8-24.42,16.64-35.85,38.91Z"/>
  <path class="cls-14" d="M111.72,205.47c33.72,43.81,130.53-23.17,96.84-66.94-33.77-43.8-89.19-48.65-106.09-49.66,30.39,40.64-24.48,72.82,9.24,116.61Z"/>
  <path class="cls-12" d="M182.17,177.66c35.27,26.54,35.89,54.41,25.91,61.3-27.67,19.17-72.45,20.7-100.26-18.89-33.04-47.1-52.81-49.43-67.77-67.74,12.53-8.69,63.92-33.55,142.12,25.33Z"/>
  <path class="cls-11" d="M153.86,197.26c15.93,39.91,43.69,49,53.69,42.09,27.67-19.14,42.9-59.1,11.58-96.28-37.24-44.17-29.34-65.66-43.22-84.72-12.54,8.69-57.4,50.38-22.05,138.91Z"/>
  <path class="cls-3" d="M330.24,272.9c-63.56-94.57,64.01-177.25,64.01-177.25,33.02,130.83-64.01,177.25-64.01,177.25Z"/>
  <path class="cls-15" d="M394.25,95.67h0c42.08,133.56-64.01,177.24-64.01,177.24,0,0,6.31-87.97,64.01-177.24Z"/>
  <path class="cls-3" d="M309.31,187.34C215.83,118.74,306.33,0,306.33,0c77.74,112.5,2.98,187.34,2.98,187.34Z"/>
  <path class="cls-15" d="M306.33,0h0c87.24,112.17,2.98,187.34,2.98,187.34,0,0-25.47-84.83-2.98-187.34Z"/>
  <path class="cls-3" d="M318.49,292.04c-13.47-111.39-167.44-99.46-167.44-99.46,61.25,121.36,167.44,99.46,167.44,99.46Z"/>
  <path class="cls-15" d="M151.05,192.57h0c55.98,128.92,167.44,99.46,167.44,99.46,0,0-63.32-64.56-167.44-99.46Z"/>
  <path class="cls-15" d="M98.04,273.03s116.39,27.55,324.86,186.98c18.78,14.35,39.73,30.86,57.28,51.99l15.13-12.67c-20.09-18.74-39.69-35.94-58.74-51.72C236.97,282.33,98.04,273.03,98.04,273.03Z"/>
  <path class="cls-15" d="M246.58,154.7s66.24,127.35,204.89,271.09c17.43,18.07,38.79,31.44,60.54,47.33l-6.09,16.27c-22.57-14.32-45.99-30.66-63.95-48.5-136.9-136.05-195.39-286.19-195.39-286.19Z"/>
  <path class="cls-15" d="M271.45,269.26c-3.87,3.88-7.78,7.73-11.74,11.51,43.12,53.62,104.29,108.42,176,159.14l1.7-7.57c-67.83-55.07-122.51-114.69-165.96-163.08Z"/>
  <path class="cls-1" d="M54.55,269.61c-9.6,6.06-19.84,12.47-34.35,16.58,3.93,7.31,9.28,24.88,21.03,42.06-18.33,17.62-22.69,36.22-24.7,44.42,93.64-29.33,116.45-86.77,38.43-154.66-1.97,7.93-7.09,27.67-.41,51.59Z"/>
  <path class="cls-13" d="M107.55,369.12c55.84,12.6,83.21-97.72,27.45-110.3-55.77-12.57-101.27,17.8-114.81,27.37,51.09,12.24,31.56,70.37,87.36,82.93Z"/>
  <path class="cls-10" d="M141.95,304.74c45.05-1.47,64.72,19.32,61.9,30.67-7.83,31.56-40.8,60.2-89.19,47.2-57.52-15.51-74.17-5.12-98.14-9.86,3.53-14.28,25.42-64.72,125.43-68Z"/>
  <path class="cls-9" d="M133.92,337.02c39.6,20.53,66.94,10.4,69.81-1,7.79-31.52-8.16-71.22-57.56-80.24-58.68-10.69-67.52-31.88-91.19-37.84-3.56,14.3-8.89,73.5,78.93,119.07Z"/>
  <path class="cls-17" d="M320.73,91.04c-9.78-5.07-20.14-10.44-30.37-20.22-4.84,6.37-18.23,18.53-28.4,35.59-24.09-6.86-42.85-2.07-51.15-.09,68.53,62.24,130.57,54.98,156.61-37.92-8.06,1.95-28.13,6.59-46.69,22.64Z"/>
  <path class="cls-6" d="M254.97,177.94c13.79,50.47,125.41,23.4,111.65-27.05-13.79-50.42-61.52-73.45-76.25-80.06,11.98,46.49-49.17,56.69-35.4,107.11Z"/>
  <path class="cls-7" d="M328.44,176.9c21.56,35.58,11.7,60.64.21,63.45-31.93,7.72-72.55-6.03-82.61-50.72-11.91-53.13-28.79-61.9-35.27-83.29,14.49-3.46,69.73-8.31,117.67,70.56Z"/>
  <path class="cls-5" d="M295.77,184.83c-.74,40.96,20.74,58.44,32.21,55.62,31.96-7.7,60.53-38.23,46.4-81.91-16.72-51.98-1.66-68.49-6.92-90.18-14.45,3.55-70.2,25.63-71.69,116.47Z"/>
  <path class="cls-4" d="M434.08,401.6c-16.67,1.22-18.54,30.78-40.54,39.4-6.5,2.55,20.46,22.98,27.68,23.22,19.35.79,29.33-34.46,34.91-39.57,5.06-4.62-14.9-23.54-22.05-23.05Z"/>
  <path class="cls-13" d="M441.68,408.39c-16.69,1.22-18.55,30.78-40.54,39.4,18.92-.39,26.67-31.61,40.54-39.4Z"/>
  <path class="cls-13" d="M452.98,418.23c-16.7,1.23-18.56,30.79-40.55,39.41,18.92-.4,26.67-31.61,40.55-39.41Z"/>
  <path class="cls-3" d="M306.05,294.28c69.86-47.48,107.53,46.96,107.53,46.96-89.61,24.94-107.53-46.96-107.53-46.96Z"/>
  <path class="cls-15" d="M413.58,341.24h0c-92.54,31.7-107.53-46.96-107.53-46.96,0,0,56.6,4.39,107.53,46.96Z"/>
  <path class="cls-3" d="M254.88,313.03c-88,62.33,8.76,149.12,8.76,149.12,69.69-95.87-8.76-149.12-8.76-149.12Z"/>
  <path class="cls-15" d="M263.65,462.14h0c79.1-96.38-8.76-149.12-8.76-149.12,0,0-19.81,69.49,8.76,149.12Z"/>
  <path class="cls-2" d="M196.04,243.37c-9.98,3.47-20.65,7.14-34.37,7.88,1.45,7.41,1.47,24.35,7.18,42.24-20.68,12.12-29.47,28.01-33.39,34.98,89.56-7.17,124.79-54.25,74.68-131.52-3.8,6.72-13.54,23.47-14.1,46.41Z"/>
  <path class="cls-14" d="M215.92,344c45.4,22.82,98.64-70.97,53.29-93.8-45.41-22.82-93.18-4.8-107.55,1.05,41.38,21.55,8.86,69.96,54.25,92.75Z"/>
  <path class="cls-8" d="M263.04,293.04c39.77,7.94,51.4,30.74,45.92,40.4-15.19,26.82-51.63,45.86-90.44,24.18-46.11-25.82-63.43-19.89-83.11-29.08,6.9-12.18,39.46-53.14,127.64-35.5Z"/>
  <path class="cls-16" d="M247.48,320.48c29.12,26.68,55.69,23.16,61.22,13.48,15.23-26.81,11.83-65.89-28.93-84.19-48.44-21.72-50.49-42.63-69.6-52.88-6.92,12.17-27.3,64.44,37.31,123.59Z"/>
  <path class="cls-3" d="M306,307.74c90.23,31.25,29.58,128.89,29.58,128.89-83-64.3-29.58-128.89-29.58-128.89Z"/>
  <path class="cls-15" d="M335.57,436.63h0c-91.15-62.4-29.58-128.89-29.58-128.89,0,0,34.09,54.15,29.58,128.89Z"/>
</svg>