<?xml version="1.0" encoding="UTF-8"?>
<svg id="Layer_1" data-name="Layer 1" xmlns="http://www.w3.org/2000/svg" xmlns:xlink="http://www.w3.org/1999/xlink" viewBox="0 0 511.99 512">
  <defs>
    <style>
      .cls-1 {
        fill: #297124;
      }

      .cls-2 {
        fill: #bf7f55;
      }

      .cls-3 {
        fill: #6e8189;
      }

      .cls-4 {
        fill: url(#linear-gradient-8);
      }

      .cls-5 {
        fill: url(#linear-gradient-7);
      }

      .cls-6 {
        fill: url(#linear-gradient-5);
      }

      .cls-7 {
        fill: url(#linear-gradient-6);
      }

      .cls-8 {
        fill: url(#linear-gradient-9);
      }

      .cls-9 {
        fill: url(#linear-gradient-4);
      }

      .cls-10 {
        fill: url(#linear-gradient-3);
      }

      .cls-11 {
        fill: url(#linear-gradient-2);
      }

      .cls-12 {
        fill: url(#linear-gradient);
      }

      .cls-13 {
        fill: #ffdeb8;
      }

      .cls-14 {
        fill: #6ba81e;
      }

      .cls-15 {
        fill: #529320;
      }

      .cls-16 {
        fill: #fff;
      }

      .cls-17 {
        fill: url(#linear-gradient-10);
      }

      .cls-18 {
        fill: url(#linear-gradient-11);
      }

      .cls-19 {
        fill: url(#linear-gradient-12);
      }

      .cls-20 {
        fill: url(#linear-gradient-13);
      }

      .cls-21 {
        fill: url(#linear-gradient-19);
      }

      .cls-22 {
        fill: url(#linear-gradient-14);
      }

      .cls-23 {
        fill: url(#linear-gradient-21);
      }

      .cls-24 {
        fill: url(#linear-gradient-20);
      }

      .cls-25 {
        fill: url(#linear-gradient-22);
      }

      .cls-26 {
        fill: url(#linear-gradient-23);
      }

      .cls-27 {
        fill: url(#linear-gradient-28);
      }

      .cls-28 {
        fill: url(#linear-gradient-25);
      }

      .cls-29 {
        fill: url(#linear-gradient-32);
      }

      .cls-30 {
        fill: url(#linear-gradient-31);
      }

      .cls-31 {
        fill: url(#linear-gradient-33);
      }

      .cls-32 {
        fill: url(#linear-gradient-30);
      }

      .cls-33 {
        fill: url(#linear-gradient-15);
      }

      .cls-34 {
        fill: url(#linear-gradient-16);
      }

      .cls-35 {
        fill: url(#linear-gradient-17);
      }

      .cls-36 {
        fill: url(#linear-gradient-18);
      }

      .cls-37 {
        fill: url(#linear-gradient-35);
      }

      .cls-38 {
        fill: url(#linear-gradient-34);
      }

      .cls-39 {
        fill: url(#linear-gradient-27);
      }

      .cls-40 {
        fill: url(#linear-gradient-24);
      }

      .cls-41 {
        fill: url(#linear-gradient-26);
      }

      .cls-42 {
        fill: url(#linear-gradient-29);
      }

      .cls-43 {
        fill: #302c3b;
      }

      .cls-44 {
        fill: #5c9c0b;
      }
    </style>
    <linearGradient id="linear-gradient" x1="546.48" y1="359.94" x2="395.8" y2="196.89" gradientTransform="translate(-120.38 544.75) rotate(7.11) scale(1 -1)" gradientUnits="userSpaceOnUse">
      <stop offset="0" stop-color="#92c932"/>
      <stop offset="1" stop-color="#529320"/>
    </linearGradient>
    <linearGradient id="linear-gradient-2" x1="-1009.56" y1="79.92" x2="-946.35" y2="79.92" gradientTransform="translate(671.29 -495.43) rotate(-76.88) scale(1 -1)" gradientUnits="userSpaceOnUse">
      <stop offset="0" stop-color="#c4b400"/>
      <stop offset="1" stop-color="#f5ea1b"/>
    </linearGradient>
    <linearGradient id="linear-gradient-3" x1="-981.59" y1="98.51" x2="-919.65" y2="98.51" gradientTransform="translate(671.29 -495.43) rotate(-76.88) scale(1 -1)" gradientUnits="userSpaceOnUse">
      <stop offset="0" stop-color="#c4b400"/>
      <stop offset="1" stop-color="#f5ea1b"/>
    </linearGradient>
    <linearGradient id="linear-gradient-4" x1="-963.82" y1="125.77" x2="-889.44" y2="125.77" gradientTransform="translate(671.29 -495.43) rotate(-76.88) scale(1 -1)" gradientUnits="userSpaceOnUse">
      <stop offset="0" stop-color="#c4b400"/>
      <stop offset="1" stop-color="#f5ea1b"/>
    </linearGradient>
    <linearGradient id="linear-gradient-5" x1="-492.89" y1="262.33" x2="-449.56" y2="262.33" gradientTransform="translate(-276.6 688.24) rotate(162.82) scale(1 1.12) skewX(1.9)" gradientUnits="userSpaceOnUse">
      <stop offset="0" stop-color="#92c932"/>
      <stop offset="1" stop-color="#529320"/>
    </linearGradient>
    <linearGradient id="linear-gradient-6" x1="-510.15" y1="262.89" x2="-470.62" y2="262.89" gradientTransform="translate(-276.6 688.24) rotate(162.82) scale(1 1.12) skewX(1.9)" gradientUnits="userSpaceOnUse">
      <stop offset="0" stop-color="#92c932"/>
      <stop offset="1" stop-color="#529320"/>
    </linearGradient>
    <linearGradient id="linear-gradient-7" x1="-526.58" y1="264.1" x2="-491.52" y2="264.1" gradientTransform="translate(-276.6 688.24) rotate(162.82) scale(1 1.12) skewX(1.9)" gradientUnits="userSpaceOnUse">
      <stop offset="0" stop-color="#92c932"/>
      <stop offset="1" stop-color="#529320"/>
    </linearGradient>
    <linearGradient id="linear-gradient-8" x1="-542.79" y1="265.21" x2="-510.97" y2="265.21" gradientTransform="translate(-276.6 688.24) rotate(162.82) scale(1 1.12) skewX(1.9)" gradientUnits="userSpaceOnUse">
      <stop offset="0" stop-color="#92c932"/>
      <stop offset="1" stop-color="#529320"/>
    </linearGradient>
    <linearGradient id="linear-gradient-9" x1="-558.79" y1="265.62" x2="-529.59" y2="265.62" gradientTransform="translate(-276.6 688.24) rotate(162.82) scale(1 1.12) skewX(1.9)" gradientUnits="userSpaceOnUse">
      <stop offset="0" stop-color="#92c932"/>
      <stop offset="1" stop-color="#529320"/>
    </linearGradient>
    <linearGradient id="linear-gradient-10" x1="-576.61" y1="267" x2="-545.5" y2="267" gradientTransform="translate(-276.6 688.24) rotate(162.82) scale(1 1.12) skewX(1.9)" gradientUnits="userSpaceOnUse">
      <stop offset="0" stop-color="#92c932"/>
      <stop offset="1" stop-color="#529320"/>
    </linearGradient>
    <linearGradient id="linear-gradient-11" x1="-593.53" y1="270.27" x2="-562.43" y2="270.27" gradientTransform="translate(-276.6 688.24) rotate(162.82) scale(1 1.12) skewX(1.9)" gradientUnits="userSpaceOnUse">
      <stop offset="0" stop-color="#92c932"/>
      <stop offset="1" stop-color="#529320"/>
    </linearGradient>
    <linearGradient id="linear-gradient-12" x1="-542.23" y1="326.27" x2="-555.08" y2="237.91" gradientTransform="translate(-202.27 684.08) rotate(159.04) scale(1 1.12) skewX(1.89)" gradientUnits="userSpaceOnUse">
      <stop offset="0" stop-color="#92c932"/>
      <stop offset=".23" stop-color="#8dc531"/>
      <stop offset=".5" stop-color="#7fb92d"/>
      <stop offset=".8" stop-color="#67a526"/>
      <stop offset="1" stop-color="#529320"/>
    </linearGradient>
    <linearGradient id="linear-gradient-13" x1="244.57" y1="189.96" x2="385.94" y2="189.96" gradientTransform="translate(-120.38 544.75) rotate(7.11) scale(1 -1)" gradientUnits="userSpaceOnUse">
      <stop offset="0" stop-color="#529320"/>
      <stop offset=".28" stop-color="#457b18"/>
      <stop offset=".87" stop-color="#243c05"/>
      <stop offset="1" stop-color="#1d2e00"/>
    </linearGradient>
    <linearGradient id="linear-gradient-14" x1="25.36" y1="-435.7" x2="42.56" y2="-231.44" gradientTransform="translate(124.74 157.45) rotate(-10.96) scale(.94 -.73) skewX(-.34)" gradientUnits="userSpaceOnUse">
      <stop offset="0" stop-color="#f50"/>
      <stop offset=".21" stop-color="#fb5200"/>
      <stop offset=".4" stop-color="#f04900"/>
      <stop offset=".59" stop-color="#de3a00"/>
      <stop offset=".77" stop-color="#c42500"/>
      <stop offset=".94" stop-color="#a30a00"/>
      <stop offset="1" stop-color="#960000"/>
    </linearGradient>
    <linearGradient id="linear-gradient-15" x1="28.21" y1="-400.93" x2="43.08" y2="-224.39" gradientTransform="translate(124.74 157.45) rotate(-10.96) scale(.94 -.73) skewX(-.34)" gradientUnits="userSpaceOnUse">
      <stop offset="0" stop-color="#f50"/>
      <stop offset=".14" stop-color="#ed4600"/>
      <stop offset=".53" stop-color="#be2000"/>
      <stop offset=".83" stop-color="#a10900"/>
      <stop offset="1" stop-color="#960000"/>
    </linearGradient>
    <linearGradient id="linear-gradient-16" x1="207.08" y1="249.8" x2="265.06" y2="103.75" gradientTransform="translate(0 514) scale(1 -1)" gradientUnits="userSpaceOnUse">
      <stop offset="0" stop-color="#92c932"/>
      <stop offset="1" stop-color="#529320"/>
    </linearGradient>
    <linearGradient id="linear-gradient-17" x1="293.05" y1="138.44" x2="261.82" y2="146.49" gradientTransform="translate(0 514) scale(1 -1)" gradientUnits="userSpaceOnUse">
      <stop offset="0" stop-color="#92c932"/>
      <stop offset="1" stop-color="#92c932" stop-opacity="0"/>
    </linearGradient>
    <linearGradient id="linear-gradient-18" x1="208.05" y1="82.35" x2="170.26" y2="92.08" gradientTransform="translate(118.83 466.79) rotate(-7.4) scale(1 -1)" gradientUnits="userSpaceOnUse">
      <stop offset="0" stop-color="#92c932"/>
      <stop offset="1" stop-color="#92c932" stop-opacity="0"/>
    </linearGradient>
    <linearGradient id="linear-gradient-19" x1="79.64" y1="27.76" x2="37.06" y2="38.73" gradientTransform="translate(262.01 383.21) rotate(-17.02) scale(1 -1)" gradientUnits="userSpaceOnUse">
      <stop offset="0" stop-color="#92c932"/>
      <stop offset="1" stop-color="#92c932" stop-opacity="0"/>
    </linearGradient>
    <linearGradient id="linear-gradient-20" x1="-87.89" y1="15.52" x2="-130.82" y2="26.58" gradientTransform="translate(435.7 277.66) rotate(-23.64) scale(1.17 -1) skewX(-1.98)" gradientUnits="userSpaceOnUse">
      <stop offset="0" stop-color="#92c932"/>
      <stop offset="1" stop-color="#92c932" stop-opacity="0"/>
    </linearGradient>
    <linearGradient id="linear-gradient-21" x1="-26.29" y1="1837.92" x2="-64.56" y2="1847.78" gradientTransform="translate(-307.8856 -1464.2116) rotate(-22.621) scale(1.1697 1.0023) skewX(-1.9788)" gradientUnits="userSpaceOnUse">
      <stop offset="0" stop-color="#92c932"/>
      <stop offset="1" stop-color="#92c932" stop-opacity="0"/>
    </linearGradient>
    <linearGradient id="linear-gradient-22" x1="-137.64" y1="1843.45" x2="-171.27" y2="1852.11" gradientTransform="translate(-420.7096 -1458.0519) rotate(-28.9447) scale(1.1697 1.0022) skewX(-1.978)" gradientUnits="userSpaceOnUse">
      <stop offset="0" stop-color="#92c932"/>
      <stop offset="1" stop-color="#92c932" stop-opacity="0"/>
    </linearGradient>
    <linearGradient id="linear-gradient-23" x1="-163.88" y1="1830.91" x2="-191.52" y2="1838.03" gradientTransform="translate(-420.7096 -1458.0519) rotate(-28.9447) scale(1.1697 1.0022) skewX(-1.978)" gradientUnits="userSpaceOnUse">
      <stop offset="0" stop-color="#92c932"/>
      <stop offset="1" stop-color="#92c932" stop-opacity="0"/>
    </linearGradient>
    <linearGradient id="linear-gradient-24" x1="335.55" y1="464.08" x2="385.35" y2="393.28" gradientTransform="translate(-236.95 559.89) rotate(13.93) scale(1 -1)" gradientUnits="userSpaceOnUse">
      <stop offset="0" stop-color="#92c932"/>
      <stop offset=".25" stop-color="#7fb92d"/>
      <stop offset=".73" stop-color="#5e9d23"/>
      <stop offset="1" stop-color="#529320"/>
    </linearGradient>
    <linearGradient id="linear-gradient-25" x1="307.98" y1="352.99" x2="321.81" y2="339.84" gradientTransform="translate(-12.08 517.77) rotate(.72) scale(1 -1)" gradientUnits="userSpaceOnUse">
      <stop offset="0" stop-color="#92c932"/>
      <stop offset="1" stop-color="#529320"/>
    </linearGradient>
    <linearGradient id="linear-gradient-26" x1="375.02" y1="470.74" x2="399.49" y2="459.44" gradientTransform="translate(-173.74 553.09) rotate(10.09) scale(1 -1)" gradientUnits="userSpaceOnUse">
      <stop offset="0" stop-color="#92c932"/>
      <stop offset=".25" stop-color="#8ec631"/>
      <stop offset=".5" stop-color="#82bb2d"/>
      <stop offset=".75" stop-color="#6eaa28"/>
      <stop offset="1" stop-color="#529320"/>
    </linearGradient>
    <linearGradient id="linear-gradient-27" x1="367.74" y1="481.84" x2="387.55" y2="475.75" gradientTransform="translate(-202.22 557.05) rotate(11.72) scale(1 -1)" gradientUnits="userSpaceOnUse">
      <stop offset="0" stop-color="#92c932"/>
      <stop offset=".22" stop-color="#8cc430"/>
      <stop offset=".52" stop-color="#7bb62c"/>
      <stop offset=".86" stop-color="#5f9e24"/>
      <stop offset="1" stop-color="#529320"/>
    </linearGradient>
    <linearGradient id="linear-gradient-28" x1="284.08" y1="429.49" x2="313.49" y2="429.49" gradientTransform="translate(-138.99 548.87) rotate(8.11) scale(1 -1)" gradientUnits="userSpaceOnUse">
      <stop offset="0" stop-color="#92c932"/>
      <stop offset="1" stop-color="#529320"/>
    </linearGradient>
    <linearGradient id="linear-gradient-29" x1="275.6" y1="414.32" x2="312.13" y2="414.32" gradientTransform="translate(-154.35 551.88) rotate(9.01) scale(1 -1)" gradientUnits="userSpaceOnUse">
      <stop offset="0" stop-color="#92c932"/>
      <stop offset="1" stop-color="#529320"/>
    </linearGradient>
    <linearGradient id="linear-gradient-30" x1="315.2" y1="449.04" x2="355.42" y2="449.04" gradientTransform="translate(-245.2 563.11) rotate(14.23) scale(1 -1)" gradientUnits="userSpaceOnUse">
      <stop offset="0" stop-color="#92c932"/>
      <stop offset="1" stop-color="#529320"/>
    </linearGradient>
    <linearGradient id="linear-gradient-31" x1="333.04" y1="465.76" x2="352.5" y2="461.02" gradientTransform="translate(-176.91 554.3) rotate(10.27) scale(1 -1)" gradientUnits="userSpaceOnUse">
      <stop offset="0" stop-color="#92c932"/>
      <stop offset="1" stop-color="#529320"/>
    </linearGradient>
    <linearGradient id="linear-gradient-32" x1="419.38" y1="196.29" x2="344.89" y2="181.45" gradientTransform="translate(0 514) scale(1 -1)" gradientUnits="userSpaceOnUse">
      <stop offset="0" stop-color="#92c932"/>
      <stop offset="1" stop-color="#529320"/>
    </linearGradient>
    <linearGradient id="linear-gradient-33" x1="422.31" y1="182.65" x2="325.08" y2="163.28" gradientTransform="translate(0 514) scale(1 -1)" gradientUnits="userSpaceOnUse">
      <stop offset="0" stop-color="#92c932"/>
      <stop offset="1" stop-color="#529320"/>
    </linearGradient>
    <linearGradient id="linear-gradient-34" x1="407.11" y1="156.53" x2="308.88" y2="148.97" gradientTransform="translate(0 514) scale(1 -1)" gradientUnits="userSpaceOnUse">
      <stop offset="0" stop-color="#92c932"/>
      <stop offset="1" stop-color="#529320"/>
    </linearGradient>
    <linearGradient id="linear-gradient-35" x1="363.53" y1="133.68" x2="305.76" y2="132.76" gradientTransform="translate(0 514) scale(1 -1)" gradientUnits="userSpaceOnUse">
      <stop offset="0" stop-color="#92c932"/>
      <stop offset=".98" stop-color="#529320"/>
    </linearGradient>
  </defs>
  <path class="cls-14" d="M500.85,60.72c-32.08,36.16-101.91,7.2-182.07,105.11-3.12,3.76,22.96,29.76,33.36,22.16,60-101.19,131.51-74.72,155.99-121.35,2.24-4.08-4.88-8.56-7.28-5.92Z"/>
  <path class="cls-15" d="M481.49,273.27c17.04.4,30.48,2.72,30.48,2.72,0,0-19.12-19.2-45.76-28.8,21.92-2.16,41.84.16,41.84.16,0,0-29.92-26.48-65.92-29.44,26.72-6.56,53.12-7.92,53.12-7.92,0,0-38.64-18.64-79.92-17.92,28.32-12.56,61.44-18.48,61.44-18.48,0,0-56.8-19.2-103.51-2.56-19.12,6.8,97.11,141.75,113.83,150.47,14.48,7.6,24.88,15.2,24.88,15.2,0,0-6.4-18.88-20.56-37.12,12.16,3.76,20.56,7.52,20.56,7.52,0,0-11.2-18.64-30.48-33.84Z"/>
  <path class="cls-12" d="M278.23,393.27c22.48-1.2,50.32,31.2,55.12,57.28,9.52,51.6,180.31-45.2,178.63-72.4-7.04-114.79-78.96-176.31-117.59-191.27-126.95-25.44-128.55,207.03-116.15,206.39Z"/>
  <path class="cls-11" d="M334.46,460.7c.8,1.84,25.36,17.04,84.4-13.12-.64-6.56-8.64-35.36-14.56-33.2-58.16,21.2-81.68,11.52-79.84,14.8,8.88,15.6,6,22.24,10,31.52Z"/>
  <path class="cls-10" d="M325.42,431.5c1.6,1.2,30.64,10.24,83.84-13.28-.64-6.56-16.96-37.6-22.88-35.44-58.16,21.2-81.52,23.36-78.72,25.84,8.96,8.08,11.6,18.24,17.76,22.88Z"/>
  <path class="cls-9" d="M308.46,409.66c1.92.64,30.08-.32,83.28-23.84-.64-6.56-25.84-42.4-31.76-40.24-58.16,21.2-82.8,45.36-79.2,46.32,14.72,4,23.92,16.64,27.68,17.76Z"/>
  <path class="cls-15" d="M414.62,449.74s13.6-5.68,26.72-13.28c-20.96-69.68-78.88-109.03-78.88-109.03l-20.4,20.16s50.64,38.32,72.56,102.15Z"/>
  <path class="cls-6" d="M51.04,253.35c2.8,2.56,26.16,17.36,38.4,41.84,30.72-6.4,6.48-36.88-2-47.36-4.4-5.52-44.24-1.68-36.4,5.52Z"/>
  <path class="cls-7" d="M71.68,248.47c2.56,2.32,23.84,15.76,35.04,38.16,28-5.84,5.92-33.6-1.84-43.2-4-4.96-40.4-1.44-33.2,5.04Z"/>
  <path class="cls-5" d="M92,243.35c2.24,2.08,21.2,14,31.04,33.84,24.88-5.2,5.28-29.84-1.6-38.32-3.6-4.4-35.84-1.36-29.44,4.48Z"/>
  <path class="cls-4" d="M110.79,238.07c2,1.84,19.2,12.72,28.16,30.72,22.56-4.72,4.72-27.04-1.44-34.8-3.28-4-32.56-1.12-26.72,4.08Z"/>
  <path class="cls-8" d="M128.87,233.51c1.84,1.68,17.6,11.68,25.84,28.16,20.72-4.32,4.4-24.8-1.36-31.92-2.96-3.6-29.84-1.04-24.48,3.76Z"/>
  <path class="cls-17" d="M143.67,227.83c1.84,2,17.84,11.68,26.72,29.44,22.32-4.64,6.64-30.8-8.24-38.48-4.56-2.4-22.72,4.56-18.48,9.04Z"/>
  <path class="cls-18" d="M158.63,219.35c1.84,2,17.84,11.68,26.72,29.44,22.32-4.64,6.64-30.8-8.24-38.48-4.56-2.4-22.64,4.56-18.48,9.04Z"/>
  <path class="cls-2" d="M290.78,186.32c27.2-27.44,47.04-67.68,35.28-124.63-1.04-4.96-15.36,1.84-16.16,5.36-8.72,40.56-26.48,64.4-50.96,82.48,4.72,5.6,24.96,29.52,31.84,36.8Z"/>
  <path class="cls-19" d="M199.43,186.56c-8.88,6.8-17.36,14.32-25.28,23.28-1.84,2.08,13.28,10.8,24.32,26.72.56.8,14.48-2.24,32.96-10.32-10.4-13.52-20.72-26.96-32-39.68Z"/>
  <path class="cls-15" d="M168.63,492.78c23.36,10.8,44.48,2.08,53.52-8.24,9.36-10.64-20.64,4.72-42.16-15.12-6.08-5.68-19.28,19.68-11.36,23.36Z"/>
  <path class="cls-15" d="M182.55,482.86c25.6,2.72,42.72-12.4,47.84-25.04,5.28-13.04-17.92,11.12-44.8-.72-7.6-3.36-11.76,24.88-3.04,25.76Z"/>
  <path class="cls-15" d="M141.75,500.38c20.16,16.32,42.48,12.96,53.52,5.04,11.36-8.16-20.96-.4-37.44-25.2-4.56-7.04-22.88,14.56-16.08,20.16Z"/>
  <path class="cls-20" d="M166.95,290.63c14.08-7.92,85.6,1.84,129.03,33.92-95.59,75.92-76.4,157.91-149.27,165.83-9.52,1.04-16-7.04-10.16-19.92,15.68-34.64,111.51-120.71,30.4-179.83Z"/>
  <path class="cls-22" d="M313.9,357.19l37.28-61.28c-67.6,3.04-129.35,29.84-167.19,80-37.92,50.32-88.56,94.79-132.47,51.92,16.16,74.88,107.59,52.64,147.99-6.56,32.8-48.16,77.92-64.32,114.39-64.08Z"/>
  <path class="cls-33" d="M333.42,321.75l17.68-25.92c-70.56-8.4-136.39,21.2-174.23,71.36-37.92,50.32-71.92,96.55-125.43,60.56,38.08,52.4,97.91,11.2,138.31-48,32.88-48.08,107.27-58.24,143.67-58Z"/>
  <path class="cls-13" d="M185.83,295.75c-1.04,19.6,10.64,33.2,16.4,38.72,1.28,1.28,3.12-.48,3.2-3.04.24-8.8,1.52-26.08,6.88-40.88,3.6-9.76-25.92-5.68-26.48,5.2Z"/>
  <path class="cls-13" d="M205.99,292.71c-1.04,19.6,10.64,33.2,16.4,38.72,1.28,1.28,3.12-.48,3.2-3.04.24-8.8,1.52-26.08,6.88-40.88,3.6-9.76-25.92-5.6-26.48,5.2Z"/>
  <path class="cls-13" d="M224.47,289.99c-1.04,19.6,10.64,33.2,16.4,38.72,1.28,1.28,3.12-.48,3.2-3.04.24-8.8,1.52-26.08,6.88-40.88,3.6-9.76-25.92-5.6-26.48,5.2Z"/>
  <path class="cls-13" d="M240.63,288.55c-1.04,19.6,10.64,33.2,16.4,38.72,1.28,1.28,3.12-.48,3.2-3.04.24-8.8,1.52-26.08,6.88-40.88,3.6-9.76-25.92-5.68-26.48,5.2Z"/>
  <path class="cls-13" d="M164.71,294.71c-1.12,20.96,11.36,35.6,17.6,41.52,1.44,1.36,3.36-.48,3.44-3.2.32-9.44,1.6-28,7.44-43.84,3.76-10.56-27.92-6.08-28.48,5.52Z"/>
  <path class="cls-13" d="M140.31,299.11c-1.2,22.4,12.16,38.08,18.8,44.4,1.52,1.44,3.6-.56,3.68-3.44.32-10.08,1.68-29.92,7.92-46.88,4.08-11.2-29.76-6.48-30.4,5.92Z"/>
  <path class="cls-13" d="M113.99,303.35c-1.2,23.52,12.72,39.92,19.68,46.56,1.6,1.52,3.76-.56,3.84-3.6.32-10.56,1.84-31.36,8.32-49.12,4.32-11.76-31.12-6.88-31.84,6.16Z"/>
  <path class="cls-13" d="M84.4,314.47c-1.28,24.8,13.44,42.16,20.8,49.12,1.68,1.6,4-.56,4.08-3.84.32-11.12,1.92-33.12,8.8-51.84,4.48-12.4-32.96-7.12-33.68,6.56Z"/>
  <path class="cls-13" d="M48.32,323.11c.88,28.48,19.44,46.8,28.56,54.08,2.08,1.68,4.48-1.04,4.32-4.8-.64-12.8-.96-38,5.12-60.16,4.08-14.56-38.4-4.88-38,10.88Z"/>
  <path class="cls-13" d="M250.87,394.79c-15.84-12.32-18.56-30.32-18.96-38.48-.08-1.84,2.48-2.08,4.48-.4,6.96,5.68,21.2,16.32,36.24,22.08,9.92,3.84-13.04,23.68-21.76,16.8Z"/>
  <path class="cls-13" d="M266.15,384.63c-15.84-12.32-18.56-30.32-18.96-38.48-.08-1.84,2.48-2.08,4.48-.4,6.96,5.68,21.2,16.32,36.24,22.08,9.92,3.76-13.04,23.6-21.76,16.8Z"/>
  <path class="cls-13" d="M279.99,375.35c-15.84-12.32-18.56-30.32-18.96-38.48-.08-1.84,2.48-2.08,4.48-.4,6.96,5.68,21.2,16.32,36.24,22.08,10,3.84-12.96,23.6-21.76,16.8Z"/>
  <path class="cls-13" d="M236.31,411.34c-16.96-13.2-19.92-32.56-20.32-41.28-.08-2,2.64-2.24,4.8-.48,7.44,6.08,22.72,17.52,38.88,23.68,10.64,4.16-13.92,25.36-23.36,18.08Z"/>
  <path class="cls-13" d="M220.39,429.02c-18.16-14.08-21.28-34.8-21.76-44.08-.08-2.08,2.8-2.4,5.12-.48,8,6.48,24.24,18.72,41.52,25.36,11.44,4.32-14.88,26.96-24.88,19.2Z"/>
  <path class="cls-13" d="M202.79,449.18c-18.96-14.8-22.32-36.48-22.8-46.24-.08-2.24,2.96-2.48,5.36-.48,8.4,6.8,25.44,19.6,43.52,26.56,12,4.56-15.6,28.32-26.08,20.16Z"/>
  <path class="cls-13" d="M182.87,469.34c-20.08-15.6-23.52-38.48-24.08-48.8-.08-2.32,3.12-2.64,5.68-.56,8.8,7.2,26.88,20.72,46,28,12.64,4.88-16.48,30-27.6,21.36Z"/>
  <path class="cls-13" d="M151.67,490.38c-21.44-19.76-23.12-46.24-22.72-58.08.08-2.72,3.84-2.72,6.56-.08,9.44,9.04,28.72,26.16,49.92,36.32,14.08,6.72-21.84,32.72-33.76,21.84Z"/>
  <path class="cls-44" d="M500.69,1.85c-28.8,56.16-126.47,42.24-196.07,192.15-2.72,5.84,38.72,30.16,49.36,17.2C396.86,63.68,495.97,73.92,511.81,7.05c1.44-6-8.96-9.36-11.12-5.2Z"/>
  <path class="cls-14" d="M450.7,1.85c-28.8,56.16-126.47,42.24-196.07,192.15-2.72,5.84,38.64,30.16,49.36,17.2C346.94,63.68,445.98,73.92,461.9,7.05c1.44-6-9.04-9.36-11.2-5.2Z"/>
  <path class="cls-14" d="M371.74,302.47c49.92-15.92,98.55-68.88,107.99-92.08,11.76-28.96-56.08,47.6-111.75,50.64-15.76.88-13.2,46.8,3.76,41.44Z"/>
  <path class="cls-14" d="M391.42,259.19c45.44-23.28,76.48-72.56,84.4-95.51,9.52-27.68-40,42.16-92.16,54.64-14.72,3.52-7.68,48.8,7.76,40.88Z"/>
  <path class="cls-14" d="M382.46,332.63c41.52-15.92,80.56-50.08,93.52-72.16,17.2-29.2-34.72,29.6-92.48,32.72-16.32.8-18.96,46.32-1.04,39.44Z"/>
  <path class="cls-14" d="M380.06,365.75c43.36-10.64,85.44-41.92,100.15-64.32,19.52-29.6-37.36,26.96-96.31,20.64-16.64-1.84-22.56,48.32-3.84,43.68Z"/>
  <path class="cls-14" d="M384.7,232.71c50.24-37.28,80.56-97.59,86.64-126.23,7.36-34.64-41.2,58.24-100.95,84.32-16.96,7.44-2.8,54.64,14.32,41.92Z"/>
  <path class="cls-44" d="M362.94,274.39c31.92,0,66.24-28.32,74-43.52,9.68-18.96-38.4,22.48-72.72,11.44-9.68-3.12-12.08,32.16-1.28,32.08Z"/>
  <path class="cls-44" d="M354.46,250.15c31.84-1.44,57.52-25.76,65.52-40.8,9.68-18.24-30.88,18.24-65.6,8.72-9.84-2.72-10.8,32.56.08,32.08Z"/>
  <path class="cls-44" d="M374.7,301.03c28.8-.56,58.4-18.88,69.6-34.96,14.8-21.36-26.16,15.6-63.84-1.44-10.64-4.8-18.16,36.64-5.76,36.4Z"/>
  <path class="cls-44" d="M372.86,327.35c28.64,3.36,60.4-10.72,73.76-25.12,17.68-19.12-28.08,11.84-63.04-10.16-9.92-6.24-23.12,33.84-10.72,35.28Z"/>
  <path class="cls-44" d="M336.7,229.11c33.52-3.2,62-26.4,71.36-40.32,11.28-16.88-33.6,18.16-69.44,11.76-10.08-1.84-13.36,29.6-1.92,28.56Z"/>
  <path class="cls-2" d="M351.9,193.36c19.84-17.44,46.08-53.04,36.96-135.27-.48-4.64-16.96-2.4-17.68,1.84-14.24,89.6-64.96,76.88-110.79,104.87.96.24,88.4,26.24,91.52,28.56Z"/>
  <path class="cls-34" d="M385.02,297.27c0-.16.08-.24.08-.4,14.4-2.24,20.4-21.84-.4-27.92,12.8-9.76,8.48-27.44-10.16-23.04,9.76-9.92,3.68-19.92-12.4-14.24,6.4-12.56-1.12-21.92-15.44-11.6-7.36-32.96-230.07,48.8-304.7,104.71,72.8-4.96,143.75-28.32,217.19-9.92,13.84,3.44,18.56,20.72,8.24,30.56-70.64,67.12-64.32,122.31-124.71,138.47-9.2,2.48-6.16-13.44-6.16-13.44,0,0-22.8,32.24,17.2,32,62.16-.48,65.36-102.63,158.87-112.23,12.24-1.28,46.8-30.4,63.92-66.72,19.44-1.68,28.4-22.48,8.48-26.24Z"/>
  <path class="cls-14" d="M310.3,220.79c1.92-14.56-12.56-63.12,109.67-93.44-31.6,36.48-33.12,92.72-109.67,93.44Z"/>
  <path class="cls-35" d="M255.91,375.59c14.08,3.76,31.28-.24,39.2-5.84,10.48-7.36-15.12,3.28-30.8-9.44-4.4-3.6-14.48,13.68-8.4,15.28Z"/>
  <path class="cls-36" d="M270.07,363.83c17.52,2.48,37.44-4.72,46-12.48,11.36-10.32-17.6,6-38.56-7.04-5.92-3.68-14.96,18.4-7.44,19.52Z"/>
  <path class="cls-21" d="M281.82,347.43c20.08-.16,40.8-11.6,48.72-21.76,10.48-13.44-18.32,9.76-44.48-1.28-7.44-3.12-12.96,23.12-4.24,23.04Z"/>
  <path class="cls-24" d="M282.78,326.47c23.12-3.52,45.2-18.64,53.6-29.84,5.12-6.8-25.44,6.48-58.08,8.32-9.12.48-5.44,22.96,4.48,21.52Z"/>
  <path class="cls-23" d="M256.07,295.67c17.12-11.52,42.08-15.04,55.6-12.96,8.16,1.28-20.8,11.04-42.64,29.2-6.16,5.04-20.32-11.28-12.96-16.24Z"/>
  <path class="cls-25" d="M227.43,293.83c13.92-11.68,35.52-16.96,47.68-16.32,7.36.4-17.12,11.52-34.48,29.52-4.88,5.04-19.2-8.16-13.2-13.2Z"/>
  <path class="cls-26" d="M202.07,293.67c11.44-9.6,29.2-13.92,39.2-13.44,6.08.32-14.08,9.52-28.32,24.24-4.08,4.16-15.84-6.64-10.88-10.8Z"/>
  <path class="cls-40" d="M419.98,127.44c-102.55,13.12-118.31,56-124.07,56.24-90.72,3.36-161.67,103.43-238.55,66.48-8.08-3.92-57.36-15.2-57.36,41.44,0,28.8,21.68,56.8,53.12,34.56,98.07-69.52,193.35-33.92,241.19-68.96,30-22,37.84-42.16,36.4-55.6-.88-8.64-3.6-42.24,89.28-74.16Z"/>
  <path class="cls-1" d="M57.28,276.63c4,3.68-26.96,30.96-31.12,26.88-11.6-11.44,15.44-41.44,31.12-26.88Z"/>
  <path class="cls-15" d="M217.11,190.8c-20.4-8.56,7.12-85.68-6.08-63.84-44.88,74.4-12,105.11,6.08,63.84Z"/>
  <path class="cls-15" d="M201.83,188.72c-19.76.32-3.12-66.8-11.2-46.88-27.52,67.36,1.28,82.64,11.2,46.88Z"/>
  <path class="cls-15" d="M243.91,182.96c-23.44-20.96,48.32-107.11,23.36-85.04-85.68,75.92-63.28,130.23-23.36,85.04Z"/>
  <path class="cls-15" d="M275.35,164.8c-17.28-20.96,55.6-85.6,31.28-69.92-82.56,53.44-71.12,103.19-31.28,69.92Z"/>
  <path class="cls-15" d="M308.94,171.12c11.68-32.48,50.56-27.2,48.72-63.68-9.68,26.96-67.92,25.12-81.2,68.48l32.48-4.8Z"/>
  <path class="cls-15" d="M284.7,172.08c8.88-33.36,51.04-40.4,46.16-76.48-7.44,27.68-64.24,38.4-73.84,82.72l27.68-6.24Z"/>
  <path class="cls-28" d="M309.5,182.88c23.76-16.24,29.2-42.32,25.2-48.88-15.28,37.12-142.31,91.2-25.2,48.88Z"/>
  <path class="cls-41" d="M288.3,182.48c20.48-15.04,31.28-59.44,25.12-56.96-21.92,44.4-110.31,88.08-25.12,56.96Z"/>
  <path class="cls-39" d="M263.19,184.16c23.12-22.96,26.24-67.2,21.36-62.8-24.8,37.36-86.48,120.15-21.36,62.8Z"/>
  <path class="cls-27" d="M228.07,194.72c-24.72-11.36,14.64-88.32-.48-68.64-51.28,66.96-20.96,106.87.48,68.64Z"/>
  <path class="cls-42" d="M216.47,206.4c-22.96,8.8-22.64-64.88-27.68-49.28-17.44,52.88,12.32,82.96,27.68,49.28Z"/>
  <path class="cls-32" d="M207.27,215.35c-20.56,8.48-31.28-45.76-31.36-28.4-.48,58.96,36,57.76,31.36,28.4Z"/>
  <path class="cls-30" d="M248.63,192.32c-7.2-19.44,29.52-90.8,11.36-72-58.88,60.72-40.8,107.91-11.36,72Z"/>
  <path class="cls-16" d="M256.31,211.6c9.92,22.24-21.6,41.2-46.4,22.96,8.8-34.48,41.12-34.8,46.4-22.96Z"/>
  <path class="cls-43" d="M243.43,224.79c.88,19.2-27.28,21.52-28.08,2.16-.8-19.2,27.44-21.52,28.08-2.16Z"/>
  <path class="cls-3" d="M235.03,214.39c6.16-.56,6.48,7.6.32,8.24-6.24.4-6.56-7.76-.32-8.24Z"/>
  <path class="cls-1" d="M193.99,237.19c6.48,8.96,70.88,27.28,74.96-35.36,0,0,13.12-11.44,49.68-18.4-37.84-10.96-116.95,4.64-124.63,53.76ZM211.83,233.83c5.6-25.52,33.28-28,39.84-19.12,12.96,17.44-24.56,29.6-39.84,19.12Z"/>
  <path class="cls-29" d="M370.86,314.79c-7.52-3.44-12.88,25.84-4.08,25.68,20.32-.32,41.28-13.2,49.2-24.56,10.48-15.04-18.56,10.96-45.12-1.12Z"/>
  <path class="cls-31" d="M344.06,361.51c28.48,4.16,60.72-9.04,74.48-23.04,18.16-18.56-28.4,11.04-62.72-11.92-9.76-6.56-24.08,33.12-11.76,34.96Z"/>
  <path class="cls-38" d="M324.62,377.99c27.76,7.76,61.36-1.36,76.8-13.52,20.4-16.16-29.6,7.44-60.72-19.68-8.8-7.68-28.08,29.84-16.08,33.2Z"/>
  <path class="cls-37" d="M324.94,369.43c-4.8-5.6-20.24,16.24-13.04,19.44,16.72,7.28,38.56,4.56,49.36-1.76,14.16-8.4-19.28,2-36.32-17.68Z"/>
</svg>