<?xml version="1.0" encoding="UTF-8"?>
<svg id="Layer_1" data-name="Layer 1" xmlns="http://www.w3.org/2000/svg" xmlns:xlink="http://www.w3.org/1999/xlink" viewBox="0 0 464.01 512">
  <defs>
    <style>
      .cls-1 {
        fill: url(#linear-gradient-5);
      }

      .cls-2 {
        fill: url(#linear-gradient-4);
      }

      .cls-3 {
        fill: url(#linear-gradient-3);
      }

      .cls-4 {
        fill: url(#linear-gradient-2);
      }

      .cls-5 {
        fill: url(#linear-gradient);
      }

      .cls-6 {
        fill: red;
      }
    </style>
    <linearGradient id="linear-gradient" x1="232.01" y1="2" x2="232.01" y2="470.24" gradientTransform="translate(0 514) scale(1 -1)" gradientUnits="userSpaceOnUse">
      <stop offset=".1" stop-color="#f90"/>
      <stop offset="1" stop-color="red"/>
    </linearGradient>
    <linearGradient id="linear-gradient-2" x1="245.89" y1="9.84" x2="245.89" y2="355.12" gradientTransform="translate(0 514) scale(1 -1)" gradientUnits="userSpaceOnUse">
      <stop offset="0" stop-color="#ffe600"/>
      <stop offset=".16" stop-color="#ffc600"/>
      <stop offset=".43" stop-color="#ff9700"/>
      <stop offset=".67" stop-color="#ff7500"/>
      <stop offset=".87" stop-color="#ff6100"/>
      <stop offset="1" stop-color="#ff5900"/>
    </linearGradient>
    <linearGradient id="linear-gradient-3" x1="-1967.63" y1="17.44" x2="-1967.63" y2="176.72" gradientTransform="translate(-1740.2251 514) rotate(-180)" gradientUnits="userSpaceOnUse">
      <stop offset="0" stop-color="#fff8e3"/>
      <stop offset=".21" stop-color="#ffeca9"/>
      <stop offset=".49" stop-color="#ffdd61"/>
      <stop offset=".73" stop-color="#ffd12d"/>
      <stop offset=".9" stop-color="#ffcb0c"/>
      <stop offset="1" stop-color="#ffc800"/>
    </linearGradient>
    <linearGradient id="linear-gradient-4" x1="63.69" y1="270.56" x2="63.69" y2="377.12" gradientTransform="translate(0 514) scale(1 -1)" gradientUnits="userSpaceOnUse">
      <stop offset="0" stop-color="#f90"/>
      <stop offset=".18" stop-color="#ff9500"/>
      <stop offset=".34" stop-color="#ff8b00"/>
      <stop offset=".5" stop-color="#ff7800"/>
      <stop offset=".65" stop-color="#ff5f00"/>
      <stop offset=".79" stop-color="#ff3e00"/>
      <stop offset=".93" stop-color="#ff1600"/>
      <stop offset="1" stop-color="red"/>
    </linearGradient>
    <linearGradient id="linear-gradient-5" x1="391.78" y1="237.28" x2="391.78" y2="328.96" gradientTransform="translate(0 514) scale(1 -1)" gradientUnits="userSpaceOnUse">
      <stop offset="0" stop-color="#f90"/>
      <stop offset=".18" stop-color="#ff9500"/>
      <stop offset=".34" stop-color="#ff8b00"/>
      <stop offset=".5" stop-color="#ff7800"/>
      <stop offset=".65" stop-color="#ff5f00"/>
      <stop offset=".79" stop-color="#ff3e00"/>
      <stop offset=".93" stop-color="#ff1600"/>
      <stop offset="1" stop-color="red"/>
    </linearGradient>
  </defs>
  <path class="cls-5" d="M430.64,234c21.36,87.52-43.84,121.84-82.48,85.92-71.28-66.08,92.56-140.32-37.76-218.4,44.56,93.76-63.52,108.56-63.92,51.84-.48-60.32-25.92-99.36-97.68-109.6,49.04,69.36,9.04,110.48-38.16,196.56-23.44,42.8-8.32,102.24-8.32,102.24,0,0-29.28-73.28-102.32-71.04,43.28,45.92,18.48,64.96,33.44,123.84,17.12,67.68,97.12,116.64,202.32,116.64,198.4,0,279.76-188,194.88-278Z"/>
  <path class="cls-4" d="M411.92,354.56c-31.36,41.44-108.88,35.68-108.88,35.68,47.84-79.44-12.24-101.2,6.32-177.6-53.6,28.4-48.96,71.76-74.4,90.72-33.52,24.88-54.8-57.6-31.2-144.48-121.92,119.6-38,255.2-38,255.2,0,0-56.16-3.36-85.44-49.68-7.28,31.52,4.32,139.76,162.96,139.76,137.6-.08,177.36-108.72,168.64-149.6Z"/>
  <path class="cls-3" d="M238.48,496.56c-102.48,0-116.48-41.04-116.48-72.88,30.08,53.76,94.72,29.28,78.72-3.84-14.08-29.04,4-80.16,59.84-82.56-43.92,61.84,17.84,113.44,71.68,84.56,5.76,34.8-31.84,74.72-93.76,74.72Z"/>
  <path class="cls-2" d="M48.32,136.88c11.92,28.8,81.92,58.48,16.96,106.56-3.76-35.84-53.84-63.28-16.96-106.56Z"/>
  <path class="cls-1" d="M407.84,185.04c-11.92,24.48-74.32,46.96-20.64,91.68,5.2-30.88,50.24-52.4,20.64-91.68Z"/>
  <path class="cls-6" d="M279.92,0c-.24,23.52-38.48,61.44,16.72,80.4-6.88-26.56,18.8-58.16-16.72-80.4Z"/>
</svg>