<?xml version="1.0" encoding="UTF-8"?>
<svg id="Layer_1" data-name="Layer 1" xmlns="http://www.w3.org/2000/svg" xmlns:xlink="http://www.w3.org/1999/xlink" viewBox="0 0 512 512">
  <defs>
    <style>
      .cls-1 {
        fill: #cfd8dd;
      }

      .cls-2 {
        fill: #6e8189;
      }

      .cls-3 {
        fill: url(#linear-gradient-4);
      }

      .cls-4 {
        fill: url(#linear-gradient-3);
      }

      .cls-5 {
        fill: url(#linear-gradient-2);
      }

      .cls-6 {
        fill: #1a1626;
      }

      .cls-7 {
        fill: url(#radial-gradient);
      }

      .cls-8 {
        fill: #99a8ae;
      }

      .cls-9 {
        fill: url(#linear-gradient);
      }

      .cls-10 {
        fill: #fa5393;
      }

      .cls-11 {
        fill: #fff;
      }

      .cls-12 {
        fill: #ff8cbc;
      }

      .cls-13 {
        fill: #302c3b;
      }
    </style>
    <linearGradient id="linear-gradient" x1="-251.42" y1="-347.99" x2="-251.42" y2="-104.68" gradientTransform="translate(104.81 -251.03) rotate(-45) scale(1 -1)" gradientUnits="userSpaceOnUse">
      <stop offset="0" stop-color="#c159ff"/>
      <stop offset=".2" stop-color="#26bfff"/>
      <stop offset=".4" stop-color="#2aedbe"/>
      <stop offset=".6" stop-color="#aeff21"/>
      <stop offset=".8" stop-color="#ffbf00"/>
      <stop offset=".92" stop-color="#ff7300"/>
      <stop offset="1" stop-color="#ff3c00"/>
    </linearGradient>
    <radialGradient id="radial-gradient" cx="-251.42" cy="537.33" fx="-251.42" fy="537.33" r="90.5" gradientTransform="translate(7863.7531 7507.9164) rotate(-45) scale(1 -19.9998)" gradientUnits="userSpaceOnUse">
      <stop offset="0" stop-color="#fff" stop-opacity=".3"/>
      <stop offset=".15" stop-color="silver" stop-opacity=".22"/>
      <stop offset=".31" stop-color="#898989" stop-opacity=".15"/>
      <stop offset=".44" stop-color="#616161" stop-opacity=".08"/>
      <stop offset=".54" stop-color="#494949" stop-opacity=".03"/>
      <stop offset=".61" stop-color="#404040" stop-opacity="0"/>
    </radialGradient>
    <linearGradient id="linear-gradient-2" x1="-213.7" y1="1292" x2="-213.7" y2="1086.29" gradientTransform="translate(564 -780)" gradientUnits="userSpaceOnUse">
      <stop offset=".25" stop-color="#cfd8dd"/>
      <stop offset=".61" stop-color="#d7dfe3"/>
      <stop offset="1" stop-color="#e6ebef"/>
    </linearGradient>
    <linearGradient id="linear-gradient-3" x1="-354.62" y1="1230.99" x2="-401.65" y2="1084.11" gradientTransform="translate(564 -780)" gradientUnits="userSpaceOnUse">
      <stop offset=".25" stop-color="#cfd8dd"/>
      <stop offset=".61" stop-color="#d7dfe3"/>
      <stop offset="1" stop-color="#e6ebef"/>
    </linearGradient>
    <linearGradient id="linear-gradient-4" x1="239.22" y1="358.95" x2="239.22" y2="466.12" gradientTransform="translate(0 514) scale(1 -1)" gradientUnits="userSpaceOnUse">
      <stop offset="0" stop-color="#6e8189"/>
      <stop offset=".26" stop-color="#7d8f96"/>
      <stop offset=".7" stop-color="#92a1a8"/>
      <stop offset="1" stop-color="#99a8ae"/>
    </linearGradient>
  </defs>
  <path class="cls-1" d="M157.83,61.93c5.29-13.69,83,37.3,86.44,123.66.28,5.55-39.35.45-63.57-18.82,0,0-31.65-82.14-22.87-104.84Z"/>
  <path class="cls-2" d="M162.55,81.36c.56-15.25,57.28,34.3,58.67,94.14.14,3.83-26.54-4.65-42.68-20.93,0,0-16.42-62.18-16-73.21Z"/>
  <path class="cls-9" d="M7.06,1.42C1.92-2.31-2.32,1.91,1.43,7.05c6.68,9.2,133.93,184.21,133.93,184.21,29.07-3.28,52.76-27.14,56.23-56.14,0,0-182.96-132.58-184.53-133.71Z"/>
  <path class="cls-7" d="M7.06,1.42C1.92-2.31-2.32,1.91,1.43,7.05c6.68,9.2,133.93,184.21,133.93,184.21,29.07-3.28,52.76-27.14,56.23-56.14,0,0-182.96-132.58-184.53-133.71Z"/>
  <path class="cls-10" d="M216.21,114.47c53.5,75.6,160.63,134.27,223.66,87.18-17.52-107.45-133.87-143.16-223.66-87.18Z"/>
  <path class="cls-12" d="M256.09,138.44c43.88,86.31,150.69,164.61,230.17,132.98,2.5-109.21-119.21-167.17-230.17-132.98Z"/>
  <path class="cls-10" d="M322.36,178.84c19.92,94.72,98.24,215.6,183.24,205.66,21.86-146.45-67.19-209.96-183.24-205.66Z"/>
  <path class="cls-12" d="M388.99,238.9c-15.01,95.58,26.63,171.88,89.3,227.52,81.37-60,1.1-220.92-89.3-227.52Z"/>
  <path class="cls-5" d="M255.05,137.3c-45.48,70.95-30.33,244.75-30.33,244.75,69.5,12.87,34.33,129.95,77.12,129.95,121.48,0,176.45-45.58,176.45-45.58-5.6-159.74-129.83-323.11-223.24-329.12Z"/>
  <path class="cls-4" d="M293.89,152.11c-4.29-19.37-57.32-139.14-71.57-117.74-15.12,22.68-8.25,97.56-8.25,97.56-26.03,1.18-37.7,47.95-80.09,56.84-6,1.26-4.8,5.1-8.07,8.15-57.85,53.83-106.35,118.43-116.3,140.5-9.6,21.29,3.2,32.62.46,49-4.25,25.41,21.44,36.83,25.96,36.01.91,9.12,25.66,21.89,41.58,19.79,31.2-4.14,48.23-27.27,82.75-35.47,130.19-30.92,149.04-66.81,153.42-107.65,10.19-95.21-19.89-146.99-19.89-146.99Z"/>
  <path class="cls-13" d="M36.92,370.22c-4.55,3.2-15.59,5.58-18.94,1.26-3.34-4.33,2.32-13.75,6.84-16.94,4.48-3.17,10.85-2.25,14.19,2.07,3.34,4.31,2.39,10.43-2.09,13.6Z"/>
  <path class="cls-8" d="M26.25,337.65c-4.6,2.79-3.78,4.53.23,3.01,4.07-1.48,23.75-6.47,25.42,14.29,0,0,1.1,9.31,3.6.07,2.47-9.27-3.44-33.18-29.25-17.38Z"/>
  <path class="cls-10" d="M212.7,107.44s-3.8,43.85,60.91,109.38c0,0-169.53-37.97-60.91-109.38Z"/>
  <path class="cls-10" d="M411.45,281.85c-106.92-65.03-40.28-184.96-125.61-162.3-18.95,90.3,48.43,157.96,125.61,162.3Z"/>
  <path class="cls-13" d="M193.33,215.77l16.58,19.27s9.97-2.32,10.06-24.72c0,0-11.23,9.91-26.64,5.44Z"/>
  <path class="cls-13" d="M196.78,230.61l13.91,21.26s10.18-.97,13.22-23.19c-.02.02-12.44,8.38-27.14,1.92Z"/>
  <path class="cls-13" d="M178.06,211.34c-25.55,0-35.55,21.64-33.31,38.54,1.67,12.54,65.02,12.54,66.64,0,2.37-18.28-10-38.54-33.33-38.54Z"/>
  <path class="cls-11" d="M178.06,217.37c-18.42,0-33.31,13.69-33.31,30.6,0,14.61,14.9,30.62,33.31,30.62s33.33-18.66,33.33-30.62c0-16.91-14.93-30.6-33.33-30.6Z"/>
  <path class="cls-6" d="M174.86,223.31c13.75,0,24.87,10.89,24.87,24.35s-11.12,24.37-24.87,24.37-24.88-10.92-24.88-24.37,11.13-24.35,24.88-24.35Z"/>
  <path class="cls-11" d="M172.88,235.49c0,8.84-13.58,8.84-13.58,0,0-8.88,13.58-8.88,13.58,0Z"/>
  <path class="cls-13" d="M109.63,371.26c5.86,46.14-53.64,66.14-73.58,51.18,25.05.56,62.65-17.85,73.58-51.18Z"/>
  <path class="cls-3" d="M223.65,48.52c3.29-8.01,42.06,60.43,34.6,106.53-8.64-9.43-35.99-19.61-37.51-30.1-2.85-19.63-1.54-65.57,2.91-76.43Z"/>
</svg>