<?xml version="1.0" encoding="UTF-8"?>
<svg id="Layer_1" data-name="Layer 1" xmlns="http://www.w3.org/2000/svg" xmlns:xlink="http://www.w3.org/1999/xlink" viewBox="0 0 590.74 512">
  <defs>
    <style>
      .cls-1 {
        fill: #528008;
      }

      .cls-2 {
        fill: #1a1626;
      }

      .cls-3 {
        fill: url(#radial-gradient);
      }

      .cls-4 {
        fill: url(#linear-gradient);
      }

      .cls-5 {
        fill: #ed7196;
      }

      .cls-6 {
        fill: #fff;
      }

      .cls-7 {
        fill: #ffd500;
      }

      .cls-8 {
        fill: #355406;
      }
    </style>
    <linearGradient id="linear-gradient" x1="295.37" y1="21.69" x2="295.37" y2="579.74" gradientTransform="translate(0 514) scale(1 -1)" gradientUnits="userSpaceOnUse">
      <stop offset="0" stop-color="#649c2b"/>
      <stop offset=".14" stop-color="#70a82d"/>
      <stop offset=".41" stop-color="#83ba30"/>
      <stop offset=".7" stop-color="#8ec531"/>
      <stop offset="1" stop-color="#92c932"/>
    </linearGradient>
    <radialGradient id="radial-gradient" cx="290.09" cy="93.14" fx="290.09" fy="93.14" r="309.98" gradientTransform="translate(4.01 335.57) scale(1 -.77)" gradientUnits="userSpaceOnUse">
      <stop offset=".25" stop-color="#ffdaad"/>
      <stop offset=".55" stop-color="#fdd8ab"/>
      <stop offset=".73" stop-color="#f6d0a2"/>
      <stop offset=".87" stop-color="#eac394"/>
      <stop offset="1" stop-color="#d9b181"/>
      <stop offset="1" stop-color="#d9b080"/>
    </radialGradient>
  </defs>
  <path class="cls-4" d="M570.26,159.07c-5.21-8.57-5.48-13.07-3.96-22.24,1.02-6.08,1.56-12.31,1.56-18.68,0-65.23-53.15-118.15-118.7-118.15-38.98,0-73.54,18.77-95.17,47.7-7,9.37-11.58,12.69-24.82,12.11-10.83-.48-22.07-.74-33.79-.74s-22.97.26-33.79.74c-13.26.58-17.83-2.74-24.83-12.11C215.13,18.77,180.56,0,141.58,0,76.05,0,22.89,52.92,22.89,118.15c0,6.37.55,12.6,1.57,18.68,1.52,9.18,1.25,13.68-3.97,22.24C3.18,187.42-1.32,217.4.31,242.69c6.21,96.18,138.22,249.62,295.06,249.62s288.84-153.44,295.05-249.62c1.66-25.28-2.86-55.27-20.16-83.61Z"/>
  <path class="cls-3" d="M539.49,298.04c-69.55,50.92-244.03,83.93-244.11,83.95-.08-.02-174.55-33.02-244.11-83.95,0,0-39.19-26.05-50.96-55.35,9.26,161.2,155.99,269.3,295.07,269.3s285.81-108.1,295.06-269.31c-11.77,29.29-50.95,55.36-50.95,55.36Z"/>
  <path class="cls-8" d="M264.47,245.98c0,6.92-17.99,12.53-24.86,12.53-19.31,0-19.31-25.1,0-25.1,6.87,0,24.86,5.6,24.86,12.56Z"/>
  <path class="cls-8" d="M351.14,258.52c-6.88,0-24.86-5.61-24.86-12.53s17.98-12.55,24.86-12.55c19.31,0,19.31,25.09,0,25.09Z"/>
  <path class="cls-1" d="M449.2,29.52c-67.63,0-94.14,57.06-88.21,101.55,4.38,33.05,172.11,33.07,176.46,0,6.25-48.13-26.47-101.55-88.25-101.55Z"/>
  <path class="cls-7" d="M449.22,45.4c-48.75,0-88.23,36.12-88.23,80.67,0,38.5,39.48,80.73,88.23,80.73s88.23-49.23,88.23-80.73c0-44.55-39.48-80.67-88.23-80.67Z"/>
  <path class="cls-2" d="M449.22,61.06c36.4,0,65.88,28.75,65.88,64.23s-29.48,64.21-65.88,64.21-65.88-28.73-65.88-64.21,29.46-64.23,65.88-64.23Z"/>
  <path class="cls-6" d="M443.99,93.17c0,23.35-35.96,23.35-35.96,0,0-23.38,35.96-23.38,35.96,0Z"/>
  <path class="cls-1" d="M141.57,29.54c67.64,0,94.13,57.04,88.21,101.54-4.38,33.05-172.11,33.09-176.44,0-6.28-48.14,26.46-101.54,88.23-101.54Z"/>
  <path class="cls-7" d="M141.57,45.4c48.73,0,88.21,36.12,88.21,80.69,0,38.48-39.48,80.69-88.21,80.69s-88.23-49.19-88.23-80.69c0-44.57,39.48-80.69,88.23-80.69Z"/>
  <ellipse class="cls-2" cx="141.57" cy="125.28" rx="65.88" ry="64.22"/>
  <path class="cls-6" d="M146.8,93.17c0,23.35,35.93,23.35,35.93,0s-35.93-23.38-35.93,0Z"/>
  <path class="cls-2" d="M51.3,298.04c31.5,50.73,162.38,93.33,244.1,93.33s212.6-42.6,244.09-93.33c-87.93,36.11-108.19-7.99-244.1-7.99-109.49,0-156.16,44.09-244.09,7.99Z"/>
  <path class="cls-5" d="M392.14,362.58c4.9-39.89-96.67-14.91-96.67-14.91,0,0-101.78-24.98-96.85,14.91,4.68,38.38,188.83,38.38,193.52,0Z"/>
</svg>