<?xml version="1.0" encoding="UTF-8"?>
<svg id="Layer_1" data-name="Layer 1" xmlns="http://www.w3.org/2000/svg" xmlns:xlink="http://www.w3.org/1999/xlink" viewBox="0 0 529.57 512">
  <defs>
    <style>
      .cls-1 {
        fill: url(#linear-gradient-5);
      }

      .cls-2 {
        fill: url(#linear-gradient-4);
      }

      .cls-3 {
        fill: url(#linear-gradient-3);
      }

      .cls-4 {
        fill: url(#linear-gradient-2);
      }

      .cls-5 {
        fill: url(#linear-gradient);
      }

      .cls-6 {
        fill: #ffb5c2;
      }

      .cls-7 {
        fill: #ffc2cc;
      }

      .cls-8 {
        fill: #ffdc82;
      }

      .cls-9 {
        fill: #90e300;
      }

      .cls-10 {
        fill: #fae420;
      }

      .cls-11 {
        fill: #7ac700;
      }

      .cls-12 {
        fill: #fa5f7c;
      }

      .cls-13 {
        fill: #fef970;
      }

      .cls-14 {
        fill: #820036;
        isolation: isolate;
        opacity: .2;
      }

      .cls-15 {
        fill: #ffa1b1;
      }
    </style>
    <linearGradient id="linear-gradient" x1="271.83" y1="268.96" x2="214.54" y2="27.11" gradientTransform="translate(0 514.01) scale(1 -1)" gradientUnits="userSpaceOnUse">
      <stop offset=".07" stop-color="#820036"/>
      <stop offset=".08" stop-color="#87033b"/>
      <stop offset=".21" stop-color="#b21f64"/>
      <stop offset=".33" stop-color="#d33584"/>
      <stop offset=".45" stop-color="#eb459b"/>
      <stop offset=".56" stop-color="#fa4fa9"/>
      <stop offset=".65" stop-color="#ff52ae"/>
    </linearGradient>
    <linearGradient id="linear-gradient-2" x1="271.89" y1="269.98" x2="16.39" y2="223.47" gradientTransform="translate(0 514.01) scale(1 -1)" gradientUnits="userSpaceOnUse">
      <stop offset=".07" stop-color="#820036"/>
      <stop offset=".08" stop-color="#87033b"/>
      <stop offset=".21" stop-color="#b21c62"/>
      <stop offset=".33" stop-color="#d33082"/>
      <stop offset=".45" stop-color="#eb3e98"/>
      <stop offset=".56" stop-color="#fa47a5"/>
      <stop offset=".65" stop-color="#ff4aaa"/>
    </linearGradient>
    <linearGradient id="linear-gradient-3" x1="275.67" y1="272.65" x2="131.59" y2="488.77" gradientTransform="translate(0 514.01) scale(1 -1)" gradientUnits="userSpaceOnUse">
      <stop offset=".07" stop-color="#820036"/>
      <stop offset=".08" stop-color="#87033b"/>
      <stop offset=".21" stop-color="#b21961"/>
      <stop offset=".33" stop-color="#d32b7f"/>
      <stop offset=".45" stop-color="#eb3894"/>
      <stop offset=".56" stop-color="#fa3fa2"/>
      <stop offset=".65" stop-color="#ff42a6"/>
    </linearGradient>
    <linearGradient id="linear-gradient-4" x1="293.62" y1="413.73" x2="405.52" y2="650.04" gradientTransform="translate(-84.56 618.46) rotate(9.06) scale(1 -1)" gradientUnits="userSpaceOnUse">
      <stop offset=".07" stop-color="#820036"/>
      <stop offset=".08" stop-color="#87033b"/>
      <stop offset=".21" stop-color="#b21f64"/>
      <stop offset=".33" stop-color="#d33584"/>
      <stop offset=".45" stop-color="#eb459b"/>
      <stop offset=".56" stop-color="#fa4fa9"/>
      <stop offset=".65" stop-color="#ff52ae"/>
    </linearGradient>
    <linearGradient id="linear-gradient-5" x1="267.88" y1="262.8" x2="513.51" y2="151.49" gradientTransform="translate(0 514.01) scale(1 -1)" gradientUnits="userSpaceOnUse">
      <stop offset=".07" stop-color="#820036"/>
      <stop offset=".08" stop-color="#87033b"/>
      <stop offset=".21" stop-color="#b21961"/>
      <stop offset=".33" stop-color="#d32b7f"/>
      <stop offset=".45" stop-color="#eb3894"/>
      <stop offset=".56" stop-color="#fa3fa2"/>
      <stop offset=".65" stop-color="#ff42a6"/>
    </linearGradient>
  </defs>
  <path class="cls-11" d="M181.54,348.09c44.66,134.25-138.75,120.04-138.75,120.04,0,0,72.82-104.42,138.75-120.04Z"/>
  <path class="cls-9" d="M181.54,348.09c-61.61,23.48-138.75,120.04-138.75,120.04,0,0,13.5-175.74,138.75-120.04Z"/>
  <path class="cls-11" d="M298.32,325.41c-88.53,145.9,88.18,186.59,88.18,186.59,0,0-31.78-147.31-88.18-186.59Z"/>
  <path class="cls-9" d="M298.32,325.41c49.52,47.31,88.18,186.59,88.18,186.59,0,0,48.55-213.51-88.18-186.59Z"/>
  <path class="cls-11" d="M348.63,226.64c102.65,109.45,180.94-62.67,180.94-62.67,0,0-133.54,11.47-180.94,62.67Z"/>
  <path class="cls-9" d="M348.63,226.64c52.61-43.25,180.94-62.67,180.94-62.67,0,0-170.26-78.64-180.94,62.67Z"/>
  <path class="cls-5" d="M269.89,245.79c53.4,26.66,116.6,127.45,47.13,205.04-4.06,40.25-48.99,44.31-48.99,44.31,0,0-24.89,20.12-59.4.97-41.22-6.18-45.1-34.78-45.1-34.78,0,0-29.04-19.07-24.63-50.66-31.86-79.61,64.08-132.75,130.98-164.88Z"/>
  <path class="cls-4" d="M270.42,246.32c3.09,58.43-72.2,150.58-183.15,136.02,0,0-39.72,9.8-53.14-30.54,0,0-34.16-16.51-24.89-59.4-25.42-53.66,9.62-76.79,9.62-76.79,8.56-32.39,45.37-37.16,45.37-37.16,60.28-49.96,150.05,18.62,206.19,67.88Z"/>
  <path class="cls-3" d="M270.25,245.79c26.83-65.32,46.43-180.68-22.15-222.34C226.2-11.06,184.45,2.71,184.45,2.71c-46.34-5.12-58.25,27.19-58.25,27.19-36.63,8.3-38.84,54.11-38.84,54.11-17.83,36.28,2.91,57.46,2.91,57.46,22.68,87.82,125.42,115.98,179.97,104.33Z"/>
  <path class="cls-2" d="M264.33,251.88c97.97-3.18,199.21-32.48,200.01-98.94,0,0,29.13-45.02-12.36-80.32,0,0-5.83-36.28-42.98-38.84,0,0-24.1-31.6-65.58-15.09,0,0-42.28-8.83-59.76,27.89-59.67,46.96-54.99,163.47-19.33,205.3Z"/>
  <path class="cls-1" d="M269.89,245c37.34-60.64,160.64-61.34,206.63-15.62,41.57,16.42,33.89,55.08,33.89,55.08,0,0,27.89,32.22.09,69.02-1.77,50.22-42.81,56.58-42.81,56.58,0,0-14.83,49.69-69.46,19.24,0,0-42.1-5.03-51.81-39.37-4.5-93.56-64.35-99.65-76.53-144.93Z"/>
  <path class="cls-14" d="M80.13,345.89c108.39,3.53,182.62-88.53,182.62-88.53,0,0-75.2,113.16-182.62,88.53Z"/>
  <path class="cls-14" d="M64.06,299.28c119.95,17.3,194.71-41.84,194.71-41.84,0,0-74.41,74.5-194.71,41.84Z"/>
  <path class="cls-14" d="M66.97,245.18c101.33,24.01,193.92,10.68,193.92,10.68,0,0-97.09,27.63-193.92-10.68Z"/>
  <path class="cls-14" d="M108.55,71.74c24.45,114.21,132.13,169.82,132.13,169.82,0,0-128.34-51.55-132.13-169.82Z"/>
  <path class="cls-14" d="M149.41,43.76c14.12,129.57,90.21,193.56,90.21,193.56,0,0-90.91-59.93-90.21-193.56Z"/>
  <path class="cls-14" d="M202.28,33.87c2.82,111.74,39.45,205.39,39.45,205.39,0,0-51.55-94.97-39.45-205.39Z"/>
  <path class="cls-14" d="M287.19,422.23c34.51-76.97-13.33-159.23-13.33-159.23,0,0,63.55,89.59,13.33,159.23Z"/>
  <path class="cls-14" d="M240.15,436.27c43.34-86.85,32.57-170.35,32.57-170.35,0,0,27.01,93.56-32.57,170.35Z"/>
  <path class="cls-14" d="M207.05,400.08c47.93-65.4,65.05-136.28,65.05-136.28,0,0-7.5,78.64-65.05,136.28Z"/>
  <path class="cls-14" d="M324.53,64.76c-69.2,47.75-57.02,160.11-57.02,160.11,0,0-24.89-130.63,57.02-160.11Z"/>
  <path class="cls-14" d="M378.55,85.68c-82.53,50.66-108.65,137.43-108.65,137.43,0,0,14.12-108.04,108.65-137.43Z"/>
  <path class="cls-14" d="M396.11,143.76c-77.76,27.1-126.57,81.64-126.57,81.64,0,0,42.63-68.76,126.57-81.64Z"/>
  <path class="cls-14" d="M441.22,308.46c-55.08-67.96-150.93-63.29-150.93-63.29,0,0,109.36-15.45,150.93,63.29Z"/>
  <path class="cls-14" d="M476.08,271.21c-82.97-61.43-183.77-39.54-183.77-39.54,0,0,111.48-35.66,183.77,39.54Z"/>
  <path class="cls-14" d="M433.36,358.07c-60.2-80.67-141.05-110.33-141.05-110.33,0,0,97.18,19.68,141.05,110.33Z"/>
  <path class="cls-14" d="M385.96,371.13c-38.66-74.76-95.77-123.92-95.77-123.92,0,0,68.32,44.13,95.77,123.92Z"/>
  <path class="cls-12" d="M130.88,87.01c115.01,114.66,127.19,179.88,144.4,167.26,7.41-15.8-98.15-166.2-144.4-167.26Z"/>
  <path class="cls-10" d="M132.64,111.72c-5.03,14.21-26.21,6.71-21.18-7.59,5.03-14.21,26.21-6.71,21.18,7.59Z"/>
  <path class="cls-10" d="M154.18,80.3c-5.03,14.21-26.21,6.71-21.18-7.5,4.94-14.3,26.13-6.71,21.18,7.5Z"/>
  <path class="cls-13" d="M139.62,129.37c-5.03,14.21-26.21,6.62-21.18-7.59,5.03-14.21,26.21-6.62,21.18,7.59Z"/>
  <path class="cls-6" d="M150.56,108.81c-4.68,13.42-24.71,6.36-20.04-7.15,4.68-13.42,24.71-6.27,20.04,7.15Z"/>
  <path class="cls-15" d="M151,88.95c-4.77,13.59-25.07,6.44-20.21-7.24,4.68-13.59,24.98-6.44,20.21,7.24Z"/>
  <path class="cls-10" d="M168.3,146.5c-6,16.95-31.16,7.94-25.16-8.91,5.91-16.95,31.07-7.94,25.16,8.91Z"/>
  <path class="cls-13" d="M176.42,137.49c-5.03,14.21-26.21,6.71-21.18-7.59,5.03-14.21,26.21-6.71,21.18,7.59Z"/>
  <path class="cls-13" d="M199.9,165.38c-5.03,14.21-26.21,6.71-21.18-7.59,5.03-14.21,26.21-6.62,21.18,7.59Z"/>
  <path class="cls-13" d="M173.6,76.41c-5.03,14.3-26.21,6.71-21.18-7.59,5.03-14.21,26.21-6.62,21.18,7.59Z"/>
  <path class="cls-7" d="M166.89,98.04c-5.03,14.3-26.21,6.71-21.18-7.59,5.03-14.12,26.21-6.62,21.18,7.59Z"/>
  <path class="cls-10" d="M195.05,141.2c-5.03,14.3-26.21,6.71-21.18-7.59,5.03-14.21,26.21-6.62,21.18,7.59Z"/>
  <path class="cls-10" d="M200.17,114.28c-5.03,14.3-26.21,6.71-21.18-7.5,4.94-14.3,26.13-6.71,21.18,7.5Z"/>
  <path class="cls-7" d="M137.41,97.86c-5.03,14.3-26.21,6.71-21.18-7.5,5.03-14.3,26.21-6.71,21.18,7.5Z"/>
  <path class="cls-8" d="M187.81,123.11c-5.03,14.21-26.21,6.71-21.18-7.59,5.03-14.21,26.21-6.71,21.18,7.59Z"/>
  <path class="cls-8" d="M211.73,135.55c-5.03,14.21-26.13,6.71-21.18-7.59,4.94-14.21,26.13-6.71,21.18,7.59Z"/>
  <path class="cls-8" d="M185.78,156.73c-5.03,14.21-26.21,6.71-21.18-7.5,4.94-14.3,26.13-6.8,21.18,7.5Z"/>
  <path class="cls-10" d="M192.84,92.83c-5.83,16.59-30.36,7.77-24.63-8.74,5.83-16.59,30.45-7.86,24.63,8.74Z"/>
  <path class="cls-13" d="M194.25,104.3c-4.77,13.68-25.16,6.44-20.39-7.24s25.24-6.44,20.39,7.24Z"/>
  <path class="cls-13" d="M225.5,152.14c-4.85,13.68-25.16,6.44-20.39-7.24,4.85-13.68,25.24-6.44,20.39,7.24Z"/>
  <path class="cls-8" d="M162.12,128.84c-5.83,16.59-30.45,7.77-24.63-8.74,5.91-16.59,30.45-7.86,24.63,8.74Z"/>
</svg>