<?xml version="1.0" encoding="UTF-8"?>
<svg id="Layer_1" data-name="Layer 1" xmlns="http://www.w3.org/2000/svg" xmlns:xlink="http://www.w3.org/1999/xlink" viewBox="0 0 548.56 512">
  <defs>
    <style>
      .cls-1 {
        fill: url(#linear-gradient-4);
      }

      .cls-2 {
        fill: url(#linear-gradient-3);
      }

      .cls-3 {
        fill: url(#linear-gradient-2);
      }

      .cls-4 {
        fill: #1a1626;
      }

      .cls-5 {
        fill: url(#linear-gradient);
      }

      .cls-6 {
        fill: #fff;
      }

      .cls-7 {
        fill: #724726;
      }
    </style>
    <linearGradient id="linear-gradient" x1="274.28" y1="29.41" x2="274.28" y2="514" gradientTransform="translate(0 514) scale(1 -1)" gradientUnits="userSpaceOnUse">
      <stop offset="0" stop-color="#e09c67"/>
      <stop offset=".32" stop-color="#e5a97b"/>
      <stop offset=".72" stop-color="#e9b68f"/>
      <stop offset="1" stop-color="#ebbb96"/>
    </linearGradient>
    <linearGradient id="linear-gradient-2" x1="101.02" y1="223.42" x2="101.02" y2="510.7" gradientTransform="translate(0 514) scale(1 -1)" gradientUnits="userSpaceOnUse">
      <stop offset=".27" stop-color="#734727"/>
      <stop offset=".41" stop-color="#835534"/>
      <stop offset=".63" stop-color="#956644"/>
      <stop offset=".79" stop-color="#9c6c4a"/>
    </linearGradient>
    <linearGradient id="linear-gradient-3" x1="447.54" y1="223.42" x2="447.54" y2="510.7" gradientTransform="translate(0 514) scale(1 -1)" gradientUnits="userSpaceOnUse">
      <stop offset=".27" stop-color="#734727"/>
      <stop offset=".41" stop-color="#835534"/>
      <stop offset=".63" stop-color="#956644"/>
      <stop offset=".79" stop-color="#9c6c4a"/>
    </linearGradient>
    <linearGradient id="linear-gradient-4" x1="274.28" y1="2" x2="274.28" y2="461.57" gradientTransform="translate(0 514) scale(1 -1)" gradientUnits="userSpaceOnUse">
      <stop offset="0" stop-color="#e1eaf0"/>
      <stop offset=".04" stop-color="#e4ecf2"/>
      <stop offset=".29" stop-color="#f3f7f9"/>
      <stop offset=".57" stop-color="#fcfdfe"/>
      <stop offset="1" stop-color="#fff"/>
    </linearGradient>
  </defs>
  <path class="cls-5" d="M355.42,18.66c-47.19-24.88-115.11-24.88-162.28,0C122.73,55.76,36.57,219.22,36.57,313.91c0,151.22,171.53,170.68,237.71,170.68s237.71-19.46,237.71-170.68c0-94.69-86.16-258.15-156.57-295.25Z"/>
  <path id="Shape" class="cls-7" d="M202.03,15.16C117.37,54.52,104.57,223.07,52.89,266.04,26.21,133.86,166.62-20.65,202.03,15.16h0Z"/>
  <path id="Shape-2" data-name="Shape" class="cls-3" d="M118.51,17.16C56.19,53.34-33.03,58.7,12.44,149.91c31.34,62.86-37.52,157.72,8.18,138.03C134.46,238.79,48.56,62.21,202.03,15.16c-7.23-12.93-46.91-19.23-83.52,2h0Z"/>
  <path id="Shape-3" data-name="Shape" class="cls-7" d="M346.52,15.16c84.66,39.36,97.48,207.91,149.17,250.88,26.67-132.18-113.76-286.69-149.17-250.88h0Z"/>
  <path id="Shape-4" data-name="Shape" class="cls-2" d="M430.02,17.16c62.33,36.18,151.57,41.54,106.09,132.75-31.34,62.86,37.53,157.72-8.18,138.03-113.85-49.14-27.95-225.72-181.41-272.78,7.23-12.91,46.91-19.23,83.5,2h0Z"/>
  <path class="cls-1" d="M298.6,92.89c0-53.94-48.62-53.94-48.62,0,0,291.71-124.46,226.26-93.45,334.76,32.13,112.46,203.35,112.48,235.5,0,31.01-108.5-93.43-43.04-93.43-334.76Z"/>
  <path class="cls-7" d="M274.28,468.35h0c-31.12,0-60.21-14.46-81.93-40.71-4.02-4.86-3.34-12.07,1.53-16.09,4.86-4.03,12.06-3.35,16.09,1.52,17.29,20.91,40.14,32.42,64.32,32.43h0c24.19,0,47.04-11.52,64.35-32.43,4.01-4.85,11.22-5.56,16.09-1.52,4.86,4.02,5.54,11.23,1.52,16.09-21.74,26.25-50.85,40.71-81.96,40.71Z"/>
  <path class="cls-7" d="M153.28,157.75c-75.87,21.28-36.38,40.95,29.9,30.84,37.38-5.71,20.03-44.85-29.9-30.84Z"/>
  <path class="cls-7" d="M395.27,157.75c-49.93-14.02-67.28,25.12-29.9,30.84,66.28,10.11,105.77-9.54,29.9-30.84Z"/>
  <path id="Shape-5" data-name="Shape" class="cls-4" d="M210.28,357c0-27.14,28.64-32.36,64-32.36s64,5.23,64,32.36c0,21.61-50.96,40.78-64,40.78s-64-19.16-64-40.78h0Z"/>
  <path class="cls-7" d="M401.58,211.58c-48.62,0-67.67,41.2-63.43,73.34,3.16,23.87,123.76,23.89,126.87,0,4.52-34.79-19.02-73.34-63.44-73.34Z"/>
  <path class="cls-6" d="M401.6,223.04c-35.05,0-63.44,26.09-63.44,58.28,0,27.8,28.39,58.27,63.44,58.27s63.43-35.54,63.43-58.27c0-32.18-28.38-58.28-63.43-58.28Z"/>
  <ellipse class="cls-4" cx="395.49" cy="280.73" rx="47.38" ry="46.38"/>
  <path class="cls-6" d="M391.72,257.54c0,16.84-25.84,16.84-25.84,0s25.84-16.89,25.84,0Z"/>
  <path class="cls-7" d="M146.98,211.58c48.64,0,67.67,41.2,63.43,73.34-3.16,23.87-123.76,23.89-126.87,0-4.52-34.79,19.04-73.34,63.44-73.34Z"/>
  <path class="cls-6" d="M146.98,223.04c35.05,0,63.43,26.09,63.43,58.28,0,27.8-28.38,58.27-63.43,58.27s-63.44-35.54-63.44-58.27c0-32.18,28.39-58.28,63.44-58.28Z"/>
  <ellipse class="cls-4" cx="153.06" cy="280.73" rx="47.36" ry="46.38"/>
  <path class="cls-6" d="M156.83,257.54c0,16.84,25.84,16.84,25.84,0s-25.84-16.89-25.84,0Z"/>
</svg>