<?xml version="1.0" encoding="UTF-8"?>
<svg id="Layer_1" data-name="Layer 1" xmlns="http://www.w3.org/2000/svg" xmlns:xlink="http://www.w3.org/1999/xlink" viewBox="0 0 547.31 512">
  <defs>
    <style>
      .cls-1 {
        fill: url(#linear-gradient-3);
      }

      .cls-2 {
        fill: url(#linear-gradient-2);
      }

      .cls-3 {
        fill: #785647;
      }

      .cls-4 {
        fill: #1a1626;
      }

      .cls-5 {
        fill: url(#linear-gradient);
      }

      .cls-6 {
        fill: #d6a57c;
      }

      .cls-7 {
        fill: #fff;
      }

      .cls-8 {
        fill: #b47d56;
      }

      .cls-9 {
        fill: #302c3b;
      }

      .cls-10 {
        fill: #3e3a47;
      }
    </style>
    <linearGradient id="linear-gradient" x1="372.41" y1="2" x2="372.41" y2="221.45" gradientTransform="translate(0 514) scale(1 -1)" gradientUnits="userSpaceOnUse">
      <stop offset="0" stop-color="#995f34"/>
      <stop offset=".36" stop-color="#9f663c"/>
      <stop offset=".92" stop-color="#b17a52"/>
      <stop offset="1" stop-color="#b47d56"/>
    </linearGradient>
    <linearGradient id="linear-gradient-2" x1="268.92" y1="92.58" x2="220.02" y2="245.27" gradientTransform="translate(0 514) scale(1 -1)" gradientUnits="userSpaceOnUse">
      <stop offset="0" stop-color="#995f34"/>
      <stop offset=".36" stop-color="#9f663c"/>
      <stop offset=".92" stop-color="#b17a52"/>
      <stop offset="1" stop-color="#b47d56"/>
    </linearGradient>
    <linearGradient id="linear-gradient-3" x1="113.23" y1="56.1" x2="84.43" y2="146.03" gradientTransform="translate(0 514) scale(1 -1)" gradientUnits="userSpaceOnUse">
      <stop offset="0" stop-color="#dbaf76"/>
      <stop offset=".13" stop-color="#e3b882"/>
      <stop offset=".38" stop-color="#edc593"/>
      <stop offset=".66" stop-color="#f3cd9d"/>
      <stop offset="1" stop-color="#f5cfa0"/>
    </linearGradient>
  </defs>
  <path class="cls-8" d="M166.71,32.36c12.35-14.21,88.73,39.8,92.37,131.91.31,5.92-42.05.48-67.93-20.07,0,0-41.49-92.23-24.44-111.84Z"/>
  <path class="cls-3" d="M171.78,53.1c7.14-11,61.21,36.59,62.71,100.42.14,4.09-28.38-4.97-45.62-22.34,0,0-23.53-68.2-17.09-78.08Z"/>
  <path class="cls-10" d="M132.13,101.78s113.6,55.62,126.96-21.12c-74.61-33.77-126.96,21.12-126.96,21.12Z"/>
  <path class="cls-9" d="M228.05,91.81c57.88,80.64,173.06,139.32,241.26,89.09-18.94-114.62-144.1-148.81-241.26-89.09Z"/>
  <path class="cls-10" d="M270.53,113.47c47.46,92.07,162.98,175.61,248.93,141.85,2.7-116.51-128.92-178.33-248.93-141.85Z"/>
  <path class="cls-9" d="M342.21,156.56c21.53,101.05,106.26,230.02,198.19,219.39,23.62-156.21-72.68-223.98-198.19-219.39Z"/>
  <path class="cls-10" d="M414.28,220.65c-16.25,101.97,28.81,183.37,96.57,242.7,88.01-64,1.18-235.67-96.57-242.7Z"/>
  <path class="cls-5" d="M269.41,112.26c-49.19,75.68-32.82,261.09-32.82,261.09,75.18,13.74,37.14,138.65,83.41,138.65,131.4,0,190.85-48.65,190.85-48.65-6.02-170.42-140.4-344.68-241.44-351.09Z"/>
  <path class="cls-2" d="M311.41,128.06c-4.64-20.64-42.43-146.28-75.61-125.82-19.6,12.09-10.74,104.3-10.74,104.3-40.35,21.18-86.96,61.8-127.1,102.95-47.16,48.34,31.7,198.98,69.02,190.22,140.84-32.98,161.22-71.26,165.94-114.86,11.03-101.56-21.51-156.79-21.51-156.79Z"/>
  <path class="cls-1" d="M98.14,209.31C50.88,257.7,12.58,306.8,3.93,325.75c-10.39,22.71,3.45,34.81.5,52.29-4.6,27.08,23.19,39.26,28.06,38.41,1,9.72,27.77,23.36,44.99,21.09,33.74-4.39,52.19-29.07,89.51-37.82,36.1-50.83-92.65-118.16-68.85-190.41Z"/>
  <path class="cls-9" d="M33.43,360.73c-4.9,3.42-16.83,5.97-20.45,1.36-3.64-4.63,2.48-14.68,7.37-18.07,4.85-3.38,11.74-2.39,15.36,2.19,3.62,4.61,2.59,11.14-2.28,14.52Z"/>
  <path class="cls-3" d="M235.95,18.06c14.59-12.2,54.12,83.21,33.67,104.75-8.7,9.18-35.13,2-38.68-23.5,0,0-4.61-73.21,5.01-81.25Z"/>
  <path class="cls-6" d="M21.9,325.99c-4.99,3-4.1,4.84.26,3.25,4.39-1.59,25.7-6.93,27.47,15.24,0,0,1.19,9.93,3.88.08,2.67-9.9-3.7-35.42-31.62-18.56Z"/>
  <path class="cls-3" d="M182.87,187.01c-32.18,0-44.77,26.89-41.96,47.87,2.08,15.58,81.87,15.58,83.93,0,2.97-22.71-12.6-47.87-41.97-47.87Z"/>
  <path class="cls-7" d="M182.87,194.49c-23.18,0-41.96,17.02-41.96,38.02,0,18.14,18.78,38.04,41.96,38.04s41.97-23.18,41.97-38.04c0-21.01-18.79-38.02-41.97-38.02Z"/>
  <ellipse class="cls-4" cx="178.85" cy="232.14" rx="31.34" ry="30.26"/>
  <path class="cls-7" d="M176.35,217.01c0,10.98-17.11,10.98-17.11,0,0-11.03,17.11-11.03,17.11,0Z"/>
  <path class="cls-9" d="M118.48,185.53s23.53-22.06,67.49-34.34c57.72-16.13,37.5-39.73,37.59-67.16-88.05,17.8-105.07,101.5-105.07,101.5Z"/>
  <path class="cls-9" d="M213.42,174.56c19.49-2.62-51.34-23.08-65.51-.49-8.23,13.15,23.27,6.16,65.51.49Z"/>
  <path class="cls-9" d="M111.14,361.56c6.27,49.43-57.33,70.86-78.65,54.83,26.77.6,66.97-19.11,78.65-54.83Z"/>
</svg>