<?xml version="1.0" encoding="UTF-8"?>
<svg id="Layer_1" data-name="Layer 1" xmlns="http://www.w3.org/2000/svg" xmlns:xlink="http://www.w3.org/1999/xlink" viewBox="0 0 512 512">
  <defs>
    <style>
      .cls-1 {
        fill: url(#radial-gradient);
        isolation: isolate;
        opacity: .5;
      }

      .cls-2 {
        fill: #0080ff;
      }

      .cls-3 {
        fill: #cf0;
      }
    </style>
    <radialGradient id="radial-gradient" cx="216.53" cy="303.87" fx="216.53" fy="303.87" r="268.35" gradientTransform="translate(0 514) scale(1 -1)" gradientUnits="userSpaceOnUse">
      <stop offset=".21" stop-color="#00b3ff" stop-opacity="0"/>
      <stop offset=".58" stop-color="#005d96" stop-opacity=".47"/>
      <stop offset=".87" stop-color="#001f4b" stop-opacity=".83"/>
      <stop offset="1" stop-color="#00072e"/>
    </radialGradient>
  </defs>
  <circle class="cls-2" cx="256" cy="256" r="256"/>
  <path class="cls-3" d="M125.73,55.99c3.78,4.18,4.27,7.48,2.83,12.52-1.38,4.95.68,10.45-2.1,15.09-4,6.65,1.78,5.88,1.75,12.27-.03,4.45-4.5,9.48-7.55,12.7-6.68,7.01-19.05,16.87-18.03,26.53.55,4.98,1.3,10.23,2.27,15.42,1.07,5.6,7.55,2.95,9.98,8.29,2.29,4.93-.4,10.56,2.12,15.51.87,1.72,4.15,3.06,3.5,5.23-1.02.95-2.18,1.72-3.5,2.35-1.45,4.67,7.57,5.56,7.43,10.8-.07,2.67,6.19,8.76,9.37,9.4,4.27-2.1-10.04-28.55-7.7-34.83,7.13-.33,1.85,7.22,5.55,11,4.07,4.2,5.98,8.2,6.7,13,4.48,3.37,8.57,7.12,10.88,11.82,2.47,5.02-1.98,11.21,2.1,15.1,6,5.7,20.48,11.43,29.34,13.95,5.15,1.45,12.8-1.73,16.89.37,6.15,3.23,7.65,8.71,15.32,10.25,9,1.87,14.63,2.59,16.56,10.85,1.4,5.93,8.7,4.63,11.42,9.55,1,1.77,9.74,5.21,12.28,5.84,3.34.85,4.35-6.49,4.3-8.08-18.38,4.8-15.45-11.1-12.66-19.25,2.43-7.01-1.89-9.62-9.85-9.85-4.68-.17-9.02,2.1-10.04-3-.5-2.05.1-3.69,1.83-5.02,4.6-3.67,2.59-9.1,6.3-12.6,5.6-5.25-11.3-2.75-13.18-2.2-7.29,2.22-2.07,10.14-10.93,11.15-4.8.55-10.72,1.37-15.23-.6-11.28-4.85-4.9-20.93-1.68-27.89,2.25-4.85.4-8.47,6.2-11.58,5.02-2.68,10.6-4.62,16.17-6.35,3.92,1.78,14.48,3.8,17.07,1.17,2.64-2.65,7.71-4,11.72-3.6,2.35.25,4.51,1.26,5.16,3.32,1.52-.3,3.02-.5,4.55-.6,4.62.7,3.23,5.5,3.52,8.18.33,3.32,3.62,12.66,8.81,9.83,4.37-2.38,3.52-7.55,2.87-11.19-.91-5.02-3.17-9.8.82-14.15,4.28-4.74,10.4-7.97,16.65-10.58,12.82-5.44,13.35-15.13,23.36-23.42,5.37-4.48,7.73-6.52,15.15-8.1,5.12-1.12,5.42-1.92,6.22-5.6,2.67-4.15,11.12-6.78,16.15-6.73,4.57.05,5.75,6.03,9.7,1.73,2.5-2.73,20.22-4.28,18.62-7.1-3.25-5.65-17.89-.49-8.13-11.56,3.65-4.18-.87-7.22,8.06-7.4,4.95-.1,10.32,1.07,15.13-.52,2.45,4.88-6.61,6.58-5.27,11.42,5.91,2.07,13.18.77,19.65,2.75,8.65,2.67,5.93-7.66,7-11.52-6.85-4.18-5.05-5.33-3.02-12.3,1.3-4.32-2.95-9.6-8.23-10.23-2.87-3.05-2.38-7.87-2.73-11.49-.32-3.35-.91-8.01-5.63-9.02-4.23,1.98-8,6.37-13.27,6.47-4.42.07-5.5-2.65-3.58-5.49,2.52-3.81-.77-3.76-3.41-6.26-3.99-3.81-9.15-4.7-15.07-4.62-7.3.07-5.56,4.7-10.53,7.27.95,6.72-4.63,4.55-8.05,8.8.82,3.65,4.85,2.57,1.75,6.84-1.75,2.43-4.7,4-7.73,5.18-7.39,2.89-9.12,2.41-11.2,9.11-.79,2.65-6.3,10.93-10.28,5.28-2.82-3.95,2.7-8.87,4.67-12.1-3.6-2.43-8.97-.63-13.01-2.55-4.04-1.89-6.9-5.18-11.33-6.54-16.44-4.97,2.25-16.9,11.4-19.32,5.42-1.42,17.45-7.65,22.63-4.98,4.67,2.35,5.9,2.15,10.7-.33,3.22-1.65,8.99,3.11,10.8-.54-2.36-4.15-7.19-6.02-.03-8,4.2-1.19,6.85-2.95,9.5-5.2-11.58-4.9-23.6-8.95-35.99-12.1-1.82,1.57-3.1,3.37-3,5,.42,5.55-16.42,4.72-16.02,4.79-5.18-.96-10.33,1.68-15.42,0-4.39-1.42-5.2-3.37-10.47-2.85-9.62.93-15.87,4.63-24.82.03-3.17-1.6-4.62-.2-7.78-.68-2.95-.45-4.88-2.73-7.7-3.5-8.05-2.17-18.12-.93-26.02-.73-6.22.12-17.75.73-23.29,2.83-2.65,1.02-5.47.56-8.29-.25-24.69,8.03-47.7,19.72-68.45,34.41,2.6.67,5,1.33,6.65,1.52,6.55.67,7.3,3.56,10.83,7.48Z"/>
  <path class="cls-3" d="M265.08,202.18c-4.57-1.35-24.39-2.75-22.74,5.44,4.27.56,7.31-2.65,11.8-1.89,2.25.56,4.58.89,6.95.95,5.29.2,7.19,4.72,11.72,6.22,3.3,2.57-.3,2.83,6.3,2.36,2.2,1.8,9.11,2.22,9.51-.14,1.11-6.6-15.96-10.71-23.54-12.95Z"/>
  <path class="cls-3" d="M307.46,217.81c-2.08-.49-15.51-5.33-16.47-1.98.26,2,2.88,2.1,2.48,4.39-2,.2-6.5-.55-7.71,1.47,4,2.76,11.5,2.68,15.42,2.64,2.24-.34,20.67-3.12,6.28-6.51Z"/>
  <path class="cls-3" d="M446.76,335.48c-6.17-4.44-5.84-9.7-15.13-11.43-8-1.47-13.83-8.22-20.2-12.07-5.05-3.03-13.15-6-14.74-10.77-.89-2.62-2.12-6.17-2.45-8.87-.58-5.14-3.4-11.02-10.35-14.2-8.9-4.07-15.67-3.95-19-12.17-1.31-3.34-4.22-3.62-6.54-6.25-2.52-2.87-23.9-9.1-30.81-17.15-3.5-4.1-10.07-7.27-15.85-9.04-3.45,1.54-6.98,2.05-11.35.72-4.81.68-6.54,1.12-9.15,3.74-1.03,1.03-2.52,1.55-4.35,1.57-6.35.05-9.13-4.53-10.9,1.05-.03.21,3.11,5.6,3.35,7.45.4,3.46-.87,6.89-2.97,9.67-5.6,7.48-21.42,5.93-21.49,17.26-.05,5.61-1.72,3.76-4.5,8.17-1.96,3.1-.3,6.96,2.48,9.8,4.5,4.58,2.48,9.46,6.31,14.13,3.46,4.25,6.66,11.12,6.92,15.65.52,8.71,13.8,12.66,19.95,19.18,11.43,12.07-1.07,24.67-.55,36.74.26,5.65-3.46,10.49-2.94,16.63.65,7.88-2.05,12.31-5.35,19.1-1.85,3.78,1.22,8.1.8,12.24-.3,3.15-.98,6.35,1.22,9.51,4,5.72,3.1,9.53,3.93,15.42,1.25,9.13,1.73,19.27,8.35,28.15,4.28,5.72,13.3,3.55,16.3,9.53,2.17,4.28,2.9,3.65,8.78,6.23,1.87.84,10.5,5.12,10.04,1.17-.23-2.15-11.25-7.66-13.87-10.77,1-3.83-8.25-8.08-4.07-11.32,2.05-1.55,10.79-6.63,7.35-9.78-7.66-6.96,3.62-6.66.56-12.55,3.22-.85,10.63-8.1,11.77-10.6,2.41-5.27,13.24-.7,17.03-5.85,3.99-5.47,10.72-5.87,15.58-10.33,3.5-3.25,6.38-7.77,12.3-8.88,1.33-3,4.65-4.09,7.9-5.63,1.54-2.8.63-5.6.87-8.62.42-6.19,11.52-5.65,17.8-6.15,5.49-.44,17.87,3.93,18.6-2.99.28-2.52,2.64-2.38,4.4-4.04,2.18-1.94.87-5.07,3.7-6.61,3.83-2.12,3.6-7.25,3.75-10.6.26-5.85,5.37-7.27,9.85-10.8,5.16-4.1,11.87-5.63,14.57-11.78,1.03-2.41,1.42-5.1.54-7.78-1.37-3.96-4.9-3.5-8.48-6.07Z"/>
  <circle class="cls-1" cx="256" cy="256" r="256"/>
</svg>