<?xml version="1.0" encoding="UTF-8"?>
<svg id="Layer_1" data-name="Layer 1" xmlns="http://www.w3.org/2000/svg" xmlns:xlink="http://www.w3.org/1999/xlink" viewBox="0 0 448 512">
  <defs>
    <style>
      .cls-1 {
        fill: url(#radial-gradient-2);
      }

      .cls-2 {
        fill: url(#radial-gradient);
      }

      .cls-3 {
        fill: url(#linear-gradient);
      }

      .cls-4 {
        fill: #618f16;
      }

      .cls-5 {
        fill: #77ab2d;
      }

      .cls-6 {
        fill: #87ba2e;
      }

      .cls-7 {
        fill: #649c2a;
      }

      .cls-8 {
        fill: #6b9e19;
      }
    </style>
    <radialGradient id="radial-gradient" cx="-2444.96" cy="-605.25" fx="-2444.96" fy="-605.25" r="102.52" gradientTransform="translate(-2414.3081 -585.1447) rotate(-180) scale(1.0398 1.2129)" gradientUnits="userSpaceOnUse">
      <stop offset=".45" stop-color="#6ca82e"/>
      <stop offset=".52" stop-color="#73ae2f"/>
      <stop offset=".77" stop-color="#8ac231"/>
      <stop offset=".93" stop-color="#92c932"/>
    </radialGradient>
    <linearGradient id="linear-gradient" x1="-90.22" y1="991" x2="28.78" y2="991" gradientTransform="translate(234 -735)" gradientUnits="userSpaceOnUse">
      <stop offset="0" stop-color="#92c932"/>
      <stop offset=".24" stop-color="#8dc531"/>
      <stop offset=".52" stop-color="#7eb830"/>
      <stop offset=".76" stop-color="#6ca82e"/>
    </linearGradient>
    <radialGradient id="radial-gradient-2" cx="127.05" cy="-672" fx="127.05" fy="-672" r="132.11" gradientTransform="translate(155.89 -587.14) scale(1.04 -1.21)" gradientUnits="userSpaceOnUse">
      <stop offset=".5" stop-color="#92c932"/>
      <stop offset=".67" stop-color="#8ac231"/>
      <stop offset=".93" stop-color="#73ae2f"/>
      <stop offset="1" stop-color="#6ca82e"/>
    </radialGradient>
  </defs>
  <path class="cls-2" d="M148.96,196.11c-46.87,0-65.42,3.46-57.76-74.48,5.99-60.96-63.02-66.35-68.39-5.32-11.56,131.26,31.35,169.66,128.7,155.85,18.42-2.62,15.3-76.05-2.55-76.05Z"/>
  <path class="cls-5" d="M68.91,134.67c3.26-39.06-6.9-53.16-6.9-53.16,0,0,16.46,6.46,13.82,51.58-1.58,26.75-10.11,90.84,69.56,80.58-80.73,21.76-78.86-50.49-76.49-78.99Z"/>
  <path class="cls-6" d="M42.36,156.87c-4.24-61.26,9.55-73.68,9.55-73.68,0,0-9.02,12.42-2.64,74.87,2.7,26.68,7.5,96.93,94.32,85.39-89.2,23.42-99.25-58.06-101.23-86.58Z"/>
  <path class="cls-3" d="M262.78,489.31V67c0-89.34-119-89.34-119,0v422.31c0,30.24,119,30.24,119,0Z"/>
  <path class="cls-6" d="M170.95,60.92c0-23.9,7.94-41.62,19.66-53.19-16.09,10.42-27.83,29.66-27.83,57.71v441.03l8.18,2.25V60.92Z"/>
  <path class="cls-5" d="M206.09,60.92c0-23.9-2.81-56.32-2.81-56.32,0,0-5.37,32.78-5.37,60.83v446.57h8.17V60.92h0Z"/>
  <path class="cls-7" d="M235.59,60.92c0-23.9-7.93-41.62-19.66-53.19,16.11,10.42,27.85,29.66,27.85,57.71v441.03l-8.18,2.25V60.92Z"/>
  <path class="cls-1" d="M261.26,288.61c60.42,0,84.3,4.48,74.45-95.94-7.72-78.55,81.21-85.49,88.12-6.86,14.89,169.14-40.4,218.61-165.83,200.81-23.77-3.37-19.74-98,3.26-98Z"/>
  <path class="cls-6" d="M364.57,206.08c-4.3-51.82,9.17-70.51,9.17-70.51,0,0-21.84,8.6-18.33,68.44,2.09,35.5,13.4,120.52-92.3,106.9,107.09,28.86,104.6-67.02,101.46-104.83Z"/>
  <path class="cls-5" d="M399.79,235.54c5.62-81.28-12.67-97.77-12.67-97.77,0,0,11.97,16.49,3.5,99.36-3.6,35.39-9.96,128.61-125.17,113.3,118.38,31.1,131.71-77.03,134.34-114.89Z"/>
  <path class="cls-8" d="M30.81,100.07c-35.03-.18-32.05-8.89-4.38,12.58,2.22,1.71,7.19-12.57,4.38-12.58Z"/>
  <path class="cls-8" d="M24.89,167.32c-33.17,11.26-33.2,2.06,0,13.32,2.66.88,2.66-14.22,0-13.32Z"/>
  <path class="cls-8" d="M41.08,228.43c-20.83,28.05-26.09,20.5,7.62,10.95,2.7-.78-5.94-13.22-7.62-10.95Z"/>
  <path class="cls-8" d="M85.58,262.69c-6.4,34.3-14.46,29.82,11.65,6.51,2.1-1.87-11.14-9.28-11.65-6.51Z"/>
  <path class="cls-4" d="M86.02,124.41c33.17,11.25,33.18,2.06,0,13.32-2.67.89-2.67-14.22,0-13.32Z"/>
  <path class="cls-4" d="M97.71,188.67c31.45-15.4,24.93-21.91,9.46,9.41-1.26,2.51-11.98-8.17-9.46-9.41Z"/>
  <path class="cls-8" d="M155.91,135.61c-38.46,13.29-38.5,2.44,0,15.73,3.09,1.05,3.09-16.78,0-15.73Z"/>
  <path class="cls-8" d="M177.19,218.03c-38.46,13.3-38.5,2.45,0,15.74,3.09,1.06,3.09-16.78,0-15.74Z"/>
  <path class="cls-8" d="M154.1,59.51c-40.52,2.54-37.83-7.91-3.98,15.17,2.71,1.84,7.21-15.35,3.98-15.17Z"/>
  <path class="cls-8" d="M168.59,19.9c-36.52-18.38-29-26.03-10.92,11.04,1.43,2.97,13.83-9.57,10.92-11.04Z"/>
  <path class="cls-8" d="M151.31,289.62c-38.44,13.3-38.48,2.44,0,15.74,3.09,1.06,3.09-16.79,0-15.74Z"/>
  <path class="cls-8" d="M182.3,346.47c-38.46,13.3-38.49,2.44,0,15.74,3.09,1.03,3.09-16.8,0-15.74Z"/>
  <path class="cls-8" d="M177.18,463.92c-38.46,13.31-38.5,2.44,0,15.74,3.09,1.06,3.09-16.8,0-15.74Z"/>
  <path class="cls-8" d="M151.3,415.94c-38.43,13.31-38.46,2.44,0,15.75,3.09,1.04,3.09-16.81,0-15.75Z"/>
  <path class="cls-4" d="M256.39,65.27c38.45,13.3,38.45,2.42,0,15.73-3.1,1.05-3.1-16.78,0-15.73Z"/>
  <path class="cls-4" d="M256.39,151.51c38.45,13.3,38.45,2.44,0,15.73-3.1,1.06-3.1-16.78,0-15.73Z"/>
  <path class="cls-4" d="M228.72,321.17c38.46,13.31,38.46,2.46,0,15.75-3.09,1.03-3.09-16.81,0-15.75Z"/>
  <path class="cls-4" d="M226.9,203.49c38.49,13.3,38.49,2.45,0,15.73-3.06,1.05-3.06-16.79,0-15.73Z"/>
  <path class="cls-4" d="M233.45,112.83c38.46,13.3,38.47,2.45,0,15.73-3.09,1.07-3.09-16.79,0-15.73Z"/>
  <path class="cls-4" d="M238.3,15.16c36.46-18.18,28.9-25.88,10.96,11.12-1.44,2.96-13.9-9.66-10.96-11.12Z"/>
  <path class="cls-4" d="M258.09,239.76c38.45,13.3,38.45,2.44,0,15.72-3.1,1.06-3.1-16.77,0-15.72Z"/>
  <path class="cls-4" d="M253.34,456.34c38.45,13.3,38.45,2.45,0,15.73-3.09,1.08-3.09-16.79,0-15.73Z"/>
  <path class="cls-4" d="M232.17,410.26c38.46,13.3,38.46,2.45,0,15.74-3.09,1.06-3.09-16.8,0-15.74Z"/>
  <path class="cls-8" d="M340.33,191.47c-34.81,11.81-34.83,2.17,0,13.97,2.79.94,2.79-14.91,0-13.97Z"/>
  <path class="cls-8" d="M332.75,278.33c-32.98-16.15-26.16-22.98-9.91,9.87,1.3,2.63,12.56-8.58,9.91-9.87Z"/>
  <path class="cls-4" d="M421.89,184.45c34.8,11.8,34.82,2.17,0,13.97-2.8.94-2.8-14.91,0-13.97Z"/>
  <path class="cls-4" d="M421.89,267.83c34.79,11.82,34.82,2.17,0,13.97-2.79.95-2.79-14.91,0-13.97Z"/>
  <path class="cls-4" d="M376.34,360.14c14.06,33.56,21.4,27.18-10.61,9.25-2.57-1.46,9.46-11.94,10.61-9.25Z"/>
</svg>