<?xml version="1.0" encoding="UTF-8"?>
<svg id="Layer_1" data-name="Layer 1" xmlns="http://www.w3.org/2000/svg" xmlns:xlink="http://www.w3.org/1999/xlink" viewBox="0 0 477.87 512">
  <defs>
    <style>
      .cls-1 {
        fill: url(#linear-gradient-3);
      }

      .cls-2 {
        fill: url(#linear-gradient-2);
      }

      .cls-3 {
        fill: #1a1626;
      }

      .cls-4 {
        fill: url(#radial-gradient);
      }

      .cls-5 {
        fill: #99a8ae;
      }

      .cls-6 {
        fill: url(#linear-gradient);
      }

      .cls-7 {
        fill: #5c6c73;
      }

      .cls-8 {
        fill: #fff;
      }

      .cls-9 {
        fill: #ff8fa8;
      }
    </style>
    <linearGradient id="linear-gradient" x1="12.71" y1="353.05" x2="152.66" y2="353.05" gradientTransform="translate(0 514) scale(1 -1)" gradientUnits="userSpaceOnUse">
      <stop offset="0" stop-color="#fde0da"/>
      <stop offset=".44" stop-color="#feb5bf"/>
      <stop offset=".79" stop-color="#ff99ae"/>
      <stop offset="1" stop-color="#ff8fa8"/>
    </linearGradient>
    <linearGradient id="linear-gradient-2" x1="325.2" y1="353.05" x2="465.16" y2="353.05" gradientTransform="translate(0 514) scale(1 -1)" gradientUnits="userSpaceOnUse">
      <stop offset="0" stop-color="#ff8fa8"/>
      <stop offset=".21" stop-color="#ff99ae"/>
      <stop offset=".56" stop-color="#feb5bf"/>
      <stop offset="1" stop-color="#fde0da"/>
    </linearGradient>
    <linearGradient id="linear-gradient-3" x1="238.94" y1="2" x2="238.94" y2="370" gradientTransform="translate(0 514) scale(1 -1)" gradientUnits="userSpaceOnUse">
      <stop offset="0" stop-color="#6b7f8c"/>
      <stop offset=".15" stop-color="#7a8c97"/>
      <stop offset=".41" stop-color="#8b9ca4"/>
      <stop offset=".68" stop-color="#96a5ac"/>
      <stop offset="1" stop-color="#99a8ae"/>
    </linearGradient>
    <radialGradient id="radial-gradient" cx="171.94" cy="153.45" fx="171.94" fy="153.45" r="146.63" gradientTransform="translate(50.67 529.29) scale(1.09 -1.02)" gradientUnits="userSpaceOnUse">
      <stop offset=".37" stop-color="#fff"/>
      <stop offset=".56" stop-color="#fbfcfc"/>
      <stop offset=".75" stop-color="#eff1f2"/>
      <stop offset=".94" stop-color="#dbe0e3"/>
      <stop offset="1" stop-color="#d4dadd"/>
    </radialGradient>
  </defs>
  <path class="cls-5" d="M144.12,308.86C-63.43,207.97,4.65-21.63,37.13,1.65c219.69,157.07,144.8,325.59,106.99,307.22Z"/>
  <path class="cls-6" d="M120.24,281.39C-34.6,202.35,16.17,22.49,40.43,40.71c163.91,123.04,108.02,255.07,79.81,240.67Z"/>
  <path class="cls-5" d="M333.75,308.86C541.28,207.97,473.24-21.63,440.73,1.65c-219.69,157.07-144.8,325.59-106.98,307.22Z"/>
  <path class="cls-2" d="M357.62,281.39c154.87-79.04,104.08-258.89,79.82-240.67-163.91,123.04-108.02,255.07-79.82,240.67Z"/>
  <path class="cls-5" d="M210.9,212.48c-37.82-30.9-84.8-25.51-108.11-20.07-10.53,2.46-12.1,4.72-4.46,9.81,11.23,7.5,23.36,19.74,33.44,38.33,12.53,23.07,95.31-14.82,79.13-28.07Z"/>
  <path class="cls-5" d="M194.12,215.53c-44.13-20.77-88.39-4.05-109.69,6.89-9.62,4.97-10.62,7.53-1.96,10.62,12.68,4.53,27.41,13.46,41.64,29,17.74,19.35,88.89-37.63,70.01-46.52Z"/>
  <path class="cls-5" d="M266.98,212.48c37.82-30.9,84.78-25.51,108.09-20.07,10.53,2.46,12.12,4.72,4.48,9.8-11.23,7.5-23.36,19.75-33.44,38.34-12.54,23.07-95.32-14.82-79.13-28.07Z"/>
  <path class="cls-5" d="M283.77,215.53c44.12-20.77,88.38-4.05,109.68,6.89,9.61,4.97,10.62,7.53,1.95,10.62-12.69,4.53-27.4,13.46-41.65,29-17.73,19.35-88.87-37.63-69.98-46.52Z"/>
  <path class="cls-1" d="M238.95,144c125.32,0,227.92,196,191.75,276.6-19.69,43.83-110.69,91.4-191.75,91.4s-172.09-47.57-191.77-91.4C11.01,340,113.63,144,238.95,144Z"/>
  <path class="cls-4" d="M298.39,365.57c-45.86-35.77-19.52-76.83-43.79-108.09-10.95-14.15-20.39-14.15-31.34,0-24.27,31.27,2.08,72.31-43.77,108.09-34.47,26.91-109.25-13.65-119.4,9.76-20.05,46.21,65.52,124.26,178.86,124.26s198.86-78.05,178.8-124.26c-10.12-23.41-84.92,17.13-119.36-9.76Z"/>
  <path class="cls-9" d="M198.94,408.78c0-19.7,17.93-23.5,40.01-23.5s39.99,3.8,39.99,23.5c0,15.66-31.81,29.59-39.99,29.59s-40.01-13.93-40.01-29.59Z"/>
  <path class="cls-7" d="M337.89,291.91c-42.37,0-58.95,36.04-55.24,64.16,2.75,20.9,107.8,20.9,110.51,0,3.93-30.42-16.56-64.16-55.26-64.16Z"/>
  <path class="cls-8" d="M337.91,301.92c-30.54,0-55.26,22.85-55.26,51,0,24.33,24.71,51,55.26,51s55.25-31.09,55.25-51c0-28.14-24.72-51-55.25-51Z"/>
  <ellipse class="cls-3" cx="332.58" cy="352.4" rx="41.27" ry="40.58"/>
  <path class="cls-8" d="M329.3,332.12c0,14.75-22.51,14.75-22.51,0s22.51-14.78,22.51,0Z"/>
  <path class="cls-7" d="M140,291.91c42.35,0,58.96,36.04,55.25,64.16-2.75,20.9-107.82,20.9-110.52,0-3.93-30.42,16.57-64.16,55.27-64.16Z"/>
  <path class="cls-8" d="M139.98,301.92c30.54,0,55.27,22.85,55.27,51,0,24.33-24.73,51-55.27,51s-55.25-31.09-55.25-51c0-28.14,24.72-51,55.25-51Z"/>
  <ellipse class="cls-3" cx="145.3" cy="352.4" rx="41.27" ry="40.58"/>
  <path class="cls-8" d="M148.59,332.12c0,14.75,22.51,14.75,22.51,0,0-14.78-22.51-14.78-22.51,0Z"/>
  <path class="cls-7" d="M238.95,484.74c-27.12,0-52.47-12.65-71.4-35.64-3.51-4.26-2.92-10.56,1.31-14.08,4.27-3.53,10.51-2.92,14.02,1.33,15.09,18.3,34.99,28.38,56.06,28.38h0c21.07,0,40.97-10.09,56.02-28.38,3.5-4.25,9.77-4.86,14.02-1.33,4.24,3.52,4.84,9.82,1.32,14.08-18.9,22.96-44.26,35.63-71.35,35.64h-.02Z"/>
  <path class="cls-7" d="M149.46,244.82c-66.07,18.63-31.67,35.81,26.06,26.97,32.57-4.98,17.45-39.24-26.06-26.97Z"/>
  <path class="cls-7" d="M328.4,244.82c-43.49-12.27-58.61,21.98-26.04,26.97,57.73,8.85,92.13-8.34,26.04-26.97Z"/>
</svg>