<?xml version="1.0" encoding="UTF-8"?>
<svg id="Layer_1" data-name="Layer 1" xmlns="http://www.w3.org/2000/svg" xmlns:xlink="http://www.w3.org/1999/xlink" viewBox="0 0 384.03 512">
  <defs>
    <style>
      .cls-1 {
        fill: #397a07;
      }

      .cls-2 {
        fill: #402312;
      }

      .cls-3 {
        fill: url(#linear-gradient-8);
      }

      .cls-4 {
        fill: url(#linear-gradient-7);
      }

      .cls-5 {
        fill: url(#linear-gradient-5);
      }

      .cls-6 {
        fill: url(#linear-gradient-6);
      }

      .cls-7 {
        fill: url(#linear-gradient-9);
      }

      .cls-8 {
        fill: url(#linear-gradient-4);
      }

      .cls-9 {
        fill: url(#linear-gradient-3);
      }

      .cls-10 {
        fill: url(#linear-gradient-2);
      }

      .cls-11 {
        fill: url(#linear-gradient);
      }

      .cls-12 {
        fill: #3e4347;
        opacity: .5;
      }

      .cls-12, .cls-13 {
        isolation: isolate;
      }

      .cls-14 {
        fill: #c4895e;
      }

      .cls-15 {
        fill: url(#linear-gradient-10);
      }

      .cls-16 {
        fill: url(#linear-gradient-11);
      }

      .cls-17 {
        fill: url(#linear-gradient-12);
      }

      .cls-18 {
        fill: url(#linear-gradient-13);
      }

      .cls-19 {
        fill: url(#linear-gradient-19);
      }

      .cls-20 {
        fill: url(#linear-gradient-14);
      }

      .cls-21 {
        fill: url(#linear-gradient-21);
      }

      .cls-22 {
        fill: url(#linear-gradient-20);
      }

      .cls-23 {
        fill: url(#linear-gradient-15);
      }

      .cls-24 {
        fill: url(#linear-gradient-16);
      }

      .cls-25 {
        fill: url(#linear-gradient-17);
      }

      .cls-26 {
        fill: url(#linear-gradient-18);
      }

      .cls-13 {
        fill: #006102;
        opacity: .3;
      }
    </style>
    <linearGradient id="linear-gradient" x1="87.89" y1="16.63" x2="268.56" y2="16.63" gradientTransform="translate(22.29 464.4) scale(.95 -.94)" gradientUnits="userSpaceOnUse">
      <stop offset="0" stop-color="#c47a43"/>
      <stop offset=".02" stop-color="#c27842"/>
      <stop offset=".48" stop-color="#a25d2a"/>
      <stop offset=".73" stop-color="#965221"/>
    </linearGradient>
    <linearGradient id="linear-gradient-2" x1="77.39" y1="100.04" x2="278.98" y2="100.04" gradientTransform="translate(22.29 464.4) scale(.95 -.94)" gradientUnits="userSpaceOnUse">
      <stop offset="0" stop-color="#c47a43"/>
      <stop offset=".28" stop-color="#be753f"/>
      <stop offset=".64" stop-color="#ae6733"/>
      <stop offset="1" stop-color="#965221"/>
    </linearGradient>
    <linearGradient id="linear-gradient-3" x1="102" y1="180.59" x2="282.17" y2="180.59" gradientTransform="translate(0 514) scale(1 -1)" gradientUnits="userSpaceOnUse">
      <stop offset="0" stop-color="#73421b"/>
      <stop offset="1" stop-color="#9e6237"/>
    </linearGradient>
    <linearGradient id="linear-gradient-4" x1="262.29" y1="403.12" x2="316.12" y2="480.96" gradientTransform="translate(0 514) scale(1 -1)" gradientUnits="userSpaceOnUse">
      <stop offset="0" stop-color="#408000"/>
      <stop offset=".24" stop-color="#4b8d00"/>
      <stop offset=".7" stop-color="#69af00"/>
      <stop offset="1" stop-color="#80c900"/>
    </linearGradient>
    <linearGradient id="linear-gradient-5" x1="178.24" y1="399.75" x2="130.35" y2="483.27" gradientTransform="translate(0 514) scale(1 -1)" gradientUnits="userSpaceOnUse">
      <stop offset="0" stop-color="#408000"/>
      <stop offset=".23" stop-color="#448400"/>
      <stop offset=".47" stop-color="#4e9000"/>
      <stop offset=".7" stop-color="#60a400"/>
      <stop offset=".94" stop-color="#79c100"/>
      <stop offset="1" stop-color="#80c900"/>
    </linearGradient>
    <linearGradient id="linear-gradient-6" x1="230.87" y1="401.93" x2="203.04" y2="509.88" gradientTransform="translate(0 514) scale(1 -1)" gradientUnits="userSpaceOnUse">
      <stop offset="0" stop-color="#4b9400"/>
      <stop offset=".43" stop-color="#6eba00"/>
      <stop offset=".78" stop-color="#84d200"/>
      <stop offset="1" stop-color="#8cdb00"/>
    </linearGradient>
    <linearGradient id="linear-gradient-7" x1="242.94" y1="394.88" x2="387.25" y2="356.75" gradientTransform="translate(0 514) scale(1 -1)" gradientUnits="userSpaceOnUse">
      <stop offset="0" stop-color="#408000"/>
      <stop offset=".09" stop-color="#4c8d00"/>
      <stop offset=".3" stop-color="#63a700"/>
      <stop offset=".53" stop-color="#73ba00"/>
      <stop offset=".75" stop-color="#7dc500"/>
      <stop offset="1" stop-color="#80c900"/>
    </linearGradient>
    <linearGradient id="linear-gradient-8" x1="132.19" y1="390.9" x2="111.24" y2="487.42" gradientTransform="translate(0 514) scale(1 -1)" gradientUnits="userSpaceOnUse">
      <stop offset="0" stop-color="#408000"/>
      <stop offset=".38" stop-color="#5da200"/>
      <stop offset=".77" stop-color="#77be00"/>
      <stop offset="1" stop-color="#80c900"/>
    </linearGradient>
    <linearGradient id="linear-gradient-9" x1="108.57" y1="302.05" x2="18.56" y2="217.96" gradientTransform="translate(0 514) scale(1 -1)" gradientUnits="userSpaceOnUse">
      <stop offset="0" stop-color="#408000"/>
      <stop offset=".24" stop-color="#4b8d00"/>
      <stop offset=".7" stop-color="#69af00"/>
      <stop offset="1" stop-color="#80c900"/>
    </linearGradient>
    <linearGradient id="linear-gradient-10" x1="120.61" y1="399.57" x2="-4.73" y2="353.18" gradientTransform="translate(0 514) scale(1 -1)" gradientUnits="userSpaceOnUse">
      <stop offset="0" stop-color="#4b9400"/>
      <stop offset=".23" stop-color="#549e00"/>
      <stop offset=".62" stop-color="#6eba00"/>
      <stop offset="1" stop-color="#8cdb00"/>
    </linearGradient>
    <linearGradient id="linear-gradient-11" x1="166.82" y1="269.92" x2="61.01" y2="160.42" gradientTransform="translate(0 514) scale(1 -1)" gradientUnits="userSpaceOnUse">
      <stop offset="0" stop-color="#4b9400"/>
      <stop offset=".21" stop-color="#519b00"/>
      <stop offset=".51" stop-color="#63af00"/>
      <stop offset=".88" stop-color="#81cf00"/>
      <stop offset="1" stop-color="#8cdb00"/>
    </linearGradient>
    <linearGradient id="linear-gradient-12" x1="1336.27" y1="765.66" x2="1278.42" y2="872.3" gradientTransform="translate(226.9593 -1304.9123) rotate(118.482) scale(1 -1)" gradientUnits="userSpaceOnUse">
      <stop offset="0" stop-color="#4b9400"/>
      <stop offset=".25" stop-color="#4e9800"/>
      <stop offset=".48" stop-color="#58a300"/>
      <stop offset=".7" stop-color="#69b500"/>
      <stop offset=".92" stop-color="#81cf00"/>
      <stop offset="1" stop-color="#8cdb00"/>
    </linearGradient>
    <linearGradient id="linear-gradient-13" x1="286.77" y1="268.37" x2="350.13" y2="127.98" gradientTransform="translate(-47.12 483.62) rotate(3.42) scale(1 -1)" gradientUnits="userSpaceOnUse">
      <stop offset="0" stop-color="#4b9400"/>
      <stop offset=".31" stop-color="#5ca700"/>
      <stop offset=".94" stop-color="#88d600"/>
      <stop offset="1" stop-color="#8cdb00"/>
    </linearGradient>
    <linearGradient id="linear-gradient-14" x1="209.63" y1="287.21" x2="230.22" y2="152.84" gradientTransform="translate(0 514) scale(1 -1)" gradientUnits="userSpaceOnUse">
      <stop offset="0" stop-color="#4b9400"/>
      <stop offset=".43" stop-color="#6eba00"/>
      <stop offset=".78" stop-color="#84d200"/>
      <stop offset="1" stop-color="#8cdb00"/>
    </linearGradient>
    <linearGradient id="linear-gradient-15" x1="181.8" y1="367.05" x2="105.04" y2="266.64" gradientTransform="translate(0 514) scale(1 -1)" gradientUnits="userSpaceOnUse">
      <stop offset="0" stop-color="#408000"/>
      <stop offset=".24" stop-color="#4b8d00"/>
      <stop offset=".7" stop-color="#69af00"/>
      <stop offset="1" stop-color="#80c900"/>
    </linearGradient>
    <linearGradient id="linear-gradient-16" x1="257.82" y1="311.35" x2="299.39" y2="214.21" gradientTransform="translate(0 514) scale(1 -1)" gradientUnits="userSpaceOnUse">
      <stop offset=".14" stop-color="#408000"/>
      <stop offset=".34" stop-color="#5b9f00"/>
      <stop offset=".57" stop-color="#76bd00"/>
      <stop offset=".71" stop-color="#80c900"/>
    </linearGradient>
    <linearGradient id="linear-gradient-17" x1="76.9" y1="525.87" x2="161.38" y2="525.87" gradientTransform="translate(418.87 707.45) rotate(-24.83) scale(1 -1)" gradientUnits="userSpaceOnUse">
      <stop offset="0" stop-color="#4b9400"/>
      <stop offset=".21" stop-color="#529b00"/>
      <stop offset=".52" stop-color="#64af00"/>
      <stop offset=".89" stop-color="#82d000"/>
      <stop offset="1" stop-color="#8cdb00"/>
    </linearGradient>
    <linearGradient id="linear-gradient-18" x1="55.43" y1="495.8" x2="-66.89" y2="429.12" gradientTransform="translate(183.18 621.48) rotate(-11.5) scale(1 -1)" gradientUnits="userSpaceOnUse">
      <stop offset="0" stop-color="#4b9400"/>
      <stop offset=".43" stop-color="#6eba00"/>
      <stop offset=".78" stop-color="#84d200"/>
      <stop offset="1" stop-color="#8cdb00"/>
    </linearGradient>
    <linearGradient id="linear-gradient-19" x1="1019.64" y1="1420.55" x2="1111.77" y2="1420.55" gradientTransform="translate(1274.8183 -1150.9445) rotate(75.0007)" gradientUnits="userSpaceOnUse">
      <stop offset="0" stop-color="#4b9400"/>
      <stop offset=".43" stop-color="#6eba00"/>
      <stop offset=".78" stop-color="#84d200"/>
      <stop offset="1" stop-color="#8cdb00"/>
    </linearGradient>
    <linearGradient id="linear-gradient-20" x1="189.83" y1="393.58" x2="287.44" y2="284.25" gradientTransform="translate(0 514) scale(1 -1)" gradientUnits="userSpaceOnUse">
      <stop offset="0" stop-color="#4b9400"/>
      <stop offset=".43" stop-color="#6eba00"/>
      <stop offset=".78" stop-color="#84d200"/>
      <stop offset="1" stop-color="#8cdb00"/>
    </linearGradient>
    <linearGradient id="linear-gradient-21" x1="138.43" y1="442.27" x2="173.02" y2="367.63" gradientTransform="translate(0 514) scale(1 -1)" gradientUnits="userSpaceOnUse">
      <stop offset="0" stop-color="#8cdb00"/>
      <stop offset=".22" stop-color="#84d200"/>
      <stop offset=".57" stop-color="#6eba00"/>
      <stop offset="1" stop-color="#4b9400"/>
    </linearGradient>
  </defs>
  <path class="cls-11" d="M124.32,492.74l-18.32-107.12h172.09l-18.32,107.12c-3.6,25.68-131.93,25.68-135.45,0Z"/>
  <path class="cls-12" d="M174.01,423.3c-.08.08-.16.16-.24.16.16,0,.24-.08.24-.16Z"/>
  <path class="cls-10" d="M192.01,361.93s-75.04-1.28-96-20.96l4.24,42.16s6.08,17.12,91.76,17.12,91.76-17.12,91.76-17.12l4.24-42.16c-20.96,19.68-96,20.96-96,20.96Z"/>
  <path class="cls-14" d="M192.01,320.01c-53.04,0-96,9.36-96,20.96s42.96,20.96,96,20.96,96-9.36,96-20.96-42.96-20.96-96-20.96Z"/>
  <path class="cls-9" d="M280.33,344.89c1.2-1.2,1.84-2.56,1.84-3.84,0-10.4-38.8-19.12-90.16-19.12s-90,8.8-90,19.12c0,1.28.64,2.56,1.76,3.76l176.57.08Z"/>
  <path class="cls-2" d="M192.01,359.29c44.8,0,80.08-5.92,88.32-14.4-8.08-8.8-44.56-15.36-88.32-15.36s-80,6.56-88.24,15.28c8.08,8.48,43.28,14.48,88.24,14.48Z"/>
  <path class="cls-1" d="M207.85,344.89c.4,5.12-28.08,4.88-26.8-.32,4.08-16.48,0-71.36,0-71.36h20.64s4.8,55.2,6.16,71.68Z"/>
  <path class="cls-8" d="M323.37,36.72c-29.12-12.08-99.6,23.12-68.88,78.96,95.52-2.08,39.04-41.84,68.88-78.96Z"/>
  <path class="cls-13" d="M254.49,115.6c6.16-64,68.88-78.96,68.88-78.96,0,0-71.52,12.8-68.88,78.96Z"/>
  <path class="cls-5" d="M131.37,36.24s-27.04,104.32,54.88,86.56c44.96-68.56-54.88-86.56-54.88-86.56Z"/>
  <path class="cls-13" d="M186.25,122.8c-13.84-40.8-54.88-86.56-54.88-86.56,0,0,54.88,40.16,54.88,86.56Z"/>
  <path class="cls-6" d="M198.25,0s-67.92,102.56,39.92,123.6C316.65,69.76,198.25,0,198.25,0Z"/>
  <path class="cls-13" d="M238.09,123.6C241.69,66.4,198.25,0,198.25,0c0,0,55.12,72,39.84,123.6Z"/>
  <path class="cls-4" d="M237.53,117.2c22.72,100.16,137.05,34.72,137.05,34.72,0,0-76.8-109.04-137.05-34.72Z"/>
  <path class="cls-13" d="M237.53,117.2c69.28-2.88,137.05,34.72,137.05,34.72,0,0-79.6-50-137.05-34.72Z"/>
  <path class="cls-3" d="M119.44,26.32c-30.4,9.28-54.96,78.64,9.76,100.16,67.92-60.8-3.28-54.64-9.76-100.16Z"/>
  <path class="cls-13" d="M129.21,126.48c-44-47.68-9.76-100.16-9.76-100.16,0,0-42.4,53.68,9.76,100.16Z"/>
  <path class="cls-7" d="M19.2,289.45c-22.88-38.64,29.44-138.09,125.36-101.2,5.28,130.57-66.16,57.12-125.36,101.2Z"/>
  <path class="cls-13" d="M144.57,188.17c-104.88,15.12-125.36,101.28-125.36,101.28,0,0,14.72-98.88,125.36-101.28Z"/>
  <path class="cls-15" d="M127.04,108.64C43.28,49.44,0,161.61,0,161.61c0,0,122.16,47.44,127.04-52.96Z"/>
  <path class="cls-13" d="M127.04,108.64C56.4,113.44,0,161.61,0,161.61c0,0,51.36-58.32,127.04-52.96Z"/>
  <path class="cls-16" d="M178.41,232.09c-117.28-20.72-128.81,79.68-122.8,121.44,38.96-24.96,164.41,4.72,122.8-121.44Z"/>
  <path class="cls-13" d="M178.41,232.09c-101.76,45.36-122.8,121.44-122.8,121.44,0,0,11.84-83.2,122.8-121.44Z"/>
  <path class="cls-17" d="M373.77,295.37c29.44-34.72-4.16-140.25-105.2-118.08-28.72,127.77,54.8,65.92,105.2,118.08Z"/>
  <path class="cls-13" d="M268.49,177.21c103.36,26.96,105.2,118.08,105.2,118.08,0,0,3.36-99.44-105.2-118.08Z"/>
  <path class="cls-18" d="M307.69,374.09c40.4-23.68,47.12-133.29-56.32-143.37-73.6,111.52,27.68,78.88,56.32,143.37Z"/>
  <path class="cls-13" d="M251.37,230.73c84.4,55.04,56.32,143.37,56.32,143.37,0,0,39.28-92.64-56.32-143.37Z"/>
  <path class="cls-20" d="M231.05,349.45s88.08-101.76-23.2-134.25h0c-99.52,63.76,23.12,134.25,23.2,134.25h0Z"/>
  <path class="cls-13" d="M207.85,215.21c29.76,52.56,23.2,134.25,23.2,134.25,0,0,19.2-91.12-23.2-134.25Z"/>
  <path class="cls-23" d="M198.89,126.4c-131.61-30.16-92.32,111.68-92.32,111.68,0,0,162.65,1.12,92.32-111.68Z"/>
  <path class="cls-13" d="M198.89,126.4c-63.12,39.2-92.32,111.68-92.32,111.68,0,0,26.56-94.72,92.32-111.68Z"/>
  <path class="cls-24" d="M257.45,191.45c94.8,22.08,32.96,96.8,32.96,96.8,0,0-108.08-49.44-32.96-96.8Z"/>
  <path class="cls-13" d="M257.45,191.45c31.44,36,32.96,96.8,32.96,96.8,0,0,6.32-66.08-32.96-96.8Z"/>
  <path class="cls-25" d="M269.13,141.45c-41.36,88.56,81.44,74,81.44,74,0,0,14.8-107.2-81.44-74Z"/>
  <path class="cls-13" d="M269.13,141.45c48.4,19.92,81.44,74,81.44,74,0,0-30-67.12-81.44-74Z"/>
  <path class="cls-26" d="M143.37,119.12c-83.92-19.84-127.68,60.96-104.8,96,28.72-14.96,148.17-18.48,104.8-96Z"/>
  <path class="cls-13" d="M143.37,119.12c-76.48,32.8-104.8,96-104.8,96,0,0,13.92-73.68,104.8-96Z"/>
  <path class="cls-19" d="M114.32,298.73c-19.68-39.92,40.08-135.29,132.49-92.48-5.04,130.17-70.16,52.56-132.49,92.48Z"/>
  <path class="cls-13" d="M246.81,206.33c-106.88,8.88-132.49,92.4-132.49,92.4,0,0,22.4-97.2,132.49-92.4Z"/>
  <path class="cls-22" d="M184.97,116c-64.8,111.2,98.48,103.52,98.48,103.52,0,0,32.08-137.77-98.48-103.52Z"/>
  <path class="cls-13" d="M184.97,116c63.76,29.6,98.48,103.52,98.48,103.52,0,0-31.6-89.84-98.48-103.52Z"/>
  <path class="cls-21" d="M84,111.76c16.88-32.32,95.52-77.28,145.29-1.44-50.88,71.44-102.32,14.48-145.29,1.44Z"/>
  <path class="cls-13" d="M229.21,110.4c-73.92-43.68-145.29,1.44-145.29,1.44,0,0,71.76-56.88,145.29-1.44Z"/>
</svg>