<?xml version="1.0" encoding="UTF-8"?>
<svg id="Layer_1" data-name="Layer 1" xmlns="http://www.w3.org/2000/svg" xmlns:xlink="http://www.w3.org/1999/xlink" viewBox="0 0 512 512">
  <defs>
    <style>
      .cls-1 {
        fill: #ffe8bb;
      }

      .cls-2 {
        fill: url(#linear-gradient-2);
      }

      .cls-3 {
        fill: #1a1626;
      }

      .cls-4 {
        fill: url(#radial-gradient);
      }

      .cls-5 {
        fill: #8f5739;
      }

      .cls-6 {
        fill: url(#linear-gradient);
      }

      .cls-7 {
        fill: #fff;
      }

      .cls-8 {
        fill: #f9b700;
      }
    </style>
    <radialGradient id="radial-gradient" cx="201" cy="1219.6" fx="201" fy="1219.6" r="358.76" gradientTransform="translate(29.1172 -1250.2196) scale(1.1429)" gradientUnits="userSpaceOnUse">
      <stop offset="0" stop-color="#bf7834"/>
      <stop offset=".17" stop-color="#ba7433"/>
      <stop offset=".38" stop-color="#ab6931"/>
      <stop offset=".61" stop-color="#92562c"/>
      <stop offset=".85" stop-color="#713c26"/>
      <stop offset="1" stop-color="#572822"/>
    </radialGradient>
    <linearGradient id="linear-gradient" x1="83.31" y1="385.49" x2="161.13" y2="385.49" gradientTransform="translate(0 514) scale(1 -1)" gradientUnits="userSpaceOnUse">
      <stop offset="0" stop-color="#bd8a3e"/>
      <stop offset="1" stop-color="#78441f"/>
    </linearGradient>
    <linearGradient id="linear-gradient-2" x1="-539.14" y1="385.49" x2="-461.31" y2="385.49" gradientTransform="translate(-110.45 514) rotate(-180)" gradientUnits="userSpaceOnUse">
      <stop offset="0" stop-color="#bd8a3e"/>
      <stop offset="1" stop-color="#78441f"/>
    </linearGradient>
  </defs>
  <path class="cls-4" d="M460.78,173.62s20.85,0,40.4,12.6c0,0,2.56-74.39-81.02-109.9,0,0,20.45-8.52,44.8-5.9,0,0-46.46-52.46-127.55-39.28,0,0,10.25-13.5,33-20.41-81.7-29.7-114.41,11.71-114.41,11.71,0,0-32.71-41.41-114.41-11.71,22.75,6.91,33,20.41,33,20.41-81.09-13.2-127.56,39.28-127.56,39.28,24.35-2.63,44.82,5.9,44.82,5.9C8.24,111.82,10.82,186.21,10.82,186.21c19.55-12.6,40.37-12.6,40.37-12.6C-33.1,265.11,12.11,341,12.11,341c14.74-29.1,33.31-36,33.31-36-12.81,120.3,62.49,155,62.49,155,6.43-20.29,20.09-34.1,20.09-34.1,16.78,45.6,57.48,63,57.48,63-1.26-24.29,12.85-36.59,12.85-36.59,16.23,53.39,96.14,59.69,96.14,59.69,0,0-25.1-35.4,19.19-59.69,0,0,14.1,5.09,12.83,29.39,0,0,40.72-10.2,57.49-55.8,0,0,21.36,6.6,27.76,26.91,0,0,67.64-27.51,54.84-147.81,0,0,18.58,6.9,33.31,36,0,0,45.2-75.89-39.12-167.38Z"/>
  <path class="cls-8" d="M69.48,287.74c-6.72,55.49,77.29,155.32,186.51,155.32s193.21-99.82,186.5-155.32c-25.51-211.1-186.52-124.93-186.52-124.93,0,0-160.98-86.15-186.5,124.93Z"/>
  <path class="cls-1" d="M319.02,338.36c-21.51-23.37-105.51-23.35-127.37.44-20.52,22.36-38.09,88.18,20.96,115.46l9-12.66s10.64,17.89,33.83,24.06c23.21-6.19,33.9-24.06,33.9-24.06l9.03,12.66c59.23-27.37,41.26-93.51,20.65-115.9Z"/>
  <path class="cls-3" d="M306.57,329.5c-19.97-14.11-82.31-13.34-101.14,0-7.23,5.09,13.35,37.7,50.55,37.7s57.79-32.61,50.59-37.7Z"/>
  <path class="cls-8" d="M91.54,174.33c-35.66-28.38-25.28-88.87-5.13-103.56,20.8-15.14,84.79,4.8,101.43,35.09-9.55,3.35-18.53,7.38-26.92,11.84-33-9.7-72.76,19.88-60.72,46.98-3.22,3.44-6.11,6.68-8.65,9.64Z"/>
  <path class="cls-6" d="M100.19,164.69c-25.05-18.15-18.33-59.13-4.81-68.96,13.35-9.75,53.86,2.65,65.76,21.85-26.26,13.97-46.86,32.21-60.95,47.1Z"/>
  <path class="cls-8" d="M420.45,174.33c35.66-28.38,25.28-88.87,5.13-103.56-20.8-15.14-84.79,4.8-101.43,35.09,9.53,3.35,18.53,7.38,26.92,11.84,33-9.7,72.76,19.88,60.72,46.98,3.22,3.44,6.11,6.68,8.65,9.64Z"/>
  <path class="cls-2" d="M411.81,164.69c25.05-18.15,18.33-59.13,4.83-68.96-13.37-9.75-53.87,2.65-65.77,21.85,26.27,13.97,46.86,32.21,60.95,47.1Z"/>
  <path class="cls-5" d="M255.98,423.38c-27.23,0-52.69-12.63-71.69-35.62-3.52-4.25-2.94-10.55,1.33-14.07,4.25-3.52,10.54-2.94,14.08,1.32,15.13,18.3,35.12,28.36,56.28,28.36s41.16-10.07,56.3-28.36c3.51-4.25,9.81-4.86,14.07-1.32,4.27,3.52,4.86,9.82,1.33,14.07-19,22.99-44.47,35.62-71.71,35.62Z"/>
  <path class="cls-5" d="M351.37,222.7c-42.56,0-59.21,36.04-55.5,64.18,2.76,20.88,108.3,20.9,111.02,0,3.95-30.44-16.66-64.18-55.52-64.18Z"/>
  <path class="cls-7" d="M351.37,232.73c-30.67,0-55.5,22.83-55.5,51,0,24.33,24.83,51,55.5,51s55.52-31.1,55.52-51c0-28.16-24.85-51-55.52-51Z"/>
  <ellipse class="cls-3" cx="346.05" cy="283.21" rx="41.44" ry="40.58"/>
  <path class="cls-7" d="M342.75,262.93c0,14.74-22.6,14.74-22.6,0,0-14.79,22.6-14.79,22.6,0Z"/>
  <path class="cls-5" d="M160.6,222.7c42.54,0,59.2,36.04,55.48,64.18-2.75,20.88-108.28,20.9-111,0-3.95-30.44,16.65-64.18,55.52-64.18Z"/>
  <path class="cls-7" d="M160.59,232.73c30.68,0,55.5,22.83,55.5,51,0,24.33-24.82,51-55.5,51s-55.5-31.1-55.5-51c0-28.16,24.83-51,55.5-51Z"/>
  <ellipse class="cls-3" cx="165.93" cy="283.21" rx="41.45" ry="40.58"/>
  <path class="cls-7" d="M169.23,262.93c0,14.74,22.6,14.74,22.6,0s-22.6-14.79-22.6,0Z"/>
  <path class="cls-5" d="M150.12,176.68c-66.37,18.62-31.82,35.81,26.16,26.97,32.73-4.99,17.54-39.24-26.16-26.97Z"/>
  <path class="cls-5" d="M361.87,176.68c-43.68-12.27-58.89,21.98-26.15,26.97,57.98,8.84,92.54-8.35,26.15-26.97Z"/>
</svg>