<?xml version="1.0" encoding="UTF-8"?>
<svg id="Layer_1" data-name="Layer 1" xmlns="http://www.w3.org/2000/svg" xmlns:xlink="http://www.w3.org/1999/xlink" viewBox="0 0 512.08 512">
  <defs>
    <style>
      .cls-1 {
        fill: url(#radial-gradient-7);
      }

      .cls-2 {
        fill: url(#radial-gradient-6);
      }

      .cls-3 {
        fill: url(#radial-gradient-5);
      }

      .cls-4 {
        fill: url(#radial-gradient-4);
      }

      .cls-5 {
        fill: url(#radial-gradient-8);
      }

      .cls-6 {
        fill: url(#radial-gradient-3);
      }

      .cls-7 {
        fill: url(#radial-gradient-2);
      }

      .cls-8 {
        fill: url(#linear-gradient-8);
      }

      .cls-9 {
        fill: url(#linear-gradient-7);
      }

      .cls-10 {
        fill: url(#linear-gradient-5);
      }

      .cls-11 {
        fill: url(#linear-gradient-6);
      }

      .cls-12 {
        fill: url(#linear-gradient-9);
      }

      .cls-13 {
        fill: url(#linear-gradient-4);
      }

      .cls-14 {
        fill: url(#linear-gradient-3);
      }

      .cls-15 {
        fill: url(#linear-gradient-2);
      }

      .cls-16 {
        fill: url(#radial-gradient);
      }

      .cls-17 {
        fill: url(#linear-gradient);
      }

      .cls-18 {
        fill: url(#linear-gradient-10);
      }

      .cls-19 {
        fill: url(#linear-gradient-11);
      }

      .cls-20 {
        fill: url(#linear-gradient-12);
      }

      .cls-21 {
        fill: url(#linear-gradient-13);
      }

      .cls-22 {
        fill: url(#linear-gradient-14);
      }

      .cls-23 {
        fill: url(#linear-gradient-15);
      }

      .cls-24 {
        fill: #302c3b;
      }
    </style>
    <linearGradient id="linear-gradient" x1="251.77" y1="451.41" x2="260.3" y2="451.41" gradientTransform="translate(0 514) scale(1 -1)" gradientUnits="userSpaceOnUse">
      <stop offset="0" stop-color="#5b666e"/>
      <stop offset=".23" stop-color="#515862"/>
      <stop offset="1" stop-color="#302c3b"/>
    </linearGradient>
    <linearGradient id="linear-gradient-2" x1="250.48" y1="203.85" x2="261.59" y2="203.85" gradientTransform="translate(0 514) scale(1 -1)" gradientUnits="userSpaceOnUse">
      <stop offset="0" stop-color="#5b666e"/>
      <stop offset=".23" stop-color="#515862"/>
      <stop offset="1" stop-color="#302c3b"/>
    </linearGradient>
    <linearGradient id="linear-gradient-3" x1="210.95" y1="12.95" x2="308.56" y2="12.95" gradientTransform="translate(18.96 479.67) scale(.8 -.8)" gradientUnits="userSpaceOnUse">
      <stop offset="0" stop-color="#d414cf"/>
      <stop offset=".12" stop-color="#c013bb"/>
      <stop offset=".29" stop-color="#aa11a6"/>
      <stop offset=".47" stop-color="#9b1097"/>
      <stop offset=".69" stop-color="#920f8e"/>
      <stop offset="1" stop-color="#8f0f8b"/>
    </linearGradient>
    <linearGradient id="linear-gradient-4" x1="256" y1="693.62" x2="256" y2="311.7" gradientTransform="translate(0 514) scale(1 -1)" gradientUnits="userSpaceOnUse">
      <stop offset=".23" stop-color="#d414cf"/>
      <stop offset=".44" stop-color="#d114cc"/>
      <stop offset=".61" stop-color="#c613c2"/>
      <stop offset=".78" stop-color="#b512b1"/>
      <stop offset=".93" stop-color="#9d1099"/>
      <stop offset="1" stop-color="#8f0f8b"/>
    </linearGradient>
    <linearGradient id="linear-gradient-5" x1="130.15" y1="168.53" x2="130.15" y2="404.89" gradientTransform="translate(0 514) scale(1 -1)" gradientUnits="userSpaceOnUse">
      <stop offset="0" stop-color="#ab11a7"/>
      <stop offset="1" stop-color="#d414cf"/>
    </linearGradient>
    <linearGradient id="linear-gradient-6" x1="381.97" y1="189.75" x2="381.97" y2="416.94" gradientTransform="translate(0 514) scale(1 -1)" gradientUnits="userSpaceOnUse">
      <stop offset="0" stop-color="#ab11a7"/>
      <stop offset="1" stop-color="#d414cf"/>
    </linearGradient>
    <linearGradient id="linear-gradient-7" x1="248.48" y1="437.65" x2="263.58" y2="437.65" gradientTransform="translate(0 514) scale(1 -1)" gradientUnits="userSpaceOnUse">
      <stop offset=".18" stop-color="#cfdde6"/>
      <stop offset=".39" stop-color="#c7d5de"/>
      <stop offset=".72" stop-color="#b1bfc7"/>
      <stop offset="1" stop-color="#99a8ae"/>
    </linearGradient>
    <radialGradient id="radial-gradient" cx="587.27" cy="847.62" fx="587.27" fy="855.84" r="11.34" gradientTransform="translate(-1366.1071 3925.053) scale(3.154 -4.4839)" gradientUnits="userSpaceOnUse">
      <stop offset="0" stop-color="#73efff"/>
      <stop offset=".19" stop-color="#6fecff"/>
      <stop offset=".36" stop-color="#64e3ff"/>
      <stop offset=".54" stop-color="#51d3ff"/>
      <stop offset=".71" stop-color="#36bdff"/>
      <stop offset=".87" stop-color="#14a1ff"/>
      <stop offset=".96" stop-color="#0091ff"/>
    </radialGradient>
    <linearGradient id="linear-gradient-8" x1="556.38" y1="804.33" x2="569.39" y2="815.82" gradientTransform="translate(-1052.8425 2633.2407) scale(2.7319 -3.0921)" gradientUnits="userSpaceOnUse">
      <stop offset=".05" stop-color="#c4eeff" stop-opacity="0"/>
      <stop offset=".45" stop-color="#cdf0ff" stop-opacity=".42"/>
      <stop offset="1" stop-color="#d4f2ff"/>
    </linearGradient>
    <radialGradient id="radial-gradient-2" cx="560.47" cy="868.7" fx="560.47" fy="876.92" r="11.34" gradientTransform="translate(-1366.1071 3930.4322) scale(3.154 -4.4839)" gradientUnits="userSpaceOnUse">
      <stop offset="0" stop-color="#73efff"/>
      <stop offset=".19" stop-color="#6fecff"/>
      <stop offset=".36" stop-color="#64e3ff"/>
      <stop offset=".54" stop-color="#51d3ff"/>
      <stop offset=".71" stop-color="#36bdff"/>
      <stop offset=".87" stop-color="#14a1ff"/>
      <stop offset=".96" stop-color="#0091ff"/>
    </radialGradient>
    <linearGradient id="linear-gradient-9" x1="525.42" y1="833.18" x2="538.43" y2="844.67" gradientTransform="translate(-1052.8425 2633.2407) scale(2.7319 -3.0921)" gradientUnits="userSpaceOnUse">
      <stop offset=".05" stop-color="#c4eeff" stop-opacity="0"/>
      <stop offset=".45" stop-color="#cdf0ff" stop-opacity=".42"/>
      <stop offset="1" stop-color="#d4f2ff"/>
    </linearGradient>
    <radialGradient id="radial-gradient-3" cx="478.32" cy="864.67" fx="478.32" fy="872.89" r="11.34" gradientTransform="translate(-1366.1071 3929.4026) scale(3.154 -4.4839)" gradientUnits="userSpaceOnUse">
      <stop offset="0" stop-color="#73efff"/>
      <stop offset=".19" stop-color="#6fecff"/>
      <stop offset=".36" stop-color="#64e3ff"/>
      <stop offset=".54" stop-color="#51d3ff"/>
      <stop offset=".71" stop-color="#36bdff"/>
      <stop offset=".87" stop-color="#14a1ff"/>
      <stop offset=".96" stop-color="#0091ff"/>
    </radialGradient>
    <linearGradient id="linear-gradient-10" x1="430.56" y1="827.64" x2="443.57" y2="839.14" gradientTransform="translate(-1052.8425 2633.2407) scale(2.7319 -3.0921)" gradientUnits="userSpaceOnUse">
      <stop offset=".05" stop-color="#c4eeff" stop-opacity="0"/>
      <stop offset=".45" stop-color="#cdf0ff" stop-opacity=".42"/>
      <stop offset="1" stop-color="#d4f2ff"/>
    </linearGradient>
    <radialGradient id="radial-gradient-4" cx="441.67" cy="849.32" fx="441.67" fy="857.54" r="11.34" gradientTransform="translate(-1366.1071 3925.4872) scale(3.154 -4.4839)" gradientUnits="userSpaceOnUse">
      <stop offset="0" stop-color="#73efff"/>
      <stop offset=".19" stop-color="#6fecff"/>
      <stop offset=".36" stop-color="#64e3ff"/>
      <stop offset=".54" stop-color="#51d3ff"/>
      <stop offset=".71" stop-color="#36bdff"/>
      <stop offset=".87" stop-color="#14a1ff"/>
      <stop offset=".96" stop-color="#0091ff"/>
    </radialGradient>
    <linearGradient id="linear-gradient-11" x1="388.25" y1="806.65" x2="401.26" y2="818.15" gradientTransform="translate(-1052.8425 2633.2407) scale(2.7319 -3.0921)" gradientUnits="userSpaceOnUse">
      <stop offset=".05" stop-color="#c4eeff" stop-opacity="0"/>
      <stop offset=".45" stop-color="#cdf0ff" stop-opacity=".42"/>
      <stop offset="1" stop-color="#d4f2ff"/>
    </linearGradient>
    <radialGradient id="radial-gradient-5" cx="462.6" cy="826.58" fx="462.6" fy="834.8" r="11.34" gradientTransform="translate(-1366.1071 3919.685) scale(3.154 -4.4839)" gradientUnits="userSpaceOnUse">
      <stop offset="0" stop-color="#73efff"/>
      <stop offset=".19" stop-color="#6fecff"/>
      <stop offset=".36" stop-color="#64e3ff"/>
      <stop offset=".54" stop-color="#51d3ff"/>
      <stop offset=".71" stop-color="#36bdff"/>
      <stop offset=".87" stop-color="#14a1ff"/>
      <stop offset=".96" stop-color="#0091ff"/>
    </radialGradient>
    <linearGradient id="linear-gradient-12" x1="412.44" y1="775.56" x2="425.45" y2="787.05" gradientTransform="translate(-1052.8425 2633.2407) scale(2.7319 -3.0921)" gradientUnits="userSpaceOnUse">
      <stop offset=".05" stop-color="#c4eeff" stop-opacity="0"/>
      <stop offset=".45" stop-color="#cdf0ff" stop-opacity=".42"/>
      <stop offset="1" stop-color="#d4f2ff"/>
    </linearGradient>
    <radialGradient id="radial-gradient-6" cx="497.26" cy="838.46" fx="497.26" fy="846.68" r="11.34" gradientTransform="translate(-1366.1071 3922.7159) scale(3.154 -4.4839)" gradientUnits="userSpaceOnUse">
      <stop offset="0" stop-color="#73efff"/>
      <stop offset=".19" stop-color="#6fecff"/>
      <stop offset=".36" stop-color="#64e3ff"/>
      <stop offset=".54" stop-color="#51d3ff"/>
      <stop offset=".71" stop-color="#36bdff"/>
      <stop offset=".87" stop-color="#14a1ff"/>
      <stop offset=".96" stop-color="#0091ff"/>
    </radialGradient>
    <linearGradient id="linear-gradient-13" x1="452.44" y1="791.81" x2="465.45" y2="803.3" gradientTransform="translate(-1052.8425 2633.2407) scale(2.7319 -3.0921)" gradientUnits="userSpaceOnUse">
      <stop offset=".05" stop-color="#c4eeff" stop-opacity="0"/>
      <stop offset=".45" stop-color="#cdf0ff" stop-opacity=".42"/>
      <stop offset="1" stop-color="#d4f2ff"/>
    </linearGradient>
    <radialGradient id="radial-gradient-7" cx="526.92" cy="854.89" fx="526.92" fy="863.11" r="11.34" gradientTransform="translate(-1366.1071 3926.9087) scale(3.154 -4.4839)" gradientUnits="userSpaceOnUse">
      <stop offset="0" stop-color="#73efff"/>
      <stop offset=".19" stop-color="#6fecff"/>
      <stop offset=".36" stop-color="#64e3ff"/>
      <stop offset=".54" stop-color="#51d3ff"/>
      <stop offset=".71" stop-color="#36bdff"/>
      <stop offset=".87" stop-color="#14a1ff"/>
      <stop offset=".96" stop-color="#0091ff"/>
    </radialGradient>
    <linearGradient id="linear-gradient-14" x1="486.68" y1="814.29" x2="499.69" y2="825.79" gradientTransform="translate(-1052.8425 2633.2407) scale(2.7319 -3.0921)" gradientUnits="userSpaceOnUse">
      <stop offset=".05" stop-color="#c4eeff" stop-opacity="0"/>
      <stop offset=".45" stop-color="#cdf0ff" stop-opacity=".42"/>
      <stop offset="1" stop-color="#d4f2ff"/>
    </linearGradient>
    <radialGradient id="radial-gradient-8" cx="554.33" cy="828.91" fx="554.33" fy="837.13" r="11.34" gradientTransform="translate(-1366.1071 3920.2803) scale(3.154 -4.4839)" gradientUnits="userSpaceOnUse">
      <stop offset="0" stop-color="#73efff"/>
      <stop offset=".19" stop-color="#6fecff"/>
      <stop offset=".36" stop-color="#64e3ff"/>
      <stop offset=".54" stop-color="#51d3ff"/>
      <stop offset=".71" stop-color="#36bdff"/>
      <stop offset=".87" stop-color="#14a1ff"/>
      <stop offset=".96" stop-color="#0091ff"/>
    </radialGradient>
    <linearGradient id="linear-gradient-15" x1="518.33" y1="778.74" x2="531.34" y2="790.24" gradientTransform="translate(-1052.8425 2633.2407) scale(2.7319 -3.0921)" gradientUnits="userSpaceOnUse">
      <stop offset=".05" stop-color="#c4eeff" stop-opacity="0"/>
      <stop offset=".45" stop-color="#cdf0ff" stop-opacity=".42"/>
      <stop offset="1" stop-color="#d4f2ff"/>
    </linearGradient>
  </defs>
  <path class="cls-17" d="M251.8,50.04v31.44h8.56v-31.44c-.08-8.48-8.56-8.48-8.56,0Z"/>
  <rect class="cls-15" x="250.52" y="176.53" width="11.12" height="267.22"/>
  <path class="cls-14" d="M246.28,426.63v46.32c0,10.8-8.8,19.52-19.52,19.52s-19.52-8.72-19.52-19.52c0-5.36-4.4-9.76-9.76-9.76s-9.76,4.4-9.76,9.76c0,21.52,17.52,39.04,39.04,39.04s39.04-17.52,39.04-39.04v-46.32s-19.52,0-19.52,0Z"/>
  <path class="cls-24" d="M129.07,280.06c.16-1.28,3.36-.48,2.88.8-4.8,11.28-4.08,11.52-2.88-.8Z"/>
  <path class="cls-24" d="M126.67,287.74c.64-2.56,4.4-1.52,3.76,1.04-.64,2.48-4.4,1.52-3.76-1.04Z"/>
  <path class="cls-24" d="M6.02,262.78c.72-1.12,3.2,1.12,2.24,2-9.2,7.92-8.64,8.4-2.24-2Z"/>
  <path class="cls-24" d="M.5,268.54c1.68-2,4.64.64,2.88,2.56-1.6,2-4.56-.56-2.88-2.56Z"/>
  <path class="cls-24" d="M383.01,280.06c-.16-1.28-3.36-.48-2.88.8,4.8,11.28,4.08,11.52,2.88-.8Z"/>
  <path class="cls-24" d="M385.41,287.74c-.64-2.56-4.4-1.52-3.76,1.04.64,2.48,4.4,1.52,3.76-1.04Z"/>
  <path class="cls-24" d="M506.06,262.78c-.72-1.12-3.2,1.12-2.24,2,9.2,7.92,8.64,8.4,2.24-2Z"/>
  <path class="cls-24" d="M511.58,268.54c-1.68-2-4.64.64-2.96,2.56,1.68,2,4.64-.56,2.96-2.56Z"/>
  <path class="cls-13" d="M130.11,282.62s134.33-48.96,251.78,0c0,0,3.2-154.49-125.93-204.82-117.45,51.52-125.85,169.93-125.85,204.82Z"/>
  <path class="cls-10" d="M4.26,265.58s43.28-15.52,125.93,17.04c42-154.41,50.4-154.41,125.85-204.82Q97.63,113.97,4.26,265.58Z"/>
  <path class="cls-11" d="M256.04,77.81c75.45,50.32,83.85,50.32,125.93,204.82,82.65-32.56,125.93-17.04,125.93-17.04q-93.45-151.61-251.86-187.77Z"/>
  <path class="cls-9" d="M251.8,73.65l-3.28,6h15.12l-3.28-6c-.08-.8-8.56-.8-8.56,0Z"/>
  <path class="cls-16" d="M489.1,93.33c-1.92-5.6-4.96-5.6-6.88,0-5.68,16.48-22.96,38.88-22.96,58.24,0,14.08,11.84,25.6,26.4,25.6s26.4-11.44,26.4-25.6c0-19.36-17.36-41.92-22.96-58.24Z"/>
  <path class="cls-8" d="M487.82,92.05c-.64-2.56-3.6-2.56-4.24,0-3.52,13.2-15.76,35.12-15.76,50.64,0,18.64,35.84,18.64,35.84,0-.08-15.52-12.4-37.6-15.84-50.64Z"/>
  <path class="cls-7" d="M404.53,4.2c-1.92-5.6-4.96-5.6-6.88,0-5.68,16.48-22.96,38.88-22.96,58.24,0,14.08,11.84,25.6,26.4,25.6s26.4-11.44,26.4-25.6c0-19.36-17.28-42-22.96-58.24Z"/>
  <path class="cls-12" d="M403.25,2.84c-.64-2.56-3.6-2.56-4.24,0-3.52,13.2-15.76,35.12-15.76,50.64,0,18.64,35.84,18.64,35.84,0-.08-15.44-12.4-37.6-15.84-50.64Z"/>
  <path class="cls-6" d="M145.47,21.24c-1.92-5.6-4.96-5.6-6.88,0-5.68,16.48-22.96,38.88-22.96,58.24,0,14.08,11.84,25.6,26.4,25.6s26.4-11.44,26.4-25.6c0-19.36-17.36-41.92-22.96-58.24Z"/>
  <path class="cls-18" d="M144.11,19.96c-.64-2.56-3.6-2.56-4.24,0-3.52,13.2-15.76,35.12-15.76,50.64,0,18.64,35.84,18.64,35.84,0,0-15.52-12.32-37.6-15.84-50.64Z"/>
  <path class="cls-4" d="M29.86,86.13c-1.92-5.6-4.96-5.6-6.88,0C17.3,102.61.02,125.01.02,144.37c0,14.08,11.84,25.6,26.4,25.6s26.4-11.44,26.4-25.6c0-19.36-17.36-41.92-22.96-58.24Z"/>
  <path class="cls-19" d="M28.58,84.85c-.64-2.56-3.6-2.56-4.24,0-3.52,13.2-15.84,35.12-15.84,50.64,0,18.64,35.84,18.64,35.84,0,0-15.52-12.32-37.6-15.76-50.64Z"/>
  <path class="cls-3" d="M95.87,182.29c-1.92-5.6-4.96-5.6-6.88,0-5.68,16.48-22.96,38.88-22.96,58.24,0,14.08,11.84,25.6,26.4,25.6s26.4-11.44,26.4-25.6c0-19.36-17.28-41.92-22.96-58.24Z"/>
  <path class="cls-20" d="M94.59,181.01c-.64-2.56-3.6-2.56-4.24,0-3.52,13.2-15.76,35.12-15.76,50.64,0,18.64,35.84,18.64,35.84,0-.08-15.44-12.4-37.6-15.84-50.64Z"/>
  <path class="cls-2" d="M205.24,132.05c-1.92-5.6-4.96-5.6-6.88,0-5.68,16.48-22.96,38.88-22.96,58.24,0,14.08,11.84,25.6,26.4,25.6s26.4-11.44,26.4-25.6c0-19.28-17.36-41.92-22.96-58.24Z"/>
  <path class="cls-21" d="M203.88,130.77c-.64-2.56-3.6-2.56-4.24,0-3.52,13.2-15.76,35.12-15.76,50.64,0,18.64,35.84,18.64,35.84,0,0-15.44-12.32-37.6-15.84-50.64Z"/>
  <path class="cls-1" d="M298.76,62.6c-1.92-5.6-4.96-5.6-6.88,0-5.68,16.48-22.96,38.88-22.96,58.24,0,14.08,11.84,25.6,26.4,25.6s26.4-11.44,26.4-25.6c0-19.36-17.36-42-22.96-58.24Z"/>
  <path class="cls-22" d="M297.4,61.24c-.64-2.56-3.6-2.56-4.24,0-3.52,13.2-15.76,35.12-15.76,50.64,0,18.64,35.84,18.64,35.84,0-.08-15.44-12.32-37.6-15.84-50.64Z"/>
  <path class="cls-5" d="M385.17,172.45c-1.92-5.6-4.96-5.6-6.88,0-5.68,16.48-22.96,38.88-22.96,58.24,0,14.08,11.84,25.6,26.4,25.6s26.4-11.44,26.4-25.6c0-19.36-17.28-42-22.96-58.24Z"/>
  <path class="cls-23" d="M383.89,171.17c-.64-2.56-3.6-2.56-4.24,0-3.52,13.2-15.76,35.12-15.76,50.64,0,18.64,35.84,18.64,35.84,0-.08-15.52-12.32-37.6-15.84-50.64Z"/>
</svg>