<?xml version="1.0" encoding="UTF-8"?>
<svg id="Layer_1" data-name="Layer 1" xmlns="http://www.w3.org/2000/svg" xmlns:xlink="http://www.w3.org/1999/xlink" viewBox="0 0 477.91 512">
  <defs>
    <style>
      .cls-1 {
        fill: url(#radial-gradient-5);
      }

      .cls-2 {
        fill: url(#radial-gradient-4);
      }

      .cls-3 {
        fill: url(#radial-gradient-3);
      }

      .cls-4 {
        fill: url(#radial-gradient-2);
      }

      .cls-5 {
        fill: url(#linear-gradient-7);
      }

      .cls-6 {
        fill: url(#linear-gradient-5);
      }

      .cls-7 {
        fill: url(#linear-gradient-6);
      }

      .cls-8 {
        fill: url(#linear-gradient-4);
      }

      .cls-9 {
        fill: url(#linear-gradient-3);
      }

      .cls-10 {
        fill: url(#linear-gradient-2);
      }

      .cls-11 {
        fill: url(#radial-gradient);
      }

      .cls-12 {
        fill: url(#linear-gradient);
      }
    </style>
    <linearGradient id="linear-gradient" x1="-1205.09" y1="115.16" x2="-1205.09" y2="107.2" gradientTransform="translate(67722.64 -3864.5194) scale(55.999 36.19)" gradientUnits="userSpaceOnUse">
      <stop offset="0" stop-color="#dadada"/>
      <stop offset="1" stop-color="#fdfdfd"/>
    </linearGradient>
    <linearGradient id="linear-gradient-2" x1="-1206.52" y1="105.14" x2="-1206.52" y2="113.1" gradientTransform="translate(72629.9421 -4205.5999) scale(60 40)" gradientUnits="userSpaceOnUse">
      <stop offset="0" stop-color="#b2b2b2"/>
      <stop offset="1" stop-color="#6b6b6b"/>
    </linearGradient>
    <radialGradient id="radial-gradient" cx="539.15" cy="802.14" fx="539.15" fy="811.11" r="12.38" gradientTransform="translate(-2340.2144 3417.654) rotate(14.9999) scale(3.154 -4.4839)" gradientUnits="userSpaceOnUse">
      <stop offset="0" stop-color="#73efff"/>
      <stop offset=".19" stop-color="#6fecff"/>
      <stop offset=".36" stop-color="#64e3ff"/>
      <stop offset=".54" stop-color="#51d3ff"/>
      <stop offset=".71" stop-color="#36bdff"/>
      <stop offset=".87" stop-color="#14a1ff"/>
      <stop offset=".96" stop-color="#0091ff"/>
    </radialGradient>
    <linearGradient id="linear-gradient-3" x1="502.84" y1="762.52" x2="517.04" y2="775.06" gradientTransform="translate(-1730.1223 2323.2492) rotate(15.0007) scale(2.7319 -3.0921)" gradientUnits="userSpaceOnUse">
      <stop offset=".05" stop-color="#c4eeff" stop-opacity="0"/>
      <stop offset=".45" stop-color="#cdf0ff" stop-opacity=".42"/>
      <stop offset="1" stop-color="#d4f2ff"/>
    </linearGradient>
    <radialGradient id="radial-gradient-2" cx="573.8" cy="812.37" fx="573.8" fy="820.12" r="10.69" gradientTransform="translate(-2340.8504 3420.0271) rotate(14.9999) scale(3.154 -4.4839)" gradientUnits="userSpaceOnUse">
      <stop offset="0" stop-color="#73efff"/>
      <stop offset=".19" stop-color="#6fecff"/>
      <stop offset=".36" stop-color="#64e3ff"/>
      <stop offset=".54" stop-color="#51d3ff"/>
      <stop offset=".71" stop-color="#36bdff"/>
      <stop offset=".87" stop-color="#14a1ff"/>
      <stop offset=".96" stop-color="#0091ff"/>
    </radialGradient>
    <linearGradient id="linear-gradient-4" x1="543.87" y1="777.63" x2="556.12" y2="788.45" gradientTransform="translate(-1730.1223 2323.2492) rotate(15.0007) scale(2.7319 -3.0921)" gradientUnits="userSpaceOnUse">
      <stop offset=".05" stop-color="#c4eeff" stop-opacity="0"/>
      <stop offset=".45" stop-color="#cdf0ff" stop-opacity=".42"/>
      <stop offset="1" stop-color="#d4f2ff"/>
    </linearGradient>
    <radialGradient id="radial-gradient-3" cx="504.6" cy="798.62" fx="504.6" fy="806.37" r="10.69" gradientTransform="translate(-2339.9962 3416.8395) rotate(14.9999) scale(3.154 -4.4839)" gradientUnits="userSpaceOnUse">
      <stop offset="0" stop-color="#73efff"/>
      <stop offset=".19" stop-color="#6fecff"/>
      <stop offset=".36" stop-color="#64e3ff"/>
      <stop offset=".54" stop-color="#51d3ff"/>
      <stop offset=".71" stop-color="#36bdff"/>
      <stop offset=".87" stop-color="#14a1ff"/>
      <stop offset=".96" stop-color="#0091ff"/>
    </radialGradient>
    <linearGradient id="linear-gradient-5" x1="463.99" y1="758.75" x2="476.25" y2="769.57" gradientTransform="translate(-1730.1223 2323.2492) rotate(15.0007) scale(2.7319 -3.0921)" gradientUnits="userSpaceOnUse">
      <stop offset=".05" stop-color="#c4eeff" stop-opacity="0"/>
      <stop offset=".45" stop-color="#cdf0ff" stop-opacity=".42"/>
      <stop offset="1" stop-color="#d4f2ff"/>
    </linearGradient>
    <radialGradient id="radial-gradient-4" cx="517.39" cy="778.4" fx="517.39" fy="786.15" r="10.69" gradientTransform="translate(-2338.7401 3412.1508) rotate(14.9999) scale(3.154 -4.4839)" gradientUnits="userSpaceOnUse">
      <stop offset="0" stop-color="#73efff"/>
      <stop offset=".19" stop-color="#6fecff"/>
      <stop offset=".36" stop-color="#64e3ff"/>
      <stop offset=".54" stop-color="#51d3ff"/>
      <stop offset=".71" stop-color="#36bdff"/>
      <stop offset=".87" stop-color="#14a1ff"/>
      <stop offset=".96" stop-color="#0091ff"/>
    </radialGradient>
    <linearGradient id="linear-gradient-6" x1="478.76" y1="730.99" x2="491.01" y2="741.81" gradientTransform="translate(-1730.1223 2323.2492) rotate(15.0007) scale(2.7319 -3.0921)" gradientUnits="userSpaceOnUse">
      <stop offset=".05" stop-color="#c4eeff" stop-opacity="0"/>
      <stop offset=".45" stop-color="#cdf0ff" stop-opacity=".42"/>
      <stop offset="1" stop-color="#d4f2ff"/>
    </linearGradient>
    <radialGradient id="radial-gradient-5" cx="561.96" cy="787.28" fx="561.96" fy="795.02" r="10.69" gradientTransform="translate(-2339.2913 3414.2087) rotate(14.9999) scale(3.154 -4.4839)" gradientUnits="userSpaceOnUse">
      <stop offset="0" stop-color="#73efff"/>
      <stop offset=".19" stop-color="#6fecff"/>
      <stop offset=".36" stop-color="#64e3ff"/>
      <stop offset=".54" stop-color="#51d3ff"/>
      <stop offset=".71" stop-color="#36bdff"/>
      <stop offset=".87" stop-color="#14a1ff"/>
      <stop offset=".96" stop-color="#0091ff"/>
    </radialGradient>
    <linearGradient id="linear-gradient-7" x1="530.22" y1="743.17" x2="542.47" y2="754" gradientTransform="translate(-1730.1223 2323.2492) rotate(15.0007) scale(2.7319 -3.0921)" gradientUnits="userSpaceOnUse">
      <stop offset=".05" stop-color="#c4eeff" stop-opacity="0"/>
      <stop offset=".45" stop-color="#cdf0ff" stop-opacity=".42"/>
      <stop offset="1" stop-color="#d4f2ff"/>
    </linearGradient>
  </defs>
  <path id="Path" class="cls-12" d="M70.49,299.55c-32.69-10.24-54.62-39.26-54.62-72.03,0-21.85,9.98-42.67,27.31-57.18,4.52-3.76,9.39-6.91,14.59-9.64h-.26l5.29-17.58c13.14-43.78,55.73-74.42,103.52-74.42,4.78,0,9.64.34,15.36,1.11,4.35.6,8.7,1.45,12.97,2.56l2.13-3.67c19.29-33.11,55.98-53.77,95.67-53.77,60.25,0,109.32,46.77,109.32,104.2,0,2.82-.17,5.55-.43,8.28l-.17,2.05c4.61,1.71,9.13,3.76,13.57,6.14,29.1,15.96,47.28,45.83,47.28,77.75,0,42.07-30.04,78.09-73.05,87.48-7,1.54-14.17,2.39-21.16,2.39H95.58c-8.53.17-16.98-1.02-25.09-3.67Z"/>
  <path id="Shape" class="cls-10" d="M292.47,30.3c51.55,0,93.36,39.85,93.36,89.01,0,2.39-.17,4.78-.34,7.08-21.59,1.62-41.22,9.81-56.58,22.53,11.44-6.32,24.75-9.9,38.92-9.9,5.21,0,10.33.51,15.36,1.45,8.45,1.62,16.39,4.52,23.64,8.53,23.47,12.89,39.26,36.95,39.26,64.6,0,35.42-25.94,65.12-60.68,72.71-5.63,1.28-11.52,1.96-17.58,1.96H95.58c-7,0-13.65-1.11-19.97-3.16-25.35-7.94-43.69-30.72-43.69-57.61,0-18.26,8.45-34.56,21.85-45.74,6.06-5.04,13.14-8.96,20.82-11.61,6.57-2.13,13.57-3.41,20.91-3.41,20.57,0,38.75,9.3,50.44,23.64h.6c-13.48-23.73-38.83-40.45-68.36-43.1,11.01-36.61,46.34-63.41,88.24-63.41,4.52,0,8.79.43,13.14,1.02,8.53,1.19,16.64,3.41,24.24,6.66,28.25,12.03,48.9,37.21,53.51,67.33v-.51c0-34.31-18.52-64.52-46.51-82.18,15.87-27.31,46.43-45.91,81.67-45.91M292.47,0c-42.93,0-82.78,20.99-105.74,55.39-.85-.17-1.79-.26-2.65-.43-6.57-.85-12.12-1.28-17.67-1.28-54.87,0-103.69,35.08-118.88,85.43l-3.58,11.95c-3.93,2.39-7.68,5.04-11.18,8.02C11.95,176.32,0,201.32,0,227.61c0,39.34,26.37,74.08,65.63,86.37,9.64,3.07,19.71,4.61,29.95,4.61h272.24c8.19,0,16.56-.94,24.75-2.73,50.27-11.01,85.34-53.08,85.34-102.24,0-37.38-21.16-72.2-55.22-90.89-1.62-.85-3.33-1.79-5.04-2.56v-.77C417.66,53.51,361.51,0,292.47,0h0Z"/>
  <path class="cls-11" d="M245.27,351.78c-.43-6.49-3.58-7.34-7.25-1.96-10.67,15.79-35.16,34.48-40.62,54.87-4.01,14.85,5.21,30.3,20.65,34.39,15.36,4.1,31.06-4.61,35.08-19.54,5.38-20.23-6.49-48.99-7.85-67.76Z"/>
  <path class="cls-9" d="M244.33,350.07c0-2.9-3.07-3.67-4.44-1.19-7.42,12.97-26.54,32.6-30.98,48.9-5.29,19.63,32.52,29.78,37.72,10.16,4.35-16.3-2.39-43.1-2.3-57.86Z"/>
  <path class="cls-4" d="M360.48,342.48c-.43-5.55-3.16-6.32-6.23-1.71-9.22,13.65-30.38,29.78-35.16,47.45-3.41,12.89,4.52,26.2,17.84,29.7,13.31,3.58,26.8-4.01,30.3-16.81,4.69-17.58-5.55-42.41-6.74-58.63Z"/>
  <path class="cls-8" d="M359.63,340.94c0-2.47-2.65-3.16-3.84-1.02-6.4,11.18-22.96,28.16-26.71,42.24-4.52,16.98,28.08,25.69,32.6,8.7,3.76-14-2.05-37.12-2.05-49.92Z"/>
  <path class="cls-3" d="M134.58,342.39c-.43-5.55-3.16-6.32-6.23-1.71-9.22,13.65-30.38,29.78-35.16,47.45-3.41,12.89,4.52,26.2,17.84,29.7,13.31,3.58,26.8-4.01,30.3-16.81,4.69-17.67-5.55-42.41-6.74-58.63Z"/>
  <path class="cls-6" d="M133.73,340.85c0-2.47-2.65-3.16-3.84-1.02-6.4,11.18-22.96,28.16-26.71,42.24-4.52,16.98,28.08,25.69,32.6,8.7,3.76-14.08-2.05-37.21-2.05-49.92Z"/>
  <path class="cls-2" d="M151.31,435.67c-.43-5.55-3.16-6.32-6.23-1.71-9.22,13.65-30.38,29.78-35.16,47.45-3.41,12.89,4.52,26.2,17.84,29.7,13.31,3.58,26.8-4.01,30.3-16.81,4.69-17.58-5.55-42.41-6.74-58.63Z"/>
  <path class="cls-7" d="M150.46,434.22c0-2.47-2.65-3.16-3.84-1.02-6.4,11.18-22.96,28.16-26.71,42.24-4.52,16.98,28.08,25.69,32.6,8.7,3.76-14.08-2.05-37.21-2.05-49.92Z"/>
  <path class="cls-1" d="M296.9,435.67c-.43-5.55-3.16-6.32-6.23-1.71-9.22,13.65-30.38,29.78-35.16,47.45-3.41,12.89,4.52,26.2,17.84,29.7,13.31,3.58,26.8-4.01,30.3-16.81,4.69-17.58-5.63-42.41-6.74-58.63Z"/>
  <path class="cls-5" d="M295.97,434.22c0-2.47-2.65-3.16-3.84-1.02-6.4,11.18-22.96,28.16-26.71,42.24-4.52,16.98,28.08,25.69,32.6,8.7,3.76-14.08-2.05-37.21-2.05-49.92Z"/>
</svg>