<?xml version="1.0" encoding="UTF-8"?>
<svg id="Layer_1" data-name="Layer 1" xmlns="http://www.w3.org/2000/svg" xmlns:xlink="http://www.w3.org/1999/xlink" viewBox="0 0 512 512">
  <defs>
    <style>
      .cls-1 {
        fill: url(#linear-gradient-3);
      }

      .cls-2 {
        fill: url(#linear-gradient-2);
      }

      .cls-3 {
        fill: url(#linear-gradient);
      }
    </style>
    <linearGradient id="linear-gradient" x1="256" y1="2" x2="256" y2="514" gradientTransform="translate(0 514) scale(1 -1)" gradientUnits="userSpaceOnUse">
      <stop offset="0" stop-color="#d90100"/>
      <stop offset=".12" stop-color="#e01313"/>
      <stop offset=".37" stop-color="#ee3535"/>
      <stop offset=".6" stop-color="#f74d4d"/>
      <stop offset=".82" stop-color="#fd5c5c"/>
      <stop offset="1" stop-color="#ff6161"/>
    </linearGradient>
    <linearGradient id="linear-gradient-2" x1="254.37" y1="124.19" x2="254.37" y2="400.32" gradientTransform="translate(0 514) scale(1 -1)" gradientUnits="userSpaceOnUse">
      <stop offset="0" stop-color="#f80"/>
      <stop offset=".21" stop-color="#ffa113"/>
      <stop offset=".54" stop-color="#ffc32b"/>
      <stop offset=".82" stop-color="#ffd83a"/>
      <stop offset="1" stop-color="#ffdf40"/>
    </linearGradient>
    <linearGradient id="linear-gradient-3" x1="254.35" y1="203.8" x2="254.35" y2="320.72" gradientTransform="translate(0 514) scale(1 -1)" gradientUnits="userSpaceOnUse">
      <stop offset="0" stop-color="#fff1a3"/>
      <stop offset=".16" stop-color="#fff4b6"/>
      <stop offset=".53" stop-color="#fffade"/>
      <stop offset=".82" stop-color="#fffef6"/>
      <stop offset="1" stop-color="#fff"/>
    </linearGradient>
  </defs>
  <polygon class="cls-3" points="357.61 283.32 512 197.7 338.76 205.23 390.21 98.95 296.38 165.72 307.96 19.14 239.69 139.94 136.92 0 181.09 174.34 26.95 123.17 149.79 235.38 0 264.54 143.58 297.23 63.07 440.93 194.86 361.35 200.29 512 254.27 374.4 326.91 483.28 322.89 352.51 447.94 400.27 357.61 283.32"/>
  <polygon class="cls-2" points="312.76 270.29 403.17 228.37 302.9 225.4 329.8 165.78 276.67 196.22 278.66 115.15 242.99 182.74 189.27 113.68 212.74 200.71 123.26 178.05 196.39 241.15 105.57 262.5 188.69 281.63 130.09 371.51 219.94 310.66 222.39 389.81 254.67 317.5 291.16 371.51 290.54 306.06 356.22 334.85 312.76 270.29"/>
  <polygon class="cls-1" points="279.08 259.58 317.36 241.83 274.9 240.58 286.29 215.34 263.81 228.23 264.64 193.9 249.54 222.51 226.79 193.28 236.74 230.14 198.83 220.53 229.81 247.25 191.34 256.3 226.54 264.4 201.74 302.46 239.78 276.68 240.83 310.2 254.5 279.58 269.94 302.46 269.67 274.74 297.5 286.93 279.08 259.58"/>
</svg>