<?xml version="1.0" encoding="UTF-8"?>
<svg id="Layer_1" data-name="Layer 1" xmlns="http://www.w3.org/2000/svg" xmlns:xlink="http://www.w3.org/1999/xlink" viewBox="0 0 548.57 512">
  <defs>
    <style>
      .cls-1 {
        fill: #fcd449;
      }

      .cls-2 {
        fill: url(#linear-gradient);
      }

      .cls-3 {
        fill: #fff;
      }
    </style>
    <linearGradient id="linear-gradient" x1="-1170.88" y1="106.09" x2="-1170.88" y2="114.62" gradientTransform="translate(70545.1429 -4302) scale(60 42)" gradientUnits="userSpaceOnUse">
      <stop offset="0" stop-color="#a3f3ff"/>
      <stop offset="1" stop-color="#38deff"/>
    </linearGradient>
  </defs>
  <circle class="cls-1" cx="182.86" cy="182.86" r="84.57"/>
  <path class="cls-1" d="M217.05,83.43L182.87,0l-34.2,83.43c11.11-1.97,22.5-3.15,34.19-3.15s23.09,1.18,34.19,3.15Z"/>
  <path class="cls-1" d="M282.3,217.07l83.41-34.19-83.41-34.19c1.96,11.11,3.15,22.5,3.15,34.18s-1.19,23.1-3.15,34.21Z"/>
  <path class="cls-1" d="M83.41,148.68L0,182.88l83.41,34.19c-1.95-11.11-3.15-22.5-3.15-34.21s1.2-23.07,3.15-34.18Z"/>
  <path class="cls-1" d="M277.37,136.71l34.79-83.15-83.15,34.79c9.23,6.48,18.12,13.7,26.4,21.96,8.27,8.27,15.48,17.18,21.96,26.4Z"/>
  <path class="cls-1" d="M88.36,229l-34.81,83.16,83.17-34.81c-9.24-6.48-18.13-13.7-26.4-21.96-8.27-8.27-15.49-17.16-21.96-26.4Z"/>
  <path class="cls-1" d="M136.72,88.36L53.55,53.57l34.81,83.15c6.47-9.22,13.69-18.12,21.96-26.4,8.27-8.27,17.16-15.48,26.4-21.96Z"/>
  <path id="Path" class="cls-3" d="M138.92,494.95c-9.1,0-18.11-1.46-26.78-4.36-34.99-11.56-58.5-44.11-58.5-80.98,0-24.6,10.66-48.04,29.25-64.27,4.8-4.2,10.01-7.82,15.6-10.84l-.28-.02,5.67-19.73c14.12-49.29,59.73-83.69,110.91-83.69,5.11,0,10.34.41,16.48,1.3,4.74.66,9.34,1.63,13.88,2.85l2.25-4.08c20.68-37.28,59.95-60.44,102.48-60.44,64.57,0,117.12,52.58,117.12,117.2,0,3.18-.21,6.25-.48,9.33l-.17,2.3c4.98,1.89,9.84,4.21,14.53,6.93,31.23,18,50.63,51.54,50.63,87.48,0,47.34-32.2,87.81-78.3,98.38-7.52,1.76-15.15,2.66-22.66,2.66H138.92v-.02Z"/>
  <path id="Shape" class="cls-2" d="M349.88,187.74c55.25,0,100.04,44.84,100.04,100.13,0,2.7-.19,5.32-.4,7.95-23.12,1.76-44.14,11-60.65,25.33,12.29-7.05,26.49-11.18,41.7-11.18,5.61,0,11.11.58,16.43,1.65,9.07,1.78,17.6,5.09,25.36,9.57,25.12,14.5,42.08,41.59,42.08,72.71,0,39.84-27.79,73.2-65.04,81.75-6.05,1.41-12.34,2.21-18.84,2.21H138.92c-7.48,0-14.66-1.23-21.39-3.48-27.2-8.98-46.83-34.59-46.83-64.79,0-20.53,9.08-38.91,23.42-51.39,6.48-5.7,14.03-10.12,22.33-13.02,7.05-2.47,14.58-3.88,22.46-3.88,22,0,41.5,10.47,53.98,26.64h.61c-14.48-26.68-41.56-45.5-73.25-48.52,11.79-41.12,49.62-71.32,94.51-71.32,4.81,0,9.47.47,14.07,1.12,9.11,1.33,17.83,3.83,25.95,7.45,30.27,13.52,52.37,41.82,57.29,75.75,0-.19.02-.41.02-.58,0-38.65-19.8-72.64-49.78-92.46,17.09-30.77,49.88-51.64,87.57-51.64M349.88,153.61c-46.03,0-88.72,23.67-113.29,62.29-.93-.16-1.9-.29-2.85-.44-7.01-1-13.03-1.46-18.95-1.46-58.75,0-111.11,39.49-127.33,96.05l-3.85,13.47c-4.21,2.68-8.2,5.71-11.99,9.01-22.26,19.44-35.04,47.54-35.04,77.08,0,44.27,28.23,83.32,70.25,97.2,10.32,3.45,21.17,5.19,32.09,5.19h291.63c8.8,0,17.73-1.03,26.57-3.09,53.81-12.37,91.46-59.66,91.46-115,0-42.04-22.67-81.23-59.18-102.29-1.76-1-3.56-1.98-5.36-2.89.02-.28.02-.56.02-.86,0-74.02-60.2-134.26-134.17-134.26h0Z"/>
</svg>