<?xml version="1.0" encoding="UTF-8"?>
<svg id="Layer_1" data-name="Layer 1" xmlns="http://www.w3.org/2000/svg" xmlns:xlink="http://www.w3.org/1999/xlink" viewBox="0 0 512 512">
  <defs>
    <style>
      .cls-1 {
        fill: url(#radial-gradient-2);
      }

      .cls-2 {
        fill: url(#radial-gradient);
      }
    </style>
    <radialGradient id="radial-gradient" cx="258.76" cy="320.23" fx="258.76" fy="320.23" r="239.99" gradientTransform="translate(-20.02 597.58) scale(1.07 -1.07)" gradientUnits="userSpaceOnUse">
      <stop offset=".37" stop-color="#f90"/>
      <stop offset=".38" stop-color="#ff9c03"/>
      <stop offset=".48" stop-color="#ffb620"/>
      <stop offset=".59" stop-color="#ffca37"/>
      <stop offset=".7" stop-color="#ffd847"/>
      <stop offset=".83" stop-color="#ffe051"/>
      <stop offset="1" stop-color="#ffe354"/>
    </radialGradient>
    <radialGradient id="radial-gradient-2" cx="239.83" cy="339.81" fx="239.83" fy="339.81" r="144" gradientTransform="translate(-20.02 597.58) scale(1.07 -1.07)" gradientUnits="userSpaceOnUse">
      <stop offset="0" stop-color="#ffd500"/>
      <stop offset=".38" stop-color="#ffd200"/>
      <stop offset=".71" stop-color="#ffc700"/>
      <stop offset="1" stop-color="#ffb700"/>
    </radialGradient>
  </defs>
  <path class="cls-2" d="M411.17,297.57l100.83-41.58-100.83-41.58,66.54-86.42-108.12,14.4,14.4-108.1-86.42,66.53L255.98,0l-41.57,100.82L127.98,34.3l14.42,108.1-108.12-14.4,66.54,86.42L0,256l100.82,41.57-66.53,86.43,108.1-14.42-14.4,108.12,86.42-66.53,41.58,100.82,41.58-100.83,86.42,66.54-14.4-108.12,108.1,14.4-66.54-86.42Z"/>
  <path class="cls-1" d="M409.6,256c0,84.83-68.77,153.61-153.6,153.61s-153.6-68.78-153.6-153.61,68.77-153.6,153.6-153.6,153.6,68.78,153.6,153.6Z"/>
</svg>