<?xml version="1.0" encoding="UTF-8"?>
<svg id="Layer_1" data-name="Layer 1" xmlns="http://www.w3.org/2000/svg" xmlns:xlink="http://www.w3.org/1999/xlink" viewBox="0 0 512 512">
  <defs>
    <style>
      .cls-1 {
        fill: #7ab51d;
      }

      .cls-2 {
        fill: url(#radial-gradient-2);
      }

      .cls-3 {
        fill: url(#linear-gradient-8);
      }

      .cls-4 {
        fill: url(#linear-gradient-7);
      }

      .cls-5 {
        fill: url(#linear-gradient-5);
      }

      .cls-6 {
        fill: url(#linear-gradient-6);
      }

      .cls-7 {
        fill: url(#linear-gradient-9);
      }

      .cls-8 {
        fill: url(#linear-gradient-4);
      }

      .cls-9 {
        fill: url(#linear-gradient-3);
      }

      .cls-10 {
        fill: url(#linear-gradient-2);
      }

      .cls-11 {
        fill: url(#radial-gradient);
      }

      .cls-12 {
        fill: url(#linear-gradient);
      }

      .cls-13 {
        fill: #529320;
      }

      .cls-14 {
        fill: #92c932;
      }

      .cls-15 {
        fill: url(#linear-gradient-10);
      }

      .cls-16 {
        fill: url(#linear-gradient-11);
      }

      .cls-17 {
        fill: url(#linear-gradient-12);
      }

      .cls-18 {
        fill: url(#linear-gradient-13);
      }

      .cls-19 {
        fill: url(#linear-gradient-14);
      }

      .cls-20 {
        fill: url(#linear-gradient-15);
      }

      .cls-21 {
        fill: url(#linear-gradient-16);
      }

      .cls-22 {
        fill: url(#linear-gradient-17);
      }

      .cls-23 {
        fill: #677339;
      }

      .cls-24 {
        fill: #969900;
        isolation: isolate;
        opacity: .5;
      }
    </style>
    <linearGradient id="linear-gradient" x1="83.73" y1="336.74" x2="156.11" y2="336.74" gradientTransform="translate(285.89 548.37) rotate(-22.5) scale(1 -1)" gradientUnits="userSpaceOnUse">
      <stop offset="0" stop-color="#ffc800"/>
      <stop offset=".87" stop-color="#ffba00"/>
      <stop offset="1" stop-color="#ffb700"/>
    </linearGradient>
    <linearGradient id="linear-gradient-2" x1="58.14" y1="336.74" x2="107.27" y2="336.74" gradientTransform="translate(285.89 548.37) rotate(-22.5) scale(1 -1)" gradientUnits="userSpaceOnUse">
      <stop offset="0" stop-color="#ffc800"/>
      <stop offset=".87" stop-color="#ffba00"/>
      <stop offset="1" stop-color="#ffb700"/>
    </linearGradient>
    <linearGradient id="linear-gradient-3" x1="646.16" y1="486.99" x2="718.55" y2="486.99" gradientTransform="translate(-450.18 -235.97) rotate(67.5) scale(1 -1)" gradientUnits="userSpaceOnUse">
      <stop offset="0" stop-color="#ffc800"/>
      <stop offset=".87" stop-color="#ffba00"/>
      <stop offset="1" stop-color="#ffb700"/>
    </linearGradient>
    <linearGradient id="linear-gradient-4" x1="620.57" y1="486.98" x2="669.7" y2="486.98" gradientTransform="translate(-450.18 -235.97) rotate(67.5) scale(1 -1)" gradientUnits="userSpaceOnUse">
      <stop offset="0" stop-color="#ffc800"/>
      <stop offset=".87" stop-color="#ffba00"/>
      <stop offset="1" stop-color="#ffb700"/>
    </linearGradient>
    <linearGradient id="linear-gradient-5" x1="401.23" y1="297.1" x2="473.62" y2="297.1" gradientTransform="translate(-250.12 308.29) rotate(22.5) scale(1 -1)" gradientUnits="userSpaceOnUse">
      <stop offset="0" stop-color="#ffc800"/>
      <stop offset=".87" stop-color="#ffba00"/>
      <stop offset="1" stop-color="#ffb700"/>
    </linearGradient>
    <linearGradient id="linear-gradient-6" x1="375.64" y1="297.1" x2="424.78" y2="297.1" gradientTransform="translate(-250.12 308.29) rotate(22.5) scale(1 -1)" gradientUnits="userSpaceOnUse">
      <stop offset="0" stop-color="#ffc800"/>
      <stop offset=".87" stop-color="#ffba00"/>
      <stop offset="1" stop-color="#ffb700"/>
    </linearGradient>
    <linearGradient id="linear-gradient-7" x1="685.92" y1="804.52" x2="758.3" y2="804.52" gradientTransform="translate(-215.89 -767.05) rotate(112.5) scale(1 -1)" gradientUnits="userSpaceOnUse">
      <stop offset="0" stop-color="#ffc800"/>
      <stop offset=".87" stop-color="#ffba00"/>
      <stop offset="1" stop-color="#ffb700"/>
    </linearGradient>
    <linearGradient id="linear-gradient-8" x1="660.32" y1="804.51" x2="709.45" y2="804.51" gradientTransform="translate(-215.89 -767.05) rotate(112.5) scale(1 -1)" gradientUnits="userSpaceOnUse">
      <stop offset="0" stop-color="#ffc800"/>
      <stop offset=".87" stop-color="#ffba00"/>
      <stop offset="1" stop-color="#ffb700"/>
    </linearGradient>
    <linearGradient id="linear-gradient-9" x1="242.13" y1="96.75" x2="269.85" y2="96.75" gradientTransform="translate(0 514) scale(1 -1)" gradientUnits="userSpaceOnUse">
      <stop offset="0" stop-color="#677339"/>
      <stop offset=".24" stop-color="#626e37"/>
      <stop offset=".51" stop-color="#546030"/>
      <stop offset=".81" stop-color="#3e4a24"/>
      <stop offset="1" stop-color="#2a361a"/>
    </linearGradient>
    <linearGradient id="linear-gradient-10" x1="232.61" y1="317.73" x2="305" y2="317.73" gradientTransform="translate(0 514) scale(1 -1)" gradientUnits="userSpaceOnUse">
      <stop offset="0" stop-color="#ffe354"/>
      <stop offset=".23" stop-color="#ffde46"/>
      <stop offset=".67" stop-color="#ffd220"/>
      <stop offset="1" stop-color="#ffc800"/>
    </linearGradient>
    <linearGradient id="linear-gradient-11" x1="207.01" y1="317.73" x2="256.14" y2="317.73" gradientTransform="translate(0 514) scale(1 -1)" gradientUnits="userSpaceOnUse">
      <stop offset="0" stop-color="#ffe354"/>
      <stop offset=".23" stop-color="#ffde46"/>
      <stop offset=".67" stop-color="#ffd220"/>
      <stop offset="1" stop-color="#ffc800"/>
    </linearGradient>
    <linearGradient id="linear-gradient-12" x1="665.33" y1="635.44" x2="737.72" y2="635.44" gradientTransform="translate(-379.44 -492.45) rotate(90) scale(1 -1)" gradientUnits="userSpaceOnUse">
      <stop offset="0" stop-color="#ffe354"/>
      <stop offset=".23" stop-color="#ffde46"/>
      <stop offset=".67" stop-color="#ffd220"/>
      <stop offset="1" stop-color="#ffc800"/>
    </linearGradient>
    <linearGradient id="linear-gradient-13" x1="639.73" y1="635.44" x2="688.86" y2="635.44" gradientTransform="translate(-379.44 -492.45) rotate(90) scale(1 -1)" gradientUnits="userSpaceOnUse">
      <stop offset="0" stop-color="#ffe354"/>
      <stop offset=".23" stop-color="#ffde46"/>
      <stop offset=".67" stop-color="#ffd220"/>
      <stop offset="1" stop-color="#ffc800"/>
    </linearGradient>
    <linearGradient id="linear-gradient-14" x1="519.9" y1="388.47" x2="592.27" y2="388.47" gradientTransform="translate(-402.95 86.79) rotate(45) scale(1 -1)" gradientUnits="userSpaceOnUse">
      <stop offset="0" stop-color="#ffe354"/>
      <stop offset=".23" stop-color="#ffde46"/>
      <stop offset=".67" stop-color="#ffd220"/>
      <stop offset="1" stop-color="#ffc800"/>
    </linearGradient>
    <linearGradient id="linear-gradient-15" x1="494.3" y1="388.47" x2="543.43" y2="388.47" gradientTransform="translate(-402.95 86.79) rotate(45) scale(1 -1)" gradientUnits="userSpaceOnUse">
      <stop offset="0" stop-color="#ffe354"/>
      <stop offset=".23" stop-color="#ffde46"/>
      <stop offset=".67" stop-color="#ffd220"/>
      <stop offset="1" stop-color="#ffc800"/>
    </linearGradient>
    <linearGradient id="linear-gradient-16" x1="594.46" y1="922.56" x2="666.83" y2="922.56" gradientTransform="translate(40.54 -893.06) rotate(135) scale(1 -1)" gradientUnits="userSpaceOnUse">
      <stop offset="0" stop-color="#ffe354"/>
      <stop offset=".23" stop-color="#ffde46"/>
      <stop offset=".67" stop-color="#ffd220"/>
      <stop offset="1" stop-color="#ffc800"/>
    </linearGradient>
    <linearGradient id="linear-gradient-17" x1="568.86" y1="922.56" x2="617.99" y2="922.56" gradientTransform="translate(40.54 -893.06) rotate(135) scale(1 -1)" gradientUnits="userSpaceOnUse">
      <stop offset="0" stop-color="#ffe354"/>
      <stop offset=".23" stop-color="#ffde46"/>
      <stop offset=".67" stop-color="#ffd220"/>
      <stop offset="1" stop-color="#ffc800"/>
    </linearGradient>
    <radialGradient id="radial-gradient" cx="352.91" cy="301.83" fx="352.91" fy="301.83" r="122.57" gradientTransform="translate(-67.29 470.34) scale(.92 -.91)" gradientUnits="userSpaceOnUse">
      <stop offset=".54" stop-color="#4a2f24"/>
      <stop offset=".67" stop-color="#4d3126"/>
      <stop offset=".77" stop-color="#56392d"/>
      <stop offset=".86" stop-color="#664639"/>
      <stop offset=".94" stop-color="#7d5949"/>
      <stop offset="1" stop-color="#916958"/>
    </radialGradient>
    <radialGradient id="radial-gradient-2" cx="248.73" cy="313.96" fx="248.73" fy="313.96" r="68.41" gradientTransform="translate(4.53 502.28) scale(1.01 -.98)" gradientUnits="userSpaceOnUse">
      <stop offset="0" stop-color="#7d503d"/>
      <stop offset=".69" stop-color="#694435"/>
      <stop offset="1" stop-color="#5e3e31"/>
    </radialGradient>
  </defs>
  <path class="cls-12" d="M234.18,204.72l97.06,172.81s32.61-48.78-30.18-200.5C238.11,24.95,181.03,14.88,181.03,14.88l53.15,189.84Z"/>
  <path class="cls-10" d="M210.53,214.52c63.47,152.97,120.71,163.02,120.71,163.02L181.03,14.88s-34.1,46.33,29.51,199.64Z"/>
  <path class="cls-9" d="M247.53,174.45l-172.82,97.06s48.8,32.61,200.52-30.18c152.07-62.93,162.14-120.03,162.14-120.03l-189.84,53.15Z"/>
  <path class="cls-8" d="M237.73,150.8c-152.95,63.47-163.02,120.71-163.02,120.71L437.37,121.29s-46.32-34.1-199.64,29.51Z"/>
  <path class="cls-5" d="M234.49,186.86l-53.57,190.82s57.56-11.43,120.45-163.11c63.03-152.05,29.77-199.53,29.77-199.53l-96.65,171.83Z"/>
  <path class="cls-6" d="M210.84,177.06c-63.29,153.04-29.93,200.63-29.93,200.63L331.14,15.04s-56.87,8.64-120.3,162.02Z"/>
  <path class="cls-4" d="M265.4,174.76l-190.83-53.57s11.45,57.57,163.12,120.45c152.05,63.03,199.53,29.77,199.53,29.77l-171.83-96.65Z"/>
  <path class="cls-3" d="M275.19,151.12c-153.04-63.28-200.63-29.93-200.63-29.93l362.66,150.22s-8.63-56.87-162.03-120.29Z"/>
  <path class="cls-23" d="M264.28,441.01c79.97-36.22,213.07-24.98,247.71-20.53-36.6-3.15-185.3-11.03-248.1,33.02-2.34,1.63-8.77-8.34.38-12.48Z"/>
  <path class="cls-1" d="M307.85,429.43c82.4,105.2,204.15-8.96,204.15-8.96,0,0-119.33-11.49-204.15,8.96Z"/>
  <path class="cls-14" d="M512,420.47s-139.05-12.66-204.15,8.96c43.77-105.19,204.15-8.96,204.15-8.96Z"/>
  <path class="cls-13" d="M307.85,429.43c80.3-17.58,204.15-8.96,204.15-8.96,0,0-133.91-28.52-204.15,8.96Z"/>
  <path class="cls-7" d="M242.13,322.51v184.3c0,6.92,27.72,6.92,27.72,0v-184.3h-27.72Z"/>
  <path class="cls-23" d="M244.91,477.97c-79.04-37.38-210.64-25.78-244.91-21.2,36.2-3.25,183.22-11.37,245.3,34.07,2.3,1.69,8.67-8.59-.38-12.88Z"/>
  <path class="cls-1" d="M201.85,466.02C120.38,574.61,0,456.77,0,456.77c0,0,118-11.85,201.85,9.25Z"/>
  <path class="cls-14" d="M0,456.77s137.48-13.07,201.85,9.25C158.57,357.45,0,456.77,0,456.77Z"/>
  <path class="cls-13" d="M201.85,466.02C122.47,447.88,0,456.77,0,456.77c0,0,132.42-29.43,201.85,9.25Z"/>
  <path class="cls-15" d="M232.61,195.74l23.53,196.79s48.8-32.59,48.85-196.79c.04-164.59-48.85-195.74-48.85-195.74l-23.53,195.74Z"/>
  <path class="cls-16" d="M207.01,195.74c.1,165.61,49.13,196.79,49.13,196.79V0s-49.24,29.75-49.13,195.74Z"/>
  <path class="cls-17" d="M256.54,172.88l-196.8,23.53s32.6,48.8,196.8,48.85c164.58.04,195.73-48.85,195.73-48.85l-195.73-23.53Z"/>
  <path class="cls-18" d="M256.54,147.28c-165.61.1-196.8,49.13-196.8,49.13h392.53s-29.75-49.24-195.73-49.13Z"/>
  <path class="cls-19" d="M239.73,179.35l-122.52,155.78s57.55,11.47,173.69-104.61c116.43-116.34,103.88-172.94,103.88-172.94l-155.05,121.77Z"/>
  <path class="cls-20" d="M221.64,161.25c-117.03,117.17-104.42,173.89-104.42,173.89L394.78,57.58s-55.85-13.77-173.15,103.66Z"/>
  <path class="cls-21" d="M272.91,180L117.12,57.48s-11.45,57.56,104.62,173.7c116.35,116.42,172.95,103.87,172.95,103.87l-121.78-155.04Z"/>
  <path class="cls-22" d="M291.02,161.9C173.85,44.88,117.12,57.48,117.12,57.48l277.56,277.56s13.78-55.84-103.66-173.14Z"/>
  <path class="cls-11" d="M367.8,199.14c0-2.82-1.07-4.94-2.65-6.42,1.58-1.48,2.65-3.6,2.65-6.42,0-4.44-2.55-7.22-5.72-8.29.8-1.29,1.41-2.79,1.41-4.72,0-4.36-2.45-7.07-5.51-8.2.56-1.15.9-2.47.9-4.04,0-5.44-3.81-8.24-7.89-8.65,1.1-1.4,1.89-3.12,1.89-5.44,0-5.32-3.69-8.12-7.68-8.61.19-.74.45-1.41.45-2.29,0-5.97-4.57-8.87-9.11-8.79.07-.36.21-.61.21-1.02,0-6.78-5.91-9.52-10.91-8.45,0-.15.05-.22.05-.36,0-6.47-5.36-9.25-10.19-8.6,0-.08.04-.15.04-.21,0-8.02-8.18-10.44-13.45-7.54-1.4-7.13-10.04-8.8-14.65-4.75-1.67-4.31-6.34-5.94-10.43-4.99-1.97-6.44-10.27-7.7-14.63-3.64-3.75-4.7-12.02-4.32-14.86,1.29-4.35-4.1-12.68-2.85-14.63,3.62-4.44-4.03-12.75-2.67-14.6,3.88-4.96-4.58-15.13-2.42-15.13,6.47,0,.06.04.09.04.14-3.38.29-6.46,2.28-7.56,5.91-5.09-1.25-11.26,1.49-11.26,8.43,0,.54.21.9.26,1.4-4.95-.89-10.65,1.86-10.65,8.54,0,.39.17.69.2,1.06-4.23.28-8.28,3.12-8.28,8.71,0,.15.06.22.06.37-3.65.79-6.79,3.54-6.79,8.46,0,1.61.35,2.95.91,4.11-4.22.26-8.31,3.1-8.31,8.71,0,1.67.44,3.06,1.07,4.26-3.64.81-6.77,3.54-6.77,8.46,0,2.86,1.07,4.99,2.67,6.46-2.31,1.41-4.07,3.76-4.07,7.34,0,3.02,1.18,5.23,2.9,6.7-2.07,1.43-3.58,3.73-3.58,7.08,0,3.82,1.95,6.26,4.5,7.6-1.9,1.48-3.24,3.72-3.24,6.89,0,3.46,1.6,5.78,3.79,7.23-.71,1.24-1.19,2.65-1.19,4.43,0,3.37,1.52,5.66,3.62,7.1-.66,1.23-1.12,2.62-1.12,4.34,0,5.06,3.31,7.81,7.06,8.52-.38.99-.66,2.08-.66,3.36,0,6,4.63,8.9,9.19,8.77-.08.49-.29.89-.29,1.43,0,4.5,2.63,7.26,5.84,8.3-.06.48-.26.84-.26,1.36,0,6.31,5.11,9.12,9.87,8.66.73,5.38,5.37,7.79,9.78,7.28,0,.08-.02.13-.02.2,0,7.48,7.15,10.16,12.4,8.15,1.3,5.59,7.16,7.68,11.78,6.02,2.17,5.97,10.09,7.13,14.4,3.35,2.68,4.68,9.39,5.48,13.41,2.28,3.17,4.63,10.4,4.89,14.03.75,3.45,3.95,10.18,3.91,13.59-.12,4.39,2.54,10.89,1.25,12.92-4,4.38,2.31,10.58,1.08,12.63-3.94,4.41,1.37,9.74-.51,11.3-5.48,4.44.83,9.34-1.4,10.34-6.68,5.07,1.14,11.09-1.59,11.09-8.47,0-.03-.03-.05-.03-.1,3.99-.28,7.69-2.92,8.07-7.94,4.37-.11,8.64-3,8.64-8.77,0-.78-.24-1.37-.39-2.06,3.87-.61,7.36-3.38,7.36-8.56,0-1.94-.61-3.44-1.41-4.74,3.35-.99,6.14-3.73,6.14-8.35,0-1.14-.29-2.07-.59-3,3.25-1.04,5.88-3.8,5.88-8.32,0-2.94-1.12-5.15-2.79-6.61,3.17-1.07,5.72-3.84,5.72-8.29,0-1.46-.27-2.73-.76-3.81,1.76-1.45,2.99-3.67,2.99-6.71Z"/>
  <path class="cls-2" d="M315.95,202.25c2.75-1.49,4.87-4.16,4.87-8.3s-2.12-6.84-4.89-8.33c2.76-1.5,4.89-4.16,4.89-8.31,0-6.6-5.16-9.8-10.25-9.71.07-.46.28-.83.28-1.34,0-5.27-3.32-8.27-7.22-9.27.84-1.38,1.44-3,1.44-5.04,0-9.88-11.55-12.17-17.07-7-1.22-6.78-8.29-9.19-13.69-7.07.19-.75.48-1.45.48-2.35,0-11.8-16.36-12.75-19.34-3.07-4.19-6.36-15.32-5.56-17.69,2.39-4.97-6.49-17.91-4.63-17.91,5.87,0,.67.24,1.13.34,1.72-5.38-.61-11.27,2.47-11.27,9.51,0,.21.09.38.14.56-5.84-1.83-13.39,1.21-13.39,9.18,0,2.38.84,4.17,1.95,5.71-3.73,1.09-6.78,4.11-6.78,9.19,0,2.55.9,4.45,2.17,6.02-3.31,1.31-5.91,4.21-5.91,8.86s2.59,7.55,5.86,8.88c-1.83,1.61-3.05,4.01-3.05,7.2,0,5.99,4.27,9.07,8.86,9.54-1.85,1.63-3.09,4.04-3.09,7.26,0,8.07,7.76,11.1,13.6,9.12.94,5.9,6.26,8.49,11.24,7.77-.32,1.03-.65,2.05-.65,3.32,0,9.05,9.59,11.63,15.47,8.08,2.99,6.6,12.76,7.07,16.99,1.65,2.03,10.68,19.1,10.2,19.5-1.6,5.03,6.43,17.89,4.56,17.89-5.9,0-.49-.2-.84-.26-1.3,5.79,4.19,16.17,1.73,16.17-7.68,0-1.53-.32-2.83-.8-4,4.39-.65,8.38-3.69,8.38-9.45,0-1.23-.32-2.24-.64-3.22,5.19.3,10.62-2.87,10.62-9.62-.02-5.28-3.34-8.29-7.25-9.29Z"/>
  <path class="cls-24" d="M229.67,142.75c2.13,9.78,14.92,10.11,17.55.47-5.27,2.13-12.42,1.93-17.55-.47Z"/>
  <path class="cls-24" d="M264.78,144.23c2.15,9.78,14.92,10.1,17.57.47-5.24,2.14-12.42,1.93-17.57-.47Z"/>
  <path class="cls-24" d="M261.26,183.61c2.15,9.76,14.91,10.12,17.54.48-5.21,2.11-12.39,1.9-17.54-.48Z"/>
  <path class="cls-24" d="M291.63,190.86c2.12,9.76,14.91,10.12,17.54.47-5.24,2.12-12.4,1.92-17.54-.47Z"/>
  <path class="cls-24" d="M282.35,165.47c2.14,9.76,14.91,10.12,17.56.47-5.25,2.12-12.41,1.91-17.56-.47Z"/>
  <path class="cls-24" d="M229.67,183.61c2.13,9.76,14.92,10.12,17.55.48-5.27,2.1-12.42,1.94-17.55-.48Z"/>
  <path class="cls-24" d="M212.89,160.49c2.15,9.76,14.92,10.11,17.57.48-5.26,2.1-12.42,1.95-17.57-.48Z"/>
  <path class="cls-24" d="M245.24,159.76c2.15,9.78,14.92,10.13,17.58.49-5.27,2.08-12.42,1.93-17.58-.49Z"/>
  <path class="cls-24" d="M277.03,212.79c2.13,9.79,14.92,10.13,17.55.49-5.27,2.12-12.42,1.93-17.55-.49Z"/>
  <path class="cls-24" d="M201.98,189.36c2.14,9.78,14.91,10.12,17.55.47-5.27,2.14-12.42,1.94-17.55-.47Z"/>
  <path class="cls-24" d="M247.22,206.34c2.15,9.8,14.92,10.13,17.57.49-5.27,2.11-12.42,1.92-17.57-.49Z"/>
  <path class="cls-24" d="M230.46,231c2.14,9.78,14.92,10.14,17.56.48-5.26,2.12-12.43,1.92-17.56-.48Z"/>
  <path class="cls-24" d="M258.76,233.42c2.12,9.79,14.9,10.13,17.54.48-5.23,2.12-12.39,1.95-17.54-.48Z"/>
  <path class="cls-24" d="M214.55,210.11c2.14,9.79,14.92,10.13,17.56.48-5.27,2.12-12.42,1.94-17.56-.48Z"/>
</svg>