<?xml version="1.0" encoding="UTF-8"?>
<svg id="Layer_1" data-name="Layer 1" xmlns="http://www.w3.org/2000/svg" xmlns:xlink="http://www.w3.org/1999/xlink" viewBox="0 0 512.02 512">
  <defs>
    <style>
      .cls-1 {
        fill: #ffe8bb;
      }

      .cls-2 {
        fill: url(#linear-gradient-2);
      }

      .cls-3 {
        fill: #1a1626;
      }

      .cls-4 {
        fill: url(#radial-gradient);
      }

      .cls-5 {
        fill: url(#linear-gradient);
      }

      .cls-6 {
        fill: #f90;
      }

      .cls-7 {
        fill: #ed7196;
      }

      .cls-8 {
        fill: #fff;
      }
    </style>
    <linearGradient id="linear-gradient" x1="389.72" y1="406.16" x2="494.38" y2="406.16" gradientTransform="translate(0 514) scale(1 -1)" gradientUnits="userSpaceOnUse">
      <stop offset="0" stop-color="#b38f63"/>
      <stop offset=".05" stop-color="#b7956a"/>
      <stop offset=".5" stop-color="#dec7a7"/>
      <stop offset=".83" stop-color="#f6e7cd"/>
      <stop offset="1" stop-color="#fff3db"/>
    </linearGradient>
    <linearGradient id="linear-gradient-2" x1="17.63" y1="406.16" x2="122.29" y2="406.16" gradientTransform="translate(0 514) scale(1 -1)" gradientUnits="userSpaceOnUse">
      <stop offset="0" stop-color="#fff3db"/>
      <stop offset=".17" stop-color="#f6e7cd"/>
      <stop offset=".5" stop-color="#dec7a7"/>
      <stop offset=".95" stop-color="#b7956a"/>
      <stop offset="1" stop-color="#b38f63"/>
    </linearGradient>
    <radialGradient id="radial-gradient" cx="281.27" cy="233.8" fx="281.27" fy="233.8" r="241.58" gradientTransform="translate(-15.89 469.41) scale(.97 -.97)" gradientUnits="userSpaceOnUse">
      <stop offset="0" stop-color="#ffc800"/>
      <stop offset=".33" stop-color="#ffc500"/>
      <stop offset=".59" stop-color="#fb0"/>
      <stop offset=".83" stop-color="#fa0"/>
      <stop offset="1" stop-color="#f90"/>
    </radialGradient>
  </defs>
  <path class="cls-6" d="M486.87,8.7c-25.49-22.9-115.92,2.01-146.74,44.37-8.61,11.84,114.85,147.95,128.27,138.91,62.17-41.92,47.94-156.83,18.47-183.27Z"/>
  <path class="cls-5" d="M389.72,72.48c0,41.84,40.95,106.66,67.57,105.87,53.11-22.9,63.81-219.62-67.57-105.87Z"/>
  <path class="cls-6" d="M25.13,8.7c25.51-22.9,115.94,2.01,146.75,44.37,8.61,11.84-114.85,147.95-128.27,138.91C-18.55,150.05-4.31,35.15,25.13,8.7Z"/>
  <path class="cls-2" d="M122.29,72.48c0,41.84-40.95,106.66-67.59,105.87C1.62,155.45-9.08-41.27,122.29,72.48Z"/>
  <path class="cls-4" d="M467.1,143.7C400.91-15.34,111.1-15.34,44.92,143.7c-126.67,304.32,112.59,318.68,211.09,318.68s337.78-14.35,211.09-318.68Z"/>
  <path class="cls-1" d="M493.3,220.94s5.1,110.69-22.78,159.14l-6.95-14.74s-77.83,72.72-207.56,36.11c-129.72,36.61-207.56-36.11-207.56-36.11l-6.95,14.74c-27.89-48.46-22.78-159.14-22.78-159.14,0,0-39.07,87.76-3.68,182.97l7.87-3.28s15.73,34.84,84.74,65.77l3.13-9.34s61.13,22.14,145.24,22.19c84.1-.05,145.24-22.19,145.24-22.19l3.13,9.34c69-30.92,84.74-65.77,84.74-65.77l7.87,3.28c35.39-95.22-3.68-182.97-3.68-182.97Z"/>
  <path id="Shape" class="cls-3" d="M492.32,282.84c-6.77,60.65-20.42,88.25-20.42,88.25,0,0-2.08-8.26-7.65-16.53-48.32,42.3-116.25,52.53-116.25,52.53l-.19,20.8s68.7-6.85,108.57-46.13c5.56,12.3,8.58,27.73,8.58,27.73,0,0,38.3-44.78,27.37-126.64Z"/>
  <path id="Shape-2" data-name="Shape" class="cls-3" d="M19.7,282.84c6.77,60.65,20.42,88.25,20.42,88.25,0,0,2.08-8.26,7.65-16.53,48.32,42.3,116.25,52.53,116.25,52.53l.19,20.8s-68.7-6.85-108.57-46.13c-5.57,12.3-8.58,27.73-8.58,27.73,0,0-38.3-44.78-27.37-126.64Z"/>
  <path id="Shape-3" data-name="Shape" class="cls-1" d="M326.24,352.21c-27.12-20.67-113.76-20.22-140.75.6-44.09,34-43.89,108.99,17.23,144.41l18.23-16.45s11,23.21,35.04,31.22c24-8.02,35.07-31.22,35.07-31.22l18.26,16.45c61.27-35.47,61.31-111.13,16.91-145.01Z"/>
  <path id="Shape-4" data-name="Shape" class="cls-7" d="M190.54,354.09c0-19.02,29.25-22.66,65.34-22.66s65.33,3.66,65.33,22.66c0,15.12-52,28.53-65.33,28.53-13.32,0-65.34-13.42-65.34-28.53Z"/>
  <path class="cls-3" d="M374.83,220.49c-45.41,0-63.17,38.45-59.2,68.44,2.95,22.29,115.52,22.29,118.42,0,4.22-32.46-17.77-68.44-59.22-68.44Z"/>
  <path class="cls-8" d="M374.83,231.18c-32.72,0-59.2,24.36-59.2,54.4,0,25.94,26.48,54.39,59.2,54.39s59.22-33.17,59.22-54.39c0-30.04-26.5-54.4-59.22-54.4Z"/>
  <ellipse class="cls-3" cx="369.14" cy="285.04" rx="44.21" ry="43.29"/>
  <path class="cls-8" d="M365.63,263.38c0,15.72-24.12,15.72-24.12,0s24.12-15.76,24.12,0Z"/>
  <path class="cls-3" d="M137.19,220.49c45.41,0,63.17,38.45,59.2,68.44-2.95,22.29-115.52,22.29-118.42,0-4.22-32.46,17.77-68.44,59.22-68.44Z"/>
  <path class="cls-8" d="M137.19,231.18c32.72,0,59.2,24.36,59.2,54.4,0,25.94-26.48,54.39-59.2,54.39s-59.22-33.17-59.22-54.39c0-30.04,26.5-54.4,59.22-54.4Z"/>
  <path class="cls-3" d="M142.87,241.74c-24.44,0-44.2,19.38-44.2,43.27s19.77,43.31,44.2,43.31,44.23-19.39,44.23-43.31c0-23.9-19.79-43.27-44.23-43.27Z"/>
  <path class="cls-8" d="M146.38,263.38c0,15.72,24.12,15.72,24.12,0,0-15.76-24.12-15.76-24.12,0Z"/>
  <path class="cls-3" d="M256.01,451.61c-29.05,0-56.2-13.5-76.48-38-3.75-4.54-3.13-11.26,1.41-15.02,4.54-3.75,11.26-3.13,15.02,1.41,16.15,19.52,37.48,30.28,60.06,30.28h.02c22.57-.02,43.88-10.76,60.04-30.28,3.75-4.54,10.45-5.19,15.02-1.41,4.54,3.76,5.16,10.47,1.41,15.02-20.27,24.5-47.41,37.99-76.47,38h-.02Z"/>
  <path class="cls-3" d="M134.54,170.26c-70.82,19.86-33.95,38.22,27.9,28.79,34.91-5.34,18.71-41.87-27.9-28.79Z"/>
  <path class="cls-3" d="M377.48,170.26c-46.59-13.08-62.82,23.45-27.9,28.79,61.84,9.43,98.71-8.92,27.9-28.79Z"/>
  <path class="cls-3" d="M372.63,82.82c-26.25-27.59-94.85-34.39-106.11-38.87-7.07-2.82-8.3-6.62-10.53-6.62s-3.45,3.8-10.51,6.62c-11.23,4.48-79.84,11.28-106.09,38.87-4.95,5.18-3.23,7.42,3.46,4.26,29.1-13.69,76.34-21.34,98.99-9.3,7.34,3.91,10.21,8.83,14.16,8.83s6.82-4.91,14.18-8.83c22.63-12.03,69.91-4.4,98.99,9.3,6.69,3.15,8.41.92,3.48-4.26Z"/>
  <path class="cls-3" d="M339.32,132.48c-18.77-18.39-67.75-22.93-75.79-25.92-5.05-1.86-5.93-4.41-7.54-4.41s-2.46,2.55-7.52,4.41c-8.02,2.98-57.02,7.53-75.77,25.92-3.53,3.45-2.3,4.93,2.46,2.84,20.78-9.13,54.54-14.22,70.71-6.2,5.24,2.6,7.29,5.89,10.12,5.89s4.89-3.28,10.13-5.89c16.17-8.02,49.94-2.93,70.71,6.2,4.78,2.09,6,.61,2.49-2.84Z"/>
</svg>