<?xml version="1.0" encoding="UTF-8"?>
<svg id="Layer_1" data-name="Layer 1" xmlns="http://www.w3.org/2000/svg" xmlns:xlink="http://www.w3.org/1999/xlink" viewBox="0 0 375.46 512">
  <defs>
    <style>
      .cls-1 {
        fill: url(#radial-gradient-3);
      }

      .cls-2 {
        fill: url(#radial-gradient-2);
      }

      .cls-3 {
        fill: url(#linear-gradient-8);
      }

      .cls-4 {
        fill: url(#linear-gradient-7);
      }

      .cls-5 {
        fill: url(#linear-gradient-5);
      }

      .cls-6 {
        fill: url(#linear-gradient-6);
      }

      .cls-7 {
        fill: url(#linear-gradient-9);
      }

      .cls-8 {
        fill: url(#linear-gradient-4);
      }

      .cls-9 {
        fill: url(#linear-gradient-3);
      }

      .cls-10 {
        fill: url(#linear-gradient-2);
      }

      .cls-11 {
        fill: #1a1626;
      }

      .cls-12 {
        fill: url(#radial-gradient);
      }

      .cls-13 {
        fill: url(#linear-gradient);
      }

      .cls-14 {
        fill: #704c25;
      }

      .cls-15 {
        fill: #fff;
      }

      .cls-16 {
        fill: url(#linear-gradient-10);
      }

      .cls-17 {
        fill: url(#linear-gradient-11);
      }

      .cls-18 {
        fill: url(#linear-gradient-12);
      }

      .cls-19 {
        fill: url(#linear-gradient-13);
      }

      .cls-20 {
        fill: url(#linear-gradient-19);
      }

      .cls-21 {
        fill: url(#linear-gradient-14);
      }

      .cls-22 {
        fill: url(#linear-gradient-21);
      }

      .cls-23 {
        fill: url(#linear-gradient-20);
      }

      .cls-24 {
        fill: url(#linear-gradient-22);
      }

      .cls-25 {
        fill: url(#linear-gradient-23);
      }

      .cls-26 {
        fill: url(#linear-gradient-25);
      }

      .cls-27 {
        fill: url(#linear-gradient-15);
      }

      .cls-28 {
        fill: url(#linear-gradient-16);
      }

      .cls-29 {
        fill: url(#linear-gradient-17);
      }

      .cls-30 {
        fill: url(#linear-gradient-18);
      }

      .cls-31 {
        fill: url(#linear-gradient-27);
      }

      .cls-32 {
        fill: url(#linear-gradient-24);
      }

      .cls-33 {
        fill: url(#linear-gradient-26);
      }

      .cls-34 {
        fill: #4a2f24;
      }
    </style>
    <radialGradient id="radial-gradient" cx="124.58" cy="71.27" fx="124.58" fy="71.27" r="74.56" gradientTransform="translate(-15.06 514) scale(.97 -1)" gradientUnits="userSpaceOnUse">
      <stop offset="0" stop-color="#916958"/>
      <stop offset=".22" stop-color="#8c6554"/>
      <stop offset=".47" stop-color="#7e594a"/>
      <stop offset=".75" stop-color="#664639"/>
      <stop offset="1" stop-color="#4a2f24"/>
    </radialGradient>
    <radialGradient id="radial-gradient-2" cx="292.17" cy="71.27" fx="292.17" fy="71.27" r="74.56" gradientTransform="translate(-14.95 514) scale(.97 -1)" gradientUnits="userSpaceOnUse">
      <stop offset="0" stop-color="#916958"/>
      <stop offset=".22" stop-color="#8c6554"/>
      <stop offset=".47" stop-color="#7e594a"/>
      <stop offset=".75" stop-color="#664639"/>
      <stop offset="1" stop-color="#4a2f24"/>
    </radialGradient>
    <linearGradient id="linear-gradient" x1="275.45" y1="39.32" x2="275.45" y2="135.22" gradientTransform="translate(0 514) scale(1 -1)" gradientUnits="userSpaceOnUse">
      <stop offset="0" stop-color="#916b3e"/>
      <stop offset=".05" stop-color="#987245"/>
      <stop offset=".35" stop-color="#c49f72"/>
      <stop offset=".62" stop-color="#e4bf92"/>
      <stop offset=".85" stop-color="#f8d3a6"/>
      <stop offset="1" stop-color="#ffdaad"/>
    </linearGradient>
    <linearGradient id="linear-gradient-2" x1="100.03" y1="39.32" x2="100.03" y2="135.22" gradientTransform="translate(0 514) scale(1 -1)" gradientUnits="userSpaceOnUse">
      <stop offset="0" stop-color="#916b3e"/>
      <stop offset=".05" stop-color="#987245"/>
      <stop offset=".35" stop-color="#c49f72"/>
      <stop offset=".62" stop-color="#e4bf92"/>
      <stop offset=".85" stop-color="#f8d3a6"/>
      <stop offset="1" stop-color="#ffdaad"/>
    </linearGradient>
    <linearGradient id="linear-gradient-3" x1="216.95" y1="34.37" x2="216.95" y2="130.27" gradientTransform="translate(0 514) scale(1 -1)" gradientUnits="userSpaceOnUse">
      <stop offset="0" stop-color="#916b3e"/>
      <stop offset=".05" stop-color="#987245"/>
      <stop offset=".35" stop-color="#c49f72"/>
      <stop offset=".62" stop-color="#e4bf92"/>
      <stop offset=".85" stop-color="#f8d3a6"/>
      <stop offset="1" stop-color="#ffdaad"/>
    </linearGradient>
    <linearGradient id="linear-gradient-4" x1="158.5" y1="34.37" x2="158.5" y2="130.27" gradientTransform="translate(0 514) scale(1 -1)" gradientUnits="userSpaceOnUse">
      <stop offset="0" stop-color="#916b3e"/>
      <stop offset=".05" stop-color="#987245"/>
      <stop offset=".35" stop-color="#c49f72"/>
      <stop offset=".62" stop-color="#e4bf92"/>
      <stop offset=".85" stop-color="#f8d3a6"/>
      <stop offset="1" stop-color="#ffdaad"/>
    </linearGradient>
    <linearGradient id="linear-gradient-5" x1="70.93" y1="70.55" x2="70.93" y2="178.41" gradientTransform="translate(0 514) scale(1 -1)" gradientUnits="userSpaceOnUse">
      <stop offset="0" stop-color="#916b3e"/>
      <stop offset=".05" stop-color="#987245"/>
      <stop offset=".35" stop-color="#c49f72"/>
      <stop offset=".62" stop-color="#e4bf92"/>
      <stop offset=".85" stop-color="#f8d3a6"/>
      <stop offset="1" stop-color="#ffdaad"/>
    </linearGradient>
    <linearGradient id="linear-gradient-6" x1="304.53" y1="70.55" x2="304.53" y2="178.41" gradientTransform="translate(0 514) scale(1 -1)" gradientUnits="userSpaceOnUse">
      <stop offset="0" stop-color="#916b3e"/>
      <stop offset=".05" stop-color="#987245"/>
      <stop offset=".35" stop-color="#c49f72"/>
      <stop offset=".62" stop-color="#e4bf92"/>
      <stop offset=".85" stop-color="#f8d3a6"/>
      <stop offset="1" stop-color="#ffdaad"/>
    </linearGradient>
    <linearGradient id="linear-gradient-7" x1="129.33" y1="60.68" x2="129.33" y2="168.54" gradientTransform="translate(0 514) scale(1 -1)" gradientUnits="userSpaceOnUse">
      <stop offset="0" stop-color="#916b3e"/>
      <stop offset=".05" stop-color="#987245"/>
      <stop offset=".35" stop-color="#c49f72"/>
      <stop offset=".62" stop-color="#e4bf92"/>
      <stop offset=".85" stop-color="#f8d3a6"/>
      <stop offset="1" stop-color="#ffdaad"/>
    </linearGradient>
    <linearGradient id="linear-gradient-8" x1="246.14" y1="60.68" x2="246.14" y2="168.54" gradientTransform="translate(0 514) scale(1 -1)" gradientUnits="userSpaceOnUse">
      <stop offset="0" stop-color="#916b3e"/>
      <stop offset=".05" stop-color="#987245"/>
      <stop offset=".35" stop-color="#c49f72"/>
      <stop offset=".62" stop-color="#e4bf92"/>
      <stop offset=".85" stop-color="#f8d3a6"/>
      <stop offset="1" stop-color="#ffdaad"/>
    </linearGradient>
    <linearGradient id="linear-gradient-9" x1="187.73" y1="60.68" x2="187.73" y2="168.54" gradientTransform="translate(0 514) scale(1 -1)" gradientUnits="userSpaceOnUse">
      <stop offset="0" stop-color="#916b3e"/>
      <stop offset=".05" stop-color="#987245"/>
      <stop offset=".35" stop-color="#c49f72"/>
      <stop offset=".62" stop-color="#e4bf92"/>
      <stop offset=".85" stop-color="#f8d3a6"/>
      <stop offset="1" stop-color="#ffdaad"/>
    </linearGradient>
    <linearGradient id="linear-gradient-10" x1="64.19" y1="135.46" x2="64.19" y2="247.93" gradientTransform="translate(0 514) scale(1 -1)" gradientUnits="userSpaceOnUse">
      <stop offset="0" stop-color="#916b3e"/>
      <stop offset=".05" stop-color="#987245"/>
      <stop offset=".35" stop-color="#c49f72"/>
      <stop offset=".62" stop-color="#e4bf92"/>
      <stop offset=".85" stop-color="#f8d3a6"/>
      <stop offset="1" stop-color="#ffdaad"/>
    </linearGradient>
    <linearGradient id="linear-gradient-11" x1="311.26" y1="135.46" x2="311.26" y2="247.93" gradientTransform="translate(0 514) scale(1 -1)" gradientUnits="userSpaceOnUse">
      <stop offset="0" stop-color="#916b3e"/>
      <stop offset=".05" stop-color="#987245"/>
      <stop offset=".35" stop-color="#c49f72"/>
      <stop offset=".62" stop-color="#e4bf92"/>
      <stop offset=".85" stop-color="#f8d3a6"/>
      <stop offset="1" stop-color="#ffdaad"/>
    </linearGradient>
    <linearGradient id="linear-gradient-12" x1="273.63" y1="120.7" x2="273.63" y2="233.16" gradientTransform="translate(0 514) scale(1 -1)" gradientUnits="userSpaceOnUse">
      <stop offset="0" stop-color="#916b3e"/>
      <stop offset=".05" stop-color="#987245"/>
      <stop offset=".35" stop-color="#c49f72"/>
      <stop offset=".62" stop-color="#e4bf92"/>
      <stop offset=".85" stop-color="#f8d3a6"/>
      <stop offset="1" stop-color="#ffdaad"/>
    </linearGradient>
    <linearGradient id="linear-gradient-13" x1="101.84" y1="120.7" x2="101.84" y2="233.16" gradientTransform="translate(0 514) scale(1 -1)" gradientUnits="userSpaceOnUse">
      <stop offset="0" stop-color="#916b3e"/>
      <stop offset=".05" stop-color="#987245"/>
      <stop offset=".35" stop-color="#c49f72"/>
      <stop offset=".62" stop-color="#e4bf92"/>
      <stop offset=".85" stop-color="#f8d3a6"/>
      <stop offset="1" stop-color="#ffdaad"/>
    </linearGradient>
    <linearGradient id="linear-gradient-14" x1="216.38" y1="114.86" x2="216.38" y2="227.35" gradientTransform="translate(0 514) scale(1 -1)" gradientUnits="userSpaceOnUse">
      <stop offset="0" stop-color="#916b3e"/>
      <stop offset=".05" stop-color="#987245"/>
      <stop offset=".35" stop-color="#c49f72"/>
      <stop offset=".62" stop-color="#e4bf92"/>
      <stop offset=".85" stop-color="#f8d3a6"/>
      <stop offset="1" stop-color="#ffdaad"/>
    </linearGradient>
    <linearGradient id="linear-gradient-15" x1="159.1" y1="114.86" x2="159.1" y2="227.35" gradientTransform="translate(0 514) scale(1 -1)" gradientUnits="userSpaceOnUse">
      <stop offset="0" stop-color="#916b3e"/>
      <stop offset=".05" stop-color="#987245"/>
      <stop offset=".35" stop-color="#c49f72"/>
      <stop offset=".62" stop-color="#e4bf92"/>
      <stop offset=".85" stop-color="#f8d3a6"/>
      <stop offset="1" stop-color="#ffdaad"/>
    </linearGradient>
    <linearGradient id="linear-gradient-16" x1="90.51" y1="188.5" x2="90.51" y2="300.96" gradientTransform="translate(0 514) scale(1 -1)" gradientUnits="userSpaceOnUse">
      <stop offset="0" stop-color="#916b3e"/>
      <stop offset=".05" stop-color="#987245"/>
      <stop offset=".35" stop-color="#c49f72"/>
      <stop offset=".62" stop-color="#e4bf92"/>
      <stop offset=".85" stop-color="#f8d3a6"/>
      <stop offset="1" stop-color="#ffdaad"/>
    </linearGradient>
    <linearGradient id="linear-gradient-17" x1="284.96" y1="188.5" x2="284.96" y2="300.96" gradientTransform="translate(0 514) scale(1 -1)" gradientUnits="userSpaceOnUse">
      <stop offset="0" stop-color="#916b3e"/>
      <stop offset=".05" stop-color="#987245"/>
      <stop offset=".35" stop-color="#c49f72"/>
      <stop offset=".62" stop-color="#e4bf92"/>
      <stop offset=".85" stop-color="#f8d3a6"/>
      <stop offset="1" stop-color="#ffdaad"/>
    </linearGradient>
    <linearGradient id="linear-gradient-18" x1="131.56" y1="176.93" x2="131.56" y2="289.39" gradientTransform="translate(0 514) scale(1 -1)" gradientUnits="userSpaceOnUse">
      <stop offset="0" stop-color="#916b3e"/>
      <stop offset=".05" stop-color="#987245"/>
      <stop offset=".35" stop-color="#c49f72"/>
      <stop offset=".62" stop-color="#e4bf92"/>
      <stop offset=".85" stop-color="#f8d3a6"/>
      <stop offset="1" stop-color="#ffdaad"/>
    </linearGradient>
    <linearGradient id="linear-gradient-19" x1="243.92" y1="176.93" x2="243.92" y2="289.39" gradientTransform="translate(0 514) scale(1 -1)" gradientUnits="userSpaceOnUse">
      <stop offset="0" stop-color="#916b3e"/>
      <stop offset=".05" stop-color="#987245"/>
      <stop offset=".35" stop-color="#c49f72"/>
      <stop offset=".62" stop-color="#e4bf92"/>
      <stop offset=".85" stop-color="#f8d3a6"/>
      <stop offset="1" stop-color="#ffdaad"/>
    </linearGradient>
    <linearGradient id="linear-gradient-20" x1="187.74" y1="165.37" x2="187.74" y2="277.84" gradientTransform="translate(0 514) scale(1 -1)" gradientUnits="userSpaceOnUse">
      <stop offset="0" stop-color="#916b3e"/>
      <stop offset=".05" stop-color="#987245"/>
      <stop offset=".35" stop-color="#c49f72"/>
      <stop offset=".62" stop-color="#e4bf92"/>
      <stop offset=".85" stop-color="#f8d3a6"/>
      <stop offset="1" stop-color="#ffdaad"/>
    </linearGradient>
    <linearGradient id="linear-gradient-21" x1="430.41" y1="82.35" x2="430.41" y2="404.66" gradientTransform="translate(-89.84 528.44) rotate(3.04) scale(.92 -.98)" gradientUnits="userSpaceOnUse">
      <stop offset="0" stop-color="#5c3f1e"/>
      <stop offset=".33" stop-color="#795731"/>
      <stop offset="1" stop-color="#bd915f"/>
    </linearGradient>
    <linearGradient id="linear-gradient-22" x1="-1401.3" y1="-14.01" x2="-1401.3" y2="308.31" gradientTransform="translate(-1220.1346 523.2264) rotate(176.9613) scale(.9187 .9813)" gradientUnits="userSpaceOnUse">
      <stop offset="0" stop-color="#5c3f1e"/>
      <stop offset=".33" stop-color="#795731"/>
      <stop offset="1" stop-color="#bd915f"/>
    </linearGradient>
    <linearGradient id="linear-gradient-23" x1="187.73" y1="255.6" x2="187.73" y2="514" gradientTransform="translate(0 514) scale(1 -1)" gradientUnits="userSpaceOnUse">
      <stop offset="0" stop-color="#bd915f"/>
      <stop offset=".67" stop-color="#795731"/>
      <stop offset="1" stop-color="#5c3f1e"/>
    </linearGradient>
    <linearGradient id="linear-gradient-24" x1="173.99" y1="247.61" x2="173.99" y2="465.39" gradientTransform="translate(11.08 514) scale(1.02 -1)" gradientUnits="userSpaceOnUse">
      <stop offset="0" stop-color="#916b3e"/>
      <stop offset=".07" stop-color="#a78154"/>
      <stop offset=".2" stop-color="#c6a174"/>
      <stop offset=".34" stop-color="#dfba8d"/>
      <stop offset=".48" stop-color="#f1cc9f"/>
      <stop offset=".63" stop-color="#fcd7aa"/>
      <stop offset=".8" stop-color="#ffdaad"/>
    </linearGradient>
    <linearGradient id="linear-gradient-25" x1="215.82" y1="365.96" x2="317.32" y2="365.96" gradientTransform="translate(0 514) scale(1 -1)" gradientUnits="userSpaceOnUse">
      <stop offset="0" stop-color="#ffc800"/>
      <stop offset=".03" stop-color="#ffc500"/>
      <stop offset=".39" stop-color="#ffad00"/>
      <stop offset=".73" stop-color="#ff9e00"/>
      <stop offset="1" stop-color="#f90"/>
    </linearGradient>
    <linearGradient id="linear-gradient-26" x1="58.15" y1="365.96" x2="159.64" y2="365.96" gradientTransform="translate(0 514) scale(1 -1)" gradientUnits="userSpaceOnUse">
      <stop offset="0" stop-color="#ffc800"/>
      <stop offset=".03" stop-color="#ffc500"/>
      <stop offset=".39" stop-color="#ffad00"/>
      <stop offset=".73" stop-color="#ff9e00"/>
      <stop offset="1" stop-color="#f90"/>
    </linearGradient>
    <radialGradient id="radial-gradient-3" cx="337.04" cy="685.22" fx="337.04" fy="685.22" r="15.3" gradientTransform="translate(-95.8904 2985.3791) scale(.8415 -4.0784)" gradientUnits="userSpaceOnUse">
      <stop offset="0" stop-color="#916958"/>
      <stop offset=".21" stop-color="#8a6353"/>
      <stop offset=".53" stop-color="#755243"/>
      <stop offset=".91" stop-color="#53372b"/>
      <stop offset="1" stop-color="#4a2f24"/>
    </radialGradient>
    <linearGradient id="linear-gradient-27" x1="187.73" y1="399.94" x2="187.73" y2="507.77" gradientTransform="translate(0 514) scale(1 -1)" gradientUnits="userSpaceOnUse">
      <stop offset=".05" stop-color="#ffdaad"/>
      <stop offset=".08" stop-color="#f5d1a4"/>
      <stop offset=".24" stop-color="#c7a47c"/>
      <stop offset=".4" stop-color="#a0805a"/>
      <stop offset=".56" stop-color="#826440"/>
      <stop offset=".71" stop-color="#6d4f2d"/>
      <stop offset=".86" stop-color="#604322"/>
      <stop offset="1" stop-color="#5c3f1e"/>
    </linearGradient>
  </defs>
  <path class="cls-34" d="M95.96,290.6c87.99,27.35-55.49,70.28-16.33,176.38-84.61-60.01-36.27-178.37,16.33-176.38Z"/>
  <path class="cls-34" d="M73.37,289.98c-50.6-1.18-98.19,110.81-17.36,166.17-36.68-99.32,101.72-141.62,17.36-166.17Z"/>
  <path class="cls-34" d="M302.11,289.98c-84.39,24.55,54.02,66.85,17.33,166.17,80.84-55.35,33.25-167.34-17.33-166.17Z"/>
  <path class="cls-34" d="M279.5,290.6c-87.99,27.35,55.48,70.28,16.34,176.38,84.63-60.01,36.28-178.37-16.34-176.38Z"/>
  <path class="cls-12" d="M141.56,466.92c-1.77-13.29-.44-26.45,2.24-38.42h-20.63c-6.62,55.42-33.25,49.63-32.11,56.23-5.29,8.18-49.5.65-49.72,11.3-18.67,11.38-14.4,12.01-.61,7.59,9.18,1.55,70.3,4.02,73.98-4.32,4.59,8.51,8.03,12.7,11.96,12.7,3.24,0,7.47-9.28,12.44-13.94,19.99,6.97,30.86-2.07,44.38,3.11-2.94-15.36-37.76-3.11-41.93-34.24Z"/>
  <path class="cls-2" d="M334.14,496.03c-.23-10.65-44.42-3.11-49.72-11.3,1.12-6.6-25.51-.82-32.14-56.23h-20.62c2.68,11.96,4.02,25.13,2.25,38.42-4.17,31.14-39.01,18.88-41.96,34.25,13.53-5.18,24.4,3.87,44.39-3.11,4.99,4.65,9.21,13.93,12.46,13.93,3.9,0,7.36-4.19,11.95-12.7,3.67,8.34,64.79,5.87,74.01,4.32,13.75,4.43,18.02,3.8-.63-7.59Z"/>
  <path class="cls-13" d="M313.73,389.7c-12.32-14.57-64.26-14.57-76.55,0-15.11,17.82,35.87,84.98,38.25,84.98s53.38-67.17,38.3-84.98Z"/>
  <path class="cls-10" d="M138.32,389.7c-12.33-14.57-64.25-14.57-76.58,0-15.09,17.82,35.88,84.98,38.3,84.98s53.38-67.17,38.28-84.98Z"/>
  <path class="cls-9" d="M255.21,394.63c-12.29-14.53-64.2-14.53-76.54,0-15.1,17.83,35.89,85,38.29,85s53.38-67.17,38.25-85Z"/>
  <path class="cls-8" d="M196.77,394.63c-12.31-14.53-64.23-14.53-76.54,0-15.12,17.83,35.87,85,38.26,85s53.38-67.17,38.27-85Z"/>
  <path class="cls-5" d="M109.17,347.87c-12.31-16.37-64.18-16.37-76.48,0-15.08,20.04,35.84,95.58,38.22,95.58s53.34-75.55,38.25-95.58Z"/>
  <path class="cls-6" d="M342.77,347.87c-12.3-16.37-64.18-16.37-76.48,0-15.06,20.04,35.86,95.58,38.25,95.58s53.3-75.55,38.24-95.58Z"/>
  <path class="cls-4" d="M167.55,357.75c-12.28-16.38-64.17-16.38-76.45,0-15.06,20.02,35.85,95.56,38.22,95.56s53.33-75.55,38.23-95.56Z"/>
  <path class="cls-3" d="M284.39,357.75c-12.34-16.38-64.18-16.38-76.48,0-15.12,20.02,35.81,95.56,38.22,95.56s53.29-75.55,38.25-95.56Z"/>
  <path class="cls-7" d="M225.96,357.75c-12.29-16.38-64.16-16.38-76.45,0-15.11,20.02,35.84,95.56,38.22,95.56s53.31-75.55,38.23-95.56Z"/>
  <path class="cls-16" d="M89.8,278.87c-12.05-17.07-37.15-17.07-49.19,0-14.78,20.88,9.39,99.67,11.73,99.67,2.35,0,52.27-78.79,37.46-99.67Z"/>
  <path class="cls-17" d="M334.85,278.87c-12.05-17.07-37.14-17.07-49.19,0-14.81,20.88,35.13,99.67,37.5,99.67,2.33,0,26.48-78.79,11.69-99.67Z"/>
  <path class="cls-18" d="M311.12,293.63c-12.07-17.05-62.88-17.05-74.98,0-14.78,20.86,35.17,99.67,37.51,99.67s52.25-78.81,37.47-99.67Z"/>
  <path class="cls-19" d="M139.33,293.63c-12.08-17.05-62.93-17.05-74.98,0-14.81,20.86,35.15,99.67,37.48,99.67s52.29-78.81,37.5-99.67Z"/>
  <path class="cls-21" d="M253.87,299.45c-12.07-17.07-62.92-17.07-74.97,0-14.8,20.9,35.12,99.69,37.47,99.69,2.33,0,52.28-78.79,37.5-99.69Z"/>
  <path class="cls-27" d="M196.58,299.45c-12.05-17.07-62.92-17.07-74.97,0-14.81,20.9,35.15,99.69,37.47,99.69,2.36,0,52.28-78.79,37.5-99.69Z"/>
  <path class="cls-28" d="M127.68,225.84c-11.85-17.07-61.74-17.07-73.57,0-14.5,20.89,26,99.66,28.3,99.66s59.77-78.77,45.27-99.66Z"/>
  <path class="cls-29" d="M321.35,225.84c-11.85-17.07-61.73-17.07-73.56,0-14.51,20.89,42.97,99.66,45.26,99.66s42.81-78.77,28.3-99.66Z"/>
  <path class="cls-30" d="M168.33,237.41c-11.83-17.07-61.72-17.07-73.53,0-14.52,20.9,34.48,99.66,36.76,99.66s51.29-78.76,36.77-99.66Z"/>
  <path class="cls-20" d="M280.69,237.41c-11.84-17.07-61.73-17.07-73.54,0-14.51,20.9,34.48,99.66,36.76,99.66s51.29-78.76,36.78-99.66Z"/>
  <path class="cls-23" d="M224.53,248.97c-11.86-17.08-61.72-17.08-73.58,0-14.5,20.88,34.48,99.66,36.79,99.66s51.29-78.78,36.8-99.66Z"/>
  <path class="cls-22" d="M292.45,152.58c-90.84,73.46,71.29,113.46,45.94,317.68,81.89-132.21,10.6-335.36-45.94-317.68Z"/>
  <path class="cls-14" d="M281.77,200.96c-6.38,33.83,49.31,58.94,66.82,182.56,6.55-86.25-53.59-165.79-66.82-182.56Z"/>
  <path class="cls-14" d="M366.31,288.61c-2.08-48.82-24.06-91.78-45.64-122.77-20.97,21.84,14.17,2.01,45.64,122.77Z"/>
  <path class="cls-14" d="M290.67,184.99c4.74,22.24,74.04,67.05,67.3,216.8,21.65-122.9-34.16-204.48-67.3-216.8Z"/>
  <path class="cls-24" d="M83.02,152.58c90.78,73.46-71.29,113.46-45.93,317.68-81.89-132.21-10.68-335.36,45.93-317.68Z"/>
  <path class="cls-14" d="M93.64,200.96c6.44,33.83-49.24,58.94-66.74,182.56-6.56-86.25,53.57-165.8,66.74-182.56Z"/>
  <path class="cls-14" d="M9.17,288.63c2-48.83,23.99-91.78,45.64-122.79,20.97,21.86-14.17,2.01-45.64,122.79Z"/>
  <path class="cls-14" d="M84.81,184.98c-4.73,22.26-74.03,67.05-67.31,216.81-21.66-122.9,34.17-204.48,67.31-216.81Z"/>
  <path class="cls-25" d="M363.19,156.89C375.97,102.72,364.62,0,187.72,0h0C10.85,0-.5,102.72,12.27,156.89c13.83,58.76,127.23,101.51,175.46,101.51s161.63-42.75,175.46-101.51Z"/>
  <path class="cls-32" d="M347.26,176.87c11.61-44.31,1.31-128.26-159.55-128.26h0C26.9,48.61,16.58,132.59,28.2,176.87c12.57,48.05,115.67,89.51,159.53,89.51s146.96-41.47,159.53-89.51Z"/>
  <path class="cls-34" d="M267.21,60.15c120.45,30.91,86.87,154.65-12.67,190.43,136.86-27.88,126.73-201.98,12.67-190.43Z"/>
  <path class="cls-34" d="M108.25,60.15c-120.45,30.91-86.87,154.65,12.68,190.43C-15.93,222.7-5.8,48.6,108.25,60.15Z"/>
  <path class="cls-34" d="M266.55,92.25c-38.9,0-54.14,32.96-50.73,58.68,2.52,19.1,99,19.1,101.5,0,3.59-27.84-15.22-58.68-50.77-58.68Z"/>
  <path class="cls-26" d="M266.57,101.44c-28.03,0-50.75,20.86-50.75,46.6,0,22.25,22.72,46.62,50.75,46.62s50.75-28.42,50.75-46.62c0-25.74-22.7-46.6-50.75-46.6Z"/>
  <ellipse class="cls-11" cx="261.69" cy="147.58" rx="37.9" ry="37.11"/>
  <path class="cls-15" d="M258.67,129.03c0,13.47-20.67,13.47-20.67,0,0-13.52,20.67-13.52,20.67,0Z"/>
  <path class="cls-34" d="M108.89,92.25c38.92,0,54.15,32.96,50.75,58.68-2.53,19.1-99.02,19.1-101.5,0-3.61-27.84,15.24-58.68,50.76-58.68Z"/>
  <path class="cls-33" d="M108.89,101.44c28.05,0,50.75,20.86,50.75,46.6,0,22.25-22.7,46.62-50.75,46.62s-50.75-28.42-50.75-46.62c0-25.74,22.72-46.6,50.75-46.6Z"/>
  <ellipse class="cls-11" cx="113.77" cy="147.58" rx="37.91" ry="37.11"/>
  <path class="cls-15" d="M116.77,129.03c0,13.47,20.68,13.47,20.68,0s-20.68-13.52-20.68,0Z"/>
  <path class="cls-1" d="M187.72,176.02c-10.3,0-6.14,13.72-19.32,44.95,6.9,5.92,11.84,21.98,15,27.84,2.88,5.34,5.75,5.34,8.64,0,3.18-5.86,8.1-21.91,15.02-27.84-13.18-31.23-9.02-44.95-19.34-44.95Z"/>
  <path class="cls-34" d="M328.24,64.42c-3.46-7.5-13.27-18.71-31.11-28.71-9.03-5.03-26.84,28.94-8.77,28.83,14.57-.06,27.09.68,35.06,2.7,5.43,1.37,6.38.56,4.82-2.82Z"/>
  <path class="cls-34" d="M344.93,51.23c-3.9-7.28-14.38-17.87-32.79-26.78-9.32-4.47-25.05,30.49-7.01,29.31,14.53-.94,27.08-.96,35.17.57,5.5,1.05,6.42.2,4.64-3.11Z"/>
  <path class="cls-34" d="M357.41,33.26c-5.58-6.08-18.33-13.77-38.38-17.88-10.13-2.05-16.73,35.73.44,30.13,13.85-4.48,26.01-7.59,34.22-8.11,5.59-.33,6.26-1.39,3.73-4.15Z"/>
  <path class="cls-34" d="M362.88,13.16c-7.93-4.75-20.73-8.08-35.35-6.53-10.27,1.1-12.35,39.42,2.5,29.16,11.98-8.28,22.75-14.75,30.46-17.59,5.27-1.92,5.61-3.11,2.39-5.04Z"/>
  <path class="cls-34" d="M47.21,64.42c3.46-7.5,13.27-18.71,31.11-28.71,9.04-5.03,26.84,28.94,8.78,28.83-14.57-.06-27.09.68-35.06,2.7-5.43,1.37-6.39.56-4.83-2.82Z"/>
  <path class="cls-34" d="M30.53,51.23c3.9-7.28,14.37-17.87,32.79-26.78,9.32-4.47,25.05,30.49,7.02,29.31-14.54-.94-27.07-.96-35.17.57-5.5,1.05-6.43.2-4.64-3.11Z"/>
  <path class="cls-34" d="M18.05,33.26c5.58-6.08,18.33-13.77,38.38-17.88,10.14-2.05,16.74,35.73-.44,30.13-13.85-4.48-26-7.59-34.21-8.11-5.59-.33-6.26-1.39-3.74-4.15Z"/>
  <path class="cls-34" d="M12.59,13.16c7.92-4.75,20.71-8.08,35.34-6.53,10.27,1.1,12.35,39.42-2.5,29.16-11.99-8.28-22.74-14.75-30.46-17.59-5.27-1.92-5.6-3.11-2.38-5.04Z"/>
  <path class="cls-31" d="M337.73,6.23c-104.47,0-150,40.57-150,40.57,0,0-45.5-40.57-150-40.57,6.8,72.32,100.11,45.87,132.63,97.07,9.11,14.35,25.66,14.35,34.76,0,32.49-51.2,125.77-24.76,132.61-97.07Z"/>
  <path class="cls-34" d="M37.73,6.23c30.11,38.43,112.7,49.45,132.63,97.07C137.85,52.1,44.18,79.82,37.73,6.23Z"/>
  <path class="cls-34" d="M337.73,6.23c-30.11,38.43-112.7,49.45-132.61,97.07,32.49-51.2,126.17-23.48,132.61-97.07Z"/>
</svg>