<?xml version="1.0" encoding="UTF-8"?>
<svg id="Layer_1" data-name="Layer 1" xmlns="http://www.w3.org/2000/svg" xmlns:xlink="http://www.w3.org/1999/xlink" viewBox="0 0 512 512">
  <defs>
    <style>
      .cls-1 {
        fill: url(#radial-gradient);
      }

      .cls-2 {
        fill: url(#linear-gradient);
      }

      .cls-3 {
        fill: #fff;
      }
    </style>
    <radialGradient id="radial-gradient" cx="162" cy="1266.01" fx="162" fy="1266.01" r="223.58" gradientTransform="translate(94 -1010)" gradientUnits="userSpaceOnUse">
      <stop offset="0" stop-color="#545061"/>
      <stop offset=".28" stop-color="#464253"/>
      <stop offset=".61" stop-color="#312d3d"/>
      <stop offset=".8" stop-color="#211d2d"/>
      <stop offset=".96" stop-color="#1a1626"/>
    </radialGradient>
    <linearGradient id="linear-gradient" x1="33.98" y1="1044.26" x2="290.02" y2="1487.74" gradientTransform="translate(94 -1010)" gradientUnits="userSpaceOnUse">
      <stop offset="0" stop-color="#ff3b3b"/>
      <stop offset=".26" stop-color="#fb3737"/>
      <stop offset=".52" stop-color="#f02b2a"/>
      <stop offset=".79" stop-color="#dd1616"/>
      <stop offset="1" stop-color="#c90100"/>
    </linearGradient>
  </defs>
  <path class="cls-1" d="M45.82,185c-94.72,280.23,325.63,422.31,420.35,142.08C560.9,46.76,140.54-95.32,45.82,185Z"/>
  <polygon class="cls-3" points="196.86 147.8 172.97 147.8 118.1 184.92 118.1 226.65 155.9 200.7 155.9 326.49 115.46 326.49 115.46 364.46 237.65 364.46 237.65 326.49 196.86 326.49 196.86 147.8"/>
  <path class="cls-3" d="M383.83,268.8c-7-7.94-16.55-12.8-27.73-15.79,9.56-2.99,17.92-7.59,24.32-15.1,7.77-9.13,11.69-20.48,11.69-34.05,0-12.2-2.9-22.61-8.79-31.32-5.89-8.7-13.91-15.45-24.06-20.22-10.15-4.86-21.67-7.25-34.39-7.25s-24.23,2.39-34.39,7.17-18.18,11.52-24.06,20.22c-5.89,8.7-8.79,19.2-8.79,31.32,0,13.23,3.93,24.41,11.69,33.62,6.31,7.42,14.68,12.2,24.32,15.53-11.01,2.9-20.57,7.59-27.56,15.36-8.62,9.56-12.89,21.93-12.89,37.12,0,12.8,3.07,23.72,9.22,32.85s14.59,16.21,25.34,21.16c10.75,4.95,23.13,7.51,37.12,7.51s26.37-2.47,37.21-7.51c10.75-4.95,19.2-12.03,25.34-21.16s9.22-20.05,9.22-32.85c-.09-14.76-4.35-26.97-12.8-36.61ZM304.21,188.16c5.38-4.52,12.2-6.83,20.65-6.83s15.27,2.3,20.65,6.83c5.38,4.61,8.02,11.52,8.02,20.82s-2.73,15.96-8.11,20.99c-5.46,5.03-12.29,8.45-20.48,10.07-8.19-1.62-15.02-4.95-20.48-10.07-5.46-5.03-8.11-12.03-8.11-20.99-.17-9.3,2.47-16.3,7.85-20.82ZM349.1,323.41c-6.23,4.86-14.34,7.34-24.32,7.34s-18.09-2.47-24.32-7.34c-6.23-4.86-9.3-12.03-9.3-21.59s3.16-16.3,9.47-21.59c6.31-5.29,14.34-8.79,24.15-10.67,9.81,1.79,17.83,5.38,24.15,10.67s9.47,12.46,9.47,21.59c.09,9.56-3.07,16.73-9.3,21.59Z"/>
  <path class="cls-2" d="M256,0C114.6,0,0,114.6,0,256s114.6,256,256,256,256-114.6,256-256S397.4,0,256,0ZM460.8,256c0,47.36-16.13,90.88-43.01,125.53L130.47,94.21c34.65-26.88,78.17-43.01,125.53-43.01,113.07,0,204.8,91.73,204.8,204.8ZM51.2,256c0-47.36,16.13-90.88,43.01-125.53l287.32,287.32c-34.65,26.88-78.25,43.01-125.53,43.01-113.15,0-204.8-91.65-204.8-204.8Z"/>
</svg>