<?xml version="1.0" encoding="UTF-8"?>
<svg id="Layer_1" data-name="Layer 1" xmlns="http://www.w3.org/2000/svg" xmlns:xlink="http://www.w3.org/1999/xlink" viewBox="0 0 512.02 512">
  <defs>
    <style>
      .cls-1 {
        fill: #1a1626;
      }

      .cls-2 {
        fill: url(#linear-gradient);
      }
    </style>
    <linearGradient id="linear-gradient" x1="256.01" y1="2" x2="256.01" y2="514" gradientTransform="translate(0 514) scale(1 -1)" gradientUnits="userSpaceOnUse">
      <stop offset="0" stop-color="#f9c802"/>
      <stop offset="1" stop-color="#ffe12c"/>
    </linearGradient>
  </defs>
  <path class="cls-2" d="M256,0c-14.48,0-28,5.6-38.24,15.84L15.84,217.76c-10.24,10.16-15.84,23.76-15.84,38.24s5.6,28,15.84,38.24l202,201.92c10.16,10.24,23.76,15.84,38.16,15.84s28-5.6,38.24-15.84l202-202c21.04-21.12,21.04-55.36,0-76.48L294.24,15.84c-10.16-10.24-23.76-15.84-38.24-15.84h0Z"/>
  <path class="cls-1" d="M256,25.84c7.52,0,14.64,2.96,20,8.24l201.92,201.92c11.04,11.04,11.04,28.96,0,39.92l-201.92,202c-5.36,5.36-12.48,8.24-20,8.24s-14.64-2.96-20-8.24L34.08,276c-5.36-5.36-8.24-12.4-8.24-20s2.96-14.64,8.24-20L236,34.08c5.36-5.36,12.48-8.24,20-8.24M256,17.28c-9.84,0-19.04,3.84-26,10.72L28.08,230c-6.96,6.96-10.8,16.16-10.8,26s3.84,19.04,10.8,26l201.92,202c6.96,6.96,16.16,10.72,26,10.72s19.04-3.84,26-10.72l202-202c14.32-14.32,14.32-37.68,0-52L282,28.08c-6.96-6.96-16.16-10.8-26-10.8h0Z"/>
  <path class="cls-1" d="M316.96,218.48c-3.52,1.52-1.92,5.44-2.08,7.04-.64,6.08-17.36,3.76-16.8-1.68.56-5.6,3.36-6.72.24-12.96-2.48-5.28,23.6,5.52,18.64,7.6Z"/>
  <path class="cls-1" d="M337.12,199.92c-3.76-3.12-2.96-6.56-2.4-9.44,1.04-5.2.56-10-1.2-14.16,0,0,2.24-5.76,1.44-7.2-2-3.92-12.48-9.12-25.44-9.12-14.32,0-20.64,6.08-23.76,11.2-8.08,13.44-2.56,30.4,5.68,40,6.4,7.52,23.92,13.28,32.56,10.4,7.76-2.56,9.04-13.84,11.2-15.2,1.2-.72,1.36-.88,2.72-2.88.64-.96.48-2.48-.8-3.6Z"/>
  <path class="cls-1" d="M326.56,254.16c7.04,4.64,17.84,17.6,19.76,19.52,1.84,1.84,7.92,6.32,8.88,7.92,1.76,2.8,3.44,9.84,2.08,14.24-1.04,3.36-11.28-4.24-12.8-11.44-.32-1.44-5.04-6.88-15.92-11.52-6.64-2.8-9.36-23.52-2-18.72Z"/>
  <path class="cls-1" d="M289.52,357.12c16.88,9.52,14.88,12.8,15.04,16.48-14.96,3.92-33.44-12.72-33.44-12.72,3.68-13.04,15.44-5.44,18.4-3.76Z"/>
  <path class="cls-1" d="M285.12,276.96c29.04-14.8,32.72-4.24,32.72-4.24,2.4,20.72,1.44,49.92-.8,55.2-1.92,4.4-15.92,20.24-23.2,35.92-9.2-.4-23.84-2.88-21.12-7.6,10.32-17.76,19.92-35.2,19.92-35.2,5.04-17.68-1.76-29.12-7.52-44.08Z"/>
  <path class="cls-1" d="M331.84,356.72c-8.08.16-13.04.4-11.44,13.92,0,0,36.64,3.6,35.76-2.08-.64-4.72-6.32-9.52-24.32-11.84Z"/>
  <path class="cls-1" d="M301.28,266.08s22-3.68,25.6,14c-1.12,15.84,10.24,34.24,11.68,39.68,1.6,5.92-.72,24.4,3.76,39.28-10,3.92-22,14.16-22.56,9.28-2.4-21.6-6.96-46.16-6.96-46.16-16-32.24-26.16-33.92-11.52-56.08Z"/>
  <path class="cls-1" d="M294.4,276.24s15.6.56,33.12,8.16c5.28-19.84,5.04-48.64-10.08-59.04-7.84-5.44-16.4-6.8-21.6-4.8-19.92,16.16,6.72,29.76-1.44,55.68Z"/>
  <path class="cls-1" d="M277.44,282.48c-9.2-6.8-7.2-44.88-.96-52.32,6.72-8.08,20-6.96,20-6.96l1.6,57.52c0,.08-16.72,4.64-20.64,1.76Z"/>
  <path class="cls-1" d="M271.04,279.52c-4.4-4.24-2.72-28.56.4-33.52,3.44-5.28,9.84-4.8,9.84-4.8l-.16,36.8c0,.08-8.24,3.28-10.08,1.52Z"/>
  <path class="cls-1" d="M175.36,266.88c-5.04-4.8-3.2-32.88.48-38.56,3.92-6.08,11.36-5.44,11.36-5.44l-.16,42.32c-.08,0-9.6,3.76-11.68,1.68Z"/>
  <path class="cls-1" d="M233.04,199.04c-4,1.68-2.16,6.16-2.4,8-.72,6.88-19.6,4.24-18.96-1.92.64-6.32,3.76-7.6.32-14.72-3.04-6.08,26.64,6.24,21.04,8.64Z"/>
  <path class="cls-1" d="M256,177.28c-4.16-3.6-3.6-7.44-2.96-10.72,1.2-5.84.64-11.36-1.36-16-.4-11.52-12.48-18.4-27.12-18.48-16.16,0-23.36,6.88-26.88,12.72-9.12,15.2-2.88,34.48,6.4,45.28,7.28,8.48,26.16,15.28,35.92,12,8.72-2.96,11.2-15.92,13.6-17.44,1.36-.8,1.84-.96,3.28-3.2.8-1.12.64-2.88-.88-4.16Z"/>
  <path class="cls-1" d="M282.16,254.16c-4.24-2.72-18.8-12.72-27.36-16.64-7.6-8.24-16.4-14.64-16.4-14.64-5.04,5.84-10.64,8.24-11.28,16.96,3.12,3.04,10.4,4.4,15.44,8.72,5.44,5.12,12.88,10.08,20.96,10.56,9.04.48,15.36,2.88,18.64,4.96,0,0,0-9.92,0-9.92Z"/>
  <path class="cls-1" d="M182.48,352.88c14.32,16.56,10.96,19.28,9.76,23.28-17.44-1.6-30.8-26.4-30.8-26.4,8.8-12.4,18.56.24,21.04,3.12Z"/>
  <path class="cls-1" d="M208.4,265.68c36.56-4.72,36.48,7.92,36.48,7.92-5.36,23.04-17.52,53.76-21.92,58.56-3.68,4-24.72,15.52-38.48,29.44-9.6-3.92-24.32-12.24-19.68-16.16,17.84-15.04,34.64-29.92,34.64-29.92,12.32-16.88,9.36-31.68,8.96-49.84Z"/>
  <path class="cls-1" d="M236.64,358.64c20.48,1.2,27.6,6.08,28.48,11.44.96,6.16-40.24,5.2-40.24,5.2-2.88-15.12,2.56-15.84,11.76-16.64Z"/>
  <path class="cls-1" d="M219.84,250.96s25.28-.48,26.4,19.84c-3.84,17.6,5.84,40.08,6.56,46.4.8,6.88-4.8,27.28-2.32,44.56-11.76,2.72-27.04,12.24-26.8,6.72.88-24.56-.16-52.88-.16-52.88-12.64-38.64-23.76-42.16-3.68-64.64Z"/>
  <path class="cls-1" d="M207.36,264.4s17.68.64,37.52,9.28c6-22.48,5.68-55.04-11.36-66.88-8.96-6.16-18.64-7.76-24.48-5.44-22.56,18.24,7.6,33.68-1.68,63.04Z"/>
  <path class="cls-1" d="M190.32,270.4c-10.56-7.84-8.24-51.6-1.12-60.16,7.76-9.28,22.96-8,22.96-8l1.84,66.16c.08,0-19.2,5.28-23.68,2Z"/>
  <path class="cls-1" d="M171.28,184.16c-2.32.56-4.96.56-7.92-.24,22.64-9.6,10.56-58.72,42.64-42.64l-6,11.28c-9.6.8,1.76,27.04-16.48,33.6,1.84-1.36,2.24-4.64,2.16-8.56-4.56,10.8-8.88,18.24-22.08,15.28,2.48-.24,5.36-3.92,7.68-8.72Z"/>
  <polygon class="cls-1" points="378.08 382.32 137.12 382.32 125.04 370.56 386.96 370.56 378.08 382.32"/>
</svg>