<?xml version="1.0" encoding="UTF-8"?>
<svg id="Layer_1" data-name="Layer 1" xmlns="http://www.w3.org/2000/svg" xmlns:xlink="http://www.w3.org/1999/xlink" viewBox="0 0 614.39 512">
  <defs>
    <style>
      .cls-1 {
        fill: url(#linear-gradient);
      }

      .cls-2 {
        fill: #ff1c23;
      }
    </style>
    <linearGradient id="linear-gradient" x1="-768.53" y1="832.15" x2="-768.53" y2="1017.15" gradientTransform="translate(2170.5807 2446.4931) scale(2.4215 -2.3247)" gradientUnits="userSpaceOnUse">
      <stop offset="0" stop-color="#db0100"/>
      <stop offset=".58" stop-color="#f31317"/>
      <stop offset="1" stop-color="#ff1c23"/>
    </linearGradient>
  </defs>
  <path class="cls-2" d="M410,55.55c90.27-14.53,164.4,46.11,181.42,125.82,1.04,4.94,7.64,3.33,7.84-2.28,3.06-85.1-69.33-173.42-187.95-132.69-5.13,1.76-6.15,9.92-1.31,9.15Z"/>
  <path class="cls-2" d="M459.79,15.83c73.7-11.88,134.23,37.64,148.12,102.73.86,4.03,6.24,2.71,6.4-1.86,2.5-69.49-56.6-141.59-153.45-108.34-4.2,1.44-5,8.11-1.06,7.48Z"/>
  <path class="cls-2" d="M204.4,55.55C114.14,41.02,39.99,101.66,22.99,181.37c-1.06,4.94-7.66,3.33-7.86-2.28C12.08,93.98,84.48,5.67,203.09,46.4c5.14,1.76,6.14,9.92,1.31,9.15Z"/>
  <path class="cls-2" d="M154.6,15.83C80.9,3.95,20.38,53.47,6.49,118.56c-.86,4.03-6.25,2.71-6.41-1.86C-2.42,47.21,56.7-24.89,153.55,8.36c4.19,1.44,5.01,8.11,1.05,7.48Z"/>
  <path class="cls-1" d="M309.55,145.01C241.62,33.68,53.59,77.16,53.59,216.97c0,93.79,86.73,156.55,255.96,295.03,169.26-138.48,256.04-201.24,256.04-295.04,0-139.8-188.05-183.28-256.04-71.95Z"/>
</svg>