<?xml version="1.0" encoding="UTF-8"?>
<svg id="Layer_1" data-name="Layer 1" xmlns="http://www.w3.org/2000/svg" xmlns:xlink="http://www.w3.org/1999/xlink" viewBox="0 0 512 512">
  <defs>
    <style>
      .cls-1 {
        fill: url(#linear-gradient-5);
      }

      .cls-2 {
        fill: url(#linear-gradient-6);
      }

      .cls-3 {
        fill: url(#linear-gradient-4);
      }

      .cls-4 {
        fill: url(#linear-gradient-3);
      }

      .cls-5 {
        fill: url(#linear-gradient-2);
      }

      .cls-6 {
        fill: url(#linear-gradient);
      }
    </style>
    <linearGradient id="linear-gradient" x1="89.05" y1="4.58" x2="89.05" y2="515.16" gradientTransform="translate(0 514) scale(1 -1)" gradientUnits="userSpaceOnUse">
      <stop offset="0" stop-color="#0062d0"/>
      <stop offset=".05" stop-color="#0069d3"/>
      <stop offset=".29" stop-color="#0086e0"/>
      <stop offset=".53" stop-color="#009ae9"/>
      <stop offset=".77" stop-color="#00a7ef"/>
      <stop offset="1" stop-color="#00abf1"/>
    </linearGradient>
    <linearGradient id="linear-gradient-2" x1="199.85" y1="4.58" x2="199.85" y2="515.16" gradientTransform="translate(0 514) scale(1 -1)" gradientUnits="userSpaceOnUse">
      <stop offset="0" stop-color="#0062d0"/>
      <stop offset=".05" stop-color="#0069d3"/>
      <stop offset=".29" stop-color="#0086e0"/>
      <stop offset=".53" stop-color="#009ae9"/>
      <stop offset=".77" stop-color="#00a7ef"/>
      <stop offset="1" stop-color="#00abf1"/>
    </linearGradient>
    <linearGradient id="linear-gradient-3" x1="323.07" y1="4.58" x2="323.07" y2="515.16" gradientTransform="translate(0 514) scale(1 -1)" gradientUnits="userSpaceOnUse">
      <stop offset="0" stop-color="#0062d0"/>
      <stop offset=".05" stop-color="#0069d3"/>
      <stop offset=".29" stop-color="#0086e0"/>
      <stop offset=".53" stop-color="#009ae9"/>
      <stop offset=".77" stop-color="#00a7ef"/>
      <stop offset="1" stop-color="#00abf1"/>
    </linearGradient>
    <linearGradient id="linear-gradient-4" x1="431.91" y1="4.58" x2="431.91" y2="515.16" gradientTransform="translate(0 514) scale(1 -1)" gradientUnits="userSpaceOnUse">
      <stop offset="0" stop-color="#0062d0"/>
      <stop offset=".05" stop-color="#0069d3"/>
      <stop offset=".29" stop-color="#0086e0"/>
      <stop offset=".53" stop-color="#009ae9"/>
      <stop offset=".77" stop-color="#00a7ef"/>
      <stop offset="1" stop-color="#00abf1"/>
    </linearGradient>
    <linearGradient id="linear-gradient-5" x1="256" y1="1525.79" x2="256" y2="1014.85" gradientTransform="translate(0 -1014)" gradientUnits="userSpaceOnUse">
      <stop offset="0" stop-color="#0062d0"/>
      <stop offset="1" stop-color="#00abf1"/>
    </linearGradient>
    <linearGradient id="linear-gradient-6" x1="255.96" y1="1525.79" x2="255.96" y2="1014.85" gradientTransform="translate(0 -1014)" gradientUnits="userSpaceOnUse">
      <stop offset="0" stop-color="#0062d0"/>
      <stop offset="1" stop-color="#00abf1"/>
    </linearGradient>
  </defs>
  <path class="cls-6" d="M99.16,250.54c4.69-1.28,9.3-1.45,13.74-.43,4.52.94,9.05,3.16,13.74,6.66l8.7-31.06c-4.1-4.1-9.47-6.74-16.13-8.02-6.66-1.19-13.57-.85-20.74,1.02-11.43,3.07-21.33,8.96-29.7,17.75-8.36,8.79-14.85,19.71-19.37,32.68-4.44,13.14-6.74,27.48-6.74,43.18s2.3,29.1,6.83,39.77c4.52,10.67,11.01,18.18,19.37,22.44s18.26,4.95,29.7,1.88c7.17-1.88,14.08-5.29,20.74-10.07s12.03-10.33,16.13-16.64l-8.7-26.37c-4.69,5.97-9.3,10.67-13.74,14.08-4.52,3.33-9.05,5.63-13.74,6.91-8.7,2.3-15.36.17-20.14-6.49-4.78-6.66-7.08-17.75-7.08-33.28s2.39-27.82,7.08-36.86,11.35-14.85,20.05-17.15Z"/>
  <path class="cls-5" d="M228.95,193.45c-8.11-4.27-17.75-4.86-29.01-1.79-11.26,2.99-20.91,8.79-29.1,17.41-8.19,8.62-14.51,19.37-18.94,32.43-4.52,13.06-6.74,27.48-6.74,43.52s2.22,29.53,6.66,40.11,10.75,18.09,19.03,22.36c8.19,4.27,17.92,4.95,29.18,1.88,11.26-2.99,20.91-8.87,29.01-17.49,8.11-8.62,14.42-19.46,18.86-32.43,4.44-12.97,6.66-27.56,6.66-43.69s-2.22-29.27-6.66-39.94c-4.61-10.75-10.84-18.18-18.94-22.36ZM218.97,301.14c-4.78,9.3-11.09,15.1-19.03,17.24-7.94,2.13-14.25-.17-19.03-6.91-4.69-6.74-7.08-18.18-7.08-34.3s2.3-28.59,7.08-37.72c4.69-9.13,11.01-14.85,19.03-16.98,7.94-2.13,14.34.17,19.03,6.91,4.78,6.74,7.08,18.01,7.08,33.79s-2.3,28.67-7.08,37.97Z"/>
  <path class="cls-4" d="M352.17,160.43c-8.11-4.27-17.75-4.86-29.01-1.79-11.26,2.99-20.91,8.79-29.1,17.41s-14.51,19.37-18.94,32.43c-4.52,13.06-6.74,27.48-6.74,43.52s2.22,29.53,6.66,40.11c4.44,10.58,10.75,18.09,19.03,22.36,8.19,4.27,17.92,4.95,29.18,1.88,11.26-2.99,20.91-8.87,29.01-17.49,8.11-8.62,14.42-19.46,18.86-32.43,4.44-12.97,6.66-27.56,6.66-43.69s-2.22-29.27-6.66-39.94c-4.52-10.75-10.84-18.18-18.94-22.36ZM342.19,268.12c-4.78,9.3-11.09,15.1-19.03,17.24s-14.25-.17-19.03-6.91c-4.69-6.74-7-18.18-7-34.3s2.3-28.59,7-37.72,11.01-14.85,19.03-16.98c7.94-2.13,14.34.17,19.03,6.91,4.78,6.74,7.08,18.01,7.08,33.79.09,16.04-2.3,28.67-7.08,37.97Z"/>
  <polygon class="cls-3" points="423.25 133.72 394.5 141.4 394.5 295.17 469.33 275.11 469.33 242.26 423.25 254.63 423.25 133.72"/>
  <path class="cls-1" d="M27.14,168.02L496.04,42.33c9.39-2.56,15.96-11.09,15.96-20.82,0-11.86-9.64-21.5-21.5-21.5H21.5C9.64,0,0,9.64,0,21.5v125.61c0,14.25,13.4,24.58,27.14,20.91Z"/>
  <path class="cls-2" d="M484.86,343.98L15.96,469.67c-9.39,2.47-15.96,11.01-15.96,20.82,0,11.86,9.64,21.5,21.5,21.5h468.91c11.86,0,21.5-9.64,21.5-21.5v-125.7c.09-14.17-13.31-24.49-27.05-20.82Z"/>
</svg>