<?xml version="1.0" encoding="UTF-8"?>
<svg id="Layer_1" data-name="Layer 1" xmlns="http://www.w3.org/2000/svg" xmlns:xlink="http://www.w3.org/1999/xlink" viewBox="0 0 287.74 512">
  <defs>
    <style>
      .cls-1 {
        fill: url(#linear-gradient-2);
      }

      .cls-2 {
        fill: url(#linear-gradient);
      }
    </style>
    <linearGradient id="linear-gradient" x1="134.74" y1="1.87" x2="134.74" y2="544.97" gradientTransform="translate(0 514) scale(1 -1)" gradientUnits="userSpaceOnUse">
      <stop offset="0" stop-color="#c90100"/>
      <stop offset=".21" stop-color="#dd1616"/>
      <stop offset=".48" stop-color="#f02b2a"/>
      <stop offset=".74" stop-color="#fb3737"/>
      <stop offset="1" stop-color="#ff3b3b"/>
    </linearGradient>
    <linearGradient id="linear-gradient-2" x1="143.87" y1="45.84" x2="143.87" y2="517.86" gradientTransform="translate(0 514) scale(1 -1)" gradientUnits="userSpaceOnUse">
      <stop offset="0" stop-color="#c90100"/>
      <stop offset=".21" stop-color="#dd1616"/>
      <stop offset=".48" stop-color="#f02b2a"/>
      <stop offset=".74" stop-color="#fb3737"/>
      <stop offset="1" stop-color="#ff3b3b"/>
    </linearGradient>
  </defs>
  <path class="cls-2" d="M134.74,418.13c-25.94,0-46.93,20.99-46.93,46.93s20.99,46.93,46.93,46.93,46.93-20.99,46.93-46.93c0-25.94-20.99-46.93-46.93-46.93Z"/>
  <path class="cls-1" d="M85.33,115.03c22.7-51.2,105.64-45.82,105.64,13.06,0,95.83-100.69,84.31-97.45,205.31,1.28,45.99,83.37,43.95,82.18-2.05-2.22-80.55,112.04-87.47,112.04-207.7-.09-49.24-41.05-123.65-145.24-123.65C80.04,0,16.98,24.32,1.1,95.74c-11.09,49.66,64.68,63.4,84.22,19.29Z"/>
</svg>