<?xml version="1.0" encoding="UTF-8"?>
<svg id="Layer_1" data-name="Layer 1" xmlns="http://www.w3.org/2000/svg" xmlns:xlink="http://www.w3.org/1999/xlink" viewBox="0 0 512 512">
  <defs>
    <style>
      .cls-1 {
        fill: url(#linear-gradient);
      }
    </style>
    <linearGradient id="linear-gradient" x1="127.98" y1="479.74" x2="384.02" y2="36.27" gradientTransform="translate(0 514) scale(1 -1)" gradientUnits="userSpaceOnUse">
      <stop offset="0" stop-color="#ff3b3b"/>
      <stop offset=".26" stop-color="#fb3737"/>
      <stop offset=".52" stop-color="#f02b2a"/>
      <stop offset=".79" stop-color="#dd1616"/>
      <stop offset="1" stop-color="#c90100"/>
    </linearGradient>
  </defs>
  <path class="cls-1" d="M256,0C114.62,0,0,114.62,0,256s114.62,256,256,256,256-114.64,256-256S397.38,0,256,0ZM443.73,256c0,39.5-12.24,76.13-33.08,106.39L149.61,101.33c30.23-20.85,66.87-33.07,106.39-33.07,103.68,0,187.73,84.05,187.73,187.73ZM68.27,256c0-39.5,12.24-76.15,33.07-106.4l261.05,261.05c-30.23,20.85-66.88,33.08-106.39,33.08-103.68,0-187.73-84.07-187.73-187.73Z"/>
</svg>