<?xml version="1.0" encoding="UTF-8"?>
<svg id="Layer_1" data-name="Layer 1" xmlns="http://www.w3.org/2000/svg" xmlns:xlink="http://www.w3.org/1999/xlink" viewBox="0 0 512 512">
  <defs>
    <style>
      .cls-1 {
        fill: url(#linear-gradient-3);
      }

      .cls-2 {
        fill: url(#linear-gradient-2);
      }

      .cls-3 {
        fill: url(#linear-gradient);
      }

      .cls-4 {
        fill: #7a848a;
      }

      .cls-5 {
        fill: #302c3b;
      }
    </style>
    <linearGradient id="linear-gradient" x1="256" y1="2" x2="256" y2="514" gradientTransform="translate(0 514) scale(1 -1)" gradientUnits="userSpaceOnUse">
      <stop offset="0" stop-color="#afb7ba"/>
      <stop offset=".12" stop-color="#bac1c4"/>
      <stop offset=".46" stop-color="#d5dadd"/>
      <stop offset=".77" stop-color="#e5eaed"/>
      <stop offset="1" stop-color="#ebeff2"/>
    </linearGradient>
    <linearGradient id="linear-gradient-2" x1="-2101.15" y1="4352.09" x2="-2101.15" y2="4506.77" gradientTransform="translate(-2474.2036 -3746.539) rotate(-59.9993)" gradientUnits="userSpaceOnUse">
      <stop offset="0" stop-color="#272430"/>
      <stop offset=".57" stop-color="#3c4049"/>
      <stop offset="1" stop-color="#4e585e"/>
    </linearGradient>
    <linearGradient id="linear-gradient-3" x1="445.95" y1="2708.78" x2="445.95" y2="2495.73" gradientTransform="translate(-189.9473 -2426.8721)" gradientUnits="userSpaceOnUse">
      <stop offset="0" stop-color="#4e585e"/>
      <stop offset=".43" stop-color="#3c4049"/>
      <stop offset="1" stop-color="#272430"/>
    </linearGradient>
  </defs>
  <path class="cls-3" d="M256,512c141.4,0,256-114.6,256-256S397.4,0,256,0,0,114.6,0,256s114.6,256,256,256Z"/>
  <path class="cls-4" d="M447.06,358.4c3.24,1.88,4.44,6.06,2.47,9.39-1.88,3.33-6.06,4.44-9.39,2.47-3.33-1.88-4.44-6.06-2.47-9.39,1.88-3.24,6.14-4.35,9.39-2.47Z"/>
  <path class="cls-4" d="M71.77,141.74c3.24,1.88,4.44,6.06,2.47,9.39-1.88,3.24-6.06,4.44-9.39,2.47-3.24-1.88-4.44-6.06-2.47-9.39,1.88-3.24,6.06-4.44,9.39-2.47Z"/>
  <path class="cls-4" d="M153.6,447.06c-1.88,3.24-6.06,4.44-9.39,2.47-3.24-1.88-4.44-6.06-2.47-9.39,1.88-3.24,6.06-4.44,9.39-2.47,3.24,1.96,4.35,6.14,2.47,9.39Z"/>
  <path class="cls-4" d="M370.26,71.77c-1.88,3.24-6.06,4.44-9.39,2.47-3.24-1.88-4.44-6.06-2.47-9.39,1.88-3.24,6.06-4.44,9.39-2.47,3.24,1.88,4.35,6.14,2.47,9.39Z"/>
  <path class="cls-4" d="M370.26,440.23c1.88,3.24.77,7.51-2.56,9.39-3.24,1.88-7.51.77-9.39-2.47-1.88-3.24-.77-7.51,2.47-9.39,3.41-1.96,7.59-.85,9.47,2.47Z"/>
  <path class="cls-4" d="M153.6,64.94c1.88,3.24.77,7.51-2.47,9.39-3.24,1.88-7.51.77-9.39-2.47-1.88-3.24-.77-7.51,2.47-9.39,3.24-1.96,7.51-.85,9.39,2.47Z"/>
  <path class="cls-4" d="M71.77,370.26c-3.24,1.88-7.51.77-9.39-2.47-1.88-3.33-.77-7.51,2.47-9.39,3.33-1.88,7.51-.77,9.39,2.47,1.96,3.33.77,7.51-2.47,9.39Z"/>
  <path class="cls-4" d="M447.06,153.6c-3.24,1.88-7.51.77-9.39-2.47-1.88-3.24-.77-7.51,2.47-9.39,3.24-1.88,7.51-.77,9.39,2.47,1.96,3.24.77,7.51-2.47,9.39Z"/>
  <polygon class="cls-5" points="243.37 27.14 237.91 27.14 225.37 34.39 225.37 42.67 234.07 37.55 234.07 62.29 224.77 62.29 224.77 69.8 252.67 69.8 252.67 62.29 243.37 62.29 243.37 27.14"/>
  <path class="cls-5" d="M279.13,52.39c2.39-2.56,4.1-4.78,5.03-6.83,1.02-2.05,1.54-4.35,1.54-6.83s-.6-4.44-1.71-6.14c-1.19-1.79-2.82-3.07-5.03-4.01-2.13-.94-4.69-1.45-7.59-1.45-2.73,0-5.38.43-8.02,1.28-2.65.85-4.78,1.96-6.49,3.5l2.99,6.66c1.88-1.37,3.75-2.39,5.63-3.07s3.67-1.02,5.46-1.02,3.24.43,4.27,1.28,1.45,2.05,1.45,3.75c0,1.37-.34,2.73-1.11,4.18-.77,1.37-1.79,2.9-3.24,4.52l-13.99,14.93v6.83h28.93v-7.59h-17.58l9.47-9.98Z"/>
  <path class="cls-5" d="M470.78,255.4c2.05-.68,3.67-1.79,4.86-3.33,1.28-1.71,1.88-3.75,1.88-6.23,0-2.3-.6-4.27-1.71-5.97-1.19-1.71-2.82-2.99-4.86-3.93-2.13-.94-4.61-1.37-7.42-1.37s-5.38.43-8.02,1.28c-2.65.85-4.78,1.96-6.49,3.41l2.9,6.57c1.79-1.37,3.58-2.3,5.46-2.99s3.75-1.02,5.55-1.02,3.33.43,4.35,1.37,1.62,2.22,1.62,3.93c0,1.79-.6,3.07-1.79,3.84-1.19.85-2.99,1.19-5.46,1.19h-4.95v7.08h5.97c2.56,0,4.35.43,5.55,1.28,1.11.85,1.71,2.22,1.71,4.01,0,1.96-.6,3.33-1.71,4.18-1.19.85-2.99,1.28-5.55,1.28-1.96,0-3.84-.34-5.8-1.02-1.88-.68-3.75-1.71-5.63-3.07l-2.9,6.57c1.71,1.45,3.84,2.56,6.49,3.41,2.65.85,5.38,1.28,8.28,1.28,4.78,0,8.53-1.02,11.26-3.16s4.18-5.03,4.18-8.7c0-2.73-.68-4.95-2.13-6.74-1.28-1.45-3.24-2.56-5.63-3.16Z"/>
  <path class="cls-5" d="M258.3,449.37c1.45,0,3.07.34,4.86.94s3.58,1.62,5.46,3.07l2.99-6.57c-1.71-1.54-3.75-2.65-6.23-3.5-2.39-.77-4.95-1.19-7.51-1.19-3.58,0-6.74.85-9.39,2.65-2.65,1.79-4.61,4.27-6.06,7.51-1.37,3.24-2.13,7.17-2.13,11.78,0,6.66,1.45,11.78,4.44,15.36s7.17,5.38,12.54,5.38c2.73,0,5.21-.6,7.34-1.79s3.84-2.9,5.03-5.03,1.79-4.52,1.79-7.25-.51-4.95-1.62-6.91c-1.11-2.05-2.56-3.58-4.44-4.78-1.88-1.11-4.1-1.71-6.49-1.71-1.71,0-3.24.34-4.69.94s-2.65,1.45-3.67,2.56c-.43.43-.77,1.02-1.11,1.54.17-3.93.85-7.08,2.22-9.22,1.62-2.47,3.75-3.75,6.66-3.75ZM251.31,467.63c.51-1.02,1.28-1.79,2.22-2.3s2.05-.85,3.24-.85c1.88,0,3.41.6,4.52,1.79,1.11,1.19,1.71,2.82,1.71,4.86s-.6,3.58-1.71,4.78c-1.11,1.19-2.65,1.79-4.52,1.79-1.19,0-2.3-.26-3.24-.85-.94-.6-1.71-1.37-2.22-2.3s-.77-2.13-.77-3.41.26-2.47.77-3.5Z"/>
  <path class="cls-5" d="M59.65,240.04c-2.9-3.58-7.08-5.38-12.54-5.38-2.73,0-5.21.6-7.34,1.79s-3.84,2.9-5.03,5.03-1.88,4.52-1.88,7.25.51,4.95,1.62,6.91c1.11,2.05,2.56,3.58,4.44,4.78,1.88,1.11,4.1,1.71,6.49,1.71,1.71,0,3.24-.34,4.69-.94s2.65-1.45,3.67-2.56c.43-.43.77-1.02,1.11-1.54-.17,3.93-.85,7-2.22,9.22-1.54,2.47-3.67,3.67-6.66,3.67-1.45,0-3.07-.34-4.78-.94s-3.58-1.62-5.46-3.07l-2.99,6.57c1.71,1.54,3.75,2.65,6.23,3.5,2.39.77,4.95,1.19,7.51,1.19,3.58,0,6.74-.85,9.39-2.65,2.65-1.79,4.61-4.27,6.06-7.51,1.37-3.24,2.13-7.17,2.13-11.78-.09-6.57-1.54-11.69-4.44-15.27ZM53.08,251.9c-.51,1.02-1.28,1.79-2.22,2.3-.94.51-2.05.85-3.24.85-1.88,0-3.41-.6-4.52-1.79-1.11-1.19-1.62-2.82-1.62-4.86s.51-3.58,1.62-4.78,2.56-1.79,4.52-1.79c1.19,0,2.3.26,3.24.85.94.6,1.71,1.37,2.22,2.3s.77,2.13.77,3.41-.17,2.47-.77,3.5Z"/>
  <path class="cls-2" d="M380.5,314.71c4.35,2.47-7,22.19-11.35,19.71l-121.69-63.66c-6.57-3.75-8.02-13.48-3.33-21.67,4.69-8.19,13.82-11.69,20.39-7.94l115.97,73.56Z"/>
  <path class="cls-1" d="M267.43,256c0,6.31-5.12,11.43-11.43,11.43s-11.43-5.12-11.43-11.43l2.39-174.85c.68-4.69,17.41-4.69,18.01,0l2.47,174.85Z"/>
</svg>