<?xml version="1.0" encoding="UTF-8"?>
<svg id="Layer_1" data-name="Layer 1" xmlns="http://www.w3.org/2000/svg" xmlns:xlink="http://www.w3.org/1999/xlink" viewBox="0 0 494.74 512">
  <defs>
    <style>
      .cls-1 {
        fill: url(#linear-gradient);
      }
    </style>
    <linearGradient id="linear-gradient" x1="247.37" y1="1.99" x2="247.37" y2="513.99" gradientTransform="translate(0 513.99) scale(1 -1)" gradientUnits="userSpaceOnUse">
      <stop offset="0" stop-color="#1a1626"/>
      <stop offset="1" stop-color="#545061"/>
    </linearGradient>
  </defs>
  <path class="cls-1" d="M404.33,183.17c-21.16-5.12-41.3-3.75-59.64,1.88,14.68-22.27,22.19-49.83,19.03-79.27-5.8-54.7-49.32-99.07-103.08-105.04-70.48-7.85-130.21,48.12-130.21,118.18,0,24.49,7.25,47.19,19.71,66.04-18.35-5.55-38.48-6.91-59.56-1.88C41.18,195.03,3.89,238.8.3,290.25c-4.86,69.63,49.23,127.65,116.64,127.65,41.73,0,78.25-22.19,98.9-55.63,1.96-3.16,6.83-1.45,6.4,2.3-3.33,34.39-7.85,104.27-57.85,147.36,11.78.09,154.27.09,165.96,0-50.09-43.09-54.61-112.97-57.85-147.36-.34-3.67,4.44-5.38,6.4-2.3,20.73,33.36,57.26,55.63,98.9,55.63,67.41,0,121.51-58.02,116.64-127.57-3.41-51.54-40.7-95.31-90.11-107.17Z"/>
</svg>