<?xml version="1.0" encoding="UTF-8"?>
<svg id="Layer_1" data-name="Layer 1" xmlns="http://www.w3.org/2000/svg" xmlns:xlink="http://www.w3.org/1999/xlink" viewBox="0 0 512 512">
  <defs>
    <style>
      .cls-1 {
        fill: url(#linear-gradient-8);
      }

      .cls-2 {
        fill: url(#linear-gradient-7);
      }

      .cls-3 {
        fill: url(#linear-gradient-5);
      }

      .cls-4 {
        fill: url(#linear-gradient-6);
      }

      .cls-5 {
        fill: url(#linear-gradient-9);
      }

      .cls-6 {
        fill: url(#linear-gradient-4);
      }

      .cls-7 {
        fill: url(#linear-gradient-3);
      }

      .cls-8 {
        fill: url(#linear-gradient-2);
      }

      .cls-9 {
        fill: url(#linear-gradient);
      }
    </style>
    <linearGradient id="linear-gradient" x1="256" y1="1012.01" x2="256" y2="1524.46" gradientTransform="translate(0 -1014)" gradientUnits="userSpaceOnUse">
      <stop offset="0" stop-color="#ffd900"/>
      <stop offset=".29" stop-color="#ffd500"/>
      <stop offset=".59" stop-color="#ffc800"/>
      <stop offset=".89" stop-color="#ffb400"/>
      <stop offset="1" stop-color="#fa0"/>
    </linearGradient>
    <linearGradient id="linear-gradient-2" x1="256" y1="1012.01" x2="256" y2="1524.45" gradientTransform="translate(0 -1014)" gradientUnits="userSpaceOnUse">
      <stop offset="0" stop-color="#ffd900"/>
      <stop offset=".29" stop-color="#ffd500"/>
      <stop offset=".59" stop-color="#ffc800"/>
      <stop offset=".89" stop-color="#ffb400"/>
      <stop offset="1" stop-color="#fa0"/>
    </linearGradient>
    <linearGradient id="linear-gradient-3" x1="463.1" y1="1011.99" x2="463.1" y2="1524.47" gradientTransform="translate(0 -1014)" gradientUnits="userSpaceOnUse">
      <stop offset="0" stop-color="#ffd900"/>
      <stop offset=".29" stop-color="#ffd500"/>
      <stop offset=".59" stop-color="#ffc800"/>
      <stop offset=".89" stop-color="#ffb400"/>
      <stop offset="1" stop-color="#fa0"/>
    </linearGradient>
    <linearGradient id="linear-gradient-4" x1="48.9" y1="1011.99" x2="48.9" y2="1524.47" gradientTransform="translate(0 -1014)" gradientUnits="userSpaceOnUse">
      <stop offset="0" stop-color="#ffd900"/>
      <stop offset=".29" stop-color="#ffd500"/>
      <stop offset=".59" stop-color="#ffc800"/>
      <stop offset=".89" stop-color="#ffb400"/>
      <stop offset="1" stop-color="#fa0"/>
    </linearGradient>
    <linearGradient id="linear-gradient-5" x1="109.57" y1="1012.01" x2="109.57" y2="1524.45" gradientTransform="translate(0 -1014)" gradientUnits="userSpaceOnUse">
      <stop offset="0" stop-color="#ffd900"/>
      <stop offset=".29" stop-color="#ffd500"/>
      <stop offset=".59" stop-color="#ffc800"/>
      <stop offset=".89" stop-color="#ffb400"/>
      <stop offset="1" stop-color="#fa0"/>
    </linearGradient>
    <linearGradient id="linear-gradient-6" x1="402.43" y1="1012.01" x2="402.43" y2="1524.45" gradientTransform="translate(0 -1014)" gradientUnits="userSpaceOnUse">
      <stop offset="0" stop-color="#ffd900"/>
      <stop offset=".29" stop-color="#ffd500"/>
      <stop offset=".59" stop-color="#ffc800"/>
      <stop offset=".89" stop-color="#ffb400"/>
      <stop offset="1" stop-color="#fa0"/>
    </linearGradient>
    <linearGradient id="linear-gradient-7" x1="402.43" y1="1012.01" x2="402.43" y2="1524.45" gradientTransform="translate(0 -1014)" gradientUnits="userSpaceOnUse">
      <stop offset="0" stop-color="#ffd900"/>
      <stop offset=".29" stop-color="#ffd500"/>
      <stop offset=".59" stop-color="#ffc800"/>
      <stop offset=".89" stop-color="#ffb400"/>
      <stop offset="1" stop-color="#fa0"/>
    </linearGradient>
    <linearGradient id="linear-gradient-8" x1="109.57" y1="1012.01" x2="109.57" y2="1524.45" gradientTransform="translate(0 -1014)" gradientUnits="userSpaceOnUse">
      <stop offset="0" stop-color="#ffd900"/>
      <stop offset=".29" stop-color="#ffd500"/>
      <stop offset=".59" stop-color="#ffc800"/>
      <stop offset=".89" stop-color="#ffb400"/>
      <stop offset="1" stop-color="#fa0"/>
    </linearGradient>
    <linearGradient id="linear-gradient-9" x1="256" y1="1012" x2="256" y2="1524.46" gradientTransform="translate(0 -1014)" gradientUnits="userSpaceOnUse">
      <stop offset="0" stop-color="#ffd900"/>
      <stop offset=".29" stop-color="#ffd500"/>
      <stop offset=".59" stop-color="#ffc800"/>
      <stop offset=".89" stop-color="#ffb400"/>
      <stop offset="1" stop-color="#fa0"/>
    </linearGradient>
  </defs>
  <path class="cls-9" d="M256,414.21c-14.08,0-25.6,11.52-25.6,25.6v46.59c0,14.08,11.52,25.6,25.6,25.6s25.6-11.52,25.6-25.6v-46.59c0-14.08-11.52-25.6-25.6-25.6Z"/>
  <path class="cls-8" d="M256,97.79c14.08,0,25.6-11.52,25.6-25.6V25.6c0-14.08-11.52-25.6-25.6-25.6s-25.6,11.52-25.6,25.6v46.59c0,14.08,11.52,25.6,25.6,25.6Z"/>
  <path class="cls-7" d="M486.4,230.4h-46.59c-14.08,0-25.6,11.52-25.6,25.6s11.52,25.6,25.6,25.6h46.59c14.08,0,25.6-11.52,25.6-25.6s-11.52-25.6-25.6-25.6Z"/>
  <path class="cls-6" d="M97.79,256c0-14.08-11.52-25.6-25.6-25.6H25.6c-14.08,0-25.6,11.52-25.6,25.6s11.52,25.6,25.6,25.6h46.59c14.08,0,25.6-11.52,25.6-25.6Z"/>
  <path class="cls-3" d="M107.95,367.87l-32.94,32.94c-9.98,9.98-9.98,26.28,0,36.18,9.98,9.98,26.28,9.98,36.18,0l32.94-32.94c9.98-9.98,9.98-26.2,0-36.18-9.9-9.98-26.28-9.98-36.18,0Z"/>
  <path class="cls-4" d="M404.05,144.13l32.94-32.94c9.98-9.98,9.98-26.28,0-36.18-9.98-9.98-26.2-9.98-36.18,0l-32.94,32.94c-9.98,9.98-9.98,26.28,0,36.18s26.28,9.98,36.18,0Z"/>
  <path class="cls-2" d="M404.05,367.87c-9.98-9.98-26.28-9.98-36.18,0-9.98,9.98-9.98,26.28,0,36.18l32.94,32.94c9.98,9.98,26.28,9.98,36.18,0,9.98-9.98,9.98-26.28,0-36.18l-32.94-32.94Z"/>
  <path class="cls-1" d="M107.95,144.13c9.98,9.98,26.28,9.98,36.18,0,9.98-9.98,9.98-26.28,0-36.18l-32.94-32.94c-9.98-9.98-26.28-9.98-36.18,0-9.98,9.98-9.98,26.28,0,36.18l32.94,32.94Z"/>
  <path class="cls-5" d="M256,128c-70.66,0-128,57.34-128,128s57.34,128,128,128,128-57.34,128-128-57.34-128-128-128ZM256,341.33c-47.1,0-85.33-38.23-85.33-85.33s38.23-85.33,85.33-85.33,85.33,38.23,85.33,85.33-38.23,85.33-85.33,85.33Z"/>
</svg>