<?xml version="1.0" encoding="UTF-8"?>
<svg id="Layer_1" data-name="Layer 1" xmlns="http://www.w3.org/2000/svg" xmlns:xlink="http://www.w3.org/1999/xlink" viewBox="0 0 512 512">
  <defs>
    <style>
      .cls-1 {
        fill: url(#linear-gradient-2);
      }

      .cls-2 {
        fill: url(#linear-gradient);
      }

      .cls-3 {
        fill: #fff;
      }
    </style>
    <linearGradient id="linear-gradient" x1="256" y1="2" x2="256" y2="514" gradientTransform="translate(0 514) scale(1 -1)" gradientUnits="userSpaceOnUse">
      <stop offset="0" stop-color="#35ad00"/>
      <stop offset=".13" stop-color="#39b900"/>
      <stop offset=".43" stop-color="#41cd00"/>
      <stop offset=".72" stop-color="#45da00"/>
      <stop offset="1" stop-color="#47de00"/>
    </linearGradient>
    <linearGradient id="linear-gradient-2" x1="256" y1="58" x2="256" y2="458" gradientTransform="translate(0 514) scale(1 -1)" gradientUnits="userSpaceOnUse">
      <stop offset="0" stop-color="#35ad00"/>
      <stop offset=".13" stop-color="#39b900"/>
      <stop offset=".43" stop-color="#41cd00"/>
      <stop offset=".72" stop-color="#45da00"/>
      <stop offset="1" stop-color="#47de00"/>
    </linearGradient>
  </defs>
  <path class="cls-2" d="M256,0C114.64,0,0,114.64,0,256s114.64,256,256,256,256-114.64,256-256S397.36,0,256,0h0Z"/>
  <circle class="cls-3" cx="256" cy="256" r="224"/>
  <circle class="cls-1" cx="256" cy="256" r="200"/>
  <path class="cls-3" d="M218,198.64c-9.52-5.28-20.8-7.92-33.92-7.92s-24.48,2.64-34,7.92-16.96,12.88-22.16,22.64c-5.28,9.76-7.92,21.28-7.92,34.56s2.56,24.96,7.76,34.72,12.56,17.36,22.16,22.72c9.6,5.36,20.96,8.08,34.08,8.08s24.4-2.64,33.92-8.08c9.52-5.36,16.8-12.96,22-22.72s7.76-21.36,7.76-34.72-2.64-24.72-7.76-34.56c-5.12-9.76-12.48-17.28-21.92-22.64ZM206.32,285.68c-5.52,6.64-12.96,10-22.32,10s-16.72-3.28-22.16-9.92c-5.52-6.64-8.24-16.64-8.24-30s2.72-23.12,8.24-29.68,12.88-9.84,22.16-9.84,16.72,3.28,22.32,9.92c5.52,6.64,8.32,16.48,8.32,29.6,0,13.28-2.72,23.28-8.32,29.92Z"/>
  <polygon class="cls-3" points="392 319.68 333.76 252.72 390 192.32 350.64 192.32 301.12 247.04 301.12 192.32 267.44 192.32 267.44 319.68 301.12 319.68 301.12 261.92 352.08 319.68 392 319.68"/>
</svg>