<?xml version="1.0" encoding="UTF-8"?>
<svg id="Layer_1" data-name="Layer 1" xmlns="http://www.w3.org/2000/svg" xmlns:xlink="http://www.w3.org/1999/xlink" viewBox="0 0 1097.03 512">
  <defs>
    <style>
      .cls-1 {
        fill: url(#linear-gradient);
      }
    </style>
    <linearGradient id="linear-gradient" x1="217.33" y1="606.91" x2="879.73" y2="-48.1" gradientTransform="translate(0 538.54) scale(1 -1.01)" gradientUnits="userSpaceOnUse">
      <stop offset="0" stop-color="#bc2af7"/>
      <stop offset=".99" stop-color="#a400cf"/>
    </linearGradient>
  </defs>
  <path class="cls-1" d="M835.94.03c-142.98,1.83-209.17,98-287.42,169.13C470.26,98.03,404.07,1.85,261.09.03,102.21-1.99,1.28,113.93,0,256c1.28,142.07,102.21,257.99,261.09,255.97,142.98-1.83,209.17-98,287.42-169.13,78.25,71.12,144.44,167.3,287.42,169.13,158.89,2.01,259.81-113.91,261.09-255.97C1095.94,113.93,994.83-1.99,835.94.03ZM261.09,412.69c-103.67,0-161.81-68.56-163.09-156.69,1.1-88.13,59.42-156.69,163.09-156.69s166.2,88.86,221.78,156.69c-55.58,67.83-118.66,156.69-221.78,156.69ZM835.94,412.69c-103.12,0-166.2-88.86-221.78-156.69,55.4-67.83,118.66-156.69,221.78-156.69s161.81,68.56,163.09,156.69c-1.28,88.13-59.42,156.69-163.09,156.69Z"/>
</svg>