<?xml version="1.0" encoding="UTF-8"?>
<svg id="Layer_1" data-name="Layer 1" xmlns="http://www.w3.org/2000/svg" xmlns:xlink="http://www.w3.org/1999/xlink" viewBox="0 0 512 512">
  <defs>
    <style>
      .cls-1 {
        fill: url(#linear-gradient);
      }

      .cls-2 {
        fill: #fff;
      }
    </style>
    <linearGradient id="linear-gradient" x1="256" y1="2" x2="256" y2="514" gradientTransform="translate(0 514) scale(1 -1)" gradientUnits="userSpaceOnUse">
      <stop offset="0" stop-color="#c90100"/>
      <stop offset=".21" stop-color="#dd1616"/>
      <stop offset=".48" stop-color="#f02b2a"/>
      <stop offset=".74" stop-color="#fb3737"/>
      <stop offset="1" stop-color="#ff3b3b"/>
    </linearGradient>
  </defs>
  <polygon class="cls-1" points="437.28 279.92 512 256 437.28 232.08 503.36 189.76 424.96 186 477.76 127.92 401.12 144.72 467.92 44.08 367.28 110.88 384.08 34.32 326 87.04 322.24 8.64 279.92 74.72 256 0 232.08 74.72 189.76 8.64 186 87.04 127.92 34.24 144.72 110.88 44.08 44.08 110.88 144.72 34.32 127.92 87.04 186 8.64 189.76 74.72 232.08 0 256 74.72 279.92 8.64 322.24 87.04 326 34.24 384.08 110.88 367.28 44.08 467.92 144.72 401.12 127.92 477.68 186 424.96 189.76 503.36 232.08 437.28 256 512 279.92 437.28 322.24 503.36 326 424.96 384.08 477.68 367.28 401.12 467.92 467.92 401.12 367.28 477.68 384.08 424.96 326 503.36 322.24 437.28 279.92"/>
  <path class="cls-2" d="M150.88,324.24c-4.96,0-9.92-.56-14.88-1.76s-9.6-2.88-13.92-5.04-8.08-4.8-11.12-7.76l8.24-24.88c4.88,4.24,10,7.44,15.52,9.52,5.44,2.16,10.96,3.2,16.48,3.2s10-1.04,12.96-3.2c2.96-2.08,4.4-4.96,4.4-8.56,0-2.16-.48-4-1.52-5.68-1.04-1.68-2.96-3.28-5.76-4.64-2.8-1.44-6.8-2.88-12.08-4.4-7.2-1.84-13.12-4.08-17.84-6.64-4.72-2.56-8.4-5.52-11.04-8.8-2.64-3.28-4.56-7.04-5.6-11.12s-1.6-8.72-1.6-13.84c0-8.08,1.76-15.44,5.2-21.92,3.44-6.48,8.24-11.6,14.4-15.36s13.36-5.6,21.6-5.6c4.8,0,9.44.56,14.16,1.76,4.64,1.2,8.96,2.88,12.96,5.04,4,2.16,7.2,4.8,9.76,7.76l-8.16,24.88c-4.48-4.24-9.12-7.44-14-9.52-4.88-2.16-9.68-3.2-14.4-3.2s-8.56,1.2-11.52,3.68c-2.88,2.4-4.32,5.68-4.32,9.84,0,2,.48,3.84,1.44,5.44s2.88,3.12,5.68,4.56c2.8,1.44,7.04,2.96,12.72,4.56,6.88,1.84,12.64,4.08,17.28,6.72s8.24,5.6,10.96,8.88c2.64,3.28,4.56,6.96,5.68,11.04,1.12,4.08,1.68,8.48,1.68,13.36,0,8.56-1.68,16-5.04,22.24s-8.24,11.04-14.72,14.4c-6.56,3.36-14.4,5.04-23.6,5.04Z"/>
  <path class="cls-2" d="M256.32,324.24c-10.24,0-19.2-2.8-26.72-8.4s-13.28-13.52-17.36-23.76c-4.08-10.24-6.08-22.32-6.08-36.32s2.08-25.84,6.16-36.08,9.92-18.08,17.36-23.68c7.44-5.52,16.32-8.32,26.64-8.32s19.12,2.8,26.56,8.32,13.2,13.44,17.2,23.68c4.08,10.24,6.08,22.24,6.08,36.08s-2,26.08-6.08,36.32-9.84,18.16-17.2,23.76c-7.44,5.6-16.24,8.4-26.56,8.4ZM256.32,297.52c7.28,0,13.12-3.52,17.44-10.48,4.32-6.96,6.48-17.36,6.48-31.28s-2.16-24-6.48-30.96c-4.32-6.88-10.16-10.4-17.44-10.4s-13.04,3.44-17.36,10.32-6.48,17.2-6.48,31.04,2.16,24.4,6.48,31.36,10.08,10.4,17.36,10.4Z"/>
  <path class="cls-2" d="M357.76,324.24c-4.96,0-9.92-.56-14.88-1.76s-9.6-2.88-13.92-5.04-8.08-4.8-11.12-7.76l8.24-24.88c4.88,4.24,10,7.44,15.52,9.52,5.44,2.16,10.96,3.2,16.48,3.2s10-1.04,12.96-3.2c2.96-2.08,4.4-4.96,4.4-8.56,0-2.16-.48-4-1.52-5.68-1.04-1.68-2.96-3.28-5.76-4.64-2.8-1.44-6.8-2.88-12.08-4.4-7.2-1.84-13.12-4.08-17.84-6.64-4.72-2.56-8.4-5.52-11.04-8.8-2.64-3.28-4.56-7.04-5.6-11.12s-1.6-8.72-1.6-13.84c0-8.08,1.76-15.44,5.2-21.92s8.24-11.6,14.4-15.36,13.36-5.6,21.6-5.6c4.8,0,9.52.56,14.16,1.76s8.96,2.88,12.96,5.04c4,2.16,7.2,4.8,9.76,7.76l-8.16,24.88c-4.48-4.24-9.12-7.44-14-9.52-4.88-2.16-9.68-3.2-14.4-3.2s-8.56,1.2-11.52,3.68c-2.88,2.4-4.32,5.68-4.32,9.84,0,2,.48,3.84,1.44,5.44s2.88,3.12,5.68,4.56,7.04,2.96,12.72,4.56c6.88,1.84,12.64,4.08,17.28,6.72,4.64,2.64,8.24,5.6,10.96,8.88,2.64,3.28,4.56,6.96,5.68,11.04,1.12,4.08,1.68,8.48,1.68,13.36,0,8.56-1.68,16-5.04,22.24-3.36,6.24-8.24,11.04-14.72,14.4-6.48,3.36-14.32,5.04-23.6,5.04Z"/>
</svg>