<?xml version="1.0" encoding="UTF-8"?>
<svg id="Layer_1" data-name="Layer 1" xmlns="http://www.w3.org/2000/svg" xmlns:xlink="http://www.w3.org/1999/xlink" viewBox="0 0 443.75 512">
  <defs>
    <style>
      .cls-1 {
        fill: url(#linear-gradient-4);
      }

      .cls-2 {
        fill: url(#linear-gradient-3);
      }

      .cls-3 {
        fill: url(#linear-gradient-2);
      }

      .cls-4 {
        fill: url(#linear-gradient);
      }
    </style>
    <linearGradient id="linear-gradient" x1="57.23" y1="45.84" x2="57.23" y2="517.86" gradientTransform="translate(0 514) scale(1 -1)" gradientUnits="userSpaceOnUse">
      <stop offset="0" stop-color="#c90100"/>
      <stop offset=".21" stop-color="#dd1616"/>
      <stop offset=".48" stop-color="#f02b2a"/>
      <stop offset=".74" stop-color="#fb3737"/>
      <stop offset="1" stop-color="#ff3b3b"/>
    </linearGradient>
    <linearGradient id="linear-gradient-2" x1="57.19" y1="1.87" x2="57.19" y2="544.97" gradientTransform="translate(0 514) scale(1 -1)" gradientUnits="userSpaceOnUse">
      <stop offset="0" stop-color="#c90100"/>
      <stop offset=".21" stop-color="#dd1616"/>
      <stop offset=".48" stop-color="#f02b2a"/>
      <stop offset=".74" stop-color="#fb3737"/>
      <stop offset="1" stop-color="#ff3b3b"/>
    </linearGradient>
    <linearGradient id="linear-gradient-3" x1="290.91" y1="1.87" x2="290.91" y2="544.97" gradientTransform="translate(0 514) scale(1 -1)" gradientUnits="userSpaceOnUse">
      <stop offset="0" stop-color="#c90100"/>
      <stop offset=".21" stop-color="#dd1616"/>
      <stop offset=".48" stop-color="#f02b2a"/>
      <stop offset=".74" stop-color="#fb3737"/>
      <stop offset="1" stop-color="#ff3b3b"/>
    </linearGradient>
    <linearGradient id="linear-gradient-4" x1="299.93" y1="45.84" x2="299.93" y2="517.86" gradientTransform="translate(0 514) scale(1 -1)" gradientUnits="userSpaceOnUse">
      <stop offset="0" stop-color="#c90100"/>
      <stop offset=".21" stop-color="#dd1616"/>
      <stop offset=".48" stop-color="#f02b2a"/>
      <stop offset=".74" stop-color="#fb3737"/>
      <stop offset="1" stop-color="#ff3b3b"/>
    </linearGradient>
  </defs>
  <path class="cls-4" d="M57.19,0C10.08,0-.41,14.42.01,42.67c.43,27.65,9.98,209.49,16.64,289.02,3.93,47.02,76.29,46.93,81.15,0,8.19-79.62,16.21-261.46,16.64-289.02C114.87,14.42,104.37,0,57.19,0Z"/>
  <path class="cls-3" d="M57.19,418.13c-25.94,0-46.93,20.99-46.93,46.93s20.99,46.93,46.93,46.93,46.93-20.99,46.93-46.93-20.99-46.93-46.93-46.93Z"/>
  <path class="cls-2" d="M290.91,418.13c-25.94,0-46.93,20.99-46.93,46.93s20.99,46.93,46.93,46.93,46.93-20.99,46.93-46.93-21.08-46.93-46.93-46.93Z"/>
  <path class="cls-1" d="M241.42,115.03c22.7-51.2,105.56-45.82,105.56,13.06,0,95.83-100.69,84.31-97.45,205.31,1.28,45.99,83.37,43.95,82.09-2.05-2.05-80.55,112.13-87.38,112.13-207.7,0-49.24-40.87-123.65-145.15-123.65-62.46,0-125.53,24.32-141.4,95.74-11.01,49.66,64.68,63.4,84.22,19.29Z"/>
</svg>