<?xml version="1.0" encoding="UTF-8"?>
<svg id="Layer_1" data-name="Layer 1" xmlns="http://www.w3.org/2000/svg" xmlns:xlink="http://www.w3.org/1999/xlink" viewBox="0 0 511.99 512">
  <defs>
    <style>
      .cls-1 {
        fill: #1a1626;
      }

      .cls-2 {
        fill: url(#linear-gradient);
      }
    </style>
    <linearGradient id="linear-gradient" x1="255.99" y1="2" x2="255.99" y2="514" gradientTransform="translate(0 514) scale(1 -1)" gradientUnits="userSpaceOnUse">
      <stop offset="0" stop-color="#f9c802"/>
      <stop offset="1" stop-color="#ffe12c"/>
    </linearGradient>
  </defs>
  <path class="cls-2" d="M33.28,512c-28.24,0-41.04-20.31-28.41-45.14L233.04,18.62c12.63-24.83,33.36-24.83,45.99,0l228.09,448.24c12.63,24.83-.17,45.14-28.41,45.14H33.28Z"/>
  <path class="cls-1" d="M33.28,493.82c-4.78,0-9.04-2.39-11.6-6.49-2.47-4.01-2.73-8.96-.6-13.23L243.79,31.68c2.39-4.61,7.08-7.42,12.2-7.42h0c5.21,0,9.81,2.9,12.12,7.51l222.71,442.43c2.13,4.27,1.96,9.22-.6,13.23-2.47,4.01-6.83,6.49-11.6,6.49l-445.34-.09ZM255.99,32.79h0c-1.96,0-3.67,1.02-4.52,2.82L28.76,477.95c-.77,1.62-.77,3.41.26,4.95.94,1.54,2.47,2.39,4.27,2.39h445.42c1.79,0,3.33-.85,4.27-2.39s1.02-3.33.26-4.95L260.52,35.52c-.85-1.71-2.56-2.73-4.52-2.73Z"/>
  <polygon class="cls-1" points="232.02 357.3 279.97 357.3 294.22 162.15 217.77 162.15 232.02 357.3"/>
  <rect class="cls-1" x="232.02" y="387.25" width="47.96" height="47.96"/>
</svg>