<?xml version="1.0" encoding="UTF-8"?>
<svg id="Layer_1" data-name="Layer 1" xmlns="http://www.w3.org/2000/svg" xmlns:xlink="http://www.w3.org/1999/xlink" viewBox="0 0 512.01 512">
  <defs>
    <style>
      .cls-1 {
        fill: url(#linear-gradient-5);
      }

      .cls-2 {
        fill: url(#linear-gradient-6);
      }

      .cls-3 {
        fill: url(#linear-gradient-4);
      }

      .cls-4 {
        fill: url(#linear-gradient-3);
      }

      .cls-5 {
        fill: url(#linear-gradient-2);
      }

      .cls-6 {
        fill: url(#linear-gradient);
      }
    </style>
    <linearGradient id="linear-gradient" x1="76.26" y1="114.94" x2="242.8" y2="114.94" gradientTransform="translate(0 514) scale(1 -1)" gradientUnits="userSpaceOnUse">
      <stop offset="0" stop-color="#006b2b"/>
      <stop offset=".18" stop-color="#077527"/>
      <stop offset=".49" stop-color="#188e1a"/>
      <stop offset=".88" stop-color="#35b807"/>
      <stop offset="1" stop-color="#3fc700"/>
    </linearGradient>
    <linearGradient id="linear-gradient-2" x1="148.96" y1="322.43" x2="40.16" y2="148.21" gradientTransform="translate(0 514) scale(1 -1)" gradientUnits="userSpaceOnUse">
      <stop offset="0" stop-color="#47de00"/>
      <stop offset=".39" stop-color="#46db00"/>
      <stop offset=".62" stop-color="#43d300"/>
      <stop offset=".81" stop-color="#3ec500"/>
      <stop offset=".98" stop-color="#36b100"/>
      <stop offset="1" stop-color="#35ad00"/>
    </linearGradient>
    <linearGradient id="linear-gradient-3" x1="387.84" y1="318.43" x2="466.77" y2="171.23" gradientTransform="translate(0 514) scale(1 -1)" gradientUnits="userSpaceOnUse">
      <stop offset="0" stop-color="#3fc700"/>
      <stop offset=".12" stop-color="#35b807"/>
      <stop offset=".51" stop-color="#188e1a"/>
      <stop offset=".82" stop-color="#077527"/>
      <stop offset="1" stop-color="#006b2b"/>
    </linearGradient>
    <linearGradient id="linear-gradient-4" x1="253.78" y1="127.29" x2="512.01" y2="127.29" gradientTransform="translate(0 514) scale(1 -1)" gradientUnits="userSpaceOnUse">
      <stop offset="0" stop-color="#47de00"/>
      <stop offset=".39" stop-color="#46db00"/>
      <stop offset=".62" stop-color="#43d300"/>
      <stop offset=".81" stop-color="#3ec500"/>
      <stop offset=".98" stop-color="#36b100"/>
      <stop offset="1" stop-color="#35ad00"/>
    </linearGradient>
    <linearGradient id="linear-gradient-5" x1="144.05" y1="351.06" x2="228.68" y2="491.86" gradientTransform="translate(0 514) scale(1 -1)" gradientUnits="userSpaceOnUse">
      <stop offset="0" stop-color="#3fc700"/>
      <stop offset=".12" stop-color="#35b807"/>
      <stop offset=".51" stop-color="#188e1a"/>
      <stop offset=".82" stop-color="#077527"/>
      <stop offset="1" stop-color="#006b2b"/>
    </linearGradient>
    <linearGradient id="linear-gradient-6" x1="372.57" y1="328.59" x2="273.01" y2="510.64" gradientTransform="translate(0 514) scale(1 -1)" gradientUnits="userSpaceOnUse">
      <stop offset="0" stop-color="#47de00"/>
      <stop offset=".39" stop-color="#46db00"/>
      <stop offset=".62" stop-color="#43d300"/>
      <stop offset=".81" stop-color="#3ec500"/>
      <stop offset=".98" stop-color="#36b100"/>
      <stop offset="1" stop-color="#35ad00"/>
    </linearGradient>
  </defs>
  <path class="cls-6" d="M129.5,464.85h113.3v-131.58H82.14s-5.47,45.99-5.85,61.4c-1.69,69.28,53.21,70.19,53.21,70.19Z"/>
  <path class="cls-5" d="M156.03,278.03l52.02,30.04-68.53-121.51L0,187.96l52.04,30.02-41.75,72.32c-4.23,7.33-8.7,19.18-2.52,29.9l70.89,122.79c12.7,22,34.81,21.87,50.84,21.87,0,0-72.7-14.93-26.23-95.44l52.76-91.39Z"/>
  <path class="cls-4" d="M499.78,261.42l-56.67-98.12-113.94,65.79,80.34,139.13s42.53-18.25,56.06-25.63c60.87-33.16,34.2-81.16,34.2-81.16Z"/>
  <path class="cls-3" d="M324.74,331.84v-60.03l-70.95,120.1,70.97,120.1v-60.07h83.46c8.47,0,20.98-2.07,27.17-12.77l70.88-122.77c12.69-22.02,1.54-41.1-6.48-54.98,0,0,23.4,70.42-69.52,70.42,0,0-105.53,0-105.53,0Z"/>
  <path class="cls-1" d="M144.2,33.09l-56.67,98.12,113.95,65.78,80.33-139.14s-37.09-27.72-50.23-35.74c-59.18-36.1-87.39,10.97-87.39,10.97Z"/>
  <path class="cls-2" d="M292.69,149.5l-52,30.04,139.49,1.37,68.53-121.51-52.02,30.05-41.74-72.3c-4.22-7.34-12.29-17.13-24.64-17.13h-141.76c-25.42,0-36.36,19.22-44.36,33.09,0,0,49.26-55.48,95.75,25.01l52.74,91.39Z"/>
</svg>