<?xml version="1.0" encoding="UTF-8"?>
<svg id="Layer_1" data-name="Layer 1" xmlns="http://www.w3.org/2000/svg" xmlns:xlink="http://www.w3.org/1999/xlink" viewBox="0 0 477.88 512">
  <defs>
    <style>
      .cls-1 {
        fill: url(#radial-gradient-7);
      }

      .cls-2 {
        fill: url(#radial-gradient-6);
      }

      .cls-3 {
        fill: url(#radial-gradient-5);
      }

      .cls-4 {
        fill: url(#radial-gradient-4);
      }

      .cls-5 {
        fill: url(#radial-gradient-3);
      }

      .cls-6 {
        fill: url(#radial-gradient-2);
      }

      .cls-7 {
        fill: url(#linear-gradient-3);
      }

      .cls-8 {
        fill: url(#linear-gradient-2);
      }

      .cls-9 {
        fill: url(#radial-gradient);
      }

      .cls-10 {
        fill: url(#linear-gradient);
      }
    </style>
    <linearGradient id="linear-gradient" x1="18.51" y1="218.53" x2="247.52" y2="218.53" gradientTransform="translate(0 514) scale(1 -1)" gradientUnits="userSpaceOnUse">
      <stop offset="0" stop-color="#cfdde6"/>
      <stop offset=".09" stop-color="#c9d7e0"/>
      <stop offset=".21" stop-color="#b7c5ce"/>
      <stop offset=".35" stop-color="#9aa9b0"/>
      <stop offset=".43" stop-color="#86959c"/>
      <stop offset="1" stop-color="#bfd1d9"/>
    </linearGradient>
    <radialGradient id="radial-gradient" cx="-1908.39" cy="124.37" fx="-1908.39" fy="124.37" r="116.21" gradientTransform="translate(-1850.2376 514) rotate(-180) scale(1.0353 1)" gradientUnits="userSpaceOnUse">
      <stop offset="0" stop-color="#a3b5bd"/>
      <stop offset=".3" stop-color="#9fb0b8"/>
      <stop offset=".65" stop-color="#93a3aa"/>
      <stop offset="1" stop-color="#818f94"/>
    </radialGradient>
    <radialGradient id="radial-gradient-2" cx="61.38" cy="571.61" fx="61.38" fy="571.61" r="44.47" gradientTransform="translate(-16.7399 1937.948) scale(.9801 -2.8728)" gradientUnits="userSpaceOnUse">
      <stop offset="0" stop-color="#cfdde6"/>
      <stop offset=".12" stop-color="#c9d7e0"/>
      <stop offset=".28" stop-color="#b7c5ce"/>
      <stop offset=".47" stop-color="#9aa9b0"/>
      <stop offset=".58" stop-color="#86959c"/>
      <stop offset="1" stop-color="#bfd1d9"/>
    </radialGradient>
    <linearGradient id="linear-gradient-2" x1="-2147.03" y1="218.53" x2="-1926.67" y2="218.53" gradientTransform="translate(-1687.7256 514) rotate(-180)" gradientUnits="userSpaceOnUse">
      <stop offset="0" stop-color="#bfd1d9"/>
      <stop offset=".57" stop-color="#86959c"/>
      <stop offset=".65" stop-color="#9aa9b0"/>
      <stop offset=".79" stop-color="#b7c5ce"/>
      <stop offset=".91" stop-color="#c9d7e0"/>
      <stop offset="1" stop-color="#cfdde6"/>
    </linearGradient>
    <linearGradient id="linear-gradient-3" x1="238.95" y1="347.6" x2="238.95" y2="407.33" gradientTransform="translate(0 514) scale(1 -1)" gradientUnits="userSpaceOnUse">
      <stop offset=".2" stop-color="#86959c"/>
      <stop offset=".39" stop-color="#aab8c0"/>
      <stop offset=".57" stop-color="#c5d3dc"/>
      <stop offset=".67" stop-color="#cfdde6"/>
      <stop offset=".71" stop-color="#c8d7e0"/>
      <stop offset=".79" stop-color="#c1d2db"/>
      <stop offset="1" stop-color="#bfd1d9"/>
    </linearGradient>
    <radialGradient id="radial-gradient-3" cx="183.4" cy="124.37" fx="183.4" fy="124.37" r="116.26" gradientTransform="translate(162.49 514) scale(1.04 -1)" gradientUnits="userSpaceOnUse">
      <stop offset="0" stop-color="#a3b5bd"/>
      <stop offset=".3" stop-color="#9fb0b8"/>
      <stop offset=".65" stop-color="#93a3aa"/>
      <stop offset="1" stop-color="#818f94"/>
    </radialGradient>
    <radialGradient id="radial-gradient-4" cx="-2148.03" cy="571.61" fx="-2148.03" fy="571.61" r="44.48" gradientTransform="translate(-1670.8881 1937.948) rotate(-180) scale(.9801 2.8728)" gradientUnits="userSpaceOnUse">
      <stop offset="0" stop-color="#cfdde6"/>
      <stop offset=".12" stop-color="#c9d7e0"/>
      <stop offset=".28" stop-color="#b7c5ce"/>
      <stop offset=".47" stop-color="#9aa9b0"/>
      <stop offset=".58" stop-color="#86959c"/>
      <stop offset="1" stop-color="#bfd1d9"/>
    </radialGradient>
    <radialGradient id="radial-gradient-5" cx="121.36" cy="391.56" fx="121.36" fy="391.56" r="43" gradientTransform="translate(0 514) scale(1 -1)" gradientUnits="userSpaceOnUse">
      <stop offset="0" stop-color="#cfdde6"/>
      <stop offset=".17" stop-color="#c9d7e0"/>
      <stop offset=".4" stop-color="#b7c5ce"/>
      <stop offset=".67" stop-color="#9aa9b0"/>
      <stop offset=".82" stop-color="#86959c"/>
      <stop offset="1" stop-color="#99a8ae"/>
    </radialGradient>
    <radialGradient id="radial-gradient-6" cx="343.23" cy="391.56" fx="343.23" fy="391.56" r="43" gradientTransform="translate(0 514) scale(1 -1)" gradientUnits="userSpaceOnUse">
      <stop offset="0" stop-color="#cfdde6"/>
      <stop offset=".17" stop-color="#c9d7e0"/>
      <stop offset=".4" stop-color="#b7c5ce"/>
      <stop offset=".67" stop-color="#9aa9b0"/>
      <stop offset=".82" stop-color="#86959c"/>
      <stop offset="1" stop-color="#99a8ae"/>
    </radialGradient>
    <radialGradient id="radial-gradient-7" cx="229.7" cy="472.76" fx="229.7" fy="472.76" r="60.8" gradientTransform="translate(0 514) scale(1 -1)" gradientUnits="userSpaceOnUse">
      <stop offset="0" stop-color="#cfdde6"/>
      <stop offset=".17" stop-color="#c9d7e0"/>
      <stop offset=".4" stop-color="#b7c5ce"/>
      <stop offset=".67" stop-color="#9aa9b0"/>
      <stop offset=".82" stop-color="#86959c"/>
      <stop offset="1" stop-color="#99a8ae"/>
    </radialGradient>
  </defs>
  <path class="cls-10" d="M221,78.93c-4.93,51.17-2.54,230.35-18.1,305.07-14.4,69.15-142.34-.81-169.03-71.3-4.59,2.59-9.16,5.17-13.7,7.76,3.62,24.92,15.49,77.22,44.91,97.68,55.14,38.38,125.52,51.88,173.87,93.87l8.58-433.07h-26.52Z"/>
  <path class="cls-9" d="M20.16,320.45c-2.22,1.26-5.86,2.36-8.07,3.61,8.26,162.59,182.11,144.5,226.85,187.94-27.66-60.71-192.03-62.13-218.78-191.55Z"/>
  <path class="cls-6" d="M30.23,253.26c-2.21-11.26-39.55,25.97-28.03,101.1,1.62,10.62,15.82-12.24,61.55-17.88,12.51-1.54-18.88-8.61-33.52-83.23Z"/>
  <path class="cls-8" d="M256.9,78.93c4.93,51.17,2.54,230.35,18.09,305.07,14.4,69.15,142.35-.81,169.04-71.3,4.58,2.59,9.15,5.17,13.7,7.76-3.61,24.92-15.48,77.22-44.9,97.68-55.15,38.38-125.53,51.88-173.88,93.87V78.93h17.95Z"/>
  <path class="cls-7" d="M238.94,106.67c-18.76,16.37-111.39,14.93-111.39,14.93v29.87s94.85.5,111.39,14.93c16.56-14.43,111.4-14.93,111.4-14.93v-29.87s-92.64,1.43-111.4-14.93Z"/>
  <path class="cls-5" d="M457.72,320.45c2.22,1.26,5.87,2.36,8.07,3.61-8.26,162.59-182.13,144.51-226.85,187.94,27.66-60.71,192.03-62.13,218.78-191.55Z"/>
  <path class="cls-4" d="M447.65,253.26c2.21-11.26,39.55,25.97,28.02,101.11-1.62,10.61-15.82-12.25-61.55-17.89-12.51-1.54,18.89-8.61,33.53-83.23Z"/>
  <circle class="cls-3" cx="128.01" cy="136.53" r="29.87"/>
  <circle class="cls-2" cx="349.87" cy="136.53" r="29.87"/>
  <path class="cls-1" d="M238.94,0c-28.27,0-51.2,22.94-51.2,51.2s22.94,51.2,51.2,51.2,51.2-22.94,51.2-51.2S267.21,0,238.94,0ZM238.94,76.8c-14.11,0-25.6-11.48-25.6-25.6s11.49-25.6,25.6-25.6,25.6,11.48,25.6,25.6-11.47,25.6-25.6,25.6Z"/>
</svg>