<?xml version="1.0" encoding="UTF-8"?>
<svg id="Layer_1" data-name="Layer 1" xmlns="http://www.w3.org/2000/svg" xmlns:xlink="http://www.w3.org/1999/xlink" viewBox="0 0 585.15 512">
  <defs>
    <style>
      .cls-1 {
        fill: #b3c2c6;
      }

      .cls-2 {
        fill: #cfd8dd;
      }

      .cls-3 {
        fill: #7ab51d;
      }

      .cls-4 {
        fill: #6e8189;
      }

      .cls-5 {
        fill: url(#linear-gradient-8);
      }

      .cls-6 {
        fill: url(#linear-gradient-7);
      }

      .cls-7 {
        fill: url(#linear-gradient-5);
      }

      .cls-8 {
        fill: url(#linear-gradient-6);
      }

      .cls-9 {
        fill: url(#linear-gradient-9);
      }

      .cls-10 {
        fill: url(#linear-gradient-4);
      }

      .cls-11 {
        fill: url(#linear-gradient-3);
      }

      .cls-12 {
        fill: url(#linear-gradient-2);
      }

      .cls-13 {
        fill: #785647;
      }

      .cls-14, .cls-15 {
        fill: #99a8ae;
      }

      .cls-16 {
        fill: url(#linear-gradient);
      }

      .cls-17 {
        fill: #b9c7cf;
      }

      .cls-15 {
        isolation: isolate;
        opacity: .2;
      }

      .cls-18 {
        fill: #ccd3d9;
      }

      .cls-19 {
        fill: #92c932;
      }

      .cls-20 {
        fill: #9e6c49;
      }

      .cls-21 {
        fill: url(#linear-gradient-10);
      }

      .cls-22 {
        fill: url(#linear-gradient-11);
      }

      .cls-23 {
        fill: url(#linear-gradient-12);
      }

      .cls-24 {
        fill: url(#linear-gradient-13);
      }

      .cls-25 {
        fill: url(#linear-gradient-19);
      }

      .cls-26 {
        fill: url(#linear-gradient-14);
      }

      .cls-27 {
        fill: url(#linear-gradient-15);
      }

      .cls-28 {
        fill: url(#linear-gradient-16);
      }

      .cls-29 {
        fill: url(#linear-gradient-17);
      }

      .cls-30 {
        fill: url(#linear-gradient-18);
      }

      .cls-31 {
        fill: #302c3b;
      }

      .cls-32 {
        fill: #e6ebef;
      }

      .cls-33 {
        fill: #cfdbde;
      }
    </style>
    <linearGradient id="linear-gradient" x1="486.3" y1="154.89" x2="528.57" y2="154.89" gradientTransform="translate(0 510) scale(1 -1)" gradientUnits="userSpaceOnUse">
      <stop offset="0" stop-color="#f3f8fc"/>
      <stop offset="1" stop-color="#c6cfd4"/>
    </linearGradient>
    <linearGradient id="linear-gradient-2" x1="482.93" y1="222.39" x2="531.93" y2="222.39" gradientTransform="translate(0 510) scale(1 -1)" gradientUnits="userSpaceOnUse">
      <stop offset="0" stop-color="#ecf1f5"/>
      <stop offset=".14" stop-color="#e2e8ed"/>
      <stop offset=".7" stop-color="#c0cacf"/>
      <stop offset="1" stop-color="#b3bec4"/>
    </linearGradient>
    <linearGradient id="linear-gradient-3" x1="466.29" y1="260.24" x2="548.58" y2="260.24" gradientTransform="translate(0 510) scale(1 -1)" gradientUnits="userSpaceOnUse">
      <stop offset="0" stop-color="#ecf1f5"/>
      <stop offset=".14" stop-color="#e2e8ed"/>
      <stop offset=".7" stop-color="#c0cacf"/>
      <stop offset="1" stop-color="#b3bec4"/>
    </linearGradient>
    <linearGradient id="linear-gradient-4" x1="478.86" y1="239.62" x2="536" y2="239.62" gradientTransform="translate(0 510) scale(1 -1)" gradientUnits="userSpaceOnUse">
      <stop offset="0" stop-color="#ecf1f5"/>
      <stop offset=".14" stop-color="#e2e8ed"/>
      <stop offset=".7" stop-color="#c0cacf"/>
      <stop offset="1" stop-color="#b3bec4"/>
    </linearGradient>
    <linearGradient id="linear-gradient-5" x1="466.29" y1="247.86" x2="548.58" y2="247.86" gradientTransform="translate(0 510) scale(1 -1)" gradientUnits="userSpaceOnUse">
      <stop offset="0" stop-color="#f3f8fc"/>
      <stop offset="1" stop-color="#c6cfd4"/>
    </linearGradient>
    <linearGradient id="linear-gradient-6" x1="482.93" y1="73.6" x2="531.93" y2="73.6" gradientTransform="translate(0 510) scale(1 -1)" gradientUnits="userSpaceOnUse">
      <stop offset="0" stop-color="#ecf1f5"/>
      <stop offset=".14" stop-color="#e2e8ed"/>
      <stop offset=".7" stop-color="#c0cacf"/>
      <stop offset="1" stop-color="#b3bec4"/>
    </linearGradient>
    <linearGradient id="linear-gradient-7" x1="480.12" y1="70.69" x2="534.75" y2="70.69" gradientTransform="translate(0 510) scale(1 -1)" gradientUnits="userSpaceOnUse">
      <stop offset="0" stop-color="#f3f8fc"/>
      <stop offset="1" stop-color="#c6cfd4"/>
    </linearGradient>
    <linearGradient id="linear-gradient-8" x1="476.29" y1="58.59" x2="538.58" y2="58.59" gradientTransform="translate(0 510) scale(1 -1)" gradientUnits="userSpaceOnUse">
      <stop offset="0" stop-color="#ecf1f5"/>
      <stop offset=".14" stop-color="#e2e8ed"/>
      <stop offset=".7" stop-color="#c0cacf"/>
      <stop offset="1" stop-color="#b3bec4"/>
    </linearGradient>
    <linearGradient id="linear-gradient-9" x1="473.46" y1="45.99" x2="541.41" y2="45.99" gradientTransform="translate(0 510) scale(1 -1)" gradientUnits="userSpaceOnUse">
      <stop offset="0" stop-color="#f3f8fc"/>
      <stop offset="1" stop-color="#c6cfd4"/>
    </linearGradient>
    <linearGradient id="linear-gradient-10" x1="56.58" y1="154.89" x2="98.86" y2="154.89" gradientTransform="translate(0 510) scale(1 -1)" gradientUnits="userSpaceOnUse">
      <stop offset="0" stop-color="#f3f8fc"/>
      <stop offset="1" stop-color="#c6cfd4"/>
    </linearGradient>
    <linearGradient id="linear-gradient-11" x1="53.22" y1="222.39" x2="102.21" y2="222.39" gradientTransform="translate(0 510) scale(1 -1)" gradientUnits="userSpaceOnUse">
      <stop offset="0" stop-color="#ecf1f5"/>
      <stop offset=".14" stop-color="#e2e8ed"/>
      <stop offset=".7" stop-color="#c0cacf"/>
      <stop offset="1" stop-color="#b3bec4"/>
    </linearGradient>
    <linearGradient id="linear-gradient-12" x1="36.58" y1="260.24" x2="118.86" y2="260.24" gradientTransform="translate(0 510) scale(1 -1)" gradientUnits="userSpaceOnUse">
      <stop offset="0" stop-color="#ecf1f5"/>
      <stop offset=".14" stop-color="#e2e8ed"/>
      <stop offset=".7" stop-color="#c0cacf"/>
      <stop offset="1" stop-color="#b3bec4"/>
    </linearGradient>
    <linearGradient id="linear-gradient-13" x1="49.15" y1="239.62" x2="106.29" y2="239.62" gradientTransform="translate(0 510) scale(1 -1)" gradientUnits="userSpaceOnUse">
      <stop offset="0" stop-color="#ecf1f5"/>
      <stop offset=".14" stop-color="#e2e8ed"/>
      <stop offset=".7" stop-color="#c0cacf"/>
      <stop offset="1" stop-color="#b3bec4"/>
    </linearGradient>
    <linearGradient id="linear-gradient-14" x1="36.58" y1="247.86" x2="118.86" y2="247.86" gradientTransform="translate(0 510) scale(1 -1)" gradientUnits="userSpaceOnUse">
      <stop offset="0" stop-color="#f3f8fc"/>
      <stop offset="1" stop-color="#c6cfd4"/>
    </linearGradient>
    <linearGradient id="linear-gradient-15" x1="53.22" y1="73.6" x2="102.21" y2="73.6" gradientTransform="translate(0 510) scale(1 -1)" gradientUnits="userSpaceOnUse">
      <stop offset="0" stop-color="#ecf1f5"/>
      <stop offset=".14" stop-color="#e2e8ed"/>
      <stop offset=".7" stop-color="#c0cacf"/>
      <stop offset="1" stop-color="#b3bec4"/>
    </linearGradient>
    <linearGradient id="linear-gradient-16" x1="50.41" y1="70.69" x2="105.04" y2="70.69" gradientTransform="translate(0 510) scale(1 -1)" gradientUnits="userSpaceOnUse">
      <stop offset="0" stop-color="#f3f8fc"/>
      <stop offset="1" stop-color="#c6cfd4"/>
    </linearGradient>
    <linearGradient id="linear-gradient-17" x1="46.57" y1="58.59" x2="108.87" y2="58.59" gradientTransform="translate(0 510) scale(1 -1)" gradientUnits="userSpaceOnUse">
      <stop offset="0" stop-color="#ecf1f5"/>
      <stop offset=".14" stop-color="#e2e8ed"/>
      <stop offset=".7" stop-color="#c0cacf"/>
      <stop offset="1" stop-color="#b3bec4"/>
    </linearGradient>
    <linearGradient id="linear-gradient-18" x1="43.74" y1="45.99" x2="111.69" y2="45.99" gradientTransform="translate(0 510) scale(1 -1)" gradientUnits="userSpaceOnUse">
      <stop offset="0" stop-color="#f3f8fc"/>
      <stop offset="1" stop-color="#c6cfd4"/>
    </linearGradient>
    <linearGradient id="linear-gradient-19" x1="292.58" y1="316.67" x2="292.58" y2="461.66" gradientTransform="translate(0 510) scale(1 -1)" gradientUnits="userSpaceOnUse">
      <stop offset="0" stop-color="#e7ecf0"/>
      <stop offset="1" stop-color="#99a8ae"/>
    </linearGradient>
  </defs>
  <rect class="cls-32" x="64" y="246.86" width="457.14" height="219.43"/>
  <rect class="cls-16" x="486.3" y="267.58" width="42.28" height="175.05"/>
  <rect class="cls-12" x="482.93" y="284.7" width="49" height="5.81"/>
  <rect class="cls-11" x="466.29" y="242.29" width="82.29" height="14.96"/>
  <path class="cls-10" d="M531.94,276.73h-49.01s-5.92-5.92-3.47-9.69c2.61-4,53.33-4,55.95,0,2.46,3.76-3.47,9.69-3.47,9.69Z"/>
  <polygon class="cls-7" points="541.02 267.04 473.85 267.04 466.29 257.24 548.58 257.24 541.02 267.04"/>
  <rect class="cls-8" x="482.93" y="433.49" width="49" height="5.81"/>
  <rect class="cls-6" x="480.12" y="436.4" width="54.63" height="5.81"/>
  <path class="cls-5" d="M538.22,457.16c-34.46,7.76-61.57,0-61.57,0-2.12-3.36,5.79-14.95,5.79-14.95h50s7.91,11.59,5.78,14.95Z"/>
  <rect class="cls-9" x="473.46" y="457.16" width="67.95" height="13.7"/>
  <rect class="cls-15" x="505.49" y="293.1" width="3.89" height="135.19"/>
  <rect class="cls-15" x="512.28" y="293.1" width="3.91" height="135.19"/>
  <rect class="cls-15" x="498.67" y="293.1" width="3.91" height="135.19"/>
  <rect class="cls-15" x="518.84" y="293.1" width="3.09" height="135.19"/>
  <rect class="cls-15" x="492.93" y="293.1" width="3.09" height="135.19"/>
  <rect class="cls-15" x="523.39" y="293.1" width="2.11" height="135.19"/>
  <rect class="cls-15" x="489.36" y="293.1" width="2.11" height="135.19"/>
  <rect class="cls-21" x="56.58" y="267.58" width="42.28" height="175.05"/>
  <rect class="cls-22" x="53.22" y="284.7" width="49" height="5.81"/>
  <rect class="cls-23" x="36.58" y="242.29" width="82.29" height="14.96"/>
  <path class="cls-24" d="M102.22,276.73h-49.01s-5.92-5.92-3.47-9.69c2.61-4,53.33-4,55.95,0,2.46,3.76-3.47,9.69-3.47,9.69Z"/>
  <polygon class="cls-26" points="111.3 267.04 44.14 267.04 36.58 257.24 118.86 257.24 111.3 267.04"/>
  <rect class="cls-27" x="53.22" y="433.49" width="49" height="5.81"/>
  <rect class="cls-28" x="50.41" y="436.4" width="54.63" height="5.81"/>
  <path class="cls-29" d="M108.5,457.16c-34.46,7.76-61.57,0-61.57,0-2.12-3.36,5.79-14.95,5.79-14.95h50s7.91,11.59,5.78,14.95Z"/>
  <rect class="cls-30" x="43.74" y="457.16" width="67.95" height="13.7"/>
  <rect class="cls-15" x="75.77" y="293.1" width="3.89" height="135.19"/>
  <rect class="cls-15" x="82.56" y="293.1" width="3.91" height="135.19"/>
  <rect class="cls-15" x="68.96" y="293.1" width="3.91" height="135.19"/>
  <rect class="cls-15" x="89.13" y="293.1" width="3.09" height="135.19"/>
  <rect class="cls-15" x="63.22" y="293.1" width="3.09" height="135.19"/>
  <rect class="cls-15" x="93.67" y="293.1" width="2.11" height="135.19"/>
  <rect class="cls-15" x="59.64" y="293.1" width="2.11" height="135.19"/>
  <rect class="cls-18" x="36.58" y="466.29" width="512" height="45.71"/>
  <path class="cls-14" d="M292.58,274.29c-35.36,0-64,28.66-64,64v128h128v-128c0-35.34-28.64-64-64-64Z"/>
  <path class="cls-20" d="M292.58,283.43c-30.3,0-54.86,24.56-54.86,54.86v128h109.71v-128c0-30.3-24.56-54.86-54.86-54.86Z"/>
  <path class="cls-13" d="M338.29,352v50.29h-34.29v-50.29h34.29M342.86,347.43h-43.43v59.43h43.43v-59.43h0Z"/>
  <path class="cls-13" d="M338.29,416v41.14h-34.29v-41.14h34.29M342.86,411.43h-43.43v50.29h43.43v-50.29h0Z"/>
  <path class="cls-13" d="M281.15,352v50.29h-34.29v-50.29h34.29M285.72,347.43h-43.43v59.43h43.43v-59.43h0Z"/>
  <path class="cls-13" d="M281.15,416v41.14h-34.29v-41.14h34.29M285.72,411.43h-43.43v50.29h43.43v-50.29h0Z"/>
  <rect class="cls-13" x="290.29" y="338.29" width="4.57" height="128"/>
  <rect class="cls-13" x="237.72" y="338.29" width="109.71" height="4.57"/>
  <path class="cls-31" d="M289.15,330v-41.82c-11.3.75-21.55,5.23-29.59,12.23l29.59,29.59Z"/>
  <path class="cls-31" d="M301.99,333.71h40.63c-.98-10.86-5.41-20.68-12.19-28.44l-28.44,28.44Z"/>
  <path class="cls-31" d="M296,288.18v41.82l29.59-29.59c-8.03-7-18.29-11.48-29.59-12.23Z"/>
  <path class="cls-31" d="M283.16,333.71l-28.44-28.44c-6.77,7.75-11.21,17.59-12.19,28.44h40.63Z"/>
  <path id="Rectangle" class="cls-1" d="M296,421.64v-25c0-1.63,2.29-1.63,2.29,0v25c0,1.61-2.29,1.61-2.29,0Z"/>
  <path id="Rectangle-2" data-name="Rectangle" class="cls-33" d="M296.08,397.25h2.14c1.62,0,1.62,2.29,0,2.29h-2.14c-1.62,0-1.62-2.29,0-2.29Z"/>
  <path id="Rectangle-3" data-name="Rectangle" class="cls-33" d="M296.08,418.73h2.14c1.62,0,1.62,2.29,0,2.29h-2.14c-1.62,0-1.62-2.29,0-2.29Z"/>
  <path id="Rectangle-4" data-name="Rectangle" class="cls-1" d="M286.86,421.64v-25c0-1.63,2.29-1.63,2.29,0v25c0,1.61-2.29,1.61-2.29,0Z"/>
  <path id="Rectangle-5" data-name="Rectangle" class="cls-33" d="M286.94,397.25h2.14c1.62,0,1.62,2.29,0,2.29h-2.14c-1.62,0-1.62-2.29,0-2.29Z"/>
  <path id="Rectangle-6" data-name="Rectangle" class="cls-33" d="M286.94,418.73h2.14c1.62,0,1.62,2.29,0,2.29h-2.14c-1.62,0-1.62-2.29,0-2.29Z"/>
  <path class="cls-3" d="M157.17,460.23c13.42-4.99,20.62,5.72,20.62,5.72,4.45-2.54,18.34-.96,19.23,13.55,3.81,2.49,9.19,11,5.46,17.36,12.45,2.82,6.29,15.13,6.29,15.13h-99.02s-9.67-10.72,2.43-18.2c-2.69-5.44,2.9-19.37,13.47-19.5-2.93-3.17,4.7-8.18,10.48-8.84,3.15-7.73,12.76-11.34,21.05-5.22Z"/>
  <path class="cls-3" d="M51.08,469.58c13.44-4.08,20.64,4.71,20.64,4.71,4.43-2.1,18.32-.8,19.23,11.09,3.8,2.06,9.18,9,5.46,14.24,12.44,2.3,6.28,12.39,6.28,12.39H3.66s-9.67-8.8,2.42-14.91c-2.69-4.47,2.91-15.89,13.46-15.99-2.93-2.61,4.72-6.7,10.5-7.24,3.16-6.34,12.76-9.28,21.04-4.28Z"/>
  <path class="cls-19" d="M99.55,464.58c13.44-4.57,20.64,5.23,20.64,5.23,4.44-2.32,18.33-.87,19.22,12.43,3.81,2.28,9.19,10.08,5.47,15.91,12.43,2.57,6.28,13.86,6.28,13.86H52.14s-9.67-9.81,2.42-16.69c-2.69-4.97,2.91-17.73,13.46-17.86-2.93-2.91,4.71-7.5,10.49-8.1,3.17-7.09,12.75-10.4,21.05-4.78Z"/>
  <path class="cls-3" d="M427.98,460.23c-13.42-4.99-20.63,5.71-20.63,5.71-4.44-2.53-18.33-.95-19.22,13.56-3.81,2.48-9.19,11-5.46,17.36-12.45,2.81-6.3,15.13-6.3,15.13h99.02s9.68-10.72-2.41-18.2c2.69-5.45-2.91-19.38-13.48-19.51,2.94-3.16-4.7-8.16-10.48-8.83-3.15-7.73-12.76-11.35-21.05-5.22Z"/>
  <path class="cls-3" d="M534.07,469.58c-13.43-4.08-20.63,4.7-20.63,4.7-4.44-2.09-18.32-.79-19.23,11.09-3.8,2.07-9.18,9.01-5.47,14.24-12.43,2.31-6.27,12.4-6.27,12.4h99.02s9.67-8.79-2.42-14.91c2.68-4.47-2.91-15.89-13.46-15.99,2.93-2.61-4.71-6.71-10.49-7.24-3.17-6.33-12.76-9.28-21.06-4.28Z"/>
  <path class="cls-19" d="M485.59,464.58c-13.43-4.57-20.63,5.25-20.63,5.25-4.45-2.34-18.33-.89-19.22,12.39-3.81,2.29-9.19,10.09-5.46,15.93-12.44,2.57-6.29,13.86-6.29,13.86h99.02s9.67-9.82-2.42-16.69c2.68-4.96-2.91-17.72-13.46-17.86,2.93-2.9-4.71-7.49-10.49-8.11-3.17-7.07-12.75-10.39-21.06-4.76Z"/>
  <path class="cls-2" d="M408.29,502.86h-231.43c-3.99,0-7.72,2.86-7.72,5.98v3.16h246.86v-3.16c0-3.12-3.72-5.98-7.71-5.98Z"/>
  <path class="cls-32" d="M394.57,493.71h-204c-3.99,0-7.72,2.86-7.72,5.98v3.16h219.43v-3.16c0-3.12-3.73-5.98-7.72-5.98Z"/>
  <path class="cls-2" d="M380.86,484.57h-176.57c-3.99,0-7.72,2.86-7.72,5.98v3.16h192v-3.16c0-3.12-3.73-5.98-7.72-5.98Z"/>
  <path class="cls-32" d="M367.15,475.43h-149.14c-3.99,0-7.72,2.86-7.72,5.98v3.16h164.57v-3.16c0-3.12-3.73-5.98-7.72-5.98Z"/>
  <path class="cls-2" d="M353.43,466.29h-121.71c-3.99,0-7.72,2.86-7.72,5.98v3.16h137.14v-3.16c0-3.12-3.73-5.98-7.72-5.98Z"/>
  <rect class="cls-14" x="388.58" y="310.86" width="73.14" height="91.43"/>
  <rect class="cls-31" x="393.15" y="315.43" width="64" height="82.29"/>
  <rect class="cls-14" x="390.86" y="354.29" width="68.57" height="4.57"/>
  <rect class="cls-14" x="422.86" y="313.14" width="4.57" height="86.86"/>
  <rect class="cls-14" x="123.43" y="310.86" width="73.14" height="91.43"/>
  <rect class="cls-31" x="128" y="315.43" width="64" height="82.29"/>
  <rect class="cls-14" x="125.72" y="354.29" width="68.57" height="4.57"/>
  <rect class="cls-14" x="157.72" y="313.14" width="4.57" height="86.86"/>
  <rect class="cls-32" x="29.26" y="205.47" width="526.63" height="26.45"/>
  <path class="cls-2" d="M557.12,246.86H28.04c-15.11,0-15.11-19.84,0-19.84h529.07c15.12,0,15.12,19.84,0,19.84Z"/>
  <polygon class="cls-32" points="292.47 16.22 22.97 178.41 22.97 202.7 562.18 202.7 562.18 178.41 292.47 16.22"/>
  <polygon class="cls-17" points="292.47 0 0 180.9 18.29 194.4 292.47 24.81 566.86 194.4 585.15 180.89 292.47 0"/>
  <polygon class="cls-2" points="292.47 32.55 18.29 202.14 18.29 209.87 566.86 209.87 566.86 202.14 292.47 32.55"/>
  <polygon class="cls-25" points="292.47 48.34 64.75 193.33 520.4 193.33 292.47 48.34"/>
  <path class="cls-4" d="M229.58,152.98c2.19-.74,4-1.9,5.28-3.6,1.42-1.87,2.12-4.04,2.12-6.58,0-3.68-1.39-6.58-4.18-8.7-2.78-2.1-6.52-3.18-11.24-3.18h-21.06v45.71h21.71c4.96,0,8.87-1.13,11.71-3.38s4.28-5.29,4.28-9.13c0-2.95-.81-5.41-2.42-7.4-1.45-1.79-3.58-2.99-6.2-3.73ZM210.35,138.63h9.55c2.58,0,4.47.44,5.71,1.31,1.24.88,1.86,2.27,1.86,4.15s-.59,3.21-1.82,4.1c-1.22.91-3.15,1.35-5.75,1.35h-9.55v-10.91ZM226.94,167.57c-1.23.91-3.18,1.34-5.88,1.34h-10.72v-11.68h10.72c2.7,0,4.65.48,5.88,1.45,1.23.95,1.83,2.44,1.83,4.45s-.6,3.53-1.83,4.43Z"/>
  <path class="cls-4" d="M260.86,130.92l-20.99,45.71h10.09l4.38-10.15h21.31l4.35,10.15h9.94l-20.98-45.71h-8.1ZM257.63,158.85l7.41-17.12,7.34,17.12h-14.75Z"/>
  <polygon class="cls-4" points="324.03 160.01 301.24 130.92 293.87 130.92 293.87 176.63 303.23 176.63 303.23 147.51 326.02 176.63 333.46 176.63 333.46 130.92 324.03 130.92 324.03 160.01"/>
  <polygon class="cls-4" points="384.63 176.63 362.55 152.79 383.79 130.92 371.84 130.92 352.65 151.05 352.65 130.92 342.65 130.92 342.65 176.63 352.65 176.63 352.65 155.5 372.56 176.63 384.63 176.63"/>
</svg>