<?xml version="1.0" encoding="UTF-8"?>
<svg id="Layer_1" data-name="Layer 1" xmlns="http://www.w3.org/2000/svg" xmlns:xlink="http://www.w3.org/1999/xlink" viewBox="0 0 409.6 512">
  <defs>
    <style>
      .cls-1 {
        fill: #cfd8dd;
      }

      .cls-2 {
        fill: #7ab51d;
      }

      .cls-3 {
        fill: #6e8189;
      }

      .cls-4 {
        fill: url(#linear-gradient-5);
      }

      .cls-5 {
        fill: url(#linear-gradient-4);
      }

      .cls-6 {
        fill: url(#linear-gradient-3);
      }

      .cls-7 {
        fill: url(#linear-gradient-2);
      }

      .cls-8 {
        fill: #ffe12c;
      }

      .cls-9 {
        fill: #f46c60;
      }

      .cls-10 {
        fill: #99a8ae;
      }

      .cls-11 {
        fill: #428210;
      }

      .cls-12 {
        fill: url(#linear-gradient);
      }

      .cls-13 {
        fill: #fff;
      }

      .cls-14 {
        fill: #768b94;
      }

      .cls-15 {
        fill: #f9b700;
      }

      .cls-16 {
        fill: #302c3b;
      }
    </style>
    <linearGradient id="linear-gradient" x1="-2188.58" y1="367.57" x2="-2120.31" y2="367.57" gradientTransform="translate(-1778.9811 514) rotate(-180)" gradientUnits="userSpaceOnUse">
      <stop offset=".19" stop-color="#ff000e"/>
      <stop offset=".4" stop-color="#f4000b"/>
      <stop offset=".78" stop-color="#d80005"/>
      <stop offset="1" stop-color="#c40000"/>
    </linearGradient>
    <linearGradient id="linear-gradient-2" x1="-2188.58" y1="171.3" x2="-2077.73" y2="171.3" gradientTransform="translate(-1778.9811 514) rotate(-180)" gradientUnits="userSpaceOnUse">
      <stop offset="0" stop-color="#5b666e"/>
      <stop offset=".09" stop-color="#494e59"/>
      <stop offset=".19" stop-color="#3b3b48"/>
      <stop offset=".3" stop-color="#33303e"/>
      <stop offset=".41" stop-color="#302c3b"/>
      <stop offset=".47" stop-color="#302c3b"/>
    </linearGradient>
    <linearGradient id="linear-gradient-3" x1="-1941.11" y1="19.07" x2="-1941.11" y2="292.13" gradientTransform="translate(-1778.9811 514) rotate(-180)" gradientUnits="userSpaceOnUse">
      <stop offset="0" stop-color="#c40000"/>
      <stop offset=".22" stop-color="#d80005"/>
      <stop offset=".6" stop-color="#f4000b"/>
      <stop offset=".81" stop-color="#ff000e"/>
    </linearGradient>
    <linearGradient id="linear-gradient-4" x1="-1941.11" y1="292.05" x2="-1941.11" y2="505.47" gradientTransform="translate(-1778.9811 514) rotate(-180)" gradientUnits="userSpaceOnUse">
      <stop offset="0" stop-color="#ff000e"/>
      <stop offset=".02" stop-color="#fd000e"/>
      <stop offset=".67" stop-color="#d40004"/>
      <stop offset="1" stop-color="#c40000"/>
    </linearGradient>
    <linearGradient id="linear-gradient-5" x1="108.13" y1="351.87" x2="108.13" y2="445.73" gradientTransform="translate(-10 514) scale(1 -1)" gradientUnits="userSpaceOnUse">
      <stop offset="0" stop-color="#302c3b"/>
      <stop offset="1" stop-color="#6e7b85"/>
    </linearGradient>
  </defs>
  <path class="cls-14" d="M334.34,51.37s4.18,10.58-4.95,19.03l-6.4-1.02,1.54-19.54,9.81,1.54Z"/>
  <path class="cls-3" d="M343.64,55.13s1.54,10.67-7.94,17.49l-6.31-2.22,4.95-19.03,9.3,3.75Z"/>
  <path class="cls-14" d="M352.26,60.67s1.37,11.86-10.92,15.62l-5.72-3.75,7.94-17.49,8.7,5.63Z"/>
  <path class="cls-3" d="M360.36,67.07s0,12.97-13.65,14.17l-5.38-4.86,10.92-15.62,8.11,6.31Z"/>
  <path class="cls-14" d="M366.76,74.75s-2.47,10.92-16.38,10.92l-3.67-4.44,13.65-14.17,6.4,7.68Z"/>
  <path class="cls-3" d="M371.2,83.71s-5.21,11.35-18.35,7.17l-2.47-5.21,16.38-10.92,4.44,8.96Z"/>
  <path class="cls-14" d="M373.93,93.35s-9.05,4.69-19.11,5.29l-1.96-7.77,18.35-7.17,2.73,9.64Z"/>
  <rect class="cls-3" x="281.6" y="410.97" width="17.07" height="34.13"/>
  <path class="cls-10" d="M375.47,167.77c-8.53,9.47-8.53,21.33-8.53,21.33,0,0-6.74,2.82-6.4.68,1.45-9.9,6.4-18.35,9.22-23.38,4.1-7.42-2.82-9.98-8.45-2.39-15.36,20.65-10.84,11.18.09-5.63,7.25-11.35,23.81-1.54,14.08,9.39Z"/>
  <path class="cls-12" d="M358.4,112.3l-8.53-17.07,25.6-8.53,8.53,11.35,8.53-2.82,17.07,17.07-8.53,8.53s8.53,17.07,8.53,34.13v51.2h-17.07v-51.2h-34.13l-17.07-17.07,17.07-25.6Z"/>
  <path class="cls-16" d="M341.33,183.64v-45.82l17.07,17.07v24.75c0,8.45,3.16,9.39,11.26,9.39h22.87v17.07h-29.87c-15.27.09-21.33-8.45-21.33-22.44Z"/>
  <polygon class="cls-3" points="375.47 206.17 366.93 223.23 307.2 223.23 307.2 206.17 375.47 206.17"/>
  <path class="cls-7" d="M307.2,419.5c14.08,0,25.6,11.52,25.6,25.6,0,9.39,7.68,17.07,17.07,17.07s17.07-7.68,17.07-17.07c0-6.74-4.35-14.93-9.39-24.49-7.25-13.82-16.21-30.98-16.21-52.31,0-60.93,51.2-100.01,51.2-153.6v-8.53h17.07v8.53c0,54.36-51.2,93.95-51.2,153.6,0,17.15,7.59,31.66,14.34,44.37,5.8,11.09,11.35,21.5,11.35,32.43,0,18.86-15.36,34.13-34.13,34.13s-34.13-15.27-34.13-34.13c0-4.69-3.84-8.53-8.53-8.53h-8.53v-17.07h8.45Z"/>
  <polygon class="cls-10" points="301.74 170.67 22.53 170.67 42.67 494.93 281.6 494.93 301.74 170.67"/>
  <polygon class="cls-6" points="290.13 221.87 34.13 221.87 51.2 494.93 273.07 494.93 290.13 221.87"/>
  <path class="cls-3" d="M34.13,494.93h256c4.69,0,8.53,3.84,8.53,8.53v8.53H25.6v-8.53c0-4.69,3.84-8.53,8.53-8.53Z"/>
  <path class="cls-10" d="M17.07,0h290.13c9.39,0,17.07,7.68,17.07,17.07v196.27c0,9.39-7.68,17.07-17.07,17.07H17.07c-9.39,0-17.07-7.68-17.07-17.07V17.07C0,7.68,7.68,0,17.07,0Z"/>
  <path class="cls-5" d="M306.77,8.53c4.95,0,8.96,4.18,8.96,9.3v194.82c0,5.12-4.01,9.3-8.96,9.3H17.49c-4.95-.09-8.96-4.27-8.96-9.39V17.83c0-5.12,4.01-9.3,8.96-9.3h289.28Z"/>
  <path id="Shape" class="cls-9" d="M162.13,292.27c31.74,0,57.6,25.86,57.6,57.6s-25.86,57.6-57.6,57.6-57.6-25.86-57.6-57.6,25.86-57.6,57.6-57.6ZM162.13,273.07c-42.41,0-76.8,34.39-76.8,76.8s34.39,76.8,76.8,76.8,76.8-34.39,76.8-76.8-34.39-76.8-76.8-76.8Z"/>
  <path id="Combined-Shape" class="cls-9" d="M177.49,357.55c-2.56,0-3.84-1.28-3.84-3.84v-7.68c0-2.56,1.28-3.84,3.84-3.84h24.92c2.56,0,3.84,1.28,3.84,3.84v3.84c0,24.41-19.8,44.2-44.2,44.2-11.86,0-22.95-4.69-31.23-12.97-1.79-1.88-1.79-3.58,0-5.46l8.19-8.11c1.79-1.79,3.58-1.79,5.38,0,4.69,4.61,10.92,7.34,17.66,7.34,11.09,0,20.48-7.25,23.81-17.32h-8.36Z"/>
  <rect class="cls-16" x="34.13" y="34.13" width="256" height="162.13"/>
  <rect class="cls-4" x="42.67" y="68.27" width="110.93" height="93.87"/>
  <rect class="cls-8" x="162.13" y="68.27" width="34.13" height="93.87"/>
  <rect class="cls-13" x="204.8" y="68.27" width="34.13" height="93.87"/>
  <rect class="cls-2" x="247.47" y="68.27" width="34.13" height="93.87"/>
  <rect class="cls-15" x="166.4" y="132.27" width="25.6" height="25.6"/>
  <rect class="cls-1" x="209.07" y="132.27" width="25.6" height="25.6"/>
  <rect class="cls-11" x="251.73" y="132.27" width="25.6" height="25.6"/>
  <rect class="cls-1" x="55.47" y="81.07" width="85.33" height="68.27"/>
  <rect class="cls-10" x="81.07" y="87.3" width="51.2" height="25.6"/>
  <rect class="cls-10" x="81.07" y="119.3" width="51.2" height="25.6"/>
  <path class="cls-16" d="M72.96,100.1c-.51-.34-1.11-.6-1.71-.77-.51-.17-.94-.26-1.45-.43v-4.27c1.11.17,2.3.68,3.33,1.54l1.19-2.56c-.43-.34-.94-.68-1.54-.94s-1.28-.51-1.96-.6c-.26-.09-.51-.09-.77-.09v-2.47h-2.73v2.56c-.6.09-1.19.26-1.79.51-.94.43-1.71,1.02-2.22,1.79s-.85,1.62-.85,2.56c0,.85.17,1.54.43,2.05.34.51.68,1.02,1.28,1.28.51.34,1.11.6,1.71.85.51.17,1.11.34,1.62.43v4.1c-.6-.09-1.19-.17-1.79-.34-.77-.26-1.54-.68-2.3-1.19l-1.19,2.56c.77.6,1.62,1.02,2.73,1.37.68.26,1.45.34,2.3.43v2.47h2.73v-2.56c.6-.09,1.19-.26,1.71-.51.94-.43,1.71-1.02,2.22-1.71.51-.77.77-1.54.77-2.56,0-.85-.17-1.54-.51-2.05-.26-.68-.68-1.11-1.19-1.45ZM66.39,97.62c-.34-.26-.51-.6-.51-1.11,0-.6.26-1.11.77-1.45.26-.17.51-.26.77-.34v3.5c-.34-.17-.77-.34-1.02-.6ZM70.4,105.13c-.17.09-.43.17-.6.26v-3.24c.34.17.68.26.85.43.34.26.51.6.51,1.02,0,.68-.26,1.19-.77,1.54Z"/>
  <polygon class="cls-16" points="67.07 137.64 67.07 123.56 63.32 123.56 63.32 140.63 74.67 140.63 74.67 137.64 67.07 137.64"/>
</svg>