<?xml version="1.0" encoding="UTF-8"?>
<svg id="Layer_1" data-name="Layer 1" xmlns="http://www.w3.org/2000/svg" xmlns:xlink="http://www.w3.org/1999/xlink" viewBox="0 0 512 512">
  <defs>
    <style>
      .cls-1 {
        fill: #b3c2c6;
      }

      .cls-2 {
        fill: #6e8189;
      }

      .cls-3 {
        fill: #e95349;
      }

      .cls-4 {
        fill: url(#radial-gradient);
      }

      .cls-5 {
        fill: url(#linear-gradient);
      }

      .cls-6 {
        fill: #822d39;
      }

      .cls-7 {
        fill: #018bc9;
      }

      .cls-8 {
        fill: #fff;
      }

      .cls-9 {
        fill: #87ccff;
        isolation: isolate;
        opacity: .7;
      }
    </style>
    <radialGradient id="radial-gradient" cx="257.07" cy="-166.03" fx="257.07" fy="-166.03" r="986" gradientTransform="translate(0 376.92) scale(1 -.81)" gradientUnits="userSpaceOnUse">
      <stop offset="0" stop-color="#dbedb3"/>
      <stop offset=".42" stop-color="#006dae"/>
      <stop offset=".69" stop-color="#011b36"/>
    </radialGradient>
    <linearGradient id="linear-gradient" x1="256" y1="2" x2="256" y2="95.53" gradientTransform="translate(0 514) scale(1 -1)" gradientUnits="userSpaceOnUse">
      <stop offset="0" stop-color="#013366"/>
      <stop offset="1" stop-color="#006dae"/>
    </linearGradient>
  </defs>
  <rect class="cls-4" width="512" height="512"/>
  <path class="cls-9" d="M489.3,127.49c7.51,0,7.51-11.26,0-11.26-7.51.09-7.51,11.26,0,11.26Z"/>
  <path class="cls-9" d="M319.57,99.24c7.51,0,7.51-11.18,0-11.18s-7.42,11.18,0,11.18Z"/>
  <path class="cls-9" d="M28.59,121.86c7.51,0,7.51-11.18,0-11.26-7.51.09-7.51,11.26,0,11.26Z"/>
  <path class="cls-9" d="M383.57,61.27c7.51,0,7.51-11.26,0-11.26s-7.51,11.26,0,11.26Z"/>
  <path class="cls-9" d="M412.67,166.91c7.51,0,7.51-11.18,0-11.18s-7.51,11.18,0,11.18Z"/>
  <path class="cls-9" d="M421.38,321.71c7.51,0,7.51-11.18,0-11.18s-7.51,11.18,0,11.18Z"/>
  <path class="cls-9" d="M153.34,318.89c7.51,0,7.51-11.18,0-11.18-7.51-.09-7.51,11.18,0,11.18Z"/>
  <path class="cls-9" d="M25.09,280.06c7.51,0,7.51-11.18,0-11.18s-7.51,11.18,0,11.18Z"/>
  <path class="cls-9" d="M147.46,138.5c4.95,0,4.95-7.51,0-7.51s-4.95,7.51,0,7.51Z"/>
  <path class="cls-9" d="M108.54,22.44c4.95,0,5.03-7.51,0-7.51s-5.03,7.51,0,7.51Z"/>
  <path class="cls-8" d="M37.97,199.17c4.95,0,5.03-7.51,0-7.51-5.03.09-5.03,7.51,0,7.51Z"/>
  <path class="cls-8" d="M100.95,292.01c4.95,0,5.03-7.51,0-7.51s-4.95,7.51,0,7.51Z"/>
  <path class="cls-8" d="M369.07,281.26c4.95,0,5.03-7.51,0-7.51-5.03,0-5.03,7.51,0,7.51Z"/>
  <path class="cls-8" d="M488.28,300.12c4.95,0,5.03-7.51,0-7.51-5.03,0-5.03,7.51,0,7.51Z"/>
  <path class="cls-8" d="M93.53,100.69c4.95,0,5.03-7.51,0-7.51-5.03.09-5.03,7.51,0,7.51Z"/>
  <path class="cls-8" d="M186.03,37.97c4.95,0,5.03-7.51,0-7.51-5.03,0-5.03,7.51,0,7.51Z"/>
  <path class="cls-8" d="M151.47,206.51c4.95,0,5.03-7.51,0-7.51-4.95,0-4.95,7.51,0,7.51Z"/>
  <path class="cls-8" d="M356.01,168.79c4.95,0,5.03-7.51,0-7.51-5.03,0-5.03,7.51,0,7.51Z"/>
  <path class="cls-8" d="M326.31,18.69c4.95,0,5.03-7.51,0-7.51-4.95.09-4.95,7.51,0,7.51Z"/>
  <path class="cls-8" d="M494.93,40.53c4.95,0,5.03-7.51,0-7.51-5.03.09-5.03,7.51,0,7.51Z"/>
  <path class="cls-9" d="M237.4,128.17c4.95,0,4.95-7.51,0-7.51-5.03,0-5.03,7.51,0,7.51Z"/>
  <path class="cls-9" d="M271.36,156.59c7.51,0,7.51-11.26,0-11.26s-7.51,11.26,0,11.26Z"/>
  <path class="cls-9" d="M237.4,277.5c7.51,0,7.51-11.26,0-11.26-7.51.09-7.51,11.26,0,11.26Z"/>
  <path class="cls-9" d="M50.69,48.04c7.42,0,7.42-11.26,0-11.26-7.51.09-7.51,11.26,0,11.26Z"/>
  <path class="cls-9" d="M251.22,55.55c5.21,0,5.21-7.51,0-7.51s-5.21,7.51,0,7.51Z"/>
  <path class="cls-8" d="M448.85,37.97c21.59,32.09-9.05,85.16-47.62,82.52,54.36,30.29,101.03-50.6,47.62-82.52Z"/>
  <rect class="cls-5" y="418.47" width="512" height="93.53"/>
  <path class="cls-7" d="M366.59,466.52c0,9.13-222.04,9.13-222.04,0,0-9.13,222.04-9.13,222.04,0Z"/>
  <rect class="cls-6" x="296.7" y="42.67" width="1.79" height="4.1"/>
  <rect class="cls-3" x="297.3" y="42.67" width="1.79" height="4.1"/>
  <rect class="cls-6" x="293.63" y="45.74" width="3.67" height="9.9"/>
  <rect class="cls-3" x="296.28" y="45.74" width="5.89" height="9.9"/>
  <rect class="cls-6" x="219.73" y="42.67" width="1.79" height="4.1"/>
  <rect class="cls-3" x="220.33" y="42.67" width="1.79" height="4.1"/>
  <rect class="cls-6" x="216.66" y="45.74" width="3.67" height="9.9"/>
  <rect class="cls-3" x="219.31" y="45.74" width="5.89" height="9.9"/>
  <polygon class="cls-6" points="197.63 440.92 197.63 297.39 200.79 293.38 200.79 175.27 203.61 171.61 203.61 62.89 211.71 54.44 229.38 440.92 197.63 440.92"/>
  <path class="cls-3" d="M205.65,440.92v-143.53l3.24-4.01v-118.19l2.82-3.58V54.44c0-2.22,1.79-4.01,4.01-4.01h10.92c2.22,0,4.01,1.79,4.01,4.01v115.54l4.01,4.44v118.53l2.82,2.82v145.15s-31.83,0-31.83,0Z"/>
  <polygon class="cls-6" points="221.53 167.25 216.49 170.5 216.49 231.42 213.5 235.01 213.5 440.92 217.51 440.92 217.51 235.95 220.07 231.68 220.07 170.5 221.53 167.25"/>
  <polygon class="cls-6" points="219.99 320.26 219.99 440.92 237.4 440.92 237.4 332.37 219.99 320.26"/>
  <path class="cls-6" d="M216.32,124.42v-22.87l-2.65-2.82v-39.77l2.65-4.52v9.13h58.28l14.08-9.13-6.06,49.58-10.41-6.74h-44.54c-3.5,0-6.4,2.65-6.83,6.14l-1.71,16.98-2.82,4.01Z"/>
  <path class="cls-6" d="M216.32,240.3v-22.87l-2.65-2.82v-39.77l6.4-2.22,5.03,6.83h49.49l6.06-4.01v43.18l-8.45-5.46h-44.54c-3.5,0-6.4,2.65-6.83,6.14l-1.71,16.98-2.82,4.01Z"/>
  <path class="cls-6" d="M216.32,360.28l-2.65-65.45,6.4-2.22,5.03,6.83h46.93l8.53-6.83v59.05l-3.07-3.93c-3.33-4.27-8.53-6.74-13.91-6.74h-25.77c-3.5,0-6.4,2.65-6.83,6.14l-1.71,9.13-12.97,4.01Z"/>
  <polygon class="cls-6" points="274.6 440.92 274.6 297.39 277.85 293.38 277.85 175.27 280.66 171.61 280.66 59.56 288.68 54.44 306.35 440.92 274.6 440.92"/>
  <path class="cls-3" d="M282.62,440.92v-143.53l3.24-4.01v-118.19l2.82-3.58V54.44c0-2.22,1.79-4.01,4.01-4.01h10.92c2.22,0,4.01,1.79,4.01,4.01v115.54l4.01,4.44v118.53l2.82,2.82v145.15s-31.83,0-31.83,0Z"/>
  <polygon class="cls-6" points="298.5 167.25 293.46 170.5 293.46 231.42 290.47 235.01 290.47 440.92 294.49 440.92 294.49 235.95 297.13 231.68 297.13 170.5 298.5 167.25"/>
  <polygon class="cls-6" points="301.99 288.26 297.05 291.58 297.05 440.92 300.63 440.92 300.63 291.58 301.99 288.26"/>
  <path class="cls-3" d="M512,230.57s-121.26-41.9-216.83-171.18c-.51-.68,0-10.24,0-10.24,95.57,127.57,216.83,171.18,216.83,171.18v10.24Z"/>
  <path class="cls-3" d="M512,274.43s-115.54-20.22-216.58-154.79c-.51-.68-.6-10.92,0-10.24,111.7,141.99,216.58,157.44,216.58,157.44v7.59Z"/>
  <path class="cls-3" d="M0,196.35s121.26-41.64,216.58-136.96c.6-.6.6-10.92,0-10.24C121.26,146.18,0,186.11,0,186.11v10.24Z"/>
  <path class="cls-3" d="M0,243.29s147.8-53.42,295.17-183.89c.68-.6,0-10.24,0-10.24C147.71,179.63,0,233.05,0,233.05v10.24Z"/>
  <polygon class="cls-3" points="332.46 398.25 338.43 398.25 338.43 102.23 332.46 97.02 332.46 398.25"/>
  <polygon class="cls-3" points="179.54 398.25 173.57 398.25 173.57 89.09 179.54 85.67 179.54 398.25"/>
  <polygon class="cls-3" points="384.77 398.25 390.74 398.25 390.74 147.46 384.77 143.1 384.77 398.25"/>
  <polygon class="cls-3" points="127.23 398.25 121.26 398.25 121.26 128.26 127.23 123.99 127.23 398.25"/>
  <polygon class="cls-3" points="437.16 398.25 443.14 398.25 443.14 184.92 437.16 180.74 437.16 398.25"/>
  <polygon class="cls-3" points="74.84 398.25 68.86 398.25 68.86 158.98 74.84 156.76 74.84 398.25"/>
  <polygon class="cls-3" points="489.56 398.25 495.53 398.25 495.53 212.22 489.56 209.58 489.56 398.25"/>
  <polygon class="cls-3" points="22.44 398.25 16.47 398.25 16.47 181.16 22.44 183.13 22.44 398.25"/>
  <path class="cls-3" d="M339.71,104.96c0,2.56-8.53-5.38-8.53-7.94v-5.03c0-2.47,8.53,5.29,8.53,7.77v5.21Z"/>
  <path class="cls-3" d="M392.02,153.26c0,2.56-8.53-4.1-8.53-6.57v-5.03c0-2.47,8.53,3.93,8.53,6.4v5.21Z"/>
  <path class="cls-3" d="M444.42,190.29c0,2.56-8.53-3.33-8.53-5.8v-5.03c0-2.47,8.53,3.16,8.53,5.63v5.21Z"/>
  <path class="cls-3" d="M496.81,218.62c0,2.56-8.53-2.3-8.53-4.78v-5.03c0-2.47,8.53,2.13,8.53,4.61v5.21Z"/>
  <path class="cls-3" d="M172.29,91.9c0,2.82,8.53-2.82,8.53-5.63v-4.18c0-2.82-8.53,2.65-8.53,5.46v4.35Z"/>
  <path class="cls-3" d="M119.98,130.22c0,2.82,8.53-2.82,8.53-5.63v-4.18c0-2.82-8.53,2.65-8.53,5.46v4.35Z"/>
  <path class="cls-3" d="M67.58,160.6c0,2.82,8.53-1.71,8.53-4.52v-4.18c0-2.82-8.53,1.54-8.53,4.35v4.35Z"/>
  <path class="cls-3" d="M15.1,184.58c0,2.82,8.53-.77,8.53-3.58v-4.18c0-2.82-8.53.6-8.53,3.41v4.35Z"/>
  <rect class="cls-3" y="389.72" width="512" height="17.07"/>
  <path class="cls-2" d="M191.49,434.86v31.66h81.58v-31.66h-81.58Z"/>
  <path class="cls-1" d="M273.07,434.86v31.66h46.59v-31.66h-46.59Z"/>
</svg>