<?xml version="1.0" encoding="UTF-8"?>
<svg id="Layer_1" data-name="Layer 1" xmlns="http://www.w3.org/2000/svg" xmlns:xlink="http://www.w3.org/1999/xlink" viewBox="0 0 512.01 512">
  <defs>
    <style>
      .cls-1 {
        fill: #cfd8dd;
      }

      .cls-2 {
        fill: #d47706;
      }

      .cls-3 {
        fill: url(#radial-gradient-7);
      }

      .cls-4 {
        fill: url(#radial-gradient-6);
      }

      .cls-5 {
        fill: url(#radial-gradient-5);
      }

      .cls-6 {
        fill: url(#radial-gradient-4);
      }

      .cls-7 {
        fill: url(#radial-gradient-9);
      }

      .cls-8 {
        fill: url(#radial-gradient-8);
      }

      .cls-9 {
        fill: url(#radial-gradient-3);
      }

      .cls-10 {
        fill: url(#radial-gradient-2);
      }

      .cls-11 {
        fill: url(#linear-gradient-4);
      }

      .cls-12 {
        fill: url(#linear-gradient-3);
      }

      .cls-13 {
        fill: url(#linear-gradient-2);
      }

      .cls-14 {
        fill: #1a1626;
      }

      .cls-15 {
        fill: url(#radial-gradient);
      }

      .cls-16 {
        fill: url(#linear-gradient);
      }

      .cls-17 {
        fill: url(#radial-gradient-10);
      }

      .cls-18 {
        fill: url(#radial-gradient-11);
      }

      .cls-19 {
        fill: #302c3b;
      }
    </style>
    <linearGradient id="linear-gradient" x1="256" y1="2" x2="256" y2="172.67" gradientTransform="translate(0 514) scale(1 -1)" gradientUnits="userSpaceOnUse">
      <stop offset="0" stop-color="#9be323"/>
      <stop offset="1" stop-color="#52a100"/>
    </linearGradient>
    <linearGradient id="linear-gradient-2" x1="132.58" y1="167.57" x2="186" y2="167.57" gradientTransform="translate(0 514) scale(1 -1)" gradientUnits="userSpaceOnUse">
      <stop offset="0" stop-color="#91632e"/>
      <stop offset=".2" stop-color="#8c5f2c"/>
      <stop offset=".44" stop-color="#7d5425"/>
      <stop offset=".7" stop-color="#65421b"/>
      <stop offset=".98" stop-color="#43290c"/>
      <stop offset="1" stop-color="#40270b"/>
    </linearGradient>
    <radialGradient id="radial-gradient" cx="601.75" cy="-14.22" fx="601.75" fy="-14.22" r="195.2" gradientTransform="translate(-241.89 242.98) scale(.67 -.72)" gradientUnits="userSpaceOnUse">
      <stop offset="0" stop-color="#83b52d"/>
      <stop offset=".26" stop-color="#72a127"/>
      <stop offset=".78" stop-color="#466c17"/>
      <stop offset="1" stop-color="#325410"/>
    </radialGradient>
    <radialGradient id="radial-gradient-2" cx="601.75" cy="51.85" fx="601.75" fy="51.85" r="199.63" gradientTransform="translate(-241.89 242.98) scale(.67 -.72)" gradientUnits="userSpaceOnUse">
      <stop offset="0" stop-color="#92c932"/>
      <stop offset=".23" stop-color="#8ec531"/>
      <stop offset=".47" stop-color="#83b92c"/>
      <stop offset=".71" stop-color="#6fa425"/>
      <stop offset=".94" stop-color="#54881c"/>
      <stop offset="1" stop-color="#4d8019"/>
    </radialGradient>
    <radialGradient id="radial-gradient-3" cx="601.75" cy="87.62" fx="601.75" fy="87.62" r="161.33" gradientTransform="translate(-241.89 242.98) scale(.67 -.72)" gradientUnits="userSpaceOnUse">
      <stop offset="0" stop-color="#83b52d"/>
      <stop offset=".26" stop-color="#72a127"/>
      <stop offset=".78" stop-color="#466c17"/>
      <stop offset="1" stop-color="#325410"/>
    </radialGradient>
    <radialGradient id="radial-gradient-4" cx="601.75" cy="138.91" fx="601.75" fy="138.91" r="162.05" gradientTransform="translate(-241.89 242.98) scale(.67 -.72)" gradientUnits="userSpaceOnUse">
      <stop offset="0" stop-color="#92c932"/>
      <stop offset=".23" stop-color="#8ec531"/>
      <stop offset=".47" stop-color="#83b92c"/>
      <stop offset=".71" stop-color="#6fa425"/>
      <stop offset=".94" stop-color="#54881c"/>
      <stop offset="1" stop-color="#4d8019"/>
    </radialGradient>
    <radialGradient id="radial-gradient-5" cx="605.89" cy="165.87" fx="605.89" fy="165.87" r="128.44" gradientTransform="translate(-241.89 242.98) scale(.67 -.72)" gradientUnits="userSpaceOnUse">
      <stop offset="0" stop-color="#83b52d"/>
      <stop offset=".26" stop-color="#72a127"/>
      <stop offset=".78" stop-color="#466c17"/>
      <stop offset="1" stop-color="#325410"/>
    </radialGradient>
    <radialGradient id="radial-gradient-6" cx="605.89" cy="207.47" fx="605.89" fy="207.47" r="123.69" gradientTransform="translate(-241.89 242.98) scale(.67 -.72)" gradientUnits="userSpaceOnUse">
      <stop offset="0" stop-color="#92c932"/>
      <stop offset=".23" stop-color="#8ec531"/>
      <stop offset=".47" stop-color="#83b92c"/>
      <stop offset=".71" stop-color="#6fa425"/>
      <stop offset=".94" stop-color="#54881c"/>
      <stop offset="1" stop-color="#4d8019"/>
    </radialGradient>
    <radialGradient id="radial-gradient-7" cx="601.76" cy="235.88" fx="601.76" fy="235.88" r="88.78" gradientTransform="translate(-241.89 242.98) scale(.67 -.72)" gradientUnits="userSpaceOnUse">
      <stop offset="0" stop-color="#83b52d"/>
      <stop offset=".26" stop-color="#72a127"/>
      <stop offset=".78" stop-color="#466c17"/>
      <stop offset="1" stop-color="#325410"/>
    </radialGradient>
    <radialGradient id="radial-gradient-8" cx="601.74" cy="496.5" fx="601.74" fy="496.5" r="82.15" gradientTransform="translate(-241.89 761.42) scale(.67 -1.44)" gradientUnits="userSpaceOnUse">
      <stop offset="0" stop-color="#92c932"/>
      <stop offset=".23" stop-color="#8ec531"/>
      <stop offset=".47" stop-color="#83b92c"/>
      <stop offset=".71" stop-color="#6fa425"/>
      <stop offset=".94" stop-color="#54881c"/>
      <stop offset="1" stop-color="#4d8019"/>
    </radialGradient>
    <radialGradient id="radial-gradient-9" cx="387.32" cy="180.32" fx="387.32" fy="180.32" r="123.96" gradientTransform="translate(-46.59 481.77) scale(.94 -.98)" gradientUnits="userSpaceOnUse">
      <stop offset="0" stop-color="#ffc166"/>
      <stop offset=".22" stop-color="#fdbc5c"/>
      <stop offset=".59" stop-color="#f6ae43"/>
      <stop offset="1" stop-color="#ed9a1f"/>
    </radialGradient>
    <radialGradient id="radial-gradient-10" cx="387.32" cy="-366.07" fx="387.32" fy="-366.07" r="135.07" gradientTransform="translate(-46.59 176.55) scale(.94 -.56)" gradientUnits="userSpaceOnUse">
      <stop offset=".27" stop-color="#99a8ae"/>
      <stop offset=".47" stop-color="#96a4ab"/>
      <stop offset=".65" stop-color="#8c9aa0"/>
      <stop offset=".82" stop-color="#7b878f"/>
      <stop offset=".99" stop-color="#646e77"/>
      <stop offset="1" stop-color="#626c75"/>
    </radialGradient>
    <radialGradient id="radial-gradient-11" cx="387.32" cy="113.1" fx="387.32" fy="113.1" r="149.99" gradientTransform="translate(-46.59 535.71) scale(.94 -1.05)" gradientUnits="userSpaceOnUse">
      <stop offset=".29" stop-color="#73868c"/>
      <stop offset=".49" stop-color="#6e7f85"/>
      <stop offset=".77" stop-color="#5f6d73"/>
      <stop offset="1" stop-color="#4f585e"/>
    </radialGradient>
    <linearGradient id="linear-gradient-3" x1="367.93" y1="61.91" x2="367.93" y2="176.68" gradientTransform="translate(-35.66 488.77) scale(.96 -.95)" gradientUnits="userSpaceOnUse">
      <stop offset="0" stop-color="#5b666e"/>
      <stop offset=".32" stop-color="#59636b"/>
      <stop offset=".55" stop-color="#525963"/>
      <stop offset=".76" stop-color="#464955"/>
      <stop offset=".95" stop-color="#353341"/>
      <stop offset="1" stop-color="#302c3b"/>
    </linearGradient>
    <linearGradient id="linear-gradient-4" x1="315.74" y1="79.19" x2="315.74" y2="198.08" gradientTransform="translate(0 514) scale(1 -1)" gradientUnits="userSpaceOnUse">
      <stop offset="0" stop-color="#ffc166"/>
      <stop offset=".17" stop-color="#faba5c"/>
      <stop offset=".45" stop-color="#eda843"/>
      <stop offset=".81" stop-color="#d88b19"/>
      <stop offset="1" stop-color="#cc7a00"/>
    </linearGradient>
  </defs>
  <ellipse class="cls-16" cx="256" cy="426.67" rx="256" ry="85.33"/>
  <path class="cls-13" d="M180.3,310.38h-42.02s-5.7,42.56-5.7,64.23c0,10.5,53.42,10.5,53.42,0,0-12.98-5.7-64.23-5.7-64.23Z"/>
  <path class="cls-15" d="M318.59,330.14s-66.89-22.03-158.9-175.09c-9.09-15.11-43.72,107.91-159.69,175.09,0,0,34.38,9,94.25-7.08,6.2-1.65-9.8,21.87-9.8,21.87,0,0,43.45-18.85,59.35-17.72,13.52.95,47.15,25.42,47.15,25.42,0,0,11.17-30.85,16.52-28.3,19.53,9.34,53.77,17.24,53.77,17.24,0,0-23.31-21.53-17.02-21.53s74.36,10.1,74.36,10.1Z"/>
  <path class="cls-10" d="M318.59,291.84s-66.89-24.29-158.9-192.89c-9.09-16.66-43.72,118.87-159.69,192.89,0,0,34.38,9.92,94.25-7.8,6.2-1.83-9.8,24.08-9.8,24.08,0,0,43.45-20.77,59.35-19.53,13.52,1.08,45.52,25.25,45.52,25.25,0,0,5.44-30.53,10.79-27.72,19.53,10.28,61.13,18.29,61.13,18.29,0,0-23.31-23.71-17.02-23.71s74.36,11.14,74.36,11.14Z"/>
  <path class="cls-9" d="M34.87,246.69s52.95-20.13,124.82-159.93c7.1-13.82,33.45,98.57,124.03,159.93,0,0-24.48,8.93-71.27-5.75-4.83-1.52,1.26,21.6,1.26,21.6,0,0-29.2-19.57-41.62-18.55-10.56.89-38.72,30.37-38.72,30.37,0,0-11.87-35.37-16.07-33.03-15.25,8.52-37.65,15.79-37.65,15.79,0,0,18.22-19.67,13.29-19.67s-58.08,9.25-58.08,9.25Z"/>
  <path class="cls-6" d="M34.87,208.58s52.95-20.15,124.82-159.95c7.1-13.82,33.45,98.59,124.03,159.95,0,0-26.85,8.22-73.62-6.45-4.83-1.55,7.65,19.95,7.65,19.95,0,0-26.77-15.95-39.17-14.92-10.56.89-41.04,31.57-41.04,31.57,0,0-5.95-37.25-10.14-34.9-15.27,8.53-47.75,15.16-47.75,15.16,0,0,18.22-19.67,13.29-19.67-4.91,0-58.07,9.26-58.07,9.26Z"/>
  <path class="cls-5" d="M266.39,171.01s-46.43-14.2-106.7-112.79c-5.95-9.74-26,69.51-101.97,112.79,0,0,22.52,5.8,61.73-4.55,4.05-1.08-6.42,14.08-6.42,14.08,0,0,30.32-11.05,40.71-10.32,8.87.61,30.8,19.78,30.8,19.78,0,0,4.63-22.37,8.15-20.72,12.78,6.02,36.11,9.05,36.11,9.05,0,0-15.27-13.85-11.14-13.85s48.72,6.52,48.72,6.52Z"/>
  <path class="cls-4" d="M261.86,142.33s-44.52-14.2-102.17-112.79c-5.68-9.75-24.76,69.51-97.44,112.79,0,0,21.53,5.79,59.07-4.58,3.87-1.05-8.06,21.12-8.06,21.12,0,0,32.14-17.96,42.09-17.25,8.48.61,23.29,17.25,23.29,17.25,0,0,5.65-21.53,9-19.88,12.24,6.02,38.3,10.7,38.3,10.7,0,0-14.6-13.88-10.67-13.88,3.95,0,46.59,6.53,46.59,6.53Z"/>
  <path class="cls-3" d="M89.81,108.09s29.73-10.63,69.87-84.46c3.97-7.27,18.5,52.07,69.1,84.46,0,0-6.8,3.34-32.91-4.4-2.7-.8-3.92,11.52-3.92,11.52,0,0-12.5-12.07-19.43-11.52-5.9.44-23.07,20.02-23.07,20.02,0,0-5.62-19.37-7.97-18.13-8.52,4.51-28.33,14.25-28.33,14.25,0,0,11.85-16.61,9.1-16.61s-32.44,4.88-32.44,4.88Z"/>
  <path class="cls-8" d="M95.48,85.06S122.83,74.45,159.68.61c3.65-7.29,16.96,52.05,63.42,84.45,0,0-6.42,2.15-30.4-5.6-2.48-.8-3.43,12.73-3.43,12.73,0,0-14.41-10.88-20.79-10.35-5.4.49-16.18,12.85-16.18,12.85,0,0-7.22-13.36-9.35-12.15-7.83,4.51-24.48,8.01-24.48,8.01,0,0,9.34-10.39,6.82-10.39s-29.8,4.89-29.8,4.89Z"/>
  <path class="cls-1" d="M170.34,379.53c-5.5,13.32-10.25,27.96-13.88,44.28l5.35,1.77c3.8-17.07,8.83-32.33,14.74-46.05h-6.2Z"/>
  <path class="cls-1" d="M454.95,379.53c5.88,13.71,10.91,28.98,14.72,46.05l5.35-1.77c-3.64-16.32-8.38-30.97-13.88-44.28h-6.19Z"/>
  <path class="cls-7" d="M462.34,381.98c-46.99-138.21-146.61-154.14-146.61-154.14,0,0-99.62,15.93-146.59,154.14h293.19Z"/>
  <path class="cls-2" d="M455.61,381.98c-44.82-89.7-139.87-100.04-139.87-100.04,0,0-95.05,10.33-139.87,100.04h279.74Z"/>
  <path class="cls-19" d="M468.45,423.22c-1.37,13.8-4.83,31.62-3.25,31.62,2.07,0,7.29-13.99,12.55-29.25,1.43-4.15-8.87-6.73-9.3-2.36Z"/>
  <path class="cls-19" d="M163.05,423.22c1.35,13.8,4.81,31.62,3.25,31.62-2.08,0-7.3-13.99-12.57-29.25-1.41-4.15,8.87-6.73,9.32-2.36Z"/>
  <path class="cls-17" d="M315.74,285.36s-91.54,9.97-134.72,96.62h269.45c-43.18-86.65-134.74-96.62-134.74-96.62Z"/>
  <path class="cls-18" d="M450.47,381.98c-89.77-5.35-179.71-5.35-269.45,0-5.67,18.53-11.19,49.94-14.85,72.85,99.22-6.55,199.92-6.55,299.14,0-3.67-22.92-9.17-54.32-14.84-72.85Z"/>
  <path class="cls-12" d="M374.67,422.7c-1.55,9.63-116.32,9.63-117.86,0-3.75-23.5,11.32-70.67,19.25-93.34,4-11.38,75.35-11.38,79.35,0,7.94,22.67,23.01,69.84,19.25,93.34Z"/>
  <rect class="cls-14" x="314.32" y="318.35" width="2.57" height="78.83"/>
  <rect class="cls-14" x="253.67" y="395.82" width="123.89" height="2.57"/>
  <path class="cls-11" d="M358.99,325.24c-4.37-12.43-82.12-12.43-86.49,0-8.65,24.69-25.05,76.1-20.98,101.7,1.66,10.49,126.76,10.49,128.44,0,4.09-25.6-12.31-77.01-20.97-101.7ZM374.67,422.7c-1.55,9.63-116.32,9.63-117.86,0-3.75-23.5,11.32-70.67,19.25-93.34,4-11.38,75.35-11.38,79.35,0,7.94,22.67,23.01,69.84,19.25,93.34Z"/>
</svg>