<?xml version="1.0" encoding="UTF-8"?>
<svg id="Layer_1" data-name="Layer 1" xmlns="http://www.w3.org/2000/svg" xmlns:xlink="http://www.w3.org/1999/xlink" viewBox="0 0 780.19 512">
  <defs>
    <style>
      .cls-1 {
        fill: #b3c2c6;
      }

      .cls-2 {
        fill: #6e8189;
      }

      .cls-3 {
        fill: url(#linear-gradient-8);
      }

      .cls-4 {
        fill: url(#linear-gradient-7);
      }

      .cls-5 {
        fill: url(#linear-gradient-5);
      }

      .cls-6 {
        fill: url(#linear-gradient-6);
      }

      .cls-7 {
        fill: url(#linear-gradient-4);
      }

      .cls-8 {
        fill: url(#linear-gradient-3);
      }

      .cls-9 {
        fill: url(#linear-gradient-2);
      }

      .cls-10 {
        fill: #99a8ae;
      }

      .cls-11 {
        fill: url(#linear-gradient);
      }

      .cls-12 {
        fill: #302c3b;
      }

      .cls-13 {
        fill: #e6ebef;
      }
    </style>
    <linearGradient id="linear-gradient" x1="243.32" y1="466.02" x2="243.32" y2="496" gradientTransform="translate(0 496) scale(1 -1)" gradientUnits="userSpaceOnUse">
      <stop offset="0" stop-color="#302c3b"/>
      <stop offset=".36" stop-color="#3d3e4b"/>
      <stop offset="1" stop-color="#5b666e"/>
    </linearGradient>
    <linearGradient id="linear-gradient-2" x1="352.09" y1="330.68" x2="352.09" y2="354.24" gradientTransform="translate(0 496) scale(1 -1)" gradientUnits="userSpaceOnUse">
      <stop offset="0" stop-color="#009af7"/>
      <stop offset=".12" stop-color="#0da3f4"/>
      <stop offset=".5" stop-color="#30baec"/>
      <stop offset=".8" stop-color="#46c9e8"/>
      <stop offset="1" stop-color="#4ecee6"/>
    </linearGradient>
    <linearGradient id="linear-gradient-3" x1="285.05" y1="216.08" x2="306.19" y2="238.22" gradientTransform="translate(0 496) scale(1 -1)" gradientUnits="userSpaceOnUse">
      <stop offset="0" stop-color="#009af7"/>
      <stop offset=".12" stop-color="#0da3f4"/>
      <stop offset=".5" stop-color="#30baec"/>
      <stop offset=".8" stop-color="#46c9e8"/>
      <stop offset="1" stop-color="#4ecee6"/>
    </linearGradient>
    <linearGradient id="linear-gradient-4" x1="506.95" y1="147.94" x2="506.95" y2="116.48" gradientTransform="translate(0 496) scale(1 -1)" gradientUnits="userSpaceOnUse">
      <stop offset="0" stop-color="#4ecee6"/>
      <stop offset=".2" stop-color="#46c9e8"/>
      <stop offset=".5" stop-color="#30baec"/>
      <stop offset=".88" stop-color="#0da3f4"/>
      <stop offset="1" stop-color="#009af7"/>
    </linearGradient>
    <linearGradient id="linear-gradient-5" x1="545.63" y1="231" x2="572.82" y2="249.12" gradientTransform="translate(0 496) scale(1 -1)" gradientUnits="userSpaceOnUse">
      <stop offset="0" stop-color="#009af7"/>
      <stop offset=".12" stop-color="#0da3f4"/>
      <stop offset=".5" stop-color="#30baec"/>
      <stop offset=".8" stop-color="#46c9e8"/>
      <stop offset="1" stop-color="#4ecee6"/>
    </linearGradient>
    <linearGradient id="linear-gradient-6" x1="468.4" y1="246.43" x2="440" y2="261.18" gradientTransform="translate(0 496) scale(1 -1)" gradientUnits="userSpaceOnUse">
      <stop offset="0" stop-color="#009af7"/>
      <stop offset=".12" stop-color="#0da3f4"/>
      <stop offset=".5" stop-color="#30baec"/>
      <stop offset=".8" stop-color="#46c9e8"/>
      <stop offset="1" stop-color="#4ecee6"/>
    </linearGradient>
    <linearGradient id="linear-gradient-7" x1="186.93" y1="257.72" x2="162.93" y2="267.32" gradientTransform="translate(0 496) scale(1 -1)" gradientUnits="userSpaceOnUse">
      <stop offset="0" stop-color="#009af7"/>
      <stop offset=".12" stop-color="#0da3f4"/>
      <stop offset=".5" stop-color="#30baec"/>
      <stop offset=".8" stop-color="#46c9e8"/>
      <stop offset="1" stop-color="#4ecee6"/>
    </linearGradient>
    <linearGradient id="linear-gradient-8" x1="533.15" y1="405.53" x2="533.15" y2="457.6" gradientTransform="translate(0 496) scale(1 -1)" gradientUnits="userSpaceOnUse">
      <stop offset="0" stop-color="#302c3b"/>
      <stop offset=".36" stop-color="#3d3e4b"/>
      <stop offset="1" stop-color="#5b666e"/>
    </linearGradient>
  </defs>
  <polygon class="cls-10" points="523.89 130.13 501.09 129.37 527.12 76.57 551.14 77.34 523.89 130.13"/>
  <path class="cls-10" d="M206.12,67.29c4.06-.29,23.81-2.3,22.45,1.46-9.65,26.75-14.38,38.6-14.38,38.6h20.61l16.65-45.09c4.11-11.85-6.39-15.76-39.14-12.7-10.98,1.02-17.36-4.34-17.36-11.89,0-3.8,1.66-7.66,4.56-10.56,2.33-2.35,6.57-5.17,13.46-5.17V2.76c-10.67,0-20.41,3.88-27.4,10.93-6.44,6.47-10.12,15.2-10.12,23.98,0,14.96,11.58,31.02,30.67,29.62Z"/>
  <path class="cls-11" d="M276.49,0h-65.08c-10.42,0-9.94,29.98,0,29.98h13c12.03-19.1,39.57-.77,52.09-9.29,10.5-7.14,6.23-20.69,0-20.69Z"/>
  <path class="cls-10" d="M507.6,363.39c0,4.27,247.08,4.27,247.08,0s-247.08-4.27-247.08,0Z"/>
  <path class="cls-10" d="M631.14,241.77c-4.35,0-4.35,243.2,0,243.2s4.32-243.2,0-243.2Z"/>
  <path class="cls-10" d="M543.76,277.41c-3.05,3,171.64,174.98,174.71,171.97,3.06-3.04-171.64-174.99-174.71-171.97Z"/>
  <path class="cls-10" d="M718.48,277.41c-3.07-3-177.76,168.94-174.71,171.97,3.06,3,177.77-168.95,174.71-171.97Z"/>
  <path class="cls-10" d="M517,409.93c1.65,3.95,229.92-89.14,228.24-93.07-1.65-3.93-229.89,89.15-228.24,93.07Z"/>
  <path class="cls-10" d="M583.84,251.03c-3.97,1.66,90.58,226.32,94.57,224.71,4-1.63-90.55-226.33-94.57-224.71Z"/>
  <path class="cls-10" d="M517,316.85c-1.65,3.91,226.6,97,228.27,93.07,1.66-3.95-226.62-97.02-228.27-93.07Z"/>
  <path class="cls-10" d="M678.4,251.05c-4-1.62-98.55,223.05-94.57,224.71,4.04,1.58,98.58-223.07,94.57-224.71Z"/>
  <path class="cls-10" d="M630.64,229.85c-75.69,0-137.05,60.39-137.05,134.95s61.35,134.91,137.05,134.91,137.09-60.4,137.09-134.91c.01-74.54-61.38-134.95-137.09-134.95ZM630.64,475.18c-61.93,0-112.14-49.42-112.14-110.38s50.21-110.43,112.14-110.43,112.16,49.44,112.16,110.43c.01,60.98-50.19,110.38-112.16,110.38Z"/>
  <path class="cls-12" d="M630.64,217.58c-82.54,0-149.53,65.93-149.53,147.24.01,81.26,66.99,147.19,149.53,147.19s149.55-65.93,149.55-147.19-66.95-147.24-149.55-147.24ZM630.64,487.45c-68.79,0-124.6-54.91-124.6-122.65s55.81-122.68,124.6-122.68,124.62,54.93,124.62,122.68-55.78,122.65-124.62,122.65Z"/>
  <path class="cls-10" d="M25.53,363.39c0,4.27,247.06,4.27,247.06,0s-247.06-4.27-247.06,0Z"/>
  <path class="cls-10" d="M149.05,241.77c-4.34,0-4.34,243.2,0,243.2s4.32-243.2,0-243.2Z"/>
  <path class="cls-10" d="M61.7,277.41c-3.05,3,171.63,174.98,174.7,171.97,3.05-3.04-171.63-174.99-174.7-171.97Z"/>
  <path class="cls-10" d="M236.4,277.41c-3.07-3-177.75,168.94-174.7,171.97,3.07,3,177.77-168.95,174.7-171.97Z"/>
  <path class="cls-10" d="M34.93,409.93c1.65,3.95,229.91-89.14,228.24-93.07-1.66-3.93-229.9,89.15-228.24,93.07Z"/>
  <path class="cls-10" d="M101.77,251.03c-3.99,1.66,90.56,226.32,94.55,224.71,4.01-1.63-90.54-226.33-94.55-224.71Z"/>
  <path class="cls-10" d="M34.93,316.85c-1.66,3.91,226.58,97,228.27,93.07,1.65-3.95-226.62-97.02-228.27-93.07Z"/>
  <path class="cls-10" d="M196.32,251.05c-3.99-1.62-98.54,223.05-94.55,224.71,4.01,1.58,98.56-223.07,94.55-224.71Z"/>
  <path class="cls-10" d="M149.54,229.85c-75.7,0-137.07,60.39-137.07,134.95s61.35,134.91,137.07,134.91,137.09-60.4,137.09-134.91-61.39-134.95-137.09-134.95ZM149.54,475.18c-61.94,0-112.15-49.42-112.15-110.38s50.21-110.43,112.15-110.43,112.15,49.44,112.15,110.43-50.19,110.38-112.15,110.38Z"/>
  <path class="cls-12" d="M149.54,217.58C66.97,217.58,0,283.5,0,364.81s66.97,147.19,149.54,147.19,149.54-65.93,149.54-147.19c-.01-81.29-66.95-147.24-149.54-147.24ZM149.54,487.45c-68.8,0-124.6-54.91-124.6-122.65s55.8-122.68,124.6-122.68,124.62,54.93,124.62,122.68-55.8,122.65-124.62,122.65Z"/>
  <polygon class="cls-2" points="419.24 259.75 381.53 343.55 407.55 343.55 439.95 258.19 419.24 259.75"/>
  <path class="cls-2" d="M382.29,251.01s-5.4,22.05.02,25.61c6.35,4.14,30.18-8.95,30.31.05h.05c.12-9,30.15-9,30.28,0h.05c.12-9,23.95,4.1,30.28-.05,5.45-3.56.02-25.61.02-25.61h-91.01Z"/>
  <rect class="cls-9" x="206.91" y="138.02" width="290.35" height="31.16"/>
  <path class="cls-8" d="M392.81,341.03l-176.25-171.85-20.11,25.22,177.87,174.49c6.38-9.14,12.4-18.52,18.49-27.87Z"/>
  <path class="cls-7" d="M403.96,347.55c-6.95,10.62-13.82,21.27-21.2,31.62h248.38v-31.62h-227.18Z"/>
  <polygon class="cls-5" points="611.35 358.4 481.12 170.07 506.95 153.6 637.15 341.93 611.35 358.4"/>
  <polygon class="cls-6" points="404.26 370.43 375.89 356.3 495.74 127.66 531.69 127.66 404.26 370.43"/>
  <path class="cls-1" d="M624.84,326.62c-17.24-1.55-188.62-17.43-228.58-20.74-35.69-2.83-63.67,24.37-63.67,57.1s25.04,57.33,58.29,57.33c1.78,0,216.73-19.44,233.97-21.04,24.03-2.13,38.5-17.43,38.5-36.3-.01-18.9-14.48-34.16-38.51-36.35ZM623.59,388.92c-17.24,1.57-188.57,17.48-228.5,20.76-28.57,2.45-1.4-93.57,0-93.44,39.9,3.32,211.26,19.18,228.5,20.75,18.08,1.62,18.08,50.31,0,51.93Z"/>
  <path class="cls-10" d="M605.12,363.36c0,34.17,52.03,34.17,52.03,0-.01-34.11-52.03-34.11-52.03,0Z"/>
  <path class="cls-2" d="M618.12,363.41c0,17.07,26.03,17.07,26.03,0s-26.03-17.09-26.03,0Z"/>
  <path class="cls-2" d="M535.38,87.67c0,17.07,26,17.07,26,0s-26-17.07-26,0Z"/>
  <path class="cls-4" d="M237.14,114.93l-39.56,104.13c11.75,77.47-42.69,149.83-42.69,149.83l-13.58-11.23c38.19-55.39,26.82-144.27,26.82-144.27l37.38-98.47h31.63Z"/>
  <path class="cls-12" d="M123.05,363.36c0,34.17,52.02,34.17,52.02,0-.01-34.11-52.02-34.11-52.02,0Z"/>
  <path class="cls-3" d="M585.79,38.4c-26.15,0-52.28,26.79-126.85,18.3-6.14-.69-3.77,17.75,0,21.92,20.09,22.33,130.88,8.06,146.09-1.82,5.4-3.5,16.94-38.4-19.24-38.4"/>
  <path class="cls-10" d="M338.08,363.39c0,68.24,104.02,68.24,104.02,0s-104.02-68.29-104.02,0Z"/>
  <path class="cls-2" d="M364.09,363.36c0,34.17,52,34.17,52,0s-52-34.11-52,0Z"/>
  <polygon class="cls-2" points="377.09 363.39 353.01 438.98 379.03 438.98 403.09 363.39 377.09 363.39"/>
  <path class="cls-10" d="M318.57,438.98s-5.41,22.05.02,25.6c6.35,4.14,30.17-8.95,30.29.05h.06c.12-9,30.15-9,30.26,0h.05c.15-9,23.94,4.1,30.31-.05,5.42-3.55.02-25.6.02-25.6h-91.01Z"/>
  <path class="cls-12" d="M370.59,448.17c0,8.53-13,8.53-13,0-.01-8.55,13-8.55,13,0Z"/>
  <path class="cls-12" d="M349.15,448.17c0,4.27-26,4.27-26,0s26-4.27,26,0Z"/>
  <path class="cls-12" d="M405.03,448.17c0,4.27-25.99,4.27-25.99,0s25.99-4.27,25.99,0Z"/>
  <path class="cls-13" d="M377.09,363.39c0,17.07,26,17.07,26,0s-26-17.09-26,0Z"/>
  <polygon class="cls-2" points="241.01 114.93 201.65 114.93 206.26 102.6 245.07 102.6 241.01 114.93"/>
</svg>