<?xml version="1.0" encoding="UTF-8"?>
<svg id="Layer_1" data-name="Layer 1" xmlns="http://www.w3.org/2000/svg" xmlns:xlink="http://www.w3.org/1999/xlink" viewBox="0 0 511.99 512">
  <defs>
    <style>
      .cls-1 {
        fill: #b3c2c6;
      }

      .cls-2 {
        fill: #cfd8dd;
      }

      .cls-3 {
        fill: #6e8189;
      }

      .cls-4 {
        fill: #f9c802;
      }

      .cls-5 {
        fill: url(#linear-gradient-8);
      }

      .cls-6 {
        fill: url(#linear-gradient-7);
      }

      .cls-7 {
        fill: url(#linear-gradient-5);
      }

      .cls-8 {
        fill: url(#linear-gradient-6);
      }

      .cls-9 {
        fill: url(#linear-gradient-4);
      }

      .cls-10 {
        fill: url(#linear-gradient-3);
      }

      .cls-11 {
        fill: url(#linear-gradient-2);
      }

      .cls-12 {
        fill: #997558;
      }

      .cls-13 {
        fill: url(#linear-gradient);
      }

      .cls-14 {
        fill: #d6a57c;
      }

      .cls-15 {
        fill: #fff;
      }

      .cls-16 {
        fill: #4e5e67;
      }

      .cls-17 {
        fill: #302c3b;
      }

      .cls-18 {
        fill: #ba8f6b;
      }

      .cls-19 {
        fill: #dbb002;
      }
    </style>
    <linearGradient id="linear-gradient" x1="26.37" y1="232.39" x2="115.84" y2="232.39" gradientTransform="translate(0 514) scale(1 -1)" gradientUnits="userSpaceOnUse">
      <stop offset=".3" stop-color="#e6ebef"/>
      <stop offset=".59" stop-color="#e1e7eb"/>
      <stop offset=".93" stop-color="#d3dbe0"/>
      <stop offset="1" stop-color="#cfd8dd"/>
    </linearGradient>
    <linearGradient id="linear-gradient-2" x1="26.37" y1="283.59" x2="115.84" y2="283.59" gradientTransform="translate(0 514) scale(1 -1)" gradientUnits="userSpaceOnUse">
      <stop offset="0" stop-color="#ff000e"/>
      <stop offset=".73" stop-color="#dd0004"/>
      <stop offset="1" stop-color="#cf0000"/>
    </linearGradient>
    <linearGradient id="linear-gradient-3" x1="26.37" y1="334.8" x2="115.84" y2="334.8" gradientTransform="translate(0 514) scale(1 -1)" gradientUnits="userSpaceOnUse">
      <stop offset=".3" stop-color="#e6ebef"/>
      <stop offset=".59" stop-color="#e1e7eb"/>
      <stop offset=".93" stop-color="#d3dbe0"/>
      <stop offset="1" stop-color="#cfd8dd"/>
    </linearGradient>
    <linearGradient id="linear-gradient-4" x1="26.37" y1="388.13" x2="115.85" y2="388.13" gradientTransform="translate(0 514) scale(1 -1)" gradientUnits="userSpaceOnUse">
      <stop offset="0" stop-color="#ff000e"/>
      <stop offset=".73" stop-color="#dd0004"/>
      <stop offset="1" stop-color="#cf0000"/>
    </linearGradient>
    <linearGradient id="linear-gradient-5" x1="168.58" y1="232.39" x2="258.06" y2="232.39" gradientTransform="translate(0 514) scale(1 -1)" gradientUnits="userSpaceOnUse">
      <stop offset=".3" stop-color="#e6ebef"/>
      <stop offset=".59" stop-color="#e1e7eb"/>
      <stop offset=".93" stop-color="#d3dbe0"/>
      <stop offset="1" stop-color="#cfd8dd"/>
    </linearGradient>
    <linearGradient id="linear-gradient-6" x1="168.59" y1="283.59" x2="258.05" y2="283.59" gradientTransform="translate(0 514) scale(1 -1)" gradientUnits="userSpaceOnUse">
      <stop offset="0" stop-color="#ff000e"/>
      <stop offset=".73" stop-color="#dd0004"/>
      <stop offset="1" stop-color="#cf0000"/>
    </linearGradient>
    <linearGradient id="linear-gradient-7" x1="168.59" y1="334.8" x2="258.06" y2="334.8" gradientTransform="translate(0 514) scale(1 -1)" gradientUnits="userSpaceOnUse">
      <stop offset=".3" stop-color="#e6ebef"/>
      <stop offset=".59" stop-color="#e1e7eb"/>
      <stop offset=".93" stop-color="#d3dbe0"/>
      <stop offset="1" stop-color="#cfd8dd"/>
    </linearGradient>
    <linearGradient id="linear-gradient-8" x1="168.58" y1="385.99" x2="258.06" y2="385.99" gradientTransform="translate(0 514) scale(1 -1)" gradientUnits="userSpaceOnUse">
      <stop offset="0" stop-color="#ff000e"/>
      <stop offset=".73" stop-color="#dd0004"/>
      <stop offset="1" stop-color="#cf0000"/>
    </linearGradient>
  </defs>
  <path class="cls-1" d="M485.19,68.13c0,6.59-8.31,14.99-21.94,10.88-4.68,13.42-22.87,16.71-34.19,9.83-6.37,11.86-33.95,15.44-42.38,8.35-7.2,8.92-36.2,10.41-44.54.48-3.5,4.51-24.26,7.97-28.62,4.75-5.22,5.19-26.14,5.42-33.6,2.63-11.47,9.34-32.43,1.41-39.53-2.63-5.91,3.92-29.82,10.8-54.12,0,2.04-16.73,11.68-21.84,24.76-16.58,7.53-21.17,33.95-25.52,44.51-20.28,3.53-5.76,10.13-9.59,17.51-9.8,9.87-14.04,30.97-17.41,44.82-11.17,8.63-10.73,30.36-12.89,41.24-3.75,8-3.88,18.13-1.72,23.29,2.22,14.33-8.94,40.71-4.51,50.06,10.74,7.9-3.11,17.71-2.23,24.4,2.76,4.74-4.87,13.02-5.87,19.27-3,9.74-7.58,18-.79,32.25-2.44,8-.93-5.75,18.81-23.18,17.02Z"/>
  <polygon class="cls-13" points="38.75 256.01 36.97 307.2 105.24 307.2 103.46 256.01 38.75 256.01"/>
  <polygon class="cls-11" points="38.75 256.01 103.46 256.01 101.71 204.8 40.51 204.8 38.75 256.01"/>
  <polygon class="cls-10" points="40.51 204.8 101.71 204.8 99.94 153.61 42.27 153.61 40.51 204.8"/>
  <path class="cls-9" d="M42.27,153.61h57.67l-1.77-51.19c-27.06-9.64-54.12,0-54.12,0l-1.77,51.19Z"/>
  <polygon class="cls-7" points="180.96 256.01 179.19 307.2 247.45 307.2 245.68 256.01 180.96 256.01"/>
  <polygon class="cls-8" points="180.96 256.01 245.68 256.01 243.92 204.8 182.72 204.8 180.96 256.01"/>
  <polygon class="cls-6" points="182.72 204.8 243.92 204.8 242.15 153.61 184.49 153.61 182.72 204.8"/>
  <polygon class="cls-5" points="184.49 153.61 242.15 153.61 240.38 102.42 186.26 102.42 184.49 153.61"/>
  <path class="cls-18" d="M284.43,512s34.15-116.47,0-244.61l-142.23,49.66v-49.66L0,317.05v194.95h284.43Z"/>
  <polygon class="cls-16" points="142.2 260.27 0 309.94 0 318.47 142.2 268.81 142.2 260.27"/>
  <polygon class="cls-16" points="142.2 309.94 142.2 318.47 284.43 268.81 284.43 260.27 142.2 309.94"/>
  <rect class="cls-19" y="494.93" width="284.43" height="17.07"/>
  <rect class="cls-16" x="18.48" y="426.67" width="106.66" height="85.33"/>
  <rect class="cls-3" x="22.75" y="430.9" width="98.13" height="81.1"/>
  <rect class="cls-16" x="63.82" y="496" width="16" height="5.33"/>
  <rect class="cls-16" x="159.28" y="426.67" width="106.66" height="85.33"/>
  <rect class="cls-3" x="163.55" y="430.9" width="98.13" height="81.1"/>
  <rect class="cls-16" x="204.62" y="496" width="16" height="5.33"/>
  <rect class="cls-14" x="284.43" y="187.74" width="227.56" height="324.26"/>
  <rect class="cls-4" x="284.43" y="494.93" width="227.56" height="17.07"/>
  <rect class="cls-16" x="284.43" y="179.21" width="227.56" height="8.53"/>
  <path class="cls-12" d="M496.34,409.6h-196.26c-2.35,0-4.27,1.92-4.27,4.27v98.13h204.8v-98.13c0-2.35-1.92-4.27-4.27-4.27Z"/>
  <rect class="cls-17" x="304.34" y="439.47" width="38.4" height="72.53"/>
  <rect class="cls-17" x="347.01" y="418.14" width="102.4" height="17.07"/>
  <rect class="cls-17" x="347.01" y="439.47" width="49.07" height="72.53"/>
  <rect class="cls-17" x="304.34" y="418.14" width="38.4" height="17.07"/>
  <rect class="cls-17" x="453.67" y="418.14" width="38.4" height="17.07"/>
  <rect class="cls-17" x="453.67" y="439.47" width="38.4" height="72.53"/>
  <rect class="cls-17" x="400.34" y="439.47" width="49.07" height="72.53"/>
  <path class="cls-15" d="M409.47,468.04v11.14c0,1.12,1.54,1.12,1.54,0v-11.14c0-1.12-1.54-1.12-1.54,0Z"/>
  <path class="cls-15" d="M386.93,468.04v11.14c0,1.12-1.52,1.12-1.52,0v-11.14c0-1.12,1.52-1.12,1.52,0Z"/>
  <rect class="cls-12" x="304.88" y="217.61" width="186.66" height="59.73"/>
  <rect class="cls-17" x="309.15" y="221.87" width="178.13" height="51.2"/>
  <rect class="cls-12" x="426.48" y="217.61" width="4.27" height="59.73"/>
  <rect class="cls-12" x="365.68" y="217.61" width="4.27" height="59.73"/>
  <rect class="cls-12" x="304.88" y="315.74" width="186.66" height="59.73"/>
  <rect class="cls-17" x="309.15" y="320" width="178.13" height="51.2"/>
  <rect class="cls-12" x="426.48" y="315.74" width="4.27" height="59.73"/>
  <rect class="cls-12" x="365.68" y="315.74" width="4.27" height="59.73"/>
  <rect class="cls-12" x="18.48" y="338.5" width="247.46" height="59.73"/>
  <rect class="cls-17" x="22.75" y="342.76" width="238.93" height="51.2"/>
  <rect class="cls-12" x="200.88" y="338.5" width="4.27" height="59.73"/>
  <rect class="cls-12" x="140.08" y="338.5" width="4.27" height="59.73"/>
  <rect class="cls-12" x="79.28" y="338.5" width="4.27" height="59.73"/>
  <path class="cls-2" d="M431.14,42.99c0,8.58-10.07,19.51-26.61,14.17-5.69,17.47-27.72,21.74-41.46,12.78-7.72,15.44-41.17,20.07-51.4,10.85-8.73,11.6-43.89,13.52-54.01.61-4.26,5.87-22.21,7.41-27.53,3.23-6.31,6.75-20.23,8.12-29.26,4.48-9.24,16.21-47.15,12.42-55.79,7.18-7.13,5.09-46.92,6.12-46.92,6.12h-54.12c2.47-21.78,38.71-43.22,54.59-36.39,9.11-27.55,41.16-33.22,53.96-26.39,4.28-7.49,12.26-12.47,21.22-12.76,11.97-18.25,37.55-22.65,54.36-14.52,10.45-13.96,36.81-16.76,50.01-4.88,9.69-5.06,22.01-2.27,28.24,2.88,17.37-11.63,49.35-5.87,60.7,13.99,9.56-4.09,21.47-2.91,29.58,3.57,5.73-6.31,15.81-7.63,23.36-3.87,11.8-9.88,21.84-1.07,39.11-3.2,9.69-1.2-6.96,24.51-28.07,22.17Z"/>
</svg>