<?xml version="1.0" encoding="UTF-8"?>
<svg id="Layer_1" data-name="Layer 1" xmlns="http://www.w3.org/2000/svg" xmlns:xlink="http://www.w3.org/1999/xlink" viewBox="0 0 320.01 512">
  <defs>
    <style>
      .cls-1, .cls-2 {
        fill: #115e5e;
      }

      .cls-1, .cls-3 {
        fill-rule: evenodd;
      }

      .cls-4, .cls-3 {
        fill: #198787;
      }

      .cls-5 {
        fill: url(#linear-gradient-2);
      }

      .cls-6 {
        fill: url(#radial-gradient);
      }

      .cls-7 {
        fill: url(#linear-gradient);
      }
    </style>
    <radialGradient id="radial-gradient" cx="189.45" cy="460.76" fx="189.45" fy="460.76" r="39.65" gradientTransform="translate(-115.02 418.65) scale(.89 -.85)" gradientUnits="userSpaceOnUse">
      <stop offset="0" stop-color="#ffe14d"/>
      <stop offset=".25" stop-color="#ffdf4a"/>
      <stop offset=".47" stop-color="#ffd93f"/>
      <stop offset=".68" stop-color="#ffcf2d"/>
      <stop offset=".88" stop-color="#ffc214"/>
      <stop offset="1" stop-color="#ffb700"/>
    </radialGradient>
    <linearGradient id="linear-gradient" x1="21.42" y1="480.21" x2="75.05" y2="480.21" gradientTransform="translate(0 514) scale(1 -1)" gradientUnits="userSpaceOnUse">
      <stop offset="0" stop-color="#ffe14d"/>
      <stop offset=".65" stop-color="#ffc418"/>
      <stop offset="1" stop-color="#ffb700"/>
    </linearGradient>
    <linearGradient id="linear-gradient-2" x1="161.7" y1="2" x2="161.7" y2="451.07" gradientTransform="translate(0 514) scale(1 -1)" gradientUnits="userSpaceOnUse">
      <stop offset="0" stop-color="#5dcfbe"/>
      <stop offset="1" stop-color="#9ef2e6"/>
    </linearGradient>
  </defs>
  <path class="cls-6" d="M54.68,55.9c30.72-7.67,31.91-43.74,39.06-55.9-18.09,10.13-22.86,3.59-35.22,12.51-2.78,1.99-17.2-9.88-19.54-8.02-2.74,2.18-3.57,13.76-12.85,21.42-34.11,28.16,16.42,36.43,28.55,29.99Z"/>
  <path class="cls-7" d="M45.45,61.04s-.52-42.79,29.6-54.5c-26.07,0-35.6,28.4-48.46,8.11-18.58,28.62,18.86,46.39,18.86,46.39Z"/>
  <path class="cls-2" d="M23.15,54.82c6.5-6.55,30.32-6.55,36.82,0,14.3,14.4-51.13,14.4-36.82,0Z"/>
  <path class="cls-5" d="M267.32,429.35s-22.73-25.7-20.46-91.13c0,0,5.47-14.02-3.52-27.94,21.88-2.73,76.67-5.67,76.67-5.67l-80.12-10.15,69.59-29.56-84.94,13.78,42.9-49.42-64.45,40.5-12.63-64.01-11.54,65.76-63.78-39.83,43.42,45.66-72.07,4.8c-38.3-114.89-18.45-148.82-31.06-174.84l23.55-7.79-16.1-36.56-49.78,1.92c-18.49,35.53-6.62,41.81,4.68,44.55,4.58,41.94-4.99,55.2,8.97,66.89,13.75,20.57,1.81,69.71,19.14,133.25-.95,3.94-47.44,93.71-1.4,101.57,33.68,31.67,6.34,35.9,29.29,94.36,0,0,37.81,6.53,114.32,6.53,91.46,0,122.88-8.5,122.88-8.5-17.5-54.34-9.11-62.86-43.58-74.15ZM132.02,358.13c-19.96.8-15.1-46.37-15.1-46.37l21-1.74c22.26,21.93-5.9,48.1-5.9,48.1ZM145.65,292.36l-42.12,10.04-10.23-15.94,52.35,5.9Z"/>
  <path class="cls-4" d="M116.66,509.84c9.07,1.14,21.7,1.21,21.7,1.21,0,0,23.13-25.19,31.22-77.19-12.17,30.34-52.93,75.98-52.93,75.98Z"/>
  <path class="cls-3" d="M270.08,428.6c-.74-18.91-23.58-33.81-21.89-89.15.7-2.32,7.93-1.34,4.38-28.36,21.86-2.72,67.44-6.48,67.44-6.48l-67.28-.52c.1-6.83-2.8-13.26-2.8-13.26,19.45-9.03,59.55-25.92,59.55-25.92l-61.62,19.34s-3.54-8.42-13.69-14.49c10.54-13.48,33.28-40.5,33.28-40.5l-42.7,35.41s-8.61-4.78-21.57-6.05l-12.82-52.87-2.86,52.98s-15.69,2.14-24.42,6.74l-48.04-33.8,37.16,41.81c-7.21,5.02-12.85,11.13-12.85,11.13l-44.46-2.69c-5.95-42.46-23.58-70.32-31.89-115.19,9.71-12.46-7.23-31.55,4.66-53.05,18.9.86,33.46-12.23,10.84-34.74,5.18-6.26,4.15-20.38-34.22-20.38C2.2,58.55-1.14,67.6,4.24,79.91c-9.2,9.99-2.16,31,9.14,33.76,2.65,4.61-.57,10.66,5.36,16.62-2.64.66-5.96,11.83-1.58,20.64-3.05,10.38-1.46,20.9,9.92,26.56,12.66,66.7-6.04,67.75,15.83,135.07-35.62,46.11-31.85,107.93,3.83,105.5-6.26,26.82,6.28,33.82,14.9,40.53-6.5,11-6.42,22.41,2.61,26.74,0,0-5.91,5.98-5.91,14.03,0,5.83,35.46,8.7,35.46,8.7,0,0,32.62-37.84,44.7-120.95-28.9,77.27-69.33,92.5-69.33,92.5-3.18-47.85,57.79-99.01,76.07-132.56,1.36-2.5,2.28-5.5,3.02-8.86,1.38.61,2.94,1.06,4.58,1.42.62,4.79,1.14,12.6,6.46,9.78,1.95-1.05-4.31-11.4-4.31-11.4l3.78-3.26s2.83,6.18,4.84,8.69c2.94-5.3.7-13.71,0-20.08,5.27-15.14,23.18-13.86,31.21-26.2,4.18,10.43,26.67,4.23,28.03,17.51-13.74-1.93-18.21,1.68-20.46,5.44-1.3,8.73,4.74,25.74-1.62,26.06-4.53.19-10.48-3.56-11.85,2.17-.65,2.73,10.85.02,11.3,2.71.65,3.82-2.83,3.42-4.83,2.17-2.03,2.15-8.09,5.43-8.09,5.43,7.7.82,21.22-4.67,17.23.54-2.56,3.36-11.5,0-14.54,2.72,2.83,3.58,13.99,3.8,18.32.86,2.31-1.54,2.58-4.23,4.3-6.29-4.15-.89-8.38-1.7-8.62-6.51,10.37-.1,3.22-5.5,3.22-5.5v-14.74s14.27-.02,16.83,5.58c4.57,10.12-1.23,20.34-9.56,37.23-2.99,6.08-29.7,12.72-44.96-6.86-1.25,14.67,13.77,26.71,21.02,36.9,12.1,17.09,1.66,39-19.39-1.09,5.5,22.4,21.26,43.48,43.63,35.83-15.99,1.6-25.52-12.76-9.65-10.86,2.23-32.02,20.93-37.71,31.74-92.81l3.42,4.38s-2.69,9.96-1.26,10.82c2.71,1.64,4.86-.75,6.3-3.82-.27,2.46-.61,4.86-.99,7.26-.35,1-3.5,9.32-10.17,5.24-6.32,17.03,5.57,61.69-3.13,62.64-7.39.79-3.86-37.69-3.86-37.69,0,0-15.03,29.36-19.4,43.96,6.16,6.62,38.37,12.42,51.02-.93,6.12,5.63,14.07,11.34,24.34,17.18-44-6.5-74.04,4.45-74.04,4.45,0,0,10.86,21.66-16.58,63.93,0,0,24.07-9.92,45.66-52.59,0,0,53.36-10.66,66.39,46.46,0,0,13.16-2.02,13.16-5.56,0-17.8-2.7-61.33-47.65-70.75ZM53.82,66.35c1.77.2,2.14,6.43.39,6.56-67.07,5-44.7-11.95-.39-6.56ZM6.82,99.14c-8.69-32.26,57.36-19.44,67.31-4.26-34.28-4.61-43.59-.27-67.31,4.26ZM48.08,125.17c-.44-6.64,6.59-4.76,10.35,14.58,4.17,21.49-8.9,8.54-10.35-14.58ZM29.18,171.7c-10.98-3.68-9.4-15.78-6.75-22.09-3.58-9.86-1.05-17.18.26-18.14-5.38-8.22-2.65-12.62-3.98-21.44,12.05,1.18,1.33,13.15,11.25,22.1,3.04,1.3,12.18-3.68,16.28,2.76-5.95,4.34-14.16-.52-19.1,5.92,7.18.13,20.68,0,20.25,8.13-8.05,1.86-13.22-4.14-19.29.94,11.24.65,19.53,6.82,15.7,10.76-7.42-.52-8.94-4.46-16.37-3.53.02,0,.95,9.28,1.74,14.59ZM31.6,180.98s16.18-4.88,16.77.63c3.6,33.78-15.34,28.56-16.77-.63ZM40.96,409.14c-18.12-87.98,12.41-47.75,28.79-38.48-22.78-59.83-36.74-81.21-33.02-150.83,29.82-2.62,4.77,42.25,47.87,125.64,14.56-52.22,15.65,36.12-43.64,63.67ZM210.5,321.38c2.88-4.9,11.97-2.87,12.31-.19.35,2.51-5.86-1.91-12.31.19ZM95.79,287.59l42.9,4.86s-2.06,4.58-1.36,7.92l-27.54,2.62c-7.73-2.57-14.01-15.39-14.01-15.39ZM131.69,357.28c-16.49-2.46-3.94-34.55-12.94-44.16l19.09-1.22c4.62,12.17-4.18,17.96,4.37,29.16-3.13,5.77-7.9,10-10.51,16.22ZM225.54,304.84c-10.62-5.17-27.17-6.08-30.91-18.37-2.39,10.6-15.67,11.66-24.02,18.37-6.46,5.18-7.98,13.11-18.32,10.31.29,3.31,2.98,4.22,4.83,5.98-3.9,1.79-5.56,5.84-7.7,9.42.37-3.82.63-7.98.67-12.98.31-36.94,57.62-59.53,84.55-20.06-.27,1.31-2.51,10.55-9.1,7.34Z"/>
  <path class="cls-3" d="M193.21,325.47c-.6,3.9-6.78,7.27-14,7.06,1.44-.9,3.26-1.42,4.86-2.17-6.21.07-13.27-1.18-16.71-5.43,4.98-1.86,8.2-5.48,15.1-5.43-2.1-1.14-7.62-1.72-10.23-.54,1.5-4.03,22.98-6.07,20.99,6.52Z"/>
  <path class="cls-3" d="M149.05,343.37c1.83,7.9,4.84,16.95,15.1,14.66,5.12,9.98,1.22,25.85,2.14,39.62-3.8-2.66-23.19-42.73-17.24-54.28Z"/>
  <path class="cls-1" d="M156.41,293.63c-1.53,1.89-2.6,3.78-2.6,3.78-6.52-5.95-11.98-5.67-11.98-5.67,1.74-9.38,8-3.68,14.58,1.9Z"/>
  <path class="cls-1" d="M161.09,288.17c-1.93,1.41-3.27,3.18-3.27,3.18-5.47-6.97-11.41-8.08-11.41-8.08,5.13-8.47,9.1-1.69,14.68,4.9Z"/>
  <path class="cls-1" d="M166.79,283.51c-2.01,1.22-3.7,2.73-3.7,2.73-4.01-7.9-9.83-10.02-9.83-10.02,6.68-7.31,9.34-.27,13.53,7.29Z"/>
  <path class="cls-1" d="M173.16,279.77c-2.29.91-4.04,2.19-4.04,2.19-2.66-8.46-8.03-11.48-8.03-11.48,7.77-6.1,9.17,1.14,12.07,9.29Z"/>
  <path class="cls-1" d="M180.86,276.87c-2.58.6-4.72,1.7-4.72,1.7-1.6-8.67-6.03-12.95-6.03-12.95,8.81-4.48,8.94,2.42,10.75,11.25Z"/>
  <path class="cls-1" d="M189.13,275.36c-2.7.32-5.26.86-5.26.86-1.24-8.97-4.04-13.66-4.04-13.66,9.1-3.75,8.49,2.74,9.3,12.8Z"/>
  <path class="cls-1" d="M152.84,299.38c-1.16,2.13-1.82,4.34-1.82,4.34-4.49-3.74-8.7-3.06-11.74-3.49.5-9.95,8.89-4.57,13.55-.86Z"/>
  <path class="cls-1" d="M234.07,292.99c1.53,1.9,2.63,3.78,2.63,3.78,6.65-5.97,12.22-5.68,12.22-5.68-1.8-9.37-8.17-3.67-14.85,1.9Z"/>
  <path class="cls-1" d="M229.3,287.52c1.95,1.42,3.33,3.18,3.33,3.18,5.58-6.96,11.63-8.07,11.63-8.07-5.22-8.46-9.3-1.69-14.96,4.89Z"/>
  <path class="cls-1" d="M223.48,282.86c2.04,1.21,3.78,2.73,3.78,2.73,4.1-7.9,10.01-10.02,10.01-10.02-6.81-7.3-9.51-.26-13.78,7.29Z"/>
  <path class="cls-1" d="M216.99,279.13c2.34.91,4.12,2.19,4.12,2.19,2.72-8.46,8.18-11.47,8.18-11.47-7.93-6.1-9.36,1.14-12.3,9.28Z"/>
  <path class="cls-1" d="M209.14,276.24c2.64.58,4.82,1.7,4.82,1.7,1.63-8.67,6.14-12.95,6.14-12.95-8.96-4.47-9.1,2.42-10.95,11.26Z"/>
  <path class="cls-1" d="M200.7,274.72c2.77.32,5.37.86,5.37.86,1.26-8.97,4.11-13.65,4.11-13.65-9.3-3.75-8.65,2.74-9.48,12.79Z"/>
  <path class="cls-1" d="M237.7,298.75c1.18,2.13,1.84,4.33,1.84,4.33,4.56-3.72,8.86-3.04,11.95-3.47-.49-9.96-9.03-4.58-13.79-.86Z"/>
  <path class="cls-1" d="M198.55,260.39c-.9,5.54-.42,14.44-.42,14.44-2.99-.23-6.46.1-6.46.1,0,0-.07-7.82-1.24-14.18,1.79-.92,6.21-1.53,8.12-.36Z"/>
</svg>