<?xml version="1.0" encoding="UTF-8"?>
<svg id="Layer_1" data-name="Layer 1" xmlns="http://www.w3.org/2000/svg" xmlns:xlink="http://www.w3.org/1999/xlink" viewBox="0 0 819.21 512">
  <defs>
    <style>
      .cls-1 {
        fill: #cfd8dd;
      }

      .cls-2 {
        fill: url(#linear-gradient-5);
      }

      .cls-3 {
        fill: url(#linear-gradient-6);
      }

      .cls-4 {
        fill: url(#linear-gradient-4);
      }

      .cls-5 {
        fill: url(#linear-gradient-3);
      }

      .cls-6 {
        fill: url(#linear-gradient-2);
      }

      .cls-7 {
        fill: #b00505;
      }

      .cls-8 {
        fill: url(#linear-gradient);
      }

      .cls-9 {
        fill: #e81c27;
      }

      .cls-10 {
        fill: #4e5e67;
      }

      .cls-11 {
        fill: #302c3b;
      }

      .cls-12 {
        fill: #bf0505;
      }
    </style>
    <linearGradient id="linear-gradient" x1="453.62" y1="349.5" x2="453.62" y2="407.9" gradientTransform="translate(0 514) scale(1 -1)" gradientUnits="userSpaceOnUse">
      <stop offset="0" stop-color="#99a8ae"/>
      <stop offset=".1" stop-color="#a6b4bb"/>
      <stop offset=".32" stop-color="#bccbd3"/>
      <stop offset=".53" stop-color="#cad8e1"/>
      <stop offset=".7" stop-color="#cfdde6"/>
    </linearGradient>
    <linearGradient id="linear-gradient-2" x1="353.05" y1="98.33" x2="353.05" y2="402.22" gradientTransform="translate(0 514) scale(1 -1)" gradientUnits="userSpaceOnUse">
      <stop offset="0" stop-color="#c40000"/>
      <stop offset=".07" stop-color="#ce0002"/>
      <stop offset=".25" stop-color="#e40008"/>
      <stop offset=".44" stop-color="#f3000b"/>
      <stop offset=".67" stop-color="#fc000d"/>
      <stop offset="1" stop-color="#ff000e"/>
    </linearGradient>
    <linearGradient id="linear-gradient-3" x1="73.86" y1="139.96" x2="73.86" y2="378.69" gradientTransform="translate(0 514) scale(1 -1)" gradientUnits="userSpaceOnUse">
      <stop offset="0" stop-color="#302c3b"/>
      <stop offset=".29" stop-color="#454754"/>
      <stop offset=".76" stop-color="#636d78"/>
      <stop offset="1" stop-color="#6e7b85"/>
    </linearGradient>
    <linearGradient id="linear-gradient-4" x1="726.95" y1="250.29" x2="726.95" y2="514" gradientTransform="translate(0 514) scale(1 -1)" gradientUnits="userSpaceOnUse">
      <stop offset="0" stop-color="#c40000"/>
      <stop offset=".07" stop-color="#ce0002"/>
      <stop offset=".25" stop-color="#e40008"/>
      <stop offset=".44" stop-color="#f3000b"/>
      <stop offset=".67" stop-color="#fc000d"/>
      <stop offset="1" stop-color="#ff000e"/>
    </linearGradient>
    <linearGradient id="linear-gradient-5" x1="278.78" y1="-18.26" x2="272.6" y2="28.67" gradientTransform="translate(0 514) scale(1 -1)" gradientUnits="userSpaceOnUse">
      <stop offset="0" stop-color="#343040"/>
      <stop offset=".08" stop-color="#3c3b49"/>
      <stop offset=".36" stop-color="#525a64"/>
      <stop offset=".51" stop-color="#5b666e"/>
    </linearGradient>
    <linearGradient id="linear-gradient-6" x1="164.79" y1="211.18" x2="164.79" y2="372.37" gradientTransform="translate(0 514) scale(1 -1)" gradientUnits="userSpaceOnUse">
      <stop offset="0" stop-color="#302c3b"/>
      <stop offset=".29" stop-color="#454754"/>
      <stop offset=".76" stop-color="#636d78"/>
      <stop offset="1" stop-color="#6e7b85"/>
    </linearGradient>
  </defs>
  <path class="cls-11" d="M626.01,13.47H16.34c-7.76,0-21.11,13.48-14.62,13.48h609.63c6.46-.01,22.35-13.48,14.66-13.48Z"/>
  <rect class="cls-10" x="303.36" y="57.84" width="21.34" height="20.21"/>
  <rect class="cls-11" x="297.47" y="21.8" width="33.11" height="40.77"/>
  <rect class="cls-10" x="259.42" y="0" width="109.22" height="40.41"/>
  <path class="cls-11" d="M795.49,183.95c0,2.89-143.09,2.89-143.09,0,.01-2.92,143.09-2.92,143.09,0Z"/>
  <path class="cls-11" d="M723.95,252.86c-3.01,0-3.01-137.84,0-137.84s3.03,137.84,0,137.84Z"/>
  <path class="cls-11" d="M774.54,232.65c-2.15,2.05-103.3-95.36-101.17-97.46,2.15-2.05,103.33,95.41,101.17,97.46Z"/>
  <path class="cls-11" d="M673.35,232.65c-2.12-2.05,99.05-99.52,101.17-97.46,2.18,2.07-99.01,99.55-101.17,97.46Z"/>
  <ellipse class="cls-9" cx="723.97" cy="183.95" rx="19" ry="18.32"/>
  <path class="cls-8" d="M425.34,123.14c.84-10.44,51.7-17.41,54.57-17.02,2.87.4,3.21,45.17-1.78,45.17s-49.59,4.35-51.01,12.26c-1.43,7.91-2.14-36.04-1.78-40.41Z"/>
  <path class="cls-7" d="M655.38,157.41c-105.18,15.65-213.3,7.73-213.3,7.73v-31.41c0-13.24-27.1-27.8-27.1-37.53,0-8.69-.95-21.11-3.8-21.11h-168.83c-12.51,0-19,26.69-83.67,50.43,42.97,140.01,401.51,91.98,496.72,79.45v-47.56h-.01Z"/>
  <path class="cls-6" d="M61.16,374.05c97.51,84.85,362.78,28.04,384.05-63.88,4.28-18.47,214.9-74.91,214.9-74.91l-4.72-49.91s-173.31,19.26-211.87,14.4c-29.61-31.44-91.32-73.83-139.14-82.41-9.38-1.7-104.83-19.14-173.77,17.97-54.39,45.62-112.97,176.06-69.45,238.73Z"/>
  <path class="cls-5" d="M130.62,135.31c-24.08,17.54-191.41,159.23-69.45,238.73-5.16-70.12,34.71-202.83,69.45-238.73Z"/>
  <path class="cls-4" d="M768.88,106.1c-7.48-7.48,2.75-93.9,14-93.9,3.6,0,5.62-12.2,2.15-12.2-38.98,0-70.87,11.2-75.43,21.79-36.28,84.31-79.72,155.37-74.48,209.52,6.23,10.82,35.6,32.4,88.86,32.4,43.72,0,88.28-45.61,93.57-60.93,2.64-7.69,1.74-26.23,0-32.44-2.74-9.82-18.74-34.36-48.67-64.24ZM723.95,235.85c-29.76,0-53.86-23.22-53.86-51.9s24.1-51.9,53.86-51.9,53.89,23.21,53.89,51.9c0,28.67-24.13,51.9-53.89,51.9Z"/>
  <path class="cls-1" d="M234.28,254.71c-1.38-3.7-2.5-6.68-12.89-2l-10.91,4.92c-10.42,4.68-9.32,7.67-7.92,11.37.82,2.21,32.54-12.08,31.72-14.28Z"/>
  <path class="cls-11" d="M199.46,490.8c-.72,5.85-20.1,8.29-19.28,2.37,4.38-32.1-1.46-76.48-13.53-104.12-1.69-3.85,16.79-7.5,18.65-3.6,10.98,23.1,17.84,75.61,14.16,105.34Z"/>
  <path class="cls-11" d="M386.14,491.96c-1.52,6.58-23.03,9.38-21.2,2.8,11.78-42.75-3.14-102.05-16.99-133.89-1.93-4.47,18.34-8.72,20.45-4.22,12.56,26.6,28.38,89.41,17.73,135.31Z"/>
  <path class="cls-2" d="M474.46,489.08H106.99c-14.86,0-20.25-18.38-24.88-42.15-2.21-11.35-25.84-2.68-23.81,8.1,5.95,31.58,15.83,56.97,35.53,56.97h380.01c14.25,0,14.67-22.92.61-22.92Z"/>
  <path class="cls-12" d="M101.54,363.98c-10.36,0-16.1-1.77-17.5-5.35-1.93-5-6.23-37.61.79-66.92l3.28.74c-6.76,28.17-2.69,60.4-.91,65.02.79,2.07,6.94,3.92,21.58,3,42.16-2.61,125.71-25.78,129.59-42,5.02-20.9,6.37-69.53,4.45-100.11l3.38-.2c1.92,30.81.52,79.88-4.54,101.07-4.65,19.38-92.92,42.02-132.65,44.51-2.73.15-5.21.24-7.48.24Z"/>
  <path class="cls-3" d="M127.88,157.7c-11.83,15.36-46.03,136.19-44.61,144.5,1.43,8.33,163.2-69.02,163.07-77.44-.22-15.71-.22-68.7-17.56-80.61-11.19-7.68-93.4,3.84-100.9,13.56Z"/>
</svg>