<?xml version="1.0" encoding="UTF-8"?>
<svg id="Layer_1" data-name="Layer 1" xmlns="http://www.w3.org/2000/svg" xmlns:xlink="http://www.w3.org/1999/xlink" viewBox="0 0 529.07 512">
  <defs>
    <style>
      .cls-1 {
        fill: #cfd8dd;
      }

      .cls-2 {
        fill: #7ab51d;
      }

      .cls-3 {
        fill: #6e8189;
      }

      .cls-4 {
        fill: url(#linear-gradient-2);
      }

      .cls-5 {
        fill: #1a1626;
      }

      .cls-6 {
        fill: #fff1d4;
      }

      .cls-7 {
        fill: url(#linear-gradient);
      }

      .cls-8 {
        fill: #f66257;
      }

      .cls-9 {
        fill: #92c932;
      }

      .cls-10 {
        fill: #d6a57c;
      }

      .cls-11 {
        fill: #fff;
      }

      .cls-12 {
        fill: #9e6c49;
      }

      .cls-13 {
        fill: #f0dbaf;
      }

      .cls-14 {
        fill: #70a61b;
      }

      .cls-15 {
        fill: #e8c892;
      }

      .cls-16 {
        fill: #302c3b;
      }

      .cls-17 {
        fill: #5f4047;
      }
    </style>
    <linearGradient id="linear-gradient" x1="114.99" y1="85.58" x2="97.81" y2="81.18" gradientTransform="translate(0 514) scale(1 -1)" gradientUnits="userSpaceOnUse">
      <stop offset="0" stop-color="#735628"/>
      <stop offset=".39" stop-color="#8f6f40"/>
      <stop offset=".74" stop-color="#a07f4f"/>
      <stop offset="1" stop-color="#a68554"/>
    </linearGradient>
    <linearGradient id="linear-gradient-2" x1="-2279.79" y1="85.58" x2="-2296.97" y2="81.18" gradientTransform="translate(-1865.7145 514) rotate(-180)" gradientUnits="userSpaceOnUse">
      <stop offset="0" stop-color="#735628"/>
      <stop offset=".39" stop-color="#8f6f40"/>
      <stop offset=".74" stop-color="#a07f4f"/>
      <stop offset="1" stop-color="#a68554"/>
    </linearGradient>
  </defs>
  <rect class="cls-15" x="68.27" y="247.47" width="392.53" height="256"/>
  <rect class="cls-15" x="85.33" y="8.53" width="358.4" height="256"/>
  <path class="cls-10" d="M460.8,443.73H68.27c-2.39,0-4.27,1.88-4.27,4.27v51.2h401.07v-51.2c0-2.39-1.88-4.27-4.27-4.27Z"/>
  <rect class="cls-12" x="364.8" y="42.67" width="51.2" height="68.27"/>
  <rect class="cls-12" x="283.73" y="42.67" width="51.2" height="68.27"/>
  <rect class="cls-12" x="194.13" y="42.67" width="51.2" height="68.27"/>
  <rect class="cls-12" x="113.07" y="42.67" width="51.2" height="68.27"/>
  <rect class="cls-12" x="364.8" y="145.07" width="51.2" height="68.27"/>
  <rect class="cls-12" x="283.73" y="145.07" width="51.2" height="68.27"/>
  <rect class="cls-12" x="194.13" y="145.07" width="51.2" height="68.27"/>
  <rect class="cls-12" x="113.07" y="145.07" width="51.2" height="68.27"/>
  <rect class="cls-12" x="373.33" y="277.33" width="51.2" height="68.27"/>
  <rect class="cls-12" x="283.73" y="277.33" width="51.2" height="68.27"/>
  <rect class="cls-12" x="194.13" y="277.33" width="51.2" height="68.27"/>
  <rect class="cls-12" x="104.53" y="277.33" width="51.2" height="68.27"/>
  <path class="cls-8" d="M512,226.13c0,2.39-1.88,4.27-4.27,4.27h-42.67c-2.39,0-4.27-1.88-4.27-4.27V38.4c0-2.39,1.88-4.27,4.27-4.27h42.67c2.39,0,4.27,1.88,4.27,4.27v187.73Z"/>
  <rect class="cls-3" x="443.73" y="213.33" width="17.07" height="8.53"/>
  <rect class="cls-3" x="443.73" y="42.67" width="17.07" height="8.53"/>
  <rect class="cls-5" x="375.13" y="46.93" width="30.46" height="59.73"/>
  <rect class="cls-5" x="294.06" y="46.93" width="30.46" height="59.73"/>
  <rect class="cls-5" x="204.46" y="46.93" width="30.46" height="59.73"/>
  <rect class="cls-5" x="123.39" y="46.93" width="30.46" height="59.73"/>
  <rect class="cls-5" x="375.13" y="149.33" width="30.46" height="59.73"/>
  <rect class="cls-5" x="294.06" y="149.33" width="30.46" height="59.73"/>
  <rect class="cls-5" x="204.46" y="149.33" width="30.46" height="59.73"/>
  <rect class="cls-5" x="123.39" y="149.33" width="30.46" height="59.73"/>
  <rect class="cls-5" x="383.66" y="281.6" width="30.46" height="59.73"/>
  <rect class="cls-5" x="294.06" y="281.6" width="30.46" height="59.73"/>
  <rect class="cls-5" x="204.46" y="281.6" width="30.46" height="59.73"/>
  <rect class="cls-5" x="114.86" y="281.6" width="30.46" height="59.73"/>
  <path class="cls-17" d="M369.07,106.67h14.08c0-11.26-4.1-35.58-4.1-35.58,0,0,7.08-18.43,7.08-24.15h-17.07s0,59.73,0,59.73Z"/>
  <path class="cls-17" d="M411.73,106.67h-14.08c0-11.26,4.1-35.58,4.1-35.58,0,0-7.08-18.43-7.08-24.15h17.07s0,59.73,0,59.73Z"/>
  <path class="cls-17" d="M288,106.67h14.08c0-11.26-4.1-35.58-4.1-35.58,0,0,7.08-18.43,7.08-24.15h-17.07s0,59.73,0,59.73Z"/>
  <path class="cls-17" d="M330.67,106.67h-14.08c0-11.26,4.1-35.58,4.1-35.58,0,0-7.08-18.43-7.08-24.15h17.07s0,59.73,0,59.73Z"/>
  <path class="cls-17" d="M198.4,106.67h14.08c0-11.26-4.1-35.58-4.1-35.58,0,0,7.08-18.43,7.08-24.15h-17.07v59.73Z"/>
  <path class="cls-17" d="M241.07,106.67h-14.08c0-11.26,4.1-35.58,4.1-35.58,0,0-7.08-18.43-7.08-24.15h17.07v59.73Z"/>
  <path class="cls-17" d="M117.33,106.67h14.08c0-11.26-4.1-35.58-4.1-35.58,0,0,7.08-18.43,7.08-24.15h-17.07v59.73Z"/>
  <path class="cls-17" d="M160,106.67h-14.08c0-11.26,4.1-35.58,4.1-35.58,0,0-7.08-18.43-7.08-24.15h17.07v59.73Z"/>
  <path class="cls-17" d="M369.07,209.07h14.08c0-11.26-4.1-35.58-4.1-35.58,0,0,7.08-18.43,7.08-24.15h-17.07s0,59.73,0,59.73Z"/>
  <path class="cls-17" d="M411.73,209.07h-14.08c0-11.26,4.1-35.58,4.1-35.58,0,0-7.08-18.43-7.08-24.15h17.07s0,59.73,0,59.73Z"/>
  <path class="cls-17" d="M288,209.07h14.08c0-11.26-4.1-35.58-4.1-35.58,0,0,7.08-18.43,7.08-24.15h-17.07s0,59.73,0,59.73Z"/>
  <path class="cls-17" d="M330.67,209.07h-14.08c0-11.26,4.1-35.58,4.1-35.58,0,0-7.08-18.43-7.08-24.15h17.07s0,59.73,0,59.73Z"/>
  <path class="cls-17" d="M198.4,209.07h14.08c0-11.26-4.1-35.58-4.1-35.58,0,0,7.08-18.43,7.08-24.15h-17.07v59.73Z"/>
  <path class="cls-17" d="M241.07,209.07h-14.08c0-11.26,4.1-35.58,4.1-35.58,0,0-7.08-18.43-7.08-24.15h17.07v59.73Z"/>
  <path class="cls-17" d="M117.33,209.07h14.08c0-11.26-4.1-35.58-4.1-35.58,0,0,7.08-18.43,7.08-24.15h-17.07v59.73Z"/>
  <path class="cls-17" d="M160,209.07h-14.08c0-11.26,4.1-35.58,4.1-35.58,0,0-7.08-18.43-7.08-24.15h17.07v59.73Z"/>
  <path class="cls-17" d="M377.6,341.33h14.08c0-11.26-4.1-35.58-4.1-35.58,0,0,7.08-18.52,7.08-24.15h-17.07s0,59.73,0,59.73Z"/>
  <path class="cls-17" d="M420.27,341.33h-14.08c0-11.26,4.1-35.58,4.1-35.58,0,0-7.08-18.52-7.08-24.15h17.07s0,59.73,0,59.73Z"/>
  <path class="cls-17" d="M288,341.33h14.08c0-11.26-4.1-35.58-4.1-35.58,0,0,7.08-18.52,7.08-24.15h-17.07s0,59.73,0,59.73Z"/>
  <path class="cls-17" d="M330.67,341.33h-14.08c0-11.26,4.1-35.58,4.1-35.58,0,0-7.08-18.52-7.08-24.15h17.07s0,59.73,0,59.73Z"/>
  <path class="cls-17" d="M198.4,341.33h14.08c0-11.26-4.1-35.58-4.1-35.58,0,0,7.08-18.52,7.08-24.15h-17.07v59.73Z"/>
  <path class="cls-17" d="M241.07,341.33h-14.08c0-11.26,4.1-35.58,4.1-35.58,0,0-7.08-18.52-7.08-24.15h17.07v59.73Z"/>
  <path class="cls-17" d="M108.8,341.33h14.08c0-11.26-4.1-35.58-4.1-35.58,0,0,7.08-18.52,7.08-24.15h-17.07v59.73Z"/>
  <path class="cls-17" d="M151.47,341.33h-14.08c0-11.26,4.1-35.58,4.1-35.58,0,0-7.08-18.52-7.08-24.15h17.07v59.73Z"/>
  <polygon class="cls-12" points="366.42 62.12 366.42 66.39 388.27 66.39 388.27 109.14 392.53 109.14 392.53 66.39 414.38 66.39 414.38 62.12 366.42 62.12"/>
  <polygon class="cls-12" points="285.35 66.39 307.2 66.39 307.2 109.14 311.47 109.14 311.47 66.39 333.31 66.39 333.31 62.12 285.35 62.12 285.35 66.39"/>
  <polygon class="cls-12" points="195.75 66.39 217.6 66.39 217.6 109.14 221.87 109.14 221.87 66.39 243.71 66.39 243.71 62.12 195.75 62.12 195.75 66.39"/>
  <polygon class="cls-12" points="114.69 66.39 136.53 66.39 136.53 109.14 140.8 109.14 140.8 66.39 162.65 66.39 162.65 62.12 114.69 62.12 114.69 66.39"/>
  <polygon class="cls-12" points="366.42 168.79 388.27 168.79 388.27 211.54 392.53 211.54 392.53 168.79 414.38 168.79 414.38 164.52 366.42 164.52 366.42 168.79"/>
  <polygon class="cls-12" points="285.35 168.79 307.2 168.79 307.2 211.54 311.47 211.54 311.47 168.79 333.31 168.79 333.31 164.52 285.35 164.52 285.35 168.79"/>
  <polygon class="cls-12" points="195.75 168.79 217.6 168.79 217.6 211.54 221.87 211.54 221.87 168.79 243.71 168.79 243.71 164.52 195.75 164.52 195.75 168.79"/>
  <polygon class="cls-12" points="114.69 168.79 136.53 168.79 136.53 211.54 140.8 211.54 140.8 168.79 162.65 168.79 162.65 164.52 114.69 164.52 114.69 168.79"/>
  <polygon class="cls-12" points="374.95 301.06 396.8 301.06 396.8 343.81 401.07 343.81 401.07 301.06 422.91 301.06 422.91 296.79 374.95 296.79 374.95 301.06"/>
  <polygon class="cls-12" points="285.35 301.06 307.2 301.06 307.2 343.81 311.47 343.81 311.47 301.06 333.31 301.06 333.31 296.79 285.35 296.79 285.35 301.06"/>
  <polygon class="cls-12" points="195.75 301.06 217.6 301.06 217.6 343.81 221.87 343.81 221.87 301.06 243.71 301.06 243.71 296.79 195.75 296.79 195.75 301.06"/>
  <polygon class="cls-12" points="106.15 301.06 128 301.06 128 343.81 132.27 343.81 132.27 301.06 154.11 301.06 154.11 296.79 106.15 296.79 106.15 301.06"/>
  <path class="cls-13" d="M76.8,8.53v8.53c0,4.69,3.84,8.53,8.53,8.53h358.4c4.69,0,8.53-3.84,8.53-8.53v-8.53H76.8Z"/>
  <path class="cls-6" d="M68.27,4.27c0-2.39,1.88-4.27,4.27-4.27h384c2.39,0,4.27,1.88,4.27,4.27h0c0,2.39-1.88,4.27-4.27,4.27H72.53c-2.39,0-4.27-1.88-4.27-4.27h0Z"/>
  <path class="cls-13" d="M59.73,243.2v8.53c0,4.69,3.84,8.53,8.53,8.53h392.53c4.69,0,8.53-3.84,8.53-8.53v-8.53H59.73Z"/>
  <path class="cls-6" d="M51.2,238.93c0-2.39,1.88-4.27,4.27-4.27h418.13c2.39,0,4.27,1.88,4.27,4.27h0c0,2.39-1.88,4.27-4.27,4.27H55.47c-2.39,0-4.27-1.88-4.27-4.27h0Z"/>
  <path class="cls-13" d="M362.67,375.47h-196.27c-2.39,0-4.27,1.88-4.27,4.27v119.47h204.8v-119.47c0-2.39-1.88-4.27-4.27-4.27Z"/>
  <rect class="cls-16" x="170.67" y="384" width="187.73" height="110.93"/>
  <rect class="cls-13" x="262.4" y="401.07" width="4.27" height="93.87"/>
  <rect class="cls-13" x="315.73" y="375.47" width="4.27" height="119.47"/>
  <rect class="cls-13" x="209.07" y="375.47" width="4.27" height="119.47"/>
  <rect class="cls-13" x="170.67" y="401.07" width="187.73" height="4.27"/>
  <rect class="cls-11" x="275.8" y="436.05" width="1.54" height="23.81"/>
  <rect class="cls-11" x="251.73" y="436.05" width="1.54" height="23.81"/>
  <rect class="cls-2" x="8.53" y="494.93" width="512" height="17.07"/>
  <polygon class="cls-1" points="354.13 512 174.93 512 213.33 494.93 315.73 494.93 354.13 512"/>
  <path class="cls-9" d="M121.6,299.01c-.85,3.07-3.67,12.2-3.67,12.2,0,0,.94-8.53,1.37-11.52-4.18,1.02-10.24,5.12-15.19,10.33-.34,3.93-.51,7.85-.6,11.86-.26-3.5-.43-7-.51-10.5-17.41,23.55-13.74,47.27-12.89,56.49,5.38-30.98,19.71-53.5,39.59-61.95,1.62-2.56,3.16-4.18,3.16-4.18-.09-.09-3.16-4.01-11.26-2.73Z"/>
  <path class="cls-2" d="M119.72,326.74c-1.45-.94-6.74-4.61-6.74-4.61,0,0,6.91,1.79,8.53,2.47,1.71-2.05,8.45-9.47,11.09-13.31.43-.68-5.8-2.9-5.8-2.9,0,0,7.25,0,7.34-.26.09-.34.09-3.58-.09-4.01-22.27,6.83-38.31,30.38-44.03,63.66,1.88-3.16,28.07-39.08,29.7-41.05Z"/>
  <path class="cls-14" d="M134.06,304.04c-26.37,6.4-38.74,33.88-44.29,61.78-.34,2.39.34,2.82.77.94,5.29-24.75,14.85-51.71,43.52-62.72Z"/>
  <path class="cls-9" d="M12.54,333.65c2.99,1.54,12.12,5.97,12.12,5.97,0,0-6.4-5.72-8.79-7.68,5.8-2.99,15.96-5.38,25.26-5.89,2.82,2.73,5.55,5.55,8.02,8.53-1.79-2.9-3.75-5.8-5.8-8.53,8.19,0,16.55,1.45,24.15,4.18,2.3,3.5,8.7,13.4,8.7,13.4,0,0-2.82-8.28-4.18-11.52.94.34,16.98,7.59,22.27,25.69-25.77-18.94-57.51-23.21-87.64-11.52-3.67-.51-6.49-.34-6.49-.34,0,0,5.38-8.62,12.37-12.29Z"/>
  <path class="cls-2" d="M61.87,356.1c1.71-1.54,7.59-6.06,7.59-6.06,0,0-9.3,3.84-11.52,5.29-5.38-1.02-7.51-1.19-12.97-1.54,2.13-2.73,7.34-10.5,7.34-10.5,0,0-9.3,7.51-12.03,10.24-3.5-.17-28.42.26-34.05-.34-.94-.09,2.99-5.72,2.99-5.72,0,0-6.57,4.86-6.83,4.69-.34-.26-2.3-2.73-2.39-3.16,32-15.02,66.56-11.52,94.21,8.79-4.18-.68-16.81,4.01-32.34-1.71Z"/>
  <path class="cls-14" d="M0,349.01c36.86-19.11,69.29-9.22,93.35,7.08,1.96,1.45,1.28,2.56-.34,1.45-21.85-14.25-50.43-26.28-93.01-8.53Z"/>
  <path class="cls-9" d="M21.08,397.57c3.16-1.11,12.63-4.86,12.63-4.86,0,0-8.53.85-11.61,1.28,1.71-6.31,6.83-15.36,12.71-22.53,3.93-.26,7.85-.34,11.78-.17-3.41-.68-6.83-1.19-10.24-1.54,5.46-6.06,12.2-11.18,19.46-14.93,4.1.68,15.87,2.65,15.87,2.65,0,0-8.19-3.41-11.52-4.61.94-.43,20.57-9.13,34.05.94-31.4,6.14-56.06,26.62-67.67,56.58-2.82,2.3-4.61,4.52-4.61,4.52-.17,0-3.16-7.34-.85-17.32Z"/>
  <path class="cls-2" d="M82.52,368.73c-1.28.77-20.65,14.76-24.58,18.52-.6-3.33-2.9-12.46-2.9-12.46,0,0-.68,11.95-.51,15.7-2.47,2.47-3.58,3.67-5.89,6.06-.68-2.3-3.41-10.67-3.41-10.67,0,0,.68,10.67,1.02,13.31-9.56,15.7-21.93,18.01-22.36,17.83,10.41-33.62,36.35-56.66,70.06-63.23-3.24,2.65-10.75,14.51-11.43,14.93Z"/>
  <path class="cls-14" d="M23.98,417.11c10.67-39.94,39.85-57.09,68.27-63.74,2.39-.43,2.73.77.85,1.19-25.43,6.4-53.59,19.29-69.12,62.55Z"/>
  <path class="cls-7" d="M136.87,498.43c0,6.66-23.04,6.66-23.04,0,0-26.28-27.05-97.11-27.05-133.63,0-12.8,17.07-12.8,17.07,0,0,36.52,33.02,107.35,33.02,133.63Z"/>
  <path class="cls-9" d="M157.1,402.86c-2.99-1.37-11.61-5.97-11.61-5.97,0,0,8.28,1.71,11.18,2.39-.77-6.23-4.44-15.62-9.22-23.13-3.84-.68-7.68-1.11-11.43-1.37,3.41-.26,6.83-.43,10.24-.43-24.49-25.51-45.4-25.51-54.27-21.25,29.87,9.13,51.03,31.4,58.11,61.61,2.47,2.56,3.93,4.86,3.93,4.86-.09,0,4.18-7.85,3.07-16.73Z"/>
  <path class="cls-2" d="M101.12,368.81c1.11.85,8.53,7.08,10.15,8.62.34-2.22.77-9.39.77-9.39,0,0,2.05,9.47,2.05,12.03,3.84,3.58,14.34,16.55,16.21,19.2.94-2.22,4.86-9.98,4.86-9.98,0,0-2.13,10.33-2.9,12.8,1.88,2.65,8.79,12.97,12.37,17.07.6.68,3.16-8.62,3.16-8.62,0,0-.43,10.92-.09,11.01.34.17,3.5.17,3.93.09-5.46-33.62-27.56-58.54-59.56-68.35,2.82,2.82,8.45,15.02,9.05,15.53Z"/>
  <path class="cls-14" d="M151.55,421.55c-4.78-39.77-30.89-59.31-57.69-68.61-2.3-.68-2.82.51-.94,1.11,23.81,8.7,49.49,24.06,58.62,67.5Z"/>
  <path class="cls-9" d="M174.34,342.7c-3.07,1.11-12.46,4.01-12.46,4.01,0,0,7-4.61,9.64-6.14-5.03-3.84-14.25-7.85-22.95-9.81-3.16,2.22-6.14,4.61-9.05,7.08,2.22-2.56,4.52-5.12,6.91-7.51-7.68-1.37-15.87-1.19-23.64.34-2.73,3.07-10.5,11.86-10.5,11.86,0,0,4.18-7.77,6.06-10.75-.94.26-20.82,8.02-25.34,21.76,27.56-14.59,58.37-13.74,84.91,2.56,3.5.09,6.23.68,6.23.68-.17-.09-2.65-8.53-9.81-14.08Z"/>
  <path class="cls-2" d="M140.2,357.38c-1.54-2.99-5.21-11.61-5.21-11.61,0,0,7.59,8.87,9.73,12.03,3.33.34,4.95.6,8.02,1.19-.85-2.22-3.75-10.5-3.75-10.5,0,0,5.8,8.79,7.08,11.09,3.24.6,15.45,2.99,20.91,3.33.94.09-3.93-8.36-3.93-8.36,0,0,7.42,8.02,7.77,7.85.34-.17,2.65-2.3,2.82-2.73-27.82-19.88-61.1-21.93-90.71-6.31,9.3,6.4,42.07,3.5,47.27,4.01Z"/>
  <path class="cls-14" d="M183.64,359.77c-31.74-24.66-64.09-20.14-89.6-7.77-2.05,1.11-1.62,2.3.09,1.45,23.13-10.67,52.22-17.92,89.51,6.31Z"/>
  <path class="cls-9" d="M67.41,432.21c1.71-2.9,6.4-11.86,6.4-11.86,0,0-5.97,6.14-7.94,8.53-2.82-5.89-4.95-16.04-5.12-25.34,2.82-2.73,5.72-5.38,8.79-7.77-2.99,1.71-5.89,3.5-8.79,5.46.26-8.11,1.96-16.38,4.95-23.89,3.58-2.13,13.74-8.28,13.74-8.28,0,0-8.45,2.65-11.78,4.01.43-.94,8.36-20.39,26.45-21.33-19.8,25-25.09,56.49-14.34,86.78-.6,3.58-.6,6.4-.6,6.4.09,0-9.05-6.4-11.78-12.71Z"/>
  <path class="cls-2" d="M95.15,370.6c-.43,1.37-3.16,11.01-3.75,13.31-1.45-1.71-5.8-7.77-5.8-7.77,0,0,3.58,9.39,5.03,11.61-1.19,5.29-2.82,22.61-2.9,25.94-2.05-1.37-9.56-5.89-9.56-5.89,0,0,7.51,7.68,9.56,9.39-.09,3.41-.09,16.3-.85,21.93-.09.94-7.42-5.72-7.42-5.72,0,0,6.4,9.22,6.23,9.47-.17.34-2.82,2.13-3.24,2.3-14.08-32.26-9.47-66.56,11.78-93.35-.85,4.1,1.19,18.01.94,18.77Z"/>
  <path class="cls-14" d="M82.35,445.18c-18.09-37.21-7.17-69.12,10.07-92.59,1.54-1.88,2.56-1.19,1.45.34-15.02,21.33-27.99,49.41-11.52,92.25Z"/>
  <path class="cls-9" d="M407.47,299.01c.85,3.07,3.67,12.2,3.67,12.2,0,0-.94-8.53-1.37-11.52,4.18,1.02,10.24,5.12,15.19,10.33.34,3.93.51,7.85.6,11.86.26-3.5.43-7,.51-10.5,17.41,23.55,13.74,47.27,12.89,56.49-5.38-30.98-19.71-53.5-39.59-61.95-1.62-2.56-3.16-4.18-3.16-4.18.09-.09,3.16-4.01,11.26-2.73Z"/>
  <path class="cls-2" d="M409.34,326.74c1.45-.94,6.74-4.61,6.74-4.61,0,0-6.91,1.79-8.53,2.47-1.71-2.05-8.45-9.47-11.09-13.31-.43-.68,5.8-2.9,5.8-2.9,0,0-7.25,0-7.34-.26-.09-.34-.09-3.58.09-4.01,22.27,6.83,38.31,30.38,44.03,63.66-1.88-3.16-28.07-39.08-29.7-41.05Z"/>
  <path class="cls-14" d="M395.01,304.04c26.37,6.4,38.74,33.88,44.29,61.78.34,2.39-.34,2.82-.77.94-5.29-24.75-14.85-51.71-43.52-62.72Z"/>
  <path class="cls-9" d="M516.52,333.65c-2.99,1.54-12.12,5.97-12.12,5.97,0,0,6.4-5.72,8.79-7.68-5.8-2.99-15.96-5.38-25.26-5.89-2.82,2.73-5.55,5.55-8.02,8.53,1.79-2.9,3.75-5.8,5.8-8.53-8.19,0-16.55,1.45-24.15,4.18-2.3,3.5-8.7,13.4-8.7,13.4,0,0,2.9-8.36,4.35-11.61-.94.34-16.98,7.59-22.27,25.69,25.77-18.94,57.51-23.21,87.64-11.52,3.67-.51,6.49-.34,6.49-.34-.17.09-5.55-8.53-12.54-12.2Z"/>
  <path class="cls-2" d="M467.2,356.1c-1.71-1.54-7.59-6.06-7.59-6.06,0,0,9.3,3.84,11.52,5.29,5.38-1.02,7.51-1.19,12.97-1.54-2.13-2.73-7.34-10.5-7.34-10.5,0,0,9.3,7.51,12.03,10.24,3.5-.17,28.42.26,34.05-.34.94-.09-2.99-5.72-2.99-5.72,0,0,6.57,4.86,6.83,4.69.34-.17,2.3-2.73,2.39-3.16-32-15.02-66.56-11.52-94.21,8.79,4.18-.68,16.81,4.01,32.34-1.71Z"/>
  <path class="cls-14" d="M529.07,349.01c-36.86-19.11-69.29-9.22-93.35,7.08-1.96,1.45-1.28,2.56.34,1.45,21.85-14.25,50.43-26.28,93.01-8.53Z"/>
  <path class="cls-9" d="M507.99,397.57c-3.16-1.11-12.63-4.86-12.63-4.86,0,0,8.53.85,11.61,1.28-1.71-6.31-6.83-15.36-12.71-22.53-3.93-.26-7.85-.34-11.78-.17,3.41-.68,6.83-1.19,10.24-1.54-5.46-6.06-12.2-11.18-19.46-14.93-4.1.68-15.87,2.65-15.87,2.65,0,0,8.19-3.41,11.52-4.61-.94-.43-20.57-9.13-34.05.94,31.4,6.14,56.06,26.62,67.67,56.58,2.82,2.3,4.61,4.52,4.61,4.52.17,0,3.16-7.34.85-17.32Z"/>
  <path class="cls-2" d="M446.55,368.73c1.28.77,20.65,14.76,24.58,18.52.6-3.33,2.9-12.46,2.9-12.46,0,0,.68,11.95.51,15.7,2.47,2.47,3.58,3.67,5.89,6.06.68-2.3,3.41-10.67,3.41-10.67,0,0-.68,10.67-1.02,13.31,9.56,15.7,21.93,18.01,22.36,17.83-10.41-33.62-36.35-56.66-70.06-63.23,3.24,2.65,10.75,14.51,11.43,14.93Z"/>
  <path class="cls-14" d="M505.09,417.11c-10.67-39.94-39.85-57.09-68.27-63.74-2.39-.43-2.73.77-.85,1.19,25.43,6.4,53.59,19.29,69.12,62.55Z"/>
  <path class="cls-4" d="M392.19,498.43c0,6.66,23.04,6.66,23.04,0,0-26.28,27.05-97.11,27.05-133.63,0-12.8-17.07-12.8-17.07,0,0,36.52-33.02,107.35-33.02,133.63Z"/>
  <path class="cls-9" d="M371.97,402.86c2.99-1.37,11.61-5.97,11.61-5.97,0,0-8.28,1.71-11.18,2.39.77-6.23,4.44-15.62,9.22-23.13,3.84-.68,7.68-1.11,11.43-1.37-3.41-.26-6.83-.43-10.24-.43,24.49-25.51,45.4-25.51,54.27-21.25-29.87,9.13-51.03,31.4-58.11,61.61-2.47,2.56-3.93,4.86-3.93,4.86.09,0-4.18-7.85-3.07-16.73Z"/>
  <path class="cls-2" d="M427.95,368.81c-1.11.85-8.53,7.08-10.15,8.62-.34-2.22-.77-9.39-.77-9.39,0,0-2.05,9.47-2.05,12.03-3.84,3.58-14.34,16.55-16.21,19.2-.94-2.22-4.86-9.98-4.86-9.98,0,0,2.13,10.33,2.9,12.8-1.88,2.65-8.79,12.97-12.37,17.07-.6.68-3.16-8.62-3.16-8.62,0,0,.43,10.92.09,11.01-.34.17-3.5.17-3.93.09,5.46-33.62,27.56-58.54,59.56-68.35-2.82,2.82-8.45,15.02-9.05,15.53Z"/>
  <path class="cls-14" d="M377.51,421.55c4.78-39.77,30.89-59.31,57.69-68.61,2.3-.68,2.82.51.94,1.11-23.81,8.7-49.49,24.06-58.62,67.5Z"/>
  <path class="cls-9" d="M354.73,342.7c3.07,1.11,12.46,4.01,12.46,4.01,0,0-7-4.61-9.64-6.14,5.03-3.84,14.25-7.85,22.95-9.81,3.16,2.22,6.14,4.61,9.05,7.08-2.22-2.56-4.52-5.12-6.91-7.51,7.68-1.37,15.87-1.19,23.64.34,2.73,3.07,10.5,11.86,10.5,11.86,0,0-4.18-7.77-6.06-10.75.94.26,20.82,8.02,25.34,21.76-27.56-14.59-58.37-13.74-84.91,2.56-3.58.09-6.23.68-6.23.68.17-.09,2.65-8.53,9.81-14.08Z"/>
  <path class="cls-2" d="M388.86,357.38c1.54-2.99,5.21-11.61,5.21-11.61,0,0-7.59,8.87-9.73,12.03-3.33.34-4.95.6-8.02,1.19.85-2.22,3.75-10.5,3.75-10.5,0,0-5.8,8.79-7.08,11.09-3.24.6-15.45,2.99-20.91,3.33-.94.09,3.93-8.36,3.93-8.36,0,0-7.42,8.02-7.77,7.85s-2.65-2.3-2.82-2.73c27.82-19.88,61.1-21.93,90.71-6.31-9.3,6.4-42.07,3.5-47.27,4.01Z"/>
  <path class="cls-14" d="M345.43,359.77c31.74-24.66,64.09-20.14,89.6-7.77,2.05,1.11,1.62,2.3-.09,1.45-23.13-10.67-52.22-17.92-89.51,6.31Z"/>
  <path class="cls-9" d="M461.65,432.21c-1.71-2.9-6.4-11.86-6.4-11.86,0,0,5.97,6.14,7.94,8.53,2.82-5.89,4.95-16.04,5.12-25.34-2.82-2.73-5.72-5.38-8.79-7.77,2.99,1.71,5.89,3.5,8.79,5.46-.26-8.11-1.96-16.38-4.95-23.89-3.58-2.13-13.74-8.28-13.74-8.28,0,0,8.45,2.65,11.78,4.01-.43-.94-8.36-20.39-26.45-21.33,19.8,25,25.09,56.49,14.34,86.78.6,3.58.6,6.4.6,6.4-.09,0,9.05-6.4,11.78-12.71Z"/>
  <path class="cls-2" d="M433.92,370.6c.43,1.37,3.16,11.01,3.75,13.31,1.45-1.71,5.8-7.77,5.8-7.77,0,0-3.58,9.39-4.95,11.61,1.19,5.29,2.82,22.61,2.9,25.94,2.05-1.37,9.56-5.89,9.56-5.89,0,0-7.51,7.68-9.56,9.39.09,3.41.09,16.3.85,21.93.09.94,7.42-5.72,7.42-5.72,0,0-6.4,9.22-6.23,9.47.17.34,2.82,2.13,3.24,2.3,14.08-32.26,9.47-66.56-11.78-93.35.77,4.1-1.28,18.01-1.02,18.77Z"/>
  <path class="cls-14" d="M446.72,445.18c18.09-37.21,7.17-69.12-10.07-92.59-1.54-1.88-2.56-1.19-1.45.34,15.02,21.33,27.99,49.41,11.52,92.25Z"/>
  <polygon class="cls-11" points="491.95 57 480.85 57 480.85 47.36 475.73 47.36 475.73 71.25 480.85 71.25 480.85 61.18 491.95 61.18 491.95 71.25 497.07 71.25 497.07 47.36 491.95 47.36 491.95 57"/>
  <path class="cls-11" d="M492.46,85.33c-1.71-.94-3.67-1.45-6.06-1.45s-4.35.51-6.06,1.45-2.99,2.39-3.93,4.18-1.37,3.93-1.37,6.31.43,4.52,1.37,6.31,2.22,3.16,3.93,4.18c1.71.94,3.75,1.45,6.06,1.45s4.35-.51,6.06-1.45c1.71-1.02,2.99-2.39,3.93-4.18s1.37-3.93,1.37-6.31-.43-4.52-1.37-6.31c-.94-1.88-2.22-3.24-3.93-4.18ZM491.01,101.72c-1.11,1.37-2.65,2.05-4.61,2.05s-3.5-.68-4.61-2.05-1.71-3.33-1.71-5.97.6-4.61,1.71-5.97,2.65-2.05,4.61-2.05,3.41.68,4.61,2.05c1.11,1.37,1.71,3.33,1.71,5.97s-.6,4.61-1.71,5.97Z"/>
  <polygon class="cls-11" points="476.25 124.59 483.75 124.59 483.75 144.21 489.05 144.21 489.05 124.59 496.55 124.59 496.55 120.32 476.25 120.32 476.25 124.59"/>
  <polygon class="cls-11" points="478.12 180.74 494.68 180.74 494.68 176.64 483.33 176.64 483.33 170.58 493.91 170.58 493.91 166.49 483.33 166.49 483.33 160.85 494.68 160.85 494.68 156.84 478.12 156.84 478.12 180.74"/>
  <polygon class="cls-11" points="483.93 212.91 483.93 193.28 478.72 193.28 478.72 217.17 494.68 217.17 494.68 212.91 483.93 212.91"/>
</svg>