<?xml version="1.0" encoding="UTF-8"?>
<svg id="Layer_1" data-name="Layer 1" xmlns="http://www.w3.org/2000/svg" viewBox="0 0 512 512">
  <defs>
    <style>
      .cls-1 {
        fill: #b3c2c6;
      }

      .cls-2 {
        fill: #cfd8dd;
      }

      .cls-3 {
        fill: #7ab51d;
      }

      .cls-4 {
        fill: #6e8189;
      }

      .cls-5 {
        fill: #99a8ae;
      }

      .cls-6 {
        fill: #92c932;
      }

      .cls-7 {
        fill: #fff;
      }

      .cls-8 {
        fill: #4e5e67;
      }

      .cls-9 {
        fill: #302c3b;
      }

      .cls-10 {
        fill: #e6ebef;
      }
    </style>
  </defs>
  <rect class="cls-2" x="401.07" y="59.73" width="102.4" height="452.27"/>
  <rect class="cls-2" x="8.54" y="59.73" width="102.4" height="452.27"/>
  <rect class="cls-10" x="110.94" y="51.2" width="290.13" height="460.8"/>
  <rect class="cls-4" x="59.74" width="392.53" height="8.53"/>
  <rect class="cls-1" x="59.74" y="8.53" width="392.53" height="34.13"/>
  <path class="cls-5" d="M354.14,409.6h-196.27c-2.35,0-4.27,1.92-4.27,4.27v98.13h204.8v-98.13c0-2.35-1.92-4.27-4.27-4.27Z"/>
  <rect class="cls-9" x="162.14" y="439.47" width="38.4" height="72.53"/>
  <rect class="cls-9" x="204.8" y="418.13" width="102.4" height="17.07"/>
  <rect class="cls-9" x="204.8" y="439.47" width="49.07" height="72.53"/>
  <rect class="cls-9" x="162.14" y="418.13" width="38.4" height="17.07"/>
  <rect class="cls-9" x="311.47" y="418.13" width="38.4" height="17.07"/>
  <rect class="cls-9" x="311.47" y="439.47" width="38.4" height="72.53"/>
  <rect class="cls-9" x="258.14" y="439.47" width="49.07" height="72.53"/>
  <path class="cls-7" d="M267.27,468.04v11.14c0,1.12,1.54,1.12,1.54,0v-11.14c0-1.12-1.54-1.12-1.54,0Z"/>
  <path class="cls-7" d="M244.72,468.04v11.14c0,1.12-1.52,1.12-1.52,0v-11.14c0-1.12,1.52-1.12,1.52,0Z"/>
  <rect class="cls-1" x="401.07" y="51.2" width="106.67" height="8.53"/>
  <rect class="cls-8" x="401.07" y="34.13" width="110.93" height="17.07"/>
  <rect class="cls-1" x="4.27" y="51.2" width="106.67" height="8.53"/>
  <rect class="cls-8" x="0" y="34.13" width="110.93" height="17.07"/>
  <rect class="cls-1" x="106.67" y="42.67" width="298.67" height="8.53"/>
  <rect class="cls-8" x="401.07" y="358.4" width="110.93" height="25.6"/>
  <rect class="cls-1" x="401.07" y="384" width="106.67" height="8.53"/>
  <rect class="cls-8" x="0" y="358.4" width="110.93" height="25.6"/>
  <rect class="cls-1" x="4.27" y="384" width="106.67" height="8.53"/>
  <rect class="cls-4" x="102.4" y="349.87" width="307.2" height="25.6"/>
  <rect class="cls-1" x="106.67" y="375.47" width="298.67" height="8.53"/>
  <rect class="cls-4" x="102.4" y="17.07" width="307.2" height="25.6"/>
  <rect class="cls-5" x="132.27" y="68.27" width="247.47" height="59.73"/>
  <rect class="cls-9" x="136.54" y="72.53" width="238.93" height="51.2"/>
  <rect class="cls-5" x="314.67" y="68.27" width="4.27" height="59.73"/>
  <rect class="cls-5" x="253.87" y="68.27" width="4.27" height="59.73"/>
  <rect class="cls-5" x="193.07" y="68.27" width="4.27" height="59.73"/>
  <rect class="cls-5" x="132.27" y="87.47" width="247.47" height="4.27"/>
  <rect class="cls-5" x="132.27" y="166.4" width="247.47" height="59.73"/>
  <rect class="cls-9" x="136.54" y="170.67" width="238.93" height="51.2"/>
  <rect class="cls-5" x="314.67" y="166.4" width="4.27" height="59.73"/>
  <rect class="cls-5" x="253.87" y="166.4" width="4.27" height="59.73"/>
  <rect class="cls-5" x="193.07" y="166.4" width="4.27" height="59.73"/>
  <rect class="cls-5" x="132.27" y="185.6" width="247.47" height="4.27"/>
  <rect class="cls-5" x="419.74" y="76.8" width="65.07" height="59.73"/>
  <rect class="cls-9" x="424.01" y="81.07" width="56.53" height="51.2"/>
  <rect class="cls-5" x="419.74" y="96" width="65.07" height="4.27"/>
  <rect class="cls-5" x="419.74" y="174.93" width="65.07" height="59.73"/>
  <rect class="cls-9" x="424.01" y="179.2" width="56.53" height="51.2"/>
  <rect class="cls-5" x="419.74" y="194.13" width="65.07" height="4.27"/>
  <rect class="cls-5" x="419.74" y="409.6" width="65.07" height="59.73"/>
  <rect class="cls-9" x="424.01" y="413.87" width="56.53" height="51.2"/>
  <rect class="cls-5" x="419.74" y="428.8" width="65.07" height="4.27"/>
  <rect class="cls-5" x="27.21" y="76.8" width="65.07" height="59.73"/>
  <rect class="cls-9" x="31.47" y="81.07" width="56.53" height="51.2"/>
  <rect class="cls-5" x="27.21" y="96" width="65.07" height="4.27"/>
  <rect class="cls-5" x="27.21" y="174.93" width="65.07" height="59.73"/>
  <rect class="cls-9" x="31.47" y="179.2" width="56.53" height="51.2"/>
  <rect class="cls-5" x="27.21" y="194.13" width="65.07" height="4.27"/>
  <rect class="cls-5" x="132.27" y="264.53" width="247.47" height="59.73"/>
  <rect class="cls-9" x="136.54" y="268.8" width="238.93" height="51.2"/>
  <rect class="cls-5" x="314.67" y="264.53" width="4.27" height="59.73"/>
  <rect class="cls-5" x="253.87" y="264.53" width="4.27" height="59.73"/>
  <rect class="cls-5" x="193.07" y="264.53" width="4.27" height="59.73"/>
  <rect class="cls-5" x="132.27" y="283.73" width="247.47" height="4.27"/>
  <rect class="cls-5" x="419.74" y="273.07" width="65.07" height="59.73"/>
  <rect class="cls-9" x="424.01" y="277.33" width="56.53" height="51.2"/>
  <rect class="cls-5" x="419.74" y="292.27" width="65.07" height="4.27"/>
  <rect class="cls-5" x="27.21" y="273.07" width="65.07" height="59.73"/>
  <rect class="cls-9" x="31.47" y="277.33" width="56.53" height="51.2"/>
  <rect class="cls-5" x="27.21" y="292.27" width="65.07" height="4.27"/>
  <rect class="cls-5" x="27.21" y="409.6" width="65.07" height="59.73"/>
  <rect class="cls-9" x="31.47" y="413.87" width="56.53" height="51.2"/>
  <rect class="cls-5" x="27.21" y="428.8" width="65.07" height="4.27"/>
  <path class="cls-3" d="M418.85,486.67c-6.65-2.44-10.21,2.8-10.21,2.8-2.2-1.25-9.08-.48-9.51,6.62-1.9,1.23-4.55,5.38-2.71,8.49-6.18,1.39-3.12,7.42-3.12,7.42h49.07s4.79-5.25-1.2-8.91c1.33-2.67-1.43-9.48-6.66-9.54,1.45-1.55-2.33-4-5.2-4.33-1.57-3.78-6.32-5.55-10.44-2.55Z"/>
  <path class="cls-3" d="M486.68,491.24c-6.65-2-10.21,2.3-10.21,2.3-2.2-1.02-9.08-.38-9.51,5.44-1.9,1-4.55,4.4-2.71,6.95-6.17,1.13-3.12,6.07-3.12,6.07h49.07s4.79-4.31-1.2-7.3c1.33-2.18-1.43-7.77-6.66-7.83,1.45-1.27-2.33-3.28-5.2-3.54-1.57-3.11-6.31-4.55-10.44-2.1Z"/>
  <path class="cls-6" d="M452.77,491.42c-6.65-1.98-10.21,2.28-10.21,2.28-2.2-1.02-9.08-.38-9.51,5.38-1.9.99-4.55,4.38-2.71,6.91-6.18,1.11-3.12,6.01-3.12,6.01h49.07s4.79-4.27-1.2-7.25c1.33-2.15-1.43-7.69-6.66-7.75,1.45-1.25-2.33-3.25-5.2-3.52-1.57-3.06-6.32-4.5-10.44-2.07Z"/>
  <path class="cls-3" d="M93.15,486.67c6.66-2.44,10.21,2.8,10.21,2.8,2.2-1.25,9.08-.48,9.52,6.62,1.89,1.23,4.55,5.38,2.71,8.49,6.17,1.39,3.12,7.42,3.12,7.42h-49.07s-4.79-5.25,1.2-8.91c-1.33-2.67,1.44-9.48,6.67-9.54-1.45-1.55,2.33-4,5.2-4.33,1.56-3.78,6.31-5.55,10.43-2.55Z"/>
  <path class="cls-3" d="M25.31,491.24c6.66-2,10.21,2.3,10.21,2.3,2.2-1.02,9.08-.38,9.52,5.44,1.89,1,4.55,4.4,2.71,6.95,6.18,1.13,3.12,6.07,3.12,6.07H1.81s-4.79-4.31,1.2-7.3c-1.33-2.18,1.44-7.77,6.67-7.83-1.45-1.27,2.33-3.28,5.2-3.54,1.57-3.11,6.32-4.55,10.43-2.1Z"/>
  <path class="cls-6" d="M59.23,491.42c6.66-1.98,10.21,2.28,10.21,2.28,2.2-1.02,9.08-.38,9.52,5.38,1.89.99,4.55,4.38,2.71,6.91,6.17,1.11,3.12,6.01,3.12,6.01h-49.07s-4.79-4.27,1.2-7.25c-1.33-2.15,1.44-7.69,6.67-7.75-1.45-1.25,2.33-3.25,5.2-3.52,1.56-3.06,6.31-4.5,10.43-2.07Z"/>
</svg>