<?xml version="1.0" encoding="UTF-8"?>
<svg id="Layer_1" data-name="Layer 1" xmlns="http://www.w3.org/2000/svg" xmlns:xlink="http://www.w3.org/1999/xlink" viewBox="0 0 780.18 512">
  <defs>
    <style>
      .cls-1 {
        fill: #b3c2c6;
      }

      .cls-2 {
        fill: #6e8189;
      }

      .cls-3 {
        fill: url(#radial-gradient-2);
      }

      .cls-4 {
        fill: url(#linear-gradient-8);
      }

      .cls-5 {
        fill: url(#linear-gradient-7);
      }

      .cls-6 {
        fill: url(#linear-gradient-5);
      }

      .cls-7 {
        fill: url(#linear-gradient-6);
      }

      .cls-8 {
        fill: url(#linear-gradient-9);
      }

      .cls-9 {
        fill: url(#linear-gradient-4);
      }

      .cls-10 {
        fill: url(#linear-gradient-3);
      }

      .cls-11 {
        fill: url(#linear-gradient-2);
      }

      .cls-12 {
        fill: #1a1626;
      }

      .cls-13 {
        fill: url(#radial-gradient);
      }

      .cls-14 {
        fill: url(#linear-gradient);
      }

      .cls-15 {
        fill: url(#linear-gradient-10);
      }

      .cls-16 {
        fill: url(#linear-gradient-11);
      }

      .cls-17 {
        fill: url(#linear-gradient-12);
      }

      .cls-18 {
        fill: url(#linear-gradient-13);
      }

      .cls-19 {
        fill: url(#linear-gradient-19);
      }

      .cls-20 {
        fill: url(#linear-gradient-14);
      }

      .cls-21 {
        fill: url(#linear-gradient-20);
      }

      .cls-22 {
        fill: url(#linear-gradient-15);
      }

      .cls-23 {
        fill: url(#linear-gradient-16);
      }

      .cls-24 {
        fill: url(#linear-gradient-17);
      }

      .cls-25 {
        fill: url(#linear-gradient-18);
      }

      .cls-26 {
        fill: #f9b700;
      }

      .cls-27 {
        fill: #302c3b;
      }

      .cls-28 {
        fill: #e6ebef;
      }
    </style>
    <radialGradient id="radial-gradient" cx="627.7" cy="108.72" fx="627.7" fy="108.72" r="124.46" gradientTransform="translate(0 496.24) scale(1 -1)" gradientUnits="userSpaceOnUse">
      <stop offset=".49" stop-color="#5b666e"/>
      <stop offset=".64" stop-color="#525a64"/>
      <stop offset=".92" stop-color="#3c3b49"/>
      <stop offset="1" stop-color="#343040"/>
    </radialGradient>
    <linearGradient id="linear-gradient" x1="591.14" y1="108.57" x2="664.27" y2="108.57" gradientTransform="translate(0 496.01) scale(1 -1)" gradientUnits="userSpaceOnUse">
      <stop offset="0" stop-color="#cfdde6"/>
      <stop offset=".25" stop-color="#cad8e1"/>
      <stop offset=".54" stop-color="#bdcbd3"/>
      <stop offset=".85" stop-color="#a7b6bc"/>
      <stop offset="1" stop-color="#99a8ae"/>
    </linearGradient>
    <linearGradient id="linear-gradient-2" x1="627.7" y1="82.3" x2="627.7" y2="134.71" gradientTransform="translate(0 496.01) scale(1 -1)" gradientUnits="userSpaceOnUse">
      <stop offset="0" stop-color="#cfdde6"/>
      <stop offset=".25" stop-color="#cad8e1"/>
      <stop offset=".54" stop-color="#bdcbd3"/>
      <stop offset=".85" stop-color="#a7b6bc"/>
      <stop offset="1" stop-color="#99a8ae"/>
    </linearGradient>
    <radialGradient id="radial-gradient-2" cx="124.44" cy="108.72" fx="124.44" fy="108.72" r="124.46" gradientTransform="translate(0 496.24) scale(1 -1)" gradientUnits="userSpaceOnUse">
      <stop offset=".49" stop-color="#5b666e"/>
      <stop offset=".64" stop-color="#525a64"/>
      <stop offset=".92" stop-color="#3c3b49"/>
      <stop offset="1" stop-color="#343040"/>
    </radialGradient>
    <linearGradient id="linear-gradient-3" x1="87.88" y1="108.57" x2="161.01" y2="108.57" gradientTransform="translate(0 496.01) scale(1 -1)" gradientUnits="userSpaceOnUse">
      <stop offset="0" stop-color="#cfdde6"/>
      <stop offset=".25" stop-color="#cad8e1"/>
      <stop offset=".54" stop-color="#bdcbd3"/>
      <stop offset=".85" stop-color="#a7b6bc"/>
      <stop offset="1" stop-color="#99a8ae"/>
    </linearGradient>
    <linearGradient id="linear-gradient-4" x1="124.44" y1="82.3" x2="124.44" y2="134.71" gradientTransform="translate(0 496.01) scale(1 -1)" gradientUnits="userSpaceOnUse">
      <stop offset="0" stop-color="#cfdde6"/>
      <stop offset=".25" stop-color="#cad8e1"/>
      <stop offset=".54" stop-color="#bdcbd3"/>
      <stop offset=".85" stop-color="#a7b6bc"/>
      <stop offset="1" stop-color="#99a8ae"/>
    </linearGradient>
    <linearGradient id="linear-gradient-5" x1="495.62" y1="143.55" x2="504.25" y2="108.5" gradientTransform="translate(0 496.01) scale(1 -1)" gradientUnits="userSpaceOnUse">
      <stop offset="0" stop-color="#cfdde6"/>
      <stop offset=".26" stop-color="#becbd3"/>
      <stop offset=".8" stop-color="#919da3"/>
      <stop offset="1" stop-color="#7e8a8f"/>
    </linearGradient>
    <linearGradient id="linear-gradient-6" x1="657.82" y1="203.42" x2="673.57" y2="149.57" gradientTransform="translate(0 496.01) scale(1 -1)" gradientUnits="userSpaceOnUse">
      <stop offset="0" stop-color="#cfdde6"/>
      <stop offset=".39" stop-color="#bdcbd3"/>
      <stop offset="1" stop-color="#99a8ae"/>
    </linearGradient>
    <linearGradient id="linear-gradient-7" x1="31.06" y1="183.84" x2="251.57" y2="183.84" gradientTransform="translate(0 496.01) scale(1 -1)" gradientUnits="userSpaceOnUse">
      <stop offset="0" stop-color="#ff000e"/>
      <stop offset=".17" stop-color="#f4000d"/>
      <stop offset=".47" stop-color="#d80009"/>
      <stop offset=".85" stop-color="#aa0003"/>
      <stop offset="1" stop-color="#970000"/>
    </linearGradient>
    <linearGradient id="linear-gradient-8" x1="138.06" y1="162.38" x2="159.44" y2="150.43" gradientTransform="translate(0 496.01) scale(1 -1)" gradientUnits="userSpaceOnUse">
      <stop offset="0" stop-color="#cfdde6"/>
      <stop offset=".26" stop-color="#becbd3"/>
      <stop offset=".8" stop-color="#919da3"/>
      <stop offset="1" stop-color="#7e8a8f"/>
    </linearGradient>
    <linearGradient id="linear-gradient-9" x1="545.9" y1="257.77" x2="698.56" y2="257.77" gradientTransform="translate(73.05 524.41) rotate(-4.75) scale(1 -1)" gradientUnits="userSpaceOnUse">
      <stop offset="0" stop-color="#970000"/>
      <stop offset=".15" stop-color="#aa0003"/>
      <stop offset=".53" stop-color="#d80009"/>
      <stop offset=".83" stop-color="#f4000d"/>
      <stop offset="1" stop-color="#ff000e"/>
    </linearGradient>
    <linearGradient id="linear-gradient-10" x1="600.52" y1="234.77" x2="600.52" y2="385.74" gradientTransform="translate(0 496.01) scale(1 -1)" gradientUnits="userSpaceOnUse">
      <stop offset="0" stop-color="#c40000"/>
      <stop offset=".22" stop-color="#d80005"/>
      <stop offset=".6" stop-color="#f4000b"/>
      <stop offset=".81" stop-color="#ff000e"/>
    </linearGradient>
    <linearGradient id="linear-gradient-11" x1="327.45" y1="119.3" x2="412.64" y2="119.3" gradientTransform="translate(0 496.01) scale(1 -1)" gradientUnits="userSpaceOnUse">
      <stop offset="0" stop-color="#cfdde6"/>
      <stop offset=".25" stop-color="#cad8e1"/>
      <stop offset=".54" stop-color="#bdcbd3"/>
      <stop offset=".85" stop-color="#a7b6bc"/>
      <stop offset="1" stop-color="#99a8ae"/>
    </linearGradient>
    <linearGradient id="linear-gradient-12" x1="370.04" y1="88.79" x2="370.04" y2="149.9" gradientTransform="translate(0 496.01) scale(1 -1)" gradientUnits="userSpaceOnUse">
      <stop offset="0" stop-color="#cfdde6"/>
      <stop offset=".25" stop-color="#cad8e1"/>
      <stop offset=".54" stop-color="#bdcbd3"/>
      <stop offset=".85" stop-color="#a7b6bc"/>
      <stop offset="1" stop-color="#99a8ae"/>
    </linearGradient>
    <linearGradient id="linear-gradient-13" x1="356.47" y1="119.3" x2="383.62" y2="119.3" gradientTransform="translate(0 496.01) scale(1 -1)" gradientUnits="userSpaceOnUse">
      <stop offset="0" stop-color="#cfdde6"/>
      <stop offset=".25" stop-color="#cad8e1"/>
      <stop offset=".54" stop-color="#bdcbd3"/>
      <stop offset=".85" stop-color="#a7b6bc"/>
      <stop offset="1" stop-color="#99a8ae"/>
    </linearGradient>
    <linearGradient id="linear-gradient-14" x1="388.91" y1="303.18" x2="441.45" y2="303.18" gradientTransform="translate(-178.61 517.93) rotate(9.49) scale(1 -1)" gradientUnits="userSpaceOnUse">
      <stop offset="0" stop-color="#970000"/>
      <stop offset=".15" stop-color="#aa0003"/>
      <stop offset=".53" stop-color="#d80009"/>
      <stop offset=".83" stop-color="#f4000d"/>
      <stop offset="1" stop-color="#ff000e"/>
    </linearGradient>
    <linearGradient id="linear-gradient-15" x1="157.32" y1="162.9" x2="229.84" y2="162.9" gradientTransform="translate(146.06 455.64) rotate(-8.02) scale(1 -1)" gradientUnits="userSpaceOnUse">
      <stop offset="0" stop-color="#970000"/>
      <stop offset=".15" stop-color="#aa0003"/>
      <stop offset=".53" stop-color="#d80009"/>
      <stop offset=".83" stop-color="#f4000d"/>
      <stop offset="1" stop-color="#ff000e"/>
    </linearGradient>
    <linearGradient id="linear-gradient-16" x1="180.69" y1="149.22" x2="254.87" y2="149.22" gradientTransform="translate(160.45 449.9) rotate(-8.81) scale(1 -1)" gradientUnits="userSpaceOnUse">
      <stop offset="0" stop-color="#970000"/>
      <stop offset=".15" stop-color="#aa0003"/>
      <stop offset=".53" stop-color="#d80009"/>
      <stop offset=".83" stop-color="#f4000d"/>
      <stop offset="1" stop-color="#ff000e"/>
    </linearGradient>
    <linearGradient id="linear-gradient-17" x1="244.9" y1="48.85" x2="244.9" y2="300.98" gradientTransform="translate(0 496.01) scale(1 -1)" gradientUnits="userSpaceOnUse">
      <stop offset=".19" stop-color="#ff000e"/>
      <stop offset=".4" stop-color="#f4000b"/>
      <stop offset=".78" stop-color="#d80005"/>
      <stop offset="1" stop-color="#c40000"/>
    </linearGradient>
    <linearGradient id="linear-gradient-18" x1="212.86" y1="242.07" x2="212.86" y2="451.66" gradientTransform="translate(0 496.01) scale(1 -1)" gradientUnits="userSpaceOnUse">
      <stop offset="0" stop-color="#c40000"/>
      <stop offset=".22" stop-color="#d80005"/>
      <stop offset=".6" stop-color="#f4000b"/>
      <stop offset=".81" stop-color="#ff000e"/>
    </linearGradient>
    <linearGradient id="linear-gradient-19" x1="312.75" y1="226.56" x2="312.75" y2="405.67" gradientTransform="translate(0 496.01) scale(1 -1)" gradientUnits="userSpaceOnUse">
      <stop offset="0" stop-color="#c40000"/>
      <stop offset=".22" stop-color="#d80005"/>
      <stop offset=".6" stop-color="#f4000b"/>
      <stop offset=".81" stop-color="#ff000e"/>
    </linearGradient>
    <linearGradient id="linear-gradient-20" x1="58.5" y1="429.48" x2="205.16" y2="429.48" gradientTransform="translate(0 496.01) scale(1 -1)" gradientUnits="userSpaceOnUse">
      <stop offset="0" stop-color="#302c3b"/>
      <stop offset=".29" stop-color="#454754"/>
      <stop offset=".76" stop-color="#636d78"/>
      <stop offset="1" stop-color="#6e7b85"/>
    </linearGradient>
  </defs>
  <path class="cls-2" d="M644.64,490.67l-42.29-12.31s25.23-15.11,25.23-33.15v-57.65h17.06v103.11Z"/>
  <path class="cls-2" d="M730.69,403.16l-24.74,36.44s-6.46-28.76-23.65-34.25c-23.52-7.68-54.6-17.79-54.6-17.79l5.24-16.21,97.75,31.81Z"/>
  <path class="cls-2" d="M674.38,293.95l26.94,34.86s-29.25-2.68-39.86,11.94c-14.63,20.11-33.76,46.68-33.76,46.68l-13.77-9.99,60.45-83.49Z"/>
  <path class="cls-2" d="M553.35,314.06l41.56-14.87s-11.58,27.06-.98,41.68c14.5,19.99,33.76,46.56,33.76,46.56l-13.77,10.12-60.58-83.49Z"/>
  <path class="cls-2" d="M535.07,435.58l-1.34-44.24s22.18,19.38,39.25,13.89c23.52-7.68,54.73-17.79,54.73-17.79l5.24,16.21-97.87,31.93Z"/>
  <path class="cls-2" d="M627.7,284.08c-57.04,0-103.11,46.32-103.11,103.48s46.07,103.48,103.11,103.48,103.24-46.19,103.24-103.48c-.12-57.16-46.32-103.48-103.24-103.48ZM627.58,468.73c-44.73,0-80.93-36.32-80.93-81.17s36.2-81.17,80.93-81.17,80.93,36.32,80.93,81.17c.12,44.73-36.2,81.05-80.93,81.17Z"/>
  <path class="cls-1" d="M627.7,332.59c-30.23,0-54.85,24.5-54.85,54.85s24.62,54.85,54.85,54.85,54.85-24.5,54.85-54.85c-.12-30.23-24.62-54.85-54.85-54.85ZM627.7,433.26c-25.23,0-45.71-20.48-45.71-45.71s20.48-45.71,45.71-45.71,45.71,20.48,45.71,45.71-20.48,45.71-45.71,45.71Z"/>
  <path class="cls-13" d="M627.7,262.99c-68.74,0-124.44,55.7-124.44,124.56-.12,68.74,55.7,124.44,124.44,124.44s124.44-55.7,124.44-124.56-55.7-124.44-124.44-124.44ZM627.7,472.75c-47.05,0-85.32-38.15-85.32-85.32s38.15-85.32,85.32-85.32,85.32,38.15,85.32,85.32c-.12,47.17-38.27,85.32-85.32,85.32Z"/>
  <path class="cls-12" d="M527.63,250.19c-87.76,91.17-49.24,168.81-49.24,168.81l-34.86,20.6c.12.12-100.43-242.06,84.1-189.41Z"/>
  <polygon class="cls-28" points="437.44 405.96 631.84 419 629.28 421.81 435.98 409.62 437.44 405.96"/>
  <circle class="cls-14" cx="627.7" cy="387.44" r="36.57"/>
  <circle class="cls-11" cx="627.7" cy="387.44" r="26.2"/>
  <path class="cls-2" d="M141.51,490.67l-42.29-12.31s25.23-15.11,25.23-33.15v-57.65h17.06v103.11Z"/>
  <path class="cls-2" d="M227.56,403.16l-24.74,36.44s-6.46-28.76-23.65-34.25c-23.52-7.68-54.6-17.79-54.6-17.79l5.24-16.21,97.75,31.81Z"/>
  <path class="cls-2" d="M171.12,293.95l26.94,34.86s-29.25-2.68-39.86,11.94c-14.63,20.11-33.76,46.68-33.76,46.68l-13.77-9.99,60.45-83.49Z"/>
  <path class="cls-2" d="M50.22,314.06l41.56-14.87s-11.58,27.06-.98,41.68c14.5,19.99,33.88,46.56,33.88,46.56l-13.77,10.12-60.7-83.49Z"/>
  <path class="cls-2" d="M31.93,435.58l-1.34-44.24s22.18,19.38,39.25,13.89c23.52-7.68,54.73-17.79,54.73-17.79l5.24,16.21-97.87,31.93Z"/>
  <path class="cls-2" d="M124.44,284.08c-57.04,0-103.24,46.32-103.24,103.48s46.07,103.48,103.24,103.48,103.24-46.19,103.24-103.48-46.19-103.48-103.24-103.48ZM124.44,468.73c-44.73,0-80.93-36.32-80.93-81.17s36.2-81.17,80.93-81.17,80.93,36.32,80.93,81.17-36.2,81.05-80.93,81.17Z"/>
  <path class="cls-1" d="M124.44,332.59c-30.23,0-54.85,24.5-54.85,54.85s24.62,54.85,54.85,54.85,54.85-24.5,54.85-54.85-24.5-54.85-54.85-54.85ZM124.44,433.26c-25.23,0-45.71-20.48-45.71-45.71s20.48-45.71,45.71-45.71,45.71,20.48,45.71,45.71c.12,25.23-20.35,45.71-45.71,45.71Z"/>
  <path class="cls-3" d="M124.44,262.99C55.7,262.99,0,318.69,0,387.44s55.7,124.56,124.44,124.56,124.44-55.7,124.44-124.56c.12-68.74-55.7-124.44-124.44-124.44ZM124.44,472.75c-47.05,0-85.32-38.15-85.32-85.32s38.15-85.32,85.32-85.32,85.32,38.15,85.32,85.32-38.15,85.32-85.32,85.32Z"/>
  <circle class="cls-10" cx="124.44" cy="387.44" r="36.57"/>
  <circle class="cls-9" cx="124.44" cy="387.44" r="26.2"/>
  <path class="cls-12" d="M529.95,249.58c18.4-8.41,58.99-23.65,77.4-31.93,22.06,46.93,29.62,106.16,29.62,106.16l-59.48,10.12s-4.39-46.8-47.53-84.34Z"/>
  <path class="cls-2" d="M638.67,387.44c0,6.09-4.88,10.97-10.97,10.97s-10.97-4.88-10.97-10.97,4.88-10.97,10.97-10.97,10.97,5,10.97,10.97Z"/>
  <polygon class="cls-6" points="437.56 380.49 562.37 323.69 574.44 370.62 434.64 406.69 437.56 380.49"/>
  <polygon class="cls-2" points="756.41 268.6 767.62 266.89 776.15 310.4 766.28 314.67 756.41 268.6"/>
  <polygon class="cls-7" points="556.76 323.69 569.93 374.52 761.16 323.69 771.89 313.82 761.16 263.48 744.34 263.48 556.76 323.69"/>
  <path class="cls-5" d="M31.45,282.25c-8.17,9.51,116.52-25.6,112.13,9.26-5.24,42.54-19.14,95.92-19.14,95.92,0,0,34.61-42.54,57.16-75.93,11.94-17.67,39.12,6.83,69.96,28.03-33.15-120.18-158.57-128.71-220.12-57.29Z"/>
  <path class="cls-4" d="M168.69,274.08l-55.46,109.82c-7.43,12.92,13.04,23.77,20.6,10.97l55.34-107.26-20.48-13.53Z"/>
  <path class="cls-2" d="M133.34,387.44c0,4.88-4.02,8.9-8.9,8.9s-8.9-4.02-8.9-8.9,4.02-8.9,8.9-8.9,8.9,4.02,8.9,8.9Z"/>
  <path class="cls-8" d="M596.25,228.38c87.88-32.79,125.42,2.93,148.58,11.82,23.16,8.9-30.11-65.7-106.28-52.29-34.01,5.97-42.29,40.47-42.29,40.47Z"/>
  <path class="cls-15" d="M420.86,178.28c87.76,48.63,132.85,19.38,147.6-24.01,5.97-17.67,121.4-44,144.55-44,37.05,12.31,67.16,29.98,67.16,41.32,0,25.35-111.89-6.46-163.45,71.06-83.49,25.35-130.42,58.14-178.8,23.77-14.02-9.87-17.06-68.13-17.06-68.13Z"/>
  <path class="cls-12" d="M672.31,155.98c-.61,6.83,17.31,10.12,21.45,10.6,4.14.37,6.46-24.25,2.32-24.62-4.14-.37-23.16,7.31-23.77,14.02Z"/>
  <path class="cls-26" d="M689.98,153.78c-.61,6.83.98,12.55,3.9,12.8,2.93.24,6.09-5,6.83-11.82.61-6.83-1.46-12.55-4.39-12.8-3.05-.24-5.73,5-6.34,11.82Z"/>
  <path class="cls-28" d="M716.92,111.73s60.58,18.28,63.14,39.86c-36.81-29.98-69.47-19.99-63.14-39.86Z"/>
  <path class="cls-27" d="M241.45,176.09c343.83,29.25,166.37,171.73,211.59,259.61,2.68,5.12-1.22,11.34-7.07,11.34h-150.4c9.51-157.35-149.67-172.34-54.12-270.95Z"/>
  <path class="cls-16" d="M412.7,376.71c0,23.52-19.01,42.66-42.54,42.66s-42.54-19.01-42.54-42.66,19.01-42.66,42.54-42.66,42.54,19.14,42.54,42.66Z"/>
  <path class="cls-17" d="M400.63,376.71c0,16.82-13.65,30.59-30.59,30.59s-30.59-13.65-30.59-30.59,13.65-30.59,30.59-30.59c16.82,0,30.59,13.65,30.59,30.59Z"/>
  <path class="cls-18" d="M383.57,376.71c0,7.56-6.09,13.53-13.53,13.53s-13.53-6.09-13.53-13.53,6.09-13.53,13.53-13.53,13.53,5.97,13.53,13.53Z"/>
  <path class="cls-20" d="M261.32,245.08c36.44,30.11,39.12,84.59,39.12,84.59l-40.95-27.55c-.12,0,17.67-20.11,1.83-57.04Z"/>
  <path class="cls-22" d="M271.68,219.72c60.45,24.5,86.66,95.19,86.66,95.19l-40.1,1.34c.12.12-10.24-54.48-46.56-96.53Z"/>
  <path class="cls-23" d="M308.73,226.79s54.24,12.92,74.96,27.3c0,0,9.99,24.62,12.68,57.41l-24.86-7.92c-.12,0-5.24-51.68-62.77-76.79Z"/>
  <path class="cls-24" d="M93,210.83c60.33,13.29,61.31,69.23,128.47,120.42,71.91,54.85,13.16,115.91,31.93,115.91h42.29l30.47-31.57c3.78-3.9,4.88-9.75,2.68-14.75l-5.48-12.68c-3.41-7.8-1.1-16.94,5.73-22.18l67.28-54.36c2.8-2.44-8.78-21.21-12.31-19.5l-40.1,15.97c-41.2,18.77-84.95-2.93-106.28-42.9-4.39-8.17-19.87-30.59,3.17-36.81,45.46-12.31,141.99,25.72,141.99,25.72-91.41-77.4-252.42-63.38-289.84-43.27Z"/>
  <path class="cls-25" d="M193.06,47.5c17.79-22.79-134.56,85.56-134.56,85.56,0,0-15.36,21.09-16.21,36.32-1.34,21.94,9.75,45.83,19.26,44.98,186.6-17.92,236.21,3.29,321.16,39.37,10.48,4.51-80.93-64.6-152.96-80.81-37.3-8.41-132-6.95-128.47-24.86,6.58-32.54,87.02-94.58,91.78-100.55Z"/>
  <path class="cls-19" d="M168.69,118.07c254.25-92.14,281.19,67.89,288.13,151.38-53.87-112.38-267.66-46.44-288.13-151.38Z"/>
  <path class="cls-27" d="M423.79,153.54c2.32-5.73,146.26-6.46,146.14,2.19-.24,80.81-173.56,67.28-146.14-2.19Z"/>
  <path class="cls-27" d="M577.73,125.99c8.9-20.35,135.17-24.38,135.17-15.6,0,12.8-87.15,17.31-114.57,42.29-27.18,24.74-57.89,58.5-20.6-26.69Z"/>
  <path class="cls-27" d="M239.01,177.43c-118.84-30.23-45.95-129.93-45.95-129.93,0,0-116.89,80.81-98.36,108.72,18.4,28.03,140.9,22.06,144.31,21.21Z"/>
  <path class="cls-21" d="M58.5,133.06S137.48,9.23,198.79.09c15.36-2.32-1.34,41.2-5.48,44.12C93,116.85,58.5,133.06,58.5,133.06Z"/>
  <path class="cls-26" d="M95.19,166.34c1.58,9.63-25.96,30.11-30.59,30.84-4.63.73-9.26-27.67-4.63-28.4,4.51-.85,33.64-12.07,35.22-2.44Z"/>
  <path class="cls-28" d="M64.48,197.17c-16.45,6.83-23.77-19.5-4.63-28.4-3.53,17.8,4.63,28.4,4.63,28.4Z"/>
  <path class="cls-12" d="M186.97,86.14l31.45,7.8v30.71l-22.43,8.41,9.14,38.76s-96.41-40.83-18.16-85.68Z"/>
  <path class="cls-27" d="M215.86,104.54s-22.55,4.27-12.31,25.84l30.84,13.53,9.02-27.3-27.55-12.07Z"/>
  <path class="cls-12" d="M243.4,116.49c-9.87-4.88-25.96,22.43-9.02,27.3,6.58,1.95,20.48-21.57,9.02-27.3Z"/>
  <path class="cls-27" d="M241.94,121.24s-12.55,4.27-5.48,15.84l30.84,13.53,7.8-13.89-33.15-15.48Z"/>
  <path class="cls-12" d="M274.97,136.72c-5.24-2.44-13.89,10.24-7.8,13.89,6.34,3.9,14.75-10.73,7.8-13.89Z"/>
  <path class="cls-28" d="M195.38,116.85c2.32-2.19,3.9,3.53,3.17,4.39-14.14,17.31,25.72,15.24,25.6,37.54,0,2.44-5.73,1.95-5.97,1.1-3.9-21.45-47.53-19.5-22.79-43.02Z"/>
  <path class="cls-12" d="M152.35,84.92c-11.34,9.51-27.06,44.61-22.3,51.31,8.17,11.58,37.66,5.61,32.91-3.17-18.77-34.25,13.65-48.39-10.6-48.14Z"/>
  <path class="cls-27" d="M178.8,108.81c-19.14,0-34.74-17.06-34.74-38.15s15.48-38.15,34.74-38.15c19.26-.12,19.26,76.3,0,76.3Z"/>
</svg>