<?xml version="1.0" encoding="UTF-8"?>
<svg id="Layer_1" data-name="Layer 1" xmlns="http://www.w3.org/2000/svg" xmlns:xlink="http://www.w3.org/1999/xlink" viewBox="0 0 511.98 512">
  <defs>
    <style>
      .cls-1 {
        fill: #cf0000;
      }

      .cls-2 {
        fill: #fa0;
      }

      .cls-3 {
        fill: url(#linear-gradient-5);
      }

      .cls-4 {
        fill: url(#linear-gradient-6);
      }

      .cls-5 {
        fill: url(#linear-gradient-4);
      }

      .cls-6 {
        fill: url(#linear-gradient-3);
      }

      .cls-7 {
        fill: url(#linear-gradient-2);
      }

      .cls-8 {
        fill: #006dae;
      }

      .cls-9 {
        fill: url(#radial-gradient);
      }

      .cls-10 {
        fill: url(#linear-gradient);
      }

      .cls-11 {
        fill: #529320;
      }

      .cls-12 {
        fill: #990095;
      }

      .cls-13 {
        fill: #ffd500;
      }

      .cls-14 {
        fill: #302c3b;
      }
    </style>
    <linearGradient id="linear-gradient" x1="-109.55" y1="836.14" x2="-89.81" y2="836.14" gradientTransform="translate(-282.4945 1065.743) rotate(40.2502) scale(1 -1)" gradientUnits="userSpaceOnUse">
      <stop offset="0" stop-color="#c49c7d"/>
      <stop offset="1" stop-color="#694739"/>
    </linearGradient>
    <linearGradient id="linear-gradient-2" x1="-330.52" y1="1085.02" x2="-330.52" y2="1424.14" gradientTransform="translate(-336.7862 1124.4464) rotate(45) scale(1 -1)" gradientUnits="userSpaceOnUse">
      <stop offset="0" stop-color="#b300af"/>
      <stop offset="1" stop-color="#f02beb"/>
    </linearGradient>
    <linearGradient id="linear-gradient-3" x1="-59.36" y1="915.4" x2="-59.36" y2="1254.58" gradientTransform="translate(-336.7862 1124.4464) rotate(45) scale(1 -1)" gradientUnits="userSpaceOnUse">
      <stop offset="0" stop-color="#cf0000"/>
      <stop offset="1" stop-color="#ff000e"/>
    </linearGradient>
    <linearGradient id="linear-gradient-4" x1="-286.11" y1="1086.04" x2="-286.11" y2="1423.13" gradientTransform="translate(-336.7862 1124.4464) rotate(45) scale(1 -1)" gradientUnits="userSpaceOnUse">
      <stop offset="0" stop-color="#1774ff"/>
      <stop offset="1" stop-color="#55daf2"/>
    </linearGradient>
    <linearGradient id="linear-gradient-5" x1="-103.77" y1="915.45" x2="-103.77" y2="1254.58" gradientTransform="translate(-336.7862 1124.4464) rotate(45) scale(1 -1)" gradientUnits="userSpaceOnUse">
      <stop offset="0" stop-color="#fa0"/>
      <stop offset="1" stop-color="#ffea00"/>
    </linearGradient>
    <linearGradient id="linear-gradient-6" x1="-194.97" y1="1092.87" x2="-194.97" y2="1254.58" gradientTransform="translate(-336.7862 1124.4464) rotate(45) scale(1 -1)" gradientUnits="userSpaceOnUse">
      <stop offset="0" stop-color="#52a100"/>
      <stop offset="1" stop-color="#9be323"/>
    </linearGradient>
    <radialGradient id="radial-gradient" cx="269.89" cy="-2720.89" fx="269.89" fy="-2720.89" r="177.2" gradientTransform="translate(0 -77.12) scale(1 -.2)" gradientUnits="userSpaceOnUse">
      <stop offset="0" stop-color="#571700" stop-opacity=".2"/>
      <stop offset=".23" stop-color="#591a00" stop-opacity=".15"/>
      <stop offset=".38" stop-color="#612200" stop-opacity=".12"/>
      <stop offset=".51" stop-color="#6e3100" stop-opacity=".1"/>
      <stop offset=".62" stop-color="#814600" stop-opacity=".08"/>
      <stop offset=".72" stop-color="#996100" stop-opacity=".05"/>
      <stop offset=".82" stop-color="#b68300" stop-opacity=".04"/>
      <stop offset=".92" stop-color="#d9aa00" stop-opacity=".02"/>
      <stop offset="1" stop-color="#ffd500" stop-opacity="0"/>
    </radialGradient>
  </defs>
  <path class="cls-13" d="M511.98,502.59c0,12.54-511.98,12.54-511.98,0,0-22.19,114.6-56.74,255.99-56.74s255.99,34.56,255.99,56.74Z"/>
  <polygon class="cls-10" points="97.45 477.85 72.1 477.33 276.21 236.36 291.23 249.08 97.45 477.85"/>
  <path class="cls-7" d="M412.49,99.49C306.59-6.4,148.3-19.8,106.41,22.1c0,0,36.78,61.78,62.8,62.8,0,0,179.71-48.89,243.28,14.59Z"/>
  <path class="cls-6" d="M412.49,99.49c63.57,63.57,14.59,243.28,14.59,243.28,1.02,26.11,62.8,62.8,62.8,62.8,41.9-41.9,28.5-200.1-77.39-306.08Z"/>
  <path class="cls-12" d="M106.41,22.1s-18.52,22.95-15.02,33.62c6.06,18.6,25.68,38.14,44.29,44.2,10.67,3.5,33.62-15.02,33.62-15.02l-62.89-62.8Z"/>
  <path class="cls-1" d="M427.08,342.77s-18.52,22.95-15.02,33.62c6.06,18.6,25.68,38.23,44.2,44.29,10.67,3.5,33.62-15.02,33.62-15.02l-62.8-62.89Z"/>
  <path class="cls-5" d="M412.49,99.49c-63.57-63.49-201.38-56.57-243.28-14.59,0,0,53.59,75.35,80.64,80.64l162.64-66.05Z"/>
  <path class="cls-3" d="M412.49,99.49l-66.05,162.64c1.96,26.96,80.64,80.64,80.64,80.64,41.9-41.9,48.98-179.71-14.59-243.28Z"/>
  <path class="cls-8" d="M169.21,84.9s-18.52,22.95-15.02,33.62c6.06,18.6,41.98,54.53,61.44,61.44,11.09,3.93,34.22-14.42,34.22-14.42l-80.64-80.64Z"/>
  <path class="cls-2" d="M346.44,262.13s-18.35,23.12-14.42,34.22c6.91,19.37,42.84,55.38,61.44,61.44,10.67,3.5,33.62-15.02,33.62-15.02l-80.64-80.64Z"/>
  <path class="cls-11" d="M249.85,165.54s-18.35,23.12-14.42,34.22c6.91,19.46,57.43,69.97,76.8,76.8,11.09,3.93,34.22-14.42,34.22-14.42-28.93-50.6-96.59-96.59-96.59-96.59Z"/>
  <path class="cls-4" d="M412.49,99.49s-82.94-13.65-162.64,65.96l96.59,96.68c79.7-79.61,66.05-162.64,66.05-162.64Z"/>
  <path class="cls-14" d="M434.67,124.32c-7.85-25-22.27-39.34-47.1-47.02,14.16,11.18,35.92,32.94,47.1,47.02Z"/>
  <path class="cls-9" d="M255.99,445.85c-72.02,0-137.13,8.96-183.63,20.74,4.78,25.17,90.54,45.23,195.92,45.4h5.03c94.72-.43,173.14-16.81,190.63-38.48-46.51-14.93-122.28-27.65-207.95-27.65Z"/>
</svg>