<?xml version="1.0" encoding="UTF-8"?>
<svg id="Layer_1" data-name="Layer 1" xmlns="http://www.w3.org/2000/svg" xmlns:xlink="http://www.w3.org/1999/xlink" viewBox="0 0 511.82 512">
  <defs>
    <style>
      .cls-1 {
        fill: url(#radial-gradient-4);
      }

      .cls-2 {
        fill: url(#radial-gradient-3);
      }

      .cls-3 {
        fill: url(#radial-gradient-2);
      }

      .cls-4 {
        fill: url(#linear-gradient-8);
      }

      .cls-5 {
        fill: url(#linear-gradient-7);
      }

      .cls-6 {
        fill: url(#linear-gradient-5);
      }

      .cls-7 {
        fill: url(#linear-gradient-6);
      }

      .cls-8 {
        fill: url(#linear-gradient-9);
      }

      .cls-9 {
        fill: url(#linear-gradient-4);
      }

      .cls-10 {
        fill: url(#linear-gradient-3);
      }

      .cls-11 {
        fill: url(#linear-gradient-2);
      }

      .cls-12 {
        fill: rgba(54, 54, 54, .2);
      }

      .cls-13 {
        fill: url(#radial-gradient);
      }

      .cls-14 {
        fill: url(#linear-gradient);
      }

      .cls-15 {
        fill: #ffea9f;
      }

      .cls-16 {
        fill: url(#linear-gradient-10);
      }

      .cls-17 {
        fill: url(#linear-gradient-11);
      }

      .cls-18 {
        fill: url(#linear-gradient-12);
      }

      .cls-19 {
        fill: url(#linear-gradient-13);
      }

      .cls-20 {
        fill: #005687;
      }
    </style>
    <linearGradient id="linear-gradient" x1="28.15" y1="26.04" x2="176.12" y2="174.02" gradientTransform="translate(0 512.31) scale(1 -1)" gradientUnits="userSpaceOnUse">
      <stop offset="0" stop-color="#ff3700"/>
      <stop offset=".11" stop-color="#ff3f00"/>
      <stop offset=".28" stop-color="#ff5300"/>
      <stop offset=".49" stop-color="#ff7500"/>
      <stop offset=".72" stop-color="orange"/>
      <stop offset=".98" stop-color="#ffe100"/>
      <stop offset="1" stop-color="#ffe600"/>
    </linearGradient>
    <linearGradient id="linear-gradient-2" x1="42.75" y1="47.48" x2="169.98" y2="174.72" gradientTransform="translate(0 512.31) scale(1 -1)" gradientUnits="userSpaceOnUse">
      <stop offset="0" stop-color="#f90"/>
      <stop offset=".17" stop-color="#ffa20c"/>
      <stop offset=".48" stop-color="#ffbb2c"/>
      <stop offset=".9" stop-color="#ffe260"/>
      <stop offset="1" stop-color="#ffec6e"/>
    </linearGradient>
    <linearGradient id="linear-gradient-3" x1="118.36" y1="43.4" x2="78.77" y2="3.27" gradientTransform="translate(0 512.31) scale(1 -1)" gradientUnits="userSpaceOnUse">
      <stop offset="0" stop-color="#f90"/>
      <stop offset=".18" stop-color="#ff9500"/>
      <stop offset=".34" stop-color="#ff8b00"/>
      <stop offset=".5" stop-color="#ff7800"/>
      <stop offset=".65" stop-color="#ff5f00"/>
      <stop offset=".79" stop-color="#ff3e00"/>
      <stop offset=".93" stop-color="#ff1600"/>
      <stop offset="1" stop-color="red"/>
    </linearGradient>
    <linearGradient id="linear-gradient-4" x1="54.25" y1="126.08" x2="19.85" y2="91.68" gradientTransform="translate(0 512.31) scale(1 -1)" gradientUnits="userSpaceOnUse">
      <stop offset="0" stop-color="#f90"/>
      <stop offset=".18" stop-color="#ff9500"/>
      <stop offset=".34" stop-color="#ff8b00"/>
      <stop offset=".5" stop-color="#ff7800"/>
      <stop offset=".65" stop-color="#ff5f00"/>
      <stop offset=".79" stop-color="#ff3e00"/>
      <stop offset=".93" stop-color="#ff1600"/>
      <stop offset="1" stop-color="red"/>
    </linearGradient>
    <radialGradient id="radial-gradient" cx="172.44" cy="295.92" fx="87.45" fy="295.92" r="190.11" gradientTransform="translate(0 512.31) scale(1 -1)" gradientUnits="userSpaceOnUse">
      <stop offset="0" stop-color="#798291"/>
      <stop offset=".18" stop-color="#707987"/>
      <stop offset=".48" stop-color="#59616c"/>
      <stop offset=".87" stop-color="#343941"/>
      <stop offset="1" stop-color="#262a30"/>
    </radialGradient>
    <linearGradient id="linear-gradient-5" x1="283.53" y1="199.21" x2="332.77" y2="87.61" gradientTransform="translate(0 512.31) scale(1 -1)" gradientUnits="userSpaceOnUse">
      <stop offset=".21" stop-color="#005687"/>
      <stop offset=".26" stop-color="#096398"/>
      <stop offset=".36" stop-color="#1474ad"/>
      <stop offset=".47" stop-color="#1c80bc"/>
      <stop offset=".6" stop-color="#2187c4"/>
      <stop offset=".8" stop-color="#2289c7"/>
    </linearGradient>
    <linearGradient id="linear-gradient-6" x1="290.26" y1="72.33" x2="311.83" y2="51.31" gradientTransform="translate(0 512.31) scale(1 -1)" gradientUnits="userSpaceOnUse">
      <stop offset="0" stop-color="#279ee6"/>
      <stop offset="1" stop-color="#005687"/>
    </linearGradient>
    <linearGradient id="linear-gradient-7" x1="198.72" y1="284.02" x2="87.13" y2="333.25" gradientTransform="translate(0 512.31) scale(1 -1)" gradientUnits="userSpaceOnUse">
      <stop offset=".21" stop-color="#005687"/>
      <stop offset=".26" stop-color="#096398"/>
      <stop offset=".36" stop-color="#1474ad"/>
      <stop offset=".47" stop-color="#1c80bc"/>
      <stop offset=".6" stop-color="#2187c4"/>
      <stop offset=".8" stop-color="#2289c7"/>
    </linearGradient>
    <linearGradient id="linear-gradient-8" x1="50.69" y1="312.18" x2="71.98" y2="290.89" gradientTransform="translate(0 512.31) scale(1 -1)" gradientUnits="userSpaceOnUse">
      <stop offset="0" stop-color="#279ee6"/>
      <stop offset="1" stop-color="#005687"/>
    </linearGradient>
    <radialGradient id="radial-gradient-2" cx="115.41" cy="45.43" fx="115.41" fy="45.43" r="329.89" gradientTransform="translate(0 512.31) scale(1 -1)" gradientUnits="userSpaceOnUse">
      <stop offset="0" stop-color="#ff000e"/>
      <stop offset=".07" stop-color="#ff030e"/>
      <stop offset=".11" stop-color="#ff0c0d"/>
      <stop offset=".15" stop-color="#fe1b0b"/>
      <stop offset=".18" stop-color="#fe3009"/>
      <stop offset=".21" stop-color="#fd4c07"/>
      <stop offset=".24" stop-color="#fd6e03"/>
      <stop offset=".27" stop-color="#fc8e00"/>
      <stop offset=".34" stop-color="#fb8a00"/>
      <stop offset=".42" stop-color="#f77e00"/>
      <stop offset=".49" stop-color="#f16b00"/>
      <stop offset=".57" stop-color="#e84f00"/>
      <stop offset=".64" stop-color="#dd2b00"/>
      <stop offset=".71" stop-color="#cf0000"/>
      <stop offset=".71" stop-color="#cf0000"/>
    </radialGradient>
    <radialGradient id="radial-gradient-3" cx="-69.11" cy="37.04" fx="-69.11" fy="37.04" r="490.93" gradientTransform="translate(0 512.31) scale(1 -1)" gradientUnits="userSpaceOnUse">
      <stop offset="0" stop-color="#d3d4d6"/>
      <stop offset=".35" stop-color="#f5f5f5"/>
      <stop offset=".45" stop-color="#fff"/>
      <stop offset=".51" stop-color="#f0f0f2"/>
      <stop offset=".61" stop-color="#c7cacf"/>
      <stop offset=".73" stop-color="#9298a1"/>
      <stop offset=".84" stop-color="#aaaeb5"/>
      <stop offset="1" stop-color="#d3d4d6"/>
    </radialGradient>
    <linearGradient id="linear-gradient-9" x1="334.27" y1="284.79" x2="334.27" y2="410.38" gradientTransform="translate(0 512.31) scale(1 -1)" gradientUnits="userSpaceOnUse">
      <stop offset="0" stop-color="#cf0000"/>
      <stop offset="1" stop-color="#fc8e00"/>
    </linearGradient>
    <linearGradient id="linear-gradient-10" x1="334.27" y1="297.9" x2="334.27" y2="397.28" gradientTransform="translate(0 512.31) scale(1 -1)" gradientUnits="userSpaceOnUse">
      <stop offset="0" stop-color="#fc8e00"/>
      <stop offset="1" stop-color="#cf0000"/>
    </linearGradient>
    <radialGradient id="radial-gradient-4" cx="334.17" cy="347.75" fx="362.68" fy="329.5" r="43.72" gradientTransform="translate(0 512.31) scale(1 -1)" gradientUnits="userSpaceOnUse">
      <stop offset="0" stop-color="#798291"/>
      <stop offset=".29" stop-color="#77808e"/>
      <stop offset=".47" stop-color="#6f7885"/>
      <stop offset=".64" stop-color="#626a76"/>
      <stop offset=".78" stop-color="#505761"/>
      <stop offset=".91" stop-color="#393e46"/>
      <stop offset="1" stop-color="#262a30"/>
    </radialGradient>
    <linearGradient id="linear-gradient-11" x1="178.38" y1="178.86" x2="200.77" y2="201.24" gradientTransform="translate(0 512.31) scale(1 -1)" gradientUnits="userSpaceOnUse">
      <stop offset="0" stop-color="#798291"/>
      <stop offset=".18" stop-color="#707987"/>
      <stop offset=".48" stop-color="#59616c"/>
      <stop offset=".87" stop-color="#343941"/>
      <stop offset="1" stop-color="#262a30"/>
    </linearGradient>
    <linearGradient id="linear-gradient-12" x1="184.38" y1="184.87" x2="204.04" y2="204.53" gradientTransform="translate(0 512.31) scale(1 -1)" gradientUnits="userSpaceOnUse">
      <stop offset="0" stop-color="#798291"/>
      <stop offset=".18" stop-color="#707987"/>
      <stop offset=".48" stop-color="#59616c"/>
      <stop offset=".87" stop-color="#343941"/>
      <stop offset="1" stop-color="#262a30"/>
    </linearGradient>
    <linearGradient id="linear-gradient-13" x1="152.01" y1="197.82" x2="173.04" y2="176.8" gradientTransform="translate(0 512.31) scale(1 -1)" gradientUnits="userSpaceOnUse">
      <stop offset="0" stop-color="#279ee6"/>
      <stop offset="1" stop-color="#005687"/>
    </linearGradient>
  </defs>
  <path class="cls-14" d="M38.59,385.87c4.37-14.56,11.92-27.12,22.66-37.68,10.74-10.56,23.02-18.29,36.86-23.21,13.83-4.91,27.85-6.28,42.04-4.1,14.2,2.18,27.12,8.74,38.77,19.66,12.01,11.65,18.11,25.57,18.29,41.77.18,16.2-5.19,31.4-16.11,45.59-4.73,6.19-8.83,10.74-12.29,13.65-3.46,2.91-6.46,5.37-9.01,7.37-2.55,2-4.82,4.64-6.83,7.92-2,3.28-4.1,8.55-6.28,15.84-4-7.28-6.01-14.01-6.01-20.2s.73-11.19,2.18-15.02,2.18-5.73,2.18-5.73c-10.19,12.01-19.75,20.11-28.67,24.3-8.92,4.19-17.66,7.19-26.21,9.01-8.55,1.82-17.11,4.64-25.66,8.46-8.55,3.82-17.75,11.01-27.57,21.57-2.91-14.93-3.73-27.03-2.46-36.31,1.27-9.28,3.91-16.93,7.92-22.93,4-6.01,8.55-11.29,13.65-15.84,5.1-4.55,9.74-9.37,13.92-14.47,4.19-5.1,7.19-11.65,9.01-19.66,1.46-7.28.73-13.2-2.18-17.75-2.91-4.55-7.64-5.73-14.2-3.55-6.55,2.18-14.56,9.28-24.03,21.3" vector-effect="none"/>
  <path class="cls-11" d="M71.9,355.29c3.28-4,8.92-8.37,16.93-13.11,8.01-4.73,17.11-8.46,27.3-11.19,10.19-2.73,20.39-3.55,30.58-2.46s19.29,5.46,27.3,13.11c9.1,8.74,14.2,17.75,15.29,27.03,1.09,9.28-.27,18.02-4.1,26.21-3.82,8.19-8.37,15.29-13.65,21.3-5.28,6.01-9.74,10.28-13.38,12.83,3.64-8.01,5.28-14.74,4.91-20.2-.36-5.46-1.37-9.65-3-12.56-1.64-2.91-2.46-4.37-2.46-4.37-9.1,16.38-18.38,28.12-27.85,35.22-9.46,7.1-19.02,12.1-28.67,15.02-9.65,2.91-19.11,6.01-28.39,9.28-9.28,3.28-18.11,8.92-26.48,16.93,1.09-12.01,4.64-21.75,10.65-29.21,6.01-7.46,12.74-14.2,20.2-20.2,7.46-6.01,13.74-12.65,18.84-19.93,5.1-7.28,7.1-16.56,6.01-27.85-.36-2.55-1.82-5.55-4.37-9.01-2.55-3.46-6.01-6.1-10.37-7.92-4.37-1.82-9.46-1.46-15.29,1.09" vector-effect="none"/>
  <path class="cls-15" d="M164.18,347.1c8.01,7.28,12.83,14.11,14.47,20.48,1.64,6.37,1.36,12.29-.82,17.75-2.18,5.46-5.1,10.37-8.74,14.74,3.64-9.46,4-16.38,1.09-20.75-2.91-4.37-6.83-6.19-11.74-5.46s-8.83,3.64-11.74,8.74c-2.18,4.73-5.28,10.1-9.28,16.11-4,6.01-9.28,11.38-15.83,16.11s-15.11,7.83-25.66,9.28c14.2-13.11,23.3-25.12,27.3-36.04,4-10.92,4.28-19.66.82-26.21-3.46-6.55-9.19-10.01-17.2-10.37,4-4.73,9.56-8.19,16.65-10.37,7.1-2.18,14.38-2.91,21.84-2.18,7.46.73,13.74,3.46,18.84,8.19" vector-effect="none"/>
  <path class="cls-10" d="M81.73,512c2.91-4.37,4.91-9.74,6.01-16.11,1.09-6.37,3.73-12.1,7.92-17.2,4.19-5.1,11.74-8.19,22.66-9.28-4,4.37-7.19,9.46-9.56,15.29-2.37,5.82-5.37,11.19-9.01,16.11-3.64,4.91-9.65,8.65-18.02,11.19" vector-effect="none"/>
  <path class="cls-9" d="M15.66,416.44c2.91-6.92,6.64-11.74,11.19-14.47,4.55-2.73,9.37-4.91,14.47-6.55,5.1-1.64,9.83-4.28,14.2-7.92-1.46,9.46-4.64,15.83-9.56,19.11-4.91,3.28-10.19,5.28-15.84,6.01-5.64.73-10.47,2-14.47,3.82" vector-effect="none"/>
  <path class="cls-13" d="M206.77,305.05c4.37,4,8.83,8.55,13.38,13.65s7.83,10.92,9.83,17.47c2,6.55,1.27,14.38-2.18,23.48s-11.01,19.84-22.66,32.22c-5.1,5.1-12.01,6.37-20.75,3.82-8.74-2.55-17.93-7.55-27.58-15.02-9.65-7.46-18.2-16.02-25.66-25.66-7.46-9.65-12.47-18.84-15.02-27.57-2.55-8.74-1.27-15.65,3.82-20.75,12.38-11.65,23.12-19.2,32.22-22.66,9.1-3.46,16.93-4.19,23.48-2.18,6.55,2,12.38,5.28,17.47,9.83,5.1,4.55,9.65,9.01,13.65,13.38" vector-effect="none"/>
  <path class="cls-6" d="M338.91,297.95c-5.46,14.56-8.37,28.48-8.74,41.77s.55,25.12,2.73,35.49c2.18,10.37,4.46,18.47,6.83,24.3,2.37,5.82,3.55,8.74,3.55,8.74l-56.79,57.33s.27-4.1.82-12.29c.55-8.19,0-18.75-1.64-31.67-1.64-12.92-5.46-26.66-11.47-41.23-6.01-14.56-15.38-28.21-28.12-40.95-3.28-3.28-3.09-7.1.55-11.47,3.64-4.37,9.37-8.92,17.2-13.65,7.83-4.73,16.29-9.01,25.39-12.83,9.1-3.82,17.75-6.83,25.94-9.01,8.19-2.18,14.56-2.91,19.11-2.18s6.1,3.28,4.64,7.64" vector-effect="none"/>
  <path class="cls-7" d="M340.55,390.23c4.73-4.73,9.65-6.1,14.74-4.1,5.1,2,8.55,5.55,10.37,10.65,1.82,5.1.36,10.01-4.37,14.74-26.94,26.94-48.96,47.96-66.07,63.07-17.11,15.11-30.03,25.48-38.77,31.12-8.74,5.64-14.01,7.37-15.83,5.19-1.82-1.82,0-7.1,5.46-15.83,5.46-8.74,15.83-21.66,31.12-38.77s36.4-39.13,63.34-66.07" vector-effect="none"/>
  <path class="cls-5" d="M213.87,172.91c-14.56,5.46-28.48,8.37-41.77,8.74-13.29.36-25.12-.55-35.49-2.73-10.37-2.18-18.47-4.46-24.3-6.83-5.82-2.37-8.74-3.55-8.74-3.55l-57.33,56.79s4.1-.27,12.29-.82c8.19-.55,18.75,0,31.67,1.64,12.92,1.64,26.66,5.46,41.23,11.47,14.56,6.01,28.21,15.38,40.95,28.12,3.28,3.28,7.1,3.09,11.47-.55,4.37-3.64,8.92-9.37,13.65-17.2,4.73-7.83,9.01-16.29,12.83-25.39s6.83-17.75,9.01-25.94c2.18-8.19,2.91-14.56,2.18-19.11s-3.28-6.1-7.64-4.64" vector-effect="none"/>
  <path class="cls-4" d="M100.29,150.52c4.73-4.73,9.65-6.19,14.74-4.37,5.1,1.82,8.65,5.28,10.65,10.37,2,5.1.64,10.01-4.1,14.74-26.94,26.94-48.96,48.05-66.07,63.34-17.11,15.29-30.03,25.66-38.77,31.12-8.74,5.46-14.01,7.28-15.84,5.46-2.18-2.18-.46-7.64,5.19-16.38,5.64-8.74,16.02-21.57,31.12-38.5,15.11-16.93,36.13-38.86,63.07-65.8" vector-effect="none"/>
  <path class="cls-3" d="M456.85,188.2L323.62,54.97c22.57-16.02,44.14-28.12,64.71-36.31,20.57-8.19,39.13-13.56,55.7-16.11C460.59,0,474.24-.64,484.98.64c10.74,1.27,17.38,3.37,19.93,6.28,2.91,2.91,5.01,9.74,6.28,20.48,1.27,10.74.64,24.3-1.91,40.68-2.55,16.38-7.92,34.86-16.11,55.42-8.19,20.57-20.29,42.14-36.31,64.71" vector-effect="none"/>
  <path class="cls-2" d="M166.91,270.11c6.19-23.3,15.38-45.96,27.57-67.98s25.75-42.5,40.68-61.43c14.93-18.93,29.58-35.49,43.96-49.69,14.38-14.2,26.94-25.3,37.68-33.31,10.74-8.01,17.75-12.19,21.02-12.56,9.83-.36,20.57,2.18,32.22,7.64,11.65,5.46,23.3,12.92,34.95,22.39,11.65,9.46,22.21,20.02,31.67,31.67,9.47,11.65,16.93,23.3,22.39,34.95,5.46,11.65,8.01,22.39,7.64,32.22-.36,2.91-4.55,9.65-12.56,20.2-8.01,10.56-19.11,23.21-33.31,37.95-14.2,14.74-30.76,29.76-49.69,45.05-18.93,15.29-39.41,29.03-61.43,41.23s-44.68,21.02-67.98,26.48c-8.74,2.18-17.84,1.09-27.3-3.28-9.47-4.37-18.2-10.65-26.21-18.84-8.01-8.19-14.11-17.02-18.29-26.48s-5.19-18.2-3-26.21" vector-effect="none"/>
  <path class="cls-12" d="M378.77,122.68c8.01,8.37,13.38,17.84,16.11,28.39,2.73,10.56,2.73,21.2,0,31.94-2.73,10.74-8.1,20.29-16.11,28.67-8.37,8.01-17.93,13.38-28.67,16.11-10.74,2.73-21.39,2.73-31.94,0-10.56-2.73-20.02-8.1-28.39-16.11-8.01-8.37-13.38-17.93-16.11-28.67-2.73-10.74-2.73-21.39,0-31.94,2.73-10.56,8.1-20.02,16.11-28.39,8.37-8.01,17.93-13.38,28.67-16.11,10.74-2.73,21.39-2.73,31.94,0,10.56,2.73,20.02,8.1,28.39,16.11" vector-effect="none"/>
  <path class="cls-8" d="M378.77,120.49c8.01,8.01,13.38,17.38,16.11,28.12,2.73,10.74,2.73,21.48,0,32.22-2.73,10.74-8.1,20.11-16.11,28.12s-17.84,13.92-28.39,16.65c-10.56,2.73-21.2,2.73-31.94,0-10.74-2.73-20.29-8.28-28.67-16.65-8.01-8.01-13.38-17.38-16.11-28.12-2.73-10.74-2.73-21.48,0-32.22,2.73-10.74,8.1-20.11,16.11-28.12,12.38-12.38,27.3-18.57,44.77-18.57s31.85,6.19,44.23,18.57" vector-effect="none"/>
  <path class="cls-16" d="M369.49,129.23c9.83,9.83,14.74,21.66,14.74,35.49s-4.91,25.48-14.74,34.95c-9.83,9.83-21.48,14.74-34.95,14.74s-25.66-4.91-35.49-14.74c-9.83-9.46-14.74-21.11-14.74-34.95s4.91-25.66,14.74-35.49c9.83-9.46,21.57-14.2,35.22-14.2s25.39,4.73,35.22,14.2" vector-effect="none"/>
  <path class="cls-1" d="M365.34,133.77c5.58,5.83,9.31,12.42,11.21,19.77,1.9,7.35,1.9,14.76,0,22.24-1.9,7.48-5.64,14.13-11.21,19.96-5.83,5.58-12.48,9.31-19.96,11.21-7.48,1.9-14.89,1.9-22.24,0-7.35-1.9-13.94-5.64-19.77-11.21-5.58-5.83-9.31-12.48-11.21-19.96-1.9-7.48-1.9-14.89,0-22.24,1.9-7.35,5.64-13.94,11.21-19.77,5.83-5.58,12.48-9.31,19.96-11.21,7.48-1.9,14.89-1.9,22.24,0,7.35,1.9,13.94,5.64,19.77,11.21" vector-effect="none"/>
  <path class="cls-17" d="M237.89,348.74c-2.18,5.46-6.73,8.1-13.65,7.92-6.92-.18-14.65-2.46-23.21-6.83-8.55-4.37-16.11-9.83-22.66-16.38-6.55-6.55-12.01-14.01-16.38-22.39-4.37-8.37-6.64-16.11-6.83-23.21-.18-7.1,2.46-11.74,7.92-13.92.36,1.46.55,4.37.55,8.74s1.55,10.1,4.64,17.2c3.09,7.1,9.37,15.38,18.84,24.84,9.46,9.46,17.75,15.74,24.84,18.84,7.1,3.09,12.83,4.64,17.2,4.64s7.28.18,8.74.55" vector-effect="none"/>
  <path class="cls-18" d="M241.72,344.91c-2.18,4.37-6.46,6.46-12.83,6.28-6.37-.18-13.56-2.37-21.57-6.55s-15.65-9.92-22.93-17.2c-7.28-7.28-13.01-14.93-17.2-22.93s-6.37-15.2-6.55-21.57c-.18-6.37,1.91-10.65,6.28-12.83,0,2.18.91,8.1,2.73,17.75,1.82,9.65,8.92,20.66,21.3,33.04,12.38,12.38,23.39,19.48,33.04,21.3,9.65,1.82,15.56,2.73,17.75,2.73" vector-effect="none"/>
  <path class="cls-20" d="M234.07,250.99c8.37-5.46,14.47-6.46,18.29-3s2.28,8.83-4.64,16.11c-19.29,20.75-34.4,35.95-45.32,45.59-10.92,9.65-18.93,15.65-24.03,18.02-5.1,2.37-8.46,2.91-10.1,1.64-1.64-1.27-3-2.28-4.1-3-1.09-1.09,1.09-5.82,6.55-14.2,5.46-8.37,13.65-18.2,24.57-29.49,10.92-11.28,23.84-21.84,38.77-31.67" vector-effect="none"/>
  <path class="cls-19" d="M201.86,264.65c4.73-4.73,9.65-6.1,14.74-4.1,5.1,2,8.65,5.46,10.65,10.37,2,4.91.64,9.74-4.1,14.47-26.94,26.94-48.96,48.05-66.07,63.34s-30.03,25.66-38.77,31.12c-8.74,5.46-14.2,7.28-16.38,5.46-1.82-1.82.09-7.1,5.73-15.84,5.64-8.74,16.02-21.66,31.12-38.77,15.11-17.11,36.13-39.13,63.07-66.07" vector-effect="none"/>
</svg>