<?xml version="1.0" encoding="UTF-8"?>
<svg id="Layer_1" data-name="Layer 1" xmlns="http://www.w3.org/2000/svg" xmlns:xlink="http://www.w3.org/1999/xlink" viewBox="0 0 479.91 512">
  <defs>
    <style>
      .cls-1 {
        fill: #ffe8bb;
      }

      .cls-2 {
        fill: url(#linear-gradient-8);
      }

      .cls-3 {
        fill: url(#linear-gradient-7);
      }

      .cls-4 {
        fill: url(#linear-gradient-5);
      }

      .cls-5 {
        fill: url(#linear-gradient-6);
      }

      .cls-6 {
        fill: url(#linear-gradient-9);
      }

      .cls-7 {
        fill: url(#linear-gradient-4);
      }

      .cls-8 {
        fill: url(#linear-gradient-3);
      }

      .cls-9 {
        fill: url(#linear-gradient-2);
      }

      .cls-10 {
        fill: #99a8ae;
      }

      .cls-11 {
        fill: url(#linear-gradient);
      }

      .cls-12 {
        fill: url(#linear-gradient-10);
      }

      .cls-13 {
        fill: url(#linear-gradient-11);
      }

      .cls-14 {
        fill: url(#linear-gradient-12);
      }

      .cls-15 {
        fill: url(#linear-gradient-13);
      }

      .cls-16 {
        fill: #302c3b;
      }
    </style>
    <linearGradient id="linear-gradient" x1="214.88" y1="114.32" x2="214.88" y2="160.88" gradientTransform="translate(0 512.74) scale(1 -1)" gradientUnits="userSpaceOnUse">
      <stop offset="0" stop-color="#abb3b8"/>
      <stop offset=".07" stop-color="#b7bec3"/>
      <stop offset=".25" stop-color="#ccd2d7"/>
      <stop offset=".44" stop-color="#dbe1e5"/>
      <stop offset=".67" stop-color="#e4e9ed"/>
      <stop offset="1" stop-color="#e7ecf0"/>
    </linearGradient>
    <linearGradient id="linear-gradient-2" x1="214.88" y1="126.09" x2="214.88" y2="149.11" gradientTransform="translate(0 512.74) scale(1 -1)" gradientUnits="userSpaceOnUse">
      <stop offset="0" stop-color="#005d8c"/>
      <stop offset="1" stop-color="#2a83a5"/>
    </linearGradient>
    <linearGradient id="linear-gradient-3" x1="296.92" y1="126.09" x2="296.92" y2="149.11" gradientTransform="translate(0 512.74) scale(1 -1)" gradientUnits="userSpaceOnUse">
      <stop offset="0" stop-color="#005d8c"/>
      <stop offset="1" stop-color="#2a83a5"/>
    </linearGradient>
    <linearGradient id="linear-gradient-4" x1="132.77" y1="126.09" x2="132.77" y2="149.11" gradientTransform="translate(0 512.74) scale(1 -1)" gradientUnits="userSpaceOnUse">
      <stop offset="0" stop-color="#005d8c"/>
      <stop offset="1" stop-color="#2a83a5"/>
    </linearGradient>
    <linearGradient id="linear-gradient-5" x1="303.4" y1="201.81" x2="303.4" y2="217.67" gradientTransform="translate(0 512.74) scale(1 -1)" gradientUnits="userSpaceOnUse">
      <stop offset="0" stop-color="#99a8ae"/>
      <stop offset=".12" stop-color="#a3b0b6"/>
      <stop offset=".59" stop-color="#c3cdd2"/>
      <stop offset=".85" stop-color="#cfd8dd"/>
    </linearGradient>
    <linearGradient id="linear-gradient-6" x1="235.35" y1="496.51" x2="303.91" y2="496.51" gradientTransform="translate(0 512.74) scale(1 -1)" gradientUnits="userSpaceOnUse">
      <stop offset="0" stop-color="#c40000"/>
      <stop offset=".22" stop-color="#d80005"/>
      <stop offset=".6" stop-color="#f4000b"/>
      <stop offset=".81" stop-color="#ff000e"/>
    </linearGradient>
    <linearGradient id="linear-gradient-7" x1="222.56" y1="316.16" x2="239.44" y2="316.16" gradientTransform="translate(0 512.74) scale(1 -1)" gradientUnits="userSpaceOnUse">
      <stop offset=".15" stop-color="#cfd8dd"/>
      <stop offset=".41" stop-color="#c3cdd2"/>
      <stop offset=".88" stop-color="#a3b0b6"/>
      <stop offset="1" stop-color="#99a8ae"/>
    </linearGradient>
    <linearGradient id="linear-gradient-8" x1="237.91" y1="333.3" x2="368.37" y2="333.3" gradientTransform="translate(0 512.74) scale(1 -1)" gradientUnits="userSpaceOnUse">
      <stop offset="0" stop-color="#de9400"/>
      <stop offset=".03" stop-color="#e09902"/>
      <stop offset=".2" stop-color="#eaad08"/>
      <stop offset=".4" stop-color="#f2bc0d"/>
      <stop offset=".63" stop-color="#f6c410"/>
      <stop offset="1" stop-color="#f7c711"/>
    </linearGradient>
    <linearGradient id="linear-gradient-9" x1="34.79" y1="308.74" x2="222.56" y2="308.74" gradientTransform="translate(0 512.74) scale(1 -1)" gradientUnits="userSpaceOnUse">
      <stop offset="0" stop-color="#ffe600"/>
      <stop offset="1" stop-color="#f9c802"/>
    </linearGradient>
    <linearGradient id="linear-gradient-10" x1="120.74" y1="303.88" x2="205.68" y2="303.88" gradientTransform="translate(0 512.74) scale(1 -1)" gradientUnits="userSpaceOnUse">
      <stop offset=".19" stop-color="#ff000e"/>
      <stop offset=".4" stop-color="#f4000b"/>
      <stop offset=".78" stop-color="#d80005"/>
      <stop offset="1" stop-color="#c40000"/>
    </linearGradient>
    <linearGradient id="linear-gradient-11" x1="6.65" y1="87.71" x2="479.91" y2="87.71" gradientTransform="translate(0 512.74) scale(1 -1)" gradientUnits="userSpaceOnUse">
      <stop offset="0" stop-color="#e7ecf0"/>
      <stop offset=".33" stop-color="#e4e9ed"/>
      <stop offset=".56" stop-color="#dbe1e5"/>
      <stop offset=".75" stop-color="#ccd2d7"/>
      <stop offset=".93" stop-color="#b7bec3"/>
      <stop offset="1" stop-color="#abb3b8"/>
    </linearGradient>
    <linearGradient id="linear-gradient-12" x1="19.44" y1="30.92" x2="486.56" y2="30.92" gradientTransform="translate(0 512.74) scale(1 -1)" gradientUnits="userSpaceOnUse">
      <stop offset="0" stop-color="#02d6b4"/>
      <stop offset=".32" stop-color="#0fbea3"/>
      <stop offset="1" stop-color="#288f82"/>
    </linearGradient>
    <linearGradient id="linear-gradient-13" x1="234.58" y1="114.32" x2="234.58" y2="118.41" gradientTransform="translate(0 512.74) scale(1 -1)" gradientUnits="userSpaceOnUse">
      <stop offset="0" stop-color="#288f82"/>
      <stop offset=".19" stop-color="#1da390"/>
      <stop offset=".51" stop-color="#0ebfa4"/>
      <stop offset=".79" stop-color="#05d0b0"/>
      <stop offset="1" stop-color="#02d6b4"/>
    </linearGradient>
  </defs>
  <path class="cls-11" d="M127.4,351.86c-8.87,0-16.54,3.07-23.02,9.21l-38.37,37.35h297.77l-38.37-37.35c-6.14-6.14-13.81-9.21-23.02-9.21H127.4" vector-effect="none"/>
  <path class="cls-9" d="M185.72,386.65h58.33c2.73,0,4.09-1.19,4.09-3.58v-15.86c0-2.39-1.36-3.58-4.09-3.58h-58.33c-2.73,0-4.09,1.19-4.09,3.58v15.86c0,2.39,1.36,3.58,4.09,3.58" vector-effect="none"/>
  <path class="cls-8" d="M265.03,386.65h66.51c.68,0,1.11-.26,1.28-.77.17-.51.09-1.11-.26-1.79l-16.88-15.86c-3.07-3.07-6.82-4.6-11.26-4.6h-39.4c-2.73,0-4.09,1.19-4.09,3.58v15.86c0,2.39,1.36,3.58,4.09,3.58" vector-effect="none"/>
  <path class="cls-7" d="M164.66,386.65c2.73,0,4.09-1.19,4.09-3.58v-15.86c0-2.39-1.36-3.58-4.09-3.58h-39.4c-4.43,0-8.19,1.53-11.26,4.6l-16.88,15.86c-.34.68-.43,1.28-.26,1.79.17.51.6.77,1.28.77h66.51" vector-effect="none"/>
  <path class="cls-4" d="M366.33,295.07h-135.58v15.86h135.58c2.73,0,5.03-.77,6.91-2.3,1.88-1.53,2.81-3.5,2.81-5.88,0-2.05-.94-3.84-2.81-5.37-1.88-1.54-4.18-2.3-6.91-2.3" vector-effect="none"/>
  <path class="cls-16" d="M226.32,0v77.47h9.12V0h-9.12" vector-effect="none"/>
  <path class="cls-5" d="M235.35.37v31.72c7.85,0,15.52-1.62,23.02-4.86,7.5-3.24,15.01-6.22,22.51-8.95,7.5-2.73,15.18-3.41,23.02-2.05-7.85-4.78-15.52-7.25-23.02-7.42-7.5-.17-15.09-.34-22.77-.51-7.67-.17-15.26-2.81-22.77-7.93" vector-effect="none"/>
  <path class="cls-3" d="M230.75,42.83c-2.39,0-4.35.85-5.88,2.56-1.54,1.71-2.3,3.75-2.3,6.14v298.79h16.88V51.53c0-5.8-2.9-8.7-8.7-8.7" vector-effect="none"/>
  <path class="cls-2" d="M237.91,62.27s.94,5.12,2.81,15.35c1.88,10.23,3.75,23.79,5.63,40.67,1.88,16.88,3.24,35.64,4.09,56.28.85,20.64.43,41.53-1.28,62.68-1.71,21.15-5.46,40.93-11.26,59.35,15.35-6.14,30.61-9.72,45.79-10.74,15.18-1.02,29.25-.68,42.21,1.02,12.96,1.71,23.28,3.67,30.95,5.88,7.67,2.22,11.51,3.33,11.51,3.33L237.91,62.27" vector-effect="none"/>
  <path class="cls-10" d="M17.4,394.32c3.41-11.6,7.67-23.02,12.79-34.28,5.12-11.26,10.15-21.4,15.09-30.44,4.95-9.04,9.12-16.2,12.54-21.49s5.12-7.93,5.12-7.93c-15.01,19.78-25.67,36.75-31.98,50.91-6.31,14.16-10.15,24.9-11.51,32.23-1.36,7.33-2.05,11-2.05,11M453.31,394.32c-22.17-19.1-39.4-36.07-51.67-50.91-12.28-14.84-20.89-26.43-25.84-34.79-4.95-8.36-7.42-12.53-7.42-12.53,3.75,11.94,10.15,23.79,19.19,35.56,9.04,11.77,18.59,22.34,28.65,31.72,10.06,9.38,18.76,16.88,26.09,22.51,7.33,5.63,11,8.44,11,8.44M254.28,394.32c-7.5-9.21-14.75-19.44-21.74-30.7-6.99-11.26-13.22-22.17-18.67-32.74-5.46-10.57-9.89-19.19-13.3-25.84-3.41-6.65-5.12-9.98-5.12-9.98,2.73,10.57,7.25,21.66,13.56,33.26,6.31,11.6,12.96,22.34,19.95,32.23,6.99,9.89,12.96,17.99,17.91,24.3,4.95,6.31,7.42,9.47,7.42,9.47" vector-effect="none"/>
  <path class="cls-6" d="M222.56,63.81s-3.15,4.43-9.46,13.3c-6.31,8.87-14.75,20.72-25.33,35.56-10.57,14.84-22.51,31.81-35.81,50.91-13.3,19.1-26.95,39.05-40.93,59.86-13.98,20.81-27.63,41.44-40.93,61.91-13.3,20.47-25.07,39.57-35.3,57.3,0,0,4.78.34,14.33,1.02,9.55.68,22.51.68,38.88,0s34.71-2.98,55-6.91c20.29-3.92,41.02-10.49,62.16-19.7,0,0-.17-4.95-.51-14.84-.34-9.89-.51-23.36-.51-40.42s.43-36.5,1.28-58.33c.85-21.83,2.64-44.68,5.37-68.56,2.73-23.88,6.65-47.58,11.77-71.12" vector-effect="none"/>
  <path class="cls-12" d="M205.68,202.97s-1.96-1.02-5.88-3.07-10.83-4.43-20.72-7.16c-9.89-2.73-23.88-5.29-41.95-7.67-5.46,7.85-10.91,15.86-16.37,24.05l83.4,23.54,1.54-29.67" vector-effect="none"/>
  <path class="cls-1" d="M204.14,268.46v-35.81s-2.9-1.62-8.7-4.86c-5.8-3.24-14.84-6.74-27.12-10.49-12.28-3.75-28.14-6.48-47.58-8.19-9.55,13.98-18.93,28.14-28.14,42.47,24.56,0,45.11,1.45,61.65,4.35,16.54,2.9,28.99,5.71,37.35,8.44,8.36,2.73,12.54,4.09,12.54,4.09" vector-effect="none"/>
  <path class="cls-13" d="M479.91,451.63l-16.88-53.21H6.65s.77,4.01,2.3,12.02c1.53,8.02,6.91,21.74,16.12,41.19h454.84" vector-effect="none"/>
  <path class="cls-14" d="M201.07,512h118.19c26.61,0,49.2-2.05,67.79-6.14,18.59-4.09,33.94-9.12,46.05-15.09,12.11-5.97,21.57-11.94,28.4-17.91,6.82-5.97,11.6-11,14.33-15.09,2.73-4.09,4.09-6.14,4.09-6.14H25.07s2.73,3.07,8.19,9.21c5.46,6.14,14.75,13.13,27.88,20.98,13.13,7.85,31.12,14.84,53.98,20.98,22.85,6.14,51.5,9.21,85.95,9.21" vector-effect="none"/>
  <path class="cls-15" d="M2.05,398.42h465.59c1.02,0,1.53-.68,1.53-2.05s-.51-2.05-1.53-2.05H2.05c-1.36,0-2.05.68-2.05,2.05s.68,2.05,2.05,2.05" vector-effect="none"/>
</svg>