<?xml version="1.0" encoding="UTF-8"?>
<svg id="Layer_1" data-name="Layer 1" xmlns="http://www.w3.org/2000/svg" xmlns:xlink="http://www.w3.org/1999/xlink" viewBox="0 0 568.89 512">
  <defs>
    <style>
      .cls-1 {
        fill: #cfd8dd;
      }

      .cls-2 {
        fill: #7ab51d;
      }

      .cls-3 {
        fill: url(#linear-gradient-2);
      }

      .cls-4 {
        fill: #744727;
      }

      .cls-5 {
        fill: url(#linear-gradient);
      }

      .cls-6 {
        fill: #ff000e;
      }

      .cls-7 {
        fill: #92c932;
      }

      .cls-8 {
        fill: #fff;
      }

      .cls-9 {
        fill: #9e6c49;
      }

      .cls-10 {
        fill: #ab0404;
      }

      .cls-11 {
        fill: #cf0505;
      }

      .cls-12 {
        fill: #4e5e67;
      }

      .cls-13 {
        fill: #302c3b;
      }

      .cls-14 {
        fill: #b79c7c;
      }

      .cls-15 {
        fill: #e6ebef;
      }

      .cls-16 {
        fill: #e3cc9e;
      }
    </style>
    <linearGradient id="linear-gradient" x1="284.44" y1="-4" x2="284.44" y2="327.85" gradientTransform="translate(0 508) scale(1 -1)" gradientUnits="userSpaceOnUse">
      <stop offset=".81" stop-color="#e3cc9e"/>
      <stop offset=".9" stop-color="#e1ca9d"/>
      <stop offset=".93" stop-color="#dac398"/>
      <stop offset=".96" stop-color="#cfb88f"/>
      <stop offset=".98" stop-color="#bea782"/>
      <stop offset=".99" stop-color="#a89172"/>
      <stop offset="1" stop-color="#9e876b"/>
    </linearGradient>
    <linearGradient id="linear-gradient-2" x1="284.44" y1="-4" x2="284.44" y2="479.55" gradientTransform="translate(0 508) scale(1 -1)" gradientUnits="userSpaceOnUse">
      <stop offset=".52" stop-color="#ffe8bb"/>
      <stop offset=".71" stop-color="#fde6b9"/>
      <stop offset=".82" stop-color="#f5deb2"/>
      <stop offset=".9" stop-color="#e7d1a6"/>
      <stop offset=".97" stop-color="#d4bf95"/>
      <stop offset="1" stop-color="#c9b58c"/>
    </linearGradient>
  </defs>
  <path class="cls-11" d="M526.14,86.09c-3.09-6.77-5.22-10.24-16.21-10.24H58.97c-10.99,0-13.12,3.47-16.21,10.24L0,180.15h568.89l-42.75-94.06Z"/>
  <rect class="cls-10" x="47.41" y="118.52" width="28.44" height="9.48"/>
  <rect class="cls-10" x="104.3" y="98.57" width="28.44" height="9.48"/>
  <rect class="cls-10" x="113.78" y="152.2" width="28.44" height="9.48"/>
  <rect class="cls-10" x="143.81" y="75.85" width="28.44" height="9.48"/>
  <rect class="cls-10" x="407.31" y="85.33" width="28.44" height="9.48"/>
  <rect class="cls-10" x="464" y="117.53" width="28.44" height="9.48"/>
  <rect class="cls-10" x="433.79" y="150.72" width="28.44" height="9.48"/>
  <rect class="cls-10" x="512" y="151.7" width="28.44" height="9.48"/>
  <rect class="cls-10" x="483.55" y="170.67" width="28.44" height="9.48"/>
  <rect class="cls-10" x="478.81" y="89.09" width="28.44" height="9.48"/>
  <rect class="cls-10" x="45.04" y="164.72" width="28.44" height="9.48"/>
  <rect class="cls-5" x="18.96" y="180.15" width="530.96" height="331.85"/>
  <path class="cls-6" d="M273.78,4.07L118.52,142.22h332.01L295.11,4.07c-6.28-5.58-15.39-5.27-21.33,0Z"/>
  <polygon class="cls-3" points="284.44 28.45 151.7 142.22 151.7 512 417.18 512 417.18 142.22 284.44 28.45"/>
  <rect class="cls-14" x="52.15" y="218.07" width="66.37" height="99.56"/>
  <rect class="cls-13" x="87.7" y="227.56" width="21.33" height="37.93"/>
  <rect class="cls-13" x="61.63" y="227.56" width="21.33" height="37.93"/>
  <rect class="cls-13" x="87.7" y="270.22" width="21.33" height="37.93"/>
  <rect class="cls-13" x="61.63" y="270.22" width="21.33" height="37.93"/>
  <rect class="cls-14" x="450.37" y="218.07" width="66.37" height="99.56"/>
  <rect class="cls-13" x="485.93" y="227.56" width="21.33" height="37.93"/>
  <rect class="cls-13" x="459.85" y="227.56" width="21.33" height="37.93"/>
  <rect class="cls-13" x="485.93" y="270.22" width="21.33" height="37.93"/>
  <rect class="cls-13" x="459.85" y="270.22" width="21.33" height="37.93"/>
  <rect class="cls-14" x="52.15" y="350.8" width="66.37" height="99.56"/>
  <rect class="cls-13" x="87.7" y="360.28" width="21.33" height="37.93"/>
  <rect class="cls-13" x="61.63" y="360.28" width="21.33" height="37.93"/>
  <rect class="cls-13" x="87.7" y="402.94" width="21.33" height="37.93"/>
  <rect class="cls-13" x="61.63" y="402.94" width="21.33" height="37.93"/>
  <rect class="cls-14" x="450.37" y="350.8" width="66.37" height="99.56"/>
  <rect class="cls-13" x="485.93" y="360.28" width="21.33" height="37.93"/>
  <rect class="cls-13" x="459.85" y="360.28" width="21.33" height="37.93"/>
  <rect class="cls-13" x="485.93" y="402.94" width="21.33" height="37.93"/>
  <rect class="cls-13" x="459.85" y="402.94" width="21.33" height="37.93"/>
  <rect id="Rectangle-path" class="cls-16" x="199.11" y="322.35" width="170.67" height="151.7"/>
  <rect id="Rectangle-path-2" data-name="Rectangle-path" class="cls-4" x="210.96" y="331.83" width="146.96" height="142.22"/>
  <rect id="Rectangle-path-3" data-name="Rectangle-path" class="cls-9" x="215.7" y="336.57" width="137.48" height="137.48"/>
  <rect id="Rectangle-path-4" data-name="Rectangle-path" class="cls-4" x="282.07" y="334.2" width="4.74" height="139.85"/>
  <path id="Rectangle" class="cls-4" d="M272.59,406.65v13.93c0,3.37-5.93,3.37-5.93,0v-13.93c0-3.36,5.93-3.36,5.93,0Z"/>
  <path id="Rectangle-2" data-name="Rectangle" class="cls-4" d="M302.22,406.65v13.93c0,3.37-5.93,3.37-5.93,0v-13.93c0-3.36,5.93-3.36,5.93,0Z"/>
  <rect class="cls-13" x="301.04" y="348.43" width="16.59" height="16.59"/>
  <rect class="cls-13" x="322.37" y="348.43" width="16.59" height="16.59"/>
  <rect class="cls-13" x="301.04" y="369.76" width="16.59" height="16.59"/>
  <rect class="cls-13" x="322.37" y="369.76" width="16.59" height="16.59"/>
  <rect class="cls-13" x="229.93" y="348.43" width="16.59" height="16.59"/>
  <rect class="cls-13" x="251.26" y="348.43" width="16.59" height="16.59"/>
  <rect class="cls-13" x="229.93" y="369.76" width="16.59" height="16.59"/>
  <rect class="cls-13" x="251.26" y="369.76" width="16.59" height="16.59"/>
  <circle class="cls-16" cx="284.44" cy="189.63" r="66.37"/>
  <circle class="cls-14" cx="284.44" cy="189.63" r="57.64"/>
  <circle class="cls-8" cx="284.44" cy="189.63" r="52.39"/>
  <circle class="cls-13" cx="284.44" cy="189.62" r="6.99"/>
  <polygon class="cls-13" points="249.09 189.63 252.28 193.19 284.44 191.4 284.44 187.85 252.28 186.07 249.09 189.63"/>
  <polygon class="cls-13" points="284.44 141.4 280.89 144.92 282.67 189.01 286.23 189.01 288 144.92 284.44 141.4"/>
  <circle class="cls-12" cx="284.44" cy="189.63" r="3.49"/>
  <path class="cls-1" d="M413.92,502.52H154.96c-4.13,0-8,2.97-8,6.2v3.28h274.96v-3.28c0-3.23-3.86-6.2-7.99-6.2Z"/>
  <path class="cls-15" d="M399.7,493.04h-230.51c-4.13,0-8,2.97-8,6.2v3.28h246.52v-3.28c0-3.23-3.87-6.2-8-6.2Z"/>
  <path class="cls-1" d="M385.48,483.56h-202.07c-4.13,0-8,2.97-8,6.2v3.28h218.07v-3.28c0-3.23-3.87-6.2-8-6.2Z"/>
  <path class="cls-15" d="M371.26,474.07h-173.62c-4.13,0-8,2.97-8,6.2v3.28h189.63v-3.28c0-3.23-3.87-6.2-8-6.2Z"/>
  <path class="cls-2" d="M535.09,484.28c-8.89-2.66-13.64,3.07-13.64,3.07-2.95-1.37-12.13-.52-12.72,7.24-2.52,1.36-6.08,5.89-3.61,9.29-8.25,1.53-4.17,8.12-4.17,8.12h65.53s6.4-5.76-1.6-9.76c1.78-2.91-1.92-10.37-8.9-10.45,1.94-1.71-3.11-4.37-6.94-4.72-2.1-4.14-8.45-6.08-13.93-2.8Z"/>
  <path class="cls-7" d="M482.64,466.98c-11.82-4.33-18.16,4.98-18.16,4.98-3.92-2.22-16.14-.83-16.93,11.78-3.35,2.17-8.09,9.56-4.81,15.09-10.96,2.47-5.54,13.17-5.54,13.17h87.19s8.5-9.33-2.14-15.83c2.37-4.74-2.56-16.85-11.85-16.96,2.59-2.76-4.14-7.11-9.24-7.69-2.77-6.7-11.22-9.85-18.52-4.53Z"/>
  <path class="cls-2" d="M442.38,484.5c-8.89-2.65-13.64,3.03-13.64,3.03-2.95-1.36-12.13-.5-12.72,7.21-2.52,1.32-6.08,5.83-3.61,9.23-8.24,1.48-4.16,8.03-4.16,8.03h65.53s6.4-5.71-1.6-9.68c1.78-2.87-1.92-10.28-8.9-10.35,1.94-1.69-3.11-4.33-6.94-4.68-2.1-4.11-8.46-6.02-13.94-2.78Z"/>
  <path class="cls-7" d="M33.8,484.28c8.89-2.66,13.65,3.07,13.65,3.07,2.95-1.37,12.13-.52,12.72,7.24,2.52,1.36,6.08,5.89,3.61,9.29,8.24,1.53,4.16,8.12,4.16,8.12H2.43s-6.4-5.76,1.6-9.76c-1.78-2.91,1.92-10.37,8.9-10.45-1.94-1.71,3.11-4.37,6.94-4.72,2.1-4.14,8.45-6.08,13.93-2.8Z"/>
  <path class="cls-2" d="M86.25,466.98c11.82-4.33,18.16,4.98,18.16,4.98,3.92-2.22,16.14-.83,16.93,11.78,3.35,2.17,8.09,9.56,4.81,15.09,10.96,2.47,5.54,13.17,5.54,13.17H44.49s-8.5-9.33,2.14-15.83c-2.37-4.74,2.56-16.85,11.85-16.96-2.59-2.76,4.14-7.11,9.24-7.69,2.78-6.7,11.23-9.85,18.53-4.53Z"/>
  <path class="cls-7" d="M126.51,484.5c8.89-2.65,13.64,3.03,13.64,3.03,2.95-1.36,12.13-.5,12.72,7.21,2.52,1.32,6.08,5.83,3.61,9.23,8.24,1.48,4.16,8.03,4.16,8.03h-65.53s-6.4-5.71,1.6-9.68c-1.78-2.87,1.92-10.28,8.9-10.35-1.94-1.69,3.11-4.33,6.94-4.68,2.1-4.11,8.46-6.02,13.94-2.78Z"/>
</svg>