<?xml version="1.0" encoding="UTF-8"?>
<svg id="Layer_1" data-name="Layer 1" xmlns="http://www.w3.org/2000/svg" xmlns:xlink="http://www.w3.org/1999/xlink" viewBox="0 0 512 512">
  <defs>
    <style>
      .cls-1 {
        fill: #ffe463;
      }

      .cls-2 {
        fill: url(#radial-gradient-2);
      }

      .cls-3 {
        fill: url(#radial-gradient);
      }

      .cls-4 {
        fill: url(#linear-gradient);
      }

      .cls-5 {
        fill: #f9b700;
      }

      .cls-6 {
        fill: #feec9a;
        isolation: isolate;
        opacity: .7;
      }
    </style>
    <radialGradient id="radial-gradient" cx="260.27" cy="247.8" fx="260.27" fy="247.8" r="267.11" gradientTransform="translate(0 514) scale(1 -1)" gradientUnits="userSpaceOnUse">
      <stop offset="0" stop-color="#fa0"/>
      <stop offset=".34" stop-color="#ffa700"/>
      <stop offset=".6" stop-color="#ff9d00"/>
      <stop offset=".82" stop-color="#ff8d00"/>
      <stop offset="1" stop-color="#ff7b00"/>
    </radialGradient>
    <linearGradient id="linear-gradient" x1="256" y1="121.47" x2="256" y2="343.33" gradientTransform="translate(0 514) scale(1 -1)" gradientUnits="userSpaceOnUse">
      <stop offset="0" stop-color="#ffb700"/>
      <stop offset=".29" stop-color="#ffc700"/>
      <stop offset=".62" stop-color="#ffd200"/>
      <stop offset="1" stop-color="#ffd500"/>
    </linearGradient>
    <radialGradient id="radial-gradient-2" cx="259.2" cy="1.44" fx="259.2" fy="1.44" r="431.15" gradientTransform="translate(0 255.69) scale(1 -.66)" gradientUnits="userSpaceOnUse">
      <stop offset=".06" stop-color="#fee29a"/>
      <stop offset=".1" stop-color="#f8e09c"/>
      <stop offset=".15" stop-color="#e6daa1"/>
      <stop offset=".21" stop-color="#cacfaa"/>
      <stop offset=".27" stop-color="#a2c1b6"/>
      <stop offset=".34" stop-color="#6fafc6"/>
      <stop offset=".41" stop-color="#3199d9"/>
      <stop offset=".46" stop-color="#0087e8"/>
      <stop offset="1" stop-color="#004c78"/>
    </radialGradient>
  </defs>
  <rect class="cls-3" width="512" height="281.6"/>
  <circle class="cls-4" cx="256" cy="281.6" r="110.93"/>
  <rect class="cls-2" y="281.6" width="512" height="230.4"/>
  <path class="cls-6" d="M230.4,408.53c0,14.4,51.2,0,51.2,0,0,0-51.2-14.4-51.2,0Z"/>
  <path class="cls-6" d="M211.2,382.93s89.6,14.4,89.6,0-89.6,0-89.6,0Z"/>
  <path class="cls-6" d="M268.8,363.73s64,14.4,64,0-64,0-64,0Z"/>
  <path class="cls-6" d="M358.4,306.13s-204.8-28.8-204.8,0,204.8,0,204.8,0Z"/>
  <path class="cls-6" d="M179.2,338.13s166.4,28.8,166.4,0-166.4,0-166.4,0Z"/>
  <path class="cls-6" d="M179.2,363.73c0,14.4,76.8,0,76.8,0,0,0-76.8-14.4-76.8,0Z"/>
  <path class="cls-5" d="M39.47,196.44c18.56-10.5,37.24-24.17,63.45-20.3,30.1,4.45,43.97,10.26,60.02-2.7,16.04-12.95,29.16,15.22,51.2,20.4,22.05,5.18,71.14,9.23,42.93,12.2-34.9,3.68-254.13,12.09-245.02,0,3.12-4.16,17.06-3.75,27.42-9.61Z"/>
  <path class="cls-5" d="M461.06,247.7c-14.65-4.65-29.38-10.73-50.05-9-23.73,1.97-34.68,4.55-47.35-1.2-12.65-5.75-23,6.75-40.38,9.05-17.38,2.3-56.12,4.1-33.87,5.42,27.54,1.63,200.47,5.37,193.28,0-2.48-1.84-13.47-1.66-21.63-4.27Z"/>
  <path class="cls-5" d="M190.86,250.71c6.03-10.39,16.38-12.93,24.58-5.76-3.75-10.79-19.59-11.32-24.58-1.6-4.97-9.75-20.82-9.22-24.58,1.59,8.19-7.18,18.57-4.63,24.58,5.78Z"/>
  <path class="cls-5" d="M166.27,263.65c3.63-6.25,9.86-7.78,14.79-3.46-2.27-6.5-11.78-6.81-14.79-.96-2.99-5.86-12.53-5.54-14.79.95,4.92-4.32,11.17-2.78,14.79,3.48Z"/>
  <path class="cls-5" d="M215.44,262.33c2.36-4.09,6.43-5.09,9.65-2.26-1.48-4.24-7.7-4.45-9.65-.62-1.95-3.83-8.18-3.63-9.67.61,3.22-2.82,7.3-1.82,9.67,2.27Z"/>
  <path class="cls-1" d="M122.04,242.59c3.25-5.6,8.82-6.96,13.24-3.1-2.03-5.82-10.56-6.1-13.24-.87-2.67-5.25-11.21-4.97-13.24.85,4.42-3.87,10.01-2.5,13.24,3.11Z"/>
  <path class="cls-1" d="M132.63,254.03c2.07-3.56,5.6-4.42,8.4-1.96-1.29-3.69-6.7-3.87-8.4-.55-1.7-3.33-7.12-3.15-8.41.54,2.81-2.46,6.36-1.59,8.41,1.97Z"/>
</svg>