<?xml version="1.0" encoding="UTF-8"?>
<svg id="Layer_1" data-name="Layer 1" xmlns="http://www.w3.org/2000/svg" xmlns:xlink="http://www.w3.org/1999/xlink" viewBox="0 0 744.73 512">
  <defs>
    <style>
      .cls-1 {
        fill: #cfd8dd;
      }

      .cls-2 {
        fill: #f9c802;
      }

      .cls-3 {
        fill: url(#radial-gradient-2);
      }

      .cls-4 {
        fill: url(#linear-gradient-3);
      }

      .cls-5 {
        fill: url(#linear-gradient-2);
      }

      .cls-6 {
        fill: #1a1626;
      }

      .cls-7 {
        fill: url(#radial-gradient);
      }

      .cls-8 {
        fill: url(#linear-gradient);
      }

      .cls-9 {
        fill: #f59e01;
      }

      .cls-10 {
        fill: #e81c27;
      }

      .cls-11 {
        fill: #ab5110;
      }

      .cls-12 {
        fill: #4e5e67;
      }

      .cls-13 {
        fill: #302c3b;
      }

      .cls-14 {
        fill: #e6ebef;
      }
    </style>
    <linearGradient id="linear-gradient" x1="372.36" y1="73.44" x2="372.36" y2="460.55" gradientTransform="translate(0 498) scale(1 -1)" gradientUnits="userSpaceOnUse">
      <stop offset="0" stop-color="#f9c802"/>
      <stop offset="1" stop-color="#ffe600"/>
    </linearGradient>
    <linearGradient id="linear-gradient-2" x1="-1048.91" y1="376.89" x2="-1034.13" y2="376.89" gradientTransform="translate(808.07 -755.68) rotate(-90) scale(1 -1)" gradientUnits="userSpaceOnUse">
      <stop offset="0" stop-color="#ffe600"/>
      <stop offset="1" stop-color="#f9c802"/>
    </linearGradient>
    <linearGradient id="linear-gradient-3" x1="436.31" y1="297.95" x2="436.31" y2="435.92" gradientTransform="translate(0 498) scale(1 -1)" gradientUnits="userSpaceOnUse">
      <stop offset="0" stop-color="#302c3b"/>
      <stop offset=".29" stop-color="#454754"/>
      <stop offset=".76" stop-color="#636d78"/>
      <stop offset="1" stop-color="#6e7b85"/>
    </linearGradient>
    <radialGradient id="radial-gradient" cx="400.08" cy="125.08" fx="400.08" fy="125.08" r="75.38" gradientTransform="translate(134.96 569.6) scale(1.15 -1.16)" gradientUnits="userSpaceOnUse">
      <stop offset=".49" stop-color="#5b666e"/>
      <stop offset=".64" stop-color="#525a64"/>
      <stop offset=".92" stop-color="#3c3b49"/>
      <stop offset="1" stop-color="#343040"/>
    </radialGradient>
    <radialGradient id="radial-gradient-2" cx="11.87" cy="125.06" fx="11.87" fy="125.06" r="75.38" gradientTransform="translate(134.96 569.6) scale(1.15 -1.16)" gradientUnits="userSpaceOnUse">
      <stop offset=".49" stop-color="#5b666e"/>
      <stop offset=".64" stop-color="#525a64"/>
      <stop offset=".92" stop-color="#3c3b49"/>
      <stop offset="1" stop-color="#343040"/>
    </radialGradient>
  </defs>
  <path class="cls-9" d="M393.12,0h-23.3v37.46h49.09S413.25,0,393.12,0Z"/>
  <path class="cls-11" d="M375.97,6.27h-6.13v31.2h6.13V6.27Z"/>
  <path class="cls-12" d="M677.66,438H101.1C5.43,438,0,399.57,0,399.57h735.22s-11.08,38.43-57.57,38.43Z"/>
  <path class="cls-8" d="M726.9,279.06s-10.33-26.73-.78-45.57c0,0,4.01-21.34-6.73-33.45-10.78-8.18-38.05-8.46-45.25-19.96-15.91-25.36-57.04-95.44-70.59-118.03-6.66-11.11-25.47-24.61-46.57-24.61h-199.37c-23.38,0-39.48,15.51-48.87,24.61-22.07,21.39-125.67,131.29-125.67,131.29C36.06,222.21,12.25,266.19,12.25,266.19v26.59c.01,9.72-12.25,21.99-12.25,34.87v71.91s1.78,24.99,73.63,24.99h623.16c69.48,0,48-132.29,30.3-132.29-3.47-6.11-.2-13.21-.2-13.21Z"/>
  <path class="cls-5" d="M727.09,292.27l-.2-13.21s-458.38-3.7-591.62,7.03c133.54,10.73,591.81,6.18,591.81,6.18Z"/>
  <path class="cls-10" d="M726.11,233.5h-25.22l-9.22,45.57h35.21s14.09-14.98-.78-45.57Z"/>
  <path class="cls-4" d="M252.72,179.98c-8.12,11.02-3.62,20.07,10.04,20.07h344.52c13.67,0,20.26-10.25,14.7-22.8l-41.06-92.37c-5.57-12.56-21.31-22.81-34.97-22.81h-181.59c-13.65,0-27.3,8.65-35.43,19.69l-76.21,98.21Z"/>
  <polygon class="cls-9" points="477.88 62.07 455.51 62.07 450.32 200.04 482.09 200.04 477.88 62.07"/>
  <path class="cls-2" d="M491.18,407.41h-249.38l-.21-1.31c-6.26-38.8-11.45-69.93-15.64-95.05-15.19-91.21-17.14-102.94-9.32-112.02,3.49-4.05,16.19-19.5,32.24-39.06,23.03-28.03,51.68-62.93,67.7-81.86,15.09-17.82,28.64-28.14,53.24-28.14h176.8c23.52,0,38.91,9.8,48.45,30.84,2.85,6.3,56.12,117.18,56.12,135.13v115.75c-14.71-17.95-133.59-42.52-159.76,74.47l-.26,1.26ZM244.45,404.29h244.24c25.81-119.34,145.7-93.47,159.43-78.69v-109.68c0-17.25-52.98-127.51-55.87-133.84-8.97-19.79-23.46-29.01-45.61-29.01h-176.8c-23.52,0-36.03,9.5-50.86,27.04-16.02,18.92-44.68,53.81-67.69,81.84-16.07,19.58-28.78,35.04-32.29,39.11-6.88,8.01-4.62,21.5,10.03,109.45,4.14,24.84,9.26,55.58,15.43,93.78Z"/>
  <rect class="cls-2" x="464.66" y="51.53" width="3.11" height="354.32"/>
  <rect class="cls-14" x="15.35" y="266.21" width="37.7" height="26.59"/>
  <path class="cls-9" d="M65.29,266.21h-12.24v26.59h27.3s-.94-19.77-15.06-26.59Z"/>
  <path class="cls-6" d="M25.68,364.21H6.39v34.05h43.04s-1.51-25.3-23.75-34.05Z"/>
  <path class="cls-12" d="M36.84,371.5H2.68v6.23h39.48c-1.44-2.19-3.23-4.25-5.32-6.23Z"/>
  <path class="cls-12" d="M2.68,391.66h45.57c-.47-1.86-1.11-3.96-2.02-6.25H2.68v6.25Z"/>
  <rect class="cls-13" x="464.41" y="248.39" width="36.79" height="37.46"/>
  <rect class="cls-13" x="427.57" y="285.84" width="36.84" height="37.46"/>
  <rect class="cls-13" x="390.77" y="248.39" width="36.79" height="37.46"/>
  <rect class="cls-13" x="353.95" y="285.84" width="36.82" height="37.46"/>
  <rect class="cls-13" x="317.15" y="248.39" width="36.81" height="37.46"/>
  <rect class="cls-13" x="280.33" y="285.84" width="36.83" height="37.46"/>
  <rect class="cls-13" x="243.53" y="248.39" width="36.81" height="37.46"/>
  <path class="cls-9" d="M287.63,203.07v-30.5c0-12.86-52.85-2.36-52.84,8.52v21.75c-.01,4.57,52.84,10.82,52.84.23Z"/>
  <path class="cls-9" d="M439.83,226c0-5.93,0-10.75-15.03-10.75h-15.78c-15.06,0-15.06,4.82-15.06,10.75,0,3.57,45.87,3.57,45.87,0Z"/>
  <path class="cls-9" d="M622.07,226c0-5.93,0-10.75-15.05-10.75h-15.76c-15.06,0-15.06,4.82-15.06,10.75,0,3.57,45.86,3.57,45.86,0Z"/>
  <path class="cls-6" d="M695.39,424.59c0-55.23-44.4-99.93-99.29-99.93-54.8-.02-99.25,44.8-99.29,99.93h198.59Z"/>
  <ellipse class="cls-7" cx="596.1" cy="424.56" rx="86.89" ry="87.41"/>
  <ellipse class="cls-14" cx="596.1" cy="424.56" rx="60.09" ry="60.45"/>
  <path class="cls-12" d="M639.88,439.52c1.62-4.7,2.5-9.73,2.5-14.95s-.88-10.25-2.5-14.95l-25.76,14.95,25.76,14.95Z"/>
  <path class="cls-12" d="M605.1,408.84l25.75-14.95c-6.6-7.54-15.57-12.95-25.75-15v29.95Z"/>
  <path class="cls-12" d="M552.31,409.61c-1.58,4.7-2.5,9.73-2.5,14.95s.92,10.25,2.5,14.95l25.76-14.95-25.76-14.95Z"/>
  <path class="cls-12" d="M605.1,440.27v29.95c10.22-2.02,19.15-7.44,25.77-15l-25.77-14.95Z"/>
  <path class="cls-12" d="M587.07,408.84v-29.95c-10.18,2.05-19.15,7.46-25.75,15l25.75,14.95Z"/>
  <path class="cls-12" d="M587.07,440.3l-25.75,14.93c6.62,7.56,15.57,12.97,25.75,15v-29.93Z"/>
  <ellipse class="cls-1" cx="596.1" cy="424.56" rx="23.61" ry="23.75"/>
  <circle class="cls-14" cx="596.1" cy="424.56" r="7.84"/>
  <path class="cls-12" d="M599.48,410.34c0,4.53-6.76,4.53-6.76,0s6.76-4.5,6.76,0Z"/>
  <path class="cls-12" d="M599.48,438.8c0,4.5-6.76,4.5-6.76,0s6.76-4.53,6.76,0Z"/>
  <path class="cls-12" d="M610.02,420.39c-3.9,2.27-7.27-3.62-3.36-5.86,3.87-2.27,7.25,3.62,3.36,5.86Z"/>
  <path class="cls-12" d="M585.54,434.62c-3.89,2.25-7.25-3.62-3.37-5.89,3.9-2.28,7.27,3.61,3.37,5.89Z"/>
  <path class="cls-12" d="M606.64,434.62c-3.89-2.27-.51-8.16,3.39-5.89,3.89,2.27.51,8.13-3.39,5.89Z"/>
  <path class="cls-12" d="M582.17,420.39c-3.9-2.25-.51-8.13,3.37-5.86,3.9,2.25.52,8.13-3.37,5.86Z"/>
  <path class="cls-6" d="M247.94,424.59c0-55.23-44.4-99.93-99.32-99.93-54.77-.02-99.22,44.8-99.28,99.93h198.6Z"/>
  <ellipse class="cls-3" cx="148.64" cy="424.59" rx="86.89" ry="87.41"/>
  <ellipse class="cls-14" cx="148.65" cy="424.59" rx="60.09" ry="60.45"/>
  <path class="cls-12" d="M192.45,439.56c1.59-4.72,2.49-9.73,2.49-14.98s-.9-10.25-2.49-14.95l-25.74,14.95,25.74,14.98Z"/>
  <path class="cls-12" d="M157.66,408.87l25.74-14.95c-6.59-7.54-15.56-12.95-25.74-15v29.95Z"/>
  <path class="cls-12" d="M104.86,409.61c-1.57,4.72-2.47,9.73-2.47,14.98s.9,10.25,2.47,14.95l25.77-14.95-25.77-14.98Z"/>
  <path class="cls-12" d="M157.66,440.3v29.98c10.23-2.05,19.15-7.46,25.77-15l-25.77-14.98Z"/>
  <path class="cls-12" d="M139.62,408.87v-29.95c-10.18,2.05-19.15,7.46-25.75,15l25.75,14.95Z"/>
  <path class="cls-12" d="M139.62,440.32l-25.75,14.95c6.62,7.54,15.57,12.95,25.75,15v-29.95Z"/>
  <ellipse class="cls-1" cx="148.64" cy="424.59" rx="23.61" ry="23.75"/>
  <circle class="cls-14" cx="148.67" cy="424.59" r="7.85"/>
  <path class="cls-12" d="M152.03,410.39c0,4.5-6.76,4.5-6.76,0,0-4.55,6.76-4.55,6.76,0Z"/>
  <path class="cls-12" d="M152.03,438.8c0,4.55-6.76,4.55-6.76,0,0-4.5,6.76-4.5,6.76,0Z"/>
  <path class="cls-12" d="M162.58,420.41c-3.9,2.27-7.25-3.62-3.35-5.86,3.86-2.27,7.23,3.62,3.35,5.86Z"/>
  <path class="cls-12" d="M138.1,434.64c-3.87,2.25-7.25-3.62-3.37-5.89,3.91-2.28,7.27,3.63,3.37,5.89Z"/>
  <path class="cls-12" d="M159.19,434.64c-3.86-2.25-.51-8.16,3.4-5.89,3.87,2.27.51,8.13-3.4,5.89Z"/>
  <path class="cls-12" d="M134.73,420.41c-3.9-2.25-.51-8.13,3.37-5.86,3.9,2.25.54,8.13-3.37,5.86Z"/>
</svg>