<?xml version="1.0" encoding="UTF-8"?>
<svg id="Layer_1" data-name="Layer 1" xmlns="http://www.w3.org/2000/svg" xmlns:xlink="http://www.w3.org/1999/xlink" viewBox="0 0 512 512">
  <defs>
    <style>
      .cls-1 {
        fill: #b3c2c6;
      }

      .cls-2 {
        fill: url(#linear-gradient-2);
      }

      .cls-3 {
        fill: #1a1626;
      }

      .cls-4 {
        fill: #99a8ae;
      }

      .cls-5 {
        fill: url(#linear-gradient);
      }

      .cls-6 {
        fill: #014d87;
      }

      .cls-7 {
        fill: #018bc9;
      }

      .cls-8 {
        fill: #fff;
      }

      .cls-9 {
        fill: #f9b700;
      }

      .cls-10 {
        fill: #013366;
      }

      .cls-11 {
        fill: #4e5e67;
      }

      .cls-12 {
        fill: #302c3b;
      }
    </style>
    <linearGradient id="linear-gradient" x1="62" y1="1294" x2="62" y2="1003.86" gradientTransform="translate(194 -910)" gradientUnits="userSpaceOnUse">
      <stop offset="0" stop-color="#c6cfd4"/>
      <stop offset=".51" stop-color="#dce3e7"/>
      <stop offset=".86" stop-color="#e6ebef"/>
    </linearGradient>
    <linearGradient id="linear-gradient-2" x1="62" y1="1234.27" x2="62" y2="1046.54" gradientTransform="translate(194 -910)" gradientUnits="userSpaceOnUse">
      <stop offset="0" stop-color="#302c3b"/>
      <stop offset=".24" stop-color="#41424f"/>
      <stop offset=".74" stop-color="#616b76"/>
      <stop offset="1" stop-color="#6e7b85"/>
    </linearGradient>
  </defs>
  <path class="cls-3" d="M256,0C114.62,0,0,114.62,0,256c0,94.77,51.55,177.46,128.08,221.72h25.05v12.7c31.49,13.85,66.27,21.58,102.87,21.58s71.38-7.74,102.86-21.56v-12.72h25.06c76.54-44.26,128.07-126.95,128.07-221.72C512,114.62,397.38,0,256,0Z"/>
  <path class="cls-11" d="M319.25,384h-12.55l52.17,106.44c4.51-1.98,8.98-4.11,13.38-6.37l-53-100.07Z"/>
  <path class="cls-1" d="M337.07,384h-17.82l50.19,101.49c4.9-2.43,9.74-5.02,14.47-7.78l-46.84-93.7Z"/>
  <path class="cls-11" d="M139.75,484.07c4.4,2.25,8.85,4.38,13.38,6.37l52.17-106.44h-12.54l-53.02,100.07Z"/>
  <path class="cls-1" d="M128.08,477.7c4.74,2.75,9.57,5.34,14.47,7.78l50.2-101.49h-17.82l-46.86,93.7Z"/>
  <path class="cls-4" d="M332.75,51.2h-153.5c-12.1,0-21.92,9.82-21.92,21.93,0,3.02,2.47,5.48,5.5,5.48s5.49-2.46,5.49-5.48c0-6.06,4.9-10.96,10.94-10.96h29.83c12.77,0,14.03,6.08,16.18,16.14.63,3.03,1.4,15.12,2.82,18.49h13.33c-2.88-1.76-4.02-13.98-5.42-20.74-.91-4.24-2-9.38-4.65-13.89h49.33c-2.66,4.5-3.75,9.66-4.62,13.89-1.44,6.76-2.57,18.98-5.46,20.74h13.31c1.42-3.37,2.2-15.46,2.83-18.49,2.14-10.06,3.42-16.14,16.17-16.14h29.85c6.04,0,10.94,4.9,10.94,10.96,0,3.02,2.47,5.48,5.5,5.48s5.47-2.46,5.47-5.48c-.02-12.11-9.84-21.93-21.94-21.93Z"/>
  <path class="cls-6" d="M119.46,366.94c0,17.06,17.06,68.26,25.6,68.26h221.86c8.53,0,25.6-51.2,25.6-68.26v-42.67H119.46v42.67Z"/>
  <path class="cls-7" d="M119.46,281.61v51.19c0,17.07,17.06,68.26,42.66,68.26h187.74c25.59,0,42.66-51.19,42.66-68.26v-51.19s-273.06,0-273.06,0Z"/>
  <path class="cls-5" d="M341.34,93.86h-170.67c-39.43,0-51.2,26-51.2,42.67v145.07l51.2,34.13c41.4,27.6,34.14,68.26,68.26,68.26h34.14c34.13,0,36.42-47.03,68.26-68.26l51.19-34.13v-145.07c0-16.67-11.78-42.67-51.19-42.67Z"/>
  <circle class="cls-8" cx="162.14" cy="358.4" r="17.06"/>
  <circle class="cls-8" cx="349.86" cy="358.4" r="17.06"/>
  <path class="cls-10" d="M273.07,418.14h-34.14l-8.53,17.06h51.2l-8.53-17.06Z"/>
  <path class="cls-4" d="M349.86,128h-187.73c-25.6,0-17.06,59.74-17.06,59.74h221.86s8.53-59.74-17.07-59.74Z"/>
  <path class="cls-2" d="M349.86,136.54h-187.73c-17.06,0-17.06,51.19-17.06,51.19,0,0,5.06,90.41,25.6,110.94,34.14,34.14,136.53,34.14,170.66,0,20.51-20.51,25.59-110.94,25.59-110.94,0,0,0-51.19-17.06-51.19Z"/>
  <path class="cls-12" d="M337.4,180.83h-162.8c-22.66,0-22.66-37.39,0-37.39h162.8c22.69,0,22.69,37.39,0,37.39Z"/>
  <path class="cls-9" d="M223.55,167.42c-.04-.57.26-.86.8-.86h3.2c.5,0,.77.3.86.83.23,2.03,1.46,2.82,3.37,2.82,2.17,0,3.43-1.02,3.43-3.04v-16.54c0-.53.3-.83.84-.83h3.16c.55,0,.86.3.86.83v16.53c0,5.32-4.02,7.77-8.29,7.77s-7.86-2.2-8.22-7.51Z"/>
  <path class="cls-9" d="M243.17,162.14c0-7.2,5.7-12.8,12.8-12.8s12.81,5.59,12.81,12.8-5.7,12.81-12.81,12.81c-7.1,0-12.8-5.61-12.8-12.81ZM263.93,162.14c0-4.74-3.5-8.08-7.97-8.08s-7.94,3.34-7.94,8.08,3.49,8.08,7.94,8.08c4.47,0,7.97-3.35,7.97-8.08Z"/>
  <path class="cls-9" d="M288.32,150.82l-7.5,12.7v10.11c0,.53-.3.83-.83.83h-3.17c-.55,0-.86-.3-.86-.83v-10.12l-7.48-12.7c-.34-.58-.07-1.01.57-1.01h3.68c.46,0,.77.19.98.59l4.69,8.45,4.69-8.45c.22-.4.51-.59.98-.59h3.68c.64,0,.9.42.58,1.01Z"/>
</svg>