<?xml version="1.0" encoding="UTF-8"?>
<svg id="Layer_1" data-name="Layer 1" xmlns="http://www.w3.org/2000/svg" xmlns:xlink="http://www.w3.org/1999/xlink" viewBox="0 0 512 512">
  <defs>
    <style>
      .cls-1 {
        fill: #cfd8dd;
      }

      .cls-2 {
        fill: url(#radial-gradient-7);
      }

      .cls-3 {
        fill: url(#radial-gradient-6);
      }

      .cls-4 {
        fill: url(#radial-gradient-5);
      }

      .cls-5 {
        fill: url(#radial-gradient-4);
      }

      .cls-6 {
        fill: url(#radial-gradient-9);
      }

      .cls-7 {
        fill: url(#radial-gradient-8);
      }

      .cls-8 {
        fill: url(#radial-gradient-3);
      }

      .cls-9 {
        fill: url(#radial-gradient-2);
      }

      .cls-10 {
        fill: url(#linear-gradient-8);
      }

      .cls-11 {
        fill: url(#linear-gradient-7);
      }

      .cls-12 {
        fill: url(#linear-gradient-5);
      }

      .cls-13 {
        fill: url(#linear-gradient-6);
      }

      .cls-14 {
        fill: url(#linear-gradient-4);
      }

      .cls-15 {
        fill: url(#linear-gradient-3);
      }

      .cls-16 {
        fill: url(#linear-gradient-2);
      }

      .cls-17 {
        fill: url(#radial-gradient);
      }

      .cls-18 {
        fill: url(#linear-gradient);
      }

      .cls-19 {
        fill: url(#radial-gradient-12);
      }

      .cls-20 {
        fill: url(#radial-gradient-10);
      }

      .cls-21 {
        fill: url(#radial-gradient-11);
      }

      .cls-22 {
        fill: #45332c;
      }
    </style>
    <radialGradient id="radial-gradient" cx="395.35" cy="633.08" fx="395.35" fy="633.08" r="62.75" gradientTransform="translate(-166.8801 2011.8075) rotate(2.2958) scale(.8862 -2.912) skewX(.7667)" gradientUnits="userSpaceOnUse">
      <stop offset="0" stop-color="#ffe12c"/>
      <stop offset=".14" stop-color="#ffdc2b"/>
      <stop offset=".31" stop-color="#fece26"/>
      <stop offset=".49" stop-color="#fdb61f"/>
      <stop offset=".68" stop-color="#fb9516"/>
      <stop offset=".87" stop-color="#f96b0a"/>
      <stop offset="1" stop-color="#f74a00"/>
    </radialGradient>
    <radialGradient id="radial-gradient-2" cx="165.33" cy="463.6" fx="165.33" fy="463.6" r="50.4" gradientTransform="translate(36.84 514) scale(1.33 -1)" gradientUnits="userSpaceOnUse">
      <stop offset=".42" stop-color="#fff"/>
      <stop offset="1" stop-color="#fff" stop-opacity="0"/>
    </radialGradient>
    <radialGradient id="radial-gradient-3" cx="87.93" cy="388.33" fx="87.93" fy="388.33" r="50.4" gradientTransform="translate(1.89 514) scale(1 -1)" gradientUnits="userSpaceOnUse">
      <stop offset=".42" stop-color="#fff"/>
      <stop offset="1" stop-color="#fff" stop-opacity="0"/>
    </radialGradient>
    <radialGradient id="radial-gradient-4" cx="122.42" cy="426.61" fx="122.42" fy="426.61" r="50.4" gradientTransform="translate(1.89 514) scale(1 -1)" gradientUnits="userSpaceOnUse">
      <stop offset=".42" stop-color="#fff"/>
      <stop offset="1" stop-color="#fff" stop-opacity="0"/>
    </radialGradient>
    <radialGradient id="radial-gradient-5" cx="179.02" cy="453.97" fx="179.02" fy="453.97" r="50.4" gradientTransform="translate(1.89 514) scale(1 -1)" gradientUnits="userSpaceOnUse">
      <stop offset=".42" stop-color="#fff"/>
      <stop offset="1" stop-color="#fff" stop-opacity="0"/>
    </radialGradient>
    <radialGradient id="radial-gradient-6" cx="-626.12" cy="388.33" fx="-626.12" fy="388.33" r="50.4" gradientTransform="translate(-205.91 514) rotate(-180)" gradientUnits="userSpaceOnUse">
      <stop offset=".42" stop-color="#fff"/>
      <stop offset="1" stop-color="#fff" stop-opacity="0"/>
    </radialGradient>
    <radialGradient id="radial-gradient-7" cx="-591.63" cy="426.61" fx="-591.63" fy="426.61" r="50.4" gradientTransform="translate(-205.91 514) rotate(-180)" gradientUnits="userSpaceOnUse">
      <stop offset=".42" stop-color="#fff"/>
      <stop offset="1" stop-color="#fff" stop-opacity="0"/>
    </radialGradient>
    <linearGradient id="linear-gradient" x1="0" y1="131.86" x2="512" y2="131.86" gradientTransform="translate(0 514) scale(1 -1)" gradientUnits="userSpaceOnUse">
      <stop offset="0" stop-color="#916958"/>
      <stop offset=".21" stop-color="#8b6454"/>
      <stop offset=".49" stop-color="#7b5748"/>
      <stop offset=".8" stop-color="#5f4034"/>
      <stop offset="1" stop-color="#4a2f24"/>
    </linearGradient>
    <radialGradient id="radial-gradient-8" cx="284.14" cy="93.24" fx="284.14" fy="93.24" r="143.34" gradientTransform="translate(1.89 420.6) scale(1 -.88)" gradientUnits="userSpaceOnUse">
      <stop offset="0" stop-color="#ffe12c"/>
      <stop offset=".14" stop-color="#ffdc2b"/>
      <stop offset=".31" stop-color="#fece26"/>
      <stop offset=".49" stop-color="#fdb61f"/>
      <stop offset=".68" stop-color="#fb9516"/>
      <stop offset=".87" stop-color="#f96b0a"/>
      <stop offset="1" stop-color="#f74a00"/>
    </radialGradient>
    <linearGradient id="linear-gradient-2" x1="143.23" y1="288.65" x2="143.23" y2="320.95" gradientTransform="translate(0 514) scale(1 -1)" gradientUnits="userSpaceOnUse">
      <stop offset="0" stop-color="#f74a00"/>
      <stop offset=".13" stop-color="#f75002"/>
      <stop offset=".3" stop-color="#f86207"/>
      <stop offset=".51" stop-color="#fa8010"/>
      <stop offset=".74" stop-color="#fca91c"/>
      <stop offset=".98" stop-color="#ffde2b"/>
      <stop offset="1" stop-color="#ffe12c"/>
    </linearGradient>
    <linearGradient id="linear-gradient-3" x1="249.86" y1="284.66" x2="249.86" y2="505.46" gradientTransform="translate(0 514) scale(1 -1)" gradientUnits="userSpaceOnUse">
      <stop offset="0" stop-color="#f74a00"/>
      <stop offset=".13" stop-color="#f75002"/>
      <stop offset=".3" stop-color="#f86207"/>
      <stop offset=".51" stop-color="#fa8010"/>
      <stop offset=".74" stop-color="#fca91c"/>
      <stop offset=".98" stop-color="#ffde2b"/>
      <stop offset="1" stop-color="#ffe12c"/>
    </linearGradient>
    <linearGradient id="linear-gradient-4" x1="194.05" y1="297.12" x2="194.05" y2="503.11" gradientTransform="translate(0 514) scale(1 -1)" gradientUnits="userSpaceOnUse">
      <stop offset="0" stop-color="#f74a00"/>
      <stop offset=".13" stop-color="#f75002"/>
      <stop offset=".3" stop-color="#f86207"/>
      <stop offset=".51" stop-color="#fa8010"/>
      <stop offset=".74" stop-color="#fca91c"/>
      <stop offset=".98" stop-color="#ffde2b"/>
      <stop offset="1" stop-color="#ffe12c"/>
    </linearGradient>
    <linearGradient id="linear-gradient-5" x1="161.73" y1="296.63" x2="161.73" y2="429.96" gradientTransform="translate(0 514) scale(1 -1)" gradientUnits="userSpaceOnUse">
      <stop offset="0" stop-color="#f74a00"/>
      <stop offset=".13" stop-color="#f75002"/>
      <stop offset=".3" stop-color="#f86207"/>
      <stop offset=".51" stop-color="#fa8010"/>
      <stop offset=".74" stop-color="#fca91c"/>
      <stop offset=".98" stop-color="#ffde2b"/>
      <stop offset="1" stop-color="#ffe12c"/>
    </linearGradient>
    <linearGradient id="linear-gradient-6" x1="294.95" y1="323.14" x2="294.95" y2="480.96" gradientTransform="translate(0 514) scale(1 -1)" gradientUnits="userSpaceOnUse">
      <stop offset="0" stop-color="#f74a00"/>
      <stop offset=".13" stop-color="#f75002"/>
      <stop offset=".3" stop-color="#f86207"/>
      <stop offset=".51" stop-color="#fa8010"/>
      <stop offset=".74" stop-color="#fca91c"/>
      <stop offset=".98" stop-color="#ffde2b"/>
      <stop offset="1" stop-color="#ffe12c"/>
    </linearGradient>
    <linearGradient id="linear-gradient-7" x1="358.8" y1="294.63" x2="358.8" y2="426" gradientTransform="translate(0 514) scale(1 -1)" gradientUnits="userSpaceOnUse">
      <stop offset="0" stop-color="#f74a00"/>
      <stop offset=".13" stop-color="#f75002"/>
      <stop offset=".3" stop-color="#f86207"/>
      <stop offset=".51" stop-color="#fa8010"/>
      <stop offset=".74" stop-color="#fca91c"/>
      <stop offset=".98" stop-color="#ffde2b"/>
      <stop offset="1" stop-color="#ffe12c"/>
    </linearGradient>
    <linearGradient id="linear-gradient-8" x1="397.51" y1="304.81" x2="397.51" y2="347.33" gradientTransform="translate(0 514) scale(1 -1)" gradientUnits="userSpaceOnUse">
      <stop offset="0" stop-color="#f74a00"/>
      <stop offset=".13" stop-color="#f75002"/>
      <stop offset=".3" stop-color="#f86207"/>
      <stop offset=".51" stop-color="#fa8010"/>
      <stop offset=".74" stop-color="#fca91c"/>
      <stop offset=".98" stop-color="#ffde2b"/>
      <stop offset="1" stop-color="#ffe12c"/>
    </linearGradient>
    <radialGradient id="radial-gradient-9" cx="168.47" cy="398.26" fx="168.47" fy="398.26" r="50.4" gradientTransform="translate(1.89 514) scale(1 -1)" gradientUnits="userSpaceOnUse">
      <stop offset=".42" stop-color="#fff"/>
      <stop offset="1" stop-color="#fff" stop-opacity="0"/>
    </radialGradient>
    <radialGradient id="radial-gradient-10" cx="180.71" cy="396.4" fx="180.71" fy="396.4" r="50.4" gradientTransform="translate(29.38 514) scale(1.25 -1)" gradientUnits="userSpaceOnUse">
      <stop offset=".42" stop-color="#fff"/>
      <stop offset="1" stop-color="#fff" stop-opacity="0"/>
    </radialGradient>
    <radialGradient id="radial-gradient-11" cx="-545.58" cy="398.26" fx="-545.58" fy="398.26" r="50.4" gradientTransform="translate(-205.91 514) rotate(-180)" gradientUnits="userSpaceOnUse">
      <stop offset=".42" stop-color="#fff"/>
      <stop offset="1" stop-color="#fff" stop-opacity="0"/>
    </radialGradient>
    <radialGradient id="radial-gradient-12" cx="-535.03" cy="453.97" fx="-535.03" fy="453.97" r="50.4" gradientTransform="translate(-205.91 514) rotate(-180)" gradientUnits="userSpaceOnUse">
      <stop offset=".42" stop-color="#fff"/>
      <stop offset="1" stop-color="#fff" stop-opacity="0"/>
    </radialGradient>
  </defs>
  <path class="cls-1" d="M120.86,146.37c0,67.2,101.13,67.2,101.13,0s-101.13-67.2-101.13,0Z"/>
  <path class="cls-1" d="M307.14,146.37c0,67.2,101.13,67.2,101.13,0s-101.13-67.2-101.13,0Z"/>
  <path class="cls-17" d="M189.23,110.43s25.88,70.93,27.19,147.32h97.9c1.03-92.12,25.57-147.32,25.57-147.32,0,0-150.66,0-150.66,0Z"/>
  <path class="cls-1" d="M322.81,50.4c0,67.2-133.63,67.2-133.63,0s133.63-67.2,133.63,0Z"/>
  <path class="cls-1" d="M319.2,117.6c0,67.2-126.4,67.2-126.4,0s126.4-67.2,126.4,0Z"/>
  <path class="cls-1" d="M140.66,125.66c0,67.2-101.13,67.2-101.13,0,0-67.19,101.13-67.19,101.13,0Z"/>
  <path class="cls-1" d="M175.27,87.39c0,67.2-101.13,67.2-101.13,0s101.13-67.21,101.13,0Z"/>
  <path class="cls-1" d="M232.05,60.03c0,67.2-101.14,67.2-101.14,0s101.14-67.2,101.14,0Z"/>
  <path class="cls-1" d="M221.46,115.74c0,67.2-101.13,67.2-101.13,0,0-67.2,101.13-67.2,101.13,0Z"/>
  <path class="cls-1" d="M371.33,125.66c0,67.2,101.13,67.2,101.13,0,0-67.19-101.13-67.19-101.13,0Z"/>
  <path class="cls-1" d="M336.73,87.39c0,67.2,101.13,67.2,101.13,0,0-67.21-101.13-67.21-101.13,0Z"/>
  <path class="cls-1" d="M279.95,60.03c0,67.2,101.14,67.2,101.14,0s-101.14-67.2-101.14,0Z"/>
  <path class="cls-1" d="M290.53,115.74c0,67.2,101.13,67.2,101.13,0,0-67.2-101.13-67.2-101.13,0Z"/>
  <path class="cls-9" d="M322.81,50.4c0,67.2-133.63,67.2-133.63,0s133.63-67.2,133.63,0Z"/>
  <path class="cls-8" d="M140.66,125.66c0,67.2-101.13,67.2-101.13,0,0-67.19,101.13-67.19,101.13,0Z"/>
  <path class="cls-5" d="M175.27,87.39c0,67.2-101.13,67.2-101.13,0s101.13-67.21,101.13,0Z"/>
  <path class="cls-4" d="M232.05,60.03c0,67.2-101.14,67.2-101.14,0s101.14-67.2,101.14,0Z"/>
  <path class="cls-3" d="M371.33,125.66c0,67.2,101.13,67.2,101.13,0,0-67.19-101.13-67.19-101.13,0Z"/>
  <path class="cls-2" d="M336.73,87.39c0,67.2,101.13,67.2,101.13,0,0-67.21-101.13-67.21-101.13,0Z"/>
  <path class="cls-18" d="M0,476.47c0-19.81,52.8-27.79,60.39-59.02,37.19-14.55,50.98-46.53,59.87-75.52,44.24-32.53,88.06-89.65,88.06-89.65h82.37l221.31,224.19c-68.9,23.07-181.25,19.97-181.25,19.97l-85.33,15.56s-105.71-13.56-124.55-29.74l-51.56,4.04S0,483.58,0,476.47Z"/>
  <path class="cls-22" d="M251.59,252.28l4.92,54.93-18.01,20.67-9.93,36.5-50.93,61.24,84-63.51-32.54,48.81,14.66,50.21-50.4-17.99,52.04,68.86,85.33-15.56-27.02-79.71,104.54,57.59-68.39-76.59-17.91-68.04,96.99,77.96s34,65.9,93.03,68.82c0-24.64-13.7-12.51-74.44-98.7-42.66-20.41-70.41-62.75-112.72-125.48,0,0-73.22,0-73.22,0Z"/>
  <polygon class="cls-22" points="174.9 348.12 156.68 385.29 29.8 466.61 172.04 407.19 183.89 354.54 238.72 275.23 174.9 348.12"/>
  <path class="cls-22" d="M152.97,445.16c-51.2,18.89-83.66,41.14-83.66,41.14l51.56-4.04s10.77-20.7,32.1-37.09Z"/>
  <path class="cls-7" d="M236.56,241.96c-8.23-4.89-26.93-1.6-31.7,8.56-9.05,19.29-38.83,29.62-29.89,40.86,0,0,23.59-24.64,19.37-14.52-15.12,36.18-81.54,78.64-68.72,91.21,12.83,12.55,85.63-104.51,85.21-82.09-1.23,65.22-94.96,177.87-54.06,143.9,70.29-58.35,57.25-145.71,79.13-165.78,9.23-8.47-10.52,31.73,1.37,48.32,11.9,16.61.87-37.57,10.65-44.27,14.76-10.14-3.78,48.54,23.56,69.21,22.18,16.77-2.94,60.8,13.54,54.72,16.51-6.08,15.47-45.6-3.19-62.72-18.65-17.13-17.95-58.8-10.35-62.82,7.61-4.06-3.05,18.67,15.95,29.18,19.25,10.62-9.06-37.26,11.8-21.89,46.75,34.46,40.71,86.44,59.12,111.23,22.38,30.2,46.56,60.7,82.83,60.09,33.28-.55-37.59-14.63-65.87-66-7.13-12.92-12.72-48.54-40.19-85.73-7.86-10.62-7-26.69,42.72,33.57,15.11-13.36-36.23-46.58-48.49-75.97-6.12-14.69-21.85-23.35-41.1-14.14-11.95-7.13-43.42-4.84-51.69,5.09Z"/>
  <path class="cls-16" d="M99.2,199.23c27.66,23.71,113.52,35.23,84.93,17.52-28.59-17.86-102.28-32.44-84.93-17.52Z"/>
  <path class="cls-15" d="M246.46,10.42c-14.24,27.76-6.92,167.99,6.56,213.43,14.34,48.48,7.67-241.19-6.56-213.43Z"/>
  <path class="cls-14" d="M153.16,13.35c-4.28,30.91,48.92,160.85,76.66,199.29,29.56,41.05-72.4-230.18-76.66-199.29Z"/>
  <path class="cls-12" d="M208.04,207.31c-23.58-45.04-93.91-160-95.67-111.61-1.35,38.14,119.22,156.65,95.67,111.61Z"/>
  <path class="cls-13" d="M302.34,34.11c-18.14,17.58-26.38,118.13-17.37,152.4,9.57,36.55,35.46-169.99,17.37-152.4Z"/>
  <path class="cls-11" d="M394.32,88.36c-22.54,9.06-68.59,93.49-74.03,126.28-5.84,34.95,96.54-135.36,74.03-126.28Z"/>
  <path class="cls-10" d="M430.27,171.23c-17.02,24.33-82.41,50.81-63.45,31.04,18.94-19.88,74.11-46.34,63.45-31.04Z"/>
  <path class="cls-6" d="M221.46,115.74c0,67.2-101.13,67.2-101.13,0,0-67.2,101.13-67.2,101.13,0Z"/>
  <path class="cls-20" d="M319.2,117.6c0,67.2-126.4,67.2-126.4,0s126.4-67.2,126.4,0Z"/>
  <path class="cls-21" d="M290.53,115.74c0,67.2,101.13,67.2,101.13,0,0-67.2-101.13-67.2-101.13,0Z"/>
  <path class="cls-19" d="M279.95,60.03c0,67.2,101.14,67.2,101.14,0s-101.14-67.2-101.14,0Z"/>
</svg>