<?xml version="1.0" encoding="UTF-8"?>
<svg id="Layer_1" data-name="Layer 1" xmlns="http://www.w3.org/2000/svg" xmlns:xlink="http://www.w3.org/1999/xlink" viewBox="0 0 512 512">
  <defs>
    <style>
      .cls-1 {
        fill: url(#radial-gradient-4);
      }

      .cls-2 {
        fill: url(#radial-gradient-3);
      }

      .cls-3 {
        fill: url(#radial-gradient-2);
      }

      .cls-4 {
        fill: url(#linear-gradient-2);
      }

      .cls-5 {
        fill: #1a1626;
      }

      .cls-6 {
        fill: url(#radial-gradient);
      }

      .cls-7 {
        fill: url(#linear-gradient);
      }

      .cls-8 {
        fill: red;
      }
    </style>
    <linearGradient id="linear-gradient" x1="-112.65" y1="203.53" x2="-69.45" y2="203.53" gradientTransform="translate(210.31 511.05) scale(1.19 -1.21)" gradientUnits="userSpaceOnUse">
      <stop offset=".15" stop-color="#cfd8dd"/>
      <stop offset=".41" stop-color="#c3cdd2"/>
      <stop offset=".88" stop-color="#a3b0b6"/>
      <stop offset="1" stop-color="#99a8ae"/>
    </linearGradient>
    <linearGradient id="linear-gradient-2" x1="146.55" y1="203.53" x2="189.75" y2="203.53" gradientTransform="translate(210.31 511.05) scale(1.19 -1.21)" gradientUnits="userSpaceOnUse">
      <stop offset=".15" stop-color="#cfd8dd"/>
      <stop offset=".41" stop-color="#c3cdd2"/>
      <stop offset=".88" stop-color="#a3b0b6"/>
      <stop offset="1" stop-color="#99a8ae"/>
    </linearGradient>
    <radialGradient id="radial-gradient" cx="409.6" cy="462.8" fx="409.6" fy="462.8" r="42.67" gradientTransform="translate(0 514) scale(1 -1)" gradientUnits="userSpaceOnUse">
      <stop offset=".44" stop-color="#e80000"/>
      <stop offset=".48" stop-color="#ea0600"/>
      <stop offset=".83" stop-color="#f94500"/>
      <stop offset="1" stop-color="#ff5e00"/>
    </radialGradient>
    <radialGradient id="radial-gradient-2" cx="102.4" cy="462.8" fx="102.4" fy="462.8" r="42.67" gradientTransform="translate(0 514) scale(1 -1)" gradientUnits="userSpaceOnUse">
      <stop offset=".44" stop-color="#e80000"/>
      <stop offset=".48" stop-color="#ea0600"/>
      <stop offset=".83" stop-color="#f94500"/>
      <stop offset="1" stop-color="#ff5e00"/>
    </radialGradient>
    <radialGradient id="radial-gradient-3" cx="203.25" cy="345.69" fx="203.25" fy="345.69" r="178.88" gradientTransform="translate(44.53 513.7) scale(1.04 -1.02)" gradientUnits="userSpaceOnUse">
      <stop offset="0" stop-color="#ffe600"/>
      <stop offset="1" stop-color="#f9c802"/>
    </radialGradient>
    <radialGradient id="radial-gradient-4" cx="203.25" cy="177.88" fx="203.25" fy="177.88" r="178.88" gradientTransform="translate(44.53 513.7) scale(1.04 -1.02)" gradientUnits="userSpaceOnUse">
      <stop offset="0" stop-color="#ffe600"/>
      <stop offset="1" stop-color="#f9c802"/>
    </radialGradient>
  </defs>
  <rect class="cls-7" x="76.8" y="17.07" width="51.2" height="494.93"/>
  <rect class="cls-4" x="384" y="17.07" width="51.2" height="494.93"/>
  <circle class="cls-8" cx="409.6" cy="51.2" r="51.2"/>
  <circle class="cls-6" cx="409.6" cy="51.2" r="42.67"/>
  <circle class="cls-8" cx="102.4" cy="51.2" r="51.2"/>
  <circle class="cls-3" cx="102.4" cy="51.2" r="42.67"/>
  <rect class="cls-2" y="102.4" width="512" height="119.47"/>
  <polygon class="cls-5" points="136.53 102.4 17.07 221.87 102.4 221.87 221.87 102.4 136.53 102.4"/>
  <polygon class="cls-5" points="307.2 102.4 187.73 221.87 273.07 221.87 392.53 102.4 307.2 102.4"/>
  <polygon class="cls-5" points="512 102.4 477.87 102.4 358.4 221.87 443.73 221.87 512 153.6 512 102.4"/>
  <polygon class="cls-5" points="51.2 102.4 0 102.4 0 153.6 51.2 102.4"/>
  <rect class="cls-1" y="273.07" width="512" height="119.47"/>
  <polygon class="cls-5" points="136.53 273.07 17.07 392.53 102.4 392.53 221.87 273.07 136.53 273.07"/>
  <polygon class="cls-5" points="307.2 273.07 187.73 392.53 273.07 392.53 392.53 273.07 307.2 273.07"/>
  <polygon class="cls-5" points="512 273.07 477.87 273.07 358.4 392.53 443.73 392.53 512 324.27 512 273.07"/>
  <polygon class="cls-5" points="51.2 273.07 0 273.07 0 324.27 51.2 273.07"/>
</svg>