<?xml version="1.0" encoding="UTF-8"?>
<svg id="Layer_1" data-name="Layer 1" xmlns="http://www.w3.org/2000/svg" viewBox="0 0 568.89 512">
  <defs>
    <style>
      .cls-1 {
        fill: #dbc39b;
      }

      .cls-2 {
        opacity: .1;
      }

      .cls-2, .cls-3, .cls-4 {
        fill: #302c3b;
        isolation: isolate;
      }

      .cls-3 {
        opacity: .4;
      }

      .cls-4 {
        opacity: .3;
      }

      .cls-5 {
        fill: #38a600;
      }

      .cls-6 {
        fill: #83dfff;
      }

      .cls-7 {
        fill: #e6ebef;
      }
    </style>
  </defs>
  <polygon class="cls-1" points="568.89 18.96 379.26 37.93 189.63 0 0 18.96 9.48 256 0 493.04 189.63 474.07 379.26 512 568.89 493.04 559.41 256 568.89 18.96"/>
  <polygon class="cls-6" points="549.93 37.93 379.26 56.89 189.63 18.96 18.96 37.93 28.44 256 18.96 474.07 189.63 455.11 379.26 493.04 549.93 474.07 540.44 256 549.93 37.93"/>
  <polygon class="cls-7" points="115.77 408.56 39.54 417 37.93 455.11 114.16 446.67 115.77 408.56"/>
  <path class="cls-5" d="M457.1,238.08c.38-.38,1.23-1.14,1.23-1.14,3.98-6.16,14.51-5.03,11.19-16.59.38,1.42-7.87-14.7-6.26-16.69l-7.11.28c-1.42-.76,3.51-11.57,6.35-7.11,2.56,4.08,6.64.09,6.83,5.4,1.9.66,9.01,13.08,10.15,4.36.76-6.45-13.84-10.24-1.04-16.02,7.68-3.41,3.51-17.26-1.8-20.57-5.12-3.22-18.87-2.37-7.49-12.23,4.46-3.89,14.98,5.4,16.21-1.71.76-4.27,5.12-5.31,8.53-4.27,1.14.19,3.22,26.45,11,22.95,3.6-1.61-.47-12.04-2.56-13.18-5.78-3.13.76-9.01,3.6-7.77.76.28-.95,3.32-.19,3.32,1.14,0,7.21-5.12,7.96-5.97.19-.19-6.54-4.46-7.21-4.93,4.74-1.14,9.86-3.51,14.51-.19-7.96-5.78-19.91-7.11-29.2-8.82-4.17-.76-6.07,2.75-10.33,2.18-6.64-.95-12.99-3.7-19.72-3.98-4.93-.19-10.71,1.33-15.36-1.52-5.12-3.13-7.4,3.13-12.89,1.8-4.74-1.14-36.22-1.23-37.55-4.08-1.8-3.98,3.22-4.93-4.08-5.59-6.35-.57-12.23-1.61-18.01,1.9-2.75,1.71-14.6,1.61-13.56,6.64,1.99,10.05-1.61,11.09-5.5,8.25,1.99,1.52-10.81-16.78-9.58-9.77.47,2.65,9.48,9.67.19,8.44-1.99-.28-3.89-.95-5.69-1.99-3.98-2.94-7.68,1.8-11.95.57-5.59-1.61-11,3.89-14.89,7.4-3.6,3.32-10.33-3.13-8.91-4.36.38-.38,9.58.57,8.63-1.04-5.03-8.72-24.65-6.92-31.19-2.37-3.41,2.37-8.91,11.57-12.71,11.76-5.88.38-.09,5.03-2.28,7.4,3.79-4.17,6.54,1.71,8.91,4.17,4.65,4.84,6.92-3.22,9.39-5.97-5.88-4.27,4.36-12.89,5.78-10.9.95,1.33-.38,4.84-.57,6.26-.66,5.21,5.12,1.33,7.77,2.94,2.09,1.23-6.16,4.27-5.78,1.99-1.14,6.64-1.23,2.75-4.84,8.34-3.79,5.88-12.71-1.33-16.97,1.04-2.18,1.23-15.17,13.18-19.06,12.99.76.38,1.42.85,2.18,1.33-1.52,0-2.94.19-4.36.66,1.23,1.61,2.47,3.13,3.89,4.46,4.36,4.65-11.85,4.17-13.08,8.44-1.52,5.21.76,10.24,6.07,10.24,6.64.09,6.92-3.6,10.24-8.25,2.28-3.22,12.23-9.39,14.98-7.02,1.9,1.71,8.82,9.1,6.92,12.8-1.23,2.28,4.36,3.79,5.69-3.22.66-3.79-8.25-6.92-8.82-12.04-.19-2.09,11.85,6.16,13.08,9.96,4.74,14.41,5.5-.38,6.07-.57,10.24-3.03,1.9,3.6,6.73,6.35,3.7,2.18,13.84-.19,15.64,5.03,5.97,17.73-26.17,4.74-26.07,4.55-4.08,5.88-.85,6.35-9.67,3.41-2.94-.19-5.4-1.33-7.49-3.41-1.23-1.8,0-7.96-.47-8.44-.95-.85-5.03,1.23-4.46,1.23-3.32,0-21.43,6.26-23.51,1.9-1.23,1.8-2.18,3.32-3.7,4.84l-2.94,1.8-.47,1.42c-9.2,11.28-21.71,32.14-11.47,47.31,6.92,10.33,13.27,14.51,24.94,9.86,6.64-2.65,14.7,1.14,19.63,5.21.47,2.75.38,5.4-.47,8.06-.57,4.46,4.36,9.01,5.88,12.8,2.37,5.69,3.79,11.85.57,17.45l-.85,1.42c-2.75,10.52,8.15,29.96,11.09,39.92,3.51,12.04,22.47-6.73,24.46-11.57,2.37-5.88,5.31-9.39,6.35-15.93,1.23-7.68,9.67-9.58,9.2-18.3-1.04-19.44,6.45-25.51,16.5-40.96,2.56-2.94.76-7.4,3.41-10.24-14.41,15.83-32.24-29.87-34.99-38.97.95,3.03,5.78,2.56,7.4,5.12,3.22,5.03,4.55,10.81,7.96,15.74,9.86,14.22,6.26,16.4,23.42,7.59,1.8-1.8,10.62-9.77,9.58-12.52-.38-.95-5.88-9.77-5.78-9.77-3.6,1.33-7.59,9.39-11.19,2.75-.85-1.61-5.21-11-2.75-12.33.66-.38,9.1,7.49,11.28,7.68,6.54.47,12.61,4.08,19.82,4.36,3.98,1.42,8.72,11.19,12.42,8.34,4.55-3.41,2.75,8.15,3.41,9.86,4.46,11.76,12.42,27.78,12.89,4.27.09-6.35,7.87-10.71,12.14-14.32,5.97-5.12,8.06,2.09,11.47,6.16,3.22,3.89,13.08,11.47,13.94,12.14,5.03,4.55,10.9,14.7,15.27,2.47,2.65-7.49-11.47-11.66-8.25-17.92,4.46-8.44,9.1,1.52,8.34,4.08.38-.66.85-1.33,1.23-1.99,1.99-3.03,2.84-4.84,2.75-4.84Z"/>
  <path class="cls-5" d="M341.9,316.78l-2.94,1.61c-4.36,3.41-9.39,16.78-4.74,22.28,7.59-1.33,12.61-21.71,9.77-28.16-.57,1.52-1.23,2.94-2.09,4.27Z"/>
  <path class="cls-5" d="M519.68,326.16c-1.71-3.7-.95-13.37-4.36-15.74-1.33-.85-1.99,5.31-1.99,5.5-3.13,6.64-13.94,7.77-11.28-1.04,2.84-9.39-9.96,1.23-11.38,2.84-3.41,4.08-3.6-5.59-7.96-.09-2.56,3.22-6.07,7.87-9.67,9.86-3.79,2.09-12.8,3.03-14.03,8.34-1.04,4.84-5.4,25.13,2.65,24.46,3.41-.28,32.62-13.08,29.01-1.04,1.04-.09,6.45-1.61,6.45-2.84,0,31.67,37.64-4.27,30.25-18.49-2.37-3.98-5.69-7.4-7.68-11.76Z"/>
  <path class="cls-5" d="M459.09,291.84c-.19.09-.47.09,0,0,1.04-.38,4.27,0,4.27,0,5.12,2.65,8.06-9.39,7.77-12.99-.76-9.86-8.34-8.25-11.85,1.14.09,1.23-.38,2.18-1.23,2.84-6.07,0-.66,9.48,1.04,9.01Z"/>
  <path class="cls-5" d="M530.2,306.92l.09.09-.09-.09c-.95-.76-5.97-5.78-6.26-5.69,3.98-2.37-13.56-11.47-15.74-12.23-3.03-1.04-3.7,7.77-7.02,3.13-.85-1.23-3.7-9.77-5.69-4.84,4.27,3.03,1.61,5.59,7.49,6.92,4.93,1.42,3.41,7.49,7.77,9.01,5.69,1.9,8.34-2.47,13.37,2.75,1.42,1.42,9.39,3.51,6.07.95ZM530.01,306.82l-.09-.09s.09,0,.09.09Z"/>
  <path class="cls-5" d="M447.62,291.93c-1.14-3.51-.09-.28,0,0-1.61-5.31-10.9-18.96-17.26-18.3,4.84,6.64,7.49,20.2,15.27,23.61,5.12,2.28.85-9.01,1.99-5.31Z"/>
  <path class="cls-5" d="M184.6,287.48c.19-3.41-5.12-2.37-6.26-.95,4.36-5.69.85-11.38-5.03-12.8-6.07-1.52-8.72-8.82-14.7-10.52,1.8-.19-13.65-3.32-12.89-4.46-.38.57-2.47,6.07-2.65,5.97-3.51-2.84-.09-10.43-8.15-1.33-3.89,4.36-2.47,9.58-4.93,15.08-6.73,14.51-5.31,18.77,3.51,33.37,3.41,5.69,16.02,11.47,15.17,18.2-1.23,9.1.38,19.53.85,28.82.57,15.83,4.27,33.19,17.64,39.44-2.37-1.14-.66-23.61-.66-23.89,2.75.57,3.98-5.03,3.22-5.31,9.58,2.75,5.59-4.65,3.98-8.82,2.65,4.46,10.9-9.39,11.19-10.24.95-2.75,1.61-10.15,3.7-12.04,2.56-2.47,6.45-1.23,9.29-3.7,5.31-4.74,3.89-15.27,5.97-21.62,1.04-3.22,5.59-14.6,5.59-14.79,1.42-5.03-24.84-10.43-24.84-10.43ZM173.13,358.49c0,.09.09.19.09.28,0,0-.09-.19-.09-.28Z"/>
  <path class="cls-5" d="M124.97,266.52s-.09,0,0,0h0l-.09-.09s0,0,.09.09c-.09,0,0,0,0,0h0c-5.5-5.03-2.09-21.81-11.95-16.5,4.93-2.75,4.27-17.54-2.28-10.33-6.35,7.02-14.98,4.36-12.23-7.3.95-3.79,3.03-7.3,5.88-9.67,4.55-3.89,8.15,0,12.33-2.09,3.22-1.71,7.11-5.21,9.86.09.28.57,2.28,9.86,4.36,8.25,3.89-2.84-1.99-9.29.57-12.89,3.51-4.93,9.48-6.16,13.18-10.9s7.59-7.21,11.66-11.19c2.94-2.84,7.4-4.27,10.71-6.54-.76.76-1.14,1.71-.57,3.13-.95-2.56,11.09-3.32,11-6.54-.09-1.42-7.96,1.71-7.49-.47.85-1.23,1.99-2.37,3.13-3.32-.47.57-8.44-1.04-8.44-.95.38-3.79,20.29-5.4,23.7-7.77,3.6-2.47-3.89-3.89-4.46-7.11-1.33-7.59-.57-8.53-7.49-4.84,2.65-1.42-16.88-14.79-15.93-.38.47,7.11-1.42,4.65-5.69,7.87-1.8,1.42-1.42,7.21-4.65,5.88-2.84-1.04-2.56-5.12-.47-6.83-3.22-.57-15.08-2.75-12.99-8.72,2.94-8.34,14.51-4.84,17.64-13.27-1.99,5.21,16.78-6.64,12.71-6.16-3.32.38-6.64,5.31-8.72.95-1.99-4.27-1.61-6.92-5.5-1.8-3.51,4.55-4.55,5.12-9.86,3.89-2.75-.66-12.33-3.51-12.33,2.47,0-5.4-15.08-5.21-18.2-5.59-10.15-1.04-17.07,6.83-24.75-2.37-7.68-9.2-41.91,11.95-42.76,10.15.85,1.71,6.64.85,6.54.66,1.33,3.03-23.23,6.54-9.1,12.14-.38.76-.66,1.52-.95,2.28,3.6.57,9.39-7.87,12.61-5.5-.09.57-.09,1.23,0,1.8,1.8,1.14,13.37-1.9,17.26-.38,6.54,2.47,6.45,18.3,3.22,23.32-3.89,6.26-10.9,16.88-9.86,24.94,1.14,8.53,5.59,12.89,8.06,11.19,2.18-1.52,10.62,24.27,11.57,27.02,3.22,1.33,5.59,4.27,8.82,5.69,4.84,2.18,8.91.09,13.27,3.89,3.51,3.03,7.87,2.28,10.05,7.21,1.61,3.79,4.27,6.07,7.77,7.59l1.9.66-1.14-1.61ZM169.24,185.36l.28-.28c-.09.09-.19.19-.28.28ZM124.49,266.05h0ZM124.49,266.05h0ZM124.59,266.15l.09.09s-.09,0-.09-.09ZM123.83,265.48c.28.19.47.38.66.57-.28-.19-.47-.38-.66-.57ZM122.88,264.63h0ZM123.16,264.91q.09.09.19.19-.09-.19-.19-.19Z"/>
  <path class="cls-5" d="M251.92,127.72c2.28-.09,7.59-7.49,10.15-9.39-.47.38-6.35-3.51-7.49-3.6-4.36-.57-8.53,1.52-12.89,1.42-6.35-.19-12.42-1.61-18.87-.95-9.39,1.04-18.77-2.47-27.88-1.23-4.27.57-30.53,5.78-18.96,10.81,3.41,1.42,31.48-6.73,31.19-5.88-.76,1.33-1.71,2.28-2.94,2.84-2.09-.85-4.27-.95-6.35-.19,3.22.19,11.09,8.53,11.47,9.39,5.12,11-6.07,5.21-3.79,14.41,4.36,17.83,9.1,2.65,15.17-.09,3.51-1.61,7.4-4.74,10.81-6.07,4.27-1.61,10.33.95,14.03-2.18,3.32-3.32.09-8.91,6.35-9.29Z"/>
  <polygon class="cls-3" points="189.63 474.07 379.26 512 369.78 274.96 199.11 237.04 189.63 474.07"/>
  <polygon class="cls-2" points="379.26 512 568.89 493.04 559.41 256 369.78 274.96 379.26 512"/>
  <polygon class="cls-2" points="0 18.96 9.48 256 199.11 237.04 189.63 0 0 18.96"/>
  <polygon class="cls-4" points="189.63 0 199.11 237.04 369.78 274.96 379.26 37.93 189.63 0"/>
</svg>