<?xml version="1.0" encoding="UTF-8"?>
<svg id="Layer_1" data-name="Layer 1" xmlns="http://www.w3.org/2000/svg" xmlns:xlink="http://www.w3.org/1999/xlink" viewBox="0 0 512 512">
  <defs>
    <style>
      .cls-1 {
        fill: #feec9a;
      }

      .cls-2 {
        fill: url(#radial-gradient-2);
      }

      .cls-3 {
        fill: url(#linear-gradient-3);
      }

      .cls-4 {
        fill: url(#linear-gradient-2);
      }

      .cls-5 {
        fill: url(#radial-gradient);
      }

      .cls-6 {
        fill: url(#linear-gradient);
      }

      .cls-7 {
        fill: #618f16;
      }

      .cls-8 {
        fill: #77ab2d;
      }

      .cls-9 {
        fill: #87ba2e;
      }

      .cls-10 {
        fill: #649c2a;
      }

      .cls-11 {
        fill: #6b9e19;
      }

      .cls-12 {
        fill: #ffe561;
      }

      .cls-13 {
        fill: #abb500;
      }
    </style>
    <linearGradient id="linear-gradient" x1="256" y1="150.72" x2="256" y2="326.75" gradientTransform="translate(0 514) scale(1 -1)" gradientUnits="userSpaceOnUse">
      <stop offset="0" stop-color="#ffa929"/>
      <stop offset=".06" stop-color="#fb9c24"/>
      <stop offset=".25" stop-color="#ef7617"/>
      <stop offset=".45" stop-color="#e5590d"/>
      <stop offset=".64" stop-color="#de4406"/>
      <stop offset=".82" stop-color="#da3701"/>
      <stop offset="1" stop-color="#d93300"/>
    </linearGradient>
    <linearGradient id="linear-gradient-2" x1="62" y1="1422" x2="62" y2="1227.06" gradientTransform="translate(194 -910)" gradientUnits="userSpaceOnUse">
      <stop offset="0" stop-color="#ed9d28"/>
      <stop offset=".35" stop-color="#f5b438"/>
      <stop offset=".72" stop-color="#fbc443"/>
      <stop offset="1" stop-color="#fdca47"/>
    </linearGradient>
    <radialGradient id="radial-gradient" cx="-996.53" cy="-521.54" fx="-996.53" fy="-521.54" r="65.93" gradientTransform="translate(1169.9361 -388.8361) scale(.9653 -1.1288)" gradientUnits="userSpaceOnUse">
      <stop offset=".45" stop-color="#6ca82e"/>
      <stop offset=".52" stop-color="#73ae2f"/>
      <stop offset=".77" stop-color="#8ac231"/>
      <stop offset=".93" stop-color="#92c932"/>
    </radialGradient>
    <linearGradient id="linear-gradient-3" x1="-1372.18" y1="1184.48" x2="-1301.17" y2="1184.48" gradientTransform="translate(-1173.4863 -910) scale(-1 1)" gradientUnits="userSpaceOnUse">
      <stop offset="0" stop-color="#92c932"/>
      <stop offset=".24" stop-color="#8dc531"/>
      <stop offset=".52" stop-color="#7eb830"/>
      <stop offset=".76" stop-color="#6ca82e"/>
    </linearGradient>
    <radialGradient id="radial-gradient-2" cx="-1232.46" cy="-565.05" fx="-1232.46" fy="-565.05" r="84.94" gradientTransform="translate(-1077.0689 -390.6896) rotate(-180) scale(.9653 1.1288)" gradientUnits="userSpaceOnUse">
      <stop offset=".5" stop-color="#92c932"/>
      <stop offset=".67" stop-color="#8ac231"/>
      <stop offset=".93" stop-color="#73ae2f"/>
      <stop offset="1" stop-color="#6ca82e"/>
    </radialGradient>
  </defs>
  <circle class="cls-1" cx="410.67" cy="101.33" r="101.33"/>
  <circle class="cls-12" cx="410.67" cy="101.34" r="81.08"/>
  <path class="cls-6" d="M512,320.67c-6.95-7.75-19.33-10.28-20.68-15.56-1.36-5.27-2.03-36.98-6.34-39.88-4.32-2.94-34.92,1.31-38.3,0-3.41-1.35-11.12-24.59-14.05-26.45-2.94-1.85-9.5-7.06-10.19,3.17-.21,3.05-20.18,6.77-27.78-31.97.53-8.45-8.25-12.77-10.96-21.61,0,0-9.14-2.32-11.52-.22-2.04,1.83.38,79.99-3.72,91.36-15.51-.24-25.78,8.29-31.21,10.39-5.44,2.12-27.97-22.05-40.01-1.19-4.75,1.07-10.39,4.66-29.32,9.8-9.87-3.7-24.83-4.16-27.14,1.78-4.78-.93-13.53.67-21.64,4.77-.96.49-1.7,1.19-2.36,1.96-9.7-18.85-28.91-38.22-37.21-42.2-10.11-4.83-45.29-3.17-62.57,16.09-9.4,10.48-66.31,24.42-83.58,39.3-16.76,14.44-33.41,16.9-33.41,16.9,0,0,154.32,68.68,512-16.42Z"/>
  <path class="cls-4" d="M512,512H0v-174.91c180.46,30.11,341.33-35.72,512-16.42v191.33Z"/>
  <path class="cls-5" d="M195.61,227.97c27.98,0,39.05,2.07,34.47-44.57-3.58-36.49,37.62-39.71,40.82-3.17,6.9,78.53-18.71,101.51-76.83,93.24-11.01-1.56-9.12-45.5,1.53-45.5Z"/>
  <path class="cls-11" d="M263.19,168.28c19.72-.11,18.05-5.07,2.46,7.18-1.25.98-4.04-7.15-2.46-7.18Z"/>
  <path class="cls-11" d="M267.47,207.1c18.69,6.43,18.71,1.18,0,7.6-1.49.51-1.49-8.13,0-7.6Z"/>
  <path class="cls-11" d="M259.55,248.99c11.73,16,14.71,11.69-4.28,6.25-1.53-.44,3.35-7.53,4.28-6.25Z"/>
  <path class="cls-11" d="M227.08,269.61c3.6,19.58,8.14,17.02-6.55,3.72-1.18-1.07,6.28-5.28,6.55-3.72Z"/>
  <path class="cls-7" d="M235.64,186.65c-18.68,6.43-18.68,1.18,0,7.61,1.5.5,1.5-8.12,0-7.61Z"/>
  <path class="cls-7" d="M228.98,227c-17.71-8.78-14.05-12.48-5.32,5.38.69,1.43,6.74-4.66,5.32-5.38Z"/>
  <path class="cls-8" d="M243.38,191.19c-1.95-23.37,4.12-31.82,4.12-31.82,0,0-9.83,3.87-8.25,30.87.94,16.03,6.02,54.37-41.52,48.21,48.18,13.06,47.06-30.19,45.65-47.26Z"/>
  <path class="cls-9" d="M259.23,204.48c2.53-36.66-5.7-44.08-5.7-44.08,0,0,5.38,7.42,1.57,44.79-1.6,15.97-4.45,57.99-56.29,51.11,53.25,14.04,59.24-34.74,60.42-51.81Z"/>
  <path class="cls-3" d="M127.68,424.77V150.71c0-53.44,71.01-53.44,71.01,0v274.07c0,18.07-71.01,18.07-71.01,0Z"/>
  <path class="cls-9" d="M182.48,147.06c0-14.28-4.73-24.88-11.72-31.83,9.6,6.25,16.61,17.74,16.61,34.55v285.24l-4.88,1.35s0-289.31,0-289.31Z"/>
  <path class="cls-8" d="M161.5,147.06c0-14.28,1.69-33.7,1.69-33.7,0,0,3.21,19.62,3.21,36.42v288.55h-4.89V147.06h0Z"/>
  <path class="cls-10" d="M143.89,147.06c0-14.28,4.74-24.88,11.75-31.83-9.63,6.25-16.63,17.74-16.63,34.55v285.24l4.88,1.35s0-289.31,0-289.31Z"/>
  <path class="cls-11" d="M195.79,159.6c13.17,4.61,13.17.84,0,5.44-1.06.38-1.06-5.81,0-5.44Z"/>
  <path class="cls-11" d="M195.79,187.17c13.17,4.59,13.17.86,0,5.45-1.06.35-1.06-5.83,0-5.45Z"/>
  <path class="cls-11" d="M181.21,137.5c13.84-1.08,12.4-4.53,2.09,5.02-.84.77-3.21-4.92-2.09-5.02Z"/>
  <path class="cls-11" d="M177.76,115.01c11.34-8.28,8.36-10.5,4.32,3.16-.32,1.11-5.2-2.5-4.32-3.16Z"/>
  <path class="cls-11" d="M180.7,274.41c13.16,4.59,13.16.83,0,5.44-1.05.37-1.05-5.82,0-5.44Z"/>
  <path class="cls-11" d="M195.79,307.04c13.17,4.62,13.17.85,0,5.45-1.06.37-1.06-5.81,0-5.45Z"/>
  <path class="cls-11" d="M195.79,346.83c13.17,4.6,13.17.85,0,5.45-1.06.36-1.06-5.83,0-5.45Z"/>
  <path class="cls-11" d="M173.42,332.31c13.13,4.62,13.13.84,0,5.44-1.07.37-1.07-5.82,0-5.44Z"/>
  <path class="cls-7" d="M130.77,174.16c-13.13,4.61-13.13.83,0,5.45,1.05.37,1.05-5.82,0-5.45Z"/>
  <path class="cls-7" d="M130.77,209.54c-13.13,4.59-13.13.83,0,5.44,1.05.37,1.05-5.82,0-5.44Z"/>
  <path class="cls-7" d="M148.97,258.68c-13.14,4.62-13.14.86,0,5.46,1.06.37,1.06-5.82,0-5.46Z"/>
  <path class="cls-7" d="M150.1,191.51c-13.16,4.6-13.16.85,0,5.44,1.03.38,1.03-5.8,0-5.44Z"/>
  <path class="cls-7" d="M142.33,153.86c-13.15,4.61-13.15.84,0,5.44,1.06.38,1.06-5.8,0-5.44Z"/>
  <path class="cls-7" d="M145.78,116.95c-12.47-6.29-9.89-8.97-3.75,3.86.49,1.02,4.74-3.35,3.75-3.86Z"/>
  <path class="cls-7" d="M130.77,244.91c-13.13,4.6-13.13.84,0,5.44,1.05.38,1.05-5.82,0-5.44Z"/>
  <path class="cls-7" d="M144.62,372.67c-13.15,4.63-13.15.85,0,5.46,1.04.36,1.04-5.83,0-5.46Z"/>
  <path class="cls-7" d="M151.86,339.21c-13.16,4.6-13.16.84,0,5.45,1.05.36,1.05-5.81,0-5.45Z"/>
  <path class="cls-2" d="M128.57,283.32c-36.05,0-50.31,2.66-44.44-57.42,4.63-47-48.47-51.15-52.59-4.1-8.86,101.19,24.12,130.81,99,120.15,14.17-2.01,11.78-58.62-1.96-58.62Z"/>
  <path class="cls-11" d="M78.68,235.81c18.68,6.42,18.68,1.18,0,7.62-1.51.49-1.51-8.12,0-7.62Z"/>
  <path class="cls-11" d="M85.47,275.49c17.71-8.77,14.05-12.49,5.32,5.36-.7,1.43-6.73-4.64-5.32-5.36Z"/>
  <path class="cls-7" d="M38.32,216.64c-18.68,6.42-18.68,1.18,0,7.59,1.5.5,1.5-8.12,0-7.59Z"/>
  <path class="cls-7" d="M40.49,269.77c-18.67,6.43-18.67,1.19,0,7.6,1.52.5,1.52-8.11,0-7.6Z"/>
  <path class="cls-7" d="M58.5,315.29c-18.67,6.43-18.69,1.18,0,7.61,1.51.5,1.51-8.11,0-7.61Z"/>
  <path class="cls-9" d="M66.93,233.92c2.57-30.98-5.49-42.18-5.49-42.18,0,0,13.06,5.15,10.94,40.93-1.25,21.26-8,72.13,55.1,63.98-63.91,17.26-62.43-40.11-60.55-62.74Z"/>
  <path class="cls-8" d="M45.89,251.55c-3.35-48.61,7.57-58.49,7.57-58.49,0,0-7.14,9.86-2.08,59.44,2.16,21.16,5.93,76.95,74.71,67.78-70.66,18.63-78.63-46.07-80.2-68.74Z"/>
  <path class="cls-13" d="M239.68,475.5c2.6,4.33,50.64,4.97,52,0,3.9-14.21-9.69-23.95-12.01-19-7.15,15.22-11.71-14.13-16.14-4.02-7.93,18.03-13.77-3.1-16.53,7.51-4.22,16.21-20.63-6.78-7.32,15.51Z"/>
  <path class="cls-13" d="M409.9,392.06c.8,1.33,15.62,1.54,16.05,0,1.2-4.39-2.99-7.38-3.72-5.85-2.2,4.68-3.62-4.37-4.97-1.24-2.45,5.56-4.27-.96-5.1,2.3-1.31,5.03-6.37-2.07-2.26,4.79Z"/>
  <path class="cls-13" d="M241.78,385.72c.8,1.33,15.62,1.54,16.05,0,1.2-4.39-2.99-7.38-3.72-5.85-2.2,4.68-3.62-4.37-4.97-1.24-2.45,5.56-4.27-.96-5.1,2.3-1.31,5.03-6.37-2.08-2.26,4.79Z"/>
  <path class="cls-13" d="M93.85,385.72c.8,1.33,15.62,1.54,16.05,0,1.2-4.39-2.99-7.38-3.72-5.85-2.2,4.68-3.62-4.37-4.97-1.24-2.45,5.56-4.27-.96-5.1,2.3-1.31,5.03-6.37-2.08-2.26,4.79Z"/>
  <path class="cls-13" d="M342.92,357.97c.8,1.33,15.62,1.54,16.05,0,1.2-4.39-2.99-7.38-3.72-5.85-2.2,4.68-3.62-4.37-4.97-1.24-2.45,5.56-4.27-.96-5.1,2.3-1.31,5.03-6.38-2.07-2.26,4.79Z"/>
  <path class="cls-13" d="M382.1,431.33c-1.45,2.45-28.27,2.78-29.03,0-2.18-7.94,5.4-13.36,6.7-10.58,4,8.48,6.55-7.9,9.02-2.25,4.42,10.07,7.69-1.73,9.23,4.2,2.35,9.05,11.52-3.8,4.08,8.64Z"/>
  <path class="cls-13" d="M68.24,427.94c-1.45,2.41-28.27,2.76-29.03,0-2.18-7.95,5.4-13.38,6.72-10.62,3.99,8.5,6.54-7.88,9.01-2.24,4.42,10.07,7.69-1.75,9.22,4.18,2.36,9.07,11.53-3.78,4.08,8.67Z"/>
  <path class="cls-13" d="M477.18,346.87c-.95,1.6-18.62,1.83-19.11,0-1.45-5.23,3.55-8.81,4.42-6.98,2.63,5.6,4.3-5.2,5.93-1.48,2.91,6.63,5.07-1.15,6.08,2.76,1.55,5.97,7.59-2.5,2.69,5.7Z"/>
</svg>