<svg xmlns="http://www.w3.org/2000/svg" viewBox="0 0 512 512">
  <rect width="512" height="512" fill="#0a0a0a"/>
  <g transform="translate(256 256) scale(0.35 -0.35) translate(-480 -448)">
    <path fill="#33ff99" d="M768 576Q732 576 699 589Q667 601 641 624L381 480Q383 472 383 464Q384 456 384 448Q384 440 383 432Q383 424 381 416L641 272Q667 295 699 307Q732 320 768 320Q807 320 843 305Q877 290 904 264Q930 237 945 203Q960 167 960 128Q960 89 945 53Q930 19 904 -8Q877 -34 843 -49Q807 -64 768 -64Q729 -64 693 -49Q659 -34 632 -8Q606 19 591 53Q576 89 576 128Q576 136 577 144Q577 152 579 160L319 304Q293 281 261 269Q228 256 192 256Q153 256 117 271Q83 286 56 312Q30 339 15 373Q0 409 0 448Q0 487 15 523Q30 557 56 584Q83 610 117 625Q153 640 192 640Q228 640 261 627Q293 615 319 592L579 736Q577 744 577 752Q576 760 576 768Q576 807 591 843Q606 877 632 904Q659 930 693 945Q729 960 768 960Q807 960 843 945Q877 930 904 904Q930 877 945 843Q960 807 960 768Q960 729 945 693Q930 659 904 632Q877 606 843 591Q807 576 768 576Z"/>
  </g>
</svg>
