<?xml version="1.0" encoding="UTF-8"?>
<svg id="Layer_1" data-name="Layer 1" xmlns="http://www.w3.org/2000/svg" xmlns:xlink="http://www.w3.org/1999/xlink" viewBox="0 0 512.02 512">
  <defs>
    <style>
      .cls-1 {
        fill: #c1873c;
      }

      .cls-2 {
        fill: url(#radial-gradient-2);
      }

      .cls-3 {
        fill: url(#linear-gradient-8);
      }

      .cls-4 {
        fill: url(#linear-gradient-7);
      }

      .cls-5 {
        fill: url(#linear-gradient-5);
      }

      .cls-6 {
        fill: url(#linear-gradient-9);
      }

      .cls-7 {
        fill: url(#linear-gradient-4);
      }

      .cls-8 {
        fill: url(#linear-gradient-3);
      }

      .cls-9 {
        fill: url(#linear-gradient-2);
      }

      .cls-10 {
        fill: #006dae;
      }

      .cls-11 {
        fill: #5d696e;
      }

      .cls-12 {
        fill: url(#radial-gradient);
      }

      .cls-13 {
        fill: url(#linear-gradient);
      }

      .cls-14 {
        fill: url(#linear-gradient-6);
        opacity: .2;
      }

      .cls-14, .cls-15 {
        isolation: isolate;
      }

      .cls-16 {
        fill: url(#linear-gradient-10);
      }

      .cls-17 {
        fill: url(#linear-gradient-11);
      }

      .cls-18 {
        fill: url(#linear-gradient-12);
      }

      .cls-19 {
        fill: url(#linear-gradient-13);
      }

      .cls-20 {
        fill: url(#linear-gradient-19);
      }

      .cls-21 {
        fill: url(#linear-gradient-14);
      }

      .cls-22 {
        fill: url(#linear-gradient-21);
      }

      .cls-23 {
        fill: url(#linear-gradient-20);
      }

      .cls-24 {
        fill: url(#linear-gradient-22);
      }

      .cls-25 {
        fill: url(#linear-gradient-23);
      }

      .cls-26 {
        fill: url(#linear-gradient-25);
      }

      .cls-27 {
        fill: url(#linear-gradient-15);
      }

      .cls-28 {
        fill: url(#linear-gradient-16);
      }

      .cls-29 {
        fill: url(#linear-gradient-17);
      }

      .cls-30 {
        fill: url(#linear-gradient-18);
      }

      .cls-31 {
        fill: url(#linear-gradient-27);
      }

      .cls-32 {
        fill: url(#linear-gradient-24);
      }

      .cls-33 {
        fill: url(#linear-gradient-26);
      }

      .cls-34 {
        fill: #fc6;
      }

      .cls-35 {
        fill: #45332c;
      }

      .cls-36 {
        fill: #e6b045;
      }

      .cls-15 {
        fill: #545f63;
        opacity: .25;
      }
    </style>
    <linearGradient id="linear-gradient" x1="-48.71" y1="284.93" x2="-48.71" y2="366.77" gradientTransform="translate(165.46 531.96) rotate(-7.63) scale(1 -1)" gradientUnits="userSpaceOnUse">
      <stop offset="0" stop-color="#006dae"/>
      <stop offset=".44" stop-color="#006fb0"/>
      <stop offset=".68" stop-color="#0074b8"/>
      <stop offset=".87" stop-color="#007cc6"/>
      <stop offset="1" stop-color="#0085d4"/>
    </linearGradient>
    <linearGradient id="linear-gradient-2" x1="478.4" y1="338.59" x2="495.47" y2="338.59" gradientTransform="translate(0 514) scale(1 -1)" gradientUnits="userSpaceOnUse">
      <stop offset="0" stop-color="#767f82"/>
      <stop offset=".18" stop-color="#7d8689"/>
      <stop offset=".44" stop-color="#90999d"/>
      <stop offset=".76" stop-color="#b0b9bd"/>
      <stop offset="1" stop-color="#cdd6db"/>
    </linearGradient>
    <radialGradient id="radial-gradient" cx="419.22" cy="416.05" fx="419.22" fy="416.05" r="77.03" gradientTransform="translate(0 476.57) scale(1 -.95)" gradientUnits="userSpaceOnUse">
      <stop offset=".76" stop-color="#767f82"/>
      <stop offset=".8" stop-color="#7e878a"/>
      <stop offset=".87" stop-color="#939ca0"/>
      <stop offset=".95" stop-color="#b6bfc3"/>
      <stop offset="1" stop-color="#cdd6db"/>
    </radialGradient>
    <linearGradient id="linear-gradient-3" x1="478.4" y1="433.09" x2="495.47" y2="433.09" gradientTransform="translate(0 514) scale(1 -1)" gradientUnits="userSpaceOnUse">
      <stop offset="0" stop-color="#767f82"/>
      <stop offset=".33" stop-color="#788184"/>
      <stop offset=".52" stop-color="#80898d"/>
      <stop offset=".68" stop-color="#8e979a"/>
      <stop offset=".81" stop-color="#a1aaae"/>
      <stop offset=".93" stop-color="#bac3c7"/>
      <stop offset="1" stop-color="#cdd6db"/>
    </linearGradient>
    <linearGradient id="linear-gradient-4" x1="829.75" y1="767.99" x2="859.15" y2="767.99" gradientTransform="translate(-771.69 -24.04) rotate(45.06) scale(1 -1)" gradientUnits="userSpaceOnUse">
      <stop offset="0" stop-color="#cdd6db"/>
      <stop offset="0" stop-color="#ccd5da"/>
      <stop offset=".68" stop-color="#8e979b"/>
      <stop offset="1" stop-color="#767f82"/>
    </linearGradient>
    <linearGradient id="linear-gradient-5" x1="797.15" y1="741.8" x2="888.69" y2="741.8" gradientTransform="translate(-771.69 -24.04) rotate(45.06) scale(1 -1)" gradientUnits="userSpaceOnUse">
      <stop offset="0" stop-color="#cdd6db"/>
      <stop offset="0" stop-color="#ccd5da"/>
      <stop offset=".68" stop-color="#8e979b"/>
      <stop offset="1" stop-color="#767f82"/>
    </linearGradient>
    <linearGradient id="linear-gradient-6" x1="797.09" y1="731.66" x2="888.69" y2="731.66" gradientTransform="translate(-771.69 -24.04) rotate(45.06) scale(1 -1)" gradientUnits="userSpaceOnUse">
      <stop offset="0" stop-color="#9ea5a8"/>
      <stop offset=".14" stop-color="#899093"/>
      <stop offset=".34" stop-color="#72797c"/>
      <stop offset=".53" stop-color="#646b6e"/>
      <stop offset=".69" stop-color="#5f6669"/>
    </linearGradient>
    <linearGradient id="linear-gradient-7" x1="866.85" y1="700.6" x2="818.99" y2="748.46" gradientTransform="translate(-771.69 -24.04) rotate(45.06) scale(1 -1)" gradientUnits="userSpaceOnUse">
      <stop offset="0" stop-color="#cdd6db"/>
      <stop offset=".08" stop-color="#c1cacf"/>
      <stop offset=".34" stop-color="#a0a9ad"/>
      <stop offset=".58" stop-color="#899295"/>
      <stop offset=".81" stop-color="#7b8487"/>
      <stop offset="1" stop-color="#767f82"/>
    </linearGradient>
    <radialGradient id="radial-gradient-2" cx="242.85" cy="149.91" fx="242.85" fy="149.91" r="319.29" gradientTransform="translate(0 321.79) scale(1 -.75)" gradientUnits="userSpaceOnUse">
      <stop offset="0" stop-color="#fff"/>
      <stop offset=".28" stop-color="#fafbfc"/>
      <stop offset=".58" stop-color="#edf1f2"/>
      <stop offset=".9" stop-color="#d7dfe3"/>
      <stop offset="1" stop-color="#cfd8dd"/>
    </radialGradient>
    <linearGradient id="linear-gradient-8" x1="-1551.11" y1="-109.56" x2="-1533.39" y2="13.94" gradientTransform="translate(-1117.6935 422.8017) rotate(-180) scale(1 .814)" gradientUnits="userSpaceOnUse">
      <stop offset="0" stop-color="#cdd6db"/>
      <stop offset=".02" stop-color="#c7d0d4"/>
      <stop offset=".15" stop-color="#a4adb1"/>
      <stop offset=".27" stop-color="#8b9497"/>
      <stop offset=".37" stop-color="#7b8487"/>
      <stop offset=".46" stop-color="#767f82"/>
      <stop offset=".59" stop-color="#879094"/>
      <stop offset=".86" stop-color="#b4bdc1"/>
      <stop offset="1" stop-color="#cdd6db"/>
    </linearGradient>
    <linearGradient id="linear-gradient-9" x1="78.35" y1="-109.56" x2="96.07" y2="13.94" gradientTransform="translate(0 422.8) scale(1 -.81)" gradientUnits="userSpaceOnUse">
      <stop offset="0" stop-color="#cdd6db"/>
      <stop offset=".02" stop-color="#c7d0d4"/>
      <stop offset=".15" stop-color="#a4adb1"/>
      <stop offset=".27" stop-color="#8b9497"/>
      <stop offset=".37" stop-color="#7b8487"/>
      <stop offset=".46" stop-color="#767f82"/>
      <stop offset=".59" stop-color="#879094"/>
      <stop offset=".86" stop-color="#b4bdc1"/>
      <stop offset="1" stop-color="#cdd6db"/>
    </linearGradient>
    <linearGradient id="linear-gradient-10" x1="-48.27" y1="219.27" x2="-48.27" y2="244.87" gradientTransform="translate(304.28 514) scale(1 -1)" gradientUnits="userSpaceOnUse">
      <stop offset="0" stop-color="#cfd8dd"/>
      <stop offset=".29" stop-color="#d8dfe4"/>
      <stop offset=".78" stop-color="#f1f4f5"/>
      <stop offset="1" stop-color="#fff"/>
    </linearGradient>
    <linearGradient id="linear-gradient-11" x1="-42.21" y1="204.93" x2="-42.21" y2="300.71" gradientTransform="translate(304.28 514) scale(1 -1)" gradientUnits="userSpaceOnUse">
      <stop offset="0" stop-color="#c2f8ff"/>
      <stop offset=".13" stop-color="#c8f9ff"/>
      <stop offset="1" stop-color="#ebfcff"/>
    </linearGradient>
    <linearGradient id="linear-gradient-12" x1="-1.81" y1="343.37" x2="-1.81" y2="361.85" gradientTransform="translate(304.28 545.45) scale(1 -1.04)" gradientUnits="userSpaceOnUse">
      <stop offset="0" stop-color="#c2f8ff"/>
      <stop offset=".13" stop-color="#c8f9ff"/>
      <stop offset="1" stop-color="#ebfcff"/>
    </linearGradient>
    <linearGradient id="linear-gradient-13" x1="78.5" y1="227.99" x2="78.5" y2="246.47" gradientTransform="translate(304.28 545.45) scale(1 -1.04)" gradientUnits="userSpaceOnUse">
      <stop offset="0" stop-color="#c2f8ff"/>
      <stop offset=".13" stop-color="#c8f9ff"/>
      <stop offset="1" stop-color="#ebfcff"/>
    </linearGradient>
    <linearGradient id="linear-gradient-14" x1="-97.81" y1="195.46" x2="-97.81" y2="213.94" gradientTransform="translate(304.28 545.45) scale(1 -1.04)" gradientUnits="userSpaceOnUse">
      <stop offset="0" stop-color="#c2f8ff"/>
      <stop offset=".13" stop-color="#c8f9ff"/>
      <stop offset="1" stop-color="#ebfcff"/>
    </linearGradient>
    <linearGradient id="linear-gradient-15" x1="113.06" y1="367.34" x2="113.06" y2="385.81" gradientTransform="translate(304.28 545.45) scale(1 -1.04)" gradientUnits="userSpaceOnUse">
      <stop offset="0" stop-color="#c2f8ff"/>
      <stop offset=".13" stop-color="#c8f9ff"/>
      <stop offset="1" stop-color="#ebfcff"/>
    </linearGradient>
    <linearGradient id="linear-gradient-16" x1="-68.36" y1="305.03" x2="-68.36" y2="323.5" gradientTransform="translate(304.28 545.45) scale(1 -1.04)" gradientUnits="userSpaceOnUse">
      <stop offset="0" stop-color="#c2f8ff"/>
      <stop offset=".13" stop-color="#c8f9ff"/>
      <stop offset="1" stop-color="#ebfcff"/>
    </linearGradient>
    <linearGradient id="linear-gradient-17" x1="-156.09" y1="351.43" x2="-156.09" y2="369.89" gradientTransform="translate(304.28 545.45) scale(1 -1.04)" gradientUnits="userSpaceOnUse">
      <stop offset="0" stop-color="#c2f8ff"/>
      <stop offset=".13" stop-color="#c8f9ff"/>
      <stop offset="1" stop-color="#ebfcff"/>
    </linearGradient>
    <linearGradient id="linear-gradient-18" x1="46.47" y1="318.13" x2="46.47" y2="329.37" gradientTransform="translate(304.28 545.45) scale(1 -1.04)" gradientUnits="userSpaceOnUse">
      <stop offset="0" stop-color="#c2f8ff"/>
      <stop offset=".13" stop-color="#c8f9ff"/>
      <stop offset="1" stop-color="#ebfcff"/>
    </linearGradient>
    <linearGradient id="linear-gradient-19" x1="-56.19" y1="349.42" x2="-56.19" y2="360.66" gradientTransform="translate(304.28 545.45) scale(1 -1.04)" gradientUnits="userSpaceOnUse">
      <stop offset="0" stop-color="#c2f8ff"/>
      <stop offset=".13" stop-color="#c8f9ff"/>
      <stop offset="1" stop-color="#ebfcff"/>
    </linearGradient>
    <linearGradient id="linear-gradient-20" x1="-193.07" y1="223.35" x2="-193.07" y2="234.59" gradientTransform="translate(304.28 545.45) scale(1 -1.04)" gradientUnits="userSpaceOnUse">
      <stop offset="0" stop-color="#c2f8ff"/>
      <stop offset=".13" stop-color="#c8f9ff"/>
      <stop offset="1" stop-color="#ebfcff"/>
    </linearGradient>
    <linearGradient id="linear-gradient-21" x1="-262.79" y1="236.34" x2="-262.79" y2="247.58" gradientTransform="translate(304.28 545.45) scale(1 -1.04)" gradientUnits="userSpaceOnUse">
      <stop offset="0" stop-color="#c2f8ff"/>
      <stop offset=".13" stop-color="#c8f9ff"/>
      <stop offset="1" stop-color="#ebfcff"/>
    </linearGradient>
    <linearGradient id="linear-gradient-22" x1="-8.07" y1="223.35" x2="-8.07" y2="234.59" gradientTransform="translate(304.28 545.45) scale(1 -1.04)" gradientUnits="userSpaceOnUse">
      <stop offset="0" stop-color="#c2f8ff"/>
      <stop offset=".13" stop-color="#c8f9ff"/>
      <stop offset="1" stop-color="#ebfcff"/>
    </linearGradient>
    <linearGradient id="linear-gradient-23" x1="172.17" y1="223.35" x2="172.17" y2="234.59" gradientTransform="translate(304.28 545.45) scale(1 -1.04)" gradientUnits="userSpaceOnUse">
      <stop offset="0" stop-color="#c2f8ff"/>
      <stop offset=".13" stop-color="#c8f9ff"/>
      <stop offset="1" stop-color="#ebfcff"/>
    </linearGradient>
    <linearGradient id="linear-gradient-24" x1="137.17" y1="334.56" x2="137.17" y2="345.81" gradientTransform="translate(304.28 545.45) scale(1 -1.04)" gradientUnits="userSpaceOnUse">
      <stop offset="0" stop-color="#c2f8ff"/>
      <stop offset=".13" stop-color="#c8f9ff"/>
      <stop offset="1" stop-color="#ebfcff"/>
    </linearGradient>
    <linearGradient id="linear-gradient-25" x1="74.46" y1="352.62" x2="74.46" y2="363.87" gradientTransform="translate(304.28 545.45) scale(1 -1.04)" gradientUnits="userSpaceOnUse">
      <stop offset="0" stop-color="#c2f8ff"/>
      <stop offset=".13" stop-color="#c8f9ff"/>
      <stop offset="1" stop-color="#ebfcff"/>
    </linearGradient>
    <linearGradient id="linear-gradient-26" x1="-116.71" y1="340.01" x2="-116.71" y2="351.26" gradientTransform="translate(304.28 545.45) scale(1 -1.04)" gradientUnits="userSpaceOnUse">
      <stop offset="0" stop-color="#c2f8ff"/>
      <stop offset=".13" stop-color="#c8f9ff"/>
      <stop offset="1" stop-color="#ebfcff"/>
    </linearGradient>
    <linearGradient id="linear-gradient-27" x1="-285.15" y1="290.84" x2="-285.15" y2="302.09" gradientTransform="translate(304.28 545.45) scale(1 -1.04)" gradientUnits="userSpaceOnUse">
      <stop offset="0" stop-color="#c2f8ff"/>
      <stop offset=".13" stop-color="#c8f9ff"/>
      <stop offset="1" stop-color="#ebfcff"/>
    </linearGradient>
  </defs>
  <path class="cls-10" d="M120.92,189.85c-22.78-1.62-65.2,11.35-81.75,20.82-7.08-14.51,1.62-27.14,11.95-32.09,12.12-22.7,63.92-19.2,69.81,11.26Z"/>
  <path class="cls-34" d="M67.33,204.69c30.98-35.84,54.79-22.7,66.22-6.83,6.06,8.45,14.76,9.98,24.83,9.05,6.14-.6,7.59,5.72,1.88,12.37,2.47,3.33,4.86,2.39,4.86,2.39,0,0-.85,8.02,1.19,7.94,1.37-1.54,6.66-.85,5.03,4.18-1.37,4.35,12.29,4.27,2.65,17.75-40.96,57.35-124.42,28.59-106.67-46.85Z"/>
  <path class="cls-1" d="M131.93,200.26c-9.47-10.67-14.42,7.51-17.49,12.97,4.35-2.99,9.05-15.19,17.49-12.97Z"/>
  <path class="cls-36" d="M152.24,236.61c6.83-.34,14.08-6.91,14.08-6.91.6-1.37,2.05-5.03-1.19-7.94-.17,3.58-5.97,11.35-12.89,14.85Z"/>
  <path class="cls-35" d="M138.76,209.99c4.35,10.24-9.56,9.98-15.7,9.73,7.42-3.07,13.91-2.99,15.7-9.73Z"/>
  <path class="cls-13" d="M106.5,252.4l-62.13,7.94c-24.07-37.63-10.07-71.6,15.53-77.14,5.12-10.67,21.25-11.18,27.82-5.72,37.97-14.93,29.36,55.73,18.77,74.93Z"/>
  <path class="cls-11" d="M101.55,446.28c-.85,8.11-2.3,43.18-2.3,43.18,0,0,32.51.94,35.5-5.38,4.61-9.81,9.56-24.49,10.33-37.8h-43.52Z"/>
  <path class="cls-11" d="M410.21,446.28c.85,8.11,2.3,43.18,2.3,43.18,0,0-32.51.94-35.5-5.38-4.61-9.81-9.56-24.49-10.33-37.8h43.52Z"/>
  <path class="cls-15" d="M105.31,449.01c.17-17.58-15.1-32.94-14-33.28,1.11-.43,20.4,14.42,19.54,34.22,0,1.11-5.55.17-5.55-.94Z"/>
  <path class="cls-15" d="M95.15,447.56c-3.75-21.42-23.04-31.15-22.19-31.83.85-.68,21.85,8.53,27.05,32.51.26,1.02-4.61.43-4.86-.68Z"/>
  <path class="cls-15" d="M86.96,446.37c-11.78-20.74-22.61-20.22-21.85-20.99s14.76,0,26.03,21.76c.51.94-3.58.17-4.18-.77Z"/>
  <path class="cls-15" d="M406.46,449.01c-.17-17.58,15.1-32.94,14-33.28-1.11-.43-20.4,14.42-19.54,34.22,0,1.11,5.55.17,5.55-.94Z"/>
  <path class="cls-15" d="M416.53,447.56c3.75-21.42,23.04-31.15,22.19-31.83-.85-.68-21.85,8.53-27.05,32.51-.26,1.02,4.69.43,4.86-.68Z"/>
  <path class="cls-15" d="M424.72,446.37c11.78-20.74,22.61-20.22,21.85-20.99s-14.76,0-26.03,21.76c-.43.94,3.67.17,4.18-.77Z"/>
  <path class="cls-9" d="M495.47,272.03h-17.07V80.61c0-2.65,17.07-2.22,17.07,0v191.41Z"/>
  <path class="cls-12" d="M478.4,80.61c0-26.97-12.63-47.96-34.65-57.77-26.8-11.86-48.47-5.72-75.52,18.77l-11.52-12.54C388.88-.03,417.55-7.28,450.58,7.31c28.08,12.46,44.8,39.85,44.8,73.3h-16.98Z"/>
  <path class="cls-8" d="M478.4,79.59v1.02c0,2.13,17.07,2.13,17.07,0v-1.02c-3.07,1.19-14,1.19-17.07,0Z"/>
  <path class="cls-7" d="M372.67,47.67l-20.74-20.82,9.47-9.47c3.67-3.67,24.41,17.15,20.74,20.82l-9.47,9.47Z"/>
  <path class="cls-5" d="M368.91,93.16c-5.46,5.46-70.15-59.31-64.69-64.77,11.26-11.26,43.1-14,60.93,3.93,17.92,17.84,15.02,49.58,3.75,60.85Z"/>
  <path class="cls-14" d="M368.91,93.16c2.3-2.3,4.27-5.46,5.72-9.22-.43-8.28-9.64-23.13-23.89-37.38-14.17-14.25-29.1-23.47-37.38-23.89-3.75,1.45-6.91,3.41-9.22,5.72-5.38,5.46,59.31,70.23,64.77,64.77Z"/>
  <path class="cls-4" d="M368.91,93.16c-5.46,5.46-24.41-4.61-42.33-22.44-17.84-17.92-27.91-36.87-22.36-42.33,5.46-5.46,24.41,4.61,42.33,22.44,17.84,17.84,27.91,36.78,22.36,42.33Z"/>
  <path class="cls-11" d="M328.97,68.58c-.51-.51-1.02-1.02-1.54-1.54l1.11-1.11c.51.51,1.02,1.02,1.54,1.54.43.43.85.85,1.37,1.28l-1.11,1.11c-.51-.34-.94-.77-1.37-1.28ZM324.62,64.06c-.94-1.02-1.88-2.05-2.73-3.07l1.19-1.02c.85,1.02,1.79,1.96,2.65,2.99l-1.11,1.11ZM333.24,72.76l1.02-1.11c1.02.94,2.05,1.79,2.99,2.65l-1.02,1.19c-.94-.94-1.96-1.79-2.99-2.73ZM319.33,57.92c-.85-1.11-1.71-2.13-2.47-3.24l1.19-.94c.77,1.02,1.62,2.13,2.47,3.16l-1.19,1.02ZM339.47,78.05l.94-1.19c1.11.85,2.13,1.71,3.16,2.47l-.94,1.19c-1.02-.77-2.13-1.62-3.16-2.47ZM314.38,51.43c-.77-1.19-1.54-2.3-2.22-3.41l1.28-.77c.68,1.11,1.37,2.22,2.13,3.33l-1.19.85ZM345.96,83l.85-1.28c1.19.77,2.3,1.54,3.33,2.22l-.77,1.28c-1.11-.68-2.22-1.45-3.41-2.22ZM310.2,44.35c-.68-1.37-1.28-2.65-1.71-3.75l1.45-.51c.43,1.11.94,2.3,1.62,3.58l-1.37.68ZM352.95,87.19l.68-1.37c1.28.68,2.47,1.19,3.58,1.62l-.51,1.45c-1.11-.43-2.39-1.02-3.75-1.71ZM307.47,36.5c-.17-1.96.17-3.41,1.19-4.44l1.11,1.11c-.6.68-.85,1.71-.77,3.16l-1.54.17ZM360.89,89.92l.17-1.54c1.45.17,2.47-.09,3.16-.77l1.19.94-.17.17c-.94.94-2.39,1.37-4.35,1.19ZM312.85,32.4l.17-1.54c1.19.09,2.56.43,4.1,1.02l-.51,1.37c-1.37-.51-2.65-.77-3.75-.85ZM364.99,84.37c-.09-1.11-.43-2.3-.94-3.75l1.45-.51c.6,1.54.94,2.9,1.02,4.1l-1.54.17ZM320.27,34.87l.68-1.37c1.11.6,2.39,1.28,3.58,2.05l-.77,1.28c-1.28-.77-2.39-1.37-3.5-1.96ZM362.34,77.03c-.6-1.11-1.19-2.3-1.96-3.5l1.28-.77c.77,1.19,1.45,2.39,2.05,3.58l-1.37.68ZM327.1,38.97l.85-1.28c1.11.77,2.22,1.54,3.33,2.39l-.94,1.19c-1.11-.77-2.22-1.54-3.24-2.3ZM358.24,70.12c-.77-1.02-1.54-2.13-2.3-3.24l1.19-.94c.85,1.11,1.62,2.22,2.39,3.33l-1.28.85ZM333.5,43.83l1.02-1.19c1.02.85,2.05,1.71,3.16,2.65l-1.02,1.19c-1.11-.94-2.13-1.88-3.16-2.65ZM353.47,63.72c-.85-1.02-1.71-2.05-2.56-3.07l1.19-1.02c.94,1.02,1.79,2.13,2.65,3.16l-1.28.94ZM339.64,49.04l1.02-1.11c1.02.94,1.96,1.88,2.99,2.82l-1.11,1.11c-.94-.94-1.96-1.88-2.9-2.82ZM348.17,57.66c-.85-.94-1.79-1.96-2.73-2.9l1.11-1.11c.94,1.02,1.88,1.96,2.82,2.99l-1.19,1.02Z"/>
  <path class="cls-11" d="M332.39,64.91l1.11-1.11c1.02,1.02,1.96,1.96,2.99,2.9l-1.02,1.11c-1.02-.85-2.05-1.88-3.07-2.9ZM329.49,61.93c-1.02-1.02-1.96-2.13-2.82-3.16l1.19-1.02c.85,1.02,1.79,2.05,2.82,3.07l-1.19,1.11ZM338.53,70.72l1.02-1.19c1.11.94,2.13,1.79,3.16,2.65l-.94,1.19c-1.02-.85-2.13-1.71-3.24-2.65ZM324.02,55.53c-.94-1.19-1.79-2.3-2.56-3.41l1.28-.85c.77,1.11,1.54,2.22,2.47,3.33l-1.19.94ZM345.19,75.92l.85-1.28c1.19.85,2.39,1.62,3.41,2.22l-.77,1.37c-1.02-.68-2.22-1.45-3.5-2.3ZM319.16,48.61c-.85-1.45-1.45-2.73-1.88-3.84l1.45-.51c.43,1.02,1.02,2.3,1.79,3.58l-1.37.77ZM352.61,80.1l.51-1.45c1.54.6,2.73.68,3.16.26l1.19.94-.09.09c-.94,1.02-2.56,1.02-4.78.17ZM317.28,39.99h0c.94-.94,2.56-1.02,4.78-.17l-.51,1.45c-1.54-.6-2.65-.68-3.07-.26l-1.19-1.02ZM356.03,75.67c-.43-1.02-1.02-2.22-1.79-3.58l1.37-.77c.85,1.45,1.45,2.73,1.88,3.84l-1.45.51ZM325.13,43.07l.77-1.37c1.11.68,2.3,1.45,3.58,2.3l-.85,1.28c-1.28-.85-2.39-1.62-3.5-2.22ZM351.93,68.67c-.77-1.02-1.62-2.13-2.47-3.33l1.19-.94c.94,1.19,1.79,2.3,2.56,3.33l-1.28.94ZM331.88,47.76l.94-1.19c1.02.85,2.13,1.71,3.24,2.73l-1.02,1.19c-1.02-1.02-2.05-1.88-3.16-2.73ZM346.81,62.18c-.85-1.02-1.79-2.05-2.82-3.07l1.11-1.02c1.02,1.02,1.96,2.13,2.82,3.16l-1.11.94ZM338.19,53.22l1.02-1.11c1.02.94,2.05,1.88,2.99,2.9l-1.11,1.11c-.94-1.02-1.88-1.96-2.9-2.9Z"/>
  <path class="cls-11" d="M345.7,68.33c-1.02,1.02-5.63-1.88-10.24-6.49s-7.51-9.22-6.49-10.24c1.02-1.02,5.63,1.88,10.24,6.49s7.51,9.22,6.49,10.24Z"/>
  <path class="cls-2" d="M9.56,291.14s17.41,12.63,17.41,68.1c0,105.48,81.07,105.31,81.07,105.31h295.61s81.07.17,81.07-105.31c0-55.47,17.41-68.1,17.41-68.1H9.56Z"/>
  <path class="cls-3" d="M432.23,481.19c22.1,2.13,30.12,20.65,19.37,21.5,0,0,.17,8.11-11.26,5.63-2.82,8.19-28.84,1.19-32.34-6.4-5.97-12.8-12.63-32.77-12.63-49.75-8.02-2.82-6.66-19.03,3.67-19.03,5.72-13.57,16.64-22.61,21.42-17.41,5.38-8.45,18.94-7.68,18.26,0,4.61-3.41,14,3.16,7.94,9.64,7,7.77-9.64,4.95-18.6,21.76-3.67,6.74,4.35,31.32,4.18,34.05Z"/>
  <path class="cls-6" d="M79.53,481.19c-22.1,2.13-30.12,20.65-19.37,21.5,0,0-.17,8.11,11.26,5.63,2.82,8.19,28.84,1.19,32.34-6.4,5.97-12.8,12.63-32.77,12.63-49.75,8.02-2.82,6.66-19.03-3.67-19.03-5.72-13.57-16.64-22.61-21.42-17.41-5.38-8.45-18.94-7.68-18.26,0-4.61-3.41-14,3.16-7.94,9.64-7,7.77,9.64,4.95,18.6,21.76,3.58,6.74-4.35,31.32-4.18,34.05Z"/>
  <path class="cls-15" d="M71.34,508.32c0-.17-4.01-16.64,15.96-19.54,1.19-.17,4.78,1.62,3.58,1.79-16.04,2.3-19.46,18.77-19.54,17.75Z"/>
  <path class="cls-15" d="M60.16,502.69c-.17-5.21,1.62-15.7,15.19-17.75,1.19-.17,4.78,2.22,3.58,2.39-13.23,2.05-18.77,16.38-18.77,15.36Z"/>
  <path class="cls-15" d="M440.34,508.32c0-.17,4.01-16.64-15.96-19.54-1.19-.17-4.78,1.62-3.58,1.79,16.13,2.3,19.54,18.77,19.54,17.75Z"/>
  <path class="cls-15" d="M451.6,502.69c.17-5.21-1.62-15.7-15.19-17.75-1.19-.17-4.78,2.22-3.58,2.39,13.14,2.05,18.69,16.38,18.77,15.36Z"/>
  <path class="cls-16" d="M499.22,294.73H12.8c-7.08,0-12.8-5.72-12.8-12.8h0c0-7.08,5.72-12.8,12.8-12.8h486.42c7.08,0,12.8,5.72,12.8,12.8h0c0,7.08-5.72,12.8-12.8,12.8Z"/>
  <path class="cls-17" d="M493.16,248.73c2.3-15.45-17.24-44.8-31.32-32.51-.43.43-22.19-4.27-27.73,5.12-8.28-11.35-25.86-8.53-33.11,5.38-1.45,2.82-16.81-7-23.98,1.28-8.02-11.78-27.73-13.91-37.04-2.39-1.02,1.28-8.02-6.4-11.95,3.16-5.29-2.47-11.61-3.5-17.75-1.79-8.96-10.33-37.8-.09-39.94,16.21-.6,4.27-14.42-6.14-18.43,6.4-6.83-3.67-15.53-4.86-23.47-.6-8.19-11.44-28.76-16.98-36.52-.94-1.79,3.75-18.43-6.14-29.53,3.41-6.14-2.39-13.31-2.65-19.97.77-7.68-12.2-23.55-18.43-40.62-2.13-3.75,3.58-15.87-14.08-28.08-.43-8.11-4.27-35.93,3.67-33.96,8.45-12.12,1.37-21.59,4.27-22.87,15.19-1.37,12.03,25.86-5.03,32.51,6.66,6.91,12.12,18.01-2.47,21.85,13.31,4.95,20.14,20.91,20.74,30.72,3.41,7.25-12.8,24.75-4.27,33.28-10.67,12.46-9.39,10.33-17.75,36.27-3.93,27.73,14.76,30.64-18.86,58.11,0,10.16,7,21.76,5.12,20.57,12.8-1.79,11.35,17.84,15.7,15.87,3.93-2.05-12.8,14-6.31,18.26-9.22,9.47-6.31,4.78-17.75,23.89-7.85,28.08,14.42,39.6-18.69,66.9-3.07,10.58,6.06,17.84,6.74,28.16,19.54,11.78,14.68,27.39,13.82,38.15-4.95,8.53-14.93,15.62-9.81,23.21-13.48,17.58-8.53,21.42-3.5,32-5.63,15.1-3.16,14.25-19.29-3.5-25.43Z"/>
  <path class="cls-18" d="M296.03,172.69c-7.94,5.8-3.07,19.46,8.96,16.56,16.56-4.01,3.41-25.6-8.96-16.56Z"/>
  <path class="cls-19" d="M376.34,292.25c-7.94,5.8-3.07,19.46,8.96,16.56,16.56-3.93,3.5-25.6-8.96-16.56Z"/>
  <path class="cls-21" d="M200.03,325.96c-7.94,5.8-3.07,19.46,8.96,16.56,16.56-3.93,3.41-25.6-8.96-16.56Z"/>
  <path class="cls-27" d="M410.9,147.86c-7.94,5.8-3.07,19.46,8.96,16.56,16.56-3.93,3.5-25.6-8.96-16.56Z"/>
  <path class="cls-28" d="M229.47,212.46c-7.94,5.8-3.07,19.46,8.96,16.56,16.56-4.01,3.5-25.69-8.96-16.56Z"/>
  <path class="cls-29" d="M141.74,164.42c-7.94,5.8-3.07,19.46,8.96,16.56,16.56-4.01,3.5-25.69-8.96-16.56Z"/>
  <path class="cls-30" d="M346.81,205.46c-4.78,3.5-1.88,11.86,5.46,10.07,10.07-2.39,2.13-15.53-5.46-10.07Z"/>
  <path class="cls-20" d="M244.15,173.12c-4.78,3.5-1.88,11.86,5.46,10.07,10.07-2.47,2.13-15.62-5.46-10.07Z"/>
  <path class="cls-23" d="M107.27,303.69c-4.78,3.5-1.88,11.86,5.46,10.07,10.07-2.39,2.13-15.62-5.46-10.07Z"/>
  <path class="cls-22" d="M37.55,290.29c-4.78,3.5-1.88,11.86,5.46,10.07,10.07-2.47,2.13-15.62-5.46-10.07Z"/>
  <path class="cls-24" d="M292.28,303.69c-4.78,3.5-1.88,11.86,5.46,10.07,10.07-2.39,2.05-15.62-5.46-10.07Z"/>
  <path class="cls-25" d="M472.51,303.69c-4.78,3.5-1.88,11.86,5.46,10.07,10.07-2.39,2.13-15.62-5.46-10.07Z"/>
  <path class="cls-32" d="M437.52,188.48c-4.78,3.5-1.88,11.86,5.46,10.07,10.07-2.39,2.05-15.62-5.46-10.07Z"/>
  <path class="cls-26" d="M374.8,169.79c-4.78,3.5-1.88,11.86,5.46,10.07,10.07-2.47,2.13-15.62-5.46-10.07Z"/>
  <path class="cls-33" d="M183.64,182.85c-4.78,3.5-1.88,11.86,5.46,10.07,10.07-2.47,2.05-15.62-5.46-10.07Z"/>
  <path class="cls-31" d="M15.19,233.79c-4.78,3.5-1.88,11.86,5.46,10.07,10.07-2.47,2.13-15.62-5.46-10.07Z"/>
</svg>