<?xml version="1.0" encoding="UTF-8"?>
<svg id="Layer_1" data-name="Layer 1" xmlns="http://www.w3.org/2000/svg" xmlns:xlink="http://www.w3.org/1999/xlink" viewBox="0 0 512 512">
  <defs>
    <style>
      .cls-1 {
        fill: #1a1626;
      }

      .cls-2 {
        fill: url(#radial-gradient);
      }

      .cls-3 {
        fill: url(#radial-gradient-2);
        isolation: isolate;
        opacity: .5;
      }
    </style>
    <radialGradient id="radial-gradient" cx="171.31" cy="307.84" fx="171.31" fy="307.84" r="278.33" gradientTransform="translate(29.69 519.31) scale(1.05 -1.05)" gradientUnits="userSpaceOnUse">
      <stop offset="0" stop-color="#f80"/>
      <stop offset=".29" stop-color="#fc8500"/>
      <stop offset=".53" stop-color="#f27e00"/>
      <stop offset=".75" stop-color="#e17000"/>
      <stop offset=".93" stop-color="#cc6000"/>
    </radialGradient>
    <radialGradient id="radial-gradient-2" cx="1305.52" cy="1230" fx="1305.52" fy="1230" r="188.32" gradientTransform="translate(-1271.8656 301.6978) rotate(52.4082) scale(.5873 -1)" gradientUnits="userSpaceOnUse">
      <stop offset="0" stop-color="#ffdada"/>
      <stop offset="1" stop-color="#ffdada" stop-opacity="0"/>
    </radialGradient>
  </defs>
  <circle class="cls-2" cx="256" cy="256" r="256"/>
  <path class="cls-1" d="M382.78,314.52c-94.22-31.21-175.58-58.15-207.73-122.88-2.16-4.33-3.93-8.79-5.38-13.34,122.48-47.05,267.18-57.92,328.52-5.4-2.13-6.22-4.49-12.32-7.07-18.31-29.61-20.09-80.1-31.62-136.76-29.32-59.3,2.41-126.78,17.03-187.84,40.12-4.57-26.83,2.22-55.72,19.81-81.25,30.29-43.91,83.95-69.64,147.58-72.04-7.89-2.52-15.94-4.67-24.14-6.43-64.44,6-107.94,32.6-134.37,70.93-20.21,29.31-27.55,62.75-21.45,93.71-10.44,4.21-20.68,8.64-30.58,13.33-7.41,3.51-14.5,7.08-21.33,10.72-6.93-28.05-10.62-55.3-10.26-80.26.32-21.17,3.87-46.31,15.88-66.74-5.79,4.11-11.37,8.47-16.79,13.05-21.53,49.41-8.64,109.28-.68,140.47-13.38,7.63-25.51,15.49-36.34,23.53-6.9-24.6-17.24-47.85-33.54-68.48-2.05,4.81-3.94,9.72-5.7,14.69,13.35,18.98,21.96,40.25,27.8,62.75-18.58,15.34-32.45,31.17-41.26,47.05.61,6.44,1.46,12.83,2.54,19.12,7.5-14.95,19.7-32.49,42.04-51.88,5.38,25.82,7.84,52.86,10.26,79.56,3.6,39.87,8.54,92.31,28.05,118.47,6.94,6.29,14.23,12.23,21.84,17.73-27.24-33.55-31.73-82.88-36.66-137.4-2.67-29.47-5.38-59.36-11.88-87.81,10.67-8.18,22.84-16.24,36.43-24.1,10.98,38.4,27.52,78.63,48.63,117.11,42.52,77.5,99.2,156.22,184.34,170.91,7.3-2.09,14.46-4.51,21.5-7.23-16.25-.21-33.28-4.64-51.03-13.35-78.89-38.78-160.1-161.06-191.7-273.98,7.48-4.03,15.32-8,23.55-11.89,9.21-4.36,18.65-8.5,28.23-12.42,1.6,4.87,3.56,9.67,5.88,14.34,34.6,69.68,118.42,97.44,215.45,129.59,35.47,11.75,71.88,23.83,108.69,38.68,1.9-4,3.7-8.05,5.39-12.15-37.31-15.1-74.07-27.31-109.91-39.18Z"/>
  <path class="cls-3" d="M238.03,246.64c-82.41,63.45-179.43,75.62-216.69,27.22-37.27-48.42-.68-139.08,81.73-202.52S282.5-4.29,319.76,44.12c37.28,48.41.68,139.08-81.73,202.52Z"/>
</svg>