<?xml version="1.0" encoding="UTF-8"?>
<svg id="Layer_1" data-name="Layer 1" xmlns="http://www.w3.org/2000/svg" xmlns:xlink="http://www.w3.org/1999/xlink" viewBox="0 0 512 512">
  <defs>
    <style>
      .cls-1 {
        fill: url(#radial-gradient-2);
      }

      .cls-2 {
        fill: url(#radial-gradient);
      }

      .cls-3 {
        fill: #fff;
      }

      .cls-4 {
        fill: #302c3b;
      }
    </style>
    <radialGradient id="radial-gradient" cx="171.31" cy="307.85" fx="171.31" fy="307.85" r="278.33" gradientTransform="translate(29.69 519.31) scale(1.05 -1.05)" gradientUnits="userSpaceOnUse">
      <stop offset=".27" stop-color="#3a3547"/>
      <stop offset=".52" stop-color="#373244"/>
      <stop offset=".72" stop-color="#2d283a"/>
      <stop offset=".9" stop-color="#1d1929"/>
      <stop offset=".93" stop-color="#1a1626"/>
    </radialGradient>
    <radialGradient id="radial-gradient-2" cx="1248" cy="1250.06" fx="1248" fy="1250.06" r="139.72" gradientTransform="translate(-1271.8655 301.6975) rotate(52.4082) scale(.5873 -1)" gradientUnits="userSpaceOnUse">
      <stop offset="0" stop-color="#586167"/>
      <stop offset="1" stop-color="#586167" stop-opacity="0"/>
    </radialGradient>
  </defs>
  <circle class="cls-2" cx="256" cy="256" r="256"/>
  <path class="cls-1" d="M215.89,185c-61.18,47.1-133.12,56.15-160.77,20.22-27.65-35.93-.51-103.17,60.67-150.27C176.98,7.85,248.92-1.19,276.57,34.73c27.65,35.93.43,103.25-60.67,150.27Z"/>
  <path class="cls-3" d="M378.79,118.53c41.64,50.35,36.69,123.22-11.01,162.65-47.7,39.51-120.15,30.63-161.79-19.71-41.64-50.35-36.69-123.22,11.01-162.65,47.7-39.42,120.15-30.63,161.79,19.71Z"/>
  <path class="cls-4" d="M347.05,164.86c-7.25-2.05-15.19-1.37-23.72,1.11,5.38-5.46,9.3-11.43,10.84-18.26,1.96-8.28.6-16.38-4.1-24.41-4.18-7.17-9.64-12.37-16.55-15.62-6.91-3.24-14.76-4.61-23.38-4.01-8.79.6-17.83,3.07-27.14,7.51-9.47,4.61-17.32,10.24-23.38,17.07-6.14,6.91-9.98,14.42-11.35,22.44-1.37,8.11.17,16.13,4.78,24.15,5.03,8.62,12.29,14.34,21.85,16.98,7.59,2.05,15.79,1.54,24.15-.51-7.17,6.66-12.63,13.82-15.1,22.02-3.07,10.15-1.71,20.31,4.1,30.29,4.86,8.45,11.35,14.08,19.46,17.07,8.02,2.9,16.9,3.33,26.54,1.28,9.47-1.96,19.03-6.31,28.59-12.8,9.39-6.4,16.55-13.4,21.76-21.16,5.12-7.59,8.02-15.36,8.7-23.3.68-7.85-1.19-15.53-5.55-23.13-4.95-8.62-11.78-14.17-20.48-16.73ZM263.34,145.83c2.3-4.95,6.57-8.96,12.71-12.12,6.06-3.07,11.78-4.18,17.15-3.33,5.38.85,9.64,4.1,12.89,9.81,3.16,5.46,3.75,10.75,1.79,15.87-1.96,5.21-5.55,9.98-10.75,14.25-6.49,2.3-12.63,2.99-18.43,1.96-5.89-1.02-10.41-4.35-13.74-9.98-3.41-5.97-3.93-11.43-1.62-16.47ZM343.47,211.71c-2.39,5.63-7,10.67-13.74,15.02-6.91,4.44-13.4,6.57-19.63,6.31s-11.18-3.41-14.68-9.56c-3.33-5.8-3.75-11.78-1.11-17.92,2.65-6.06,7.08-11.69,13.4-16.9,7.51-2.9,14.25-4.01,20.39-3.33,6.06.68,10.67,3.75,13.91,9.3,3.33,5.8,3.84,11.52,1.45,17.07Z"/>
</svg>