<?xml version="1.0" encoding="UTF-8"?>
<svg id="Layer_1" data-name="Layer 1" xmlns="http://www.w3.org/2000/svg" xmlns:xlink="http://www.w3.org/1999/xlink" viewBox="0 0 512.04 512">
  <defs>
    <style>
      .cls-1 {
        fill: #8a0404;
      }

      .cls-1, .cls-2 {
        fill-rule: evenodd;
      }

      .cls-3 {
        fill: #0fb4d4;
      }

      .cls-4 {
        fill: #6e8189;
      }

      .cls-5 {
        fill: url(#linear-gradient-3);
      }

      .cls-6 {
        fill: url(#linear-gradient-2);
      }

      .cls-7 {
        fill: #ffc940;
      }

      .cls-8 {
        fill: #1a1626;
      }

      .cls-9 {
        fill: #ffa959;
      }

      .cls-10 {
        fill: #99a8ae;
      }

      .cls-11 {
        fill: url(#linear-gradient);
      }

      .cls-12 {
        fill: #ed6a00;
      }

      .cls-13 {
        fill: #7a6056;
      }

      .cls-14 {
        fill: #f5bb51;
      }

      .cls-15 {
        fill: #fff;
      }

      .cls-16, .cls-2 {
        fill: #e81c27;
      }

      .cls-17 {
        fill: #ff7a00;
      }

      .cls-18 {
        fill: #bec3cf;
      }

      .cls-19 {
        fill: #ab968c;
      }

      .cls-20 {
        fill: #966f42;
      }

      .cls-21 {
        fill: #f0a429;
      }

      .cls-22 {
        fill: #302c3b;
      }
    </style>
    <linearGradient id="linear-gradient" x1="66.33" y1="-197.84" x2="-16.07" y2="-109.06" gradientTransform="translate(110.69 -69.81) rotate(-20) scale(1 -1)" gradientUnits="userSpaceOnUse">
      <stop offset="0" stop-color="#473834"/>
      <stop offset=".2" stop-color="#5b4842"/>
      <stop offset=".43" stop-color="#6d554d"/>
      <stop offset=".69" stop-color="#775d54"/>
      <stop offset="1" stop-color="#7a6056"/>
    </linearGradient>
    <linearGradient id="linear-gradient-2" x1="74.7" y1="-194.56" x2="-14.84" y2="-98.09" gradientTransform="translate(110.69 -69.81) rotate(-20) scale(1 -1)" gradientUnits="userSpaceOnUse">
      <stop offset="0" stop-color="#473834"/>
      <stop offset=".2" stop-color="#5b4842"/>
      <stop offset=".43" stop-color="#6d554d"/>
      <stop offset=".69" stop-color="#775d54"/>
      <stop offset="1" stop-color="#7a6056"/>
    </linearGradient>
    <linearGradient id="linear-gradient-3" x1="-23.76" y1="-177.33" x2="-23.76" y2="-163.1" gradientTransform="translate(110.69 -69.81) rotate(-20) scale(1 -1)" gradientUnits="userSpaceOnUse">
      <stop offset="0" stop-color="#a6694a"/>
      <stop offset="1" stop-color="#4f2a1e"/>
    </linearGradient>
  </defs>
  <path class="cls-14" d="M184.58,151.56c8.41-8.55,23.68-3.62,25.72-.12,6.72,11.44,38.44-16.4,28.15-28.61-8.97-10.62-8.29-27.44-8.29-27.44-8.22-1.41-49-36.21-45.59,56.16Z"/>
  <path class="cls-13" d="M130.61,102.42c-4.57-24.88,19.85-40.78,2.82-59.79-25.97,17.03-20.2,40.79-2.82,59.79Z"/>
  <path class="cls-7" d="M148.68,27.03c-29.15,16.21-32.45,42.46-17.98,66.68,3.27,5.49,3.15,16.93-1.98,26.14-1.87,3.35-1,6.55,1.1,8.15,4.1,3.15,9.85,1.08,12.8,1.75,6.61,1.47,2.62,7.2,8.12,9.77,2.5,1.15,6.87-3.2,4.85,8.55,7.82,2.27,1.47,16.89,17.96,12.78,8.67-2.17,32.54-31.09,34.64-42.3,2.43-13.07.02-22.85.02-22.85,21.27-15.5,22.1-39.29,9.1-59.11-18.22-27.77-49.72-20.05-68.62-9.56Z"/>
  <path class="cls-21" d="M150.73,139.51c3.55.72,3.3,3.99,3.3,3.99-1.4.52-.07,5.23,2,4.48,7.25-2.65,11.63-11.28,12.45-15.83-11.55,3.57-25.87,2.98-17.75,7.36Z"/>
  <path class="cls-15" d="M150.73,139.51s2.55,3.55,3.3,3.99c2.27-.82,9.08-5.16,12.54-9.81l-15.84,5.83Z"/>
  <path class="cls-21" d="M129.89,127.99c4.22,4.95,18.36,1.19,20.22-7.35-5.32,7.85-22.67,4.51-20.22,7.35Z"/>
  <path id="Path" class="cls-20" d="M156.86,78.14c-7.97-1.42-20.64,3-24.36,7.35-.82.89,1.17,4.23,1.89,3.58,5.51-5.2,16.04-9.11,23.29-8.22.96.12.38-2.57-.81-2.71Z"/>
  <path class="cls-11" d="M163.09,46.92c33.84,15.23,52.06,46.17,57.87,72.22,29.66-25.13,10.82-106.57-57.87-72.22Z"/>
  <path class="cls-6" d="M236.24,111.09c11.84-21.55,4.04-64.7-19.34-86.21-17.24-15.86-36.41-20.09-65.28-9.5-23.38,8.57-37.95,29.03-36.27,45.89,2.33,23.47,36,10.27,53.52,23.84,0,0,.75-13.48-13.65-26.69,56.41,41.67,55.62-16.12,81.03,52.67Z"/>
  <path class="cls-7" d="M197.82,66.83c-10.68,6.6-4.79,33.98,5.93,36.52,1.5.33,8.06-1.25,9.1-8.87.56-4.22,5.88-10.23,4.28-17.5-2.07-9.32-8.7-16.7-19.31-10.15Z"/>
  <path id="Path-2" data-name="Path" class="cls-21" d="M200.18,71.43c-2.57,2.08-4.1,6.49-3.06,11.95,9.39-6.61,13.17,5.27,4.42,10,.72,1.03,1.5,2.07,2.4,3.1,1.95-6.05,7.22-6.73,8.06-14.67.77-7.16-5.44-15.48-11.82-10.38Z"/>
  <path class="cls-15" d="M159,92.56c.77,1.61-2.31,9.55-8.83,12.55-3.7,1.72-6.17-.75-8.18-3.62-5.44-12.38,11.15-13.32,17.02-8.94Z"/>
  <path id="Path-3" data-name="Path" class="cls-5" d="M141.14,99.97c3.35,9.23,14.06,5.33,10.7-3.9-3.13-8.59-13.83-4.69-10.7,3.9Z"/>
  <path id="Path-4" data-name="Path" class="cls-8" d="M142.11,99.15c1.66,4.63,7.01,2.68,5.33-1.94-1.56-4.3-6.9-2.36-5.33,1.94Z"/>
  <path id="Path-5" data-name="Path" class="cls-19" d="M144.73,96.07c.7,1.94,3.8.8,3.1-1.12-.65-1.81-3.76-.68-3.1,1.12Z"/>
  <path class="cls-21" d="M159,92.56c-4.98-4.72-20.85-3.7-18.4,4.23.11-5.97,11.78-6.96,18.4-4.23Z"/>
  <path class="cls-10" d="M409.63,315.72c-51.85,0-93.87,42.02-93.87,93.87s42.02,93.87,93.87,93.87,93.87-42.02,93.87-93.87-42.04-93.87-93.87-93.87ZM409.63,486.4c-42.42,0-76.81-34.38-76.81-76.81s34.38-76.81,76.81-76.81,76.81,34.38,76.81,76.81-34.38,76.81-76.81,76.81Z"/>
  <path class="cls-10" d="M102.41,315.72c-51.85,0-93.87,42.02-93.87,93.87s42.02,93.87,93.87,93.87,93.87-42.02,93.87-93.87-42.04-93.87-93.87-93.87ZM102.41,486.4c-42.42,0-76.81-34.38-76.81-76.81s34.38-76.81,76.81-76.81,76.81,34.38,76.81,76.81-34.38,76.81-76.81,76.81Z"/>
  <path class="cls-22" d="M102.41,307.19c-56.55,0-102.41,45.85-102.41,102.41s45.85,102.41,102.41,102.41,102.41-45.84,102.41-102.41-45.85-102.41-102.41-102.41ZM102.41,494.95c-47.13,0-85.34-38.22-85.34-85.36s38.21-85.34,85.34-85.34,85.34,38.22,85.34,85.34-38.21,85.36-85.34,85.36Z"/>
  <path class="cls-22" d="M409.63,307.19c-56.55,0-102.41,45.85-102.41,102.41s45.85,102.41,102.41,102.41,102.41-45.84,102.41-102.41-45.85-102.41-102.41-102.41ZM409.63,494.95c-47.13,0-85.34-38.22-85.34-85.36s38.21-85.34,85.34-85.34,85.34,38.22,85.34,85.34-38.21,85.36-85.34,85.36Z"/>
  <path class="cls-14" d="M223.21,253.73c-14.64,30.25,20.15,30.25,54.42,87.65l16.5-25c-22.5-23.55-11.12-28.98-26.15-57.32l-44.78-5.33Z"/>
  <path class="cls-12" d="M321.34,259.58l-22.65-46.26c-22.32,12.8-60.98,19.99-75.47,40.42,0,0,13.48,13.77,53.06,26.81,16.63-6.62,45.07-20.96,45.07-20.96Z"/>
  <path class="cls-22" d="M162.14,221.86c-6.12-2.87-25.6-8.53-25.6-8.53v17.07l16.07,4.02-7.54,30.11,17.07,8.53,8.53-34.14s13.35-6.79-8.53-17.06Z"/>
  <path class="cls-3" d="M415.26,403.06l-86.53-102.76,11.72-23.42c2.1-4.22-13.17-11.85-15.27-7.65l-11.23,22.49-166.36-37.27-53.23,152.33c-3.37,9.57,13.01,14.37,16.1,5.68l45.97-130.23,101.36,132.56c.07.1.18.14.25.2.75.9,5.28,3.13,6.54,3.13h145.2c4.74,0,7.37-13.52,5.49-15.07ZM306.09,307.45l-43.07,86.12-88.37-115.59,131.44,29.47ZM278.35,401.06l42.09-84.12,70.84,84.12h-112.93Z"/>
  <path class="cls-22" d="M119.47,409.59c0,22.77-34.14,22.77-34.14,0s34.14-22.75,34.14,0Z"/>
  <polygon class="cls-18" points="409.63 392.53 264.53 383.99 264.53 375.46 409.63 383.99 409.63 392.53"/>
  <polygon class="cls-18" points="409.63 435.19 264.55 443.73 264.55 435.19 409.63 426.66 409.63 435.19"/>
  <path class="cls-22" d="M435.23,409.59c0,34.14-51.2,34.14-51.2,0s51.2-34.14,51.2,0Z"/>
  <path class="cls-22" d="M264.53,443.73c-45.49,0-45.49-68.27,0-68.27s45.54,68.27,0,68.27Z"/>
  <polygon class="cls-4" points="247.48 469.33 230.42 469.33 256.02 409.59 273.09 409.59 247.48 469.33"/>
  <path class="cls-10" d="M273.09,409.63c0,11.35-17.07,11.35-17.07,0s17.07-11.42,17.07,0Z"/>
  <path class="cls-22" d="M366.96,281.58c-17.07,8.53-34.14-8.53-68.27-8.53,0,0,0-17.07,17.07-17.07,35.19,0,46.37-6.68,59.74,0,17.07,8.53,2.25,20.22-8.53,25.6Z"/>
  <path class="cls-14" d="M255.88,319.52c-4.39,17.94,22.8,59.69,10.12,120.82h36.02c-9.45-61.14,5.73-73.72,1.47-119.19,0,0-42.26-23.41-47.61-1.63Z"/>
  <path class="cls-17" d="M377.51,200.2c-41.88-90.19-154.69-111.87-168.04-77.54-8.99,23.15,53.06,45.83,89.22,90.66-13.94,25.6-40.66,75.29-42.81,106.2,0,0,16.74.37,48.37,12.6,21.62-64.52,97.39-79.93,73.26-131.93Z"/>
  <path class="cls-9" d="M292.47,327.86l-17.03-5c8.06-36.57,28.22-58.01,44-75.46,13.9-15.34,21.65-24.58,19.65-35.9-4.81-27.21-39.85-53.37-98.66-73.71l5.58-16.14c45.92,15.88,102.25,43.84,109.87,86.86,3.57,20.1-9.11,34.12-23.78,50.33-15.17,16.79-32.54,36.89-39.63,69.01Z"/>
  <path class="cls-14" d="M214.4,182.81c1.33,7.57,2.76,11.44,3.22,16-27.21,14.13-34.1,21.04-59.58,5.97-17.07-10.09-50.14-10.86-43.1,23.87,3.02,14.92,21.84-25.07,29.03-11.21,11.37,21.86,15.37,17.22,31.52,16.37,38.32-2.01,77.82-3.41,76.34-18.12-.9-8.9.45-28.17.45-28.17l-37.87-4.71Z"/>
  <path class="cls-12" d="M251.35,133.67c-4.53-33.52-45.4-28.27-43.39-.73,1.15,15.85,6.43,49.89,6.43,49.89,20.64,6.32,37.87,4.72,37.87,4.72,1.16-18.01,1.37-36.94-.92-53.87Z"/>
  <path class="cls-22" d="M153.61,221.9c0,22.68-34.14,22.68-34.14,0s34.14-22.79,34.14,0Z"/>
  <path class="cls-10" d="M145.08,221.86c0,11.35-17.07,11.35-17.07,0s17.07-11.39,17.07,0Z"/>
  <path class="cls-10" d="M213.35,469.33s-3.55,14.72.02,17.07c4.16,2.77,19.8-5.95,19.88.03h.03c.09-5.98,19.78-5.98,19.87,0h.03c.09-5.98,15.72,2.73,19.88-.03,3.57-2.35.02-17.07.02-17.07h-59.74Z"/>
  <path class="cls-22" d="M247.48,475.47c0,5.7-8.53,5.7-8.53,0s8.53-5.68,8.53,0Z"/>
  <path class="cls-22" d="M233.42,475.47c0,2.85-17.07,2.85-17.07,0s17.07-2.83,17.07,0Z"/>
  <path class="cls-22" d="M270.08,475.47c0,2.85-17.07,2.85-17.07,0,0-2.83,17.07-2.83,17.07,0Z"/>
  <path class="cls-22" d="M224.31,54.21s-9.83-2.25-9.55.14c1.14,9.93-4.8,33.89-4.8,33.89,0,0-26.46-12.6-38.25-38.42-1-2.2-7.62,3.25-7.85,5.65-1.47,14.57,42.7,43.77,42.7,43.77,0,0-10.22,39.19-19.99,51.49,26.7,3.83,37.74-96.51,37.74-96.51Z"/>
  <path class="cls-16" d="M301.12,433.68c-9.15,8.83-28.89,7.1-34.55,2.64-19.08,7-22.07,16.37-47.76,18.92-10.67,1.07-7.4,13.1-5.47,14.1,9.81,5.05,44.59-3.62,79.25,2.5,16.39,2.88,10.97-38.4,8.53-38.16Z"/>
  <path class="cls-22" d="M262.33,438.01c-6.32,1.45-9.32,4.8-9.32,4.8,12.06,9.97,21.64,7.21,9.32-4.8Z"/>
  <path class="cls-22" d="M251.92,443.73c-6.33,1.47-9.34,4.8-9.34,4.8,9.98,8.26,19.7,5.33,9.34-4.8Z"/>
  <path class="cls-22" d="M241.71,449.25c-6.33,1.45-6.54,2.68-6.54,2.68,7.42,6.12,14.51,5.1,6.54-2.68Z"/>
  <path class="cls-2" d="M246.17,36.11c1.94,1.3,11.26,6.19,11.58,8.45.15,1.1-.87,2.85-.84,4.15.07,2.1,10.18,14.25,8.59,15.82-13.4,13.13,4.22,9.02-4.07,15.58-6.3,4.98-13.29,9.74-19.27,13.4-7.57,4.63-15.25-1.1-51.94-18.36-.72-.35-9.92,4.18-13.9,3.95-2.83-.17-15.11-4.1-18.03-4.67-8.57-1.66-45.08-3.62-49.63-7.38-5.62-41.82,63.79-104.09,150.15-38.45,3.42,2.6-12.63,7.52-12.63,7.52Z"/>
  <path class="cls-1" d="M117.59,51.6c-2.4,3.4,28.19-30.62,82.47-34.54-15.2-14.71-66.84,2.24-82.47,34.54Z"/>
  <path class="cls-1" d="M248.29,37.39s9.25-3.55,10.9-7.6c-12.94-1.37-21.16-3.95-24.01.2l13.11,7.41Z"/>
  <path class="cls-1" d="M222.23,50.66c24.78,9.23,38.14,22.28,38.14,22.28,0,0,.79-3.55,4.58-7.87-6.26-11-22.57-24.25-25.82-24.36-4.8-.16-20.34,8.68-16.91,9.94Z"/>
  <path class="cls-1" d="M126.84,55.19c-4.15,6.54,14.67,5.91,34.77,3.58,7.24-.85,53.77-18.38,56.92-23.37.67-1.07-2.48-10.1-5.15-10.16-19.3-.45-76.69,17.32-86.53,29.95Z"/>
</svg>