<?xml version="1.0" encoding="UTF-8"?>
<svg id="Layer_1" data-name="Layer 1" xmlns="http://www.w3.org/2000/svg" xmlns:xlink="http://www.w3.org/1999/xlink" viewBox="0 0 546.13 512">
  <defs>
    <style>
      .cls-1 {
        fill: #211d2d;
      }

      .cls-2 {
        fill: #297124;
      }

      .cls-3 {
        fill: #7ab51d;
      }

      .cls-4 {
        fill: #02d6b4;
      }

      .cls-5 {
        fill: #f5c456;
      }

      .cls-6 {
        fill: url(#radial-gradient-2);
      }

      .cls-7 {
        fill: #449c00;
      }

      .cls-8 {
        fill: url(#linear-gradient-8);
      }

      .cls-9 {
        fill: url(#linear-gradient-7);
      }

      .cls-10 {
        fill: url(#linear-gradient-5);
      }

      .cls-11 {
        fill: url(#linear-gradient-6);
      }

      .cls-12 {
        fill: url(#linear-gradient-9);
      }

      .cls-13 {
        fill: url(#linear-gradient-4);
      }

      .cls-14 {
        fill: url(#linear-gradient-3);
      }

      .cls-15 {
        fill: url(#linear-gradient-2);
      }

      .cls-16 {
        fill: #cf0022;
      }

      .cls-17 {
        fill: #1a1626;
      }

      .cls-18 {
        fill: #02ffd6;
      }

      .cls-19 {
        fill: url(#radial-gradient);
      }

      .cls-20 {
        fill: url(#linear-gradient);
      }

      .cls-21 {
        fill: #f59e01;
      }

      .cls-22 {
        fill: #56ab15;
      }

      .cls-23 {
        fill: #529320;
      }

      .cls-24 {
        fill: #ffdb00;
      }

      .cls-25 {
        fill: #fecd00;
      }

      .cls-26 {
        fill: #fff;
      }

      .cls-27 {
        fill: #deb14e;
      }

      .cls-28 {
        fill: url(#linear-gradient-10);
      }

      .cls-29 {
        fill: url(#linear-gradient-11);
      }

      .cls-30 {
        fill: url(#linear-gradient-12);
      }

      .cls-31 {
        fill: #a0a7ab;
      }

      .cls-32 {
        fill: #e60026;
      }

      .cls-33 {
        fill: #302c3b;
      }

      .cls-34 {
        fill: #8f4dad;
      }
    </style>
    <linearGradient id="linear-gradient" x1="195.41" y1="470.37" x2="282.45" y2="470.37" gradientTransform="translate(0 514) scale(1 -1)" gradientUnits="userSpaceOnUse">
      <stop offset="0" stop-color="#f90"/>
      <stop offset=".25" stop-color="#ff9500"/>
      <stop offset=".52" stop-color="#f80"/>
      <stop offset=".8" stop-color="#ff7200"/>
      <stop offset="1" stop-color="#ff5e00"/>
    </linearGradient>
    <linearGradient id="linear-gradient-2" x1="-683.01" y1="408.11" x2="-683.01" y2="523.94" gradientTransform="translate(704.96 -593.32) rotate(-90) scale(1 -1)" gradientUnits="userSpaceOnUse">
      <stop offset="0" stop-color="#89969c"/>
      <stop offset=".5" stop-color="#b4bdc2"/>
      <stop offset="1" stop-color="#89969c"/>
    </linearGradient>
    <linearGradient id="linear-gradient-3" x1="-1288.14" y1="333.14" x2="-1288.14" y2="501.39" gradientTransform="translate(607.63 -608.1) rotate(-90) scale(.55 -.88)" gradientUnits="userSpaceOnUse">
      <stop offset="0" stop-color="#99a8ae"/>
      <stop offset=".5" stop-color="#c1cacf"/>
      <stop offset="1" stop-color="#99a8ae"/>
    </linearGradient>
    <linearGradient id="linear-gradient-4" x1="520.53" y1="180.85" x2="520.53" y2="232.75" gradientTransform="translate(0 514) scale(1 -1)" gradientUnits="userSpaceOnUse">
      <stop offset="0" stop-color="#89969c"/>
      <stop offset=".5" stop-color="#b4bdc2"/>
      <stop offset="1" stop-color="#89969c"/>
    </linearGradient>
    <linearGradient id="linear-gradient-5" x1="853.97" y1="75.56" x2="853.97" y2="172.2" gradientTransform="translate(14.78 416.67) scale(.55 -.88)" gradientUnits="userSpaceOnUse">
      <stop offset="0" stop-color="#99a8ae"/>
      <stop offset=".5" stop-color="#c1cacf"/>
      <stop offset="1" stop-color="#99a8ae"/>
    </linearGradient>
    <linearGradient id="linear-gradient-6" x1="8.58" y1="-142.04" x2="8.58" y2="-178.07" gradientTransform="translate(444.7304 313.6455) rotate(-90) scale(10.4256 -.4736)" gradientUnits="userSpaceOnUse">
      <stop offset=".01" stop-color="#c1cacf"/>
      <stop offset=".37" stop-color="#b6c1c6"/>
      <stop offset="1" stop-color="#99a8ae"/>
    </linearGradient>
    <linearGradient id="linear-gradient-7" x1="16.19" y1="-137.53" x2="16.19" y2="-182.58" gradientTransform="translate(444.7304 313.6455) rotate(-90) scale(10.4256 -.4736)" gradientUnits="userSpaceOnUse">
      <stop offset=".01" stop-color="#acb4b8"/>
      <stop offset=".31" stop-color="#a0a8ad"/>
      <stop offset=".84" stop-color="#7f8a8f"/>
      <stop offset="1" stop-color="#748085"/>
    </linearGradient>
    <radialGradient id="radial-gradient" cx="842.63" cy="159.56" fx="842.63" fy="159.56" r="42.5" gradientTransform="translate(-60.54 226.51) scale(.68 -.68)" gradientUnits="userSpaceOnUse">
      <stop offset="0" stop-color="#ff5252"/>
      <stop offset=".21" stop-color="#fc4e4e"/>
      <stop offset=".44" stop-color="#f44141"/>
      <stop offset=".67" stop-color="#e72b2b"/>
      <stop offset=".91" stop-color="#d40e0d"/>
      <stop offset="1" stop-color="#cc0100"/>
    </radialGradient>
    <linearGradient id="linear-gradient-8" x1="203.33" y1="4.89" x2="274.54" y2="408.71" gradientTransform="translate(0 514) scale(1 -1)" gradientUnits="userSpaceOnUse">
      <stop offset="0" stop-color="#99a8ae"/>
      <stop offset=".36" stop-color="#a9b6bc"/>
      <stop offset="1" stop-color="#cfd8dd"/>
    </linearGradient>
    <linearGradient id="linear-gradient-9" x1="38.14" y1="202.71" x2="130.71" y2="202.71" gradientTransform="translate(0 514) scale(1 -1)" gradientUnits="userSpaceOnUse">
      <stop offset="0" stop-color="#ff000e"/>
      <stop offset=".27" stop-color="#fa000c"/>
      <stop offset=".6" stop-color="#ea0008"/>
      <stop offset=".97" stop-color="#d10001"/>
      <stop offset="1" stop-color="#cf0000"/>
    </linearGradient>
    <radialGradient id="radial-gradient-2" cx="458.14" cy="-366.62" fx="458.14" fy="-366.62" r="10.09" gradientTransform="translate(-143.12 278.07) scale(.84 -.41)" gradientUnits="userSpaceOnUse">
      <stop offset="0" stop-color="#8f6654"/>
      <stop offset=".42" stop-color="#8b6352"/>
      <stop offset=".82" stop-color="#805b4b"/>
      <stop offset="1" stop-color="#785647"/>
    </radialGradient>
    <linearGradient id="linear-gradient-10" x1="190.33" y1="202.71" x2="282.92" y2="202.71" gradientTransform="translate(0 514) scale(1 -1)" gradientUnits="userSpaceOnUse">
      <stop offset="0" stop-color="#ff000e"/>
      <stop offset=".27" stop-color="#fa000c"/>
      <stop offset=".6" stop-color="#ea0008"/>
      <stop offset=".97" stop-color="#d10001"/>
      <stop offset="1" stop-color="#cf0000"/>
    </linearGradient>
    <linearGradient id="linear-gradient-11" x1="342.58" y1="202.71" x2="435.16" y2="202.71" gradientTransform="translate(0 514) scale(1 -1)" gradientUnits="userSpaceOnUse">
      <stop offset="0" stop-color="#ff000e"/>
      <stop offset=".27" stop-color="#fa000c"/>
      <stop offset=".6" stop-color="#ea0008"/>
      <stop offset=".97" stop-color="#d10001"/>
      <stop offset="1" stop-color="#cf0000"/>
    </linearGradient>
    <linearGradient id="linear-gradient-12" x1="238.93" y1="69.1" x2="238.93" y2="344.49" gradientTransform="translate(0 514) scale(1 -1)" gradientUnits="userSpaceOnUse">
      <stop offset="0" stop-color="#1a1626"/>
      <stop offset=".06" stop-color="#1a1626" stop-opacity=".86"/>
      <stop offset=".4" stop-color="#1a1626" stop-opacity="0"/>
      <stop offset=".6" stop-color="#1a1626" stop-opacity="0"/>
      <stop offset=".94" stop-color="#1a1626" stop-opacity=".86"/>
      <stop offset="1" stop-color="#1a1626"/>
    </linearGradient>
  </defs>
  <path class="cls-20" d="M282.45,87.26V26.57c0-14.62-11.96-26.57-26.58-26.57h-33.89c-14.62,0-26.57,11.96-26.57,26.57v60.69h87.04Z"/>
  <rect class="cls-15" x="181.02" y="82.77" width="115.83" height="13.82"/>
  <rect class="cls-14" x="164.6" y="94.28" width="148.67" height="12.71"/>
  <path class="cls-31" d="M426.67,483.35c0,15.74-12.89,28.65-28.65,28.65H79.85c-15.76,0-28.65-12.9-28.65-28.65V131.06c0-15.77,12.89-28.66,28.65-28.66h318.15c15.77,0,28.66,12.89,28.66,28.66v352.29Z"/>
  <path class="cls-4" d="M406.84,473.27c0,11.19-9.86,20.32-21.91,20.32H92.94c-12.06,0-21.91-9.13-21.91-20.32V141.13c0-11.18,9.85-20.32,21.91-20.32h291.99c12.06,0,21.91,9.14,21.91,20.32v332.13Z"/>
  <path class="cls-18" d="M105.1,139.31c-7.82,0-7.82-11.73,0-11.73s7.83,11.73,0,11.73Z"/>
  <path class="cls-18" d="M129.54,136.53c-7.83,0-7.83-11.73,0-11.73s7.83,11.73,0,11.73Z"/>
  <path class="cls-18" d="M178.39,141.37c-7.83,0-7.83-11.73,0-11.73s7.83,11.73,0,11.73Z"/>
  <path class="cls-18" d="M202.82,133.44c-7.83,0-7.83-11.73,0-11.73s7.83,11.73,0,11.73Z"/>
  <path class="cls-18" d="M227.25,143.39c-7.83,0-7.83-11.73,0-11.73s7.83,11.73,0,11.73Z"/>
  <path class="cls-18" d="M239.47,135.04c-7.83,0-7.83-11.73,0-11.73s7.82,11.73,0,11.73Z"/>
  <path class="cls-18" d="M263.89,142.4c-7.83,0-7.83-11.73,0-11.73s7.83,11.73,0,11.73Z"/>
  <path class="cls-18" d="M288.32,140.9c-7.83,0-7.83-11.73,0-11.73s7.83,11.73,0,11.73Z"/>
  <path class="cls-18" d="M300.54,134.12c-7.83,0-7.83-11.73,0-11.73s7.83,11.73,0,11.73Z"/>
  <path class="cls-18" d="M324.97,137.57c-7.83,0-7.83-11.73,0-11.73s7.83,11.73,0,11.73Z"/>
  <path class="cls-18" d="M276.1,131.7c-4.6,0-4.6-6.9,0-6.9s4.61,6.9,0,6.9Z"/>
  <path class="cls-18" d="M361.61,130.2c-4.6,0-4.6-6.9,0-6.9s4.6,6.9,0,6.9Z"/>
  <path class="cls-18" d="M337.18,129.25c-4.6,0-4.6-6.9,0-6.9s4.6,6.9,0,6.9Z"/>
  <path class="cls-18" d="M398.25,138.49c-4.6,0-4.6-6.9,0-6.9s4.6,6.9,0,6.9Z"/>
  <path class="cls-18" d="M251.67,130.2c-4.6,0-4.6-6.9,0-6.9s4.6,6.9,0,6.9Z"/>
  <path class="cls-18" d="M215.03,133.66c-4.6,0-4.6-6.9,0-6.9s4.6,6.9,0,6.9Z"/>
  <path class="cls-18" d="M166.18,130.2c-4.6,0-4.6-6.9,0-6.9s4.6,6.9,0,6.9Z"/>
  <path class="cls-18" d="M153.96,138.02c-7.2,0-7.2-10.8,0-10.8s7.2,10.8,0,10.8Z"/>
  <path class="cls-18" d="M141.75,129.25c-4.6,0-4.6-6.9,0-6.9s4.6,6.9,0,6.9Z"/>
  <path class="cls-18" d="M190.61,131.02c-4.6,0-4.6-6.9,0-6.9s4.6,6.9,0,6.9Z"/>
  <path class="cls-18" d="M117.32,131.02c-4.6,0-4.6-6.9,0-6.9s4.6,6.9,0,6.9Z"/>
  <path class="cls-18" d="M80.67,136.53c-4.6,0-4.6-6.9,0-6.9s4.6,6.9,0,6.9Z"/>
  <path class="cls-18" d="M92.89,129.64c-4.6,0-4.6-6.9,0-6.9s4.6,6.9,0,6.9Z"/>
  <path class="cls-18" d="M312.75,134.12c-4.6,0-4.6-6.9,0-6.9s4.6,6.9,0,6.9Z"/>
  <path class="cls-18" d="M349.39,139.52c-7.83,0-7.83-11.73,0-11.73s7.83,11.73,0,11.73Z"/>
  <path class="cls-18" d="M373.82,144.36c-7.82,0-7.82-11.73,0-11.73s7.83,11.73,0,11.73Z"/>
  <path class="cls-18" d="M386.03,136.53c-7.83,0-7.83-11.73,0-11.73s7.83,11.73,0,11.73Z"/>
  <path class="cls-18" d="M373.83,475.37c7.82,0,7.82,11.73,0,11.73s-7.83-11.73,0-11.73Z"/>
  <path class="cls-18" d="M349.39,478.13c7.83,0,7.83,11.73,0,11.73s-7.83-11.73,0-11.73Z"/>
  <path class="cls-18" d="M300.54,473.3c7.83,0,7.83,11.73,0,11.73s-7.83-11.73,0-11.73Z"/>
  <path class="cls-18" d="M276.1,481.24c7.83,0,7.83,11.73,0,11.73s-7.83-11.73,0-11.73Z"/>
  <path class="cls-18" d="M251.67,471.27c7.83,0,7.83,11.73,0,11.73s-7.83-11.73,0-11.73Z"/>
  <path class="cls-18" d="M239.46,479.63c7.83,0,7.83,11.73,0,11.73s-7.82-11.73,0-11.73Z"/>
  <path class="cls-18" d="M215.03,472.27c7.83,0,7.83,11.73,0,11.73s-7.83-11.73,0-11.73Z"/>
  <path class="cls-18" d="M190.61,473.77c7.83,0,7.83,11.73,0,11.73s-7.83-11.73,0-11.73Z"/>
  <path class="cls-18" d="M178.39,480.55c7.83,0,7.83,11.73,0,11.73s-7.83-11.73,0-11.73Z"/>
  <path class="cls-18" d="M153.96,477.1c7.83,0,7.83,11.73,0,11.73s-7.83-11.73,0-11.73Z"/>
  <path class="cls-18" d="M202.82,482.97c4.6,0,4.6,6.9,0,6.9s-4.6-6.9,0-6.9Z"/>
  <path class="cls-18" d="M117.32,484.46c4.6,0,4.6,6.9,0,6.9s-4.6-6.9,0-6.9Z"/>
  <path class="cls-18" d="M141.75,485.42c4.6,0,4.6,6.9,0,6.9s-4.6-6.9,0-6.9Z"/>
  <path class="cls-18" d="M80.67,476.19c4.6,0,4.6,6.9,0,6.9s-4.6-6.9,0-6.9Z"/>
  <path class="cls-18" d="M227.25,484.46c4.6,0,4.6,6.9,0,6.9s-4.6-6.9,0-6.9Z"/>
  <path class="cls-18" d="M263.89,481.02c4.6,0,4.6,6.9,0,6.9s-4.6-6.9,0-6.9Z"/>
  <path class="cls-18" d="M312.75,484.46c4.6,0,4.6,6.9,0,6.9s-4.6-6.9,0-6.9Z"/>
  <path class="cls-18" d="M324.97,476.65c7.2,0,7.2,10.8,0,10.8s-7.2-10.8,0-10.8Z"/>
  <path class="cls-18" d="M337.18,485.42c4.6,0,4.6,6.9,0,6.9s-4.6-6.9,0-6.9Z"/>
  <path class="cls-18" d="M288.32,483.65c4.6,0,4.6,6.9,0,6.9s-4.6-6.9,0-6.9Z"/>
  <path class="cls-18" d="M361.61,483.65c4.6,0,4.6,6.9,0,6.9s-4.6-6.9,0-6.9Z"/>
  <path class="cls-18" d="M398.25,478.13c4.6,0,4.6,6.9,0,6.9s-4.6-6.9,0-6.9Z"/>
  <path class="cls-18" d="M386.03,485.03c4.6,0,4.6,6.9,0,6.9s-4.6-6.9,0-6.9Z"/>
  <path class="cls-18" d="M166.18,480.55c4.6,0,4.6,6.9,0,6.9s-4.6-6.9,0-6.9Z"/>
  <path class="cls-18" d="M129.54,475.15c7.83,0,7.83,11.73,0,11.73s-7.83-11.73,0-11.73Z"/>
  <path class="cls-18" d="M105.11,470.31c7.82,0,7.82,11.73,0,11.73s-7.83-11.73,0-11.73Z"/>
  <path class="cls-18" d="M92.89,478.13c7.83,0,7.83,11.73,0,11.73s-7.83-11.73,0-11.73Z"/>
  <rect class="cls-13" x="503.47" y="281.25" width="34.13" height="51.9"/>
  <rect class="cls-10" x="465.8" y="264.52" width="37.67" height="85.38"/>
  <path class="cls-11" d="M529.07,149.45v144.83c0,6.22-17.07,6.22-17.07,0v-144.83h17.07Z"/>
  <path class="cls-9" d="M509.87,130.37v24.38c0,6.22,21.33,6.22,21.33,0v-24.38h-21.33Z"/>
  <circle class="cls-19" cx="520.53" cy="128" r="25.6"/>
  <path class="cls-8" d="M477.87,449.22c0,15.74-12.89,28.65-28.65,28.65H28.65c-15.76,0-28.65-12.9-28.65-28.65V165.2c0-15.77,12.89-28.66,28.65-28.66h420.55c15.77,0,28.66,12.89,28.66,28.66v284.02Z"/>
  <path class="cls-17" d="M438.83,450.92H39.03c-12.23,0-12.23-287.44,0-287.44h399.8c12.22,0,12.22,287.44,0,287.44Z"/>
  <path class="cls-26" d="M39.67,444.22h129.45c-13.44-89.05-13.44-184.97,0-274.02H39.67c-34.13,89.05-34.13,184.97,0,274.02Z"/>
  <path class="cls-33" d="M147.06,444.22c.2-.28.35-.6.41-.93.06-.28,4.23-24.93-22.19-33.35.14-.45.21-.9.21-1.4,0-.6-.14-1.48-.71-2.31-.81-1.19-2.27-1.9-3.95-1.9-5.2,0-8.14,1.07-11.12,2.15-17.65,4.42-30.05,16.09-33.74,31.53-1.8-.21-3.99-.4-6.31-.4-8.12,0-14.23,2.27-18.01,6.61,0,0,95.41,0,95.41,0ZM107.79,414.63c-.17,7.03,2.41,13.13,7.71,18.25-1.31.45-2.5.95-3.58,1.43-5.38-5.65-8.16-11.61-8.33-17.82,1.3-.67,2.7-1.31,4.21-1.87ZM94.88,423.03c1.03,4.85,3.29,9.46,6.81,13.78-1.67.38-3.19.85-4.6,1.38-2.04-.42-4.25-.6-6.6-.6-1.49,0-2.93.09-4.23.18,1.54-5.55,4.49-10.59,8.62-14.75Z"/>
  <path class="cls-16" d="M142.14,444.22c-.39-.72-.75-1.43-1.25-2.17-11.05-15.79-28.56-4.51-30.57-3.95-1.34.38-12.37.75-17.81,6.12,0,0,49.64,0,49.64,0Z"/>
  <path class="cls-23" d="M100.1,414.2c-.77.6-1.62,1.02-2.47,1.5-.71,14.88,10.72,23.97,14.73,27.37,0,0,1.83-.35,3.31-1.26-3.84-3.27-16.66-12.83-15.56-27.61Z"/>
  <path class="cls-32" d="M104.15,444.22c-8.3-6.63-22.15-2.95-23.92-2.95s-16.25-3.62-24.26,2.95h48.18Z"/>
  <path class="cls-7" d="M81.79,444.22c1.19-16.17,12.69-30.9,34.06-34.8v-1.48c-26.43,4.33-36.2,22.12-37.3,36.28h3.24Z"/>
  <path class="cls-7" d="M120.83,406.96c-4.72,0-7.13.96-10.07,2.01.67.44.79,1.08,1.03,1.31,1.49.45,4.86-.73,8.62,0,1.94.39,2.24-3.33.42-3.33Z"/>
  <path class="cls-7" d="M111.68,410c-5.35,27.61,32.37,32.91,32.37,32.91,0,0-18.54-25.51-32.37-32.91Z"/>
  <path class="cls-22" d="M111.68,410c12.26,8.64,32.37,32.91,32.37,32.91,0,0,5.61-29.87-32.37-32.91Z"/>
  <path class="cls-33" d="M56.43,170.2c.23,12.25,12.08,21.55,12.72,22.03.62.49,1.65.75,2.37.73.9,0,1.73-.31,2.34-.82.09-.06,1.37-1.14,3.05-3,2.03,2.37,4.33,4.57,6.93,6.58,10.32,8.03,23.76,12.82,35.96,12.82,4.22,0,8.17-.55,11.84-1.65,3.85-.03,11.74-.41,14.81-2.79,2.98-2.31,3.51-9.48,3.61-11.48,3.46-6.89,3.13-14.85-.5-22.42H56.43Z"/>
  <path class="cls-24" d="M72.04,170.2c.16,8.06,4.9,16.59,14.11,23.75,13.18,10.22,31.19,14.76,44.84,10.43-.02,0,10.46.03,13.12-2.06,2.31-1.78,2.67-10.19,2.67-10.21,3.46-6.56,3.08-14.43-.78-21.91,0,0-73.96,0-73.96,0Z"/>
  <path class="cls-7" d="M69.37,170.2c.35,10.43,2.07,20.24,2.07,20.24,0,0,10.59-8.87,11.02-20.24h-13.09Z"/>
  <path class="cls-22" d="M59.72,170.2c.29,11.46,11.72,20.24,11.72,20.24,0,0-.99-9.79-1.18-20.24h-10.55Z"/>
  <path class="cls-33" d="M106.93,361.3h-52.38s4.1-38.17,33.77-63.4c0,0-32.25-10-41.68,15.82h-12.14v-49.42h12.14v5.41s32.27-21.32,67.49,2.59l5.77-3.3,19.02.25s-31.99,33.34-31.99,92.06Z"/>
  <path class="cls-12" d="M102.6,356.98h-42.76s6.42-36.93,37.61-61.62c0,0-40.71-15.47-53.93,14.8h-5.38v-41.57h4.88v7.47s38.66-24.72,71.12,1.83l6.73-4.58h9.85s-28.12,35-28.12,83.67Z"/>
  <path class="cls-26" d="M174.21,444.22h129.45c10.36-89.05,10.36-184.97,0-274.02h-129.45c-10.37,89.05-10.37,184.97,0,274.02Z"/>
  <path class="cls-33" d="M225.32,426.63c-6.56,3.06-12.49,9.27-16.97,17.59h64.84c-5.66-8.9-11.27-14.58-17.38-17.55,5.39-3.08,12.71-8.8,8.22-17.61-.62-1.25-2.41-1.95-4.08-1.59-1.52.3-3.12.5-4.82.58-.32-.18-.65-.35-.97-.56-3.25-1.82-8.55-4.22-15.94-2.24-.2-.09-.4-.15-.61-.23-3.84-1.55-7.75.15-10.17,1.6-2.36,1.43-3.46,1.96-5.61,1.08-.69-.32-1.54-.4-2.32-.28-1.03.17-1.92.68-2.4,1.38-3.99,5.95-.96,12.35,8.22,17.83Z"/>
  <path class="cls-27" d="M260.8,410.02c-9.16,1.89-18.69-.2-24.83-2.65-5.51-2.24-8,5.9-15.82,2.65,3.73,11.25,40.68,14.43,40.65,0Z"/>
  <path class="cls-5" d="M232.53,427.21c-7.22.9-14.81,7.01-20.46,17h57.24c-7.42-11.25-14.11-15.86-20.65-17.08,7.32-3.48,16.57-8.43,12.15-17.12-6.28,4.5-8.71-2.97-16.71-2.97-9.04,0-17.12,8.48-23.96,2.97-4.93,7.41,5.17,14,12.39,17.2Z"/>
  <path class="cls-27" d="M241.08,429.36c8.19-14.23.33-7.94,2.01-18.18.83-5.08-12.34-2.43-2.01,18.18Z"/>
  <path class="cls-27" d="M236.64,428.75c.33-8.52-10.53-9.77-12.08-14.35-1.12-3.26-5.88,3.02,12.08,14.35Z"/>
  <path class="cls-27" d="M242.59,428.38c11.22-9.78,6.76-11.49,14.52-13.2,3.64-.79,0,8.02-14.52,13.2Z"/>
  <path class="cls-27" d="M243.05,428.01c8.07-1.05,18.75,6.68,12.56,6.92-3.8.15-2.07-5-12.56-6.92Z"/>
  <path class="cls-27" d="M241.83,428.12c6.85,1.1,7.94,7.68,3.18,6.5-2.9-.72,2.85-3.23-3.18-6.5Z"/>
  <path class="cls-27" d="M236.9,427.89c-8.06-1.31-18.75,8.25-12.55,8.52,3.8.18,2.08-6.17,12.55-8.52Z"/>
  <path class="cls-27" d="M240.72,427.98c-6.85,1.37-7.73,10.14-2.98,8.64,2.89-.91-2.99-4.37,2.98-8.64Z"/>
  <path class="cls-6" d="M250.39,428.31c-6.29,1.57-13.37,1.57-19.66,0-2.36-.58-1.91-2.71-.03-2.22,5.21,1.52,14.4,1.52,19.62.02,1.86-.51,2.42,1.62.08,2.2Z"/>
  <path class="cls-33" d="M287.45,171.92c.02-.07.12-.72.2-1.73h-88.77c-3.93,2.66-6.37,6.69-7.02,12.03-.9,7.4,1.6,13.82,7.22,18.55,5.82,4.91,14.72,7.72,24.38,7.72s18.76-2.85,24.58-7.71c2.59.6,5.37.9,8.22.9,11.15,0,22.34-4.68,27.83-11.63,3.97-5.04,4.73-10.8,2.22-16.56.62-.39,1.04-.96,1.15-1.58Z"/>
  <path class="cls-16" d="M280.72,170.2h-42.01c-4.79,2.34-8.43,6.53-5.85,14.25,9.52,28.52,65.64,11.08,48.3-13.7-.12-.21-.28-.36-.44-.55Z"/>
  <path class="cls-32" d="M241.12,170.2h-36.19c-4.83,1.56-8.97,5.02-9.85,12.25-3.87,32.18,62.34,30.63,56.41,0-1.4-7.2-5.61-10.68-10.37-12.25Z"/>
  <path class="cls-33" d="M259.17,361.3h-52.41s4.12-38.17,33.76-63.4c0,0-32.23-10-41.65,15.82h-12.15v-49.42h12.15v5.41s32.26-21.32,67.49,2.59l5.77-3.3,19.01.25s-31.97,33.34-31.97,92.06Z"/>
  <path class="cls-28" d="M254.81,356.98h-42.78s6.42-36.93,37.63-61.62c0,0-40.72-15.47-53.96,14.8h-5.38v-41.57h4.91v7.47s38.65-24.72,71.12,1.83l6.73-4.58h9.84s-28.11,35-28.11,83.67Z"/>
  <path class="cls-26" d="M308.74,444.22h129.45c34.12-89.05,34.12-184.97,0-274.02h-129.45c13.44,89.05,13.44,184.97,0,274.02Z"/>
  <path class="cls-33" d="M334.74,431.04c-.33,1,.12,2.03,1.14,2.68,1.03.65,2.44.8,3.64.37.26-.1.54-.2.79-.32,2.55,3.7,5.15,7.17,7.76,10.45h68.09c-2.25-1.24-4.58-2.47-7.07-3.76-10.07-5.25-22.43-11.68-34.82-21.75.06-.03.1-.07.15-.09,1.14-.56,1.7-1.61,1.48-2.65-.23-1.03-1.25-1.85-2.56-2.12-3.55-.67-5.6-2.17-7.79-3.74-3.3-2.38-7.63-5.03-14.79-3.58-.41-.5-.93-1-1.58-1.4-.58-.37-1.62-.82-3.19-.82-2.24,0-5.28.95-6.46,2.7-.77,1.12-.67,2.41.24,3.43.11.1.2.21.3.32-7.08,4.68-6.17,10.67-5.49,15.16.29,1.97.57,3.81.17,5.12Z"/>
  <path class="cls-34" d="M352.09,444.22h57.99c-12.3-6.45-28.44-14.32-44.31-28.82-9.27-10.8-31.68.85-26.8,10.55,4.32,6.9,8.72,12.92,13.12,18.27Z"/>
  <path class="cls-2" d="M346.95,407.17c-1.19-.73-5.4.65-4.39,1.78,8.12,9.06,7.39.1,4.39-1.78Z"/>
  <path class="cls-7" d="M347.02,410.44c-15.35,5.7-7.03,15.27-8.98,21.25,9.52-3.4,6.08-14.97,10.53-19.08,6.03-1.2,14.92,8.48,23.89,3.81-11.57-2.22-10.5-11.54-25.45-5.98Z"/>
  <path class="cls-3" d="M348.28,429.78c18.72-11.37,3.83-21.6-1.26-19.35-7.88,3.46,2.53,7.16,1.26,19.35Z"/>
  <path class="cls-33" d="M426.15,194.84c-3.35-4.25-11.49-15.21-14.46-24.65h-60.31c-3.99,11.87-16.69,26.32-16.84,26.5-.16.19-.29.38-.39.58-.43.67-.62,1.33-.62,2.01,0,8.03,30.09,9.23,48.03,9.23s48.04-1.2,48.04-9.23c0-1.18-.61-2.88-3.45-4.44Z"/>
  <path class="cls-25" d="M354.71,170.2c-3.99,12.65-17.49,27.91-17.49,27.91l87.62-.13s-12.79-15.16-16.55-27.78h-53.57Z"/>
  <path class="cls-21" d="M426.31,199.29c0,8.95-89.55,8.95-89.55,0,0-9.82,89.55-9.82,89.55,0Z"/>
  <path class="cls-1" d="M421.88,199.64c0,7.2-80.69,7.2-80.69,0,0-7.93,80.69-7.93,80.69,0Z"/>
  <path class="cls-21" d="M366.47,193.81c1.22,15.42,28.9,15.42,30.13,0-9.4-.61-20.72-.61-30.13,0Z"/>
  <path class="cls-33" d="M411.38,361.3h-52.39s4.12-38.17,33.77-63.4c0,0-32.23-10-41.66,15.82h-12.15v-49.42h12.15v5.41s32.26-21.32,67.5,2.59l5.77-3.3,19.02.25s-32,33.34-32,92.06Z"/>
  <path class="cls-29" d="M407.06,356.98h-42.78s6.43-36.93,37.63-61.62c0,0-40.72-15.47-53.96,14.8h-5.38v-41.57h4.9v7.47s38.64-24.72,71.12,1.83l6.72-4.58h9.84s-28.1,35-28.1,83.67Z"/>
  <path class="cls-30" d="M463.79,307.2c0-75.64-25.59-137.69-25.59-137.69H39.67s-25.6,62.75-25.6,137.69,25.6,137.7,25.6,137.7h398.52s25.6-61.7,25.6-137.7Z"/>
</svg>