<?xml version="1.0" encoding="UTF-8"?>
<svg id="Layer_1" data-name="Layer 1" xmlns="http://www.w3.org/2000/svg" xmlns:xlink="http://www.w3.org/1999/xlink" viewBox="0 0 511.96 512">
  <defs>
    <style>
      .cls-1 {
        fill: #7a420c;
      }

      .cls-2 {
        fill: url(#linear-gradient-2);
      }

      .cls-3 {
        fill: #b5bec2;
      }

      .cls-4 {
        fill: #99a8ae;
      }

      .cls-5 {
        fill: url(#linear-gradient);
      }

      .cls-6 {
        fill: #c3ccd1;
      }

      .cls-7 {
        fill: #7e8387;
      }

      .cls-8 {
        fill: #e6f1f7;
      }

      .cls-9 {
        fill: #a0a7ab;
      }

      .cls-10 {
        fill: #e5bc5e;
      }

      .cls-11 {
        fill: #302c3b;
      }
    </style>
    <linearGradient id="linear-gradient" x1="670.1" y1="428.84" x2="451.1" y2="647.84" gradientTransform="translate(-636.21 326.71) rotate(45) scale(1 -1)" gradientUnits="userSpaceOnUse">
      <stop offset="0" stop-color="#ab5c10"/>
      <stop offset="1" stop-color="#ea8800"/>
    </linearGradient>
    <linearGradient id="linear-gradient-2" x1="547.59" y1="754.89" x2="584.45" y2="754.89" gradientTransform="translate(-636.21 326.71) rotate(45) scale(1 -1)" gradientUnits="userSpaceOnUse">
      <stop offset="0" stop-color="#916958"/>
      <stop offset=".21" stop-color="#8b6454"/>
      <stop offset=".49" stop-color="#7b5748"/>
      <stop offset=".8" stop-color="#5f4034"/>
      <stop offset="1" stop-color="#4a2f24"/>
    </linearGradient>
  </defs>
  <rect class="cls-3" x="412.09" y="46.36" width="3.84" height="6.88" transform="translate(22.73 193.97) rotate(-27.09)"/>
  <path class="cls-6" d="M407.43,49.32c-1.28-.56-2.88-3.68-2.56-5.04.56-2.72,7.28-5.92,10-5.12,1.36.4,3.04,3.68,2.56,5.04-.88,2.64-7.44,6.24-10,5.12Z"/>
  <rect class="cls-3" x="426.24" y="38.5" width="3.84" height="6.88" transform="translate(27.85 199.53) rotate(-27.08)"/>
  <path class="cls-6" d="M421.51,41.4c-1.28-.56-2.88-3.68-2.56-5.04.56-2.72,7.28-5.92,10-5.12,1.36.4,3.04,3.68,2.56,5.04-.88,2.72-7.44,6.32-10,5.12Z"/>
  <rect class="cls-3" x="440.21" y="30.75" width="3.84" height="6.88" transform="translate(32.9 205) rotate(-27.08)"/>
  <path class="cls-6" d="M435.59,33.72c-1.28-.56-2.88-3.68-2.56-5.04.56-2.72,7.28-5.92,10-5.12,1.28.48,2.96,3.76,2.56,5.04-.88,2.72-7.44,6.24-10,5.12Z"/>
  <rect class="cls-3" x="454.25" y="23.12" width="3.84" height="6.88" transform="translate(37.91 210.56) rotate(-27.08)"/>
  <path class="cls-6" d="M449.58,26.04c-1.28-.56-2.88-3.68-2.56-5.04.56-2.72,7.28-5.92,10-5.12,1.36.4,3.04,3.68,2.56,5.04-.88,2.72-7.44,6.24-10,5.12Z"/>
  <rect class="cls-3" x="468.48" y="15.08" width="3.84" height="6.88" transform="translate(43.15 216.19) rotate(-27.08)"/>
  <path class="cls-6" d="M463.82,18.04c-1.28-.56-2.88-3.68-2.56-5.04.56-2.72,7.28-5.92,10-5.12,1.36.4,3.04,3.68,2.56,5.04-.88,2.72-7.44,6.24-10,5.12Z"/>
  <rect class="cls-3" x="482.97" y="7.32" width="3.84" height="6.88" transform="translate(48.3 221.99) rotate(-27.09)"/>
  <path class="cls-6" d="M478.3,10.28c-1.28-.56-2.88-3.68-2.56-5.04.56-2.72,7.28-5.92,10-5.12,1.36.4,3.04,3.68,2.56,5.04-.88,2.72-7.44,6.24-10,5.12Z"/>
  <path class="cls-1" d="M212.99,258.87c-18.64,6.88-32.07-15.52-14-35.19,15.12-16.56,10.96-43.11-11.36-32.87-36.07,16.64-46.15,76.94-74.31,105.1-14.96,14.96-85.98,13.84-104.3,46.47-23.84,42.47,3.44,90.06,36.23,123.42,57.83,58.87,93.34,52.79,119.1,29.51,37.59-33.99,31.67-71.27,46.15-93.02,15.6-23.36,43.43-17.28,60.31-37.59,22.24-26.71,8.08-55.43-4.48-43.27-17.6,17.04-52.71,17.28-50.71-.64l-2.64-61.91Z"/>
  <path class="cls-5" d="M215.79,255.03c-23.76,15.76-40.79-23.92-16.48-45.27,16-14,3.12-29.03-19.12-18.8-36.07,16.64-38.63,59.51-66.79,87.66-14.96,14.96-66.71,23.12-93.1,49.51-41.67,41.75-6.88,86.54,25.12,120.38,55.51,58.71,98.54,58.31,122.22,30.95,34.31-39.67,27.43-74.31,45.19-93.5,13.76-14.88,43.11-12.72,59.67-37.11,19.36-28.55-.88-37.59-13.36-25.75-17.76,16.88-45.51-3.44-43.59-21.36l.24-46.71Z"/>
  <path class="cls-1" d="M193.79,191.61c3.68,0,6.64,1.2,7.92,3.12,1.92,2.96-.08,7.68-5.04,12.08-16.16,14.16-16.24,35.75-7.12,47.67,4,5.28,9.52,8.16,15.52,8.16,2.24,0,4.48-.4,6.72-1.12l-.16,39.83c-1.2,10.8,6.56,22.88,18.48,28.79,4.48,2.24,9.04,3.28,13.52,3.28,6.88,0,13.2-2.56,18.32-7.44,2.64-2.48,5.84-4,8.72-4,1.52,0,2.88.48,3.84,1.28,3.04,2.64,3.52,10.24-5.36,23.36-8.88,13.12-21.76,17.92-34.15,22.64-9.6,3.6-18.64,7.04-25.12,14-8.16,8.8-11.44,20.24-15.2,33.43-4.88,16.88-10.88,37.91-30.15,60.15-9.04,10.48-20.8,16.16-34.07,16.48h-.96c-23.76,0-51.91-16.4-81.26-47.51-33.67-35.59-62.95-77.02-25.2-114.78,14.48-14.48,37.11-23.36,57.11-31.19,15.6-6.08,29.03-11.36,36.07-18.4,12.08-12.08,19.52-26.55,26.71-40.63,9.76-19.04,19.04-37.03,38.87-46.23,4.32-1.92,8.48-2.96,12-2.96M193.79,189.61c-3.52,0-7.84.96-12.8,3.2-20.56,9.44-29.91,27.75-39.83,47.19-7.12,13.92-14.48,28.23-26.31,40.07-6.72,6.72-20,11.92-35.35,17.92-20.16,7.92-42.95,16.8-57.75,31.59-38.95,38.95-9.12,81.34,25.2,117.58,29.83,31.59,58.31,48.15,82.7,48.15h1.04c13.84-.32,26.07-6.24,35.51-17.12,19.52-22.56,25.67-43.83,30.55-60.95,3.68-12.96,6.96-24.16,14.72-32.63,6.08-6.64,14.96-9.92,24.32-13.52,12.72-4.8,25.91-9.76,35.11-23.44,9.6-14.16,8.88-22.72,4.96-25.99-1.36-1.2-3.2-1.76-5.2-1.76-3.28,0-6.96,1.6-10.08,4.56-4.8,4.56-10.64,6.88-16.88,6.88-4.16,0-8.4-1.04-12.64-3.12-11.2-5.52-18.48-16.8-17.36-26.71l.16-43.03c-2.96,1.44-5.92,2.16-8.72,2.16-5.28,0-10.24-2.48-13.92-7.36-8.56-11.2-8.4-31.59,6.88-44.95,5.84-5.12,7.92-10.72,5.36-14.64-1.6-2.4-4.96-4.08-9.68-4.08h0Z"/>
  <path class="cls-11" d="M164.04,454.6c-3.44,3.44-9.04,3.44-12.56,0-3.44-3.44-3.44-9.04,0-12.56,3.44-3.44,9.04-3.44,12.56,0,3.44,3.44,3.44,9.12,0,12.56Z"/>
  <circle class="cls-7" cx="157.8" cy="448.28" r="6.48"/>
  <path class="cls-11" d="M162.52,427.16c-3.44,3.44-9.04,3.44-12.56,0-3.44-3.44-3.44-9.04,0-12.56,3.44-3.44,9.04-3.44,12.56,0,3.44,3.44,3.44,9.04,0,12.56Z"/>
  <circle class="cls-7" cx="156.2" cy="420.84" r="6.48"/>
  <path class="cls-11" d="M154.6,400.77c-3.44,3.44-9.04,3.44-12.56,0-3.44-3.44-3.44-9.04,0-12.56,3.44-3.44,9.04-3.44,12.56,0,3.44,3.44,3.44,9.12,0,12.56Z"/>
  <circle class="cls-7" cx="148.36" cy="394.45" r="6.48"/>
  <path class="cls-11" d="M187.63,327.18l-23.84-23.84c-2.24-2.24-2.24-5.84,0-8h0c2.24-2.24,5.84-2.24,8,0l23.84,23.84c2.24,2.24,2.24,5.84,0,8h0c-2.16,2.24-5.76,2.24-8,0Z"/>
  <path class="cls-9" d="M169.16,300.63c-1.68,1.68-4.24-.88-2.56-2.56,1.68-1.68,4.24.88,2.56,2.56Z"/>
  <path class="cls-9" d="M173.88,305.43c-1.68,1.68-4.24-.88-2.56-2.56s4.24.8,2.56,2.56Z"/>
  <path class="cls-9" d="M178.6,310.14c-1.68,1.68-4.24-.88-2.56-2.56,1.76-1.68,4.32.88,2.56,2.56Z"/>
  <path class="cls-9" d="M183.4,314.86c-1.68,1.68-4.24-.88-2.56-2.56s4.24.88,2.56,2.56Z"/>
  <path class="cls-9" d="M188.11,319.66c-1.68,1.68-4.24-.88-2.56-2.56,1.76-1.68,4.24.88,2.56,2.56Z"/>
  <path class="cls-9" d="M192.91,324.38c-1.68,1.68-4.24-.88-2.56-2.56s4.24.88,2.56,2.56Z"/>
  <path class="cls-11" d="M160.44,354.38l-23.84-23.84c-2.24-2.24-2.24-5.84,0-8h0c2.24-2.24,5.84-2.24,8,0l23.84,23.84c2.24,2.24,2.24,5.84,0,8h0c-2.24,2.24-5.84,2.24-8,0Z"/>
  <path class="cls-9" d="M141.88,327.9c-1.68,1.68-4.24-.88-2.56-2.56s4.24.8,2.56,2.56Z"/>
  <path class="cls-9" d="M146.6,332.62c-1.68,1.68-4.24-.88-2.56-2.56,1.76-1.68,4.32.88,2.56,2.56Z"/>
  <path class="cls-9" d="M151.4,337.34c-1.68,1.68-4.24-.88-2.56-2.56s4.24.88,2.56,2.56Z"/>
  <path class="cls-9" d="M156.12,342.14c-1.68,1.68-4.24-.88-2.56-2.56,1.76-1.68,4.24.88,2.56,2.56Z"/>
  <path class="cls-9" d="M160.92,346.86c-1.68,1.68-4.24-.88-2.56-2.56s4.24.88,2.56,2.56Z"/>
  <path class="cls-9" d="M165.64,351.66c-1.68,1.68-4.24-.88-2.56-2.56,1.76-1.68,4.24.8,2.56,2.56Z"/>
  <path class="cls-11" d="M131.65,381.81l-19.36-27.59c-1.76-2.56-1.2-6.08,1.36-7.92h0c2.56-1.76,6.08-1.2,7.92,1.36l19.36,27.59c1.76,2.56,1.2,6.08-1.36,7.92h0c-2.56,1.76-6.08,1.2-7.92-1.36Z"/>
  <path class="cls-9" d="M118.05,352.46c-2,1.36-4-1.6-2.08-2.96,1.92-1.36,4,1.52,2.08,2.96Z"/>
  <path class="cls-9" d="M121.89,357.89c-2,1.36-4-1.6-2.08-2.96,2-1.36,4,1.6,2.08,2.96Z"/>
  <path class="cls-9" d="M125.73,363.41c-2,1.36-4-1.6-2.08-2.96,2-1.36,4.08,1.6,2.08,2.96Z"/>
  <path class="cls-9" d="M129.57,368.93c-2,1.36-4-1.6-2.08-2.96,2-1.36,4.08,1.6,2.08,2.96Z"/>
  <path class="cls-9" d="M133.41,374.45c-2,1.36-4-1.6-2.08-2.96,2-1.36,4.08,1.6,2.08,2.96Z"/>
  <path class="cls-9" d="M137.32,379.97c-2,1.36-4-1.6-2.08-2.96s4,1.52,2.08,2.96Z"/>
  <path class="cls-6" d="M176.12,411c-.16-.16-.32-.4-.24-.72l.96-16.4c0-.48.48-.88.96-.88s.88.48.88.96l-.96,16.4c0,.48-.48.88-.96.88-.24.08-.48-.08-.64-.24Z"/>
  <path class="cls-11" d="M178.68,404.85c-2.64,2.64-6.56-1.28-3.92-3.92,2.64-2.64,6.56,1.28,3.92,3.92Z"/>
  <path class="cls-9" d="M80.3,380.45l35.27,35.27c1.12,1.12,2.88,1.12,3.92,0l7.28-7.28c1.28-1.28,1.28-3.28,0-4.48h0c-1.28-1.28-1.28-3.28,0-4.48l1.92-1.92c1.68-1.68,1.68-4.48,0-6.16l-28.47-28.47c-1.68-1.68-4.48-1.68-6.16,0l-13.76,13.76c-1.12.96-1.12,2.72,0,3.76Z"/>
  <path class="cls-6" d="M88.85,383.57l-4.64-4.64,8.16-8.16c1.28-1.28,3.36-1.28,4.64,0h0c1.28,1.28,1.28,3.36,0,4.64l-8.16,8.16Z"/>
  <path class="cls-3" d="M88.85,383.57l-4.64-4.64.24-.24c1.28-1.28,3.36-1.28,4.64,0h0c1.28,1.28,1.28,3.36,0,4.64l-.24.24Z"/>
  <rect class="cls-6" x="81.85" y="381.95" width="5.52" height="2.56" transform="translate(-246.2 172.07) rotate(-45)"/>
  <path class="cls-6" d="M93.73,388.53l-4.64-4.64,8.16-8.16c1.28-1.28,3.36-1.28,4.64,0h0c1.28,1.28,1.28,3.36,0,4.64l-8.16,8.16Z"/>
  <path class="cls-3" d="M93.73,388.53l-4.64-4.64.24-.24c1.28-1.28,3.36-1.28,4.64,0h0c1.28,1.28,1.28,3.36,0,4.64l-.24.24Z"/>
  <rect class="cls-6" x="86.71" y="386.87" width="5.52" height="2.56" transform="translate(-248.26 176.95) rotate(-45)"/>
  <path class="cls-6" d="M98.69,393.41l-4.64-4.64,8.16-8.16c1.28-1.28,3.36-1.28,4.64,0h0c1.28,1.28,1.28,3.36,0,4.64l-8.16,8.16Z"/>
  <path class="cls-3" d="M98.69,393.41l-4.64-4.64.24-.24c1.28-1.28,3.36-1.28,4.64,0h0c1.28,1.28,1.28,3.36,0,4.64l-.24.24Z"/>
  <rect class="cls-6" x="91.68" y="391.79" width="5.52" height="2.56" transform="translate(-250.28 181.9) rotate(-45)"/>
  <path class="cls-6" d="M103.57,398.37l-4.64-4.64,8.16-8.16c1.28-1.28,3.36-1.28,4.64,0h0c1.28,1.28,1.28,3.36,0,4.64l-8.16,8.16Z"/>
  <path class="cls-3" d="M103.57,398.37l-4.64-4.64.24-.24c1.28-1.28,3.36-1.28,4.64,0h0c1.28,1.28,1.28,3.36,0,4.64l-.24.24Z"/>
  <rect class="cls-6" x="96.52" y="396.7" width="5.52" height="2.56" transform="translate(-252.27 186.66) rotate(-44.98)"/>
  <path class="cls-6" d="M108.53,403.25l-4.64-4.64,8.16-8.16c1.28-1.28,3.36-1.28,4.64,0h0c1.28,1.28,1.28,3.36,0,4.64l-8.16,8.16Z"/>
  <path class="cls-3" d="M108.53,403.25l-4.64-4.64.24-.24c1.28-1.28,3.36-1.28,4.64,0h0c1.28,1.28,1.28,3.36,0,4.64l-.24.24Z"/>
  <rect class="cls-6" x="101.51" y="401.63" width="5.52" height="2.56" transform="translate(-254.36 191.74) rotate(-45)"/>
  <path class="cls-6" d="M113.41,408.2l-4.64-4.64,8.16-8.16c1.28-1.28,3.36-1.28,4.64,0h0c1.28,1.28,1.28,3.36,0,4.64l-8.16,8.16Z"/>
  <path class="cls-3" d="M113.41,408.2l-4.64-4.64.24-.24c1.28-1.28,3.36-1.28,4.64,0h0c1.28,1.28,1.28,3.36,0,4.64l-.24.24Z"/>
  <rect class="cls-6" x="106.45" y="406.51" width="5.52" height="2.56" transform="translate(-256.42 196.76) rotate(-45.02)"/>
  <path class="cls-3" d="M100.93,368.37c-2.24,2.24-5.52-1.12-3.28-3.28,2.16-2.24,5.52,1.04,3.28,3.28Z"/>
  <path class="cls-3" d="M126.77,394.13c-2.24,2.24-5.52-1.12-3.28-3.28,2.16-2.16,5.44,1.12,3.28,3.28Z"/>
  <path class="cls-9" d="M113.57,345.66c-2.24,2.24-5.52-1.12-3.28-3.28,2.16-2.24,5.44,1.04,3.28,3.28Z"/>
  <path class="cls-9" d="M142.76,387.09c-2.24,2.24-5.52-1.12-3.28-3.28,2.24-2.24,5.52,1.04,3.28,3.28Z"/>
  <path class="cls-9" d="M171.96,358.69c-2.24,2.24-5.52-1.12-3.28-3.28,2.16-2.24,5.44,1.04,3.28,3.28Z"/>
  <path class="cls-9" d="M136.21,322.54c-2.24,2.24-5.52-1.12-3.28-3.28,2.16-2.24,5.52,1.04,3.28,3.28Z"/>
  <path class="cls-9" d="M163.56,295.11c-2.24,2.24-5.52-1.12-3.28-3.28,2.24-2.24,5.52,1.04,3.28,3.28Z"/>
  <path class="cls-9" d="M199.31,330.86c-2.24,2.24-5.52-1.12-3.28-3.28,2.16-2.24,5.44,1.04,3.28,3.28Z"/>
  <path class="cls-9" d="M179.4,390.45c-2.24,2.24-5.52-1.12-3.28-3.28,2.24-2.24,5.52,1.04,3.28,3.28Z"/>
  <path class="cls-9" d="M178.68,417.56c-2.24,2.24-5.52-1.12-3.28-3.28,2.16-2.24,5.44,1.04,3.28,3.28Z"/>
  <path class="cls-6" d="M121.89,425.56c-17.36.56-6.08,52.87,3.6,52.23,10.72-.72,13.68-52.79-3.6-52.23Z"/>
  <path class="cls-9" d="M116.53,441.56c-1.76,17.52,4,31.19,9.44,30.39,5.28-.88,6.8-14.08,4.32-30.79-.4-3.04-13.44-2.4-13.76.4Z"/>
  <path class="cls-9" d="M123.73,431.24c-2.24,2.24-5.52-1.12-3.28-3.28,2.16-2.24,5.52,1.12,3.28,3.28Z"/>
  <path class="cls-9" d="M127.41,476.67c-2.24,2.24-5.52-1.12-3.28-3.28,2.16-2.24,5.44,1.04,3.28,3.28Z"/>
  <path class="cls-7" d="M127.81,446.44c0,3.44-8.88,3.44-8.88,0,0-3.44,8.88-3.44,8.88,0Z"/>
  <path class="cls-11" d="M398.71,72.67c3.84-3.84-2.56-12.64,1.92-15.2,22.64-12.64,77.9-43.19,89.58-48.31,12.48-5.44,31.11,12.8,16.24,28.07-4.24,4.4-8.96,7.92-24,3.92-4.16-1.12-21.6,36.07-32.63,43.59-18-5.76-31.43,7.52-31.43,7.52,0,0-10.24-5.36-19.68-19.6Z"/>
  <path class="cls-2" d="M418.31,92.27l-19.68-19.68-219.48,213.16c-2.88,2.72-2.88,7.28-.08,10.08l16,16c2.8,2.8,7.36,2.8,10.08-.08l213.16-219.48Z"/>
  <polygon class="cls-10" points="398.79 112.42 378.56 92.19 377.44 93.23 397.75 113.54 398.79 112.42"/>
  <polygon class="cls-10" points="416.79 93.87 397.11 74.19 394.95 76.27 414.71 96.03 416.79 93.87"/>
  <polygon class="cls-10" points="383.12 128.58 362.4 107.86 361.28 108.98 382 129.7 383.12 128.58"/>
  <polygon class="cls-10" points="368.32 143.86 347.12 122.66 346 123.78 367.2 144.98 368.32 143.86"/>
  <polygon class="cls-10" points="354.32 158.17 332.81 136.58 331.69 137.7 353.28 159.29 354.32 158.17"/>
  <polygon class="cls-10" points="341.2 171.69 319.29 149.78 318.17 150.82 340.17 172.81 341.2 171.69"/>
  <polygon class="cls-10" points="328.89 184.41 306.57 162.09 305.45 163.13 327.85 185.53 328.89 184.41"/>
  <polygon class="cls-10" points="317.05 196.57 294.33 173.93 293.29 174.97 316.01 197.69 317.05 196.57"/>
  <polygon class="cls-10" points="306.33 207.6 283.38 184.65 282.26 185.69 305.29 208.72 306.33 207.6"/>
  <polygon class="cls-10" points="295.93 218.4 272.58 195.05 271.46 196.17 294.81 219.52 295.93 218.4"/>
  <polygon class="cls-10" points="286.02 228.56 262.42 204.96 261.3 206 284.98 229.68 286.02 228.56"/>
  <polygon class="cls-10" points="276.74 238.16 252.82 214.24 251.7 215.36 275.62 239.28 276.74 238.16"/>
  <polygon class="cls-10" points="268.26 246.88 244.1 222.72 242.98 223.76 267.22 248 268.26 246.88"/>
  <polygon class="cls-10" points="259.78 255.59 235.39 231.12 234.27 232.24 258.74 256.71 259.78 255.59"/>
  <polygon class="cls-10" points="252.26 263.43 227.55 238.72 226.51 239.84 251.14 264.47 252.26 263.43"/>
  <polygon class="cls-10" points="244.98 270.87 220.11 246 218.99 247.12 243.86 271.99 244.98 270.87"/>
  <polygon class="cls-10" points="238.03 277.99 212.99 252.88 211.87 254 236.99 279.11 238.03 277.99"/>
  <polygon class="cls-10" points="231.47 284.79 206.19 259.51 205.07 260.63 230.35 285.91 231.47 284.79"/>
  <polygon class="cls-10" points="225.23 291.27 199.71 265.75 198.67 266.87 224.11 292.31 225.23 291.27"/>
  <polygon class="cls-10" points="219.71 296.87 194.11 271.27 192.99 272.31 218.67 297.99 219.71 296.87"/>
  <polygon class="cls-10" points="214.19 302.63 188.35 276.79 187.24 277.91 213.07 303.67 214.19 302.63"/>
  <polygon class="cls-10" points="209.23 307.66 183.32 281.75 182.2 282.87 208.11 308.78 209.23 307.66"/>
  <path class="cls-10" d="M177.72,287.83l25.44,25.44c.48-.24.96-.48,1.36-.8l-25.91-25.91c-.4.4-.72.88-.88,1.28Z"/>
  <path class="cls-8" d="M366.24,128.02c-2.24,2.24-5.52-1.12-3.28-3.28,2.24-2.24,5.52,1.04,3.28,3.28Z"/>
  <path class="cls-8" d="M338.01,156.33c-2.24,2.24-5.52-1.12-3.28-3.28,2.16-2.24,5.44,1.04,3.28,3.28Z"/>
  <path class="cls-8" d="M312.97,181.29c-2.24,2.24-5.52-1.12-3.28-3.28,2.16-2.24,5.52,1.12,3.28,3.28Z"/>
  <path class="cls-8" d="M290.57,203.76c-2.24,2.24-5.52-1.12-3.28-3.28,2.16-2.24,5.44,1.04,3.28,3.28Z"/>
  <path class="cls-8" d="M237.47,256.79c-2.24,2.24-5.52-1.12-3.28-3.28,2.16-2.16,5.44,1.12,3.28,3.28Z"/>
  <path class="cls-8" d="M223.31,270.95c-2.24,2.24-5.52-1.12-3.28-3.28,2.16-2.24,5.52,1.12,3.28,3.28Z"/>
  <path class="cls-8" d="M210.83,283.43c-2.24,2.24-5.52-1.12-3.28-3.28,2.24-2.24,5.52,1.04,3.28,3.28Z"/>
  <path class="cls-8" d="M199.79,294.47c-2.24,2.24-5.52-1.12-3.28-3.28,2.16-2.24,5.52,1.12,3.28,3.28Z"/>
  <path class="cls-8" d="M256.42,227.52c-2.24,2.24-5.52-1.12-3.28-3.28s5.44,1.04,3.28,3.28Z"/>
  <path class="cls-8" d="M266.74,237.84c-2.24,2.24-5.52-1.12-3.28-3.28,2.16-2.24,5.44,1.04,3.28,3.28Z"/>
  <path class="cls-6" d="M115.09,409.88c-.08-.08-.24-.24-.32-.4-.48-.88-.24-2,.72-2.56l52.79-30.23,11.04-11.36c.72-.72,1.92-.72,2.64,0,.64.72.72,1.92,0,2.64l-11.2,11.6c-.16.16-.24.24-.4.32l-52.95,30.39c-.8.32-1.68.16-2.32-.4Z"/>
  <path class="cls-11" d="M171.88,371.01l12.96-12.96c1.28-1.28,3.36-1.28,4.56,0h0c1.28,1.28,1.28,3.36,0,4.56l-12.96,12.96c-1.28,1.28-5.84-3.28-4.56-4.56Z"/>
  <polygon class="cls-4" points="397.11 76.35 88.69 378.21 89.57 379.17 398.15 77.39 415.91 60.67 414.71 59.55 397.11 76.35"/>
  <polygon class="cls-4" points="400.23 79.47 93.57 383.09 94.53 384.05 401.27 80.59 429.99 52.83 429.11 52.03 400.23 79.47"/>
  <polygon class="cls-4" points="403.51 82.75 98.45 388.05 99.41 389.01 404.63 83.87 444.46 45.08 443.5 44.12 403.51 82.75"/>
  <polygon class="cls-4" points="458.46 37.56 457.58 36.68 406.87 86.11 103.41 392.93 104.37 393.89 407.91 87.23 458.46 37.56"/>
  <polygon class="cls-4" points="471.9 30.6 471.18 29.8 410.31 89.63 108.29 397.89 109.25 398.77 411.35 90.59 471.9 30.6"/>
  <polygon class="cls-4" points="414.39 93.63 487.1 21.64 486.7 21.16 413.51 92.75 113.17 402.77 114.21 403.73 414.39 93.63"/>
  <path class="cls-6" d="M418.55,61.15c-4.64,4.64-11.68-2.32-6.96-6.96s11.6,2.32,6.96,6.96Z"/>
  <path class="cls-3" d="M417.19,59.79c-2.8,2.8-7.04-1.44-4.24-4.24,2.8-2.88,7.04,1.36,4.24,4.24Z"/>
  <path class="cls-6" d="M432.95,53.79c-4.64,4.64-11.68-2.32-6.96-6.96,4.56-4.72,11.6,2.24,6.96,6.96Z"/>
  <path class="cls-3" d="M431.51,52.43c-2.8,2.8-7.04-1.44-4.24-4.24s7.12,1.36,4.24,4.24Z"/>
  <path class="cls-6" d="M447.34,45.64c-4.64,4.64-11.68-2.32-6.96-6.96s11.6,2.32,6.96,6.96Z"/>
  <path class="cls-3" d="M445.98,44.28c-2.8,2.88-7.12-1.36-4.24-4.24,2.8-2.8,7.04,1.44,4.24,4.24Z"/>
  <path class="cls-6" d="M461.34,38.04c-4.64,4.64-11.68-2.32-6.96-6.96,4.64-4.72,11.6,2.32,6.96,6.96Z"/>
  <path class="cls-3" d="M459.98,36.68c-2.8,2.8-7.04-1.44-4.24-4.24,2.8-2.88,7.04,1.36,4.24,4.24Z"/>
  <path class="cls-6" d="M475.98,30.36c-4.64,4.64-11.68-2.32-6.96-6.96,4.64-4.64,11.6,2.32,6.96,6.96Z"/>
  <path class="cls-3" d="M474.62,29c-2.8,2.8-7.04-1.44-4.24-4.24,2.8-2.8,7.04,1.44,4.24,4.24Z"/>
  <path class="cls-6" d="M489.98,22.84c-4.64,4.64-11.68-2.32-6.96-6.96,4.64-4.72,11.6,2.32,6.96,6.96Z"/>
  <path class="cls-3" d="M488.62,21.48c-2.8,2.8-7.04-1.44-4.24-4.24,2.8-2.88,7.04,1.36,4.24,4.24Z"/>
</svg>