<?xml version="1.0" encoding="UTF-8"?>
<svg id="Layer_1" data-name="Layer 1" xmlns="http://www.w3.org/2000/svg" xmlns:xlink="http://www.w3.org/1999/xlink" viewBox="0 0 392.55 512">
  <defs>
    <style>
      .cls-1 {
        fill: #473834;
      }

      .cls-2 {
        fill: url(#linear-gradient-3);
      }

      .cls-3 {
        fill: url(#linear-gradient-2);
      }

      .cls-4 {
        fill: #ffc940;
      }

      .cls-5 {
        fill: #1a1626;
      }

      .cls-6 {
        fill: url(#linear-gradient);
      }

      .cls-7 {
        fill: #f5bb51;
      }

      .cls-8 {
        fill: #fff;
      }

      .cls-9 {
        fill: #ff7a00;
      }

      .cls-10 {
        fill: #ab968c;
      }

      .cls-11 {
        fill: #966f42;
      }

      .cls-12 {
        fill: #f0a429;
      }

      .cls-13 {
        fill: #302c3b;
      }

      .cls-14 {
        fill: #f2f5f7;
      }
    </style>
    <linearGradient id="linear-gradient" x1="-1542.02" y1="124.47" x2="-1542.02" y2="122.39" gradientTransform="translate(-9661.5347 2954.6494) rotate(169.9999) scale(6.5701)" gradientUnits="userSpaceOnUse">
      <stop offset="0" stop-color="#a6694a"/>
      <stop offset="1" stop-color="#4f2a1e"/>
    </linearGradient>
    <linearGradient id="linear-gradient-2" x1="-1539.09" y1="124.47" x2="-1539.09" y2="122.39" gradientTransform="translate(-9678.9956 2957.7276) rotate(169.9999) scale(6.5701)" gradientUnits="userSpaceOnUse">
      <stop offset="0" stop-color="#a6694a"/>
      <stop offset="1" stop-color="#4f2a1e"/>
    </linearGradient>
    <linearGradient id="linear-gradient-3" x1="-3049.42" y1="2046.64" x2="-3049.42" y2="2117.68" gradientTransform="translate(-3202.5684 -1093.7963) rotate(170.0026) scale(1 -1)" gradientUnits="userSpaceOnUse">
      <stop offset="0" stop-color="#473834"/>
      <stop offset=".27" stop-color="#594640"/>
      <stop offset=".72" stop-color="#715950"/>
      <stop offset="1" stop-color="#7a6056"/>
    </linearGradient>
  </defs>
  <path class="cls-9" d="M.06,3.14S28.61-6.31,55.46,7.58l20.63,4.51c.32,2.9-.91,3.35-.91,3.35,0,0-19.13,6.68-73.97-9.37,0,0-1.54-.38-1.15-2.94Z"/>
  <path class="cls-13" d="M41.28,37.27C37.43,25.3-1.78,24.98,1.21,6.07c0,0,26.5-9.05,53.33,4.85l20.63,4.51c0,31.89-12.5,27.06-33.9,21.85Z"/>
  <path class="cls-9" d="M19.88,24.75c8.5-5.33,13.7-5.67,13.3-.91,5.5-2.41,7.7.79,7.15,3.57,5.63-1.19,6.6,3.55-.52,7.3-4.05,1.93-22.24-8.53-19.93-9.95Z"/>
  <path class="cls-7" d="M67.99,36.33c16.52,38.54,36.58,48.43,40.52,85.93,9.07,33.2,21.93,41.07,31.77,72.57-2.45,13.93-27.3,21.87-45.8,19.58-18.8-55.87-23.07-83.41-23.1-93.45-.02-7.57-.6-25.92-24.48-76.35-1.95-4.11,20.22-10.37,21.09-8.29Z"/>
  <path class="cls-14" d="M69.98,33.99c.72.49.61,8.05.61,8.05-5.75-2.73-20.91-1.57-23.7,2.59-1.08-2.4-2.24-4.8-3.34-7.29-1.33-3,18.83-8.33,26.42-3.35Z"/>
  <path class="cls-9" d="M392.55,156.32s-13.4-25.98-43.07-34.31l-18.2-10.77c-2.4,1.83-1.87,2.99-1.87,2.99,0,0,8.73,17.66,60.12,43.4,0,0,1.37.78,3.02-1.31Z"/>
  <path class="cls-13" d="M337.38,152.58c11.73-5.85,40.1,20.44,52.15,5.03,0,0-12.24-24.32-41.92-32.63l-18.2-10.77c-23.91,22.55-11.32,27.59,7.97,38.37Z"/>
  <path class="cls-9" d="M362.13,158.2c-2.12-9.5-5.58-13.27-8.87-9.63-2.13-5.44-6.12-4.65-7.82-2.31-3.13-4.65-7.38-1.96-5.1,5.51,1.47,4.1,22.37,8.99,21.79,6.43Z"/>
  <path class="cls-7" d="M319.55,133.5c-39.55,15.09-60.31,7.2-90.38,30.62-30.49,16.72-45.49,13.27-75.29,28.24-8.45,11.55,2.95,35.02,17.45,46.78,53.77-25.57,76.77-39.03,84.1-46.04,5.53-5.28,19.35-20.46,72.7-38.55,4.35-1.48-6.43-21.86-8.58-21.04Z"/>
  <path class="cls-14" d="M319.88,130.44c-.84-.18-6.28,5.18-6.28,5.18,5.98,2.25,15.62,14.02,14.53,18.94,2.5-.9,5.03-1.75,7.62-2.7,3.11-1.15-6.95-19.42-15.87-21.42Z"/>
  <path class="cls-13" d="M82.16,179.95s24.05-.14,51.02-16.1c0,0,7.05,20.85,14.41,27.56,9.65-6.3,31.44-16.3,31.44-16.3,0,0,5.63,29.18,31.5,48.07,0,0-36.44,21.79-45.42,36.63,0,0-35.74,13.51-73.48-11.02,0,0-9.74-39.82-9.47-68.85Z"/>
  <path class="cls-7" d="M196.46,339.34c9.45,1.98,18.07,3.97,23.88,5.67,14.58,15.33,34.1,26.6,47.53,47.53,1.77,2.76-1.68,11.43.9,18.33,3.27,8.73-.6,13.8,1.63,14.18,5,.89,8.7-3.58,7.12-12.45,9.4,2.33,7.97,13.93,14.62,22.98,1.55,2.08,6.42,2.25,5.23-3.2,0,0,5.2,3.06,4.13-3.58,4.63,0,2.83-5.6,2.83-5.6,7.97-1.63-17-40.65-19.7-43.85-15.79-18.52-38.94-53.44-46.06-57.35-3-1.65-15.74-10.4-28.01-14.5-4.49,10.71-9.17,21.32-14.09,31.85Z"/>
  <path class="cls-12" d="M297.38,432.39c-5.23-8.12-11.47-19.75-11.47-19.75,0,0,4.92,14.51,11.47,19.75Z"/>
  <path class="cls-12" d="M301.51,428.8c-4.13-3.06-13.35-19.85-13.35-19.85,0,0,8.4,19.85,13.35,19.85Z"/>
  <path class="cls-12" d="M304.35,423.2c-5.4-4.33-13.38-19.25-13.38-19.25,0,0,8,18.57,13.38,19.25Z"/>
  <path class="cls-7" d="M31.86,503.62c-2.82-.58-4.13,7.47,1.59,7.8,26.55,1.52,31.09.18,40.99-5.5,7.2-4.13,7.82,7.8,21.68,5.5,4.55-.75,5.47-7.17,2.22-7.97-12.08-3.03-12.5-12.43-16.15-20.68-4.1-9.22-3.58-66.2-3.58-66.2,0,0,3.13-15.74,13.25-29.64l-29.03-21.82c-17.83,59.63-16.25,31.45,1.5,107.54,1.15,4.9-2.52,14.18-5.14,19.5-3.47,7.07-20.92,12.79-27.32,11.48Z"/>
  <path class="cls-9" d="M58.22,368.98s18.68,6.73,33.26,24.87c0,0,4.81-20.86,17.1-31.45,27.33-12.52,28.3,3.17,68.4-22.03l30.4,3.72s-.85-20.23,8.4-37.47c0,0-19.11-4.6-29.39-6.77-1.5-.32-19.4-19.78-12.82-50.46,0,0-46.22,5.25-85.55-10.27-6.07,34.42,12.35,65.45.75,88-3.85,5.62-22.27,22.88-30.57,41.86Z"/>
  <path class="cls-7" d="M165.08,340.47s-7.66-6.52-21.05-4.16c-13.36,2.36-18.35,11.1-18.35,11.1l3.81,21.65,39.4-6.94-3.81-21.65Z"/>
  <path class="cls-12" d="M33.35,503.77c17.71.73,24.08-5.67,24.08-5.67,0,0-8.36,5.25-24.08,5.67Z"/>
  <path class="cls-1" d="M110.88,380.8c-3.27-1.42-6.9-2.27-10.97-2.3,9.81,14.72,5.15,50.05,31.11,70.82,30.34-6.28,17.15-105.63-23.03-85.03,2.92.7,5.03,2.8,6.57,5.65-3.45-.37-7.27.26-11.5,2.43,3.83.9,6.26,4.21,7.82,8.44Z"/>
  <path class="cls-1" d="M199.73,437.2c17.29-28.4-1.22-59.63,2.97-76.83-3.81,1.43-6.94,3.46-9.53,5.93.02-4.51,1.19-8.45,4.46-10.62-4.7-.58-8.52.12-11.63,1.65.47-3.2,1.73-5.88,4.23-7.55-44.8-5.61-21.15,91.89,9.5,87.42Z"/>
  <path id="Path" class="cls-4" d="M113.95,417.68c6.75-2.03,7.65-25.98,2.25-31.3-.77-.73-4.55-1.47-6.22,4.37-.95,3.22-4.7,6.45-4.93,12.82-.28,8.15,2.2,16.16,8.9,14.11Z"/>
  <path id="Path-2" data-name="Path" class="cls-4" d="M202.9,402c-7.03.38-16.07-21.8-12.8-28.63.45-.96,3.76-2.95,7.33,1.95,1.98,2.71,6.61,4.46,9,10.37,3.07,7.56,3.47,15.94-3.53,16.31Z"/>
  <path id="Path-3" data-name="Path" class="cls-12" d="M113.37,413.24c1.68-.89,3.17-3.97,3.43-8.7-6.05,2.47-6.31-8.27-.9-9.43-.23-1.05-.49-2.12-.82-3.23-1.96,4.28-4.9,3.22-6.55,9.37-1.48,5.55.64,14.18,4.84,12Z"/>
  <path id="Path-4" data-name="Path" class="cls-12" d="M195.75,390.63c1.85,4.35,4.28,6.73,6.19,6.98,4.68.61,3.74-8.22.44-12.92-3.65-5.21-6.05-3.22-9.35-6.58.07,1.17.18,2.27.33,3.34,5.44-.7,8.8,9.37,2.4,9.18Z"/>
  <path class="cls-4" d="M166.25,454.19c29.83-5.27,39.92-32.1,32.6-63.02-1.47-6.22-4.81-14.97-8.34-22.35-7.31-15.35-33.78-27.42-43.85-25.65-10.05,1.77-30.78,22.17-32.42,39.1-.79,8.13-.93,17.5-.2,23.85,3.72,31.55,22.36,53.32,52.21,48.07Z"/>
  <path id="Path-5" data-name="Path" class="cls-11" d="M126.43,417.87c7.45,2.4,20.55.28,24.97-3.1.95-.67-.35-3.97-1.17-3.48-6.3,3.87-17.22,5.87-24.1,4.02-.9-.24-.84,2.24.3,2.56Z"/>
  <path id="Path-6" data-name="Path" class="cls-11" d="M191.25,406.44c-6.19,4.81-19.22,7.3-24.52,5.63-1.13-.3-1.03-3.85-.12-3.69,7.27,1.48,18.18-.37,24.01-4.46.79-.54,1.55,1.83.62,2.52Z"/>
  <path id="Path-7" data-name="Path" class="cls-12" d="M145.25,382.24c.96.44,2.8-.84,8-1.75s7.36-.35,8.12-1.1c.89-.89-1.3-3.85-8.75-2.53-7.46,1.3-8.51,4.83-7.37,5.38Z"/>
  <path id="Path-8" data-name="Path" class="cls-12" d="M151.13,368.52c7.07.79,16.5-3.87,16.5-3.87-4.51-3.46-8.23-8.34-18.33-6.55-11.55,2.03-12.45,8.46-14.98,12.42,0,0,10.48,1.17,16.81-2Z"/>
  <path id="Path-9" data-name="Path" class="cls-8" d="M165.01,364.38c-8.08-4.65-22.3-2.2-28.31,5,7.43-1.65,20.7-4,28.31-5Z"/>
  <path id="Path-10" data-name="Path" class="cls-8" d="M163.29,398.67c-.6-1.94.33-4.5,3.74-6.92,2.15-1.54,6.82-3.7,13.75-2.13,3.1.72,6.58,4.02,6.7,6.15-2.33,7.2-19.34,11.2-24.18,2.9Z"/>
  <circle id="Oval" class="cls-6" cx="174.98" cy="396.75" r="6.85"/>
  <path id="Path-11" data-name="Path" class="cls-5" d="M178.38,396.26c-.82-4.67-7.57-3.46-6.75,1.2.77,4.33,7.52,3.13,6.75-1.2Z"/>
  <path id="Path-12" data-name="Path" class="cls-10" d="M179.75,397.99c-.35-1.96-3.18-1.47-2.83.5.32,1.81,3.15,1.31,2.83-.5Z"/>
  <path id="Path-13" data-name="Path" class="cls-12" d="M163.23,398.41c4.28,8.32,22.75,3.74,24.25-2.65.4,7.76-19.95,13.41-24.25,2.65Z"/>
  <path id="Path-14" data-name="Path" class="cls-8" d="M150.03,401c-.1-2.01-1.85-4.11-5.87-5.21-2.55-.7-7.68-1.15-13.65,2.7-2.68,1.73-4.83,6.02-4.2,8.06,4.65,5.99,22,3.93,23.72-5.55Z"/>
  <circle id="Oval-2" data-name="Oval" class="cls-3" cx="138.54" cy="403.18" r="6.86"/>
  <path id="Path-15" data-name="Path" class="cls-5" d="M141.93,402.7c-.82-4.67-7.59-3.48-6.75,1.19.77,4.33,7.52,3.15,6.75-1.19Z"/>
  <path id="Path-16" data-name="Path" class="cls-10" d="M143.3,404.42c-.35-1.96-3.18-1.47-2.83.5.32,1.81,3.15,1.31,2.83-.5Z"/>
  <path id="Path-17" data-name="Path" class="cls-12" d="M150.02,400.75c-1.19,9.28-20.1,11.32-23.7,5.8,2.28,7.42,23.33,5.78,23.7-5.8Z"/>
  <path class="cls-2" d="M167.7,462.4c18.13-3.2,25.77-13.01,26.91-17.25,21.05-8.88,21.59-47.15,2.36-60.05.93,17.19.89,28.35-8.3,41.7-8.06-7.59-22.49-10.12-34.64-7.97,6.49,3.15,11.14,6.55,14.88,9.83-21.91-5.73-45.67-7.68-55.22-28.88-14,34.49,9.06,70.54,54,62.62Z"/>
  <path class="cls-1" d="M194.56,445.15c-2.45-15.55-10.75-26.03-40.6-26.32,20.47-5.05,43.95,3.72,40.6,26.32Z"/>
  <path class="cls-1" d="M189.61,427.65c6.23-8.76,12.43-23.15,7.35-42.55,1.38,16.54-3.74,31.25-8.97,41.11.57.44,1.11.92,1.62,1.43Z"/>
  <path class="cls-1" d="M177.54,434.85c-17.71-11.8-54.8-4.3-63.97-35.05,15.1,28.81,46.83,16.16,63.97,35.05Z"/>
</svg>