<?xml version="1.0" encoding="UTF-8"?>
<svg id="Layer_1" data-name="Layer 1" xmlns="http://www.w3.org/2000/svg" xmlns:xlink="http://www.w3.org/1999/xlink" viewBox="0 0 512 512">
  <defs>
    <style>
      .cls-1 {
        fill: #6e8189;
      }

      .cls-2 {
        fill: url(#linear-gradient-8);
      }

      .cls-3 {
        fill: url(#linear-gradient-7);
      }

      .cls-4 {
        fill: url(#linear-gradient-5);
      }

      .cls-5 {
        fill: url(#linear-gradient-6);
      }

      .cls-6 {
        fill: url(#linear-gradient-4);
      }

      .cls-7 {
        fill: url(#linear-gradient-3);
      }

      .cls-8 {
        fill: url(#linear-gradient-2);
      }

      .cls-9 {
        fill: #785647;
      }

      .cls-10 {
        fill: #d0d0d0;
      }

      .cls-11 {
        fill: #b7c2c7;
      }

      .cls-12 {
        fill: #ffc940;
      }

      .cls-13 {
        fill: #1a1626;
      }

      .cls-14 {
        fill: #99a8ae;
      }

      .cls-15 {
        fill: url(#linear-gradient);
      }

      .cls-16 {
        fill: #f5bb51;
      }

      .cls-17 {
        fill: #d6a57c;
      }

      .cls-18 {
        fill: #fff;
      }

      .cls-19 {
        fill: #9e6c49;
      }

      .cls-20 {
        fill: #b47d56;
      }

      .cls-21 {
        fill: #e81c27;
      }

      .cls-22 {
        fill: #ab968c;
      }

      .cls-23 {
        fill: #45332c;
      }

      .cls-24 {
        fill: #966f42;
      }

      .cls-25 {
        fill: #f0a429;
      }

      .cls-26 {
        fill: #3ab0a2;
      }

      .cls-27 {
        fill: #302c3b;
      }

      .cls-28 {
        fill: #3e3a47;
      }
    </style>
    <linearGradient id="linear-gradient" x1="-707.56" y1="508.01" x2="-640.41" y2="508.01" gradientTransform="translate(1005.2659 370.5139) rotate(-14.1238) scale(.9999 -.9999)" gradientUnits="userSpaceOnUse">
      <stop offset="0" stop-color="#473834"/>
      <stop offset=".06" stop-color="#4b3b36"/>
      <stop offset=".67" stop-color="#6d564d"/>
      <stop offset="1" stop-color="#7a6056"/>
    </linearGradient>
    <linearGradient id="linear-gradient-2" x1="-707.15" y1="500.19" x2="-624.3" y2="500.19" gradientTransform="translate(1005.2659 370.5139) rotate(-14.1238) scale(.9999 -.9999)" gradientUnits="userSpaceOnUse">
      <stop offset="0" stop-color="#7a6056"/>
      <stop offset=".31" stop-color="#775d54"/>
      <stop offset=".57" stop-color="#6d554d"/>
      <stop offset=".8" stop-color="#5b4842"/>
      <stop offset="1" stop-color="#473834"/>
    </linearGradient>
    <linearGradient id="linear-gradient-3" x1="-697" y1="480.39" x2="-697" y2="490.74" gradientTransform="translate(1005.2659 370.5139) rotate(-14.1238) scale(.9999 -.9999)" gradientUnits="userSpaceOnUse">
      <stop offset="0" stop-color="#a6694a"/>
      <stop offset="1" stop-color="#4f2a1e"/>
    </linearGradient>
    <linearGradient id="linear-gradient-4" x1="248.22" y1="149.75" x2="248.22" y2="428.49" gradientTransform="translate(0 514) scale(1 -1)" gradientUnits="userSpaceOnUse">
      <stop offset=".1" stop-color="#8f6242"/>
      <stop offset=".2" stop-color="#9a6a48"/>
      <stop offset=".4" stop-color="#a97550"/>
      <stop offset=".63" stop-color="#b17b55"/>
      <stop offset="1" stop-color="#b47d56"/>
    </linearGradient>
    <linearGradient id="linear-gradient-5" x1="114.79" y1="325.81" x2="97.62" y2="379.41" gradientTransform="translate(0 514) scale(1 -1)" gradientUnits="userSpaceOnUse">
      <stop offset=".1" stop-color="#8f6242"/>
      <stop offset=".2" stop-color="#9a6a48"/>
      <stop offset=".4" stop-color="#a97550"/>
      <stop offset=".63" stop-color="#b17b55"/>
      <stop offset="1" stop-color="#b47d56"/>
    </linearGradient>
    <linearGradient id="linear-gradient-6" x1="47.54" y1="318.7" x2="47.54" y2="399.33" gradientTransform="translate(0 514) scale(1 -1)" gradientUnits="userSpaceOnUse">
      <stop offset="0" stop-color="#dbaf76"/>
      <stop offset=".13" stop-color="#e3b882"/>
      <stop offset=".38" stop-color="#edc593"/>
      <stop offset=".66" stop-color="#f3cd9d"/>
      <stop offset="1" stop-color="#f5cfa0"/>
    </linearGradient>
    <linearGradient id="linear-gradient-7" x1="105.74" y1="191.41" x2="168.94" y2="260.21" gradientTransform="translate(0 514) scale(1 -1)" gradientUnits="userSpaceOnUse">
      <stop offset="0" stop-color="#b47d56"/>
      <stop offset=".75" stop-color="#b47d56" stop-opacity="0"/>
    </linearGradient>
    <linearGradient id="linear-gradient-8" x1="361.44" y1="206.9" x2="332.06" y2="274.6" gradientTransform="translate(0 514) scale(1 -1)" gradientUnits="userSpaceOnUse">
      <stop offset="0" stop-color="#b47d56"/>
      <stop offset=".75" stop-color="#b47d56" stop-opacity="0"/>
    </linearGradient>
  </defs>
  <path class="cls-16" d="M234.5,111.34c6.74-5.57,17.43-.84,18.65,1.83,4.01,8.8,29.05-8.99,22.51-18.6-5.72-8.35-3.95-20.48-3.95-20.48-5.85-1.62-32.78-29.87-37.21,37.26Z"/>
  <path class="cls-12" d="M217.78,18.52c-22.3,9.57-26.65,28.31-17.99,46.93,1.96,4.22,1.02,12.5-3.38,18.77-1.59,2.29-1.21,4.69.2,6,2.72,2.58,7.03,1.51,9.13,2.22,4.66,1.54,1.35,5.4,5.14,7.66,1.72,1.02,5.21-1.79,2.88,6.56,5.5,2.22-.18,12.33,12.06,10.59,6.45-.91,29.16-22.53,31.18-28.52,2.1-6.28-1.24-16.08-1.24-16.08,16.54-9.63,18.94-26.79,10.98-42.11-11.1-21.44-34.48-18.21-48.96-12.03Z"/>
  <path class="cls-25" d="M210.88,100.1c2.53.79,2.11,3.12,2.11,3.12-1.05.26-.44,3.8,1.1,3.4,5.44-1.36,9.27-7.29,10.2-10.51-8.63,1.72-18.95.21-13.41,3.99Z"/>
  <path class="cls-18" d="M210.88,100.1s1.58,2.76,2.11,3.12c1.71-.42,6.95-3.05,9.8-6.17l-11.9,3.05Z"/>
  <path class="cls-15" d="M255.55,20.45c-22.78-20.71-62.87,5.37-64.43,12.25-.55,2.47,2.19,7.53,4.87,10.57,6.97-1.75,19.35-11.07,29.72-9.05,15.39,3.04,6.8,34.94,19.87,33.25,2.07-.26,20.15-36.42,9.96-47.02Z"/>
  <path class="cls-8" d="M266.51,17.23c-6.73-6.8-18.67-13.77-40.35-8.27-19.59,4.97-33.49,16.88-35.05,23.75,7.21-1.83,26.75-16.49,40.32-10.84,21.15,8.81,10.17,30.76,17.21,41.05,11.03,16.11,22.89,18.32,22.89,18.32,11.15-13.29,12.43-46.4-5.03-64.01Z"/>
  <path class="cls-25" d="M196.67,90.22c2.68,3.87,13.2,2.22,15.18-3.81-4.44,5.29-16.74,1.57-15.18,3.81Z"/>
  <path class="cls-12" d="M250.4,50.98c-8.23,3.98-5.98,24.27,1.59,26.88,1.05.35,5.93-.3,7.24-5.72.73-3.03,5.03-6.98,4.42-12.36-.81-6.89-5.09-12.75-13.25-8.8Z"/>
  <path id="Path" class="cls-25" d="M251.78,54.5c-2.01,1.31-3.45,4.38-3.12,8.41,7.29-4.07,9.15,4.8,2.46,7.59.44.79.92,1.6,1.52,2.43,1.86-4.26,5.73-4.33,6.93-10.01,1.09-5.15-2.8-11.65-7.78-8.41Z"/>
  <path class="cls-18" d="M220.32,66.53c.43,1.22-2.4,6.72-7.32,8.41-2.81.96-4.42-1-5.67-3.24-3-9.36,9.06-8.79,12.99-5.17Z"/>
  <path id="Path-2" data-name="Path" class="cls-7" d="M206.83,70.55c1.77,6.95,9.79,4.92,8.06-2.02-1.64-6.45-9.67-4.42-8.06,2.02Z"/>
  <path id="Path-3" data-name="Path" class="cls-13" d="M207.59,70.04c.9,3.47,4.91,2.45,4.01-1.02-.79-3.23-4.8-2.22-4.01,1.02Z"/>
  <path id="Path-4" data-name="Path" class="cls-22" d="M209.73,68.02c.37,1.44,2.7.84,2.33-.6-.33-1.36-2.67-.76-2.33.6Z"/>
  <path class="cls-25" d="M220.32,66.53c-3.24-3.79-14.82-4.25-13.64,1.68.54-4.31,9.07-4.17,13.64-1.68Z"/>
  <path id="Path-5" data-name="Path" class="cls-24" d="M219.9,56.14c-5.72-1.84-15.22.39-18.19,3.4-.67.62.56,3.41,1.14,2.98,4.33-3.52,12.25-5.56,17.48-4.17.68.15.43-1.98-.43-2.21Z"/>
  <path class="cls-27" d="M270.54,43.84s-6.97-2.36-6.94-.61c.09,7.28-5.98,24.17-5.98,24.17,0,0-18.22-11.08-24.86-30.67-.55-1.66-5.74,1.79-6.1,3.51-2.12,10.44,27.67,34.88,27.67,34.88,0,0-10.42,27.8-18.37,35.98,19.03,4.77,34.59-67.25,34.59-67.25Z"/>
  <path class="cls-21" d="M227.95.23c-26.98,2.54-46.47,25.67-43.56,51.64.8,7.14,28.93-4.79,48.49-6.61,17.81-1.7,50.16,6.15,49.17-2.65-2.93-25.94-27.14-44.92-54.1-42.37Z"/>
  <path class="cls-27" d="M90.49,68.58c14.7,36.09,80.96,76.48,114.33,57.05-36.44-15.45-41.86-69.76-114.33-57.05Z"/>
  <path class="cls-28" d="M102.75,81.75c9.57,39,71.6,93.35,115.95,83.65-31.65-23.43-29.15-77.64-115.95-83.65Z"/>
  <path class="cls-27" d="M131.13,107.71c-1.35,39.13,44.59,97.43,92.5,90.66-36.57-32.49-18.57-78.37-92.5-90.66Z"/>
  <path class="cls-28" d="M154.75,133.73c-7.95,37.69,16.75,92.07,70.17,80.44-45.37-24.24-19.02-66.25-70.17-80.44Z"/>
  <path class="cls-19" d="M397.08,310.61c9.04,134.49-40.17,87.75-47.72,149.74-.96,7.81,32.85,10.97,33.92.33-6.92-34.47,30.67-22.14,51.23-78.47,3.62-9.93-32.33-42.31-37.44-71.6Z"/>
  <path class="cls-27" d="M489.48,276.25c13.75-67.92-108.28-88.47-96.95-10.5,87.6-19.01,12.94,88.23,119.47,123.14-32.67-46.46-31.79-66.94-22.52-112.64Z"/>
  <path class="cls-19" d="M114.7,455.94c7.15,1.87,25.65-.32,11-32.19-9.42-20.5,46.95-43.8,62-89.44-82.25,12.84-111.05,83.5-73,121.63Z"/>
  <path class="cls-27" d="M125.7,423.75s-3.72,17.83-11,32.19c-1.1,2.17,21.3,12.93,28.22,12.34-1.38-14.43,6.43-57.44-17.22-44.53Z"/>
  <path class="cls-6" d="M418.13,298.6c0-30.78-20.27-65.67-59.73-65.67-34.13,0-150.26,9.58-164.44-28.08-14.65-38.91-11.14-85.03-60.19-114.29-31.2-18.63-77.78,15.41-43.3,84.79,55.67,16.7-5.15,73.99-5.15,115.04,0,50.67,59.17,73.86,102.4,73.86s89.6-16.41,119.47-16.41c19.57,0,110.93,19.15,110.93-49.24Z"/>
  <path class="cls-20" d="M79.9,47.53c-.56-4.91,31.95,14.05,33.26,46.57.12,2.1-15.13.17-24.47-7.08,0,0-6.72-21.73-8.8-39.49Z"/>
  <path class="cls-9" d="M83.29,55.42c-.33-3.43,21.4,13.6,21.93,36.15.05,1.45-10.21-1.75-16.42-7.88,0,0-4.3-15.78-5.51-28.26Z"/>
  <path class="cls-27" d="M73,76.71s40.93,18.35,45.75-6.95c-26.88-11.14-45.75,6.95-45.75,6.95Z"/>
  <path class="cls-4" d="M131.72,84.91c-1.66-7.29-9.92-36.31-27.21-44.43-2.08-.96-3.87,36.83-3.87,36.83-23.25,19.13-39.52,37.36-39.52,37.36,0,0-30.95,30.5,12.94,66.3,51.06-9.25,63.72-25.29,65.42-40.68,3.96-35.88-7.76-55.37-7.76-55.37Z"/>
  <path class="cls-5" d="M61.12,114.67c-21.07,20.41-38.68,38.26-41.92,43.26-3.95,6.08-.05,8.3-2,17.33-1.31,6.08,5.55,11.21,10.79,11.23.23,5.48,11.75,5.91,14.45,7.77,3.9,2.67,18.95.52,23.43-9.96,2.7-1.4,5.45-2.6,8.18-3.34,16.25-20.79-23.19-33.85-12.94-66.29Z"/>
  <path class="cls-23" d="M30.83,169.22c-1.75,1.22-6.05,2.12-7.35.49s.9-5.2,2.65-6.38c1.75-1.2,4.23-.85,5.51.79,1.31,1.63.95,3.93-.82,5.11Z"/>
  <path class="cls-23" d="M57.92,172.78c-2.24,10.12-20.93,16.06-29.93,13.71,7.05-.35,23.04-5.04,29.93-13.71Z"/>
  <path class="cls-9" d="M104.55,46.05c.55-3.4,17.31,18.24,12.13,40.22-.33,1.42-12.65-2.52-13.93-11.51,0,0-.18-16.29,1.8-28.71Z"/>
  <path class="cls-17" d="M26.68,156.95c-1.78,1.07-1.47,1.72.1,1.14,1.57-.56,9.25-2.45,9.9,5.38,0,0,.44,3.48,1.4.02.95-3.5-1.33-12.49-11.4-6.55Z"/>
  <path class="cls-27" d="M99.45,115.99c0,12.71-15.93,12.71-15.93,0,0-12.71,15.93-12.71,15.93,0Z"/>
  <path class="cls-1" d="M91.26,112.76c0,3.17-4.9,3.17-4.9,0,0-3.18,4.9-3.18,4.9,0Z"/>
  <path class="cls-27" d="M189.8,199.38c-4.77-16.06,12.97-23.63-8.32-53.21-15.51,17.97-6.37,48.22,8.32,53.21Z"/>
  <path class="cls-28" d="M167.15,180.48s40.64-30.8-3.92-60.09c7.78,18.94,3.92,60.09,3.92,60.09Z"/>
  <path class="cls-27" d="M156.71,154.75s45.27-41.64-12.15-61.21c16.7,18.35,12.15,61.21,12.15,61.21Z"/>
  <path class="cls-27" d="M383.28,460.69c-19.74,6.05-26.82-4.33-33.92-.33-1.68.93-11.9,17.94,5.87,32.8,2.2,1.82,33.45-13.64,28.05-32.47Z"/>
  <path class="cls-3" d="M111.22,310.54c-7.66,12.95-60.87,4.71-68.55,4.71-9.42,0-14.63,7.55-17.07,16.29-4.97,17.83-25.6,60.71-25.6,82.12,0,33.25,25.6,49.21,34.13,49.21,5.33,0,4.51-42.06-2.85-47.38-15.42-11.13,9.18-48.93,19.92-59.25,12.07-11.57,32.02,2.52,66.15,2.52,10.65,0,28.62,3.55,58.09-28.77,54.91-73.45-9.69-111.67-64.22-19.46Z"/>
  <path class="cls-2" d="M494.93,470.96c-3.02-2.92,1.5-12.58,0-16.43-3.74-9.6-28.2-16.09-34.13-24.61-4.9-7.03-.18-30.17-8.53-32.85-25.6-8.2-51.2-32.84-51.2-41.04,0-14.36,17.07-30.78,17.07-57.45,0-102.42-192.2-29.69-96.28,54.08,18.94,16.53,26.73,41.29,70.68,52.63,18.43,4.75,35.97,14.55,42.67,24.64,8.17,12.31,25.6,82.07,59.73,82.07,17.07,0,3.02-38.14,0-41.04Z"/>
  <path class="cls-27" d="M31.28,415.39s-5.68,22.74-14.22,39.16c-1.28,2.5,9.9,19.93,27.6,15.74-.93-25.01,18.94-54.9-13.38-54.9Z"/>
  <path class="cls-27" d="M494.93,470.96s-2.87,20.52-22.8,29.73c0,0,5.73,11.31,22.8,11.31s14.57-41.04,0-41.04Z"/>
  <path class="cls-27" d="M30.63,145.02c11.28,14.31,20.25,31.1,26.18,48.06.63,1.8,7.99-3.97,7.35-5.79-6.19-17.63-16.14-33.21-27.82-48.13-1.76-2.3-6.58,4.74-5.71,5.86Z"/>
  <path class="cls-26" d="M200.04,213.8s-6.72,44.11-3.11,84.03c32.67,11.6,87.72-1.6,138.9-.11,0,0,2.3-48.64-1.83-67.03-28.09-1.62-83.01,5.68-133.96-16.89Z"/>
  <path class="cls-27" d="M235.48,225.11s-1.62,93.35,10.71,133.03c0,0-9.91,4.05-20.33,4.05-10.53-50.68-8.88-79.02-8.83-141.96l18.45,4.87Z"/>
  <path class="cls-27" d="M248.94,257.68s-1.25,13.51,7.19,44.68c0,0,3.46.98,7.33-.8-1.91-32.32-3.05-42.82-3.05-42.82l-11.47-1.06Z"/>
  <path class="cls-28" d="M318.35,224.89c1.37-.19,4.3,6.11.72,6.86-19.18,4.01-20.45,15.47-17.77,41.6-15.47,0-86.81,7.65-86.76-55.3,0,0,55.64,13.34,103.82,6.84Z"/>
  <path class="cls-27" d="M158.13,185.63c-38.89,1.31-70.12-4.35-99-13.45-6.2-1.98-10.23,5.61-3.99,7.59,30.2,9.53,62.67,16.68,102.98,15.43v-9.57h0Z"/>
  <path class="cls-27" d="M86.37,90.83c9.27,17.54,57.51,34.14,7.75,85.72-.96,1,5.4,3.34,6.3,2.4,53.95-57.06-.32-75.97-8.57-93.29-1.71-2.31-6.33,4.04-5.48,5.17Z"/>
  <path class="cls-27" d="M56.95,178.25s60.73-19.97,84.8-81.43c.65-2.25-5.7-9.42-6.35-7.2-18.71,60.81-82.18,82.24-82.18,82.24l3.73,6.39Z"/>
  <path class="cls-27" d="M62.72,106.01s9.1-5.61,24.34-11.3c21-7.87,12.28-21.44,12.28-21.44-31.75,5.86-36.62,32.74-36.62,32.74Z"/>
  <path class="cls-28" d="M144.23,119.19c18.45-36.25-13.03-41.03-13.03-41.03-1.33,18.54,11.33,23.48,13.03,41.03Z"/>
  <path class="cls-14" d="M64.17,174.76c0,11.23-17.55,11.23-17.55,0,0-11.26,17.55-11.26,17.55,0Z"/>
  <path class="cls-14" d="M128.56,127.64c0,11.23-17.55,11.23-17.55,0,0-11.26,17.55-11.26,17.55,0Z"/>
  <path class="cls-16" d="M186.23,182.35l-7.73.44c-6.72-4.33-13.48-1.5-20.68-1.75-3.69-.12-8.4,2.45-7.35,4.74l5.45,1.12c-3.29,3.5-9.92,9.5-4.7,11.32,9.53,3.34,8,8.48,19.43,10.23,4.16.63,10.56-3.97,12.68-6.78l7.64-.96-4.74-18.34Z"/>
  <path class="cls-10" d="M311.07,168.24s-57,28.13-57.32,45.55c-.18,9.69,3.64,23.37,15.18,46.3l32.55-5.81s-.57-17.23-2.99-25.04c73.18-34.84,90.09-41.03,69.29-76.03l-56.72,15.03Z"/>
  <path class="cls-26" d="M231.66,162.47s-25.48,16.54-49.6,18.67c0,0,7.1,14.43,3.93,21.51,0,0,47.28-11.2,61.67-19.55,13.03-7.55,28.6-41.65,28.6-41.65l34.8,26.79s35.8,9.83,59.6-14.85c0,0-41.74-63.76-99-70.25-1.31,6.85-13.41,12.91-19.23,26.58-5.73,13.48-2.97,24.01-20.77,52.74Z"/>
  <path class="cls-27" d="M283.14,311.94s-32.82,9.43-35.02,14.18c-2.26,4.77,1.33,8.78,3.75,9.81,7.76,3.32,34.84.17,34.84.17l.39,2.25,19.93-1.03c-.73-21.02.7-58.42-4.77-85.62,0,0-19.46,0-36.1,6.52l16.98,53.71Z"/>
  <path class="cls-11" d="M261.71,298.85s3.58,16.91,12.16,38.91c0,0,.54,3.29-8.04,1.89-9.3-22.49-8.18-40.36-8.18-40.36l4.06-.44Z"/>
</svg>