<?xml version="1.0" encoding="UTF-8"?>
<svg id="Layer_1" data-name="Layer 1" xmlns="http://www.w3.org/2000/svg" xmlns:xlink="http://www.w3.org/1999/xlink" viewBox="0 0 511.94 512">
  <defs>
    <style>
      .cls-1 {
        fill: #cfd8dd;
      }

      .cls-2 {
        fill: #473834;
      }

      .cls-3 {
        fill: url(#radial-gradient-7);
      }

      .cls-4 {
        fill: url(#radial-gradient-5);
      }

      .cls-5 {
        fill: url(#radial-gradient-4);
      }

      .cls-6 {
        fill: url(#radial-gradient-3);
      }

      .cls-7 {
        fill: url(#linear-gradient-4);
      }

      .cls-8 {
        fill: url(#linear-gradient-3);
      }

      .cls-9 {
        fill: url(#linear-gradient-2);
      }

      .cls-10 {
        fill: #ffc940;
      }

      .cls-11 {
        fill: #1a1626;
      }

      .cls-12 {
        fill: url(#radial-gradient);
      }

      .cls-13 {
        fill: url(#linear-gradient);
      }

      .cls-14 {
        fill: #f5bb51;
      }

      .cls-15 {
        fill: #fff;
      }

      .cls-16 {
        fill: #ff7a00;
      }

      .cls-17 {
        fill: #ab968c;
      }

      .cls-18 {
        fill: #f5f5f5;
      }

      .cls-19 {
        fill: #966f42;
      }

      .cls-20 {
        fill: #4e5e67;
      }

      .cls-21 {
        fill: #f0a429;
      }

      .cls-22 {
        fill: #302c3b;
      }

      .cls-23 {
        fill: #e6ebef;
      }

      .cls-24 {
        fill: url(#radial-gradient-2);
      }

      .cls-24, .cls-25, .cls-26 {
        isolation: isolate;
        opacity: .5;
      }

      .cls-25 {
        fill: url(#radial-gradient-8);
      }

      .cls-26 {
        fill: url(#radial-gradient-6);
      }
    </style>
    <radialGradient id="radial-gradient" cx="453.59" cy="72.45" fx="453.59" fy="72.45" r="38.4" gradientTransform="translate(0 514) scale(1 -1)" gradientUnits="userSpaceOnUse">
      <stop offset=".21" stop-color="#ff3b3b"/>
      <stop offset=".42" stop-color="#f63131"/>
      <stop offset=".77" stop-color="#de1615"/>
      <stop offset="1" stop-color="#cc0100"/>
    </radialGradient>
    <radialGradient id="radial-gradient-2" cx="1969.44" cy="1281.39" fx="1969.44" fy="1281.39" r="27.32" gradientTransform="translate(-1271.8838 301.711) rotate(52.4082) scale(.5873 -1)" gradientUnits="userSpaceOnUse">
      <stop offset="0" stop-color="#fff"/>
      <stop offset="1" stop-color="#fff" stop-opacity="0"/>
    </radialGradient>
    <radialGradient id="radial-gradient-3" cx="-1139.12" cy="2106.28" fx="-1240.84" fy="2152.41" r="127.12" gradientTransform="translate(-778.59 -707.17) scale(-.87 .52)" gradientUnits="userSpaceOnUse">
      <stop offset=".26" stop-color="#ff7a00"/>
      <stop offset=".36" stop-color="#de6300"/>
      <stop offset=".5" stop-color="#ff7a00"/>
    </radialGradient>
    <radialGradient id="radial-gradient-4" cx="555.44" cy="2106.8" fx="453.68" fy="2152.95" r="127.18" gradientTransform="translate(-144.65 -707.16) scale(.87 .52)" gradientUnits="userSpaceOnUse">
      <stop offset=".26" stop-color="#ff7a00"/>
      <stop offset=".36" stop-color="#de6300"/>
      <stop offset=".5" stop-color="#ff7a00"/>
    </radialGradient>
    <linearGradient id="linear-gradient" x1="198.23" y1="143.07" x2="198.23" y2="164.14" gradientTransform="translate(47.84 513.72) scale(1.14 -1)" gradientUnits="userSpaceOnUse">
      <stop offset=".1" stop-color="#de6300"/>
      <stop offset=".55" stop-color="#ff7a00"/>
    </linearGradient>
    <radialGradient id="radial-gradient-5" cx="347.75" cy="486.27" fx="347.75" fy="486.27" r="38.4" gradientTransform="translate(0 514) scale(1 -1)" gradientUnits="userSpaceOnUse">
      <stop offset="0" stop-color="#ffe02e"/>
      <stop offset=".25" stop-color="#ffda29"/>
      <stop offset=".59" stop-color="#ffc91a"/>
      <stop offset=".97" stop-color="#ffac02"/>
      <stop offset="1" stop-color="#fa0"/>
    </radialGradient>
    <radialGradient id="radial-gradient-6" cx="1303.42" cy="1451.1" fx="1303.42" fy="1451.1" r="27.33" gradientTransform="translate(-1271.8838 301.711) rotate(52.4082) scale(.5873 -1)" gradientUnits="userSpaceOnUse">
      <stop offset="0" stop-color="#fff"/>
      <stop offset="1" stop-color="#fff" stop-opacity="0"/>
    </radialGradient>
    <radialGradient id="radial-gradient-7" cx="67.2" cy="396.51" fx="67.2" fy="396.51" r="38.4" gradientTransform="translate(0 514) scale(1 -1)" gradientUnits="userSpaceOnUse">
      <stop offset="0" stop-color="#9be022"/>
      <stop offset=".27" stop-color="#91d422"/>
      <stop offset=".75" stop-color="#78b423"/>
      <stop offset="1" stop-color="#69a123"/>
    </radialGradient>
    <radialGradient id="radial-gradient-8" cx="1127.21" cy="1171.92" fx="1127.21" fy="1171.92" r="27.32" gradientTransform="translate(-1271.8838 301.711) rotate(52.4082) scale(.5873 -1)" gradientUnits="userSpaceOnUse">
      <stop offset="0" stop-color="#fff"/>
      <stop offset="1" stop-color="#fff" stop-opacity="0"/>
    </radialGradient>
    <linearGradient id="linear-gradient-2" x1="272.22" y1="263.23" x2="272.22" y2="390.36" gradientTransform="translate(0 514) scale(1 -1)" gradientUnits="userSpaceOnUse">
      <stop offset="0" stop-color="#473834"/>
      <stop offset=".27" stop-color="#594640"/>
      <stop offset=".72" stop-color="#715950"/>
      <stop offset="1" stop-color="#7a6056"/>
    </linearGradient>
    <linearGradient id="linear-gradient-3" x1="-987.67" y1="395.28" x2="-987.67" y2="392.04" gradientTransform="translate(6730.7186 -2350.8415) scale(6.5701)" gradientUnits="userSpaceOnUse">
      <stop offset="0" stop-color="#a6694a"/>
      <stop offset="1" stop-color="#4f2a1e"/>
    </linearGradient>
    <linearGradient id="linear-gradient-4" x1="-980.29" y1="395.28" x2="-980.29" y2="392.04" gradientTransform="translate(6748.4491 -2350.8415) scale(6.5701)" gradientUnits="userSpaceOnUse">
      <stop offset="0" stop-color="#a6694a"/>
      <stop offset="1" stop-color="#4f2a1e"/>
    </linearGradient>
  </defs>
  <path class="cls-23" d="M176.14,355.84c-22.81,9.25-28.58,44.86-57.42,68-12-14.53-30.61-38.58-37.86-57.51,0,0-28.88-5.73-41.95,4.86,12.4,41.08,39.06,81.79,60.39,107.14,13.5,16.05,74.13-16.56,87.61-49.66,0,0,2.23-14.82-10.79-72.83Z"/>
  <path class="cls-14" d="M28.82,356.09c3.83,1.8,13.75-18.41,9.9-20.21,0,0-19.62-6.3-25.79-6.1-14.62.47-14.45,12.68-10.98,13.55,10.09,2.45,26.88,12.76,26.88,12.76Z"/>
  <path class="cls-14" d="M30.57,295.64c-.42,21.72,4.51,36.56,4.51,36.56,0-10.67,1.2-30.91,2.67-39.76,2.03-12.25,18.58-13.69,17.47-1.35-1.78,19.72.91,40.98.91,40.98,0,0,2.24-18.76,3.58-34.55,1.05-11.93,16.83-10.7,16.6,1.26-.18,9.65-3.23,39.2-3.23,39.2,0,0,5.47-7.12,6.8-24.33.7-8.98,11.3-6.31,11.6,2.57.52,15.82-1.73,19.85-3.74,27.28-1.07,3.97-1.5,15.05-8.17,26.4-4.13,7.03-30.72,9.05-38.4,3.45-4.33-3.18-18.75-23.43-21.96-30.37-3.5-7.52-6.38-27.91-5.2-45.13.85-12.42,16.78-14.67,16.55-2.21Z"/>
  <path class="cls-23" d="M369.94,355.84c36.39,22.76,46.15,125.72,107.33,132.12-10.03,21.61-33.08,21.58-47.47,21.58-22.22,0-53.26-49.99-71.28-70.93.02,0-1.6-24.75,11.42-82.77Z"/>
  <path class="cls-23" d="M176.14,355.84c13.63-9.15,62.4-24.7,62.4-24.7h69.46s48.41,15.49,61.95,24.7l-5.48,139.04c-.8,22.85-181.89,22.82-182.71,0l-5.62-139.04Z"/>
  <rect class="cls-1" x="280.39" y="331.15" width="2.13" height="180.79"/>
  <rect class="cls-1" x="263.56" y="331.15" width="2.13" height="180.79"/>
  <path class="cls-16" d="M197.05,345.94c10.05-5.05,20.17-7.6,20.17-7.6v170.39c-10.98-.87-20.17-3.9-20.17-3.9v-158.88Z"/>
  <path class="cls-16" d="M349.25,345.94c-10.04-5.05-20.17-7.6-20.17-7.6v170.39c13.02-1.26,20.17-3.91,20.17-3.91v-158.87Z"/>
  <path class="cls-14" d="M492.82,488.58c-2.67,3.2-20.73-10.9-18.1-14.11,0,0,14.85-13.81,20.51-16.18,13.38-5.61,18.75,5.45,16.02,7.65-7.99,6.41-18.43,22.65-18.43,22.65Z"/>
  <path class="cls-12" d="M461.06,413.82c-21.18,0-38.4,17.22-38.4,38.43s17.22,38.36,38.4,38.36,38.4-17.17,38.4-38.36-17.19-38.43-38.4-38.43Z"/>
  <path class="cls-24" d="M458.92,449.36c-11.96,9.2-26.03,10.96-31.43,3.95-5.42-7.03-.12-20.18,11.85-29.38,11.95-9.22,26.03-10.98,31.44-3.97,5.42,7.03.09,20.18-11.86,29.39Z"/>
  <path class="cls-14" d="M484.42,474.26c-.85,5-3.02,9.11-3.02,9.11,0,0,1.02-10.25,0-15.96-2.01-11.3-17.28-10.33-16.52.56.63,8.9-2.65,17.05-2.65,17.05,0,0-2.08-8.15-3.02-16.66-1.28-11.73-18.48-10.4-17.94,1.38.32,6.5,1.37,15.15,1.37,15.15,0,0-2.24-4.4-3.3-9.5-2.3-11.07-16.78-11.03-15.05.18,3.38,21.8,17.83,21.91,20.23,16.33,2.88,6.61,12.6,6.05,16.58,2.06,3.28,3.85,15.26,4.55,18.4-1.1,5.9,5.77,16.42-.68,18.29-13.1,1.7-11.02-11.48-16.5-13.35-5.5Z"/>
  <rect class="cls-14" x="236.15" y="310.33" width="73.78" height="40.01"/>
  <path class="cls-18" d="M309.92,325.87l10.72,9.68-9.22,36.84-38.39-22.06,36.89-24.47Z"/>
  <path class="cls-18" d="M236.15,325.87l-10.72,9.68,9.22,36.84,38.4-22.06-36.89-24.46Z"/>
  <path class="cls-6" d="M270.38,360.12c-5.51,17.96-33.96,22.83-35.64,20.18-3.41-5.38-6.58-27.17-.07-39.2,1.01-1.84,31.5-1.42,35.71,19.02Z"/>
  <path class="cls-5" d="M275.69,360.12c5.51,17.96,33.97,22.83,35.66,20.18,3.4-5.38,6.57-27.18.06-39.22-1.02-1.84-31.49-1.41-35.72,19.04Z"/>
  <path class="cls-13" d="M273.06,370.05c-7.64.02-9.51,4.07-9.55-9.97,0-14.04,1.9-9.98,9.52-10,7.63,0,9.51-4.07,9.52,9.98.02,14-1.88,9.98-9.5,9.98Z"/>
  <path class="cls-22" d="M269.84,402.12c0-4.27,6.38-4.27,6.4,0,0,4.25-6.39,4.27-6.4,0Z"/>
  <path class="cls-22" d="M269.84,443.45c0-4.27,6.38-4.27,6.4,0,0,4.25-6.39,4.27-6.4,0Z"/>
  <path class="cls-22" d="M269.84,484.78c0-4.27,6.38-4.27,6.4,0,0,4.25-6.39,4.27-6.4,0Z"/>
  <path class="cls-4" d="M355.22,0c-21.18,0-38.4,17.22-38.4,38.43s17.22,38.36,38.4,38.36,38.4-17.17,38.4-38.36S376.41,0,355.22,0Z"/>
  <path class="cls-26" d="M354.78,35.86c-11.96,9.2-26.05,10.98-31.45,3.95s-.09-20.16,11.85-29.38c11.96-9.22,26.05-10.96,31.45-3.95,5.41,7.01.09,20.18-11.85,29.38Z"/>
  <path class="cls-3" d="M72.53,87.63c-21.19,0-38.4,17.2-38.4,38.41s17.2,38.38,38.4,38.38,38.4-17.17,38.4-38.38-17.22-38.41-38.4-38.41Z"/>
  <path class="cls-25" d="M70.41,124.16c-11.96,9.22-26.03,10.98-31.43,3.95-5.42-7.01-.12-20.16,11.85-29.38,11.96-9.2,26.03-10.96,31.43-3.95,5.41,7.03.09,20.2-11.85,29.38Z"/>
  <path class="cls-2" d="M347.93,285.09c5.33,3.52,11.48,6.15,18.66,7.48-12.74-28.98,6.48-89.8-32.9-134.49-55.5,1.66-63.17,180.85,14.2,157.01-4.93-2.13-8.01-6.48-9.83-11.96,5.96,1.7,12.94,1.77,21.06-.73-6.47-2.78-9.77-9.36-11.19-17.31Z"/>
  <path class="cls-2" d="M208.61,158.08c-39.37,44.68-16.42,105.5-29.16,134.49,7.18-1.33,13.33-3.97,18.66-7.48-1.42,7.95-4.72,14.53-11.18,17.31,8.11,2.5,15.09,2.43,21.04.73-1.8,5.49-4.88,9.83-9.81,11.96,77.36,23.84,65.96-155.34,10.44-157.01Z"/>
  <path id="Path" class="cls-10" d="M354,219.13c-12.54,1.54-21.58,43.43-13.71,54.48,1.12,1.55,7.57,4,12.36-5.75,2.65-5.4,10.3-9.91,12.66-21.07,3.05-14.28,1.16-29.16-11.31-27.66Z"/>
  <path id="Path-2" data-name="Path" class="cls-10" d="M192.06,219.13c12.54,1.54,21.59,43.43,13.7,54.48-1.11,1.55-7.58,4-12.35-5.75-2.67-5.4-10.32-9.91-12.68-21.07-3.05-14.28-1.15-29.16,11.32-27.66Z"/>
  <path id="Path-3" data-name="Path" class="cls-21" d="M353.65,227.18c-3.27,1.02-6.83,6-8.76,14.25,11.43-2.45,8.58,16.56-1.37,16.91.09,1.92.22,3.88.46,5.95,4.8-6.94,9.65-4.15,14.47-14.48,4.33-9.29,3.29-25.18-4.8-22.63Z"/>
  <path id="Path-4" data-name="Path" class="cls-21" d="M201.17,241.41c-1.95-8.25-5.5-13.22-8.77-14.23-8.1-2.55-9.13,13.34-4.8,22.63,4.82,10.33,9.68,7.55,14.48,14.48.23-2.06.37-4.04.45-5.95-9.83-.46-12.65-19.24-1.36-16.93Z"/>
  <path class="cls-10" d="M273.03,138.58c-54.31,0-80.48,44.15-77.21,100.91.67,11.42,3.85,27.88,7.78,41.98,8.15,29.33,51.13,58.84,69.43,58.84s61.28-29.51,69.43-58.84c3.93-14.1,7.11-30.56,7.78-41.98,3.27-56.76-22.89-100.91-77.21-100.91Z"/>
  <path id="Path-5" data-name="Path" class="cls-19" d="M332.03,214.96c-12.41-6.57-36.19-6.9-45.03-2.31-1.9.89-.65,7.1.95,6.52,12.33-4.88,32.24-4.98,43.8.42,1.54.69,2.18-3.72.29-4.62Z"/>
  <path id="Path-6" data-name="Path" class="cls-19" d="M214.02,214.96c12.41-6.57,36.17-6.9,45.03-2.31,1.9.89.65,7.1-.95,6.52-12.36-4.88-32.23-4.98-43.8.42-1.54.69-2.17-3.72-.29-4.62Z"/>
  <path id="Path-7" data-name="Path" class="cls-21" d="M287.68,271.9c-1.55-1.08-5.19.58-14.66.58s-13.1-1.66-14.66-.58c-1.86,1.3,1.11,7.2,14.66,7.2s16.52-5.9,14.66-7.2Z"/>
  <path id="Path-8" data-name="Path" class="cls-21" d="M273.03,294.25c-12.22-3.58-30.32,1.7-30.32,1.7,6.9,7.5,11.95,17.22,30.32,17.22,21.05,0,24.63-11.03,30.32-17.22,0,0-18.11-5.31-30.32-1.7Z"/>
  <path id="Path-9" data-name="Path" class="cls-15" d="M247.26,297.22c12.8,10.72,38.66,10.8,51.54,0-13.64.58-37.81.58-51.54,0Z"/>
  <path class="cls-9" d="M273.03,123.64c-33.05,0-49.57,14.95-52.9,22.03-39.97,9.11-52.81,76.41-22.9,105.1,3.72-30.58,7.29-50.23,27.66-70.93,11.88,15.88,36.55,24.83,58.64,24.83-10.46-7.6-17.6-15.03-23.2-21.96,36.9,16.91,78.23,27.73,88.49,68.06,35.5-56.43,6.02-127.13-75.79-127.13Z"/>
  <path id="Path-10" data-name="Path" class="cls-15" d="M260.97,237.34c.47,3.58-1.96,7.83-8.71,11.02-4.27,2.01-13.18,4.42-24.89-.54-5.24-2.2-10.36-9.08-9.9-12.9,6.33-11.95,37.57-13.7,43.5,2.42Z"/>
  <path id="Oval" class="cls-8" d="M241.64,224.88c6.78,0,12.27,1.87,12.27,9.02,0,6.77-5.49,12.27-12.27,12.27s-12.27-5.5-12.27-12.27c0-9.42,5.49-9.02,12.27-9.02Z"/>
  <path id="Path-11" data-name="Path" class="cls-11" d="M235.53,233.68c0,8.48,12.27,8.48,12.27,0,0-7.88-12.27-7.88-12.27,0Z"/>
  <path id="Path-12" data-name="Path" class="cls-17" d="M233.66,230.22c0,3.57,5.15,3.57,5.15,0,0-3.28-5.15-3.28-5.15,0Z"/>
  <path id="Path-13" data-name="Path" class="cls-21" d="M261.03,237.81c-4.98-16.02-38.94-13.65-43.56-2.88,1.71-13.78,39.32-17.43,43.56,2.88Z"/>
  <path id="Path-14" data-name="Path" class="cls-15" d="M285.08,237.34c-.45,3.58,1.98,7.83,8.72,11.02,4.28,2.01,13.19,4.42,24.9-.54,5.25-2.2,10.36-9.08,9.89-12.9-6.32-11.95-37.56-13.7-43.51,2.42Z"/>
  <path id="Oval-2" data-name="Oval" class="cls-7" d="M307.87,224.88c6.77,0,12.27-.4,12.27,9.02,0,6.77-5.49,12.27-12.27,12.27s-12.27-5.5-12.27-12.27c0-9.42,5.49-9.02,12.27-9.02Z"/>
  <path id="Path-15" data-name="Path" class="cls-11" d="M301.75,233.68c0,8.48,12.26,8.48,12.26,0,0-7.88-12.26-7.88-12.26,0Z"/>
  <path id="Path-16" data-name="Path" class="cls-17" d="M299.87,230.22c0,3.57,5.15,3.57,5.15,0,0-3.28-5.15-3.28-5.15,0Z"/>
  <path id="Path-17" data-name="Path" class="cls-21" d="M285.03,237.81c4.97-16,38.93-13.71,43.56-2.88-1.71-13.78-39.32-17.43-43.56,2.88Z"/>
  <path class="cls-20" d="M397.97,188.97c0,21.75-249.87,21.75-249.87,0s249.87-21.75,249.87,0Z"/>
  <path class="cls-22" d="M360.11,179.75c0,18.71-174.16,18.71-174.16,0,0-103.09,174.16-103.09,174.16,0Z"/>
</svg>