<?xml version="1.0" encoding="UTF-8"?>
<svg id="Layer_1" data-name="Layer 1" xmlns="http://www.w3.org/2000/svg" xmlns:xlink="http://www.w3.org/1999/xlink" viewBox="0 0 494.93 512">
  <defs>
    <style>
      .cls-1 {
        fill: #b3c2c6;
      }

      .cls-2 {
        fill: url(#linear-gradient-8);
      }

      .cls-3 {
        fill: url(#linear-gradient-7);
      }

      .cls-4 {
        fill: url(#linear-gradient-5);
      }

      .cls-5 {
        fill: url(#linear-gradient-6);
      }

      .cls-6 {
        fill: url(#linear-gradient-9);
      }

      .cls-7 {
        fill: url(#linear-gradient-4);
      }

      .cls-8 {
        fill: url(#linear-gradient-3);
      }

      .cls-9 {
        fill: url(#linear-gradient-2);
      }

      .cls-10 {
        fill: url(#linear-gradient);
      }

      .cls-11 {
        fill: url(#linear-gradient-10);
      }

      .cls-12 {
        fill: url(#linear-gradient-11);
      }
    </style>
    <linearGradient id="linear-gradient" x1="426.67" y1="27.6" x2="426.67" y2="505.47" gradientTransform="translate(0 514) scale(1 -1)" gradientUnits="userSpaceOnUse">
      <stop offset="0" stop-color="#fff"/>
      <stop offset=".27" stop-color="#f8f9fa"/>
      <stop offset=".67" stop-color="#e4e9ec"/>
      <stop offset="1" stop-color="#cfd8dd"/>
    </linearGradient>
    <linearGradient id="linear-gradient-2" x1="307.2" y1="27.6" x2="307.2" y2="505.47" gradientTransform="translate(0 514) scale(1 -1)" gradientUnits="userSpaceOnUse">
      <stop offset="0" stop-color="#fff"/>
      <stop offset=".27" stop-color="#f8f9fa"/>
      <stop offset=".67" stop-color="#e4e9ec"/>
      <stop offset="1" stop-color="#cfd8dd"/>
    </linearGradient>
    <linearGradient id="linear-gradient-3" x1="187.73" y1="27.6" x2="187.73" y2="505.47" gradientTransform="translate(0 514) scale(1 -1)" gradientUnits="userSpaceOnUse">
      <stop offset="0" stop-color="#fff"/>
      <stop offset=".27" stop-color="#f8f9fa"/>
      <stop offset=".67" stop-color="#e4e9ec"/>
      <stop offset="1" stop-color="#cfd8dd"/>
    </linearGradient>
    <linearGradient id="linear-gradient-4" x1="68.27" y1="27.6" x2="68.27" y2="505.47" gradientTransform="translate(0 514) scale(1 -1)" gradientUnits="userSpaceOnUse">
      <stop offset="0" stop-color="#fff"/>
      <stop offset=".27" stop-color="#f8f9fa"/>
      <stop offset=".67" stop-color="#e4e9ec"/>
      <stop offset="1" stop-color="#cfd8dd"/>
    </linearGradient>
    <linearGradient id="linear-gradient-5" x1="332.8" y1="308.14" x2="401.07" y2="308.14" gradientTransform="translate(0 514) scale(1 -1)" gradientUnits="userSpaceOnUse">
      <stop offset="0" stop-color="#5b666e"/>
      <stop offset=".05" stop-color="#576169"/>
      <stop offset=".1" stop-color="#4c525c"/>
      <stop offset=".16" stop-color="#3a3a47"/>
      <stop offset=".19" stop-color="#302c3b"/>
    </linearGradient>
    <linearGradient id="linear-gradient-6" x1="366.93" y1="223.87" x2="366.93" y2="428.67" gradientTransform="translate(0 514) scale(1 -1)" gradientUnits="userSpaceOnUse">
      <stop offset="0" stop-color="#5b666e"/>
      <stop offset=".23" stop-color="#515862"/>
      <stop offset="1" stop-color="#302c3b"/>
    </linearGradient>
    <linearGradient id="linear-gradient-7" x1="213.33" y1="308.14" x2="281.6" y2="308.14" gradientTransform="translate(0 514) scale(1 -1)" gradientUnits="userSpaceOnUse">
      <stop offset="0" stop-color="#5b666e"/>
      <stop offset=".05" stop-color="#576169"/>
      <stop offset=".1" stop-color="#4c525c"/>
      <stop offset=".16" stop-color="#3a3a47"/>
      <stop offset=".19" stop-color="#302c3b"/>
    </linearGradient>
    <linearGradient id="linear-gradient-8" x1="247.47" y1="223.87" x2="247.47" y2="428.67" gradientTransform="translate(0 514) scale(1 -1)" gradientUnits="userSpaceOnUse">
      <stop offset="0" stop-color="#5b666e"/>
      <stop offset=".23" stop-color="#515862"/>
      <stop offset="1" stop-color="#302c3b"/>
    </linearGradient>
    <linearGradient id="linear-gradient-9" x1="85.33" y1="308.14" x2="153.6" y2="308.14" gradientTransform="translate(0 514) scale(1 -1)" gradientUnits="userSpaceOnUse">
      <stop offset="0" stop-color="#5b666e"/>
      <stop offset=".05" stop-color="#576169"/>
      <stop offset=".1" stop-color="#4c525c"/>
      <stop offset=".16" stop-color="#3a3a47"/>
      <stop offset=".19" stop-color="#302c3b"/>
    </linearGradient>
    <linearGradient id="linear-gradient-10" x1="119.47" y1="223.87" x2="119.47" y2="428.67" gradientTransform="translate(0 514) scale(1 -1)" gradientUnits="userSpaceOnUse">
      <stop offset="0" stop-color="#5b666e"/>
      <stop offset=".23" stop-color="#515862"/>
      <stop offset="1" stop-color="#302c3b"/>
    </linearGradient>
    <linearGradient id="linear-gradient-11" x1="247.47" y1="428.67" x2="247.47" y2="514" gradientTransform="translate(0 514) scale(1 -1)" gradientUnits="userSpaceOnUse">
      <stop offset=".45" stop-color="#302c3b"/>
      <stop offset=".67" stop-color="#322e3d"/>
      <stop offset=".78" stop-color="#383644"/>
      <stop offset=".87" stop-color="#424450"/>
      <stop offset=".96" stop-color="#505861"/>
      <stop offset="1" stop-color="#5b666e"/>
    </linearGradient>
  </defs>
  <path class="cls-1" d="M469.33,0H25.6C16.21,0,8.53,7.67,8.53,17.07v477.87c0,9.39,7.68,17.07,17.07,17.07h85.33c9.39,0,17.07-7.68,17.07-17.07,0,9.39,7.68,17.07,17.07,17.07h85.33c9.39,0,17.07-7.68,17.07-17.07,0,9.39,7.68,17.07,17.07,17.07h85.33c9.39,0,17.07-7.68,17.07-17.07,0,9.39,7.68,17.07,17.07,17.07h85.33c9.39,0,17.07-7.68,17.07-17.07V17.07c0-9.4-7.68-17.07-17.07-17.07Z"/>
  <path class="cls-10" d="M477.87,469.33c0,9.39-7.68,17.07-17.07,17.07h-68.27c-9.39,0-17.07-7.68-17.07-17.07V25.6c0-9.4,7.68-17.07,17.07-17.07h68.27c9.39,0,17.07,7.67,17.07,17.07v443.73Z"/>
  <path class="cls-9" d="M358.4,469.33c0,9.39-7.68,17.07-17.07,17.07h-68.27c-9.39,0-17.07-7.68-17.07-17.07V25.6c0-9.4,7.68-17.07,17.07-17.07h68.27c9.39,0,17.07,7.67,17.07,17.07v443.73Z"/>
  <path class="cls-8" d="M238.93,469.33c0,9.39-7.68,17.07-17.07,17.07h-68.27c-9.39,0-17.07-7.68-17.07-17.07V25.6c0-9.4,7.68-17.07,17.07-17.07h68.27c9.39,0,17.07,7.67,17.07,17.07v443.73Z"/>
  <path class="cls-7" d="M119.47,469.33c0,9.39-7.68,17.07-17.07,17.07H34.13c-9.39,0-17.07-7.68-17.07-17.07V25.6c0-9.4,7.68-17.07,17.07-17.07h68.27c9.39,0,17.07,7.67,17.07,17.07v443.73Z"/>
  <path class="cls-4" d="M401.07,315.73c0,9.39-7.68,17.07-17.07,17.07h-34.13c-9.39,0-17.07-7.68-17.07-17.07V85.33c0-8.56,68.27-8.56,68.27,0v230.4Z"/>
  <path class="cls-5" d="M392.53,273.07c0,9.39-7.68,17.07-17.07,17.07h-17.07c-9.39,0-17.07-7.68-17.07-17.07V85.33h51.2v187.73Z"/>
  <path class="cls-3" d="M281.6,315.73c0,9.39-7.68,17.07-17.07,17.07h-34.13c-9.39,0-17.07-7.68-17.07-17.07V85.33c0-8.56,68.27-8.56,68.27,0v230.4Z"/>
  <path class="cls-2" d="M273.07,273.07c0,9.39-7.68,17.07-17.07,17.07h-17.07c-9.39,0-17.07-7.68-17.07-17.07V85.33h51.2v187.73Z"/>
  <path class="cls-6" d="M153.6,315.73c0,9.39-7.68,17.07-17.07,17.07h-34.13c-9.39,0-17.07-7.68-17.07-17.07V85.33c0-8.56,68.27-8.56,68.27,0v230.4Z"/>
  <path class="cls-11" d="M145.07,273.07c0,9.39-7.68,17.07-17.07,17.07h-17.07c-9.39,0-17.07-7.68-17.07-17.07V85.33h51.2v187.73Z"/>
  <path class="cls-12" d="M17.07,85.33h460.8c9.39,0,17.07-7.68,17.07-17.07V17.07c0-9.39-7.68-17.07-17.07-17.07H17.07C7.68,0,0,7.68,0,17.07v51.2c0,9.39,7.68,17.07,17.07,17.07Z"/>
</svg>