<?xml version="1.0" encoding="UTF-8"?>
<svg id="Layer_1" data-name="Layer 1" xmlns="http://www.w3.org/2000/svg" xmlns:xlink="http://www.w3.org/1999/xlink" viewBox="0 0 409.59 512">
  <defs>
    <style>
      .cls-1 {
        fill: url(#linear-gradient-3);
      }

      .cls-2 {
        fill: url(#linear-gradient-2);
      }

      .cls-3 {
        fill: #ffc940;
      }

      .cls-4 {
        fill: #1a1626;
      }

      .cls-5 {
        fill: url(#linear-gradient);
      }

      .cls-6 {
        fill: #ed6a00;
      }

      .cls-7 {
        fill: #7a6056;
      }

      .cls-8 {
        fill: #f5bb51;
      }

      .cls-9 {
        fill: #fff;
      }

      .cls-10 {
        fill: #ff7a00;
      }

      .cls-11 {
        fill: #ab968c;
      }

      .cls-12 {
        fill: #966f42;
      }

      .cls-13 {
        fill: #f0a429;
      }

      .cls-14 {
        fill: #302c3b;
      }

      .cls-15 {
        fill: #f2f5f7;
      }
    </style>
    <linearGradient id="linear-gradient" x1="74.53" y1="205.93" x2="1.01" y2="285.14" gradientTransform="translate(118.78 299.61) rotate(-10) scale(1 -1)" gradientUnits="userSpaceOnUse">
      <stop offset="0" stop-color="#473834"/>
      <stop offset=".2" stop-color="#5b4842"/>
      <stop offset=".43" stop-color="#6d554d"/>
      <stop offset=".69" stop-color="#775d54"/>
      <stop offset="1" stop-color="#7a6056"/>
    </linearGradient>
    <linearGradient id="linear-gradient-2" x1="81.98" y1="208.86" x2="2.11" y2="294.92" gradientTransform="translate(118.78 299.61) rotate(-10) scale(1 -1)" gradientUnits="userSpaceOnUse">
      <stop offset="0" stop-color="#473834"/>
      <stop offset=".2" stop-color="#5b4842"/>
      <stop offset=".43" stop-color="#6d554d"/>
      <stop offset=".69" stop-color="#775d54"/>
      <stop offset="1" stop-color="#7a6056"/>
    </linearGradient>
    <linearGradient id="linear-gradient-3" x1="-5.85" y1="224.2" x2="-5.85" y2="236.9" gradientTransform="translate(118.78 299.61) rotate(-10) scale(1 -1)" gradientUnits="userSpaceOnUse">
      <stop offset="0" stop-color="#a6694a"/>
      <stop offset="1" stop-color="#4f2a1e"/>
    </linearGradient>
  </defs>
  <path class="cls-8" d="M98.13,126.29c8.71-6.22,12.92,1.63,14.17,5.02,4.13,11.08,44.75-9.58,37.6-21.9-6.22-10.72-3.02-25.4-3.02-25.4-6.99-2.52-37.44-39.41-48.74,42.28Z"/>
  <path class="cls-7" d="M58.33,74.74c-.15-22.57,23.75-32.75,11.73-52.07-25.45,10.92-24.06,32.7-11.73,52.07Z"/>
  <path class="cls-3" d="M85.88,11.31c-28.12,9.74-35.1,32.28-26.14,55.82,2.01,5.3.15,15.35-5.8,22.65-2.15,2.65-1.89,5.58-.3,7.31,3.13,3.4,8.5,2.48,11,3.52,5.56,2.31,1.17,6.73,5.61,9.85,2,1.4,6.52-1.75,2.94,8.27,6.52,3.2-1.33,15.05,13.8,14.02,7.95-.56,33.42-22.28,36.98-31.82,4.16-11.1,3.57-20.07,3.57-20.07,21.07-10.32,25.5-31.09,17.13-50.53-11.67-27.19-40.56-25.28-58.79-19Z"/>
  <path class="cls-13" d="M70.26,110.46c3,1.17,2.27,4.02,2.27,4.02-1.3.21-.87,4.58,1.07,4.23,6.78-1.19,11.96-8.1,13.4-11.98-10.7,1.37-23.19-1.38-16.73,3.73Z"/>
  <path class="cls-9" d="M70.26,110.46s1.68,3.5,2.27,4.02c2.13-.38,8.78-3.15,12.54-6.68l-14.81,2.66Z"/>
  <path class="cls-13" d="M53.73,97.13c2.94,4.98,15.97,3.87,18.92-3.34-5.9,6.07-20.63.44-18.92,3.34Z"/>
  <path id="Path" class="cls-12" d="M85.15,57.47c-6.78-2.47-18.59-.56-22.54,2.68-.87.65.35,3.9,1.08,3.45,5.65-3.72,15.5-5.51,21.73-3.62.83.26.73-2.18-.28-2.51Z"/>
  <path class="cls-5" d="M95.47,31.03c27.37,18.62,38.58,48.61,39.66,72.4,29.93-17.47,26.02-91.94-39.66-72.4Z"/>
  <path class="cls-2" d="M149.78,98.72c13.73-17.08,13.57-56.22-3.64-78.74C133.47,3.39,117.26-3.3,90.26,1.54c-21.88,3.9-37.85,19.62-38.98,34.68-1.59,20.98,30.05,14.6,43.33,29.25,0,0,2.73-11.73-7.85-25.57,43.08,45.35,51.37-5.55,63.02,58.82Z"/>
  <path class="cls-3" d="M122.88,53.89c-10.4,4.13-9.46,29.12-.44,32.98,1.25.55,7.29.17,9.37-6.37,1.15-3.62,6.75-8.08,6.47-14.72-.35-8.49-5.05-16.01-15.4-11.9Z"/>
  <path id="Path-2" data-name="Path" class="cls-13" d="M124.27,58.29c-2.59,1.43-4.62,5.07-4.55,10.03,9.25-4.35,10.75,6.65,2.33,9.46.47,1.02.98,2.05,1.61,3.08,2.67-5,7.38-4.79,9.37-11.63,1.78-6.16-2.38-14.43-8.76-10.95Z"/>
  <path class="cls-9" d="M84.8,70.49c.42,1.54-3.53,8.01-9.72,9.65-3.52.93-5.28-1.61-6.61-4.45-2.87-11.74,11.84-9.99,16.33-5.21Z"/>
  <path id="Path-3" data-name="Path" class="cls-1" d="M67.95,74.24c1.54,8.64,11.54,6.87,10.02-1.77-1.42-8.05-11.43-6.28-10.02,1.77Z"/>
  <path id="Path-4" data-name="Path" class="cls-4" d="M68.93,73.66c.77,4.32,5.75,3.43,5-.89-.72-4.01-5.7-3.13-5,.89Z"/>
  <path id="Path-5" data-name="Path" class="cls-11" d="M71.71,71.36c.32,1.8,3.22,1.28,2.9-.52-.3-1.67-3.2-1.18-2.9.52Z"/>
  <path class="cls-13" d="M84.8,70.49c-3.65-4.93-17.75-6.49-16.84.87,1.03-5.24,11.45-4.31,16.84-.87Z"/>
  <path class="cls-10" d="M0,485.55s22.98,22.95,55.85,21.38l22.23,5.07c1.75-2.82.79-3.85.79-3.85,0,0-15.25-15.72-76.31-25.04,0,0-1.66-.35-2.55,2.43Z"/>
  <path class="cls-14" d="M56.8,470.19c-9.65,10.32-47.8-7.65-54.25,12.94,0,0,21.23,21.55,54.08,19.98l22.23,5.05c30.35-48.62-22.07-37.97-22.07-37.97Z"/>
  <path class="cls-10" d="M29.85,472.88c5.65,9.37,10.5,12.13,12.48,7.12,4.13,5.02,7.82,2.8,8.67-.26,4.86,3.83,8.15-.54,3.1-7.66-2.97-3.86-25.77-1.72-24.25.81Z"/>
  <path class="cls-10" d="M408.02,443.58s7.62-31.68-10.72-59.19l-7.18-21.79c-3.3-.05-3.67,1.31-3.67,1.31,0,0-5.49,21.26,18.18,78.72,0,0,.57,1.63,3.39.94Z"/>
  <path class="cls-14" d="M365.58,402.59c13.76,2.99,18.24,45.17,39.06,40.06,0,0,7.33-29.45-11-56.95l-7.18-21.77c-35.67,3.18-28.95,16.15-20.88,38.66Z"/>
  <path class="cls-10" d="M381.81,424.4c5.05-9.7,4.9-15.32-.38-14.41,2.13-6.17-1.66-8.2-4.72-7.33.75-6.19-4.67-6.75-8.12,1.28-1.75,4.55,11.87,23.08,13.22,20.46Z"/>
  <path class="cls-8" d="M134.76,269.39c-24.99,23.85-66.33,74.95-65.8,92.35,1.33,44.3-9.27,98.5-9.27,98.5,2.05,9.3,24.35,13.34,29.38,6.61,9.42-42.5,28.62-49.45,21.96-96.8,35.9-23.66,54.73-62.43,71.31-66.58,1.94,49.68,44.95,103.45,54.03,105.61,9.86,2.33,50.13-10.8,118.26-8.99,5.56.15,1.72-27.66-1.05-27.65-51.22.58-75.52-14.1-102.17-.05-3.18-32.78-17.25-49.95-17.94-82.46-.11-5.89-98.73-20.54-98.73-20.54Z"/>
  <path class="cls-15" d="M59.7,460.24c-1.2,7.22-2.03,12.5-2.03,12.5,0,0,9.67,9.18,28.2,7.97,1.08-5.03,1.98-9.5,3.22-13.85-4.39,3.14-24.32-.11-29.39-6.62Z"/>
  <path class="cls-15" d="M364.44,372.13c-3.75.18-7.35.26-10.84.32,3.9,8.3,3.29,22.58,1.05,27.65,3.23.02,6.47.05,9.78.14,5.57.15,2.79-28.23,0-28.1Z"/>
  <path class="cls-4" d="M190.04,348.05s35.7-.89,55.71-13.13c-3.9-39.8-12.5-72.3-27.2-92.75-43.1,8.45-74.62,33.98-28.51,105.88Z"/>
  <path class="cls-14" d="M138.78,249.29c-12.2,20.05-32.66,48.96-45.81,61.46,0,0,19.65,25.62,55.13,30.74,27.17-23.31,128.28-39.82,70.47-99.32-43.12,8.45-79.78,7.12-79.78,7.12Z"/>
  <path class="cls-8" d="M133.16,162.04c-20.93-10.63-31.93,29.25-31.86,40.23-18.83-9.58-50.99-18.13-50.52-21.56,1.24-8.8-.65-9.37-8.99-19.88-2.3-2.92-7.31,1.77-7.31,1.77-7.2-5.35-6.85,2.08-11.56,4.39-4.4,2.13-2.62,5.77-6.77,8.78-9.22,6.73,4.77,20.37,21.18,25.43,11.75,3.65,48.5,42.26,79.4,40.93,10.27-.44,38.14-63.67,16.43-80.08Z"/>
  <path class="cls-10" d="M149.05,107.79c-10.02,3.34-25.04,22.31-36.75,23.52-25.3,55.29,17.4,73.88,21.7,123.96,6.85,11.23,80.56,5.75,87.41-12.07-38.91-46.46,21.75-121-72.36-135.41Z"/>
  <path class="cls-8" d="M183.76,136.26c-21.93,28.35,35.05,41.45,46.39,43.1-13,16.18-45.6,64.8-48.85,63.32-9.46-4.27-9.75-.84-22,5.37-3.4,1.7.63,7.13.63,7.13-6.75,5.93,1,6.75,2.59,11.55,1.48,4.45,5.53,3.35,7.95,7.7,5.44,9.7,21.82-1.3,29.76-15.91,5.68-10.47,64.89-54.94,68.63-84.18,1.25-9.71-64.55-55.91-85.1-38.07Z"/>
  <path class="cls-6" d="M194.01,173.77c9.22-20.04,21.05-34.95,26.2-38.96-73.04-62.07-109.47,9.67-26.2,38.96Z"/>
  <path class="cls-13" d="M33.98,162.28c16.07,10.38,6.35,16.43,6.35,16.43,0,0,13.18-6.01-6.35-16.43Z"/>
  <path class="cls-13" d="M29.65,168.31c15.68,9.63,6.96,15.33,6.96,15.33,0,0,12.08-5.67-6.96-15.33Z"/>
  <path class="cls-13" d="M25.51,172.18c17.07,11.47,7.05,15.58,7.05,15.58,0,0,13.09-3.23-7.05-15.58Z"/>
  <path class="cls-13" d="M22.98,177.97c19.11,8.92,7.8,20.48-5.47,4.86,13.62,12.41,21.82,4.92,5.47-4.86Z"/>
</svg>