<?xml version="1.0" encoding="UTF-8"?>
<svg id="Layer_1" data-name="Layer 1" xmlns="http://www.w3.org/2000/svg" xmlns:xlink="http://www.w3.org/1999/xlink" viewBox="0 0 512.01 512">
  <defs>
    <style>
      .cls-1 {
        fill: #473834;
      }

      .cls-2 {
        fill: #ffc940;
      }

      .cls-3 {
        fill: url(#linear-gradient);
      }

      .cls-4 {
        fill: #f5bb51;
      }

      .cls-5 {
        fill: #d99025;
      }

      .cls-6 {
        fill: #ff7a00;
      }

      .cls-7 {
        fill: #e6a400;
      }

      .cls-8 {
        fill: #45332c;
      }

      .cls-9 {
        fill: #966f42;
      }

      .cls-10 {
        fill: #4e5e67;
      }

      .cls-11 {
        fill: #f0a429;
      }

      .cls-12 {
        fill: #302c3b;
      }
    </style>
    <linearGradient id="linear-gradient" x1="255.28" y1="400.98" x2="255.28" y2="514" gradientTransform="translate(0 514) scale(1 -1)" gradientUnits="userSpaceOnUse">
      <stop offset="0" stop-color="#473834"/>
      <stop offset=".27" stop-color="#594640"/>
      <stop offset=".72" stop-color="#715950"/>
      <stop offset="1" stop-color="#7a6056"/>
    </linearGradient>
  </defs>
  <path class="cls-12" d="M314.41,360.97h-116.82c-15.05,26.85-82.62-10.79-122.92-.95,0,0,145.38,106.86,183.45,107.12,38.08-.25,179.2-107.12,179.2-107.12-40.3-9.84-107.87,27.79-122.92.95Z"/>
  <path class="cls-4" d="M261.07,443.81c6.89,2.13,13.7,3.5,20.48,3.57,11.89-4.22,25.53,7.64,38.15,10.25,14.22,2.94,36.25-5.79,47.44,2.36,14.43-4.23,19.78,11.96,9.95,15.48,2.55,4.74-1.07,8.52-3.3,9.11,1.78,4.09-1.68,8.38-3.64,8.45,1,3.08-1.47,6.49-4.44,7.12-2.83,18.62-61.43-8.3-76.95-11.77-6.77-1.54-11.78-7.62-20.16-11.49l-12.31-.52c2.2-10.72,3.46-21.91,4.79-32.56Z"/>
  <path class="cls-11" d="M365.94,473.87c3.83,3.62,13.32,5.14,15.1-1.45-3.09,1.82-5.19,1.9-15.1,1.45Z"/>
  <path class="cls-11" d="M364.45,485.7s11.23,2.64,13.24-5.23c-3.07,3.95-13.24,5.23-13.24,5.23Z"/>
  <path class="cls-11" d="M362.5,494.92s8.99,2.07,11.15-5.18c-3.06,3.92-11.15,5.18-11.15,5.18Z"/>
  <path class="cls-11" d="M358.86,501.14s9.05,2.52,10.85-4.07c-3.06,3.92-10.85,4.07-10.85,4.07Z"/>
  <path class="cls-10" d="M74.82,359.35c53.91-11.14,105.62,56.29,192.37,86.17-4.42,21.33-6.75,34.08-6.75,34.08-109.12-4.92-164.92-38.07-193.9-57.87-24.35-16.65-23.8-55.75,8.29-62.39Z"/>
  <path class="cls-4" d="M250.92,446.89c-6.89,2.22-13.71,3.62-20.48,3.7-11.9-4.37-25.53,7.9-38.15,10.62-14.22,3.05-36.23-6-47.42,2.47-14.45-4.4-19.81,12.38-9.95,16.03-2.55,4.9,1.05,8.82,3.29,9.45-1.78,4.22,1.68,8.67,3.64,8.75-1,3.2,1.47,6.7,4.42,7.36,2.85,19.29,61.45-8.6,76.97-12.2,6.78-1.59,11.8-7.9,20.15-11.9l12.35-.54c-2.22-11.1-3.48-22.7-4.8-33.73Z"/>
  <path class="cls-11" d="M146.05,478.04c-3.83,3.75-13.3,5.32-15.1-1.52,3.11,1.89,5.21,1.98,15.1,1.52Z"/>
  <path class="cls-11" d="M147.53,490.3s-11.23,2.71-13.22-5.44c3.07,4.1,13.22,5.44,13.22,5.44Z"/>
  <path class="cls-11" d="M149.47,499.84s-8.97,2.13-11.15-5.37c3.08,4.09,11.15,5.37,11.15,5.37Z"/>
  <path class="cls-11" d="M153.12,506.29s-9.04,2.6-10.82-4.22c3.07,4.07,10.82,4.22,10.82,4.22Z"/>
  <path class="cls-10" d="M437.18,359.4c-53.93-11.54-106.27,57.15-193.03,88.1,4.42,22.12,7.4,36.48,7.4,36.48,109.1-5.1,164.92-39.43,193.92-59.96,24.35-17.25,23.8-57.75-8.29-64.62Z"/>
  <path class="cls-4" d="M506.31,340.71c-1.08-.23-11.3.26-11.3.26,0,0,9.65-2.67,12.27-3.5,7.08-2.24,4.88-9.3-.45-9.3-7.94,0-17.54,3.41-17.54,3.41,0,0,.07-10.27-1.15-16.95-.63-3.65-10.27-4-13.43-6.15-.75-.52-1.5-.61-2.22-.56,7.94-5.61,3.03-12.2-.8-10.68-10.47,4.16-12.98-.75-17.98,3.9-3.5,3.27-15.65,20.5-18.95,19.55-15.97-4.63-35-21.68-41.86-30.63-33.37-43.56-19.4-103.94-68.6-101.21-6.47-1.43-16.56-2.38-35.32-2.88-2.24-4.62-3.31-10.02-3.76-15.28h-58.4c-.45,5.27-1.54,10.67-3.76,15.28-18.76.5-28.85,1.45-35.34,2.88-49.19-2.71-35.23,57.65-68.6,101.21-6.87,8.95-25.9,26-41.85,30.63-3.3.95-15.45-16.28-18.95-19.55-5-4.65-7.52.26-17.98-3.9-3.83-1.52-8.73,5.07-.8,10.68-.72-.05-1.47.05-2.22.56-3.17,2.15-12.8,2.5-13.43,6.15-1.22,6.68-1.15,16.95-1.15,16.95,0,0-9.6-3.41-17.54-3.41-5.33,0-7.54,7.07-.45,9.3,2.62.84,12.27,3.5,12.27,3.5,0,0-10.21-.5-11.3-.26-7.15,1.5-7.4,9.48.52,10.75,1.83.3,6.54-.38,7.66-.32-4.97,2.2-5.87,11,4.86,10.72,14.52-.4,27.87,2.08,33.45,2.08,4.23,0,25.18-1.25,32.84-12.19,5.58-8,37.09-12.87,51.34-23.68,10.37-7.9,34.33-27.78,41.22-59.75-.38,19.1,7.31,39.3,7.31,39.3h142.2s7.68-20.2,7.31-39.3c6.87,31.97,30.83,51.85,41.2,59.75,14.25,10.82,45.75,15.68,51.35,23.68,7.65,10.93,28.6,12.19,32.84,12.19,5.58,0,18.94-2.48,33.45-2.08,10.74.28,9.83-8.52,4.86-10.72,1.13-.07,5.84.61,7.66.32,7.92-1.27,7.67-9.25.52-10.75ZM53.84,323.42c-4.81,5.56-2.18,12.62-16.98,5.68-1.95-2.68-2.65-6.5-1.25-9.43,7.31-3.43,8.05-7.87,6.54-10.21,2.48,1.26,5.73,2.45,10,3.4,2.41,3.64,1.69,10.56,1.69,10.56ZM475.16,329.1c-14.8,6.94-12.17-.12-16.98-5.68,0,0-.72-6.94,1.7-10.56,4.27-.95,7.52-2.13,10-3.4-1.52,2.35-.79,6.78,6.54,10.21,1.39,2.94.69,6.75-1.25,9.43Z"/>
  <path class="cls-11" d="M51.34,348.84c.38-5.51,7.88-19.17,20.53-17.57-11.82,3.3-17.59,11.54-20.53,17.57Z"/>
  <path class="cls-11" d="M37.51,342.09c-16.89-1.37-42.6.63-36.63-11.61-1.3,10.43,23.25,8.43,36.63,11.61Z"/>
  <path class="cls-11" d="M22.73,329.71l-.05,1.89c7.4,2.68,11.2,2.07,11.2,2.07,0,0-4.23-1.12-11.15-3.95Z"/>
  <path class="cls-11" d="M39.33,352.25c-20.45-3.7-41.81,5.88-38.75-7.62.44,10.82,19.09,1.08,38.75,7.62Z"/>
  <path class="cls-11" d="M460.67,348.84c-.38-5.51-7.88-19.17-20.53-17.57,11.82,3.3,17.59,11.54,20.53,17.57Z"/>
  <path class="cls-11" d="M474.49,342.09c16.89-1.37,42.6.63,36.63-11.61,1.3,10.43-23.25,8.43-36.63,11.61Z"/>
  <path class="cls-11" d="M489.27,329.71l.05,1.89c-7.4,2.68-11.2,2.07-11.2,2.07,0,0,4.23-1.12,11.15-3.95Z"/>
  <path class="cls-11" d="M472.68,352.25c20.45-3.7,41.81,5.88,38.75-7.62-.44,10.82-19.09,1.08-38.75,7.62Z"/>
  <path class="cls-6" d="M328.32,307.92s-16.72-55.95-4.67-119.08c.47-2.45-25.05-6.5-25.72-3.06-18.29,95.22-65.6,95.2-83.87,0-.67-3.43-26.18.61-25.72,3.06,12.05,63.13-4.68,119.08-4.68,119.08,6.25,32.21,8.32,59.03,8.32,59.03,34,38.92,94.04,38.89,128.02,0,0,0,2.07-26.82,8.32-59.03Z"/>
  <path class="cls-4" d="M219.63,192.39s11.67,12.4,36.37,12.4,36.35-12.4,36.35-12.4v-35.17h-72.71v35.17h0Z"/>
  <path class="cls-1" d="M322.59,143.53c4.75,3.11,10.21,5.45,16.58,6.65-11.32-25.78,5.75-79.85-29.25-119.57-49.33,1.48-56.17,160.77,12.62,139.58-4.37-1.9-7.12-5.77-8.73-10.63,5.3,1.52,11.5,1.57,18.71-.65-5.73-2.47-8.67-8.31-9.93-15.38Z"/>
  <path class="cls-1" d="M198.74,30.62c-35,39.71-14.58,93.78-25.92,119.57,6.37-1.2,11.85-3.53,16.58-6.65-1.26,7.07-4.18,12.9-9.93,15.39,7.22,2.22,13.41,2.17,18.71.65-1.61,4.86-4.35,8.73-8.73,10.63,68.77,21.18,58.63-138.1,9.28-139.59Z"/>
  <path id="Path" class="cls-2" d="M327.99,84.88c-11.15,1.37-19.2,38.6-12.2,48.44,1,1.37,6.73,3.55,11-5.12,2.35-4.8,9.15-8.8,11.25-18.71,2.72-12.7,1.03-25.93-10.04-24.6Z"/>
  <path id="Path-2" data-name="Path" class="cls-2" d="M184.02,84.88c11.15,1.37,19.2,38.6,12.19,48.44-.98,1.37-6.73,3.55-10.98-5.12-2.36-4.8-9.16-8.8-11.26-18.71-2.71-12.7-1.02-25.93,10.06-24.6Z"/>
  <path id="Path-3" data-name="Path" class="cls-11" d="M327.67,92.03c-2.9.91-6.07,5.33-7.8,12.68,10.16-2.18,7.64,14.72-1.2,15.04.09,1.7.2,3.45.4,5.28,4.25-6.17,8.58-3.69,12.87-12.87,3.86-8.28,2.94-22.38-4.27-20.13Z"/>
  <path id="Path-4" data-name="Path" class="cls-11" d="M192.12,104.71c-1.72-7.33-4.88-11.77-7.8-12.66-7.2-2.25-8.12,11.85-4.27,20.13,4.3,9.18,8.62,6.7,12.89,12.87.2-1.83.32-3.58.38-5.3-8.74-.41-11.24-17.11-1.2-15.04Z"/>
  <path class="cls-2" d="M256,13.29c-48.28,0-71.55,39.25-68.63,89.72.58,10.14,3.41,24.78,6.92,37.32,7.24,26.07,45.43,52.3,61.71,52.3s54.47-26.23,61.71-52.3c3.48-12.54,6.31-27.19,6.92-37.32,2.9-50.48-20.35-89.72-68.63-89.72Z"/>
  <path id="Path-5" data-name="Path" class="cls-9" d="M308.45,81.19c-11.03-5.85-32.17-6.14-40.05-2.07-1.68.79-.56,6.31.85,5.8,10.97-4.33,28.66-4.44,38.94.37,1.36.61,1.93-3.31.26-4.1Z"/>
  <path id="Path-6" data-name="Path" class="cls-9" d="M203.56,81.19c11.03-5.85,32.15-6.14,40.03-2.07,1.68.79.56,6.31-.85,5.8-10.98-4.33-28.65-4.44-38.94.37-1.36.61-1.93-3.31-.24-4.1Z"/>
  <path id="Path-7" data-name="Path" class="cls-11" d="M269.02,131.8c-1.37-.95-4.6.54-13.01.54s-11.65-1.48-13.03-.54c-1.65,1.17.98,6.4,13.03,6.4s14.69-5.23,13.01-6.4Z"/>
  <path class="cls-3" d="M256,0c-29.38,0-44.05,13.29-47.04,19.58-35.52,8.1-46.95,67.92-20.35,93.43,3.3-27.19,6.49-44.65,24.58-63.05,10.56,14.11,32.5,22.07,52.15,22.07-9.3-6.75-15.65-13.35-20.63-19.52,32.82,15.04,69.55,24.65,78.67,60.5C354.96,62.87,328.73,0,256,0Z"/>
  <path class="cls-8" d="M242.05,100.07c-8.82,5.63-22.52,5.63-31.35,0-1.35-.85-2.15.07-1.72.8,8.57,14.53,26.21,14.53,34.78,0,.44-.74-.37-1.66-1.72-.8Z"/>
  <path class="cls-8" d="M301.05,100.07c-8.83,5.63-22.54,5.63-31.35,0-1.35-.85-2.15.07-1.73.8,8.57,14.53,26.23,14.53,34.8,0,.44-.74-.38-1.66-1.72-.8Z"/>
  <path class="cls-7" d="M282.64,153.81c-15.6,15.9-38.52,14.8-53.27,0,18.71,1.42,34.53,1.42,53.27,0Z"/>
  <path class="cls-5" d="M256,153.17c-7.42-2.38-14.17,1.94-26.63.65,6.17,2.85,17.19,3.81,26.63,4.1,9.45-.28,20.45-1.25,26.63-4.1-12.45,1.27-19.22-3.05-26.63-.65Z"/>
  <path class="cls-1" d="M208.97,19.57c-.45,25.05,9.67,43.78,56.38,52.46-33.48,2.25-67.84-17.98-56.38-52.46Z"/>
  <path class="cls-1" d="M211.9,48.37c-12.2,12.02-25.88,32.85-23.29,64.65,2.41-26.28,14.5-47.93,25.43-61.95-.76-.84-1.48-1.75-2.14-2.7Z"/>
  <path class="cls-1" d="M232.82,40.43c24.5,23.38,84.69,21.85,90.57,72.59-15.69-49.33-68.93-38.26-90.57-72.59Z"/>
</svg>