<?xml version="1.0" encoding="UTF-8"?>
<svg id="Layer_1" data-name="Layer 1" xmlns="http://www.w3.org/2000/svg" xmlns:xlink="http://www.w3.org/1999/xlink" viewBox="0 0 548.61 512">
  <defs>
    <style>
      .cls-1 {
        fill: url(#radial-gradient-6);
      }

      .cls-2 {
        fill: url(#radial-gradient-5);
      }

      .cls-3 {
        fill: url(#radial-gradient-4);
      }

      .cls-4 {
        fill: url(#radial-gradient-3);
      }

      .cls-5 {
        fill: url(#radial-gradient-2);
      }

      .cls-6 {
        fill: #9c4900;
        opacity: .15;
      }

      .cls-6, .cls-7 {
        isolation: isolate;
      }

      .cls-7 {
        fill: #d48142;
        opacity: .2;
      }

      .cls-8 {
        fill: url(#radial-gradient);
      }

      .cls-9 {
        fill: url(#linear-gradient);
      }

      .cls-10 {
        fill: #ab6a22;
      }
    </style>
    <linearGradient id="linear-gradient" x1="273.7" y1="16.43" x2="273.7" y2="514.16" gradientTransform="translate(0 514.16) scale(1 -1)" gradientUnits="userSpaceOnUse">
      <stop offset="0" stop-color="#e38a47"/>
      <stop offset=".29" stop-color="#eba053"/>
      <stop offset="1" stop-color="#fdd36f"/>
    </linearGradient>
    <radialGradient id="radial-gradient" cx="152.35" cy="1584.47" fx="152.35" fy="1630.09" r="63.71" gradientTransform="translate(-153.09 -980.23) rotate(-5.25) scale(.96 .7) skewX(2.41)" gradientUnits="userSpaceOnUse">
      <stop offset="0" stop-color="#ff562b"/>
      <stop offset=".21" stop-color="#fd5229"/>
      <stop offset=".43" stop-color="#f84523"/>
      <stop offset=".65" stop-color="#ef3118"/>
      <stop offset=".87" stop-color="#e3140a"/>
      <stop offset="1" stop-color="#db0000"/>
    </radialGradient>
    <radialGradient id="radial-gradient-2" cx="201.34" cy="2100.71" fx="201.34" fy="2143.11" r="59.21" gradientTransform="translate(-399.8627 -1045.528) rotate(-16.7045) scale(.9404 .7199) skewX(7.2558)" gradientUnits="userSpaceOnUse">
      <stop offset="0" stop-color="#ffa200"/>
      <stop offset=".26" stop-color="#ff9e00"/>
      <stop offset=".53" stop-color="#ff9100"/>
      <stop offset=".81" stop-color="#ff7d00"/>
      <stop offset="1" stop-color="#ff6a00"/>
    </radialGradient>
    <radialGradient id="radial-gradient-3" cx="183.85" cy="2134.59" fx="183.85" fy="2177.63" r="60.11" gradientTransform="translate(-304.89 -996.99) rotate(-16.74) scale(.96 .7) skewX(2.06)" gradientUnits="userSpaceOnUse">
      <stop offset="0" stop-color="#f20fea"/>
      <stop offset=".25" stop-color="#ee0fe6"/>
      <stop offset=".5" stop-color="#e10eda"/>
      <stop offset=".76" stop-color="#cd0dc6"/>
      <stop offset="1" stop-color="#b30bad"/>
    </radialGradient>
    <radialGradient id="radial-gradient-4" cx="-1029.11" cy="1185.83" fx="-1029.11" fy="1231.89" r="64.33" gradientTransform="translate(9.06 -842.67) rotate(-141.1) scale(.97 -.7) skewX(1.66)" gradientUnits="userSpaceOnUse">
      <stop offset="0" stop-color="#a7ff19"/>
      <stop offset=".21" stop-color="#a3fc18"/>
      <stop offset=".43" stop-color="#96f414"/>
      <stop offset=".65" stop-color="#82e70e"/>
      <stop offset=".87" stop-color="#65d406"/>
      <stop offset="1" stop-color="#50c700"/>
    </radialGradient>
    <radialGradient id="radial-gradient-5" cx="255.53" cy="1459.92" fx="255.53" fy="1505.93" r="64.26" gradientTransform="translate(107.43 -846.57) rotate(17.94) scale(.96 .7) skewX(3.15)" gradientUnits="userSpaceOnUse">
      <stop offset="0" stop-color="#00a2ff"/>
      <stop offset=".2" stop-color="#009efb"/>
      <stop offset=".41" stop-color="#0294ee"/>
      <stop offset=".62" stop-color="#0481da"/>
      <stop offset=".83" stop-color="#0768bd"/>
      <stop offset="1" stop-color="#0a50a1"/>
    </radialGradient>
    <radialGradient id="radial-gradient-6" cx="-212.43" cy="1850.82" fx="-212.43" fy="1890.91" r="55.98" gradientTransform="translate(-592.9393 -1086.1411) rotate(-24.2101) scale(.9915 .8618) skewX(8.2905)" gradientUnits="userSpaceOnUse">
      <stop offset="0" stop-color="#ffeb7d"/>
      <stop offset=".17" stop-color="#ffea79"/>
      <stop offset=".35" stop-color="#ffe56c"/>
      <stop offset=".54" stop-color="#ffde58"/>
      <stop offset=".72" stop-color="#ffd43b"/>
      <stop offset=".91" stop-color="#ffc716"/>
      <stop offset="1" stop-color="#ffbf00"/>
    </radialGradient>
  </defs>
  <path class="cls-10" d="M536.7,197.57c-37.12-38.13-92.35,48.73-111.82,8.59-20.3-41.78,67.29-64.83,44.62-142.27l-102.68,174.73L.08,272.91c0,167.32,166.77,256.47,289.66,236.26,227.39-37.58,287.92-269.45,246.96-311.6Z"/>
  <path class="cls-9" d="M535.33,189.89c-37.12-38.22-93.44,47.09-112.92,6.95-20.3-41.78,85.58-83.66,37.03-151.87-24.23-34.1-157.36-66.2-259.94-26.88C75.51,65.45-9.25,178.28.81,284.71c13.9,146.48,166.13,230.32,288.93,210.02,227.39-37.49,286.64-262.69,245.59-304.84ZM272.64,150.67c-8.87-58.7,95.18-80.83,104.05-22.13,8.87,58.7-95.18,80.92-104.05,22.13Z"/>
  <path class="cls-7" d="M24.95,169.32c-9.14,18.1-16.09,36.76-20.21,55.68,73.15,34.93,242.57,232.24,226.02,249.43-16.73,17.28-115.48-56.78-226.75-168.33,9.23,47.64,33.46,87.78,66.11,118.77,27.06-7.5,81.19,19.75,139.8,69.21,26.88,4.57,54.04,4.94,79.91.73,8.96-1.46,17.56-3.29,25.97-5.39C250.33,422.77,77.25,236.25,24.95,169.32Z"/>
  <path class="cls-7" d="M55.49,122.14c64,68.21,244.22,272.56,233.25,283.9-3.29,3.38-11.79.73-24.6-6.67,27.52,28.8,53.21,56.6,76.8,82.93,17.1-5.58,33.1-12.25,47.91-19.84-54.04-57.79-91.62-106.15-86.04-111.91,5.76-5.94,55.77,36.02,114.2,95.55,3.93-2.56,7.77-5.3,11.61-7.95L89.13,86.11c-12.34,11.25-23.59,23.32-33.65,36.02Z"/>
  <path class="cls-7" d="M352,175.72c-9.14,5.39-19.93,8.59-30.45,9.33,46.17,42.33,100.67,95.55,157.72,154.7,7.5,7.77,14.81,15.45,22.04,23.13,6.58-9.69,12.43-19.48,17.56-29.17,0,0-111.91-76.16-166.86-158Z"/>
  <path class="cls-7" d="M187.51,86.3c6.13-6.31,37.67,14.99,84.76,55.04.18-3.29.73-6.4,1.55-9.42-32.55-24.5-70.77-58.06-110.45-97.65-17.19,8.87-33.28,19.02-48.28,30.26,84.3,87.41,255.37,269.45,333.09,357.96,8.14-6.95,15.73-14.26,22.77-21.67C378.88,321.46,176.27,97.91,187.51,86.3Z"/>
  <path class="cls-7" d="M533.13,301.71c6.67-17.83,10.97-35.02,12.98-50.47-21.03-22.13-41.05-43.7-59.8-64.37-16,7.5-31.64,18.38-44.07,20.57l90.88,94.27Z"/>
  <path class="cls-7" d="M376.69,128.63c.55,3.93.64,7.68.27,11.25l42.88,44.44c.73-14.17,12.53-28.62,24.69-44.34C387.2,73.95,348.34,22.57,340.94,1.81c-14.08-1.37-28.71-2.01-43.61-1.65,25.33,30.26,39.68,50.65,36.66,53.67-3.47,3.57-29.35-17.01-66.75-51.75-6.77.73-13.53,1.74-20.3,2.93l85.86,89.06c21.12.27,40.32,10.79,43.89,34.56Z"/>
  <path class="cls-10" d="M376.87,134.03c.37-66.84-107.62-47.64-104.78,8.41,13.71-42.7,91.34-54.49,104.78-8.41Z"/>
  <path class="cls-6" d="M216.22,99.1c-8.05-13.07-117.49,2.56-124.81,23.41-10.97,31.73,15.18,25.69,24.96,39.22,10.33,14.35,46.17,1.46,63.64,1.55,23.41,0,18.74-20.57,28.34-24.78,17.37-7.5,16.55-25.24,7.86-39.41Z"/>
  <path class="cls-8" d="M216.22,95.53c-9.42-6.67-12.34-19.2-20.3-19.2-22.77-.18-28.53-12.25-41.97-4.3-19.84,11.79-25.24,9.87-36.3,13.99-16.28,6.13-20.94,14.26-26.15,32.92-9.14,32.37,15.18,25.69,24.96,39.22,10.33,14.35,46.17,1.46,63.64,1.55,23.41,0,18.74-20.57,28.34-24.78,17.28-7.5,21.3-29.81,7.77-39.41Z"/>
  <path class="cls-6" d="M513.2,265.14c5.58-19.84-18.47-26.52-43.25-28.16-29.72-2.1-29.53,10.88-50.75,15.45-15.91,3.47-16.55,22.4-16.82,39.68-.27,14.26,11.52,14.26,13.99,27.61,2.01,11.15,15.54,9.97,26.88,15.27,29.62,13.62,35.38-10.79,50.29-15.36,17.92-5.49,4.94-19.38,15.27-27.43,10.06-7.77,1.55-16.82,4.39-27.06Z"/>
  <path class="cls-5" d="M513.2,260.48c5.58-19.84-18.47-26.52-43.25-28.16-29.72-2.1-29.53,10.88-50.75,15.45-15.91,3.47-16.55,22.4-16.82,39.68-.18,14.26,11.61,14.26,13.99,27.61,2.01,11.15,15.54,9.97,26.88,15.27,29.62,13.62,35.38-10.79,50.29-15.36,17.92-5.49,4.94-19.38,15.27-27.43,10.06-7.77,1.55-16.82,4.39-27.06Z"/>
  <path class="cls-6" d="M411.16,345.05c-20.57-13.9-106.43,14.35-102.68,52.3,3.11,31.64,30.72,28.89,56.6,28.62,24.5-.37,34.74-23.77,51.75-25.24,15.91-1.46,19.11-38.86-5.67-55.68Z"/>
  <path class="cls-4" d="M411.16,340.48c-24.6-17.56-21.76-10.33-38.86-13.71-24.78-4.94-23.22,9.69-47.64,17.92-16.18,5.39-19.38,27.43-16.18,48.09,4.85,31.36,30.72,28.89,56.6,28.62,24.5-.37,34.74-23.77,51.75-25.24,15.91-1.46,18.74-38.22-5.67-55.68Z"/>
  <path class="cls-6" d="M222.26,467.21c8.23,17.28,22.86,4.21,34.01,6.95,19.02,4.75,31.64-6.67,31.36-19.29-.37-17.65,15.91-34.84,4.39-44.89-11.43-9.87-6.67-22.86-23.96-35.66-21.49-15.91-52.48-25.42-73.88-2.83-18.01,19.02,1.19,36.02-1.55,57.69-2.29,18.2,24.78,27.89,29.62,38.04Z"/>
  <path class="cls-3" d="M222.26,463.28c8.23,17.28,22.86,4.21,34.01,6.95,19.02,4.75,31.64-6.67,31.36-19.29-.37-17.65,15.91-34.84,4.39-44.89-11.43-9.87-6.67-22.86-23.96-35.66-21.49-15.91-52.48-25.42-73.88-2.83-18.01,19.02,1.19,36.02-1.55,57.69-2.29,18.29,24.78,27.89,29.62,38.04Z"/>
  <path class="cls-6" d="M155.24,243.29c11.34-18.56-11.79-32.92-28.25-46.72-18.1-15.09-73.05-9.42-86.68,19.2-8.14,17.1-11.7,55.13,28.34,56.51,18.2.64,22.86,14.35,53.03,6.95,38.13-9.42,21.76-16.55,33.56-35.93Z"/>
  <path class="cls-2" d="M155.24,239.81c11.34-18.56-11.79-32.92-28.25-46.72-18.1-15.09-73.05-9.42-86.68,19.2-8.14,17.1-11.7,55.13,28.34,56.51,18.2.64,22.86,14.35,53.03,6.95,38.13-9.42,21.76-16.55,33.56-35.93Z"/>
  <path class="cls-6" d="M79.99,317.53c-37.49,20.39-20.66,45.99-20.94,63.73-.18,12.98,17.01,28.34,47.73,20.76,20.48-5.03,24.87,8.32,46.72-10.51,17.01-14.72,33.56-43.98,11.43-67.48-22.58-24.05-49.28-25.88-84.94-6.49Z"/>
  <path class="cls-1" d="M165.39,319.82c-22.68-24.14-49.37-25.97-84.94-6.58-37.49,20.39-20.66,45.99-20.94,63.73-.18,12.98,17.01,28.34,47.73,20.76,20.48-5.03,24.87,8.32,46.72-10.51,17.01-14.63,33.56-43.89,11.43-67.39Z"/>
</svg>