<?xml version="1.0" encoding="UTF-8"?>
<svg id="Layer_1" data-name="Layer 1" xmlns="http://www.w3.org/2000/svg" xmlns:xlink="http://www.w3.org/1999/xlink" viewBox="0 0 546.17 512">
  <defs>
    <style>
      .cls-1 {
        fill: #feec9a;
      }

      .cls-2 {
        fill: #d47706;
      }

      .cls-3 {
        fill: url(#linear-gradient-8);
      }

      .cls-4 {
        fill: url(#linear-gradient-7);
      }

      .cls-5 {
        fill: url(#linear-gradient-5);
      }

      .cls-6 {
        fill: url(#linear-gradient-6);
      }

      .cls-7 {
        fill: url(#linear-gradient-9);
      }

      .cls-8 {
        fill: url(#linear-gradient-4);
      }

      .cls-9 {
        fill: url(#linear-gradient-3);
      }

      .cls-10 {
        fill: url(#linear-gradient-2);
      }

      .cls-11 {
        fill: url(#radial-gradient);
      }

      .cls-12 {
        fill: url(#linear-gradient);
      }

      .cls-13 {
        fill: url(#linear-gradient-10);
      }

      .cls-14 {
        fill: #523214;
      }
    </style>
    <linearGradient id="linear-gradient" x1="-1040.1" y1="386.69" x2="-827.68" y2="386.69" gradientTransform="translate(-827.68 514) rotate(-180)" gradientUnits="userSpaceOnUse">
      <stop offset="0" stop-color="#ca7900"/>
      <stop offset=".57" stop-color="#ffdc5e"/>
      <stop offset="1" stop-color="#ca7900"/>
    </linearGradient>
    <linearGradient id="linear-gradient-2" x1="-1483.6" y1="386.69" x2="-1271.18" y2="386.69" gradientTransform="translate(1817.3541 514) scale(1 -1)" gradientUnits="userSpaceOnUse">
      <stop offset="0" stop-color="#ca7900"/>
      <stop offset=".57" stop-color="#ffdc5e"/>
      <stop offset="1" stop-color="#ca7900"/>
    </linearGradient>
    <linearGradient id="linear-gradient-3" x1="93.37" y1="33.02" x2="452.8" y2="33.02" gradientTransform="translate(0 514) scale(1 -1)" gradientUnits="userSpaceOnUse">
      <stop offset="0" stop-color="#916958"/>
      <stop offset=".21" stop-color="#8b6454"/>
      <stop offset=".49" stop-color="#7b5748"/>
      <stop offset=".8" stop-color="#5f4034"/>
      <stop offset="1" stop-color="#4a2f24"/>
    </linearGradient>
    <linearGradient id="linear-gradient-4" x1="124.6" y1="93.56" x2="421.56" y2="93.56" gradientTransform="translate(0 514) scale(1 -1)" gradientUnits="userSpaceOnUse">
      <stop offset="0" stop-color="#916958"/>
      <stop offset=".21" stop-color="#8b6454"/>
      <stop offset=".49" stop-color="#7b5748"/>
      <stop offset=".8" stop-color="#5f4034"/>
      <stop offset="1" stop-color="#4a2f24"/>
    </linearGradient>
    <radialGradient id="radial-gradient" cx="343.18" cy="697.5" fx="343.18" fy="697.5" r="155.79" gradientTransform="translate(-68.8303 2150.2249) scale(.9269 -3.0492)" gradientUnits="userSpaceOnUse">
      <stop offset="0" stop-color="#ca7900"/>
      <stop offset=".1" stop-color="#cd7f06"/>
      <stop offset=".23" stop-color="#d79016"/>
      <stop offset=".38" stop-color="#e6ad31"/>
      <stop offset=".54" stop-color="#fbd456"/>
      <stop offset=".57" stop-color="#ffdc5e"/>
      <stop offset="1" stop-color="#ca7900"/>
    </radialGradient>
    <linearGradient id="linear-gradient-5" x1="180.41" y1="145.13" x2="365.93" y2="145.13" gradientTransform="translate(0 514) scale(1 -1)" gradientUnits="userSpaceOnUse">
      <stop offset="0" stop-color="#ca7900"/>
      <stop offset=".43" stop-color="#ffdc5e"/>
      <stop offset="1" stop-color="#ca7900"/>
    </linearGradient>
    <linearGradient id="linear-gradient-6" x1="195.77" y1="156.47" x2="350.48" y2="156.47" gradientTransform="translate(0 514) scale(1 -1)" gradientUnits="userSpaceOnUse">
      <stop offset="0" stop-color="#ca7900"/>
      <stop offset=".43" stop-color="#ffdc5e"/>
      <stop offset="1" stop-color="#ca7900"/>
    </linearGradient>
    <linearGradient id="linear-gradient-7" x1="222.4" y1="198.31" x2="323.77" y2="198.31" gradientTransform="translate(0 514) scale(1 -1)" gradientUnits="userSpaceOnUse">
      <stop offset="0" stop-color="#ca7900"/>
      <stop offset=".43" stop-color="#ffdc5e"/>
      <stop offset="1" stop-color="#ca7900"/>
    </linearGradient>
    <linearGradient id="linear-gradient-8" x1="272.9" y1="233" x2="272.9" y2="251.07" gradientTransform="translate(0 514) scale(1 -1)" gradientUnits="userSpaceOnUse">
      <stop offset="0" stop-color="#ca7900"/>
      <stop offset="1" stop-color="#ffdc5e"/>
    </linearGradient>
    <linearGradient id="linear-gradient-9" x1="211.11" y1="151.4" x2="335.06" y2="27.45" gradientTransform="translate(0 514) scale(1 -1)" gradientUnits="userSpaceOnUse">
      <stop offset="0" stop-color="#ca7900"/>
      <stop offset=".43" stop-color="#ffdc5e"/>
      <stop offset="1" stop-color="#ca7900"/>
    </linearGradient>
    <linearGradient id="linear-gradient-10" x1="233.99" y1="584.22" x2="233.99" y2="595.28" gradientTransform="translate(8.28 693.44) scale(1.13 -1.16)" gradientUnits="userSpaceOnUse">
      <stop offset="0" stop-color="#ca7900"/>
      <stop offset="1" stop-color="#ffdc5e"/>
    </linearGradient>
  </defs>
  <path class="cls-12" d="M10.09,29.78l55.3-9.64c2.99-.51,5.63,1.88,5.29,4.86-2.56,21.5,25.86,42.15,40.02,23.21,8.7-11.61-8.28-19.71-12.54-8.62-2.22,5.72-10.58,5.21-11.52-.85-3.16-21.08,33.79-34.05,41.22-3.07.43,55.04-62.89,42.24-70.66,8.02l-30.29,5.29c2.13,90.45,143.62,138.15,178.77,159.66,9.47,5.8,9.39,35.16-2.9,27.48C152.17,204.54,7.27,171.35.02,42.07c-.34-5.97,4.18-11.18,10.07-12.29Z"/>
  <path class="cls-10" d="M536.08,29.78l-55.3-9.64c-2.99-.51-5.63,1.88-5.29,4.86,2.56,21.5-25.86,42.15-40.02,23.21-8.7-11.61,8.28-19.71,12.54-8.62,2.22,5.72,10.58,5.21,11.52-.85,3.16-21.08-33.79-34.05-41.22-3.07-.43,55.04,62.89,42.24,70.66,8.02l30.38,5.38c-2.22,90.37-143.7,138.15-178.86,159.57-9.47,5.8-9.39,35.16,2.9,27.48,50.6-31.57,195.5-64.77,202.75-194.05.34-5.97-4.18-11.18-10.07-12.29Z"/>
  <path class="cls-9" d="M452.8,449.96H93.37v38.83h0c.09,11.61,59.99,23.21,179.71,23.21s179.71-11.61,179.71-23.3h0s0-38.74,0-38.74Z"/>
  <path class="cls-14" d="M273.08,473.17c-239.62,0-239.62-46.51,0-46.51s239.62,46.51,0,46.51Z"/>
  <path class="cls-8" d="M421.56,446.81v-71.34H124.6v71.34h0c0,9.3,49.49,18.6,148.48,18.6s148.57-9.3,148.48-18.6Z"/>
  <path class="cls-14" d="M273.08,394.07c-197.97,0-197.97-37.21,0-37.21s197.97,37.21,0,37.21Z"/>
  <path class="cls-11" d="M249.96,266.24c9.81,5.72,36.61,5.72,46.42,0,39.94-23.38,128.51-65.37,128.51-253.35H121.36c0,187.99,88.66,229.97,128.6,253.35Z"/>
  <path class="cls-5" d="M325.91,348.93h-105.73c-11.26,9.3-39.77,10.92-39.77,19.03,0,27.82,185.51,27.82,185.51,0-.09-7.85-28.67-9.56-40.02-19.03Z"/>
  <path class="cls-6" d="M317.2,341.25h-88.23c-9.39,7.59-33.19,8.96-33.19,15.53,0,22.7,154.71,22.7,154.71,0,0-6.31-23.89-7.77-33.28-15.53Z"/>
  <path class="cls-4" d="M289.72,277.08h-33.28c-1.19,61.78-34.05,53.76-34.05,64.43,0,17.07,101.38,17.07,101.38,0,0-10.24-32.77-2.99-34.05-64.43Z"/>
  <path class="cls-3" d="M292.97,279.04c-2.13,2.82-38.57,2.3-40.02,0-1.96-3.16-6.57-11.86-2.73-14.93,2.13-1.71,43.86-1.54,45.48,0,3.5,3.33-.51,12.12-2.73,14.93Z"/>
  <path class="cls-7" d="M380.01,440.41v-32.85c-5.03,0-10.07-3.16-10.67-9.47-23.89,2.47-55.89,4.01-96.26,4.01s-72.36-1.54-96.26-4.01c-.6,6.23-5.55,9.47-10.67,9.47v32.85c6.14.09,11.61,5.89,10.84,12.03,23.89,2.47,55.81,4.01,96.09,4.01s72.19-1.54,96.09-4.01c-.77-6.14,4.69-12.03,10.84-12.03Z"/>
  <path class="cls-1" d="M173.24,425.81c0-8.53,12.89-8.53,12.89,0s-12.89,8.53-12.89,0Z"/>
  <path class="cls-2" d="M173.24,425.81c0-1.11,12.89-1.11,12.89,0s-12.89,1.11-12.89,0Z"/>
  <path class="cls-1" d="M360.12,425.81c0-8.53,12.89-8.53,12.89,0s-12.89,8.53-12.89,0Z"/>
  <path class="cls-2" d="M360.12,425.81c0-1.11,12.89-1.11,12.89,0s-12.89,1.11-12.89,0Z"/>
  <path class="cls-13" d="M424.81,12.89H121.36c-6.49,0-6.49-12.89,0-12.89h303.45c6.49,0,6.49,12.89,0,12.89Z"/>
</svg>