<?xml version="1.0" encoding="UTF-8"?>
<svg id="Layer_1" data-name="Layer 1" xmlns="http://www.w3.org/2000/svg" xmlns:xlink="http://www.w3.org/1999/xlink" viewBox="0 0 511.88 512">
  <defs>
    <style>
      .cls-1 {
        fill: url(#radial-gradient-2);
      }

      .cls-2 {
        fill: #007bff;
      }

      .cls-3 {
        fill: #1959ff;
      }

      .cls-4 {
        fill: url(#radial-gradient);
      }

      .cls-5 {
        fill: #8f5232;
      }

      .cls-6 {
        fill: #a65f3a;
      }

      .cls-7 {
        fill: #0f3599;
      }

      .cls-8 {
        fill: #cc8c6a;
      }

      .cls-9 {
        fill: #1039a6;
      }

      .cls-10 {
        fill: #00a2ff;
      }
    </style>
    <radialGradient id="radial-gradient" cx="259.13" cy="358.42" fx="259.13" fy="358.42" r="188.88" gradientTransform="translate(0 513.77) scale(1 -1)" gradientUnits="userSpaceOnUse">
      <stop offset=".21" stop-color="#1959ff"/>
      <stop offset=".24" stop-color="#1958fc"/>
      <stop offset=".74" stop-color="#1548d0"/>
      <stop offset="1" stop-color="#1342bf"/>
    </radialGradient>
    <radialGradient id="radial-gradient-2" cx="309.99" cy="447.27" fx="309.99" fy="447.27" r="317.96" gradientTransform="translate(0 513.77) scale(1 -1)" gradientUnits="userSpaceOnUse">
      <stop offset=".16" stop-color="#007bff"/>
      <stop offset=".54" stop-color="#0c6aff"/>
      <stop offset="1" stop-color="#1959ff"/>
    </radialGradient>
  </defs>
  <path class="cls-8" d="M254.85,56.88l-27.83-42.02c13.82-.36,23.83.82,30.01,3.55,6.18,2.73,10.64,7.91,13.37,15.55,2.73,7.64,5.73,18.19,9,31.65-6.18-2.91-11.82-5.09-16.92-6.55-5.09-1.46-7.64-2.18-7.64-2.18" vector-effect="none"/>
  <path class="cls-6" d="M254.85,56.88l-22.92,19.65c-7.64,84.4-15.55,155.26-23.74,212.56s-15.28,100.41-21.28,129.33c-6,28.92-9,43.38-9,43.38l-32.2-7.09c1.46-50.21,4.55-100.41,9.28-150.62,4.73-50.21,11.1-98.05,19.1-143.52,8-45.48,17.46-86.77,28.38-123.88,2.18-6.91,5.82-12.37,10.91-16.37,5.09-4,10.64-5.73,16.64-5.18,6,.55,11.37,4.18,16.1,10.91,4.73,6.73,7.64,17.01,8.73,30.83" vector-effect="none"/>
  <path class="cls-5" d="M223.74,102.17c.36-1.09,1.91-1.82,4.64-2.18s5.28-.36,7.64,0c2.36.36,3.37,1.09,3,2.18-9.1,33.11-16.46,66.58-22.1,100.41s-10.1,66.12-13.37,96.86c-3.27,30.74-5.55,58.12-6.82,82.13-1.27,24.01-2.09,43.02-2.46,57.03-.36,14.01-.55,21.01-.55,21.01l-15.83,2.18s.27-6.28.82-18.83c.55-12.55,1.55-29.29,3-50.21s3.27-44.2,5.46-69.85c2.18-25.65,4.91-52.02,8.19-79.13,3.27-27.1,7.28-52.93,12.01-77.49,4.73-24.56,10.19-45.93,16.37-64.12" vector-effect="none"/>
  <path class="cls-3" d="M389.09,414.32c-16.01-52.02-31.83-99.96-47.48-143.8-15.64-43.84-30.01-81.95-43.11-114.33-13.1-32.38-23.65-57.48-31.65-75.31-8-17.83-12.01-26.74-12.01-26.74,0,0,2.18.09,6.55.27,4.37.18,9.37.91,15.01,2.18,5.64,1.27,10.46,3.73,14.46,7.37,9.46,7.64,18.46,19.01,27.01,34.11,8.55,15.1,16.83,32.11,24.83,51.02,8,18.92,15.92,38.56,23.74,58.94,7.82,20.37,15.55,39.84,23.19,58.39,7.64,18.55,15.28,34.93,22.92,49.11,6.91,12.37,14.64,23.19,23.19,32.47,8.55,9.28,17.28,18.19,26.19,26.74,8.91,8.55,17.1,17.64,24.56,27.29,7.46,9.64,13.55,20.74,18.28,33.29,4.73,12.55,7.09,27.74,7.09,45.57,0,2.91-2.09,4.46-6.28,4.64-4.18.18-7.91.27-11.19.27-9.46-.36-20.92-3.09-34.38-8.19-13.46-5.09-26.65-12.82-39.56-23.19-12.92-10.37-23.38-23.74-31.38-40.11" vector-effect="none"/>
  <path class="cls-10" d="M399.46,320.45c-7.64-13.1-15.55-29.74-23.74-49.93-8.19-20.19-16.55-41.66-25.1-64.39-8.55-22.74-17.37-44.66-26.47-65.76-9.1-21.1-18.55-39.38-28.38-54.84-9.82-15.46-20.01-25.74-30.56-30.83,0,0,3,.55,9,1.64,6,1.09,11.01,3.27,15.01,6.55,9.1,8,17.92,19.65,26.47,34.93,8.55,15.28,16.83,32.47,24.83,51.57,8,19.1,16.01,38.84,24.01,59.21,8,20.37,15.83,40.02,23.47,58.94,7.64,18.92,15.28,35.47,22.92,49.66,7.28,13.46,16.46,25.56,27.56,36.29,11.1,10.73,22.1,21.83,33.02,33.29,10.91,11.46,20.01,24.65,27.29,39.56,7.28,14.92,10.91,33.29,10.91,55.12,0,.73-1.82,1.64-5.46,2.73-3.64,1.09-5.46,1.09-5.46,0,0-17.46-2.18-32.38-6.55-44.75-4.37-12.37-10.1-23.1-17.19-32.2-7.09-9.1-15.01-17.83-23.74-26.19-8.73-8.37-17.64-17.28-26.74-26.74-9.1-9.46-17.46-20.74-25.1-33.83" vector-effect="none"/>
  <path class="cls-9" d="M192.64,130c-2.55-.36-3.55-3-3-7.91.55-4.91,1.91-10.73,4.09-17.46,2.18-6.73,4.55-13.19,7.09-19.37,6.91-15.64,15.28-25.38,25.1-29.2,9.82-3.82,21.46-4.09,34.93-.82,8,2.18,16.1,8.55,24.28,19.1,8.19,10.55,16.19,23.83,24.01,39.84,7.82,16.01,15.55,33.29,23.19,51.84,7.64,18.55,14.92,37.29,21.83,56.21,6.91,18.92,13.64,36.38,20.19,52.39,6.55,16.01,12.55,29.47,18.01,40.38,8,15.28,16.74,28.1,26.19,38.47,9.46,10.37,18.65,19.74,27.56,28.1,8.91,8.37,17.1,17.1,24.56,26.19,7.46,9.1,13.46,19.83,18.01,32.2,4.55,12.37,6.82,27.65,6.82,45.84-19.65,0-37.56-3.37-53.75-10.1-16.19-6.73-30.38-15.1-42.57-25.1-12.19-10-22.19-20.37-30.01-31.11-7.82-10.73-13.37-20.1-16.64-28.1-5.82-16.01-12.55-34.47-20.19-55.39-7.64-20.92-15.37-42.11-23.19-63.58-7.82-21.47-15.01-41.11-21.56-58.94-6.55-17.83-12.01-31.83-16.37-42.02-3.64-9.46-11.64-17.74-24.01-24.83-12.37-7.09-30.56-12.64-54.57-16.64" vector-effect="none"/>
  <path class="cls-7" d="M210.65,102.72c-3.64,0-6.28-.55-7.91-1.64-1.64-1.09-.82-5.46,2.46-13.1,5.46-12.37,12.46-20.1,21.01-23.19,8.55-3.09,18.46-3.37,29.74-.82,6.91,1.82,14.1,7.73,21.56,17.74,7.46,10,15.01,22.83,22.65,38.47,7.64,15.64,15.19,32.56,22.65,50.75,7.46,18.19,14.83,36.56,22.1,55.12s14.19,35.83,20.74,51.84c6.55,16.01,12.55,29.29,18.01,39.84,8.73,16.01,17.37,29.29,25.92,39.84,8.55,10.55,16.83,19.83,24.83,27.83s15.55,16.28,22.65,24.83c7.09,8.55,13.37,18.65,18.83,30.29,1.82,3.64,1.73,6.64-.27,9-2,2.36-5.18,2.27-9.55-.27-12.37-6.91-24.65-15.46-36.84-25.65-12.19-10.19-23.28-20.65-33.29-31.38-10-10.73-18.1-20.46-24.28-29.2-10.19-14.19-19.83-30.38-28.92-48.57-9.1-18.19-17.64-36.65-25.65-55.39-8-18.74-15.1-36.11-21.28-52.12-6.18-16.01-11.28-29.1-15.28-39.29-2.18-4.73-4.64-10.73-7.37-18.01-2.73-7.28-6.55-14.64-11.46-22.1-4.91-7.46-11.46-13.55-19.65-18.28-8.19-4.73-18.65-6.91-31.38-6.55" vector-effect="none"/>
  <path class="cls-8" d="M49.66,409.95l102.05-5.46,21.83,3.82-124.97,12.01,1.09-10.37" vector-effect="none"/>
  <path class="cls-5" d="M49.11,414.86l124.42-6.55-2.18,18.01-124.42,7.64,2.18-19.1" vector-effect="none"/>
  <path class="cls-8" d="M54.03,329.19l100.41-2.73,19.65,3.27-121.69,10.91,1.64-11.46" vector-effect="none"/>
  <path class="cls-5" d="M53.48,333.55l120.6-3.82v19.1l-122.79,2.73,2.18-18.01" vector-effect="none"/>
  <path class="cls-8" d="M63.3,247.87l104.23-1.09,21.28,4.37-127.7,10.37,2.18-13.64" vector-effect="none"/>
  <path class="cls-5" d="M62.21,252.79l126.61-1.64-2.73,18.01-126.06,1.64,2.18-18.01" vector-effect="none"/>
  <path class="cls-8" d="M73.67,167.66l104.78-1.64,21.28,4.37-127.7,10.91,1.64-13.64" vector-effect="none"/>
  <path class="cls-5" d="M73.13,172.57l126.61-2.18-2.18,18.01-126.61,2.18,2.18-18.01" vector-effect="none"/>
  <path class="cls-4" d="M338.34,506.54c-12.01,0-24.19-6.09-36.56-18.28-12.37-12.19-24.65-28.38-36.84-48.57-12.19-20.19-23.92-42.93-35.2-68.21-11.28-25.29-21.65-51.21-31.11-77.76-9.46-26.56-17.74-52.12-24.83-76.67-7.09-24.56-12.55-46.29-16.37-65.21-3.82-18.92-5.55-33.11-5.18-42.57,12.37.36,24.56.18,36.56-.55,12.01-.73,23.01-.18,33.02,1.64,10,1.82,18.28,6.37,24.83,13.64,7.28,8,14.28,20.01,21.01,36.02,6.73,16.01,14.01,34.38,21.83,55.12,7.82,20.74,16.64,42.38,26.47,64.94,9.82,22.56,21.19,44.66,34.11,66.3,12.92,21.65,27.92,41.38,45.02,59.21,16.37,17.1,31.29,29.65,44.75,37.65,13.46,8,24.38,13.37,32.74,16.1,8.37,2.73,13.1,5,14.19,6.82,1.09,1.82,1.73,4.73,1.91,8.73.18,4,.27,6.91.27,8.73,0,0-4.82.82-14.46,2.46-9.64,1.64-21.74,3.55-36.29,5.73-14.55,2.18-29.2,4.37-43.93,6.55-14.73,2.18-27.38,4.09-37.93,5.73-10.55,1.64-16.55,2.46-18.01,2.46" vector-effect="none"/>
  <path class="cls-1" d="M345.98,491.81c-11.64,0-23.83-5.82-36.56-17.46-12.73-11.64-25.38-27.2-37.93-46.66-12.55-19.46-24.83-41.2-36.84-65.21-12.01-24.01-23.01-48.84-33.02-74.49-10-25.65-18.74-50.21-26.19-73.67-7.46-23.47-13.28-44.48-17.46-63.03s-6.09-32.56-5.73-42.02c12.37.36,23.92.45,34.65.27,10.73-.18,20.46.91,29.2,3.27s16.37,7.37,22.92,15.01c7.28,8,14.1,19.92,20.46,35.74,6.37,15.83,13.19,34.11,20.46,54.84,7.28,20.74,15.46,42.29,24.56,64.67s19.92,44.38,32.47,66.03c12.55,21.65,27.38,41.38,44.48,59.21,16.37,17.1,31.2,29.74,44.48,37.93,13.28,8.19,23.92,13.82,31.92,16.92s12.55,5.55,13.64,7.37c.73.73-2.82,1.91-10.64,3.55-7.82,1.64-17.74,3.46-29.74,5.46-12.01,2-24.28,3.91-36.84,5.73-12.55,1.82-23.28,3.37-32.2,4.64-8.91,1.27-14.28,1.91-16.1,1.91" vector-effect="none"/>
  <path class="cls-2" d="M486.78,466.16c1.46,1.09,2.27,3.91,2.46,8.46.18,4.55.09,7.55-.27,9l-147.89,22.92-14.19-15.83,159.89-24.56" vector-effect="none"/>
  <path class="cls-8" d="M116.78,39.41L88.41.12c14.19,0,24.65,1.27,31.38,3.82,6.73,2.55,11.55,7.19,14.46,13.92,2.91,6.73,5.82,16.46,8.73,29.2,0,0-2.27-.91-6.82-2.73-4.55-1.82-11.01-3.46-19.37-4.91" vector-effect="none"/>
  <path class="cls-6" d="M36.02,474.35L0,465.61s.55-5.73,1.64-17.19c1.09-11.46,2.55-27.19,4.37-47.2,1.82-20.01,4.09-42.75,6.82-68.21,2.73-25.47,5.82-52.3,9.28-80.49,3.46-28.2,7.28-56.3,11.46-84.31,4.18-28.01,8.64-54.66,13.37-79.95,4.73-25.29,9.82-47.57,15.28-66.85,1.09-4.73,4.09-9.28,9-13.64C76.13,3.4,81.67.85,87.86.12c6.18-.73,11.91,1.82,17.19,7.64,5.28,5.82,9.19,16.37,11.73,31.65l-34.93,81.86c-3.27,23.65-6.73,48.66-10.37,75.04-3.64,26.38-7.19,52.75-10.64,79.13-3.46,26.38-6.73,51.48-9.82,75.31-3.09,23.83-5.73,45.02-7.91,63.58-2.18,18.55-3.91,33.2-5.18,43.93-1.27,10.73-1.91,16.1-1.91,16.1" vector-effect="none"/>
  <path class="cls-5" d="M86.22,89.62h9.28c-4.37,23.28-8.55,48.84-12.55,76.67-4,27.83-7.55,56.12-10.64,84.86-3.09,28.74-5.82,56.3-8.19,82.68-2.36,26.38-4.37,50.02-6,70.94-1.64,20.92-2.82,37.56-3.55,49.93-.73,12.37-1.09,18.55-1.09,18.55l-17.46,1.09s.27-5.73.82-17.19,1.55-27.29,3-47.48c1.46-20.19,3.46-43.11,6-68.76,2.55-25.65,5.73-52.84,9.55-81.58,3.82-28.74,8.28-57.66,13.37-86.77,5.09-29.11,10.91-56.75,17.46-82.95" vector-effect="none"/>
  <path class="cls-3" d="M231.38,432.87c-14.19-57.12-28.47-109.78-42.84-157.98-14.37-48.2-27.47-90.13-39.29-125.79-11.82-35.65-21.28-63.3-28.38-82.95-7.09-19.65-10.64-29.47-10.64-29.47,0,0,2,.09,6,.27,4,.18,8.64,1,13.92,2.46,5.28,1.46,9.73,4.18,13.37,8.19,8.37,8.73,16.55,21.19,24.56,37.38,8,16.19,15.92,34.74,23.74,55.66,7.82,20.92,15.37,42.57,22.65,64.94,7.28,22.37,14.1,44.02,20.46,64.94,6.37,20.92,12.28,39.56,17.74,55.94,4.37,14.19,10.28,26.47,17.74,36.84,7.46,10.37,15.28,20.1,23.47,29.2,8.19,9.1,15.83,18.65,22.92,28.65,7.09,10,12.92,21.83,17.46,35.47,4.55,13.64,6.82,30.29,6.82,49.93,0,2.91-1.82,4.55-5.46,4.91-3.64.36-6.91.55-9.82.55-8.73-.73-19.1-3.82-31.11-9.28-12.01-5.46-23.74-14.01-35.2-25.65-11.46-11.64-20.83-26.38-28.1-44.2" vector-effect="none"/>
  <path class="cls-10" d="M240.66,329.73c-5.82-15.28-12.1-34.2-18.83-56.75-6.73-22.56-14.01-46.29-21.83-71.22-7.82-24.92-16.01-48.84-24.56-71.76-8.55-22.92-17.37-42.75-26.47-59.48-9.1-16.74-18.55-27.83-28.38-33.29,0,0,2.36.55,7.09,1.64,4.73,1.09,9.28,4,13.64,8.73,8.37,8.73,16.55,21.28,24.56,37.65,8,16.37,15.83,35.02,23.47,55.94,7.64,20.92,15.01,42.66,22.1,65.21,7.09,22.56,13.73,44.38,19.92,65.49,6.18,21.1,12.01,39.84,17.46,56.21,4,12.73,9.64,24.1,16.92,34.11,7.28,10,15.01,19.83,23.19,29.47,8.19,9.64,16.1,19.83,23.74,30.56s13.82,23.01,18.55,36.84c4.73,13.82,7.09,30.2,7.09,49.11,0,.73-1.46,1.46-4.37,2.18-2.91.73-4.37.55-4.37-.55,0-19.28-2.18-35.56-6.55-48.84-4.37-13.28-10-24.74-16.92-34.38-6.91-9.64-14.46-19.01-22.65-28.1-8.19-9.1-16.01-19.01-23.47-29.74-7.46-10.73-13.92-23.74-19.37-39.02" vector-effect="none"/>
  <path class="cls-9" d="M55.66,120.18c-2.55-.36-3.55-3.18-3-8.46.55-5.28,1.82-11.64,3.82-19.1,2-7.46,4.09-14.46,6.28-21.01,6.18-17.46,13.64-28.29,22.37-32.47,8.73-4.18,19.1-4.46,31.11-.82,7.28,2.18,14.73,9,22.37,20.46,7.64,11.46,15.19,25.83,22.65,43.11,7.46,17.28,14.73,36.02,21.83,56.21,7.09,20.19,13.82,40.66,20.19,61.39,6.37,20.74,12.19,40.11,17.46,58.12,5.28,18.01,9.91,33.02,13.92,45.02,5.46,17.83,12.1,32.65,19.92,44.48,7.82,11.82,15.92,22.37,24.28,31.65,8.37,9.28,16.1,18.74,23.19,28.38,7.09,9.64,12.92,21.1,17.46,34.38s6.82,30.1,6.82,50.48c-17.46,0-33.38-3.73-47.75-11.19-14.37-7.46-27.1-16.74-38.2-27.83-11.1-11.1-20.1-22.46-27.01-34.11-6.91-11.64-11.82-21.83-14.73-30.56-5.46-17.83-11.55-38.29-18.28-61.39-6.73-23.1-13.64-46.39-20.74-69.85-7.09-23.47-13.55-45.11-19.37-64.94-5.82-19.83-10.55-35.2-14.19-46.11-3.27-10.55-10.46-19.74-21.56-27.56-11.1-7.82-27.38-13.92-48.84-18.28" vector-effect="none"/>
  <path class="cls-7" d="M60.57,113.08c-3.27-.36-3.82-4.91-1.64-13.64,2.18-8.73,4.73-17.1,7.64-25.1,5.09-13.82,11.37-22.37,18.83-25.65,7.46-3.27,16.28-3.46,26.47-.55,6.18,1.82,12.82,8.09,19.92,18.83,7.09,10.73,14.19,24.47,21.28,41.2,7.09,16.74,14.19,35.02,21.28,54.84s13.92,39.84,20.46,60.03c6.55,20.19,12.55,39.11,18.01,56.75,5.46,17.64,10,32.65,13.64,45.02,5.46,17.1,11.82,31.56,19.1,43.38,7.28,11.82,14.73,22.19,22.37,31.11,7.64,8.91,14.83,17.74,21.56,26.47,6.73,8.73,12.37,18.55,16.92,29.47,4.55,10.91,7.37,24.56,8.46,40.93.36,5.09-1.27,7.46-4.91,7.09-12.73-1.46-25.1-6.28-37.11-14.46-12.01-8.19-23.01-18.01-33.02-29.47-10-11.46-18.55-23.01-25.65-34.65-7.09-11.64-11.91-21.46-14.46-29.47-5.46-17.83-11.37-37.84-17.74-60.03-6.37-22.19-12.82-44.38-19.37-66.58-6.55-22.19-12.64-42.66-18.28-61.39-5.64-18.74-10.28-33.74-13.92-45.02-3.27-10.19-11.19-20.01-23.74-29.47-12.55-9.46-27.92-16.01-46.11-19.65" vector-effect="none"/>
</svg>