<?xml version="1.0" encoding="UTF-8"?>
<svg id="Layer_1" data-name="Layer 1" xmlns="http://www.w3.org/2000/svg" viewBox="0 0 590.77 512">
  <defs>
    <style>
      .cls-1 {
        fill: #48c2f9;
      }

      .cls-2 {
        fill: #006dae;
      }

      .cls-3 {
        fill: #ffc940;
      }

      .cls-4 {
        fill: #7ed2fc;
      }

      .cls-5 {
        fill: #f5bb51;
      }

      .cls-6 {
        fill: #ff7a00;
      }

      .cls-7 {
        fill: #45332c;
      }

      .cls-8 {
        fill: #966f42;
      }

      .cls-9 {
        fill: #f0a429;
      }

      .cls-10 {
        fill: #302c3b;
      }

      .cls-11 {
        fill: #18b5f8;
      }

      .cls-12 {
        fill: #44618b;
      }
    </style>
  </defs>
  <path class="cls-11" d="M590.77,286.54S192.87,351.6,0,326.09v185.91h590.77v-225.46Z"/>
  <path class="cls-9" d="M83.23,62.15c-2.62,4.14-1.07,14.48,9.69,12.71,23.38-3.89,17.25-17.61,46.56-23.63-10.09-33.06-52.54,5.09-56.25,10.92Z"/>
  <path class="cls-5" d="M64.2,49.75c27.5-8.86,52.73,18.52,85.54-4.29,8.9-.62,18.16-2.36,28.25-1.85-3.87-14.81-6.75-25.87-10.63-40.67-14.85.6-25.87-.52-29.19.58-8.07,2.66-49.35,15.21-80.12,21.35-5.54,1.09-23.56,19.29-34.87,27.14-16.02,11.14-3.67,24.39,8.67,17.23,11.07-6.42,24.18-16.84,32.34-19.48Z"/>
  <path class="cls-6" d="M159.96,45.04c66.21-1.21,164.42,26.48,168.98,37.5,29.54,71.65,12.51,101.85,26.43,156.77-9.12,20.08-49.65,134.03-14.79,134.03,103.4,0,186.45-39.38,250.19-39.38v-83.55s-68.02-47.95-144.16-56.2c-18.48-97.33-50.85-181.21-72.13-185.88C331.56-1.06,183.67-1.62,145.9,2.27c5.41,14.02,10.25,28.21,14.06,42.77Z"/>
  <path id="Path" class="cls-3" d="M199.34,248.1c2.02,12.57,57.64,2.46,72.31-8,2.06-1.46,5.33-10.04-7.63-16.4-7.18-3.52-13.15-6.58-27.96-9.54-18.94-3.78-38.73,21.42-36.72,33.95Z"/>
  <path id="Path-2" data-name="Path" class="cls-3" d="M199.34,410.69c2.02-12.59,57.64-2.46,72.31,8,2.06,1.46,5.33,10.05-7.63,16.4-7.18,3.52-13.15,6.58-27.96,9.54-18.94,3.78-38.73-21.43-36.72-33.95Z"/>
  <path id="Path-3" data-name="Path" class="cls-9" d="M210,230.92c1.37,4,7.99,2.14,18.94,4.66-3.25-14.93,21.98-11.2,22.46,1.77,2.54-.12,5.15-1.83,7.89-2.14-9.22-6.36-5.5-6.44-19.21-12.47-12.37-5.43-33.45-1.71-30.08,8.17Z"/>
  <path id="Path-4" data-name="Path" class="cls-9" d="M228.9,423.21c-10.94,2.54-17.54.65-18.9,4.64-3.37,9.89,17.71,13.62,30.08,8.21,13.72-6.04,10-6.11,19.21-12.48-2.75-.31-5.37-2.02-7.91-2.14-.61,12.85-25.53,16.52-22.48,1.77Z"/>
  <path class="cls-3" d="M92.41,329.4c0,72.09,58.61,106.83,133.98,102.48,15.13-.89,37-5.12,55.73-10.33,38.9-10.81,78.1-67.87,78.1-92.15s-39.19-81.37-78.1-92.17c-18.73-5.21-40.6-9.44-55.73-10.33-75.36-4.34-133.98,30.39-133.98,102.5Z"/>
  <path id="Path-5" data-name="Path" class="cls-8" d="M193.79,251.06c-8.71,16.5-9.16,48.06-3.08,59.81,1.19,2.52,9.44.85,8.65-1.27-6.46-16.36-6.62-42.81.56-58.13.92-2.06-4.92-2.9-6.13-.4Z"/>
  <path id="Path-6" data-name="Path" class="cls-8" d="M193.79,407.73c-8.71-16.48-9.16-48.02-3.08-59.81,1.19-2.5,9.44-.85,8.65,1.27-6.46,16.4-6.62,42.79.56,58.15.92,2.04-4.92,2.88-6.13.38Z"/>
  <path id="Path-7" data-name="Path" class="cls-9" d="M269.4,309.95c-1.44,2.06.77,6.88.77,19.47s-2.22,17.39-.77,19.47c1.73,2.44,9.56-1.48,9.56-19.47s-7.83-21.95-9.56-19.47Z"/>
  <path class="cls-6" d="M215.3,220.1c-173.69-24.02-173.69,242.6,0,218.59-29.92-30-29.92-188.62,0-218.59Z"/>
  <path class="cls-10" d="M234.05,240.41c39.06,0,39.06,80.08,0,80.08s-39.07-80.08,0-80.08Z"/>
  <path class="cls-12" d="M234.05,250.41c23.44,0,23.44,60.08,0,60.08-23.45,0-23.45-60.08,0-60.08Z"/>
  <path class="cls-10" d="M234.05,338.32c39.06,0,39.06,80.08,0,80.08s-39.07-80.08,0-80.08Z"/>
  <path class="cls-12" d="M234.05,348.33c23.44,0,23.44,60.06,0,60.06-23.45,0-23.45-60.06,0-60.06Z"/>
  <rect class="cls-2" x="225.27" y="314.39" width="17.59" height="30.02"/>
  <path class="cls-2" d="M218.55,217.93c13.54,7.02,23.65,27.5,23.65,27.5,0,0-9.65-2.64-17.81,2.28,0,0-11.88-21.63-20.73-28.81-1.32-1.07,13.39-1.74,14.89-.97Z"/>
  <polygon class="cls-2" points="242.86 412.15 242.86 429.36 225.27 431.8 225.27 412.15 242.86 412.15"/>
  <path class="cls-7" d="M325.67,313.62c13.96,0,13.96,31.56,0,31.56-27.1,0-27.1-31.56,0-31.56Z"/>
  <path class="cls-1" d="M0,512h590.77v-126.23c-307.46-56.39-285.42,38.98-590.77,9.89v116.34Z"/>
  <path class="cls-4" d="M590.77,441.44c-214.44-13.15-320.73,29.52-590.77,14.75v55.81h590.77v-70.56Z"/>
</svg>