<?xml version="1.0" encoding="UTF-8"?>
<svg id="Layer_1" data-name="Layer 1" xmlns="http://www.w3.org/2000/svg" xmlns:xlink="http://www.w3.org/1999/xlink" viewBox="0 0 731.43 512">
  <defs>
    <style>
      .cls-1 {
        fill: url(#linear-gradient-5);
      }

      .cls-2 {
        fill: url(#linear-gradient-6);
      }

      .cls-3 {
        fill: url(#linear-gradient-4);
      }

      .cls-4 {
        fill: url(#linear-gradient-3);
      }

      .cls-5 {
        fill: url(#linear-gradient-2);
      }

      .cls-6 {
        fill: #f46c60;
      }

      .cls-7 {
        fill: #593f36;
      }

      .cls-8 {
        fill: url(#linear-gradient);
      }

      .cls-9 {
        fill: #93b2bd;
      }

      .cls-10 {
        fill: #594640;
      }

      .cls-11 {
        fill: #45332c;
      }

      .cls-12 {
        fill: #e6ebef;
      }
    </style>
    <linearGradient id="linear-gradient" x1="489.75" y1="101.69" x2="489.75" y2="377.05" gradientTransform="translate(0 496) scale(1 -1)" gradientUnits="userSpaceOnUse">
      <stop offset="0" stop-color="#cf0000"/>
      <stop offset="1" stop-color="#ff000e"/>
    </linearGradient>
    <linearGradient id="linear-gradient-2" x1="461.58" y1="214.31" x2="487.07" y2="344.22" gradientTransform="translate(0 496) scale(1 -1)" gradientUnits="userSpaceOnUse">
      <stop offset="0" stop-color="#bd0000" stop-opacity=".7"/>
      <stop offset=".08" stop-color="#bd0000" stop-opacity=".64"/>
      <stop offset=".92" stop-color="#bd0000" stop-opacity="0"/>
    </linearGradient>
    <linearGradient id="linear-gradient-3" x1="-2430.93" y1="2541.45" x2="-2419.26" y2="2600.9" gradientTransform="translate(-1913.0167 -2212.2656) scale(-1 1)" gradientUnits="userSpaceOnUse">
      <stop offset="0" stop-color="#bd0000" stop-opacity=".5"/>
      <stop offset=".08" stop-color="#bd0000" stop-opacity=".46"/>
      <stop offset=".92" stop-color="#bd0000" stop-opacity="0"/>
    </linearGradient>
    <linearGradient id="linear-gradient-4" x1="-2307.63" y1="2525.1" x2="-2291.62" y2="2606.71" gradientTransform="translate(-1913.0167 -2212.2656) scale(-1 1)" gradientUnits="userSpaceOnUse">
      <stop offset="0" stop-color="#bd0000" stop-opacity=".5"/>
      <stop offset=".08" stop-color="#bd0000" stop-opacity=".46"/>
      <stop offset=".92" stop-color="#bd0000" stop-opacity="0"/>
    </linearGradient>
    <linearGradient id="linear-gradient-5" x1="-2570.11" y1="2494.98" x2="-2554.1" y2="2576.6" gradientTransform="translate(-1913.0167 -2212.2656) scale(-1 1)" gradientUnits="userSpaceOnUse">
      <stop offset="0" stop-color="#bd0000" stop-opacity=".5"/>
      <stop offset=".08" stop-color="#bd0000" stop-opacity=".46"/>
      <stop offset=".92" stop-color="#bd0000" stop-opacity="0"/>
    </linearGradient>
    <linearGradient id="linear-gradient-6" x1="275.41" y1="367.41" x2="273.37" y2="116.24" gradientTransform="translate(0 496) scale(1 -1)" gradientUnits="userSpaceOnUse">
      <stop offset="0" stop-color="#de4538" stop-opacity=".5"/>
      <stop offset=".1" stop-color="#e34f42" stop-opacity=".44"/>
      <stop offset=".34" stop-color="#ed5f53" stop-opacity=".32"/>
      <stop offset=".6" stop-color="#f2695d" stop-opacity=".18"/>
      <stop offset=".92" stop-color="#f46c60" stop-opacity="0"/>
    </linearGradient>
  </defs>
  <rect class="cls-9" x="57.16" y="256" width="649.89" height="109.71"/>
  <rect class="cls-11" x="36.57" y="353.52" width="670.48" height="97.52"/>
  <rect class="cls-7" x="694.86" y="353.52" width="36.57" height="158.48"/>
  <path class="cls-7" d="M36.57,0H0s31.67,179.81,24.38,353.52C21.16,430.09,0,512,0,512h36.57s21.16-81.91,24.38-158.48C68.24,179.81,36.57,0,36.57,0Z"/>
  <path class="cls-12" d="M291.07,270.99c-53.85-22.86-216.38,47.76-254.5-104.62,70.12-8.09,174.49-99.06,254.5,104.62Z"/>
  <path class="cls-10" d="M206.35,123.98c53.5,16.92,100.9,152.45-77.19,69.4-32.45-15.14-3.69-95.02,77.19-69.4Z"/>
  <path class="cls-8" d="M695.25,239.04c-76.51,0-190.76-174.77-436.69-102.64l31.34,257.91c18.13-4.17,61.89-2.47,81.91-15.62,29.94-19.64,76.34,1,110.75-11.69,36.57-13.47,98.74,29.28,137.65,10.91,72.13-34.02,99.56-10.91,99.56-10.91,0,0,9.24-127.96-24.53-127.96Z"/>
  <path class="cls-5" d="M684.3,267.72c-144.76-22.1-265.91,17.53-406.74-11.69-103.13-247.37,317.26-97.74,406.74,11.69Z"/>
  <path class="cls-4" d="M483.07,343.21c18.03-26.93,39.36-24.81,52.58-2.55,46.45,78.1-91.88,61.22-52.58,2.55Z"/>
  <path class="cls-3" d="M356.84,324.5c18.03-26.93,39.36-24.81,52.59-2.57,68.66,115.5-113.79,93.95-52.59,2.57Z"/>
  <path class="cls-1" d="M619.32,294.38c18.03-26.93,39.36-24.81,52.59-2.57,68.64,115.5-113.8,93.96-52.59,2.57Z"/>
  <path class="cls-6" d="M314.39,127.99c-4.41-28.99-35.94,1.63-39.85-2.07-17.93-16.96-36.51,3.54-39.02,8.05-17.29,31.09-4.22,267.85.27,305.18,2.83,23.6,76.17-25.88,78.29-45.67,3.38-31.28,12.51-185.47.32-265.48Z"/>
  <path class="cls-2" d="M269.74,145.27c3.4-14.25,9.85-21.89,11.69-12.56,71.73,362.19-90.11,341.04-11.69,12.56Z"/>
</svg>