<?xml version="1.0" encoding="UTF-8"?>
<svg id="Layer_1" data-name="Layer 1" xmlns="http://www.w3.org/2000/svg" xmlns:xlink="http://www.w3.org/1999/xlink" viewBox="0 0 477.87 512">
  <defs>
    <style>
      .cls-1 {
        fill: url(#linear-gradient-3);
      }

      .cls-2 {
        fill: url(#linear-gradient-2);
      }

      .cls-3 {
        fill: #ffc940;
      }

      .cls-4 {
        fill: #1a1626;
      }

      .cls-5 {
        fill: #ffa959;
      }

      .cls-6 {
        fill: url(#radial-gradient);
      }

      .cls-7 {
        fill: url(#linear-gradient);
      }

      .cls-8 {
        fill: #ed6a00;
      }

      .cls-9 {
        fill: #7a6056;
      }

      .cls-10 {
        fill: #f5bb51;
      }

      .cls-11 {
        fill: #fff;
      }

      .cls-12 {
        fill: #ff7a00;
      }

      .cls-13 {
        fill: #ab968c;
      }

      .cls-14 {
        fill: #966f42;
      }

      .cls-15 {
        fill: #f0a429;
      }

      .cls-16 {
        fill: #302c3b;
      }

      .cls-17 {
        fill: url(#radial-gradient-2);
        isolation: isolate;
        opacity: .5;
      }
    </style>
    <radialGradient id="radial-gradient" cx="13.23" cy="179.76" fx="13.23" fy="179.76" r="61.53" gradientTransform="translate(32.59 519.31) scale(1.05 -1.05)" gradientUnits="userSpaceOnUse">
      <stop offset="0" stop-color="#f80"/>
      <stop offset=".29" stop-color="#fc8500"/>
      <stop offset=".53" stop-color="#f27e00"/>
      <stop offset=".75" stop-color="#e17000"/>
      <stop offset=".93" stop-color="#cc6000"/>
    </radialGradient>
    <radialGradient id="radial-gradient-2" cx="1386.81" cy="1037.3" fx="1386.81" fy="1037.3" r="41.63" gradientTransform="translate(-1286.2534 309.6399) rotate(52.3002) scale(.5882 -1.0025) skewX(.3781)" gradientUnits="userSpaceOnUse">
      <stop offset="0" stop-color="#ffdada"/>
      <stop offset="1" stop-color="#ffdada" stop-opacity="0"/>
    </radialGradient>
    <linearGradient id="linear-gradient" x1="284.32" y1="410.18" x2="201.89" y2="499" gradientTransform="translate(0 514) scale(1 -1)" gradientUnits="userSpaceOnUse">
      <stop offset="0" stop-color="#473834"/>
      <stop offset=".2" stop-color="#5b4842"/>
      <stop offset=".43" stop-color="#6d554d"/>
      <stop offset=".69" stop-color="#775d54"/>
      <stop offset="1" stop-color="#7a6056"/>
    </linearGradient>
    <linearGradient id="linear-gradient-2" x1="292.68" y1="413.47" x2="203.11" y2="509.98" gradientTransform="translate(0 514) scale(1 -1)" gradientUnits="userSpaceOnUse">
      <stop offset="0" stop-color="#473834"/>
      <stop offset=".2" stop-color="#5b4842"/>
      <stop offset=".43" stop-color="#6d554d"/>
      <stop offset=".69" stop-color="#775d54"/>
      <stop offset="1" stop-color="#7a6056"/>
    </linearGradient>
    <linearGradient id="linear-gradient-3" x1="194.19" y1="430.71" x2="194.19" y2="444.94" gradientTransform="translate(0 514) scale(1 -1)" gradientUnits="userSpaceOnUse">
      <stop offset="0" stop-color="#a6694a"/>
      <stop offset="1" stop-color="#4f2a1e"/>
    </linearGradient>
  </defs>
  <ellipse class="cls-6" cx="56.82" cy="343.75" rx="56.82" ry="56.58"/>
  <path class="cls-4" d="M84.97,356.69c-20.93-6.9-38.96-12.85-46.1-27.15-.5-.96-.89-1.95-1.22-2.95,27.2-10.4,59.32-12.82,72.93-1.2-.49-1.38-1.02-2.73-1.57-4.05-6.6-4.44-17.78-6.98-30.39-6.49-13.13.54-28.13,3.76-41.69,8.87-1-5.93.5-12.31,4.4-17.95,6.72-9.72,18.64-15.4,32.77-15.93-1.75-.55-3.55-1.03-5.35-1.42-14.32,1.31-23.97,7.2-29.83,15.68-4.48,6.47-6.1,13.87-4.77,20.7-2.33.93-4.6,1.92-6.8,2.95-1.63.79-3.2,1.57-4.72,2.38-1.55-6.22-2.36-12.24-2.27-17.75.07-4.68.84-10.23,3.5-14.75-1.26.9-2.52,1.87-3.7,2.88-4.8,10.91-1.94,24.15-.17,31.05-2.97,1.68-5.67,3.41-8.05,5.2-1.55-5.44-3.83-10.58-7.45-15.15-.47,1.07-.9,2.15-1.26,3.25,2.95,4.2,4.86,8.9,6.17,13.87-4.11,3.4-7.2,6.9-9.15,10.4.12,1.43.32,2.83.55,4.23,1.68-3.3,4.39-7.19,9.34-11.47,1.2,5.7,1.73,11.68,2.29,17.59.8,8.82,1.89,20.4,6.22,26.18,1.55,1.4,3.17,2.7,4.85,3.92-6.05-7.4-7.03-18.31-8.13-30.37-.6-6.52-1.19-13.12-2.65-19.4,2.38-1.82,5.09-3.6,8.1-5.33,2.43,8.48,6.1,17.38,10.79,25.88,9.45,17.14,22.02,34.53,40.92,37.79,1.61-.47,3.22-1,4.77-1.6-3.6-.05-7.38-1.03-11.32-2.97-17.52-8.55-35.53-35.58-42.56-60.55,1.66-.89,3.41-1.77,5.23-2.62,2.05-.96,4.15-1.89,6.26-2.75.37,1.07.8,2.13,1.31,3.17,7.66,15.4,26.27,21.53,47.82,28.65,7.87,2.6,15.95,5.27,24.1,8.55.45-.89.85-1.78,1.22-2.7-8.28-3.29-16.43-6-24.38-8.63Z"/>
  <path class="cls-17" d="M52.83,341.69c-18.3,14.02-39.83,16.72-48.09,6.02-8.26-10.7-.17-30.75,18.15-44.77,18.29-14.04,39.8-16.72,48.09-6.02,8.26,10.7.13,30.73-18.14,44.77Z"/>
  <path class="cls-10" d="M197.55,174.62c-24.92,24.27-32.5,40.3-46.1,43.67-20.88-1.73-56.1,4.93-62.72,5-6.4.05-24.52-5.6-28.89-3.58-18.55,8.5-20.9,7.77-27.63,17.83-5.1,7.62,1.6,5.12,5.09,1.63,5.4-5.38,18.01-9.02,19.35-2.15-14.13,1.22-16.6,10.68-11.37,9.88,13.48-2.12,21.73-.49,28.87-6.82,2.88-2.55,15.04-2.9,41.95,2.24,23.65,4.5,38.54,6.33,46.8,6.33,13.97,0,60.72-49.94,60.72-49.94,0,0,8.02-93.36-26.07-24.09Z"/>
  <path class="cls-10" d="M170.68,473.89c16.96-50.48,38.1-50.18,39.35-98.12,3.67-.73,7.4-1.48,11.08-2.25-3.15-22.2-12.89-33.96-27.82-43.14-13.88,4.8-21.32,13.45-22.28,14.95-5.65,8.88-2.64,53.79-27.72,120.1-2.05,5.41,26.47,11.2,27.38,8.46Z"/>
  <path class="cls-12" d="M151.33,508.61h21.58c3.17,0,1.35-5.16,1.35-5.16,0,0-20.16-12.31-84.23-5.72,0,0,14.81,22.66,61.3,10.88Z"/>
  <path class="cls-16" d="M172.52,482.38c3.35-6.02,2.62-12.87.54-11.78-4,2.12-20.3,1.24-23.64-1.07,4-12.98-5.8-16.56-6.23-12.59-3.67,33.59-55.59,14.72-53.15,40.76,0,0,27.82,16.03,60.59,5.88l23.65-.17c2.87-13.94-1.75-21.03-1.75-21.03Z"/>
  <path class="cls-12" d="M113.37,481.45c8.12,7.92,12.7,8.43,13.38,2.88,5.49,3.97,8.64.77,8.7-2.52,5.91,2.57,8.08-2.65,1.13-8.47-3.99-3.09-25.4,5.96-23.22,8.1Z"/>
  <path class="cls-10" d="M422.04,381.92c-47.67-4.02-51.88-22.47-94-13.38-1.43-3.03-2.87-6.1-4.32-9.15-18.71,7.45-27.02,14.76-31.86,29.69,7.15,11.05,16.26,22.6,17.78,23.12,8.95,3.03,47.62-12.42,110.83-4.7,5.17.62,4.17-25.36,1.57-25.57Z"/>
  <path class="cls-8" d="M262.1,328.07s-6.28,65.3,37.8,82.97c0,0,28.43-3.75,30.39-50.75-26.33-13.13,6.05-53.25-21.79-90.04l-46.4,57.81Z"/>
  <path class="cls-5" d="M330.29,360.29c-1.96,41.57-26.75,45.36-30.39,50.75,3.35,1.4,6.78,2.59,10.3,3.45,0,0,26.9-2.41,28.85-49.42-3.68-1.37-6.44-3-8.76-4.78Z"/>
  <path class="cls-10" d="M272.72,133.62c-27.77,73.2-58.51,102.94-55.66,15.68,9.75-1.6,30.1-22.08,55.66-15.68Z"/>
  <path class="cls-12" d="M312.02,270.07l-87.64,6.87c-7.47,14.39-30.29,32.1-44.02,52.13,0,0,6.98,24.65,58.6,39.64,20.28-33.23,105.66-33.22,73.05-98.64Z"/>
  <path class="cls-5" d="M180.37,329.07s-3.99,3.57-7.78,9.92c0,0,19.11,31.86,63,43.95.96-7.78,3.38-14.23,3.38-14.23-30.15-10.37-53.23-30.46-58.6-39.63Z"/>
  <path class="cls-5" d="M306.12,270.62l-12.43-1.61c20.7,47.47-60.5,42.68-74.93,94.75,0,0,7.64,5.58,12.85,7.1,12.71-53.97,102.09-44.46,74.51-100.24Z"/>
  <path class="cls-12" d="M294.35,133.72c-4.07-7.35-25.43-1.35-27.07-.25-16.33,11.07-32.1,54.6-32.1,54.6-2,.37-20.98-10.07-8.35-40.8,3.05-7.4-12.28,2.48-12.28,2.48-14.62,59.95,3.76,84.7,9.92,113.84,67.69,21.27,88.03-5.95,88.03-5.95,0,0,17.19-60.35-18.14-123.92Z"/>
  <path class="cls-5" d="M266.5,134.03c-17.14,9.83-32.5,51.58-32.5,51.58-2.01.38-13.69-14.4-5.73-41.45-2.6-1.12-3.85.6-3.85.6-12.36,43.43,11.23,50.36,11.23,50.36,9.33-19.04,20.63-52.58,30.86-61.1Z"/>
  <path class="cls-5" d="M224.47,263.59c.12,4.13.12,8.53-.09,13.35,67.7,21.27,87.64-6.87,87.64-6.87,0,0,.37-4.62.49-12.43-13.59,3.23-35.41,19.47-88.04,5.96Z"/>
  <path class="cls-5" d="M314.15,180.26c10.67,49.5-22.02,56.83-39.82,9.45-25.03-66.67,25.27-76.89,39.82-9.45Z"/>
  <path class="cls-10" d="M310.84,175.26c8.45,39.22-17.33,44.33-32.3,7.1-22.1-55.06,20.2-63.3,32.3-7.1Z"/>
  <path class="cls-10" d="M278.19,139.36c-18.31,21.1,47.58,52.7,71.12,64.61-12.38,15.4-39.31,61.7-42.4,60.28-9.02-4.05-12.95-3.3-24.62,2.59-3.25,1.61.58,6.78.58,6.78-6.42,5.65.96,6.42,2.48,10.98,1.4,4.23,5.27,3.18,7.57,7.31,5.18,9.23,20.8-1.24,28.37-15.13,5.42-9.95,47.7-39.65,65.42-80.03,3.74-8.5-88.92-74.39-108.51-57.41Z"/>
  <path class="cls-12" d="M456.19,382.78l-10.09-19.11c-1.47-2.8-5.18,1.24-5.18,1.24,0,0-1.45,23.6,34.31,77.24,0,0,13.09-23.71-19.05-59.36Z"/>
  <path class="cls-16" d="M423.14,376.29c-6.87-.15-12.57,3.7-10.63,5.02,3.74,2.59,10.56,17.42,10.1,21.44-13.34,2.52-11.9,12.87-8.18,11.4,31.35-12.47,38.95,42.33,60.82,28,0,0,1.15-32.12-23.12-56.38l-11.2-20.85c-13.67,3.98-17.77,11.38-17.78,11.38Z"/>
  <path class="cls-12" d="M449.97,429.07c3.2-10.88,1.52-15.16-3.7-13.2.93-6.68-3.37-7.99-6.3-6.5-.5-6.45-6.1-5.93-8,2.95-.84,4.97,17.16,19.7,18.01,16.75Z"/>
  <path class="cls-10" d="M211.72,139.42c10.85-5.16,18.76,10.51,22.47,27.12,12.52-16.98,20.58-29.65,38.78-34.95-2.33-8.88-.72-25.15-.72-25.15-7.24-4.13-32.12-55.1-60.54,32.98Z"/>
  <path class="cls-9" d="M177.75,74.62c4.23-24.95,32.61-31.53,23.1-55.22-30.22,7.1-32.93,31.44-23.1,55.22Z"/>
  <path class="cls-3" d="M220.54,9.96c-32.95,5.27-45.03,28.78-39.73,56.52,1.22,6.26-2.82,17-10.8,23.88-2.9,2.52-3.17,5.82-1.75,8.05,2.78,4.35,8.88,4.39,11.45,6.02,5.7,3.64-.02,7.65,4.28,11.95,1.94,1.95,7.53-.65,1.63,9.7,6.57,4.8-4.4,16.38,12.52,18.17,8.88.93,41.22-18.08,47.04-27.91,6.75-11.45,7.83-21.47,7.83-21.47,25.28-7.3,34.22-29.36,28.77-52.46-7.62-32.32-39.89-35.84-61.24-32.44Z"/>
  <path class="cls-15" d="M183.99,116.37c3.08,1.9,1.73,4.88,1.73,4.88-1.5,0-1.85,4.9.35,4.9,7.7,0,14.78-6.61,17.12-10.63-12.08-.58-25.34-6.02-19.2.85Z"/>
  <path class="cls-11" d="M183.99,116.37s1.17,4.22,1.73,4.88c2.41,0,10.3-1.75,15.13-4.93l-16.86.05Z"/>
  <path class="cls-15" d="M168.34,98.44c2.27,6.07,16.87,7.38,21.51,0-7.68,5.55-22.85-3.53-21.51,0Z"/>
  <path id="Path" class="cls-14" d="M210.75,60.78c-7.01-4.05-20.44-4.23-25.42-1.42-1.08.55-.37,4.39.54,4.02,6.95-3,18.18-3.08,24.7.25.86.43,1.23-2.29.18-2.85Z"/>
  <path class="cls-7" d="M227.29,33.57c26.58,25.88,33.14,61.2,29.7,87.68,36.45-13.48,46.64-96.46-29.7-87.68Z"/>
  <path class="cls-2" d="M274.08,118.92c18.5-16.2,25.92-59.47,11.32-87.65C274.62,10.44,258.05-.06,227.29,0c-24.92.05-45.62,14.28-49.8,30.7-5.84,22.89,30.34,21.98,42.15,40.73,0,0,5.32-12.42-3.7-29.73,38.78,58.45,57.81,3.87,58.16,77.22Z"/>
  <path class="cls-3" d="M253.1,64.15c-12.28,2.55-16.12,30.32-6.9,36.35,1.28.85,8.01,1.6,11.58-5.2,1.96-3.78,9.02-7.62,10.02-15,1.25-9.45-2.46-18.67-14.69-16.15Z"/>
  <path id="Path-2" data-name="Path" class="cls-15" d="M253.77,69.31c-3.13,1.07-6.08,4.68-6.96,10.18,11.07-3.02,10.56,9.43.72,10.91.32,1.22.7,2.45,1.19,3.72,3.92-5.02,9.1-3.85,12.62-11.03,3.16-6.47.18-16.4-7.56-13.78Z"/>
  <path class="cls-11" d="M207.81,75.07c.18,1.77-5.44,8.17-12.59,8.76-4.09.35-5.53-2.8-6.45-6.2-.88-13.51,15.02-8.7,19.04-2.56Z"/>
  <path id="Path-3" data-name="Path" class="cls-1" d="M188.49,75.92c0,9.83,11.4,9.83,11.4,0,0-9.15-11.4-9.15-11.4,0Z"/>
  <path id="Path-4" data-name="Path" class="cls-4" d="M189.69,75.49c0,4.92,5.68,4.92,5.68,0,0-4.58-5.68-4.58-5.68,0Z"/>
  <path id="Path-5" data-name="Path" class="cls-13" d="M193.2,73.49c0,2.05,3.3,2.05,3.3,0,0-1.94-3.3-1.94-3.3,0Z"/>
  <path class="cls-15" d="M207.81,75.07c-3.05-6.15-18.31-10.62-18.73-2.31,2.14-5.56,13.46-2.52,18.73,2.31Z"/>
</svg>