<?xml version="1.0" encoding="UTF-8"?>
<svg id="Layer_1" data-name="Layer 1" xmlns="http://www.w3.org/2000/svg" xmlns:xlink="http://www.w3.org/1999/xlink" viewBox="0 0 568.58 512">
  <defs>
    <style>
      .cls-1 {
        fill: #473834;
      }

      .cls-2 {
        fill: #6e8189;
      }

      .cls-3 {
        fill: url(#linear-gradient-8);
      }

      .cls-4 {
        fill: url(#linear-gradient-7);
      }

      .cls-5 {
        fill: url(#linear-gradient-5);
      }

      .cls-6 {
        fill: url(#linear-gradient-6);
      }

      .cls-7 {
        fill: url(#linear-gradient-9);
      }

      .cls-8 {
        fill: url(#linear-gradient-4);
      }

      .cls-9 {
        fill: url(#linear-gradient-3);
      }

      .cls-10 {
        fill: url(#linear-gradient-2);
      }

      .cls-11 {
        fill: #ffc940;
      }

      .cls-12 {
        fill: #1a1626;
      }

      .cls-13 {
        fill: url(#linear-gradient);
      }

      .cls-14 {
        fill: #f5bb51;
      }

      .cls-15 {
        fill: #fff;
      }

      .cls-16 {
        fill: #ff7a00;
      }

      .cls-17 {
        fill: url(#linear-gradient-10);
      }

      .cls-18 {
        fill: #ab968c;
      }

      .cls-19 {
        fill: #45332c;
      }

      .cls-20 {
        fill: #966f42;
      }

      .cls-21 {
        fill: #f0a429;
      }

      .cls-22 {
        fill: #302c3b;
      }

      .cls-23 {
        fill: #e6ebef;
      }
    </style>
    <linearGradient id="linear-gradient" x1="284.29" y1="412.9" x2="284.29" y2="431.86" gradientTransform="translate(0 507.97) scale(1 -1)" gradientUnits="userSpaceOnUse">
      <stop offset="0" stop-color="#697378"/>
      <stop offset="1" stop-color="#bac7cc"/>
    </linearGradient>
    <linearGradient id="linear-gradient-2" x1="71.07" y1="403.44" x2="71.07" y2="441.34" gradientTransform="translate(0 507.97) scale(1 -1)" gradientUnits="userSpaceOnUse">
      <stop offset="0" stop-color="#697378"/>
      <stop offset="1" stop-color="#dbe6eb"/>
    </linearGradient>
    <linearGradient id="linear-gradient-3" x1="56.85" y1="337.11" x2="56.85" y2="507.69" gradientTransform="translate(0 507.97) scale(1 -1)" gradientUnits="userSpaceOnUse">
      <stop offset="0" stop-color="#302c3b"/>
      <stop offset=".26" stop-color="#33303f"/>
      <stop offset=".53" stop-color="#3c3d4a"/>
      <stop offset=".8" stop-color="#4c515c"/>
      <stop offset="1" stop-color="#5b666e"/>
    </linearGradient>
    <linearGradient id="linear-gradient-4" x1="94.76" y1="337.11" x2="94.76" y2="507.69" gradientTransform="translate(0 507.97) scale(1 -1)" gradientUnits="userSpaceOnUse">
      <stop offset="0" stop-color="#302c3b"/>
      <stop offset=".26" stop-color="#33303f"/>
      <stop offset=".53" stop-color="#3c3d4a"/>
      <stop offset=".8" stop-color="#4c515c"/>
      <stop offset="1" stop-color="#5b666e"/>
    </linearGradient>
    <linearGradient id="linear-gradient-5" x1="-3747.32" y1="403.27" x2="-3747.32" y2="441.17" gradientTransform="translate(-3249.8081 507.971) rotate(-180)" gradientUnits="userSpaceOnUse">
      <stop offset="0" stop-color="#697378"/>
      <stop offset="1" stop-color="#dbe6eb"/>
    </linearGradient>
    <linearGradient id="linear-gradient-6" x1="-3761.53" y1="336.94" x2="-3761.53" y2="507.52" gradientTransform="translate(-3249.8081 507.971) rotate(-180)" gradientUnits="userSpaceOnUse">
      <stop offset="0" stop-color="#302c3b"/>
      <stop offset=".26" stop-color="#33303f"/>
      <stop offset=".53" stop-color="#3c3d4a"/>
      <stop offset=".8" stop-color="#4c515c"/>
      <stop offset="1" stop-color="#5b666e"/>
    </linearGradient>
    <linearGradient id="linear-gradient-7" x1="-3723.62" y1="336.94" x2="-3723.62" y2="507.52" gradientTransform="translate(-3249.8081 507.971) rotate(-180)" gradientUnits="userSpaceOnUse">
      <stop offset="0" stop-color="#302c3b"/>
      <stop offset=".26" stop-color="#33303f"/>
      <stop offset=".53" stop-color="#3c3d4a"/>
      <stop offset=".8" stop-color="#4c515c"/>
      <stop offset="1" stop-color="#5b666e"/>
    </linearGradient>
    <linearGradient id="linear-gradient-8" x1="-960.5" y1="384.51" x2="-960.5" y2="382.05" gradientTransform="translate(6572.9727 -2334.0504) scale(6.5701)" gradientUnits="userSpaceOnUse">
      <stop offset="0" stop-color="#a6694a"/>
      <stop offset="1" stop-color="#4f2a1e"/>
    </linearGradient>
    <linearGradient id="linear-gradient-9" x1="-956.55" y1="384.51" x2="-956.55" y2="382.05" gradientTransform="translate(6590.7032 -2334.0504) scale(6.5701)" gradientUnits="userSpaceOnUse">
      <stop offset="0" stop-color="#a6694a"/>
      <stop offset="1" stop-color="#4f2a1e"/>
    </linearGradient>
    <linearGradient id="linear-gradient-10" x1="283.77" y1="314.83" x2="283.77" y2="398.52" gradientTransform="translate(0 507.97) scale(1 -1)" gradientUnits="userSpaceOnUse">
      <stop offset="0" stop-color="#473834"/>
      <stop offset=".27" stop-color="#594640"/>
      <stop offset=".72" stop-color="#715950"/>
      <stop offset="1" stop-color="#7a6056"/>
    </linearGradient>
  </defs>
  <path class="cls-1" d="M333.62,215.72c3.5,2.31,7.55,4.04,12.27,4.93-8.39-19.09,4.25-59.11-21.65-88.52-36.53,1.09-41.59,119.02,9.32,103.33-3.24-1.38-5.28-4.25-6.46-7.87,3.92,1.13,8.51,1.17,13.86-.48-4.25-1.84-6.42-6.17-7.34-11.39Z"/>
  <path class="cls-1" d="M241.9,132.12c-25.91,29.41-10.81,69.43-19.19,88.52,4.72-.89,8.78-2.62,12.29-4.93-.95,5.22-3.11,9.55-7.36,11.39,5.34,1.65,9.94,1.61,13.86.48-1.18,3.61-3.22,6.48-6.46,7.87,50.92,15.69,43.4-102.23,6.86-103.33Z"/>
  <path class="cls-16" d="M360.62,303.03l-34.22-62.93-42.08,11.96-42.08-11.96-34.24,62.93c6.61,24.76,25.75,31.75,15.75,66.91-19.36,68.16,13.83,77.55,60.58,77.55s79.92-9.38,60.56-77.55c-10.02-35.18,9.12-42.15,15.73-66.91Z"/>
  <path class="cls-22" d="M342.1,349.75s-24.62,11.63-57.79,11.63-57.81-11.63-57.81-11.63l-1.65,15.71s26.28,21.03,59.45,21.03,59.43-21.03,59.43-21.03l-1.63-15.71Z"/>
  <path class="cls-14" d="M326.4,240.09s8.89-15.08,27.91-21.33c9.53-37.7,29.91-69.65,40.45-111.47h25.5c-17.28,46.16-5.38,87.51-46.4,155.87-.54,17.47-13.23,39.87-13.23,39.87-32.97-25.07-34.23-62.93-34.23-62.93Z"/>
  <path class="cls-14" d="M242.23,240.09s-8.9-15.08-27.93-21.33c-9.51-37.7-29.89-69.65-40.43-111.47h-25.5c17.28,46.16,5.36,87.51,46.39,155.87.54,17.47,13.23,39.87,13.23,39.87,32.96-25.07,34.24-62.93,34.24-62.93Z"/>
  <path class="cls-14" d="M426.53,92.93c.31,23.45-36.8,32.41-37.91,0h37.91Z"/>
  <path class="cls-14" d="M142.05,92.93c-.31,23.45,36.8,32.41,37.91,0h-37.91Z"/>
  <path class="cls-21" d="M199.37,427.58s24.39,13.73,41.73,13.73c9.01-34.39-24.66-80.29-32.82-85.12l-8.92,71.39Z"/>
  <path class="cls-14" d="M221.92,475.54s-2.62,13.98-33.54,3.5c-4.52-31.56-28.47-61.79-32.61-89.01,0,0,25.91-29.11,57.19,5.96,14.12,29.26-4.98,51.49,8.96,79.55Z"/>
  <path class="cls-23" d="M212.96,395.99s-30.49-24.49-57.19-5.96c0,0-3.89-52.8,52.53-33.83,8.45,2.85,10.9,37.19,4.66,39.79Z"/>
  <path class="cls-22" d="M225.06,506.41c5.92-17.4-3.15-30.87-3.15-30.87-15.21,8.66-33.54,3.5-33.54,3.5-47.07,9.18-48.64,16.49-47.53,27.38h84.22Z"/>
  <path class="cls-16" d="M224.4,512c3.05-2.11.66-5.59.66-5.59h-84.22s-2.81,2.46.26,5.59h83.3Z"/>
  <path class="cls-16" d="M188.32,477.8c-4.59-3.13-29.67,5.83-27.13,8.04,9.36,8.07,15.75,9.51,16.38,3.71,6.27,3.98,9.73.6,9.69-2.85,6.74,2.55,9.05-2.97,1.05-8.89Z"/>
  <path class="cls-21" d="M369.21,427.58s-24.39,13.73-41.72,13.73c-9.03-34.39,24.64-80.29,32.8-85.12l8.92,71.39Z"/>
  <path class="cls-14" d="M346.68,475.54s2.62,13.98,33.54,3.5c4.52-31.56,28.47-61.79,32.59-89.01,0,0-25.91-29.11-57.19,5.96-14.1,29.26,4.98,51.49-8.94,79.55Z"/>
  <path class="cls-23" d="M355.62,395.99s30.49-24.49,57.19-5.96c0,0,3.89-52.8-52.53-33.83-8.45,2.85-10.9,37.19-4.66,39.79Z"/>
  <path class="cls-22" d="M343.54,506.41c-5.92-17.4,3.15-30.87,3.15-30.87,15.21,8.66,33.54,3.5,33.54,3.5,47.07,9.18,48.64,16.49,47.53,27.38h-84.22Z"/>
  <path class="cls-16" d="M344.2,512c-3.05-2.11-.66-5.59-.66-5.59h84.22s2.81,2.46-.26,5.59h-83.3Z"/>
  <path class="cls-16" d="M380.28,477.8c4.59-3.13,29.67,5.83,27.13,8.04-9.36,8.07-15.75,9.51-16.38,3.71-6.27,3.98-9.73.6-9.69-2.85-6.74,2.55-9.05-2.97-1.05-8.89Z"/>
  <rect class="cls-13" y="76.11" width="568.58" height="18.95"/>
  <path class="cls-14" d="M419.33,81.16s-3.87,4.14-9.2.4c-2.44,5.52-8.76,4.01-11.11.88-.59,2.4-5.79,2.85-5.79,2.85,0,0,16.66,4.15,17.83,11.12,2.56,15.29-12.95,15.36-17.67,12.77-12.9-7.07-10.29-17.94-16.47-31.78-1.15-2.59-.56-9.37,10.68-3.97,0,0,.06-8.96,10.72-5.49-.43-6.28,9.77-5.86,11.61-1,6.39-4.26,11.59-.54,11.85,2.44,12.67-.44,7.64,20.75-2.44,11.77Z"/>
  <path class="cls-21" d="M419.33,81.16c1.5-4.21,2.43-11.78,2.43-11.78,0,0,1.28,6.63-2.43,11.78Z"/>
  <path class="cls-21" d="M410.13,81.55c1.5-4.21-.22-14.62-.22-14.62,0,0,3.92,9.48.22,14.62Z"/>
  <path class="cls-21" d="M399.02,82.44c1.5-4.2-.72-14.5-.72-14.5,0,0,4.43,9.35.72,14.5Z"/>
  <path class="cls-21" d="M393.23,85.29c-5.5-3.73-5.65-11.86-5.65-11.86,0,0,2.28,6.99,5.65,11.86Z"/>
  <path class="cls-14" d="M149.25,81.16s3.87,4.14,9.2.4c2.44,5.52,8.76,4.01,11.11.88.59,2.4,5.79,2.85,5.79,2.85,0,0-16.66,4.15-17.83,11.12-2.56,15.29,12.95,15.36,17.67,12.77,12.9-7.07,10.29-17.94,16.47-31.78,1.15-2.59.56-9.37-10.68-3.97,0,0-.06-8.96-10.72-5.49.43-6.28-9.77-5.86-11.61-1-6.39-4.26-11.59-.54-11.85,2.44-12.67-.44-7.63,20.75,2.44,11.77Z"/>
  <path class="cls-21" d="M149.25,81.16c-1.5-4.21-2.43-11.78-2.43-11.78,0,0-1.28,6.63,2.43,11.78Z"/>
  <path class="cls-21" d="M158.45,81.55c-1.5-4.21.22-14.62.22-14.62,0,0-3.92,9.48-.22,14.62Z"/>
  <path class="cls-21" d="M169.56,82.44c-1.5-4.2.72-14.5.72-14.5,0,0-4.43,9.35-.72,14.5Z"/>
  <path class="cls-21" d="M175.35,85.29c5.5-3.73,5.65-11.86,5.65-11.86,0,0-2.28,6.99-5.65,11.86Z"/>
  <rect class="cls-10" x="18.95" y="66.63" width="104.24" height="37.91"/>
  <rect class="cls-2" x="23.69" y="61.89" width="9.48" height="9.48"/>
  <path class="cls-22" d="M75.81,166.62c0,2.33-1.9,4.24-4.24,4.24h-29.43c-2.33,0-4.24-1.9-4.24-4.24V4.53c0-2.34,1.9-4.25,4.24-4.25h29.42c2.34,0,4.25,1.9,4.25,4.25,5.16,33.09,5.16,129.03,0,162.09Z"/>
  <path class="cls-22" d="M113.72,166.34c0,2.33-1.9,4.24-4.24,4.24h-29.42c-2.34,0-4.25-1.9-4.25-4.24V4.24c0-2.33,1.9-4.24,4.24-4.24h29.42c2.34,0,4.25,1.9,4.25,4.24v162.1Z"/>
  <rect class="cls-9" x="42.14" y=".28" width="29.42" height="170.58"/>
  <rect class="cls-8" x="80.05" y=".28" width="29.42" height="170.58"/>
  <rect class="cls-5" x="445.39" y="66.8" width="104.24" height="37.91"/>
  <rect class="cls-2" x="535.42" y="62.06" width="9.48" height="9.48"/>
  <path class="cls-22" d="M492.77,166.79c0,2.33,1.9,4.24,4.24,4.24h29.42c2.33,0,4.24-1.9,4.24-4.24V4.69c0-2.33-1.9-4.24-4.24-4.24h-29.42c-2.33,0-4.24,1.9-4.24,4.24-5.16,33.09-5.16,129.02,0,162.1Z"/>
  <path class="cls-22" d="M454.87,166.49c0,2.33,1.9,4.24,4.24,4.24h29.42c2.33,0,4.24-1.9,4.24-4.24V4.4c0-2.33-1.9-4.24-4.24-4.24h-29.42c-2.33,0-4.24,1.9-4.24,4.24v162.09Z"/>
  <rect class="cls-6" x="497.01" y=".45" width="29.42" height="170.58"/>
  <rect class="cls-4" x="459.1" y=".45" width="29.42" height="170.58"/>
  <path class="cls-14" d="M255.14,245.63c0,20.6,58.34,20.6,58.34,0v-22.8h-58.34s0,15.79,0,22.8Z"/>
  <path id="Path" class="cls-11" d="M337.6,172.31c-8.25,1-14.21,28.58-9.01,35.85.72,1.01,4.98,2.63,8.12-3.78,1.74-3.55,6.78-6.52,8.35-13.86,2-9.4.76-19.21-7.46-18.2Z"/>
  <path id="Path-2" data-name="Path" class="cls-11" d="M231.01,172.31c8.25,1,14.21,28.58,9.03,35.85-.72,1.01-4.99,2.63-8.12-3.78-1.76-3.55-6.79-6.52-8.35-13.86-2-9.4-.76-19.21,7.44-18.2Z"/>
  <path id="Path-3" data-name="Path" class="cls-21" d="M337.38,177.59c-2.15.67-4.5,3.95-5.77,9.39,7.51-1.62,5.65,10.89-.89,11.13.06,1.26.13,2.56.29,3.91,3.15-4.57,6.35-2.74,9.51-9.53,2.84-6.12,2.18-16.57-3.15-14.91Z"/>
  <path id="Path-4" data-name="Path" class="cls-21" d="M237.02,186.96c-1.28-5.42-3.63-8.7-5.77-9.37-5.34-1.67-6.02,8.78-3.17,14.91,3.17,6.79,6.37,4.96,9.53,9.53.15-1.37.24-2.66.29-3.92-6.48-.3-8.33-12.66-.89-11.14Z"/>
  <path class="cls-11" d="M284.31,119.29c-35.75,0-52.97,29.05-50.82,66.42.45,7.51,2.54,18.36,5.13,27.63,5.34,19.3,33.65,38.71,45.7,38.71s40.33-19.41,45.7-38.71c2.57-9.28,4.66-20.12,5.11-27.63,2.15-37.37-15.07-66.42-50.8-66.42Z"/>
  <path id="Path-5" data-name="Path" class="cls-20" d="M323.14,169.55c-8.18-4.31-23.82-4.54-29.65-1.52-1.24.59-.43,4.67.63,4.28,8.12-3.2,21.23-3.28,28.82.27,1.02.46,1.44-2.44.21-3.04Z"/>
  <path id="Path-6" data-name="Path" class="cls-20" d="M245.46,169.55c8.18-4.31,23.82-4.54,29.65-1.52,1.24.59.43,4.67-.63,4.28-8.12-3.2-21.21-3.28-28.82.27-1.02.46-1.43-2.44-.21-3.04Z"/>
  <path id="Path-7" data-name="Path" class="cls-21" d="M293.96,207.04c-1.01-.71-3.42.38-9.65.38s-8.62-1.09-9.67-.38c-1.2.86.74,4.74,9.67,4.74s10.86-3.89,9.65-4.74Z"/>
  <path id="Path-8" data-name="Path" class="cls-15" d="M276.35,184.27c.29,2.37-1.3,5.16-5.75,7.27-2.81,1.34-8.7,2.91-16.41-.34-3.46-1.45-6.83-6-6.53-8.5,4.19-7.88,24.77-9.03,28.69,1.57Z"/>
  <circle id="Oval" class="cls-3" cx="262.38" cy="184.12" r="8.08"/>
  <path id="Path-9" data-name="Path" class="cls-12" d="M258.33,183.97c0,5.59,8.1,5.59,8.1,0,0-5.18-8.1-5.18-8.1,0Z"/>
  <path id="Path-10" data-name="Path" class="cls-18" d="M257.1,181.71c0,2.34,3.38,2.34,3.38,0,0-2.18-3.38-2.18-3.38,0Z"/>
  <path id="Path-11" data-name="Path" class="cls-21" d="M276.39,184.59c-3.28-10.54-25.69-8.98-28.74-1.9,1.13-9.09,25.95-11.48,28.74,1.9Z"/>
  <path id="Path-12" data-name="Path" class="cls-15" d="M292.25,184.27c-.29,2.37,1.32,5.16,5.75,7.27,2.83,1.34,8.7,2.91,16.41-.34,3.46-1.45,6.83-6,6.53-8.5-4.17-7.88-24.77-9.03-28.69,1.57Z"/>
  <circle id="Oval-2" data-name="Oval" class="cls-7" cx="306.06" cy="184.12" r="8.08"/>
  <path id="Path-13" data-name="Path" class="cls-12" d="M302,183.97c0,5.59,8.09,5.59,8.09,0,0-5.18-8.09-5.18-8.09,0Z"/>
  <path id="Path-14" data-name="Path" class="cls-18" d="M300.78,181.71c0,2.34,3.38,2.34,3.38,0,0-2.18-3.38-2.18-3.38,0Z"/>
  <path id="Path-15" data-name="Path" class="cls-21" d="M292.23,184.59c3.28-10.54,25.65-9.02,28.72-1.9-1.13-9.09-25.93-11.48-28.72,1.9Z"/>
  <path class="cls-17" d="M284.31,109.45c-21.75,0-32.61,9.84-34.84,14.5-26.28,6-34.74,50.29-15.07,69.18,2.44-20.13,4.81-33.06,18.21-46.69,7.81,10.46,24.06,16.35,38.61,16.35-6.89-4.98-11.59-9.88-15.27-14.44,24.29,11.13,51.49,18.25,58.23,44.79,23.37-37.15,3.96-83.69-49.88-83.69Z"/>
  <path class="cls-19" d="M303.82,224.46c-2.13-3.42-7.31-5.7-19.51-5.7s-17.38,2.27-19.53,5.7c-1.15,1.81.5,4.76.5,4.76,2.04,3.71,1.74,4.76,19.03,4.76s16.99-1.05,19.03-4.76c0,0,1.65-2.95.48-4.76Z"/>
  <path class="cls-15" d="M299.52,224.44c.09-.52-.19-1.17-.6-1.42,0,0-3.71-2.37-14.62-2.37s-14.62,2.37-14.62,2.37c-.43.26-.68.91-.58,1.42l.19.99c.09.52.56.93,1.05.93h27.91c.48,0,.97-.41,1.05-.93l.22-.99Z"/>
  <path class="cls-15" d="M284.31,232.09c5.98,0,14.49,0,14.25-1.98-.02-.35-.13-.76-.27-1.2-.11-.5-.24-.63-1.28-.63h-25.42c-1.01,0-1.15.13-1.28.63-.11.45-.22.85-.27,1.2-.22,1.98,8.29,1.98,14.27,1.98Z"/>
  <path class="cls-1" d="M249.49,123.94c-.33,18.54,7.15,32.41,41.73,38.83-24.8,1.68-50.22-13.31-41.73-38.83Z"/>
  <path class="cls-1" d="M251.66,145.25c-9.03,8.89-19.17,24.32-17.25,47.87,1.79-19.47,10.74-35.49,18.84-45.88-.58-.62-1.12-1.3-1.59-2Z"/>
  <path class="cls-1" d="M267.13,139.38c18.14,17.3,62.71,16.19,67.05,53.75-11.62-36.54-51.02-28.33-67.05-53.75Z"/>
</svg>