<?xml version="1.0" encoding="UTF-8"?>
<svg id="Layer_1" data-name="Layer 1" xmlns="http://www.w3.org/2000/svg" xmlns:xlink="http://www.w3.org/1999/xlink" viewBox="0 0 529.66 512">
  <defs>
    <style>
      .cls-1 {
        fill: #473834;
      }

      .cls-2 {
        fill: url(#radial-gradient);
        isolation: isolate;
        opacity: .25;
      }

      .cls-3 {
        fill: url(#linear-gradient-4);
      }

      .cls-4 {
        fill: url(#linear-gradient-3);
      }

      .cls-5 {
        fill: url(#linear-gradient-2);
      }

      .cls-6 {
        fill: #ffc940;
      }

      .cls-7 {
        fill: #1a1626;
      }

      .cls-8 {
        fill: #ffa959;
      }

      .cls-9 {
        fill: url(#linear-gradient);
      }

      .cls-10 {
        fill: #f5bb51;
      }

      .cls-11 {
        fill: #fff;
      }

      .cls-12 {
        fill: #ff7a00;
      }

      .cls-13 {
        fill: #ab968c;
      }

      .cls-14 {
        fill: #966f42;
      }

      .cls-15 {
        fill: #f0a429;
      }
    </style>
    <linearGradient id="linear-gradient" x1="157.71" y1="1630.61" x2="472.01" y2="1597.82" gradientTransform="translate(-56 -1160)" gradientUnits="userSpaceOnUse">
      <stop offset="0" stop-color="#00d6b3"/>
      <stop offset="1" stop-color="#27c89c"/>
    </linearGradient>
    <radialGradient id="radial-gradient" cx="241.93" cy="5870.88" fx="241.93" fy="5870.88" r="266.72" gradientTransform="translate(-64.25 -774.22) rotate(-3.99) scale(1 .21)" gradientUnits="userSpaceOnUse">
      <stop offset=".63" stop-color="#fff" stop-opacity=".3"/>
      <stop offset=".71" stop-color="#e5e5e6" stop-opacity=".33"/>
      <stop offset=".86" stop-color="#a3a1a7" stop-opacity=".39"/>
      <stop offset="1" stop-color="#393644" stop-opacity=".48"/>
    </radialGradient>
    <linearGradient id="linear-gradient-2" x1="-994.7" y1="395.77" x2="-994.7" y2="393.49" gradientTransform="translate(6764.6324 -2523.2045) scale(6.5701)" gradientUnits="userSpaceOnUse">
      <stop offset="0" stop-color="#a6694a"/>
      <stop offset="1" stop-color="#4f2a1e"/>
    </linearGradient>
    <linearGradient id="linear-gradient-3" x1="-1008.93" y1="395.77" x2="-1008.93" y2="393.49" gradientTransform="translate(6898.8527 -2523.2045) scale(6.5701)" gradientUnits="userSpaceOnUse">
      <stop offset="0" stop-color="#a6694a"/>
      <stop offset="1" stop-color="#4f2a1e"/>
    </linearGradient>
    <linearGradient id="linear-gradient-4" x1="249.3" y1="434.04" x2="249.3" y2="512" gradientTransform="translate(0 512) scale(1 -1)" gradientUnits="userSpaceOnUse">
      <stop offset="0" stop-color="#473834"/>
      <stop offset=".27" stop-color="#594640"/>
      <stop offset=".72" stop-color="#715950"/>
      <stop offset="1" stop-color="#7a6056"/>
    </linearGradient>
  </defs>
  <path class="cls-9" d="M507.45,426.22c-1.1-5.21,16.84-13.17,6.5-20.9-110.53-39.27-383.82-6.84-511.71,66.17-3.64,2.08-2.26,8.41.04,9.3,58.66,22.92,136.1,31.96,214.09,31.15,130.04-1.32,261.66-30.05,310.52-67.67,11.12-8.54-14.39-10.73-19.43-18.05Z"/>
  <path class="cls-2" d="M507.45,426.22c-1.1-5.21,16.84-13.17,6.5-20.9-110.53-39.27-383.82-6.84-511.71,66.17-3.64,2.08-2.26,8.41.04,9.3,58.66,22.92,136.1,31.96,214.09,31.15,130.04-1.32,261.66-30.05,310.52-67.67,11.12-8.54-14.39-10.73-19.43-18.05Z"/>
  <path id="Shape" class="cls-11" d="M100.05,463.16c-3.31-6.86,3.96-13.91,16.43-15.77,12.32-1.81,25.12,2.24,28.43,9.1,3.33,6.88-4.09,13.93-16.41,15.77-12.46,1.85-25.11-2.24-28.45-9.1ZM92.61,464.26c4.4,9.15,21.33,14.6,37.88,12.14,16.45-2.43,26.32-11.86,21.91-21.02-4.43-9.15-21.49-14.57-37.91-12.14-16.59,2.45-26.32,11.88-21.87,21.02Z"/>
  <path id="Combined-Shape" class="cls-11" d="M123.88,456.07c.26.54-.11.9-1.12,1.05l-2.97.45c-1,.14-1.64-.07-1.92-.6l-2.62-5.38c-.24-.56.12-.92,1.14-1.07l1.47-.22c9.48-1.39,19.3,1.72,21.83,6.98,1.26,2.57.52,5.26-1.9,7.5-.41.49-1.14.58-2.08.31l-3.95-1.29c-.94-.29-1.14-.67-.56-1.17,1.24-1.26,1.7-2.77,1-4.24-1.16-2.38-4.98-4-9.19-4.12l.87,1.79Z"/>
  <path class="cls-10" d="M469.75,174.68c-2.02-6.35-22.52-4.63-45.22,0-21.4,4.33-38-6.12-57.09-5.77l-48.55-17.74c-3.12,10.62-3.73,25.09-7,35.64,18.36,5.76,35.88,6.33,46.65,8.43,24.42,5.55,67.71-4.29,67.71-4.29,36.72,6.44,39.62,5.52,24.66-1.92-.29-3.02,10.73-3.11,23.17-3.87,24.62-1.52-4.33-10.48-4.33-10.48Z"/>
  <path class="cls-10" d="M28.59,236.92c-.98-6.57,18.24-13.69,40.74-19.1,21.22-5.12,31.51-21.53,48.88-29.33l34.98-34.52c7.54,8.28,5.88,25.26,13.55,33.38-13.98,12.95-23.1,14-31.86,20.43-19.57,15.32-59.88,25.43-59.88,25.43-30.24,21.29-33.24,21.69-23.05,8.67-1.09-2.84-11.07,1.74-22.63,6.33-22.86,9.02-.74-11.29-.74-11.29Z"/>
  <path class="cls-12" d="M339.18,276.05c-3.81-2.62-40.93-22.33-70.13-27.1-3.15-8.45,21.38-35.45,25.52-67,0,0,10.85,2.17,17.29,4.86,0,0,11.16-19.03,7.26-35.64-9.01-6.21-22.95-18.27-44.19-22.61-8.83-1.79-38.74-6.69-48.45-6.6-26.86.24-51.19,4.29-73.3,32,2.9,18.78,13.55,33.38,13.55,33.38,0,0,16.07-11,24.86-13.66,14.33,70.35-55.84,87.81,7.24,155.55,44.74-11.96,52.55-7.33,44.74-28.67,18.5,4.52,18.79,10.69,65.59,18.94,12.91,2.29,38.73-37.47,30.02-43.46Z"/>
  <path class="cls-8" d="M191.61,173.69c11.83,68.03-51.16,82.98,13.57,149.79,2.08-.56,2.86-5.52,4.79-6.02-57.68-64.85,2.62-85.38-18.36-143.77Z"/>
  <path class="cls-10" d="M360.37,312.6c1.09-13.67,1.72-26.79-21.19-36.57-20.1-2.24-34.93,32.47-30,43.48,4.4,2.02,15.55,5.46,15.55,5.46-3.17,25.71,16.41,43.18,20.53,73.24,2.15,15.83-6.44,25.78,15.02,29.47,14.72,2.53,26.55,18.64,50.24,2.31,11.48-7.91-34.97-10.95-43.72-31.73-3.49-8.25-7.43-73.34-6.44-85.67Z"/>
  <path class="cls-10" d="M242.5,349.71c8.79-11.03,10.6-26.39,3.51-40.83-20.04-6.24-44.48,2.97-47.16,20.37,2.91,4.25,5.19,8.29,5.19,8.29-17.5,20.05-7.31,43.57-20.59,71.58-7,14.74-20.6,18.21-2.86,33.86,12.14,10.74,12.34,33.47,43.47,33.36,15.07-.07-26.02-29.69-22.33-52.5,1.48-9.07,32.87-64.24,40.76-74.13Z"/>
  <path class="cls-8" d="M319.9,156.52c-9-6.17-18.88-25.19-49.23-31.96-8.79-1.97-34.41-4.97-44.1-4.9-26.86.26-50.72,9.3-72.83,37.01,0,0,.07,3.85,1.77,7.24,13.53-16.43,27.46-27.22,42.47-32.61,8.92,3.5,38.78,17.59,52.4,53.05,17.73-32.87,36.97-39.81,44.73-41.35,10.35,7.69,18.76,17.17,24.43,21.09,0,0,1.27-3.65.35-7.57Z"/>
  <path class="cls-10" d="M225.64,126.84c0,19.19,48.31,19.19,48.31,0v-21.24h-48.31v21.24Z"/>
  <path class="cls-1" d="M295.73,98.98c3.28,2.15,7.04,3.76,11.43,4.59-7.81-17.78,3.96-55.05-20.17-82.45-34.02,1.02-38.73,110.87,8.7,96.26-3.02-1.31-4.92-3.98-6.02-7.33,3.65,1.03,7.91,1.07,12.9-.45-3.96-1.72-5.98-5.74-6.84-10.62Z"/>
  <path class="cls-1" d="M210.31,21.12c-24.13,27.4-10.07,64.67-17.88,82.45,4.4-.83,8.17-2.43,11.43-4.59-.87,4.88-2.88,8.9-6.84,10.62,4.97,1.52,9.24,1.48,12.9.45-1.1,3.35-3,6.02-6.02,7.33,47.42,14.61,40.44-95.24,6.41-96.26Z"/>
  <path id="Path" class="cls-6" d="M299.44,58.55c-7.67.93-13.22,26.62-8.4,33.39.67.94,4.63,2.45,7.57-3.53,1.64-3.31,6.33-6.07,7.78-12.91,1.86-8.74.71-17.88-6.95-16.95Z"/>
  <path id="Path-2" data-name="Path" class="cls-6" d="M200.15,58.55c7.69.93,13.24,26.62,8.4,33.39-.67.94-4.63,2.45-7.57-3.53-1.62-3.31-6.33-6.07-7.78-12.91-1.86-8.74-.69-17.88,6.95-16.95Z"/>
  <path id="Path-3" data-name="Path" class="cls-15" d="M299.23,63.46c-2,.64-4.19,3.69-5.38,8.76,7.02-1.52,5.26,10.13-.83,10.36.05,1.17.14,2.38.27,3.65,2.93-4.25,5.91-2.55,8.88-8.88,2.66-5.7,2.02-15.44-2.95-13.89Z"/>
  <path id="Path-4" data-name="Path" class="cls-15" d="M205.74,72.21c-1.19-5.05-3.36-8.1-5.38-8.74-4.97-1.55-5.61,8.19-2.93,13.89,2.95,6.33,5.93,4.62,8.86,8.88.16-1.28.22-2.48.27-3.65-6.02-.3-7.76-11.79-.83-10.38Z"/>
  <path class="cls-6" d="M249.79,9.16c-33.29,0-49.35,27.06-47.32,61.87.41,7,2.37,17.09,4.76,25.74,5,17.96,31.35,36.07,42.57,36.07s37.57-18.11,42.58-36.07c2.41-8.65,4.36-18.74,4.78-25.74,2-34.81-14.04-61.87-47.35-61.87Z"/>
  <path id="Path-5" data-name="Path" class="cls-14" d="M285.98,55.98c-7.6-4.02-22.19-4.23-27.6-1.41-1.17.54-.4,4.34.56,3.98,7.57-2.98,19.78-3.05,26.86.26.94.43,1.32-2.28.18-2.82Z"/>
  <path id="Path-6" data-name="Path" class="cls-14" d="M213.62,55.98c7.62-4.02,22.18-4.23,27.62-1.41,1.16.54.4,4.34-.58,3.98-7.58-2.98-19.76-3.05-26.86.26-.94.43-1.33-2.28-.18-2.82Z"/>
  <path id="Path-7" data-name="Path" class="cls-15" d="M258.78,90.9c-.94-.65-3.17.36-8.99.36s-8.03-1.02-8.99-.36c-1.14.81.67,4.41,8.99,4.41s10.14-3.6,8.99-4.41Z"/>
  <path id="Path-8" data-name="Path" class="cls-15" d="M249.79,104.61c-7.49-2.21-18.58,1.03-18.58,1.03,4.23,4.6,7.33,10.57,18.58,10.57,12.9,0,15.1-6.78,18.58-10.57,0,0-11.1-3.24-18.58-1.03Z"/>
  <path id="Path-9" data-name="Path" class="cls-11" d="M234,106.42c7.85,6.59,23.71,6.62,31.6,0-8.38.36-23.19.36-31.6,0Z"/>
  <g id="eye-left">
    <path id="Path-10" data-name="Path" class="cls-11" d="M242.38,69.69c.29,2.21-1.21,4.81-5.34,6.78-2.64,1.24-8.1,2.71-15.29-.33-3.22-1.34-6.36-5.59-6.08-7.91,3.88-7.36,23.08-8.43,26.71,1.46Z"/>
    <g id="eye">
      <circle id="Oval" class="cls-5" cx="229.36" cy="69.54" r="7.53"/>
      <path id="Path-11" data-name="Path" class="cls-7" d="M225.6,69.41c0,5.21,7.54,5.21,7.54,0,0-4.83-7.54-4.83-7.54,0Z"/>
      <path id="Path-12" data-name="Path" class="cls-13" d="M224.45,67.31c0,2.17,3.17,2.17,3.17,0,0-2.04-3.17-2.04-3.17,0Z"/>
    </g>
    <path id="Path-13" data-name="Path" class="cls-15" d="M242.42,69.99c-3.05-9.81-23.91-8.36-26.76-1.76,1.04-8.47,24.15-10.69,26.76,1.76Z"/>
  </g>
  <g id="eye-right">
    <path id="Path-14" data-name="Path" class="cls-11" d="M257.2,69.69c-.29,2.21,1.21,4.81,5.34,6.78,2.64,1.24,8.1,2.71,15.3-.33,3.24-1.34,6.38-5.59,6.08-7.91-3.87-7.36-23.08-8.43-26.72,1.46Z"/>
    <g id="eye-copy">
      <circle id="Oval-2" data-name="Oval" class="cls-4" cx="270.05" cy="69.54" r="7.53"/>
      <path id="Path-15" data-name="Path" class="cls-7" d="M266.29,69.41c0,5.21,7.54,5.21,7.54,0,0-4.83-7.54-4.83-7.54,0Z"/>
      <path id="Path-16" data-name="Path" class="cls-13" d="M265.14,67.31c0,2.17,3.15,2.17,3.15,0,0-2.04-3.15-2.04-3.15,0Z"/>
    </g>
    <path id="Path-17" data-name="Path" class="cls-15" d="M257.17,69.99c3.05-9.81,23.91-8.4,26.77-1.76-1.05-8.47-24.16-10.69-26.77,1.76Z"/>
  </g>
  <path class="cls-3" d="M249.79,0c-20.26,0-30.38,9.16-32.43,13.51-24.5,5.59-32.38,46.84-14.04,64.44,2.28-18.76,4.47-30.81,16.95-43.5,7.29,9.75,22.43,15.23,35.96,15.23-6.42-4.63-10.8-9.21-14.22-13.44,22.63,10.36,47.97,17,54.26,41.73C318.04,43.34,299.97,0,249.79,0Z"/>
  <path class="cls-1" d="M217.37,13.5c-.31,17.26,6.67,30.19,38.88,36.18-23.08,1.55-46.8-12.39-38.88-36.18Z"/>
  <path class="cls-1" d="M219.38,33.34c-8.4,8.29-17.84,22.65-16.05,44.59,1.67-18.12,10-33.05,17.53-42.73-.54-.58-1.02-1.2-1.48-1.86Z"/>
  <path class="cls-1" d="M233.81,27.88c16.9,16.12,58.4,15.07,62.47,50.05-10.85-34.01-47.56-26.39-62.47-50.05Z"/>
</svg>