<?xml version="1.0" encoding="UTF-8"?>
<svg id="Layer_1" data-name="Layer 1" xmlns="http://www.w3.org/2000/svg" xmlns:xlink="http://www.w3.org/1999/xlink" viewBox="0 0 512.01 512">
  <defs>
    <style>
      .cls-1 {
        fill: url(#linear-gradient-2);
      }

      .cls-2 {
        fill: #1a1626;
      }

      .cls-3 {
        fill: url(#linear-gradient);
      }

      .cls-4 {
        fill: #e88b00;
      }

      .cls-5 {
        fill: #0057ba;
      }
    </style>
    <linearGradient id="linear-gradient" x1="423.84" y1="48.99" x2="423.84" y2="373.24" gradientTransform="translate(-108.69 486.08) rotate(10) scale(1 -1)" gradientUnits="userSpaceOnUse">
      <stop offset="0" stop-color="#0083cf"/>
      <stop offset=".17" stop-color="#008dd9"/>
      <stop offset=".69" stop-color="#00a9f5"/>
      <stop offset="1" stop-color="#00b3ff"/>
    </linearGradient>
    <linearGradient id="linear-gradient-2" x1="109.56" y1="86.24" x2="109.56" y2="410.51" gradientTransform="translate(101.85 441.43) rotate(-10) scale(1 -1)" gradientUnits="userSpaceOnUse">
      <stop offset="0" stop-color="#f7a500"/>
      <stop offset=".34" stop-color="#fac000"/>
      <stop offset=".76" stop-color="#fedc00"/>
      <stop offset="1" stop-color="#ffe600"/>
    </linearGradient>
  </defs>
  <path class="cls-3" d="M459.37,211.22c-54.86,19.89-131.12,4.55-173.02-30.51-28.1-23.54-78.81,16.39-81.51,93.17-1.62,46.13-3.86,103.3,5.86,130.02,13.84,38.22,74.65,101.97,106.53,107.56,31.86,5.64,110.82-33.49,136.91-64.63,18.28-21.79,35.71-76.27,49.95-120.18,23.73-73.05-10.27-127.92-44.72-115.41Z"/>
  <path class="cls-2" d="M403.44,450.74c-13.7-76.11-107.56-92.66-146.46-25.82-7.92,13.6,3.56,20.15,8.64,17.24,32.54-18.68,99.62-6.86,123.81,21.83,3.77,4.47,16.79,2.25,14-13.24Z"/>
  <path class="cls-5" d="M407.63,265.92c70.94,4.48,52.73,74.39,52.73,74.39,22.75-46.31-.35-96.74-52.73-74.39Z"/>
  <path class="cls-5" d="M316.28,249.82c-68.18-20.06-74.99,51.87-74.99,51.87-5.56-51.3,33.4-90.78,74.99-51.87Z"/>
  <path class="cls-5" d="M304.58,347.76c-65.62,7.7-63.51,81.73-63.51,81.73,0,0,11.26-61.84,63.51-81.73Z"/>
  <path class="cls-5" d="M385.11,361.96c59.03,29.69,31.73,98.54,31.73,98.54,0,0,10.56-61.97-31.73-98.54Z"/>
  <path class="cls-2" d="M323.74,321.74c2.25,2.68,8.27-.47,7.66-2.91-6.3-24.41-19.81-38.42-35.26-41.16-15.51-2.74-32.98,5.86-47.25,26.6-1.42,2.11,3.17,7.11,6.2,5.35,11.45-6.6,23.95-7.85,36.4-5.66,12.43,2.19,23.77,7.62,32.25,17.78Z"/>
  <path class="cls-2" d="M452.3,340.12c-6.27-24.38-19.79-38.41-35.26-41.13-15.51-2.75-32.99,5.81-47.22,26.57-1.44,2.11,3.14,7.12,6.2,5.38,11.48-6.64,23.94-7.88,36.4-5.68,12.43,2.19,23.73,7.65,32.24,17.79,2.24,2.68,8.25-.46,7.65-2.94Z"/>
  <path class="cls-5" d="M327.21,454.84c17.63,3.11,32.81,12.84,45.21,22.51-9-16.67-24.41-28.99-43.48-32.35-19.06-3.37-37.76,2.94-51.92,15.53,14.96-4.85,32.54-8.8,50.19-5.69Z"/>
  <path class="cls-5" d="M341.54,373.55c12.27,2.17,27.06-15.02,35.02-4.56-4.93-19.14-19.66-5.03-32.92-7.36-13.26-2.34-22.28-20.64-33.47-4.33,11.08-7.11,19.1,14.09,31.37,16.26Z"/>
  <path class="cls-1" d="M225.66,6.73c-44.75,37.47-121.65,49.12-173.02,30.52C18.18,24.72-15.82,79.59,7.91,152.66c14.24,43.9,31.7,98.4,49.96,120.17,26.08,31.18,105.03,70.3,136.89,64.65,31.87-5.6,92.69-69.37,106.55-107.56,9.72-26.74,7.47-83.88,5.85-130.02-2.69-76.78-53.41-116.71-81.5-93.18Z"/>
  <path class="cls-2" d="M246.63,197.35c-18.53,21-43.11,32.4-70.06,37.15-26.92,4.75-53.9,2.43-78.54-10.98-6.52-3.5-8.74,5.47-5.91,9.81,28.49,42.67,60.43,60.9,93.93,54.96,33.6-5.95,57.37-34,69.51-83.8,1.25-5.02-3.94-12.77-8.93-7.15Z"/>
  <path class="cls-4" d="M43.28,107.24c48.67-51.78,90.92,6.82,90.92,6.82-21.16-47.04-74.72-61.42-90.92-6.82Z"/>
  <path class="cls-4" d="M258.38,69.33c-63.46-32.02-83.11,37.5-83.11,37.5,3.78-51.47,49.21-83.27,83.11-37.5Z"/>
  <path class="cls-4" d="M108.62,206.93c-51.99-12.5-48.42,26.97-9.77,59.72,0,0-54.92-61.18,9.77-59.72Z"/>
  <path class="cls-4" d="M231.08,185.33c44.58-29.52,54.72,8.78,29.6,52.79,0,0,30.68-76.29-29.6-52.79Z"/>
  <path class="cls-2" d="M136.01,156.98c3.03,1.75,7.61-3.29,6.21-5.37-14.27-20.79-31.75-29.32-47.21-26.62-15.51,2.73-28.99,16.79-35.3,41.15-.61,2.48,5.41,5.6,7.65,2.92,8.49-10.14,19.81-15.56,32.26-17.77,12.44-2.2,24.95-.97,36.39,5.68Z"/>
  <path class="cls-2" d="M263.09,130.28c-14.23-20.77-31.74-29.32-47.2-26.6-15.51,2.71-29.01,16.75-35.28,41.11-.64,2.48,5.38,5.62,7.65,2.95,8.51-10.16,19.8-15.58,32.25-17.78,12.43-2.2,24.92-.95,36.39,5.68,3.04,1.75,7.6-3.25,6.19-5.37Z"/>
  <path class="cls-4" d="M188.72,303.13c-17.64,3.11-35.48-2.29-50.71-8.65,14.7,15.68,33.74,23.94,52.8,20.58,19.06-3.37,34.13-17.63,42.58-37.42-12.13,11.21-27.04,22.39-44.68,25.49Z"/>
  <path class="cls-4" d="M174.76,223.98c12.27-2.17,20.29-23.36,31.36-16.26-11.19-16.3-20.19,2-33.47,4.33-13.27,2.33-27.99-11.78-32.92,7.36,7.97-10.45,22.76,6.72,35.03,4.57Z"/>
</svg>