<?xml version="1.0" encoding="UTF-8"?>
<svg id="Layer_1" data-name="Layer 1" xmlns="http://www.w3.org/2000/svg" xmlns:xlink="http://www.w3.org/1999/xlink" viewBox="0 0 512 512">
  <defs>
    <style>
      .cls-1 {
        fill: url(#radial-gradient-2);
      }

      .cls-2 {
        fill: url(#radial-gradient);
      }
    </style>
    <radialGradient id="radial-gradient" cx="170.24" cy="307.84" fx="170.24" fy="307.84" r="278.15" gradientTransform="translate(30.57 519.31) scale(1.05 -1.05)" gradientUnits="userSpaceOnUse">
      <stop offset=".27" stop-color="#d2f205"/>
      <stop offset=".48" stop-color="#cff006"/>
      <stop offset=".64" stop-color="#c5ea08"/>
      <stop offset=".79" stop-color="#b4e10c"/>
      <stop offset=".93" stop-color="#9ed411"/>
    </radialGradient>
    <radialGradient id="radial-gradient-2" cx="271.8" cy="307.9" fx="271.8" fy="307.9" r="267.46" gradientTransform="translate(.59 514) scale(1 -1)" gradientUnits="userSpaceOnUse">
      <stop offset=".6" stop-color="#f8ffe8"/>
      <stop offset=".74" stop-color="#f5fce5"/>
      <stop offset=".85" stop-color="#edf4db"/>
      <stop offset=".96" stop-color="#dfe5ca"/>
      <stop offset="1" stop-color="#d7ddc0"/>
    </radialGradient>
  </defs>
  <path class="cls-2" d="M512,256c0,141.36-114.77,256-256.36,256-8.64,0-17.19-.44-25.6-1.26-6.01-18.07-36.05-27.67-50.54-10.21C86.2,471.57,15.74,390.84,1.8,292c.98-16.67,11.93-67.99-1.8-55.34C9.9,104.33,120.56,0,255.64,0s256.36,114.63,256.36,256Z"/>
  <path class="cls-1" d="M455.83,241.54C530.77,98.46,320.85-54.95,151.65,32.04,80.93,68.38,21.08,153.11,0,236.65c7.67,18.71,1.09,43.43,1.78,55.27C14.33,185.67,92.14,94.38,165.92,46.79c138.4-89.25,341.91,38.33,253.41,176.13-49.6,77.2-254.17,140-239.84,277.75,10.05-3.17,40.85.44,50.58,10.09-4.67-140.34,176.77-175.67,225.77-269.22Z"/>
</svg>