<?xml version="1.0" encoding="UTF-8"?>
<svg id="Layer_1" data-name="Layer 1" xmlns="http://www.w3.org/2000/svg" xmlns:xlink="http://www.w3.org/1999/xlink" viewBox="0 0 698.18 512">
  <defs>
    <style>
      .cls-1 {
        fill: #556670;
      }

      .cls-2 {
        fill: url(#radial-gradient-7);
      }

      .cls-3 {
        fill: url(#radial-gradient-6);
      }

      .cls-4 {
        fill: url(#radial-gradient-5);
      }

      .cls-5 {
        fill: url(#radial-gradient-4);
      }

      .cls-6 {
        fill: url(#radial-gradient-9);
      }

      .cls-7 {
        fill: url(#radial-gradient-8);
      }

      .cls-8 {
        fill: url(#radial-gradient-3);
      }

      .cls-9 {
        fill: url(#radial-gradient-2);
      }

      .cls-10 {
        fill: url(#linear-gradient-8);
      }

      .cls-11 {
        fill: url(#linear-gradient-7);
      }

      .cls-12 {
        fill: url(#linear-gradient-5);
      }

      .cls-13 {
        fill: url(#linear-gradient-6);
      }

      .cls-14 {
        fill: url(#linear-gradient-9);
      }

      .cls-15 {
        fill: url(#linear-gradient-4);
      }

      .cls-16 {
        fill: url(#linear-gradient-3);
      }

      .cls-17 {
        fill: url(#linear-gradient-2);
      }

      .cls-18 {
        fill: url(#radial-gradient);
      }

      .cls-19 {
        fill: url(#linear-gradient);
      }

      .cls-20 {
        fill: url(#radial-gradient-10);
      }

      .cls-21 {
        fill: #1a1626;
        isolation: isolate;
        opacity: .5;
      }

      .cls-22 {
        fill: #302c3b;
      }
    </style>
    <linearGradient id="linear-gradient" x1="349.09" y1="169.91" x2="349.09" y2="494.8" gradientTransform="translate(0 514) scale(1 -1)" gradientUnits="userSpaceOnUse">
      <stop offset=".12" stop-color="#302c3b"/>
      <stop offset=".24" stop-color="#393945"/>
      <stop offset=".47" stop-color="#454a53"/>
      <stop offset=".71" stop-color="#4c555b"/>
      <stop offset="1" stop-color="#4e585e"/>
    </linearGradient>
    <linearGradient id="linear-gradient-2" x1="-1448.14" y1="109.86" x2="-1588.94" y2="175.51" gradientTransform="translate(-911.2 514) rotate(-180)" gradientUnits="userSpaceOnUse">
      <stop offset=".32" stop-color="#302c3b"/>
      <stop offset=".37" stop-color="#33303e"/>
      <stop offset=".77" stop-color="#474d55"/>
      <stop offset="1" stop-color="#4e585e"/>
    </linearGradient>
    <linearGradient id="linear-gradient-3" x1="777.18" y1="65.48" x2="640.78" y2="203.39" gradientTransform="translate(-643.75 514) scale(1 -1)" gradientUnits="userSpaceOnUse">
      <stop offset=".32" stop-color="#302c3b"/>
      <stop offset=".37" stop-color="#33303e"/>
      <stop offset=".77" stop-color="#474d55"/>
      <stop offset="1" stop-color="#4e585e"/>
    </linearGradient>
    <linearGradient id="linear-gradient-4" x1="452.65" y1="146.64" x2="452.65" y2="286.28" gradientTransform="translate(0 514) scale(1 -1)" gradientUnits="userSpaceOnUse">
      <stop offset="0" stop-color="#302c3b"/>
      <stop offset=".34" stop-color="#3f424c"/>
      <stop offset=".72" stop-color="#4a5259"/>
      <stop offset="1" stop-color="#4e585e"/>
    </linearGradient>
    <radialGradient id="radial-gradient" cx="442.1" cy="231.82" fx="442.1" fy="231.82" r="55.24" gradientTransform="translate(0 514) scale(1 -1)" gradientUnits="userSpaceOnUse">
      <stop offset="0" stop-color="#7b9099"/>
      <stop offset=".32" stop-color="#788d95"/>
      <stop offset=".62" stop-color="#70828a"/>
      <stop offset=".92" stop-color="#617077"/>
      <stop offset="1" stop-color="#5c6a70"/>
    </radialGradient>
    <linearGradient id="linear-gradient-5" x1="245.53" y1="146.64" x2="245.53" y2="286.28" gradientTransform="translate(0 514) scale(1 -1)" gradientUnits="userSpaceOnUse">
      <stop offset="0" stop-color="#302c3b"/>
      <stop offset=".34" stop-color="#3f424c"/>
      <stop offset=".72" stop-color="#4a5259"/>
      <stop offset="1" stop-color="#4e585e"/>
    </linearGradient>
    <radialGradient id="radial-gradient-2" cx="234.89" cy="231.82" fx="234.89" fy="231.82" r="55.24" gradientTransform="translate(0 514) scale(1 -1)" gradientUnits="userSpaceOnUse">
      <stop offset="0" stop-color="#7b9099"/>
      <stop offset=".32" stop-color="#788d95"/>
      <stop offset=".62" stop-color="#70828a"/>
      <stop offset=".92" stop-color="#617077"/>
      <stop offset="1" stop-color="#5c6a70"/>
    </radialGradient>
    <linearGradient id="linear-gradient-6" x1="544.7" y1="279.41" x2="544.7" y2="488.87" gradientTransform="translate(0 514) scale(1 -1)" gradientUnits="userSpaceOnUse">
      <stop offset="0" stop-color="#4e585e"/>
      <stop offset=".28" stop-color="#4a5259"/>
      <stop offset=".66" stop-color="#3f424c"/>
      <stop offset="1" stop-color="#302c3b"/>
    </linearGradient>
    <linearGradient id="linear-gradient-7" x1="153.48" y1="279.41" x2="153.48" y2="488.87" gradientTransform="translate(0 514) scale(1 -1)" gradientUnits="userSpaceOnUse">
      <stop offset="0" stop-color="#4e585e"/>
      <stop offset=".28" stop-color="#4a5259"/>
      <stop offset=".66" stop-color="#3f424c"/>
      <stop offset="1" stop-color="#302c3b"/>
    </linearGradient>
    <linearGradient id="linear-gradient-8" x1="544.7" y1="291.05" x2="544.7" y2="477.23" gradientTransform="translate(0 514) scale(1 -1)" gradientUnits="userSpaceOnUse">
      <stop offset="0" stop-color="#302c3b" stop-opacity=".3"/>
      <stop offset=".34" stop-color="#3f424c" stop-opacity=".54"/>
      <stop offset=".72" stop-color="#4a5259" stop-opacity=".8"/>
      <stop offset="1" stop-color="#4e585e"/>
    </linearGradient>
    <linearGradient id="linear-gradient-9" x1="153.48" y1="291.05" x2="153.48" y2="477.23" gradientTransform="translate(0 514) scale(1 -1)" gradientUnits="userSpaceOnUse">
      <stop offset="0" stop-color="#302c3b" stop-opacity=".3"/>
      <stop offset=".34" stop-color="#3f424c" stop-opacity=".54"/>
      <stop offset=".72" stop-color="#4a5259" stop-opacity=".8"/>
      <stop offset="1" stop-color="#4e585e"/>
    </linearGradient>
    <radialGradient id="radial-gradient-3" cx="538.5" cy="444.15" fx="538.5" fy="444.15" r="31.95" gradientTransform="translate(0 514) scale(1 -1)" gradientUnits="userSpaceOnUse">
      <stop offset="0" stop-color="#ffe02e"/>
      <stop offset=".37" stop-color="#ffdd2c"/>
      <stop offset=".6" stop-color="#ffd525"/>
      <stop offset=".78" stop-color="#ffc719"/>
      <stop offset=".95" stop-color="#ffb307"/>
      <stop offset="1" stop-color="#fa0"/>
    </radialGradient>
    <radialGradient id="radial-gradient-4" cx="586.21" cy="395.35" fx="586.21" fy="395.35" r="31.95" gradientTransform="translate(0 514) scale(1 -1)" gradientUnits="userSpaceOnUse">
      <stop offset="0" stop-color="#ff3b3b"/>
      <stop offset=".36" stop-color="#fd3938"/>
      <stop offset=".58" stop-color="#f63030"/>
      <stop offset=".76" stop-color="#e92222"/>
      <stop offset=".92" stop-color="#d80e0e"/>
      <stop offset="1" stop-color="#cc0100"/>
    </radialGradient>
    <radialGradient id="radial-gradient-5" cx="537.04" cy="347.63" fx="537.04" fy="347.63" r="31.95" gradientTransform="translate(0 514) scale(1 -1)" gradientUnits="userSpaceOnUse">
      <stop offset="0" stop-color="#9be022"/>
      <stop offset=".36" stop-color="#9d2"/>
      <stop offset=".57" stop-color="#92d522"/>
      <stop offset=".74" stop-color="#87c722"/>
      <stop offset=".9" stop-color="#77b323"/>
      <stop offset="1" stop-color="#69a123"/>
    </radialGradient>
    <radialGradient id="radial-gradient-6" cx="490.07" cy="396.43" fx="490.07" fy="396.43" r="31.96" gradientTransform="translate(0 514) scale(1 -1)" gradientUnits="userSpaceOnUse">
      <stop offset="0" stop-color="#2289c7"/>
      <stop offset=".35" stop-color="#2187c4"/>
      <stop offset=".57" stop-color="#1c80bc"/>
      <stop offset=".74" stop-color="#1575ae"/>
      <stop offset=".89" stop-color="#0a659a"/>
      <stop offset="1" stop-color="#005687"/>
    </radialGradient>
    <radialGradient id="radial-gradient-7" cx="110.25" cy="384.2" fx="110.25" fy="384.2" r="24.43" gradientTransform="translate(0 514) scale(1 -1)" gradientUnits="userSpaceOnUse">
      <stop offset="0" stop-color="#7b9099"/>
      <stop offset=".45" stop-color="#768a92"/>
      <stop offset="1" stop-color="#6a7b82"/>
    </radialGradient>
    <radialGradient id="radial-gradient-8" cx="196.65" cy="384.2" fx="196.65" fy="384.2" r="24.43" gradientTransform="translate(0 514) scale(1 -1)" gradientUnits="userSpaceOnUse">
      <stop offset="0" stop-color="#7b9099"/>
      <stop offset=".45" stop-color="#768a92"/>
      <stop offset="1" stop-color="#6a7b82"/>
    </radialGradient>
    <radialGradient id="radial-gradient-9" cx="153.47" cy="427.37" fx="153.47" fy="427.37" r="24.46" gradientTransform="translate(0 514) scale(1 -1)" gradientUnits="userSpaceOnUse">
      <stop offset="0" stop-color="#7b9099"/>
      <stop offset=".45" stop-color="#768a92"/>
      <stop offset="1" stop-color="#6a7b82"/>
    </radialGradient>
    <radialGradient id="radial-gradient-10" cx="153.47" cy="340.97" fx="153.47" fy="340.97" r="24.44" gradientTransform="translate(0 514) scale(1 -1)" gradientUnits="userSpaceOnUse">
      <stop offset="0" stop-color="#7b9099"/>
      <stop offset=".45" stop-color="#768a92"/>
      <stop offset="1" stop-color="#6a7b82"/>
    </radialGradient>
  </defs>
  <path class="cls-22" d="M273.11,24.09S239.36,0,222.72,0C97.16,0,80.99,56.55,76.45,73.08c-4.42,16.64,190.72-46.31,196.65-48.99Z"/>
  <path class="cls-22" d="M425.08,24.09S458.82,0,475.46,0c125.56,0,141.73,56.55,146.27,73.08,4.42,16.64-190.72-46.31-196.65-48.99Z"/>
  <path class="cls-19" d="M661.41,178.5s-11.29-49.92-21.88-81.45c-19.9-58.88-121.37-77.85-290.44-77.85S78.43,38.05,58.65,97.05c-10.59,31.53-21.88,81.45-21.88,81.45,0,0-10.24,143.48,163.84,165.59h296.96c174.08-22.11,163.84-165.59,163.84-165.59Z"/>
  <path class="cls-17" d="M661.41,178.5c18.73,83.2,36.77,252.16,36.77,287.65,0,23.85-18.5,45.85-40.73,45.85-23.62,0-64.58-17.45-84.48-37.24-14.55-14.55-75.4-130.68-75.4-130.68,42.12-11.87,159.77-113.8,163.84-165.59Z"/>
  <path class="cls-16" d="M36.77,178.5C18.04,261.7,0,430.66,0,466.15c0,23.85,18.5,45.85,40.73,45.85,23.62,0,64.58-17.45,84.48-37.24,14.55-14.55,75.4-130.68,75.4-130.68-42.12-11.87-159.77-113.8-163.84-165.59Z"/>
  <circle class="cls-15" cx="452.65" cy="297.54" r="69.82"/>
  <circle class="cls-21" cx="452.65" cy="297.54" r="58.18"/>
  <circle class="cls-18" cx="452.65" cy="297.54" r="49.45"/>
  <circle class="cls-12" cx="245.53" cy="297.54" r="69.82"/>
  <circle class="cls-21" cx="245.53" cy="297.54" r="58.18"/>
  <circle class="cls-9" cx="245.53" cy="297.54" r="49.45"/>
  <path id="Shape" class="cls-1" d="M349.09,117.76c19.2,0,34.91,15.71,34.91,34.91s-15.71,34.91-34.91,34.91-34.91-15.71-34.91-34.91,15.71-34.91,34.91-34.91ZM349.09,106.12c-25.72,0-46.55,20.83-46.55,46.55s20.83,46.55,46.55,46.55,46.55-20.83,46.55-46.55-20.83-46.55-46.55-46.55Z"/>
  <path id="Combined-Shape" class="cls-1" d="M358.4,157.32c-1.51,0-2.33-.81-2.33-2.33v-4.65c0-1.51.81-2.33,2.33-2.33h15.13c1.51,0,2.33.81,2.33,2.33v2.33c0,14.78-11.99,26.76-26.76,26.76-7.21,0-13.96-2.91-18.97-7.8-1.05-1.16-1.05-2.21,0-3.26l5-4.89c1.05-1.05,2.21-1.05,3.26,0,2.79,2.79,6.63,4.42,10.71,4.42,6.75,0,12.45-4.42,14.43-10.47h-5.12v-.12Z"/>
  <circle class="cls-13" cx="544.7" cy="129.86" r="104.73"/>
  <circle class="cls-11" cx="153.48" cy="129.86" r="104.73"/>
  <circle class="cls-10" cx="544.7" cy="129.86" r="93.09"/>
  <circle class="cls-14" cx="153.48" cy="129.86" r="93.09"/>
  <path class="cls-8" d="M544.7,54.23c-14.78,0-26.88,12.1-26.88,26.88s11.99,26.88,26.88,26.88,26.88-11.99,26.88-26.88c0-14.89-11.99-26.88-26.88-26.88Z"/>
  <path class="cls-5" d="M593.57,102.98c-14.89,0-26.88,11.99-26.88,26.88s11.99,26.88,26.88,26.88,26.88-11.99,26.88-26.88c-.12-14.89-12.1-26.88-26.88-26.88Z"/>
  <path class="cls-4" d="M544.7,151.74c-14.78,0-26.88,11.99-26.88,26.88s11.99,26.88,26.88,26.88,26.88-11.99,26.88-26.88c0-14.78-11.99-26.88-26.88-26.88Z"/>
  <path class="cls-3" d="M495.94,102.98c-14.89,0-26.88,12.1-26.88,26.88s11.99,26.88,26.88,26.88,26.88-11.99,26.88-26.88-12.1-26.88-26.88-26.88Z"/>
  <path class="cls-2" d="M127.07,115.08c-3.72-4.07-11.4-7.33-16.87-7.33h-16.52c-5.47,0-10.01,4.54-10.01,10.01v24.09c0,5.47,4.54,10.01,10.01,10.01h16.52c5.59,0,13.15-3.26,16.87-7.33l6.98-7.45c3.72-4.07,3.72-10.59,0-14.66l-6.98-7.33Z"/>
  <path class="cls-7" d="M179.78,144.52c3.72,4.07,11.4,7.33,16.87,7.33h16.64c5.47,0,10.01-4.54,10.01-10.01v-24.09c0-5.47-4.54-10.01-10.01-10.01h-16.64c-5.47,0-13.15,3.26-16.87,7.33l-6.98,7.45c-3.72,4.07-3.72,10.59,0,14.66l6.98,7.33Z"/>
  <path class="cls-6" d="M168.26,103.45c3.96-3.84,7.33-11.4,7.33-16.87v-16.52c0-5.47-4.54-10.01-10.01-10.01h-24.09c-5.47,0-10.01,4.54-10.01,10.01v16.52c0,5.47,3.26,13.15,7.33,16.87l7.45,6.98c3.96,3.72,10.59,3.72,14.66,0l7.33-6.98Z"/>
  <path class="cls-20" d="M138.71,156.16c-4.07,3.72-7.33,11.4-7.33,16.87v16.64c0,5.47,4.54,10.01,10.01,10.01h24.09c5.47,0,10.01-4.54,10.01-10.01v-16.64c0-5.47-3.26-13.15-7.33-16.87l-7.45-6.98c-4.07-3.72-10.59-3.72-14.66,0l-7.33,6.98Z"/>
</svg>