<?xml version="1.0" encoding="UTF-8"?>
<svg id="Layer_1" data-name="Layer 1" xmlns="http://www.w3.org/2000/svg" xmlns:xlink="http://www.w3.org/1999/xlink" viewBox="0 0 493.71 512">
  <defs>
    <style>
      .cls-1 {
        fill: url(#radial-gradient-3);
      }

      .cls-2 {
        fill: url(#radial-gradient-2);
      }

      .cls-3 {
        fill: #449c00;
      }

      .cls-4 {
        fill: #785647;
      }

      .cls-5 {
        fill: url(#radial-gradient);
      }

      .cls-6 {
        fill: #56ab15;
      }

      .cls-7 {
        fill: #5fbd17;
      }
    </style>
    <radialGradient id="radial-gradient" cx="154.54" cy="340.26" fx="154.54" fy="340.26" r="262.44" gradientTransform="translate(34.85 554.79) scale(1.03 -1.04)" gradientUnits="userSpaceOnUse">
      <stop offset=".4" stop-color="#93d422"/>
      <stop offset=".63" stop-color="#90d120"/>
      <stop offset=".78" stop-color="#88c919"/>
      <stop offset=".91" stop-color="#79ba0d"/>
      <stop offset="1" stop-color="#69ab00"/>
    </radialGradient>
    <radialGradient id="radial-gradient-2" cx="204.73" cy="-49.32" fx="204.73" fy="-49.32" r="100.56" gradientTransform="translate(34.85 104.73) scale(1.03 -.47)" gradientUnits="userSpaceOnUse">
      <stop offset="0" stop-color="#6aad00"/>
      <stop offset="1" stop-color="#6aad00" stop-opacity="0"/>
    </radialGradient>
    <radialGradient id="radial-gradient-3" cx="238.31" cy="1796.51" fx="238.31" fy="1796.51" r="112.18" gradientTransform="translate(-460.8598 -1741.4944) rotate(-5.6005) scale(1.0923 1.1196) skewX(3.933)" gradientUnits="userSpaceOnUse">
      <stop offset="0" stop-color="#aff23c"/>
      <stop offset="1" stop-color="#aff23c" stop-opacity="0"/>
    </radialGradient>
  </defs>
  <path class="cls-5" d="M245.78,99.47C226.12,99.47,0,24.37,0,238.24c0,129.83,133.73,273.76,192.11,273.76,26.49,0,38.3-17.03,53.67-17.03s18.37,17.03,52.28,17.03c58.38,0,195.66-158.85,195.66-273.76,0-214.11-228.29-138.78-247.94-138.78Z"/>
  <path class="cls-2" d="M246.86,135.41c55.95,0,52.7-28.53,180.76-31.61-69.04-35.8-169.12-4.33-181.85-4.33s-111.71-31.31-180.11,4.32c128.48,3,125.17,31.62,181.19,31.62Z"/>
  <path class="cls-1" d="M250.72,209.7c-11.39-68.58-75.24-118.82-142.56-112.2C40.78,104.09-4.58,165.03,6.8,233.61c11.41,68.59,75.25,118.81,142.59,112.21,67.36-6.59,112.73-67.54,101.32-136.12Z"/>
  <path class="cls-3" d="M246.77,125.21C366.09,126.09,371.14,0,371.14,0,371.14,0,271.7,75.76,246.77,125.21Z"/>
  <path class="cls-6" d="M246.77,125.21C277.71,80.05,371.14,0,371.14,0,371.14,0,242.25-.38,246.77,125.21Z"/>
  <path class="cls-7" d="M256.58,112.21c-2.62-9.1-2.93-18.83-1.87-28.17,1.2-9.33,4.01-18.36,8.58-26.01-3.62,8.27-6.27,17.08-7.31,26.29-.62,4.57-.8,9.23-.71,13.9.12,4.65.45,9.37,1.33,14Z"/>
  <path class="cls-7" d="M272.39,93.96c-3.24-10.22-3.68-21.39-2.08-31.92.9-5.25,2.33-10.37,4.36-15.14,2.04-4.76,4.64-9.16,7.7-13.07-5.3,8.55-9.23,18.18-10.8,28.54-.89,5.15-1.19,10.46-1.04,15.73.16,5.3.67,10.65,1.86,15.85Z"/>
  <path class="cls-7" d="M290.45,75.02c-1.92-10.48-1.37-21.42,1.01-31.63,1.31-5.07,3.09-9.99,5.51-14.46,2.39-4.5,5.46-8.46,8.91-11.83-6.24,7.55-10.82,16.7-13.17,26.74-1.3,4.97-1.99,10.15-2.38,15.38-.35,5.21-.39,10.51.12,15.8Z"/>
  <path class="cls-7" d="M312.27,53.53c-.15-8.59,1.45-17.11,4.11-25.04,1.43-3.91,3.11-7.75,5.24-11.22,2.08-3.5,4.64-6.6,7.47-9.25-5.01,6.11-8.89,13.27-11.51,21.07-1.41,3.85-2.43,7.88-3.35,11.96-.84,4.1-1.57,8.26-1.96,12.49Z"/>
  <path class="cls-7" d="M333.32,33.78c.86-6.43,3.14-12.48,6.11-17.93,1.57-2.69,3.3-5.25,5.37-7.46,2.01-2.24,4.35-4.12,6.85-5.56-4.44,3.85-8.2,8.5-11.14,13.84-1.55,2.6-2.83,5.41-4.02,8.26-1.17,2.86-2.29,5.81-3.16,8.85Z"/>
  <path class="cls-6" d="M256.58,112.21c7.64,4.54,16.36,6.3,24.97,6.3,8.63-.16,17.34-2.41,25.18-7.04-8.2,3.37-16.67,5.42-25.15,5.43-4.25.14-8.48-.29-12.67-1.07-4.19-.8-8.34-1.87-12.32-3.62Z"/>
  <path class="cls-6" d="M272.39,93.96c9.27,5.86,19.88,8.55,30.23,8.66,5.16-.05,10.3-.77,15.2-2.29,4.87-1.53,9.5-3.81,13.73-6.71-9.01,4.71-18.87,7.56-29.06,7.45-5.07.07-10.18-.61-15.23-1.8-5.05-1.23-10.08-2.87-14.88-5.3Z"/>
  <path class="cls-6" d="M290.45,75.02c9.96,4.52,20.66,6.32,30.92,5.86,5.12-.37,10.13-1.34,14.79-3.13,4.68-1.74,8.93-4.38,12.66-7.59-8.16,5.48-17.66,8.7-27.72,9.2-5.02.36-10.15,0-15.28-.69-5.15-.78-10.3-1.88-15.38-3.65Z"/>
  <path class="cls-6" d="M312.27,53.53c8.12,2.73,16.51,3.5,24.58,2.93,4-.42,7.97-1.14,11.68-2.48,3.74-1.28,7.2-3.2,10.28-5.57-6.8,3.75-14.35,5.93-22.28,6.54-3.94.41-7.96.35-12.01.14-4.04-.27-8.13-.72-12.23-1.55Z"/>
  <path class="cls-6" d="M333.32,33.78c6.8.73,13.39-.27,19.42-2.21,2.95-1.12,5.81-2.42,8.34-4.19,2.57-1.71,4.75-3.89,6.53-6.37-4.48,4.08-9.75,7.15-15.63,9.09-2.88,1.08-5.95,1.79-9.06,2.41-3.13.59-6.32,1.07-9.59,1.27Z"/>
  <path class="cls-4" d="M252.56,135.41c-21.71-21.71-14.23-103.37,2.38-103.37,27.47,0-20.33,28.25-2.38,103.37Z"/>
</svg>